<?xml version="1.0" encoding="utf-8"?>
<!-- Generator: Adobe Illustrator 22.0.1, SVG Export Plug-In . SVG Version: 6.00 Build 0)  -->
<svg version="1.1" id="Layer_1" xmlns="http://www.w3.org/2000/svg" xmlns:xlink="http://www.w3.org/1999/xlink" x="0px" y="0px"
	 viewBox="0 0 3000 3004.7" style="enable-background:new 0 0 3000 3004.7;" xml:space="preserve">
<g>
	<path d="M1500,279.1c83.1,0,166.1,8.4,246.7,24.9c78.5,16.1,155.7,40,229.4,71.2c72.5,30.6,142.3,68.6,207.7,112.8
		c64.8,43.8,125.7,94.1,181.1,149.4c55.4,55.4,105.7,116.3,149.4,181.1c44.2,65.4,82.1,135.3,112.8,207.7
		c31.2,73.8,55.2,151,71.2,229.4c16.5,80.6,24.9,163.6,24.9,246.7s-8.4,166.1-24.9,246.7c-16.1,78.5-40,155.7-71.2,229.4
		c-30.6,72.5-68.6,142.3-112.8,207.7c-43.8,64.8-94.1,125.7-149.4,181.1c-55.4,55.4-116.3,105.7-181.1,149.4
		c-65.4,44.2-135.3,82.1-207.7,112.8c-73.8,31.2-151,55.2-229.4,71.2c-80.6,16.5-163.6,24.9-246.7,24.9s-166.1-8.4-246.7-24.9
		c-78.5-16.1-155.7-40-229.4-71.2c-72.5-30.6-142.3-68.6-207.7-112.8c-64.8-43.8-125.7-94.1-181.1-149.4
		c-55.4-55.4-105.7-116.3-149.4-181.1c-44.2-65.4-82.1-135.3-112.8-207.7c-31.2-73.8-55.2-151-71.2-229.4
		c-16.5-80.6-24.9-163.6-24.9-246.7s8.4-166.1,24.9-246.7c16.1-78.5,40-155.7,71.2-229.4c30.6-72.5,68.6-142.3,112.8-207.7
		c43.8-64.8,94.1-125.7,149.4-181.1C690.5,582,751.4,531.7,816.2,488c65.4-44.2,135.3-82.1,207.7-112.8
		c73.8-31.2,151-55.2,229.4-71.2C1333.9,287.5,1416.9,279.1,1500,279.1 M1500,148.1c-747.9,0-1354.2,606.3-1354.2,1354.2
		S752.1,2856.5,1500,2856.5s1354.2-606.3,1354.2-1354.2S2247.9,148.1,1500,148.1L1500,148.1z"/>
</g>
<g>
	<path d="M680.7,1393.6l-132.3-154.3L763,1011.5h235.2v980.3H680.7V1393.6z"/>
	<path d="M1427.3,2016.7c-50,0-97-8.3-141.1-25c-44.1-16.7-82.5-40.2-115.4-70.5c-32.8-30.4-58.8-66.4-77.9-108
		s-28.6-87.4-28.6-137.4c0-40.2,5.6-75.4,16.9-105.8c11.3-30.4,23.8-55.9,37.5-76.4c16.7-24.5,35.3-45.1,55.9-61.7
		c-10.8-11.8-20.1-25.5-27.9-41.2c-6.9-13.7-13-30.4-18.4-50c-5.4-19.6-8.1-42.1-8.1-67.6c0-40.2,8.1-77.6,24.2-112.4
		c16.2-34.8,38.2-64.9,66.1-90.4c27.9-25.5,60.5-45.6,97.7-60.3c37.2-14.7,76.9-22.1,119-22.1s81.8,7.4,119,22.1
		c37.2,14.7,69.8,34.8,97.7,60.3c27.9,25.5,49.9,55.6,66.1,90.4c16.2,34.8,24.3,72.3,24.3,112.4c0,25.5-3,48-8.8,67.6
		c-5.9,19.6-12.2,36.3-19.1,50c-7.8,15.7-16.7,29.4-26.5,41.2c19.6,16.7,37.7,37.2,54.4,61.7c13.7,20.6,26.4,46.1,38.2,76.4
		c11.8,30.4,17.6,65.7,17.6,105.8c0,50-9.6,95.8-28.7,137.4c-19.1,41.6-45.1,77.6-77.9,108c-32.8,30.4-71.3,53.9-115.4,70.5
		C1524.3,2008.4,1477.2,2016.7,1427.3,2016.7z M1347.9,1652.2c0,22.6,7.6,41.4,22.8,56.6c15.2,15.2,34,22.8,56.6,22.8
		c22.5,0,41.4-7.6,56.6-22.8c15.2-15.2,22.8-34,22.8-56.6c0-22.5-7.6-41.4-22.8-56.6c-15.2-15.2-34.1-22.8-56.6-22.8
		c-22.5,0-41.4,7.6-56.6,22.8C1355.5,1610.9,1347.9,1629.7,1347.9,1652.2z M1377.3,1293.7c0,13.7,4.9,25.5,14.7,35.3
		c9.8,9.8,21.5,14.7,35.3,14.7c13.7,0,25.5-4.9,35.3-14.7c9.8-9.8,14.7-21.6,14.7-35.3c0-13.7-4.9-25.5-14.7-35.3
		c-9.8-9.8-21.6-14.7-35.3-14.7c-13.7,0-25.5,4.9-35.3,14.7C1382.2,1268.2,1377.3,1280,1377.3,1293.7z"/>
	<path d="M2020.9,1638.8h-186.6v-244h186.6v-186.6h244v186.6h186.7v244h-186.7v186.7h-244V1638.8z"/>
</g>
</svg>
