<svg xmlns="http://www.w3.org/2000/svg" viewBox="0 0 100 100" width="100" height="100">
	<style>
		tspan { white-space:pre }
		.shp0 { fill: #000000 } 
	</style>
	<g id="Layer">
		<path id="Layer" class="shp0" d="M50.13,5.99c2.99,0 5.99,0.3 8.89,0.9c2.83,0.58 5.61,1.44 8.27,2.57c2.61,1.1 5.13,2.47 7.48,4.06c2.34,1.58 4.53,3.39 6.53,5.38c2,2 3.81,4.19 5.38,6.53c1.59,2.36 2.96,4.88 4.06,7.48c1.12,2.66 1.99,5.44 2.57,8.27c0.59,2.9 0.9,5.9 0.9,8.89c0,2.99 -0.3,5.99 -0.9,8.89c-0.58,2.83 -1.44,5.61 -2.57,8.27c-1.1,2.61 -2.47,5.13 -4.06,7.48c-1.58,2.34 -3.39,4.53 -5.38,6.53c-2,2 -4.19,3.81 -6.53,5.38c-2.36,1.59 -4.88,2.96 -7.48,4.06c-2.66,1.12 -5.44,1.99 -8.27,2.57c-2.9,0.59 -5.9,0.9 -8.89,0.9c-2.99,0 -5.99,-0.3 -8.89,-0.9c-2.83,-0.58 -5.61,-1.44 -8.27,-2.57c-2.61,-1.1 -5.13,-2.47 -7.48,-4.06c-2.34,-1.58 -4.53,-3.39 -6.53,-5.38c-2,-2 -3.81,-4.19 -5.38,-6.53c-1.59,-2.36 -2.96,-4.88 -4.06,-7.48c-1.12,-2.66 -1.99,-5.44 -2.57,-8.27c-0.59,-2.9 -0.9,-5.9 -0.9,-8.89c0,-2.99 0.3,-5.99 0.9,-8.89c0.58,-2.83 1.44,-5.61 2.57,-8.27c1.1,-2.61 2.47,-5.13 4.06,-7.48c1.58,-2.34 3.39,-4.53 5.38,-6.53c2,-2 4.19,-3.81 6.53,-5.38c2.36,-1.59 4.88,-2.96 7.48,-4.06c2.66,-1.12 5.44,-1.99 8.27,-2.57c2.9,-0.59 5.9,-0.9 8.89,-0.9zM50.13,1.26c-26.95,0 -48.8,21.85 -48.8,48.8c0,26.95 21.85,48.8 48.8,48.8c26.95,0 48.8,-21.85 48.8,-48.8c0,-26.95 -21.85,-48.8 -48.8,-48.8z" />
	</g>
	<g id="Layer">
		<path id="Layer" class="shp0" d="M20.6,46.15l-4.77,-5.56l7.73,-8.21h8.48v35.33h-11.44z" />
		<path id="Layer" class="shp0" d="M47.51,68.6c-1.8,0 -3.5,-0.3 -5.08,-0.9c-1.59,-0.6 -2.97,-1.45 -4.16,-2.54c-1.18,-1.1 -2.12,-2.39 -2.81,-3.89c-0.69,-1.5 -1.03,-3.15 -1.03,-4.95c0,-1.45 0.2,-2.72 0.61,-3.81c0.41,-1.1 0.86,-2.01 1.35,-2.75c0.6,-0.88 1.27,-1.63 2.01,-2.22c-0.39,-0.43 -0.72,-0.92 -1.01,-1.48c-0.25,-0.49 -0.47,-1.1 -0.66,-1.8c-0.19,-0.71 -0.29,-1.52 -0.29,-2.44c0,-1.45 0.29,-2.8 0.87,-4.05c0.58,-1.25 1.38,-2.34 2.38,-3.26c1.01,-0.92 2.18,-1.64 3.52,-2.17c1.34,-0.53 2.77,-0.8 4.29,-0.8c1.52,0 2.95,0.27 4.29,0.8c1.34,0.53 2.52,1.25 3.52,2.17c1.01,0.92 1.8,2 2.38,3.26c0.58,1.25 0.88,2.61 0.88,4.05c0,0.92 -0.11,1.73 -0.32,2.44c-0.21,0.71 -0.44,1.31 -0.69,1.8c-0.28,0.57 -0.6,1.06 -0.95,1.48c0.71,0.6 1.36,1.34 1.96,2.22c0.49,0.74 0.95,1.66 1.38,2.75c0.43,1.1 0.63,2.37 0.63,3.81c0,1.8 -0.35,3.45 -1.03,4.95c-0.69,1.5 -1.63,2.8 -2.81,3.89c-1.18,1.1 -2.57,1.94 -4.16,2.54c-1.58,0.6 -3.28,0.9 -5.07,0.9zM44.65,55.47c0,0.81 0.27,1.49 0.82,2.04c0.55,0.55 1.23,0.82 2.04,0.82c0.81,0 1.49,-0.27 2.04,-0.82c0.55,-0.55 0.82,-1.23 0.82,-2.04c0,-0.81 -0.27,-1.49 -0.82,-2.04c-0.55,-0.55 -1.23,-0.82 -2.04,-0.82c-0.81,0 -1.49,0.27 -2.04,0.82c-0.55,0.55 -0.82,1.23 -0.82,2.04zM45.7,42.55c0,0.49 0.18,0.92 0.53,1.27c0.35,0.35 0.77,0.53 1.27,0.53c0.49,0 0.92,-0.18 1.27,-0.53c0.35,-0.35 0.53,-0.78 0.53,-1.27c0,-0.49 -0.18,-0.92 -0.53,-1.27c-0.35,-0.35 -0.78,-0.53 -1.27,-0.53c-0.49,0 -0.92,0.18 -1.27,0.53c-0.35,0.35 -0.53,0.78 -0.53,1.27z" />
		<path id="Layer" class="shp0" d="M68.9,54.98h-6.72v-8.79h6.72v-6.72h8.79v6.72h6.73v8.79h-6.73v6.73h-8.79z" />
	</g>
</svg>