<?xml version="1.0" encoding="UTF-8"?>
<svg width="50px" height="50px" viewBox="0 0 50 50" version="1.1" xmlns="http://www.w3.org/2000/svg" xmlns:xlink="http://www.w3.org/1999/xlink">
    <!-- Generator: Sketch 49.3 (51167) - http://www.bohemiancoding.com/sketch -->
    <title>add_funds_icon</title>
    <desc>Created with Sketch.</desc>
    <defs></defs>
    <g id="Style-Guide" stroke="none" stroke-width="1" fill="none" fill-rule="evenodd">
        <g id="Branded-Icons" transform="translate(-385.000000, -58.000000)" fill-rule="nonzero">
            <g id="Line-1" transform="translate(30.000000, 40.000000)">
                <g id="Add-funds" transform="translate(330.000000, 0.000000)">
                    <g id="add_funds_icon" transform="translate(25.000000, 18.000000)">
                        <circle id="Oval" fill="#0874CA" cx="24.9974929" cy="24.9975795" r="24.9975371"></circle>
                        <path d="M12.8629505,29.8164311 C12.8668492,31.4081166 12.8707491,32.9998021 12.8746502,34.5914876 C17.9458127,39.6626466 23.0169747,44.7338074 28.088136,49.80497 C38.5083895,48.5025546 47.00624,40.8312677 49.3644523,30.5981449 L31.9489717,13.1826661 L15.2753357,12.9842933 L14.6596996,13.9704046 C14.682861,15.2503881 14.7060212,16.5303722 14.7291802,17.8103569 L13.2435336,19.3594399 L13.2288092,23.7911254 L14.156371,24.8806413 C14.1514641,26.1173905 14.1465571,27.3541396 14.1416502,28.5908887 C13.7154146,28.9994022 13.2891814,29.4079164 12.8629505,29.8164311 Z" id="Shape" fill="#075796"></path>
                        <g id="icon-2" transform="translate(12.190813, 11.307420)" fill="#FFFFFF">
                            <path d="M13.5218551,23.9560813 C12.2675403,24.1130678 11.0045376,24.1904089 9.74043993,24.1876396 C7.85305103,24.2055942 5.96919249,24.0207822 4.12127562,23.6363834 C3.51017587,23.5069375 2.91335239,23.3174616 2.33949293,23.0707138 C2.12177099,22.9811021 1.91903354,22.8587217 1.73831095,22.7078163 L1.73831095,18.6800777 C1.91902926,18.5291663 2.12176768,18.4067853 2.33949293,18.3171802 C2.38902473,18.2944611 2.44131449,18.2719364 2.49468905,18.2495371 C2.49892933,17.8363781 2.55815194,17.4074876 2.55059011,16.9976961 C1.32182509,17.4212633 0.586584806,17.9555106 0.586584806,18.5367827 L0.586584806,22.851106 C0.586584806,24.2253357 4.68489753,25.3393622 9.74043993,25.3393622 C11.2368691,25.3450273 12.7316334,25.2389729 14.2122721,25.022083 C13.9548735,24.6851655 13.7240399,24.3287591 13.5218551,23.9560813 Z" id="Shape"></path>
                            <path d="M7.65070671,19.8567703 C5.55698233,19.7171784 2.71266254,19.3254982 2.38083039,16.9947562 C1.25380742,17.4423516 0.586572438,17.9825954 0.586572438,18.536788 C0.586572438,19.9110371 4.68490459,21.0250601 9.74044523,21.0250601 C10.7194859,21.0250601 11.6619293,20.9828428 12.5463551,20.9054841 C12.4976667,20.5124453 12.4742605,20.1166862 12.4762809,19.7206484 C10.8706572,20.0027686 9.21425088,19.9770442 7.65070671,19.8567703 Z" id="Shape"></path>
                            <path d="M10.8729523,19.1281837 C8.98556411,19.1461442 7.10170564,18.9613388 5.25378799,18.576947 C4.64268909,18.4474957 4.04586555,18.2580199 3.47200353,18.0112774 C3.25428467,17.9216638 3.05155306,17.7992769 2.87084099,17.6483622 L2.87084099,13.6206449 C2.88968198,13.6031378 2.91560424,13.581129 2.94926678,13.5555265 C2.58206302,13.3903852 2.22404653,13.2123204 1.87521731,13.0213322 C1.77797027,13.1539019 1.72350305,13.3129956 1.71909541,13.4773498 L1.71909541,17.7916608 C1.71909541,19.1658905 5.81740989,20.2799346 10.8729523,20.2799346 C11.1870289,20.2799346 11.4971584,20.2756879 11.803341,20.2671943 C11.7834348,19.8825832 11.7915517,19.4970333 11.8276272,19.1136007 C11.5118192,19.1229187 11.1935942,19.1277797 10.8729523,19.1281837 Z" id="Shape"></path>
                            <path d="M18.9248975,12.2936396 C14.5902138,15.2608463 7.39874912,15.1061837 1.87519965,13.0213198 C1.77795703,13.1538963 1.72349154,13.3129929 1.71908127,13.4773498 C1.71908127,14.8515795 5.81741343,15.9656237 10.8729558,15.9656237 C12.7201879,15.9799035 14.5643378,15.812262 16.3787155,15.4651254 C16.5986219,13.9426555 18.2389081,13.1727562 19.8537332,12.9954982 C19.6026329,12.6927919 19.2846705,12.4525291 18.9248975,12.2936396 Z" id="Shape"></path>
                            <path d="M17.2842562,7.89252297 C17.2265212,7.91008481 17.168788,7.92499293 17.111053,7.9419841 C17.1844617,7.98673556 17.2536797,8.03802388 17.317864,8.09522438 L17.317864,12.1229399 C17.1371486,12.2738546 16.9344102,12.3962359 16.7166837,12.4858375 C16.1428287,12.7325966 15.5460065,12.9220786 14.9349064,13.0515247 C13.0869862,13.4359156 11.2031255,13.620721 9.31573498,13.6027615 C7.42834684,13.6207209 5.54448848,13.4359155 3.69657067,13.0515247 C3.08547381,12.9220793 2.48865498,12.7325973 1.91480389,12.4858375 C1.69707246,12.3962457 1.49433268,12.2738635 1.31362367,12.1229399 L1.31362367,8.09522968 C1.49433836,7.94431411 1.69707686,7.82193267 1.91480389,7.73233216 C2.17788828,7.6144153 2.447946,7.51271795 2.72346113,7.42781095 C2.46788539,7.12668462 2.31608182,6.75125607 2.29053004,6.35712014 C0.962238516,6.7889947 0.161879859,7.3449841 0.161879859,7.95192933 L0.161879859,12.2662403 C0.161879859,13.6404876 4.26019258,14.7545141 9.31573498,14.7545141 C14.3712774,14.7545141 18.4695901,13.6404876 18.4695901,12.2662403 L18.4695901,7.95192933 C18.466244,7.80263863 18.4205681,7.65736812 18.3378781,7.53302473 C17.992992,7.67064068 17.6413305,7.79062838 17.2842562,7.89252297 Z" id="Shape"></path>
                            <path d="M7.49532509,8.51404064 C5.80786926,8.23278975 2.84815194,8.33304594 2.53136749,6.2815583 C1.05907067,6.72312898 0.161872792,7.30902827 0.161872792,7.95192933 C0.161872792,9.32615901 4.26020318,10.4402032 9.31572792,10.4402032 C14.3712527,10.4402032 18.469583,9.32615901 18.469583,7.95192933 C18.4682934,7.85302475 18.4470341,7.75540027 18.4070813,7.66491519 C18.3428534,7.68831095 18.2790707,7.71211661 18.2165141,7.73713074 C14.6427915,8.51404064 11.0690512,8.82478975 7.49532509,8.51404064 Z" id="Shape"></path>
                            <path d="M19.1244488,10.7222615 C15.7773378,10.7222565 12.7598024,12.7385043 11.4789161,15.8308307 C10.1980299,18.923157 10.9060418,22.4825804 13.2728067,24.8493452 C15.6395716,27.2161101 19.1989949,27.924122 22.2913213,26.6432358 C25.3836476,25.3623496 27.3998955,22.3448142 27.3998905,18.9977032 C27.3998905,14.4273029 23.694849,10.7222615 19.1244488,10.7222615 Z M20.5627279,20.4360035 L20.5627279,23.4376148 L17.6861696,23.4376148 L17.6861696,20.4359965 L14.6845389,20.4359965 L14.6845389,17.5594205 L17.6861784,17.5594205 L17.6861784,14.5577862 L20.5627208,14.5577862 L20.5627208,17.5594205 L23.564364,17.5594205 L23.564364,20.4359965 L20.5627279,20.4360035 Z" id="Shape"></path>
                            <path d="M10.933977,1.16315901 C12.8213652,1.14519983 14.7052235,1.33000524 16.5531413,1.71439576 C17.1642384,1.84384036 17.7610573,2.03332243 18.3349081,2.28008304 C18.5526332,2.36968745 18.7553711,2.49206855 18.9360883,2.64298057 L18.9360883,6.67069788 C18.7553708,6.82160942 18.5526329,6.94399047 18.3349081,7.03359541 C17.7610572,7.28035535 17.1642383,7.46983682 16.5531413,7.59928092 C14.7052236,7.98367237 12.8213652,8.16847779 10.933977,8.15051767 C9.04658881,8.16847891 7.16273026,7.98367348 5.31481272,7.59928092 C4.70371358,7.46983627 4.10689239,7.28035482 3.53303887,7.03359541 C3.31531361,6.94399031 3.1125752,6.82160928 2.93185689,6.67069788 L2.93185689,2.64298057 C3.11257488,2.49206871 3.31531336,2.36968764 3.53303887,2.28008304 C4.10689513,2.03332237 4.70371932,1.84384031 5.31482155,1.71439576 C7.16273924,1.33000415 9.04659769,1.14519873 10.9339859,1.16315901 L10.933977,1.16315901 Z M10.9339859,0.0114134276 C5.87844346,0.0114134276 1.78011307,1.1254576 1.78011307,2.49968728 L1.78011307,6.81399823 C1.78011307,8.18822792 5.87844346,9.30227208 10.9339859,9.30227208 C15.9895283,9.30227208 20.0878428,8.18822792 20.0878428,6.81399823 L20.0878428,2.49968728 C20.0878428,1.1254576 15.9895283,0.0114134276 10.9339859,0.0114134276 Z" id="Shape"></path>
                            <ellipse id="Oval" cx="10.9339735" cy="2.49968728" rx="9.15386926" ry="2.48827385"></ellipse>
                        </g>
                    </g>
                </g>
            </g>
        </g>
    </g>
</svg>