<?xml version="1.0" encoding="utf-8"?>
<!-- Generator: Adobe Illustrator 22.1.0, SVG Export Plug-In . SVG Version: 6.00 Build 0)  -->
<svg version="1.1" id="Layer_1" xmlns="http://www.w3.org/2000/svg" xmlns:xlink="http://www.w3.org/1999/xlink" x="0px" y="0px"
	 viewBox="0 0 432 432" style="enable-background:new 0 0 432 432;" xml:space="preserve">
<style type="text/css">
	.st0{fill-rule:evenodd;clip-rule:evenodd;fill:#61469C;}
	.st1{fill-rule:evenodd;clip-rule:evenodd;fill:#7E69AF;}
</style>
<g>
	<path class="st0" d="M17.5,314.1h63.3h7.8c-0.3,0.4-0.6,0.9-0.8,1.3c-0.5,0.7-0.9,1.5-1.3,2.2h-5.6H17.5V314.1L17.5,314.1z
		 M350.9,314.1h65.6v3.6h-63.1C352.7,316.3,351.9,315.2,350.9,314.1z"/>
	<path class="st0" d="M112.7,250.8c0,29.6-13.8,44.4-41.3,44.4H15.5V93.4h55c27.3,0,41,14.8,41,44.4v12.8c0,20.7-7.6,33.8-22.8,39.5
		v0.6c16,2.8,24,15.1,24,36.8V250.8L112.7,250.8z M73.8,162.1V142c0-6.1-2.5-9.1-7.6-9.1H53.2v38.3h13.1
		C71.3,171.2,73.8,168.1,73.8,162.1L73.8,162.1z M73.8,246.5v-26.7c0-6.1-2.5-9.1-7.6-9.1H53.2v45h13.1
		C71.3,255.6,73.8,252.6,73.8,246.5z"/>
	<path class="st0" d="M209.6,256.9c0,15.8-4.7,27.2-14,34.2c-2.2-3.3-5.1-6.1-8.5-8.3c-4.9-3.2-10.6-5-16.3-6.1
		c-7.5-1.4-15.5-1.1-23-0.2c-7.7,0.9-15.1,2.7-22.2,5.7c-3.9-6.6-5.9-15-5.9-25.2V146c0-17.4,3-30.3,9.1-38.6
		c6.9-9.3,18.8-14,35.9-14c17,0,29,4.7,35.9,14c6.1,8.3,9.1,21.2,9.1,38.6v81.1h-52.9v24.3c0,9.3,3.1,14,9.4,14
		c6.3,0,9.4-4.7,9.4-14v-8.5h34V256.9L209.6,256.9z M175.5,197.3v-55c0-9.9-3.1-14.9-9.4-14.9c-6.3,0-9.4,5-9.4,14.9v55H175.5z"/>
	<path class="st0" d="M415.3,295.1h-36.5v-10.6c-5.1,9.9-13.1,14.9-24,14.9c-20.3,0-30.4-15-30.4-45v-9.1c0-18.4,4.7-31.4,14-38.9
		c2.6-2,11.3-5.8,26.1-11.2c9.5-3.4,14.3-9.4,14.3-17.9v-37.7c0-8.1-2.9-12.2-8.7-12.2c-5.8,0-8.7,4.1-8.7,12.2v48.6h-34v-51.3
		c0-29,14.8-43.4,44.4-43.4c29,0,43.4,14.5,43.4,43.4V295.1L415.3,295.1z M378.9,255.3v-35.2c-8,6.5-12.3,10.1-12.9,10.9
		c-3,3.8-4.5,9.6-4.5,17.3v3.9c0,8.7,3.5,13.1,10.4,13.1C376.6,265.4,378.9,262,378.9,255.3z"/>
	<path class="st0" d="M222.8,31.7c0,0-7-11.1-1.6-14.9c5.4-3.8,9,2.5,16.1,2.9c7.1,0.4,13.2,1.5,14.7,5.2c1.5,3.8,0.2,8.2,5,11.3
		c4.8,3.1,0.6,5.2,1.3,10.3c0.6,5,4.8,9.6-0.6,14.9c-5.4,5.2-1.8,9.2,0.6,10c2.4,0.7,2.3-2.7,2.3-2.7s1.6,4.2,1.5,6
		c-0.1,1.8-2.2,2.6-2.2,2.6s2.5,3.4,4.6,11.3c2.1,8,4.5,26.7,6,28.3c1.5,1.6,7.8,10.5,9.8,17.2c2.1,6.7,6.2,21.6,9.4,22.9
		c3.2,1.4,14.7,0.7,15.4,1.4c0.7,0.6,5.3,5.1,5.4,5.6c0.1,0.4-0.5,0.6-0.5,0.6s1.2,1,2,1.6c0.9,0.6-0.2,1-2.9,1
		c-2.7,0-4.8-1.4-4.8-1.4s-1.2,0.6-2.9,0.2c-1.7-0.5-3.7-2-5.8-1.6c-2.1,0.4-7.3,1.1-9.2-0.7c-1.8-1.8-11.4-21.1-15.8-26.2
		c-4.4-5.1-9.1-13.4-9.7-18.9c-0.6-5.4-9.3-29.5-9.3-29.5s-0.9,1.6-7.1,10.6c-6.2,9-7.8,10.1-5,17c2.7,6.9,17.4,7.8,22.2,22.4
		c0.2,0.5,0.3,1,0.4,1.5l0,0c4.5,21.1,4.9,37,5.7,56.4c0,0-6.6,1.4-14.6,2.3c-0.4,2-0.7,3.5-0.8,4.4c-0.6,7.5,5.9,22,6.1,27.9
		c0.2,5.9-6.8,31.6-6.9,36.8c-0.1,5.1,3.9,8.4,4.8,11.1c0.9,2.7,0.1,4.1,0.1,4.1v17l-1.2-0.3c0,0,0-10.5-1.5-10.4
		c-1.5,0.2-2.6,7.1-3.7,8.7c-1.2,1.7-4.7,2.7-7.6,3.1c-2.9,0.4-5.1-0.9-5.4-1.7c-0.3-0.9,0.2-1.4,0.2-1.4s-2.2-0.9-1.8-1.8
		c0.4-0.9,3.7-1.4,3.9-2.6c0.2-1.2-1.6-12.9-1.6-16.3c0-3.4-0.3-25-4-36.6c-3.7-11.5-4.5-22.2-5.9-24.5c-1.4-2.3-2-7.5-1.9-10.5
		c0-0.7-0.2-2.9-0.7-6.1c-2.2,0-3.5,0-3.5,0h-4l2.1-52.6c-0.8-12.9-12.9-44-9.9-53.5c0,0-9.4-5.9-5.4-11.9c4-6.1,9.5-9.9,9.5-9.9
		s-9.7-4-15.8-7.2c-6.1-3.2-9.6-7.6-10.2-9.6c-0.5-2,2.9-2.5,8.9-5.3c6-2.8,13.3-2.8,16.2-2.8c2.9,0,5.4,0,5.4,0
		S207.7,27.7,222.8,31.7L222.8,31.7z M219.5,52.8c0,0-6.3-0.3-7.9,0.5c-1.6,0.7-4.3,4.1-4.3,4.1s5.8,2.7,10.3,2.7
		c4.5,0,10.1,3.1,10.1,2.6c-0.1-0.5,1.1-2.5,0.2-3c-0.9-0.6-2.3,0-4-1C222.1,57.6,219.5,52.8,219.5,52.8z"/>
	<path class="st1" d="M105.6,409.6c2.9-0.3,5.5-2.1,7.8-5.4c2.3-3.3,4.5-7.5,6.5-12.7c2-5.2,4-11,6-17.6c2-6.6,4-13.3,6.2-20.1
		c2.1-6.8,4.5-13.6,7-20.3c2.5-6.7,5.3-12.7,8.4-18.1c3.1-5.4,6.6-9.9,10.6-13.5c4-3.6,8.5-5.8,13.5-6.6c-2.8-2.9-6.5-5.1-11.2-6.7
		c-4.7-1.5-10.4-1.9-17.3-1.1c-9.2,1.1-17,4-23.5,8.8c-6.4,4.8-11.6,10.5-15.4,17.1c-3.9,6.6-6.5,13.5-8,20.8c-1.5,7.3-2,14-1.5,20
		c0.5,6.1,1.9,11,4.2,14.8c2.3,3.8,5.4,5.5,9.2,5c1.7-0.2,3.1-1,4.2-2.3c1.1-1.4,1.6-2.8,1.5-4.3c-0.1-1.5-0.8-2.8-2.3-3.8
		c-1.4-1.1-3.8-1.4-7.2-1c0-2.9,1.1-5.3,3.4-7.2c2.3-1.9,4.7-3.1,7.5-3.4c2.7-0.4,5.2,0.2,7.5,1.6c2.3,1.5,3.4,4.1,3.4,8
		c0,2.6-0.6,5-1.8,7.2c-1.2,2.2-2.7,4.2-4.7,5.9c-1.9,1.7-4.1,3.2-6.6,4.3c-2.5,1.1-5,1.9-7.6,2.2c-6.3,0.7-11.5,0-15.7-2.3
		c-4.1-2.3-7.2-5.5-9.2-9.8c-2-4.3-2.9-9.3-2.9-15.1c0.1-5.8,1.1-11.8,3.1-18c2-6.2,4.9-12.4,8.8-18.6c3.9-6.2,8.7-11.9,14.4-17.1
		c5.7-5.2,12.2-9.5,19.5-13.1c7.3-3.6,15.5-5.9,24.5-7c8.5-1,15.7-0.9,21.8,0.2c6.1,1.1,11,2.9,14.9,5.5c3.9,2.6,6.7,5.6,8.6,9.3
		c1.9,3.6,2.9,7.5,3.2,11.7c0.3,4.1-0.2,8.4-1.5,12.6c-1.3,4.3-3.2,8.3-5.6,12.1c-2.5,3.8-5.4,7.1-8.9,10c-3.5,2.9-7.3,5-11.5,6.5
		c4.2,2.4,7.4,5.3,9.8,8.7c2.4,3.4,3.9,7.1,4.7,11c0.8,3.9,0.8,8,0,12.1c-0.8,4.2-2.1,8.1-4.1,11.8c-2,3.7-4.5,7.1-7.6,10.2
		c-3.1,3.1-6.6,5.5-10.5,7.3c-3.9,1.8-8.2,2.9-12.8,3.2c-4.6,0.3-9.5-0.4-14.6-2.2c-3.3-1.2-6.3-2.9-9-5.1c-2.9,2.9-6,5.3-9.3,7.2
		c-3.3,1.9-7,3.1-11.1,3.5c-2.8,0.3-5.5,0.3-8.1-0.2c-2.6-0.4-4.8-1.4-6.6-2.8c-1.8-1.5-3-3.5-3.6-6c-0.6-2.6-0.4-5.8,0.8-9.8
		c0.6-2.6,1.9-4.8,3.8-6.5c1.9-1.7,3.9-2.9,6.1-3.6c2.2-0.7,4.4-1,6.7-0.9c2.3,0.2,4.1,0.8,5.5,1.9c1.4,1.1,2.2,2.6,2.4,4.5
		c0.2,2-0.6,4.3-2.4,7.1c-1.4-1-2.7-1.5-3.9-1.3c-1.2,0.1-2.3,0.6-3.3,1.4c-1,0.8-1.7,1.8-2.2,3c-0.5,1.2-0.6,2.3-0.4,3.3
		c0.2,1,0.8,1.9,1.8,2.6C102.1,409.6,103.6,409.8,105.6,409.6L105.6,409.6z M151.6,349.6c-1.5,4.7-3,9.3-4.6,14
		c-1.6,4.6-3.2,9.1-5.1,13.5c-1.8,4.4-3.8,8.6-5.9,12.5c-2.1,3.9-4.4,7.5-6.8,10.7c2.1,1.7,4.6,3,7.4,4c3.6,1.3,7.3,1.1,10.9-0.7
		c3.6-1.8,6.9-4.4,9.9-7.9c2.9-3.5,5.4-7.5,7.4-12.1c2-4.6,3.2-9.1,3.7-13.5c0.5-4.4,0.1-8.3-1.2-11.8c-1.3-3.5-3.8-5.9-7.6-7.2
		C157,350.1,154.3,349.6,151.6,349.6L151.6,349.6z M174,298.1c-2.1,1.7-4.1,4.1-5.9,7c-1.8,2.9-3.5,6.4-5.1,10.3
		c-1.6,3.9-3.2,8.2-4.7,12.8c-1.5,4.6-3,9.4-4.5,14.4c1.6,0.7,3.2,1.1,4.8,1.2c1.6,0.1,3.1,0.1,4.3,0c3.5-0.4,6.6-2.3,9.3-5.6
		c2.7-3.3,4.6-7.3,5.9-11.9c1.2-4.6,1.6-9.5,1-14.7C178.6,306.6,176.9,302,174,298.1z"/>
	<path class="st1" d="M205.8,369.1c-0.6,2.1-1.1,3.8-1.3,5.1c-0.2,1.3-0.2,2.2-0.1,2.9c0.2,0.7,0.4,1.1,0.8,1.4
		c0.4,0.2,0.8,0.4,1.2,0.4c1,0.2,2.4-0.4,4.3-1.7c1.9-1.3,3.5-3.5,4.7-6.4l2.3-0.3c-1.3,3.5-2.8,6.5-4.5,9c-1.7,2.5-3.5,4.6-5.3,6.2
		c-1.8,1.7-3.6,2.9-5.5,3.8c-1.8,0.9-3.5,1.4-5,1.5c-1.4,0.2-2.7,0-4-0.4c-1.3-0.4-2.3-1.4-3.1-2.8c-0.8-1.4-1.2-3.5-1.1-6.2
		c0.1-2.7,0.7-6.3,2-10.8l12.4-41.3l14.5-1.7c-1.8,6.2-3.5,12-5.1,17.3c-1.4,4.7-2.8,9.3-4.1,13.8
		C207.4,363.5,206.4,366.9,205.8,369.1L205.8,369.1z M227,304c0,2.7-1,5.1-2.9,7.3c-1.9,2.2-4.2,3.4-6.8,3.7c-2.8,0.3-5.1-0.4-7-2.1
		c-1.9-1.7-2.8-3.9-2.8-6.6c0-2.8,0.9-5.2,2.8-7.2c1.9-2,4.2-3.2,7-3.6c2.6-0.3,4.8,0.3,6.8,1.9C226,299,227,301.2,227,304z"/>
	<path class="st1" d="M244.7,336c-0.9,0.1-1.8,0.7-2.7,1.8c-1,1.1-1.9,2.5-2.7,4.2c-0.9,1.7-1.7,3.5-2.6,5.5c-0.9,2-1.7,4-2.4,5.9
		l-10.1,34.9l-14.6,1.7l18.3-63.4l14.6-1.7l-3.1,10.5c2.1-3.3,4.4-6,6.8-8.1c2.4-2.2,5-3.4,7.8-3.7c3.4-0.4,5.5,0.6,6.3,3
		c0.8,2.4,0.8,5.4,0.1,9.2c-0.8,3.7-1.9,7.9-3.5,12.4c-1.6,4.5-3.1,8.7-4.4,12.5c-1.3,3.8-2.2,7-2.7,9.5c-0.4,2.5,0.2,3.7,1.9,3.5
		c0.9-0.1,2.2-0.7,4.1-1.9c1.9-1.2,3.5-3.2,4.7-6.2l2.3-0.3c-1.3,3.5-2.8,6.5-4.5,9c-1.7,2.5-3.5,4.6-5.4,6.3
		c-1.9,1.7-3.7,2.9-5.5,3.8c-1.8,0.8-3.3,1.4-4.7,1.5c-3.6,0.4-5.9-0.5-6.9-2.9c-1-2.4-1.2-5.4-0.6-9.1c0.5-3.7,1.6-7.8,3.1-12.3
		c1.5-4.5,2.9-8.6,4.3-12.4c1.3-3.8,2.3-7,3-9.5C246.1,337,245.9,335.8,244.7,336z"/>
	<path class="st1" d="M280.9,375.8c0-0.1,0-0.2,0.1-0.3c0.1-0.1,0.1-0.3,0.1-0.5c-2.1,2.1-4.4,3.8-6.9,5.3c-2.5,1.5-4.8,2.3-7.1,2.6
		c-2.1,0.2-3.9-0.2-5.2-1.4c-1.3-1.2-2.2-3.1-2.5-5.8c-0.3-2.7-0.1-6.2,0.8-10.5c0.9-4.3,2.5-9.4,5-15.2c2.5-6,5.6-11.2,9.4-15.6
		c3.8-4.5,7.9-8.1,12.1-10.8c4.3-2.8,8.6-4.6,12.9-5.5c4.3-0.9,8.3-0.8,11.8,0.4c-1.7,6.3-3.5,12.7-5.5,19.1
		c-1.6,5.7-3.3,11.7-5.2,18.2c-1.9,6.5-3.6,12.7-5.2,18.7c-1.4,4.8-2.9,9.3-4.7,13.6c-1.7,4.3-3.8,8.1-6.1,11.5
		c-2.4,3.4-5.1,6.2-8.1,8.3c-3.1,2.2-6.6,3.5-10.7,4c-2.8,0.3-5.3,0.1-7.5-0.6c-2.2-0.7-3.9-1.8-5.2-3.2c-1.3-1.5-2.1-3.2-2.5-5.3
		c-0.4-2-0.1-4.3,0.7-6.8c1.2-3.6,3.1-6.1,5.9-7.6c2.7-1.5,5.4-2.1,7.9-1.9c2.5,0.2,4.5,1.3,5.9,3.2c1.4,1.9,1.5,4.5,0.1,7.6
		c-2.4-1.3-4.3-1.5-5.9-0.5c-1.6,1-2.7,2.3-3.2,3.9c-0.5,1.6-0.5,3.2,0.1,4.7c0.6,1.5,2,2.1,4.1,1.9c1.8-0.2,3.4-1.4,4.8-3.5
		c1.4-2.1,2.7-4.7,3.8-7.8c1.1-3.1,2.2-6.4,3.1-10C278.9,382.4,279.9,379,280.9,375.8L280.9,375.8z M277.2,369.5
		c1.1-0.1,2.3-0.7,3.5-1.6c1.3-1,2.4-1.7,3.2-2.4c1-3.3,2-6.7,3-10.2c1-3.5,2-7,3-10.4c1-3.4,1.9-6.6,2.7-9.6c0.9-3,1.6-5.7,2.3-8
		c-0.6-0.2-1.3-0.3-2.1-0.2c-1.6,0.2-3.3,1.4-5.1,3.6c-1.8,2.2-3.6,4.9-5.2,8.2c-1.7,3.2-3.1,6.7-4.4,10.3c-1.3,3.6-2.2,7-2.8,10.1
		c-0.6,3.1-0.8,5.7-0.6,7.6C274.8,368.8,275.7,369.7,277.2,369.5z"/>
	<path class="st1" d="M337.8,313.9c4.1-0.5,7.2-0.1,9.5,1.2c2.3,1.3,3.8,3.3,4.7,5.9c0.9,2.6,1.1,5.8,0.6,9.6
		c-0.4,3.7-1.2,7.8-2.4,12.1c-1.3,4.3-3.1,8.5-5.3,12.4c-2.3,4-4.7,7.5-7.5,10.5c-2.7,3.1-5.6,5.5-8.6,7.4c-3,1.9-5.9,3-8.8,3.4
		c-4.1,0.5-7.2,0.1-9.5-1.2c-2.3-1.3-3.8-3.3-4.7-5.9c-0.9-2.6-1.1-5.8-0.6-9.6c0.4-3.7,1.2-7.8,2.4-12.1c1.2-4.3,2.9-8.5,5.1-12.4
		c2.2-4,4.7-7.5,7.4-10.5c2.7-3.1,5.6-5.5,8.7-7.4C331.7,315.4,334.8,314.2,337.8,313.9L337.8,313.9z M322.5,369.3
		c1.3-0.1,2.7-1.4,4.1-3.9c1.4-2.4,2.9-5.4,4.3-9c1.4-3.6,2.7-7.4,3.8-11.5c1.1-4,2-7.8,2.5-11.3c0.5-3.5,0.7-6.4,0.5-8.6
		c-0.2-2.2-1-3.3-2.4-3.1c-1.4,0.2-2.8,1.5-4.3,3.9c-1.5,2.4-2.9,5.4-4.3,9c-1.3,3.6-2.5,7.4-3.5,11.4c-1,4-1.8,7.8-2.3,11.3
		c-0.5,3.5-0.6,6.3-0.4,8.6C320.6,368.4,321.3,369.5,322.5,369.3z"/>
	<path class="st0" d="M317.1,295.1H280V156c2.4,4.3,4.4,7.9,5.3,8.8c1.3,1.3,3.5,1.7,5.7,1.7c1.9,0,3.9-0.3,5-0.5
		c0.9-0.2,2.1,0.4,3.1,0.8c0.6,0.3,1.3,0.6,1.9,0.8c1.3,0.4,2.5,0.2,3.2,0.1c1,0.5,2.8,1.3,4.9,1.3c1.5,0,2.7-0.1,3.3-0.4
		c0.5-0.2,0.9-0.4,1.1-0.7h0c0.6-0.6,0.7-1.4,0.3-2.1c-0.2-0.4-0.5-0.7-0.9-1l0,0c-0.3-0.2-0.6-0.4-0.8-0.6c0-0.1,0-0.2,0-0.4
		c-0.1-0.6-1-1.7-2.2-2.9c-1.4-1.5-3.4-3.3-3.8-3.7c-0.8-0.7-3.1-0.7-6.1-0.8c-3.6-0.1-8.2-0.2-9.8-0.9l0,0
		c-2.1-0.9-5.4-11.8-7.5-18.8l0,0c-0.3-1-0.6-1.9-0.9-3c-0.5-1.6-1.2-3.2-2-4.9V93.4h37.1V295.1z"/>
</g>
</svg>
