<svg xmlns="http://www.w3.org/2000/svg" viewBox="0 0 487.67 142.67"><defs><style>.cls-1{fill:#add8c9;}.cls-2{fill:#fff;}.cls-3{fill:#23a7aa;}.cls-4{fill:#ef7a80;}.cls-5{fill:#19b3e3;}.cls-6{fill:#facc86;}.cls-7,.cls-8,.cls-9{fill:none;stroke-miterlimit:10;}.cls-7{stroke:#5ec2e9;}.cls-7,.cls-8{stroke-width:0.5px;}.cls-8,.cls-9{stroke:#f0bbbf;}</style></defs><title>Bingo69_logo</title><g id="Layer_2" data-name="Layer 2"><g id="Layer_5" data-name="Layer 5"><ellipse class="cls-1" cx="56.64" cy="33.75" rx="50" ry="33.75"/><ellipse class="cls-1" cx="118.64" cy="33.75" rx="50" ry="33.75"/><ellipse class="cls-1" cx="164.14" cy="34.75" rx="50" ry="33.75"/><ellipse class="cls-1" cx="213.14" cy="34.75" rx="50" ry="33.75"/><ellipse class="cls-1" cx="271.46" cy="34.75" rx="53.32" ry="33.75"/><ellipse class="cls-1" cx="338.46" cy="33.75" rx="53.32" ry="33.75"/><ellipse class="cls-1" cx="402.75" cy="46.25" rx="39.79" ry="33.75"/><ellipse class="cls-1" cx="440.1" cy="71.26" rx="60.06" ry="47.55" transform="translate(350.66 508.02) rotate(-87.62)"/><ellipse class="cls-1" cx="433.34" cy="96.69" rx="33.75" ry="34.19"/><ellipse class="cls-1" cx="383.17" cy="129.38" rx="37.42" ry="13.29"/><ellipse class="cls-1" cx="332.2" cy="125.04" rx="29.61" ry="13.29"/><ellipse class="cls-1" cx="269.93" cy="122.46" rx="44.33" ry="13.29"/><ellipse class="cls-1" cx="215.31" cy="124.29" rx="26" ry="13.29"/><ellipse class="cls-1" cx="169.21" cy="125.21" rx="38.27" ry="13.29"/><ellipse class="cls-1" cx="118.25" cy="128.23" rx="34.73" ry="11.11"/><ellipse class="cls-1" cx="55.08" cy="100.84" rx="55.08" ry="38.49"/><ellipse class="cls-1" cx="61.64" cy="67.75" rx="50" ry="35.75"/><rect class="cls-1" x="95.14" y="58.83" width="316.03" height="63.63"/></g><g id="Layer_3" data-name="Layer 3"><path class="cls-2" d="M89.14,28.5s-4-10.5-32.83-10.17c0,0-32.83-1.83-33.5,15.67,0,0,.33,10.17,7.33,13.67,0,0,2.67,11.66-5,38.83,0,0-13.33,9.51-3.66,25,0,0,7.54,8.49,33.6,7.82,0,0,25.06,1.34,38.23-8.66,0,0,1.33,8.72,28.17,8.72,0,0,17.91,1.13,23.5-4.22,0,0,3.33,5.65,27.5,4.32,0,0,18,.36,24.16-8,0,0,9,10.66,22.84,7.32,0,0,11.61-1.33,13-15.66a41,41,0,0,0,30,16.52,39.4,39.4,0,0,0,32.83-13.19s7.67.33,10-5a40.57,40.57,0,0,0,35,19s28.15,1.5,39.65-27c0,0,6.36,9.81,15.16,11.37a6.6,6.6,0,0,0-1.66,3.27S384,106.33,384,117c0,0-.43,5.83,7.37,6.5,0,0,4.23-1,5.43-3.17,0,0,6.42,6.76,14.39-.7,0,0,4.28,6.39,13.87,1.2,0,0,.32,4.44,9.94,1,0,0,1.79,2.76,8.62-.16,0,0,9.88,4.66,11.38-4.5,0,0,.83-.54-1.5-6.69,0,0,.9-7.31-1.72-8.56,0,0,16.72-5.25,18.72-39.92,0,0,.91-28.67-30.38-33.5,0,0-11.39-.33-19.51,7.67,0,0-4.48-8.67-17.13-8.17,0,0-17.48.17-25.32,22.67,0,0-9.78-35.17-37.81-33.5,0,0-27.52-1.5-38.85,31.83l-2.84-.67s6.67-20.16-6.33-28.83c0,0-6.33-4.17-14.33.17,0,0-7.17-.67-9.34-1.84,0,0-20.5-2.66-32.83,13.5,0,0,.67-12.33-24.83-13.16a28.86,28.86,0,0,0-21.66,6.64S187,18.67,166.64,18.5c0,0-13.16-.92-22.5,7.21,0,0-2.84-6.88-23.67-6.88,0,0-15.49-1.5-22.83,8.67C97.64,27.5,91.14,26.83,89.14,28.5Z"/></g><g id="Layer_2-2" data-name="Layer 2"><path class="cls-3" d="M30.47,33.07q.33-7.69,22-7.69c1.63,0,3.61,0,5.94.11s3.76.11,4.27.11q8.89,0,15,3.4,7.77,4.31,7.77,12.56a14.1,14.1,0,0,1-2.17,7.87q-2.16,3.33-4.49,6.62a25,25,0,0,1,11.54,8.37q6.45,7.93,6.44,19.24,0,27.86-36.86,27.85-15,0-19.54-.57-14.44-1.81-15.11-8.26c-.07-.76-.11-1.43-.11-2A8.9,8.9,0,0,1,28.36,94,14.72,14.72,0,0,0,33,85.47q1.66-7.92,3.44-15.73a93.4,93.4,0,0,0,2-16.07q0-8.27-2.56-12.68l-.44-.22-3.89-3.4A6,6,0,0,1,30.47,33.07Zm27.21,8.07a39.25,39.25,0,0,0,.55,6.5q.78,4.66,2.22,4.67,5.77,0,5.78-8.55a8.09,8.09,0,0,0-1.61-4.84,4.84,4.84,0,0,0-4.05-2.23Q57.68,36.69,57.68,41.14Zm5.44,22.72c-2.07,0-3.15.79-3.22,2.37l-.45,8.49q-.56,7.69,3.89,7.7,6.89,0,6.89-8.94Q70.23,63.85,63.12,63.86Z"/><path class="cls-3" d="M110.09,53.78c-.08-7.62-1.07-12.22-3-13.8-.67-.38-1.59-.95-2.77-1.7A5.27,5.27,0,0,1,103,34.43q0-4.63,5.78-6.9a30.19,30.19,0,0,1,11.77-1.82q9.89.12,13.88,2.38a5.91,5.91,0,0,1,3.44,5.55,4.41,4.41,0,0,1-1,3.28c-.71.68-1.43,1.32-2.17,1.92A5.52,5.52,0,0,0,133,41.33q-2,5-2,15.17v.57q1,9.74,3.1,20.48,2.22,12.12,3.89,14.38c1,1,2,2.19,3,3.39a5.49,5.49,0,0,1,1.62,3.62q0,9.28-4.67,11.43-3.56,1.71-19,1.7-12.43,0-16.54-2.54t-4.11-9.79c0-1.14.7-2.38,2.11-3.74a16.23,16.23,0,0,0,2.89-3.28q1.55-3.16,3.77-16.41Q109.09,64.41,110.09,53.78Z"/><path class="cls-3" d="M180.27,72.57q0,2.84,2,10.36T185.54,92c.78,1.06,1.61,2.11,2.5,3.17a8.08,8.08,0,0,1,2,3.73,28.57,28.57,0,0,1,.33,4.08q0,5-3.55,7-2.9,1.58-10.33,1.92-3.44.45-15,.45a24.94,24.94,0,0,1-9.1-1.81q-4.11-1.47-5.45-4.19a8.28,8.28,0,0,1-1.22-4.52V99.74a4.65,4.65,0,0,1,1.45-3.06l2.55-2.6a201.52,201.52,0,0,0,4.78-24q1.22-8.94,1.66-16.3.66-10.74-3-13.8c-.66-.38-1.59-.95-2.77-1.7a5.27,5.27,0,0,1-1.34-3.85q0-4.63,5.78-6.9a29.75,29.75,0,0,1,11.77-1.82q12.1.24,15.54,3.51,5.22,3.51,9.44,16.75,4.66,14.27,9.11,18.68a2.28,2.28,0,0,0,2.44.56,7.93,7.93,0,0,0,1.33-5,33.94,33.94,0,0,0-.33-3.84v-.57l-.11-.23q-.33-2.72-.78-5.77a19.7,19.7,0,0,0-6.1-9.84c-.67-.38-1.6-.95-2.78-1.7a5.54,5.54,0,0,1-1.22-3.85q0-4.63,5.77-6.9a29.75,29.75,0,0,1,11.77-1.82q9.78.12,13.88,2.38a5.93,5.93,0,0,1,3.33,5.55,4.53,4.53,0,0,1-1,3.28,24,24,0,0,1-2.11,1.92A6.31,6.31,0,0,0,223,41.33q-1.34,2.39-2.67,4.87a21.55,21.55,0,0,0-2,9.39v1.48q.22,6.23,3.45,18.78,3,12,3,18.68,0,8.82-1.44,12.22-2.32,5.32-9.66,5.32-8.1,0-14.66-10.75-1.67-2.83-9.1-19.92-4.67-10.75-8.44-10.75C180.67,70.65,180.27,71.29,180.27,72.57Z"/><path class="cls-3" d="M279.65,67.14c0-.68-.74-1.59-2.22-2.72s-2.22-2.26-2.22-3.39q0-4.76,12.43-4.76l2-.17c1.41-.11,2.7-.17,3.89-.17q9.11,0,9.33,3.74a6.92,6.92,0,0,1-1.56,4.64c-1.55,2-2.44,3.24-2.66,3.62a13.47,13.47,0,0,0-.89,7.58Q300.2,89,300.19,94.08q0,2.27-.66,2.94A8.4,8.4,0,0,1,295,99.17a11,11,0,0,0-3.55,1q-9.56,7.69-12.1,9-5.56,2.83-15.66,2.83-15.21,0-24.87-14.16A49.7,49.7,0,0,1,230.12,69a49.87,49.87,0,0,1,9.33-29.58q10.34-14.62,26.1-14.62A28.08,28.08,0,0,1,272.26,26a28,28,0,0,0,6.5,1.19A8.17,8.17,0,0,0,282.09,26a8.17,8.17,0,0,1,3.33-1.19q3.56,0,5.33,4.24a18.67,18.67,0,0,1,1.34,7.23c0,4.58-.34,7.83-1,9.74q-1.77,4.81-7.31,4.82-4.42,0-6.42-2.94c-1-1.89-1.88-3.77-2.77-5.66q-2.1-2.94-6.64-2.94c-3.39,0-6.35,1.85-8.85,5.54a18,18,0,0,0-3.55,10.41A13.24,13.24,0,0,0,262,67.14q5.21,3.17,13.16,3.17Q279.65,70.31,279.65,67.14Z"/><path class="cls-3" d="M374.59,80.54A31,31,0,0,1,364,104.39a34.64,34.64,0,0,1-24.1,9q-15.76,0-25.31-12.66-8.55-11.53-8.55-28.15,0-18.3,8.66-32,10-15.83,27-15.82,16.44,0,25.43,19.21Q374.59,59.74,374.59,80.54ZM350.27,65.7a49.4,49.4,0,0,0-3.22-16.48q-4-11.28-9.88-11.28c-2.3,0-4.07,1.73-5.33,5.19a24.48,24.48,0,0,0-1.44,8.46,41.23,41.23,0,0,0,2.44,14.33q3.33,8.91,9.77,8.92Q350.28,74.84,350.27,65.7Z"/><path class="cls-4" d="M401.48,56.44a1.65,1.65,0,0,0,.42,1,1.12,1.12,0,0,0,.84.55,11.33,11.33,0,0,0,2.95-.63,11.31,11.31,0,0,1,3.11-.63A14.21,14.21,0,0,1,421,62.74q4,5.31,4,13.38,0,9.76-5.89,16.23a19.87,19.87,0,0,1-15.57,6.82q-10.51,0-16.48-9-5.22-7.74-5.22-18.85,0-9.84,5.89-21.11,6.9-12.94,16-13.12,10.51-.17,10.52,7.82,0,6.23-4.46,6.9a3.89,3.89,0,0,1-3.2-.8,2.82,2.82,0,0,1-1.43-2.31C402.71,50.16,401.48,52.73,401.48,56.44Zm8.83,18.67a9.64,9.64,0,0,0-2.18-5.64q-2.19-2.94-4.8-2.94c-2.18,0-3.28,1.46-3.28,4.37a6.77,6.77,0,0,0,2.19,4.71,6.33,6.33,0,0,0,4.54,2.28C409.14,77.89,410.31,77,410.31,75.11Z"/><path class="cls-4" d="M440.49,66.29a11.86,11.86,0,0,1-6.31,1.43,8,8,0,0,1-2.95-.42q-9.08-4-9.08-15,0-6.3,5.38-10.85a18.08,18.08,0,0,1,12-4.54q9,0,16.19,7.49a24.26,24.26,0,0,1,7.19,17.32q0,18.34-10.77,30.79A16.1,16.1,0,0,1,446,96.61a19.2,19.2,0,0,1-7.23,1.73,33.33,33.33,0,0,1-9.42-1.26q-5.64-1.69-7.24-5a7.87,7.87,0,0,1-.67-3.53,7.71,7.71,0,0,1,2-5.72,6.81,6.81,0,0,1,4.12-1.52,10.28,10.28,0,0,0,4.37-1.17q6.64-4.64,8.59-9.76A8.5,8.5,0,0,0,440.49,66.29ZM443.6,56a11.6,11.6,0,0,0-1.26-5.55,5,5,0,0,0-4.63-2.94A3.59,3.59,0,0,0,434.85,49a4.76,4.76,0,0,0-1.18,3.11c0,1.63.87,3.25,2.61,4.88a7.57,7.57,0,0,0,5.05,2.44C442.84,59.39,443.6,58.27,443.6,56Z"/><path class="cls-4" d="M395.14,116a3.34,3.34,0,0,1-1.19,2.77,4.5,4.5,0,0,1-2.92.88,3.38,3.38,0,0,1-2.53-1,3.51,3.51,0,0,1-.94-2.57,5.78,5.78,0,0,1,1.06-3.2,3.39,3.39,0,0,1,2.71-1.76,3.31,3.31,0,0,1,2.74,1.67A5.47,5.47,0,0,1,395.14,116Z"/><path class="cls-4" d="M405.18,112.51a3.54,3.54,0,0,0,1.59-.47,3.29,3.29,0,0,1,1.36-.48,2.12,2.12,0,0,1,1.47.56,1.83,1.83,0,0,1,.63,1.41,5.46,5.46,0,0,1-1.9,4.26,6.62,6.62,0,0,1-4.52,1.69,6.32,6.32,0,0,1-5.24-2.53,8.94,8.94,0,0,1-1.79-5.65,10.54,10.54,0,0,1,2-6.44,6.91,6.91,0,0,1,5.84-2.94,5.87,5.87,0,0,1,3.38,1,3.41,3.41,0,0,1,1.61,3,2.56,2.56,0,0,1-.37,1.43,1.4,1.4,0,0,1-1.24.7,2.57,2.57,0,0,1-1.59-.86,2.54,2.54,0,0,0-1.61-.87,2.13,2.13,0,0,0-1.78,1,3.63,3.63,0,0,0-.71,2.14,3.16,3.16,0,0,0,.91,2.09A2.67,2.67,0,0,0,405.18,112.51Z"/><path class="cls-4" d="M411.17,111.23a11,11,0,0,1,2.07-6.33q2.31-3.32,5.51-3.32a6.19,6.19,0,0,1,5.32,3.11,11,11,0,0,1,1.83,6.2,8.89,8.89,0,0,1-2.07,5.69,6.48,6.48,0,0,1-5.23,2.8,6.85,6.85,0,0,1-5.54-2.34A8.59,8.59,0,0,1,411.17,111.23Zm9.1-1a12.52,12.52,0,0,0-.4-3.11c-.36-1.5-.88-2.25-1.55-2.25a1.15,1.15,0,0,0-1.06.85,3.38,3.38,0,0,0-.31,1.46,7.25,7.25,0,0,0,.46,2.62c.4,1.07,1,1.61,1.76,1.61a1,1,0,0,0,.78-.35A1.2,1.2,0,0,0,420.27,110.23Z"/><path class="cls-4" d="M427.45,106.56l-.73-.39a1.22,1.22,0,0,1-.34-.94q0-1.19,1.8-2.22a8.77,8.77,0,0,1,4.53-1.37c.61,0,.87.4.76,1.19l-.12.82c0,.21.11.31.28.31a2.91,2.91,0,0,0,1.34-.79l1.09-.7a3.27,3.27,0,0,1,1.25-.43q2.43-.24,4.08,2.62a5.53,5.53,0,0,1,2.25-1.79,9.31,9.31,0,0,1,3.1-.4c1.52,0,2.46.53,2.8,1.61a14.72,14.72,0,0,1,.21,3.41,19.62,19.62,0,0,0,1,5.2,25.38,25.38,0,0,1,1,3.89,2.41,2.41,0,0,1-1.34,2.17,4.94,4.94,0,0,1-2.55.66q-3.87,0-3.87-2.73a30.73,30.73,0,0,1,.35-3.76,29.08,29.08,0,0,0,.35-3.83,10.69,10.69,0,0,0-.12-2c-.16-.75-.53-1.12-1.09-1.12s-1.11.62-1.25,1.82q0,.33,0,2.73a9.76,9.76,0,0,0,.35,2.23,10.4,10.4,0,0,1,.35,2.17c0,3-1.09,4.46-3.26,4.46-2.35,0-3.53-.78-3.53-2.34a24.2,24.2,0,0,1,.41-3.45,23.18,23.18,0,0,0,.41-3.64c0-2.29-.27-3.48-.82-3.56-1.22-.14-1.82,1-1.82,3.31a7.61,7.61,0,0,0,.22,1.55,6.92,6.92,0,0,1,.23,1.49,17.45,17.45,0,0,1-.27,3.7,3.79,3.79,0,0,1-1.92,2.64,5.94,5.94,0,0,1-2.4.37,4.05,4.05,0,0,1-2.38-.46,2.29,2.29,0,0,1-.85-1.79,6.69,6.69,0,0,1,.47-2,6.48,6.48,0,0,0,.48-1.92,16.27,16.27,0,0,1,.15-1.8q.15-1.22.18-1.77C428.25,107.93,428,106.87,427.45,106.56Z"/></g><g id="Layer_4" data-name="Layer 4"><path class="cls-5" d="M385.17,20.3S384,19,383.42,18.89c0,0,2.5-6.34,2.5-9.5,0,0,.08-5.25-6.09-5.25,0,0-6.33-.75-6.33,6.41a23.69,23.69,0,0,0,2.08,7.75s-.91.67-.91,1.17c0,0-3-3.25-9.84-3.25,0,0-5.75-.5-5.75,6.58,0,0,0,5.84,5.75,5.84a13.58,13.58,0,0,0,5.67-1.42,6.34,6.34,0,0,0,1,3.25s-2.83,1-6.08,4.75c0,0-2.92,3.67,1.5,8.08,0,0,5,4.34,8.08-.41a28.22,28.22,0,0,0,3.83-7.75s.25.33,1.17-.09c0,0,.58,4.84,3.42,8,0,0,3.75,5.17,8.5.5,0,0,4.58-3.41,1.08-7.83,0,0-3.58-4.33-5.92-5.33a3.86,3.86,0,0,0,.25-2.09s7,.67,10.75-2.33c0,0,3-2.17.84-6.75,0,0-1.84-6-7.67-3.33A18.6,18.6,0,0,0,385.17,20.3Z"/><circle class="cls-6" cx="379.42" cy="26.14" r="6.58"/><line class="cls-7" x1="395.17" y1="20.05" x2="385.74" y2="24.31"/><line class="cls-7" x1="379.42" y1="9.21" x2="379.42" y2="19.55"/><line class="cls-7" x1="373.32" y1="23.59" x2="363.07" y2="22.18"/><line class="cls-7" x1="375.41" y1="31.66" x2="368.83" y2="39.64"/><line class="cls-7" x1="390.08" y1="39.69" x2="383.62" y2="31.61"/><path class="cls-4" d="M102.56,70.33s-1.16-1.33-1.75-1.42c0,0,2.5-6.33,2.5-9.5,0,0,.09-5.25-6.08-5.25,0,0-6.33-.75-6.33,6.42A23.69,23.69,0,0,0,93,68.33s-.92.67-.92,1.17c0,0-3-3.25-9.83-3.25,0,0-5.75-.5-5.75,6.58,0,0,0,5.83,5.75,5.83a13.46,13.46,0,0,0,5.67-1.41,6.34,6.34,0,0,0,1,3.25s-2.84,1-6.09,4.75c0,0-2.91,3.66,1.5,8.08,0,0,5,4.33,8.09-.42a28.22,28.22,0,0,0,3.83-7.75s.25.34,1.17-.08c0,0,.58,4.83,3.41,8,0,0,3.75,5.17,8.5.5,0,0,4.59-3.42,1.09-7.83,0,0-3.59-4.34-5.92-5.34a3.81,3.81,0,0,0,.25-2.08s7,.67,10.75-2.33c0,0,3-2.17.83-6.75,0,0-1.83-6-7.66-3.34A18.82,18.82,0,0,0,102.56,70.33Z"/><circle class="cls-6" cx="96.81" cy="76.16" r="6.58"/><line class="cls-8" x1="112.56" y1="70.08" x2="103.13" y2="74.33"/><line class="cls-8" x1="96.81" y1="59.24" x2="96.81" y2="69.58"/><line class="cls-9" x1="90.72" y1="73.62" x2="80.47" y2="72.21"/><line class="cls-8" x1="92.8" y1="81.69" x2="86.22" y2="89.67"/><line class="cls-8" x1="107.47" y1="89.72" x2="101.02" y2="81.64"/></g></g></svg>