<?xml version="1.0" encoding="UTF-8" standalone="no"?>
<!-- Generator: Adobe Illustrator 22.1.0, SVG Export Plug-In . SVG Version: 6.00 Build 0)  -->

<svg
   xmlns:dc="http://purl.org/dc/elements/1.1/"
   xmlns:cc="http://creativecommons.org/ns#"
   xmlns:rdf="http://www.w3.org/1999/02/22-rdf-syntax-ns#"
   xmlns:svg="http://www.w3.org/2000/svg"
   xmlns="http://www.w3.org/2000/svg"
   xmlns:sodipodi="http://sodipodi.sourceforge.net/DTD/sodipodi-0.dtd"
   xmlns:inkscape="http://www.inkscape.org/namespaces/inkscape"
   version="1.1"
   id="Layer_1"
   x="0px"
   y="0px"
   viewBox="0 0 432 432"
   style="enable-background:new 0 0 432 432;"
   xml:space="preserve"
   sodipodi:docname="Bella_Bingo_Logo_wh.svg"
   inkscape:version="0.92.2 (5c3e80d, 2017-08-06)"><metadata
     id="metadata2950"><rdf:RDF><cc:Work
         rdf:about=""><dc:format>image/svg+xml</dc:format><dc:type
           rdf:resource="http://purl.org/dc/dcmitype/StillImage" /><dc:title></dc:title></cc:Work></rdf:RDF></metadata><defs
     id="defs2948" /><sodipodi:namedview
     pagecolor="#ffffff"
     bordercolor="#666666"
     borderopacity="1"
     objecttolerance="10"
     gridtolerance="10"
     guidetolerance="10"
     inkscape:pageopacity="0"
     inkscape:pageshadow="2"
     inkscape:window-width="1920"
     inkscape:window-height="1027"
     id="namedview2946"
     showgrid="false"
     inkscape:zoom="0.5462963"
     inkscape:cx="-2.7457627"
     inkscape:cy="216"
     inkscape:window-x="-8"
     inkscape:window-y="-8"
     inkscape:window-maximized="1"
     inkscape:current-layer="Layer_1" /><style
     type="text/css"
     id="style2919">
	.st0{fill-rule:evenodd;clip-rule:evenodd;fill:#61469C;}
	.st1{fill-rule:evenodd;clip-rule:evenodd;fill:#7E69AF;}
</style><g
     id="g2943"
     style="fill:#ffffff"><path
       class="st0"
       d="m 17.5,314.1 h 63.3 7.8 c -0.3,0.4 -0.6,0.9 -0.8,1.3 -0.5,0.7 -0.9,1.5 -1.3,2.2 H 80.9 17.5 Z m 333.4,0 h 65.6 v 3.6 h -63.1 c -0.7,-1.4 -1.5,-2.5 -2.5,-3.6 z"
       id="path2921"
       inkscape:connector-curvature="0"
       style="clip-rule:evenodd;fill:#ffffff;fill-rule:evenodd" /><path
       class="st0"
       d="m 112.7,250.8 c 0,29.6 -13.8,44.4 -41.3,44.4 H 15.5 V 93.4 h 55 c 27.3,0 41,14.8 41,44.4 v 12.8 c 0,20.7 -7.6,33.8 -22.8,39.5 v 0.6 c 16,2.8 24,15.1 24,36.8 z M 73.8,162.1 V 142 c 0,-6.1 -2.5,-9.1 -7.6,-9.1 h -13 v 38.3 h 13.1 c 5,0 7.5,-3.1 7.5,-9.1 z m 0,84.4 v -26.7 c 0,-6.1 -2.5,-9.1 -7.6,-9.1 h -13 v 45 h 13.1 c 5,-0.1 7.5,-3.1 7.5,-9.2 z"
       id="path2923"
       inkscape:connector-curvature="0"
       style="clip-rule:evenodd;fill:#ffffff;fill-rule:evenodd" /><path
       class="st0"
       d="m 209.6,256.9 c 0,15.8 -4.7,27.2 -14,34.2 -2.2,-3.3 -5.1,-6.1 -8.5,-8.3 -4.9,-3.2 -10.6,-5 -16.3,-6.1 -7.5,-1.4 -15.5,-1.1 -23,-0.2 -7.7,0.9 -15.1,2.7 -22.2,5.7 -3.9,-6.6 -5.9,-15 -5.9,-25.2 V 146 c 0,-17.4 3,-30.3 9.1,-38.6 6.9,-9.3 18.8,-14 35.9,-14 17,0 29,4.7 35.9,14 6.1,8.3 9.1,21.2 9.1,38.6 v 81.1 h -52.9 v 24.3 c 0,9.3 3.1,14 9.4,14 6.3,0 9.4,-4.7 9.4,-14 v -8.5 h 34 z m -34.1,-59.6 v -55 c 0,-9.9 -3.1,-14.9 -9.4,-14.9 -6.3,0 -9.4,5 -9.4,14.9 v 55 z"
       id="path2925"
       inkscape:connector-curvature="0"
       style="clip-rule:evenodd;fill:#ffffff;fill-rule:evenodd" /><path
       class="st0"
       d="m 415.3,295.1 h -36.5 v -10.6 c -5.1,9.9 -13.1,14.9 -24,14.9 -20.3,0 -30.4,-15 -30.4,-45 v -9.1 c 0,-18.4 4.7,-31.4 14,-38.9 2.6,-2 11.3,-5.8 26.1,-11.2 9.5,-3.4 14.3,-9.4 14.3,-17.9 v -37.7 c 0,-8.1 -2.9,-12.2 -8.7,-12.2 -5.8,0 -8.7,4.1 -8.7,12.2 v 48.6 h -34 v -51.3 c 0,-29 14.8,-43.4 44.4,-43.4 29,0 43.4,14.5 43.4,43.4 v 158.2 z m -36.4,-39.8 v -35.2 c -8,6.5 -12.3,10.1 -12.9,10.9 -3,3.8 -4.5,9.6 -4.5,17.3 v 3.9 c 0,8.7 3.5,13.1 10.4,13.1 4.7,0.1 7,-3.3 7,-10 z"
       id="path2927"
       inkscape:connector-curvature="0"
       style="clip-rule:evenodd;fill:#ffffff;fill-rule:evenodd" /><path
       class="st0"
       d="m 222.8,31.7 c 0,0 -7,-11.1 -1.6,-14.9 5.4,-3.8 9,2.5 16.1,2.9 7.1,0.4 13.2,1.5 14.7,5.2 1.5,3.8 0.2,8.2 5,11.3 4.8,3.1 0.6,5.2 1.3,10.3 0.6,5 4.8,9.6 -0.6,14.9 -5.4,5.2 -1.8,9.2 0.6,10 2.4,0.7 2.3,-2.7 2.3,-2.7 0,0 1.6,4.2 1.5,6 -0.1,1.8 -2.2,2.6 -2.2,2.6 0,0 2.5,3.4 4.6,11.3 2.1,8 4.5,26.7 6,28.3 1.5,1.6 7.8,10.5 9.8,17.2 2.1,6.7 6.2,21.6 9.4,22.9 3.2,1.4 14.7,0.7 15.4,1.4 0.7,0.6 5.3,5.1 5.4,5.6 0.1,0.4 -0.5,0.6 -0.5,0.6 0,0 1.2,1 2,1.6 0.9,0.6 -0.2,1 -2.9,1 -2.7,0 -4.8,-1.4 -4.8,-1.4 0,0 -1.2,0.6 -2.9,0.2 -1.7,-0.5 -3.7,-2 -5.8,-1.6 -2.1,0.4 -7.3,1.1 -9.2,-0.7 -1.8,-1.8 -11.4,-21.1 -15.8,-26.2 -4.4,-5.1 -9.1,-13.4 -9.7,-18.9 -0.6,-5.4 -9.3,-29.5 -9.3,-29.5 0,0 -0.9,1.6 -7.1,10.6 -6.2,9 -7.8,10.1 -5,17 2.7,6.9 17.4,7.8 22.2,22.4 0.2,0.5 0.3,1 0.4,1.5 v 0 c 4.5,21.1 4.9,37 5.7,56.4 0,0 -6.6,1.4 -14.6,2.3 -0.4,2 -0.7,3.5 -0.8,4.4 -0.6,7.5 5.9,22 6.1,27.9 0.2,5.9 -6.8,31.6 -6.9,36.8 -0.1,5.1 3.9,8.4 4.8,11.1 0.9,2.7 0.1,4.1 0.1,4.1 v 17 l -1.2,-0.3 c 0,0 0,-10.5 -1.5,-10.4 -1.5,0.2 -2.6,7.1 -3.7,8.7 -1.2,1.7 -4.7,2.7 -7.6,3.1 -2.9,0.4 -5.1,-0.9 -5.4,-1.7 -0.3,-0.9 0.2,-1.4 0.2,-1.4 0,0 -2.2,-0.9 -1.8,-1.8 0.4,-0.9 3.7,-1.4 3.9,-2.6 0.2,-1.2 -1.6,-12.9 -1.6,-16.3 0,-3.4 -0.3,-25 -4,-36.6 -3.7,-11.5 -4.5,-22.2 -5.9,-24.5 -1.4,-2.3 -2,-7.5 -1.9,-10.5 0,-0.7 -0.2,-2.9 -0.7,-6.1 -2.2,0 -3.5,0 -3.5,0 h -4 l 2.1,-52.6 c -0.8,-12.9 -12.9,-44 -9.9,-53.5 0,0 -9.4,-5.9 -5.4,-11.9 4,-6.1 9.5,-9.9 9.5,-9.9 0,0 -9.7,-4 -15.8,-7.2 -6.1,-3.2 -9.6,-7.6 -10.2,-9.6 -0.5,-2 2.9,-2.5 8.9,-5.3 6,-2.8 13.3,-2.8 16.2,-2.8 2.9,0 5.4,0 5.4,0 0,0 -10.9,-19.7 4.2,-15.7 z m -3.3,21.1 c 0,0 -6.3,-0.3 -7.9,0.5 -1.6,0.7 -4.3,4.1 -4.3,4.1 0,0 5.8,2.7 10.3,2.7 4.5,0 10.1,3.1 10.1,2.6 -0.1,-0.5 1.1,-2.5 0.2,-3 -0.9,-0.6 -2.3,0 -4,-1 -1.8,-1.1 -4.4,-5.9 -4.4,-5.9 z"
       id="path2929"
       inkscape:connector-curvature="0"
       style="clip-rule:evenodd;fill:#ffffff;fill-rule:evenodd" /><path
       class="st1"
       d="m 105.6,409.6 c 2.9,-0.3 5.5,-2.1 7.8,-5.4 2.3,-3.3 4.5,-7.5 6.5,-12.7 2,-5.2 4,-11 6,-17.6 2,-6.6 4,-13.3 6.2,-20.1 2.1,-6.8 4.5,-13.6 7,-20.3 2.5,-6.7 5.3,-12.7 8.4,-18.1 3.1,-5.4 6.6,-9.9 10.6,-13.5 4,-3.6 8.5,-5.8 13.5,-6.6 -2.8,-2.9 -6.5,-5.1 -11.2,-6.7 -4.7,-1.5 -10.4,-1.9 -17.3,-1.1 -9.2,1.1 -17,4 -23.5,8.8 -6.4,4.8 -11.6,10.5 -15.4,17.1 -3.9,6.6 -6.5,13.5 -8,20.8 -1.5,7.3 -2,14 -1.5,20 0.5,6.1 1.9,11 4.2,14.8 2.3,3.8 5.4,5.5 9.2,5 1.7,-0.2 3.1,-1 4.2,-2.3 1.1,-1.4 1.6,-2.8 1.5,-4.3 -0.1,-1.5 -0.8,-2.8 -2.3,-3.8 -1.4,-1.1 -3.8,-1.4 -7.2,-1 0,-2.9 1.1,-5.3 3.4,-7.2 2.3,-1.9 4.7,-3.1 7.5,-3.4 2.7,-0.4 5.2,0.2 7.5,1.6 2.3,1.5 3.4,4.1 3.4,8 0,2.6 -0.6,5 -1.8,7.2 -1.2,2.2 -2.7,4.2 -4.7,5.9 -1.9,1.7 -4.1,3.2 -6.6,4.3 -2.5,1.1 -5,1.9 -7.6,2.2 -6.3,0.7 -11.5,0 -15.7,-2.3 -4.1,-2.3 -7.2,-5.5 -9.2,-9.8 -2,-4.3 -2.9,-9.3 -2.9,-15.1 0.1,-5.8 1.1,-11.8 3.1,-18 2,-6.2 4.9,-12.4 8.8,-18.6 3.9,-6.2 8.7,-11.9 14.4,-17.1 5.7,-5.2 12.2,-9.5 19.5,-13.1 7.3,-3.6 15.5,-5.9 24.5,-7 8.5,-1 15.7,-0.9 21.8,0.2 6.1,1.1 11,2.9 14.9,5.5 3.9,2.6 6.7,5.6 8.6,9.3 1.9,3.6 2.9,7.5 3.2,11.7 0.3,4.1 -0.2,8.4 -1.5,12.6 -1.3,4.3 -3.2,8.3 -5.6,12.1 -2.5,3.8 -5.4,7.1 -8.9,10 -3.5,2.9 -7.3,5 -11.5,6.5 4.2,2.4 7.4,5.3 9.8,8.7 2.4,3.4 3.9,7.1 4.7,11 0.8,3.9 0.8,8 0,12.1 -0.8,4.2 -2.1,8.1 -4.1,11.8 -2,3.7 -4.5,7.1 -7.6,10.2 -3.1,3.1 -6.6,5.5 -10.5,7.3 -3.9,1.8 -8.2,2.9 -12.8,3.2 -4.6,0.3 -9.5,-0.4 -14.6,-2.2 -3.3,-1.2 -6.3,-2.9 -9,-5.1 -2.9,2.9 -6,5.3 -9.3,7.2 -3.3,1.9 -7,3.1 -11.1,3.5 -2.8,0.3 -5.5,0.3 -8.1,-0.2 -2.6,-0.4 -4.8,-1.4 -6.6,-2.8 -1.8,-1.5 -3,-3.5 -3.6,-6 -0.6,-2.6 -0.4,-5.8 0.8,-9.8 0.6,-2.6 1.9,-4.8 3.8,-6.5 1.9,-1.7 3.9,-2.9 6.1,-3.6 2.2,-0.7 4.4,-1 6.7,-0.9 2.3,0.2 4.1,0.8 5.5,1.9 1.4,1.1 2.2,2.6 2.4,4.5 0.2,2 -0.6,4.3 -2.4,7.1 -1.4,-1 -2.7,-1.5 -3.9,-1.3 -1.2,0.1 -2.3,0.6 -3.3,1.4 -1,0.8 -1.7,1.8 -2.2,3 -0.5,1.2 -0.6,2.3 -0.4,3.3 0.2,1 0.8,1.9 1.8,2.6 1.1,1.1 2.6,1.3 4.6,1.1 z m 46,-60 c -1.5,4.7 -3,9.3 -4.6,14 -1.6,4.6 -3.2,9.1 -5.1,13.5 -1.8,4.4 -3.8,8.6 -5.9,12.5 -2.1,3.9 -4.4,7.5 -6.8,10.7 2.1,1.7 4.6,3 7.4,4 3.6,1.3 7.3,1.1 10.9,-0.7 3.6,-1.8 6.9,-4.4 9.9,-7.9 2.9,-3.5 5.4,-7.5 7.4,-12.1 2,-4.6 3.2,-9.1 3.7,-13.5 0.5,-4.4 0.1,-8.3 -1.2,-11.8 -1.3,-3.5 -3.8,-5.9 -7.6,-7.2 -2.7,-1 -5.4,-1.5 -8.1,-1.5 z M 174,298.1 c -2.1,1.7 -4.1,4.1 -5.9,7 -1.8,2.9 -3.5,6.4 -5.1,10.3 -1.6,3.9 -3.2,8.2 -4.7,12.8 -1.5,4.6 -3,9.4 -4.5,14.4 1.6,0.7 3.2,1.1 4.8,1.2 1.6,0.1 3.1,0.1 4.3,0 3.5,-0.4 6.6,-2.3 9.3,-5.6 2.7,-3.3 4.6,-7.3 5.9,-11.9 1.2,-4.6 1.6,-9.5 1,-14.7 -0.5,-5 -2.2,-9.6 -5.1,-13.5 z"
       id="path2931"
       inkscape:connector-curvature="0"
       style="clip-rule:evenodd;fill:#ffffff;fill-rule:evenodd" /><path
       class="st1"
       d="m 205.8,369.1 c -0.6,2.1 -1.1,3.8 -1.3,5.1 -0.2,1.3 -0.2,2.2 -0.1,2.9 0.2,0.7 0.4,1.1 0.8,1.4 0.4,0.2 0.8,0.4 1.2,0.4 1,0.2 2.4,-0.4 4.3,-1.7 1.9,-1.3 3.5,-3.5 4.7,-6.4 l 2.3,-0.3 c -1.3,3.5 -2.8,6.5 -4.5,9 -1.7,2.5 -3.5,4.6 -5.3,6.2 -1.8,1.7 -3.6,2.9 -5.5,3.8 -1.8,0.9 -3.5,1.4 -5,1.5 -1.4,0.2 -2.7,0 -4,-0.4 -1.3,-0.4 -2.3,-1.4 -3.1,-2.8 -0.8,-1.4 -1.2,-3.5 -1.1,-6.2 0.1,-2.7 0.7,-6.3 2,-10.8 l 12.4,-41.3 14.5,-1.7 c -1.8,6.2 -3.5,12 -5.1,17.3 -1.4,4.7 -2.8,9.3 -4.1,13.8 -1.5,4.6 -2.5,8 -3.1,10.2 z M 227,304 c 0,2.7 -1,5.1 -2.9,7.3 -1.9,2.2 -4.2,3.4 -6.8,3.7 -2.8,0.3 -5.1,-0.4 -7,-2.1 -1.9,-1.7 -2.8,-3.9 -2.8,-6.6 0,-2.8 0.9,-5.2 2.8,-7.2 1.9,-2 4.2,-3.2 7,-3.6 2.6,-0.3 4.8,0.3 6.8,1.9 1.9,1.6 2.9,3.8 2.9,6.6 z"
       id="path2933"
       inkscape:connector-curvature="0"
       style="clip-rule:evenodd;fill:#ffffff;fill-rule:evenodd" /><path
       class="st1"
       d="m 244.7,336 c -0.9,0.1 -1.8,0.7 -2.7,1.8 -1,1.1 -1.9,2.5 -2.7,4.2 -0.9,1.7 -1.7,3.5 -2.6,5.5 -0.9,2 -1.7,4 -2.4,5.9 l -10.1,34.9 -14.6,1.7 18.3,-63.4 14.6,-1.7 -3.1,10.5 c 2.1,-3.3 4.4,-6 6.8,-8.1 2.4,-2.2 5,-3.4 7.8,-3.7 3.4,-0.4 5.5,0.6 6.3,3 0.8,2.4 0.8,5.4 0.1,9.2 -0.8,3.7 -1.9,7.9 -3.5,12.4 -1.6,4.5 -3.1,8.7 -4.4,12.5 -1.3,3.8 -2.2,7 -2.7,9.5 -0.4,2.5 0.2,3.7 1.9,3.5 0.9,-0.1 2.2,-0.7 4.1,-1.9 1.9,-1.2 3.5,-3.2 4.7,-6.2 l 2.3,-0.3 c -1.3,3.5 -2.8,6.5 -4.5,9 -1.7,2.5 -3.5,4.6 -5.4,6.3 -1.9,1.7 -3.7,2.9 -5.5,3.8 -1.8,0.8 -3.3,1.4 -4.7,1.5 -3.6,0.4 -5.9,-0.5 -6.9,-2.9 -1,-2.4 -1.2,-5.4 -0.6,-9.1 0.5,-3.7 1.6,-7.8 3.1,-12.3 1.5,-4.5 2.9,-8.6 4.3,-12.4 1.3,-3.8 2.3,-7 3,-9.5 0.5,-2.7 0.3,-3.9 -0.9,-3.7 z"
       id="path2935"
       inkscape:connector-curvature="0"
       style="clip-rule:evenodd;fill:#ffffff;fill-rule:evenodd" /><path
       class="st1"
       d="m 280.9,375.8 c 0,-0.1 0,-0.2 0.1,-0.3 0.1,-0.1 0.1,-0.3 0.1,-0.5 -2.1,2.1 -4.4,3.8 -6.9,5.3 -2.5,1.5 -4.8,2.3 -7.1,2.6 -2.1,0.2 -3.9,-0.2 -5.2,-1.4 -1.3,-1.2 -2.2,-3.1 -2.5,-5.8 -0.3,-2.7 -0.1,-6.2 0.8,-10.5 0.9,-4.3 2.5,-9.4 5,-15.2 2.5,-6 5.6,-11.2 9.4,-15.6 3.8,-4.5 7.9,-8.1 12.1,-10.8 4.3,-2.8 8.6,-4.6 12.9,-5.5 4.3,-0.9 8.3,-0.8 11.8,0.4 -1.7,6.3 -3.5,12.7 -5.5,19.1 -1.6,5.7 -3.3,11.7 -5.2,18.2 -1.9,6.5 -3.6,12.7 -5.2,18.7 -1.4,4.8 -2.9,9.3 -4.7,13.6 -1.7,4.3 -3.8,8.1 -6.1,11.5 -2.4,3.4 -5.1,6.2 -8.1,8.3 -3.1,2.2 -6.6,3.5 -10.7,4 -2.8,0.3 -5.3,0.1 -7.5,-0.6 -2.2,-0.7 -3.9,-1.8 -5.2,-3.2 -1.3,-1.5 -2.1,-3.2 -2.5,-5.3 -0.4,-2 -0.1,-4.3 0.7,-6.8 1.2,-3.6 3.1,-6.1 5.9,-7.6 2.7,-1.5 5.4,-2.1 7.9,-1.9 2.5,0.2 4.5,1.3 5.9,3.2 1.4,1.9 1.5,4.5 0.1,7.6 -2.4,-1.3 -4.3,-1.5 -5.9,-0.5 -1.6,1 -2.7,2.3 -3.2,3.9 -0.5,1.6 -0.5,3.2 0.1,4.7 0.6,1.5 2,2.1 4.1,1.9 1.8,-0.2 3.4,-1.4 4.8,-3.5 1.4,-2.1 2.7,-4.7 3.8,-7.8 1.1,-3.1 2.2,-6.4 3.1,-10 0.9,-3.6 1.9,-7 2.9,-10.2 z m -3.7,-6.3 c 1.1,-0.1 2.3,-0.7 3.5,-1.6 1.3,-1 2.4,-1.7 3.2,-2.4 1,-3.3 2,-6.7 3,-10.2 1,-3.5 2,-7 3,-10.4 1,-3.4 1.9,-6.6 2.7,-9.6 0.9,-3 1.6,-5.7 2.3,-8 -0.6,-0.2 -1.3,-0.3 -2.1,-0.2 -1.6,0.2 -3.3,1.4 -5.1,3.6 -1.8,2.2 -3.6,4.9 -5.2,8.2 -1.7,3.2 -3.1,6.7 -4.4,10.3 -1.3,3.6 -2.2,7 -2.8,10.1 -0.6,3.1 -0.8,5.7 -0.6,7.6 0.1,1.9 1,2.8 2.5,2.6 z"
       id="path2937"
       inkscape:connector-curvature="0"
       style="clip-rule:evenodd;fill:#ffffff;fill-rule:evenodd" /><path
       class="st1"
       d="m 337.8,313.9 c 4.1,-0.5 7.2,-0.1 9.5,1.2 2.3,1.3 3.8,3.3 4.7,5.9 0.9,2.6 1.1,5.8 0.6,9.6 -0.4,3.7 -1.2,7.8 -2.4,12.1 -1.3,4.3 -3.1,8.5 -5.3,12.4 -2.3,4 -4.7,7.5 -7.5,10.5 -2.7,3.1 -5.6,5.5 -8.6,7.4 -3,1.9 -5.9,3 -8.8,3.4 -4.1,0.5 -7.2,0.1 -9.5,-1.2 -2.3,-1.3 -3.8,-3.3 -4.7,-5.9 -0.9,-2.6 -1.1,-5.8 -0.6,-9.6 0.4,-3.7 1.2,-7.8 2.4,-12.1 1.2,-4.3 2.9,-8.5 5.1,-12.4 2.2,-4 4.7,-7.5 7.4,-10.5 2.7,-3.1 5.6,-5.5 8.7,-7.4 2.9,-1.9 6,-3.1 9,-3.4 z m -15.3,55.4 c 1.3,-0.1 2.7,-1.4 4.1,-3.9 1.4,-2.4 2.9,-5.4 4.3,-9 1.4,-3.6 2.7,-7.4 3.8,-11.5 1.1,-4 2,-7.8 2.5,-11.3 0.5,-3.5 0.7,-6.4 0.5,-8.6 -0.2,-2.2 -1,-3.3 -2.4,-3.1 -1.4,0.2 -2.8,1.5 -4.3,3.9 -1.5,2.4 -2.9,5.4 -4.3,9 -1.3,3.6 -2.5,7.4 -3.5,11.4 -1,4 -1.8,7.8 -2.3,11.3 -0.5,3.5 -0.6,6.3 -0.4,8.6 0.1,2.3 0.8,3.4 2,3.2 z"
       id="path2939"
       inkscape:connector-curvature="0"
       style="clip-rule:evenodd;fill:#ffffff;fill-rule:evenodd" /><path
       class="st0"
       d="M 317.1,295.1 H 280 V 156 c 2.4,4.3 4.4,7.9 5.3,8.8 1.3,1.3 3.5,1.7 5.7,1.7 1.9,0 3.9,-0.3 5,-0.5 0.9,-0.2 2.1,0.4 3.1,0.8 0.6,0.3 1.3,0.6 1.9,0.8 1.3,0.4 2.5,0.2 3.2,0.1 1,0.5 2.8,1.3 4.9,1.3 1.5,0 2.7,-0.1 3.3,-0.4 0.5,-0.2 0.9,-0.4 1.1,-0.7 v 0 c 0.6,-0.6 0.7,-1.4 0.3,-2.1 -0.2,-0.4 -0.5,-0.7 -0.9,-1 v 0 c -0.3,-0.2 -0.6,-0.4 -0.8,-0.6 0,-0.1 0,-0.2 0,-0.4 -0.1,-0.6 -1,-1.7 -2.2,-2.9 -1.4,-1.5 -3.4,-3.3 -3.8,-3.7 -0.8,-0.7 -3.1,-0.7 -6.1,-0.8 -3.6,-0.1 -8.2,-0.2 -9.8,-0.9 v 0 c -2.1,-0.9 -5.4,-11.8 -7.5,-18.8 v 0 c -0.3,-1 -0.6,-1.9 -0.9,-3 -0.5,-1.6 -1.2,-3.2 -2,-4.9 V 93.4 h 37.1 v 201.7 z"
       id="path2941"
       inkscape:connector-curvature="0"
       style="clip-rule:evenodd;fill:#ffffff;fill-rule:evenodd" /></g></svg>