<?xml version="1.0" encoding="UTF-8"?>
<svg width="110px" height="76px" viewBox="0 0 110 76" version="1.1" xmlns="http://www.w3.org/2000/svg" xmlns:xlink="http://www.w3.org/1999/xlink">
    <!-- Generator: Sketch 49.3 (51167) - http://www.bohemiancoding.com/sketch -->
    <title>Asset 1</title>
    <desc>Created with Sketch.</desc>
    <defs></defs>
    <g id="Desktop-Supporting-Pages" stroke="none" stroke-width="1" fill="none" fill-rule="evenodd">
        <g id="Desktop-Customer-Support" transform="translate(-665.000000, -587.000000)" fill-rule="nonzero">
            <g id="Asset-1" transform="translate(665.000000, 587.000000)">
                <path d="M54.56,68.0545455 C51.0895117,68.7550691 47.5492234,69.1025147 44,69.0909091 C39.2679628,69.0698718 34.5591584,68.4659647 29.9933333,67.2945455 C25.08,70.4036364 17.5266667,74.1345455 7.33333333,76 C7.33333333,76 11.5866667,69.2290909 13.86,59.6254545 C5.35333333,53.3381818 -2.27373675e-13,44.4254545 -2.27373675e-13,34.5454545 C-2.27373675e-13,15.4763636 19.7266667,2.27373675e-13 44,2.27373675e-13 C59.4,2.27373675e-13 73.04,6.21818182 80.8133333,15.6836364 C79.5666667,15.6145455 78.32,15.5454545 77,15.5454545 C56.76,15.5454545 40.3333333,28.7418182 40.3333333,44.9090909 C40.3333333,54.3054545 45.9066667,62.7345455 54.56,68.0545455 Z" id="Shape" fill="#4CA3EF"></path>
                <path d="M110,44.9090909 C110,32.4036364 98.7066667,21.9018182 83.6,19.5527273 C81.4207798,19.1913246 79.2127131,19.0064066 77,19 C58.74,19 44,30.6072727 44,44.9090909 C44,54.1672727 50.16,62.32 59.5466667,66.88 C64.6066667,69.3672727 70.62,70.8181818 77,70.8181818 C80.5708429,70.8192676 84.124628,70.3542406 87.56,69.4363636 C92.6720492,72.6905149 98.437062,74.9242486 104.5,76 C104.5,76 101.273333,70.9563636 99.66,63.7709091 C105.966667,59.0036364 110,52.3018182 110,44.9090909 Z M62.3333333,48.3636364 C60.3082893,48.3636364 58.6666667,46.8169837 58.6666667,44.9090909 C58.6666667,43.0011981 60.3082893,41.4545455 62.3333333,41.4545455 C64.3583774,41.4545455 66,43.0011981 66,44.9090909 C66,46.8169837 64.3583774,48.3636364 62.3333333,48.3636364 Z M77,48.3636364 C74.9749559,48.3636364 73.3333333,46.8169837 73.3333333,44.9090909 C73.3333333,43.0011981 74.9749559,41.4545455 77,41.4545455 C79.0250441,41.4545455 80.6666667,43.0011981 80.6666667,44.9090909 C80.6666667,46.8169837 79.0250441,48.3636364 77,48.3636364 Z M91.6666667,48.3636364 C89.6416226,48.3636364 88,46.8169837 88,44.9090909 C88,43.0011981 89.6416226,41.4545455 91.6666667,41.4545455 C93.6917107,41.4545455 95.3333333,43.0011981 95.3333333,44.9090909 C95.3333333,46.8169837 93.6917107,48.3636364 91.6666667,48.3636364 Z" id="Shape" fill="#0874CA"></path>
            </g>
        </g>
    </g>
</svg>