<svg xmlns="http://www.w3.org/2000/svg" viewBox="0 0 336.89531 405.84774"><defs><style>.cls-1{fill:#333;opacity:0.1;isolation:isolate;}.cls-2{fill:#0071bc;}.cls-3{fill:#f2f2f2;}.cls-4{fill:#fff;}.cls-5{fill:#e6e6e6;}.cls-6{fill:#29abe2;}.cls-7{fill:#2294af;}.cls-8{fill:#22b573;}</style></defs><title>email_icon</title><g id="Layer_2" data-name="Layer 2"><g id="Layer_1-2" data-name="Layer 1"><g id="Desktop-Registration-Flow"><g id="Desktop-Registration-6"><g id="Container"><g id="Card-_Confirm---Email-PIN_" data-name="Card-(Confirm---Email-PIN)"><g id="email_icon" data-name="email icon"><polygon id="Shape" class="cls-1" points="286.493 161.884 286.493 126.448 286.493 67.101 286.493 66.873 227.526 7.528 43.055 7.528 43.055 161.881 0 183.341 0 405.848 329.543 405.848 329.543 183.341 286.493 161.884"/><polygon id="Shape-2" data-name="Shape" class="cls-2" points="336.895 398.321 7.351 398.321 7.351 175.814 172.121 93.688 336.895 175.814 336.895 398.321"/><polygon id="Shape-3" data-name="Shape" class="cls-3" points="234.878 0 50.407 0 50.407 316.836 293.845 316.836 293.845 59.346 234.878 59.346 234.878 0"/><polygon id="Shape-4" data-name="Shape" class="cls-4" points="234.878 59.346 293.845 59.346 234.878 0 234.878 59.346"/><polygon id="Shape-5" data-name="Shape" class="cls-5" points="293.845 59.574 234.878 59.574 293.845 118.921 293.845 59.574"/><polygon id="Shape-6" data-name="Shape" class="cls-6" points="336.895 398.321 7.351 398.321 7.351 175.814 172.126 287.068 336.895 175.814 336.895 398.321"/><polygon id="Shape-7" data-name="Shape" class="cls-7" points="336.895 398.321 7.351 398.321 172.126 287.068 336.895 398.321"/><path id="Shape-8" data-name="Shape" class="cls-8" d="M243.646,113.393a3.21918,3.21918,0,0,0-.05593-.58887l-.00324-.01472c-.00332-.00979-.00332-.018-.00658-.0261-.01776-.09066-.04054-.18132-.06487-.26955-.00566-.02041-.01382-.04006-.0203-.06047-.0211-.06775-.04137-.138-.069-.20582-.0024-.00653-.00648-.01221-.00972-.022-.01138-.031-.0284-.06046-.03978-.09149-.03-.06858-.06167-.13641-.09417-.20173l-.00564-.0082a3.18594,3.18594,0,0,0-.56156-.76935l-1.429-1.44079-2.06683-2.07775-6.23622-6.27673-.78227-.78817-3.40251-3.42377c-.02276-.02376-.04952-.0409-.073-.06214a2.99087,2.99087,0,0,0-.25079-.2172c-.04379-.03186-.08839-.06615-.133-.09476a2.9233,2.9233,0,0,0-.3392-.20583c-.03656-.01957-.07545-.03429-.11443-.05227a2.93344,2.93344,0,0,0-.33678-.13557c-.02518-.0082-.047-.018-.07138-.02451a3.23611,3.23611,0,0,0-.41871-.09718c-.0163-.00167-.02842-.00736-.04471-.00979-.02268-.00326-.04212-.00083-.0649-.00577a1.94961,1.94961,0,0,0-.21747-.018c-.04136-.00242-.08117-.00569-.12089-.00652-.07869-.00243-.15423.00083-.22968.0041-.03813.00409-.07462.00409-.11276.00735a3.09894,3.09894,0,0,0-.32216.04408c-.04378.009-.086.02208-.12987.03186-.06489.01631-.12739.03028-.18988.05069-.05517.01714-.11194.03755-.16876.05963-.04787.01631-.09573.03262-.14368.05386-.05917.02618-.11516.05227-.17442.08247-.0422.02124-.08193.04165-.12331.0654-.06007.03262-.11775.06615-.17534.10455-.0373.02367-.07137.04816-.10709.07426-.05927.04165-.11768.0833-.172.12905-.02842.02292-.05277.04659-.07877.06867-.05759.05143-.11683.09634-.17284.15355l-4.04276,4.06985-2.20884,2.22152-7.99951,8.05155-1.1158,1.123-.64674.65178-4.52488,4.55175-7.92406,7.9772-1.66107,1.67111-6.38148,6.42284-6.00821,6.04808-1.21718,1.22509-4.0834,4.10907-6.36194,6.40494-4.31381,4.33859-3.63135-3.65579-1.10044-1.10749-.23208-.23276-.8155-.82087-8.51893-8.575-1.34864-1.35666-1.16043-1.16788-20.77219-20.90877c-.02758-.0286-.06008-.05479-.09174-.08339a3.12543,3.12543,0,0,0-3.35381-.6117l-.0373.018c-.07878.03345-.15423.06858-.22811.1078-.02268.01305-.04619.02534-.06971.03923-.06332.03429-.1234.07025-.1834.11023-.02841.01882-.05924.04006-.09007.05963-.05035.03513-.10063.07268-.14932.11107-.03083.02693-.06415.0531-.09656.08087-.02111.01631-.04471.03429-.065.05227-.04138.03756-.08359.07352-.12331.11349l-1.66681,1.68007-9.32222,9.37875-1.89317,1.9079-1.03545,1.04384c-.039.03588-.06573.07762-.10063.116-.05036.05554-.0998.11182-.14525.16819-.0398.05312-.07545.10211-.112.156-.04379.06373-.08517.12989-.12415.196-.01944.03353-.04462.06532-.06249.0997-.00889.013-.01138.02609-.01869.03913l-.00325.00661a3.06809,3.06809,0,0,0-.19635.47205c-.01138.03595-.02517.07351-.03406.10621-.017.05552-.0276.11182-.04139.1666-.01221.05553-.02517.1078-.03573.16492-.00814.04743-.01379.09477-.02027.1462-.0089.06215-.01546.125-.01945.19194-.00249.01967-.00573.0384-.00731.05888-.0025.02693,0,.053,0,.07836-.0025.0588-.0025.11676,0,.17891,0,.04574.00324.09224.00731.13967.00324.058.00806.11592.01621.17555.00565.04658.01055.09476.01944.14293.00972.05394.02194.10621.03407.16175.01221.05227.0236.1037.03739.1543.0138.04743.02676.09561.04379.14135.01787.05637.03732.1119.05759.1666.01629.04005.03415.08088.05035.1176.02842.06045.05435.12336.0836.17972.017.031.03407.06038.05111.08982.03572.06617.07137.12989.11358.19438.013.018.026.03512.039.05227a3.11576,3.11576,0,0,0,.3692.4533l1.04035,1.04786,8.78909,8.84383,1.65135,1.66451,2.49934,2.5123,3.56812,3.59288,6.62329,6.66548,2.311,2.32773.29782.29975,6.88221,6.9285,1.59692,1.605,6.48943,6.53074,7.8186,7.87257,4.09387,4.11728a2.43734,2.43734,0,0,0,.2256.20582c.03166.02693.06657.05059.09739.07351.043.03262.08443.067.12663.09635.05351.03512.10712.067.16062.10045.02194.01387.04547.02777.06573.04006.06415.03922.13146.07184.19719.10538a.02678.02678,0,0,1,.01463.00727l.01462.00327a2.54683,2.54683,0,0,0,.29208.12009.17227.17227,0,0,0,.03813.01557,2.36113,2.36113,0,0,0,.276.07677.643.643,0,0,0,.06573.01547c.08517.02124.1696.0343.25643.04742.02759.00243.05519.0098.08111.01054.10877.01062.21421.018.32132.018h.01056a3.15,3.15,0,0,0,2.243-.93354s2.97083-2.82679,3.172-3.02851l71.55619-72.02012A3.20267,3.20267,0,0,0,243.646,113.393Z"/></g></g></g></g></g></g></g></svg>