<svg id="Layer_1" data-name="Layer 1" xmlns="http://www.w3.org/2000/svg" xmlns:xlink="http://www.w3.org/1999/xlink" viewBox="0 0 4132.61238 3549.44322"><defs><style>.cls-1{fill:url(#linear-gradient);}.cls-2{fill:url(#linear-gradient-2);}.cls-3{fill:url(#linear-gradient-3);}.cls-4{fill:#fff;}.cls-5{fill:url(#linear-gradient-4);}.cls-6{fill:url(#linear-gradient-5);}.cls-7{fill:url(#linear-gradient-6);}.cls-8{fill:url(#linear-gradient-7);}</style><linearGradient id="linear-gradient" x1="1102.25223" y1="3982.34329" x2="1102.25223" y2="1845.97326" gradientUnits="userSpaceOnUse"><stop offset="0" stop-color="#3e639d"/><stop offset="0.55665" stop-color="#00bdff"/><stop offset="1" stop-color="#48548c"/></linearGradient><linearGradient id="linear-gradient-2" x1="1549.3354" y1="4445.36064" x2="1549.3354" y2="3923.74132" gradientUnits="userSpaceOnUse"><stop offset="0.47783" stop-color="#00aeef"/><stop offset="1" stop-color="#48609b"/></linearGradient><linearGradient id="linear-gradient-3" x1="1022.89322" y1="2779.36931" x2="2684.77812" y2="3543.58229" gradientUnits="userSpaceOnUse"><stop offset="0.18719" stop-color="#00aeef"/><stop offset="0.32498" stop-color="#05a8ea"/><stop offset="0.51408" stop-color="#1296db"/><stop offset="0.73288" stop-color="#2779c2"/><stop offset="0.9724" stop-color="#44519f"/><stop offset="1" stop-color="#484c9b"/></linearGradient><linearGradient id="linear-gradient-4" x1="3075.9522" y1="2121.95142" x2="3075.9522" y2="2121.95142" gradientUnits="userSpaceOnUse"><stop offset="0" stop-color="#939598"/><stop offset="0.96059" stop-color="#d1d3d4"/><stop offset="0.97415" stop-color="#dddfe0"/><stop offset="1" stop-color="#f1f2f2"/></linearGradient><linearGradient id="linear-gradient-5" x1="-3818.76737" y1="3146.86774" x2="-3818.76737" y2="661.39822" gradientTransform="matrix(-1, 0, 0, 1, 820.5146, 0)" gradientUnits="userSpaceOnUse"><stop offset="0.00046" stop-color="#aa002f"/><stop offset="0.48769" stop-color="#901f1f"/><stop offset="0.9981" stop-color="#561f1f"/></linearGradient><linearGradient id="linear-gradient-6" x1="-3415.6479" y1="3620.38123" x2="-3415.6479" y2="3081.51998" gradientTransform="matrix(-1, 0, 0, 1, 820.5146, 0)" gradientUnits="userSpaceOnUse"><stop offset="0" stop-color="#dc2430"/><stop offset="0.4872" stop-color="#901f1f"/><stop offset="0.99946" stop-color="#561f1f"/></linearGradient><linearGradient id="linear-gradient-7" x1="-3739.64703" y1="1967.03197" x2="-2018.41917" y2="2895.79879" gradientTransform="matrix(-1, 0, 0, 1, 820.5146, 0)" gradientUnits="userSpaceOnUse"><stop offset="0" stop-color="#dc2430"/><stop offset="0.51031" stop-color="#bf2374"/><stop offset="0.66989" stop-color="#b5238a"/><stop offset="1" stop-color="#7b4397"/></linearGradient></defs><title>FAQ_icon</title><path class="cls-1" d="M1342.9392,2003.93372s-149.457-11.9315-234.2497-.0036c-96.8723,13.6272-136.5922,38.3451-180.5721,85.7081-43.98,47.3633-60.4726,118.408-60.4726,250.34829S855.804,3495.3092,855.804,3495.3092s-9.3036,196.219,27.9104,274.0298,114.179,167.2386,466.0198,155.5098c0,0-301.9402-86.1565-303.6318-226.5546-1.6917-140.3978-14.3782-700.2982-12.6866-822.0892s-17.7612-664.77578,75.2737-761.19358C1201.7241,2018.59352,1326.162,2003.192,1342.9392,2003.93372Z" transform="translate(-854.77025 -838.99998)"/><path class="cls-2" d="M1304.0613,3921.5866s115.026,339.9909,329.8519,466.8566h160.6963s-150.9701-135.7462-245.2741-302.7859c-97.5244-172.744-93.2802-167.7625-93.2802-167.7625S1398.7865,3928.3615,1304.0613,3921.5866Z" transform="translate(-854.77025 -838.99998)"/><path class="cls-3" d="M2615.9969,2265.30682l-1192.823-252.711c-213.0647-41.1613-397.1642,68.2298-398.6275,246.2748L1013.1541,3644.8752c-1.4249,173.389,177.7202,297.1596,387.9414,278.0227l54.9594-5.0031c31.4934,78.3981,173.2165,410.2222,338.5546,470.5484,0,0-56.797-311.3262-19.8704-499.559l806.4372-83.9077c129.8209-11.8173,233.123-123.5975,236.2401-250.4165l24.8306-1010.11719C2845.4255,2415.149,2746.6428,2290.54572,2615.9969,2265.30682Z" transform="translate(-854.77025 -838.99998)"/><path class="cls-4" d="M1912.284,2980.4289q54.09495-37.40685,105.8934-74.26658c36.7832-26.78052,55.3269-63.86112,56.0825-111.72142.5009-31.7473-13.5665-60.6925-42.5738-87.1151-27.5243-24.61569-58.3234-39.06439-92.4876-43.07689-96.0928-11.2865-146.1418,37.94169-146.5229,147.30619l-116.6106-8.908c-.1355-83.9112,24.0603-148.82629,71.8968-193.63549,48.7501-45.0091,113.4227-61.30961,192.2699-49.898,63.9408,9.2543,119.3625,37.998,166.7636,85.3955,48.9937,48.3467,72.3431,101.22959,71.1579,159.52439-1.1948,58.7707-19.6723,106.1431-55.8574,142.7644q-51.46125,40.23435-104.5672,81.7573c-38.4855,33.6534-58.2362,75.3455-58.7723,124.4673l-.8325,76.2363-106.2626,3.089.4846-78.3421C1852.815,3078.183,1872.9516,3020.0364,1912.284,2980.4289Zm-74.0208,492.5005.6706-118.8663,129.9716-7.7603-1.3179,115.0252Z" transform="translate(-854.77025 -838.99998)"/><path class="cls-5" d="M3075.9522,2121.95142" transform="translate(-854.77025 -838.99998)"/><path class="cls-6" d="M4291.1813,913.5311s177.3442-59.1982,282.0507-70.4421c121.9993-13.1009,174.0376,5.5813,233.3802,51.6972,59.7301,46.4171,85.4796,131.2283,93.4693,296.7539,7.9093,163.8536,81.4003,1379.38221,81.4003,1379.38221s22.2147,222.416-19.5612,312.89349c-41.2039,89.239-128.8196,192.0891-534.2131,197.3759,0,0,340.2602-109.4098,333.7236-263.8987-6.6054-156.10909-26.4124-796.30778-36.2851-938.4881-9.9582-143.4139-21.6735-805.8663-143.9762-898.2062C4460.5383,889.5206,4310.8364,907.7098,4291.1813,913.5311Z" transform="translate(-854.77025 -838.99998)"/><path class="cls-7" d="M4478.3505,3075.4649s-102.8885,357.0764-320.848,486.1175h-163.528s143.0704-135.0424,229.1209-305.7626c91.7649-182.0574,87.5245-176.656,87.5245-176.656S4373.8592,3087.2901,4478.3505,3075.4649Z" transform="translate(-854.77025 -838.99998)"/><path class="cls-8" d="M3011.5899,1512.1615,4198.624,947.1894c248.2123-113.0964,483.0271-33.5753,496.8971,186.8174l102.0334,1621.2781c12.068,191.7645-189.6983,336.2873-426.6206,326.3967l-60.314-2.5178c-28.2352,82.7295-152.9096,422.4695-316.6456,482.4186,0,0,32.4268-308.6247-20.5434-496.4948l-768.78841-41.9056c-113.42419-4.6223-212.53409-102.7454-228.49509-220.4295l-131.3026-968.1067C2827.4835,1706.6404,2898.781,1563.2442,3011.5899,1512.1615Z" transform="translate(-854.77025 -838.99998)"/><path class="cls-4" d="M3716.55318,2132.99382q49.85973-57.1494,100.8107-116.87782c37.3764-44.61148,53.31-94.64448,47.24-149.3883-4.0095-36.1582-24.1174-61.7417-59.8631-76.5847-32.7506-13.1324-66.5035-13.4579-101.1565-1.2829-91.2722,32.0681-129.505,101.3882-117.83,209.20372l-96.54659,29.6817c-8.4259-78.4496,3.87431-147.81872,37.38431-209.08922,35.60178-64.332,90.08348-110.8572,164.99278-139.3459,65.3274-24.8446,128.5055-25.0552,189.1277.5301,66.38452,27.3078,104.28482,76.4101,112.16672,146.7482,7.9974,71.3657-8.246,136.99682-48.1036,195.88282q-56.4936,66.993-110.84152,131.4449c-37.5053,49.0224-52.9664,100.5469-46.9537,155.32519l9.39562,85.5962-107.70352,20.7846-9.0659-83.3268C3670.90488,2252.31392,3683.06368,2186.15912,3716.55318,2132.99382Zm-11.477,543.27329-13.98818-128.6963,133.07968-21.1944,14.6188,133.0379Z" transform="translate(-854.77025 -838.99998)"/></svg>