<?xml version="1.0" encoding="UTF-8"?>
<svg width="100px" height="100px" viewBox="0 0 100 100" version="1.1" xmlns="http://www.w3.org/2000/svg" xmlns:xlink="http://www.w3.org/1999/xlink">
    <!-- Generator: Sketch 49.3 (51167) - http://www.bohemiancoding.com/sketch -->
    <title>Asset 1</title>
    <desc>Created with Sketch.</desc>
    <defs></defs>
    <g id="Desktop-Supporting-Pages" stroke="none" stroke-width="1" fill="none" fill-rule="evenodd">
        <g id="Desktop-Customer-Support" transform="translate(-1040.000000, -575.000000)" fill-rule="nonzero">
            <g id="Asset-1" transform="translate(1040.000000, 575.000000)">
                <path d="M50,0 C22.3857625,-1.69088438e-15 3.38176876e-15,22.3857625 0,50 C-3.38176876e-15,77.6142375 22.3857625,100 50,100 C77.6142375,100 100,77.6142375 100,50 C100,36.7391755 94.732158,24.0214799 85.3553391,14.6446609 C75.9785201,5.26784202 63.2608245,8.11991313e-16 50,0 Z" id="Shape" fill="#4CA3EF"></path>
                <path d="M50,18.4328358 C38.4147786,18.4325769 27.760262,24.778409 22.2424665,34.9652284 C16.7246709,45.1520477 17.2302815,57.5428776 23.5597015,67.2462687 L20.3731343,79.141791 L32.0895522,76 C43.2717695,83.6994367 58.1245291,83.3866093 68.972644,75.2231719 C79.8207589,67.0597344 84.2341446,52.8743774 79.932177,39.9974063 C75.6302093,27.1204353 63.5765716,18.4364187 50,18.4328358 Z M49.4776119,69.380597 C46.5925424,69.380597 44.2537313,67.041786 44.2537313,64.1567164 C44.2537313,61.2716468 46.5925424,58.9328358 49.4776119,58.9328358 C52.3626815,58.9328358 54.7014925,61.2716468 54.7014925,64.1567164 C54.7014925,67.041786 52.3626815,69.380597 49.4776119,69.380597 Z M54.0783582,53.9850746 L54.0783582,56.8955224 L45.1231343,56.8955224 L45.1231343,52.6641791 C45.1231343,47.8134328 52.7798507,45.0447761 52.7798507,42.1343284 C52.7798507,40.1231343 50.9141791,38.8470149 49.2164179,38.8470149 C47.1455224,38.8470149 45.4514925,40.6455224 43.8134328,42.761194 L38.2164179,37.5373134 C41.5746269,33.25 45.4813433,30.5820896 50.2947761,30.5820896 C56.7014925,30.5820896 61.7537313,35.0858209 61.7537313,42.2276119 C61.7313433,49.119403 54.0783582,50.8097015 54.0783582,53.9850746 Z" id="Shape" fill="#FFFFFF"></path>
            </g>
        </g>
    </g>
</svg>