<?xml version="1.0" encoding="utf-8"?>
<!-- Generator: Adobe Illustrator 21.0.0, SVG Export Plug-In . SVG Version: 6.00 Build 0)  -->
<svg version="1.1" id="Layer_1" xmlns="http://www.w3.org/2000/svg" xmlns:xlink="http://www.w3.org/1999/xlink" x="0px" y="0px"
	 viewBox="0 0 21 23" style="enable-background:new 0 0 21 23;" xml:space="preserve">
<style type="text/css">
	.st0{fill:none;}
	.st1{fill:#384079;}
</style>
<g id="sand-timer">
	<path class="st0" d="M14.5,14.8l-1.6-2.9c-0.1-0.2-0.1-0.5,0-0.8l1.2-2.2l2.4-4.5c0.4-0.9,0.6-1.9,0.4-2.8H3.6
		C3.5,2.5,3.6,3.5,4,4.3l2.2,4.1L7.6,11c0.1,0.2,0.1,0.5,0,0.8c-0.2,0.4-0.4,0.9-0.6,1.4l-2.5,4.6c-0.6,1-0.8,2.1-0.8,3.2
		c0,0.3,0,0.3,0.3,0.3h12.8l0.3-0.3c0.1-0.9,0-1.7-0.4-2.5L14.5,14.8z M10.6,11.1h-0.3c-0.4,0.1-0.8-0.1-1-0.4
		c-1.4-1.5-2.5-3.2-3.4-5c-0.3-0.5-0.4-1-0.3-1.5h9.3c0,0.4,0,0.8-0.1,1.2c-0.9,2-2.2,3.9-3.7,5.6C10.9,11,10.8,11.1,10.6,11.1z"/>
	<path class="st1" d="M15,4.1H5.6c-0.1,0.5,0,1.1,0.2,1.5c0.9,1.8,2,3.5,3.4,5c0.2,0.3,0.6,0.5,1,0.4h0.4c0.1,0,0.2-0.1,0.3-0.1
		c1.5-1.6,2.8-3.5,3.8-5.6C14.9,5,15,4.5,15,4.1z"/>
	<path class="st0" d="M3.6,1.7C3.5,2.6,3.6,3.6,4,4.4l2.2,4.1l1.4,2.6c0.1,0.2,0.1,0.5,0,0.8c-0.2,0.4-0.4,0.9-0.6,1.4l-2.5,4.6
		c-0.6,1-0.8,2.1-0.8,3.2c0,0.3,0,0.3,0.3,0.3h12.8l0.3-0.3c0.1-0.9,0-1.7-0.4-2.5l-2-3.8l-1.6-2.9c-0.1-0.2-0.1-0.5,0-0.8l1.2-2.2
		l2.4-4.5c0.4-0.9,0.6-1.9,0.4-2.8L3.6,1.7z"/>
	<path class="st0" d="M14.5,14.8l-1.6-2.9c-0.1-0.2-0.1-0.5,0-0.8l1.2-2.2l2.4-4.5c0.4-0.9,0.6-1.9,0.4-2.8H3.6
		C3.5,2.5,3.6,3.5,4,4.3l2.2,4.1L7.6,11c0.1,0.2,0.1,0.5,0,0.8c-0.2,0.4-0.4,0.9-0.6,1.4l-2.5,4.6c-0.6,1-0.8,2.1-0.8,3.2
		c0,0.3,0,0.3,0.3,0.3h12.8l0.3-0.3c0.1-0.9,0-1.7-0.4-2.5L14.5,14.8z"/>
	<path class="st1" d="M19.6,21.4h-1.4v-1.2c0-0.3,0-0.6-0.1-0.9c-0.2-0.8-0.5-1.5-0.9-2.3l-2.9-5.2c-0.1-0.2-0.1-0.3,0.1-0.5
		c0.5-0.8,1-1.6,1.4-2.4c1.1-2.2,2.7-4.2,2.4-6.8c0-0.2,0-0.3,0.1-0.3h1.2c0.5,0,0.9-0.4,0.9-0.9S20,0,19.5,0l0,0H0.9
		C0.4,0,0,0.4,0,0.9s0.4,0.9,0.9,0.9l0,0h1.3v0.5c0,0.5,0,1,0.1,1.5c0.2,0.7,0.5,1.5,0.9,2.1C4,7.7,5,9.5,6.1,11.1
		c0.1,0.2,0.1,0.4,0,0.6c-1,1.7-2,3.4-2.9,5.1c-0.8,1.2-1.1,2.7-1,4.1v0.3H0.9c-0.4,0-0.8,0.4-0.8,0.9c0,0.4,0.3,0.6,0.8,0.8h18.8
		c0.4,0,0.8-0.4,0.8-0.9C20.3,21.7,20.1,21.4,19.6,21.4z M3.8,21.4c-0.3,0-0.3,0-0.3-0.3c-0.1-1.1,0.2-2.2,0.8-3.2l2.5-4.6
		c0.2-0.4,0.4-0.9,0.7-1.4c0.1-0.2,0.1-0.5,0-0.8L6,8.5L3.8,4.4C3.4,3.6,3.3,2.6,3.5,1.7h13.4c0.1,1,0,1.9-0.4,2.8L14.1,9l-1.2,2.2
		c-0.1,0.2-0.1,0.5,0,0.8l1.6,2.9l2,3.8c0.4,0.8,0.5,1.6,0.4,2.5l-0.3,0.3L3.8,21.4z"/>
</g>
</svg>
