<?xml version="1.0" encoding="utf-8"?>
<!-- Generator: Adobe Illustrator 22.1.0, SVG Export Plug-In . SVG Version: 6.00 Build 0)  -->
<svg version="1.1" id="Layer_1" xmlns="http://www.w3.org/2000/svg" xmlns:xlink="http://www.w3.org/1999/xlink" x="0px" y="0px"
	 viewBox="0 0 1920 1080" style="enable-background:new 0 0 1920 1080;" xml:space="preserve">
<style type="text/css">
	.st0{fill:#FE9601;}
	.st1{fill:#FE9703;}
	.st2{fill:#A82B8D;}
	.st3{fill:#FED100;}
	.st4{fill:#FED101;}
	.st5{fill:#DA2536;}
</style>
<g>
	<path class="st0" d="M456.5,263.8c-7.7-44.6-4.7-59.6,0-71.1c2.1-5.1,9-21.4,25.6-33.2c16.8-12,34.8-13.2,45.6-13.5
		c49.5-1.6,99.1-0.6,149.7-0.6c0-17.2,0-32.1,0-47c95,0,190,0.1,284.9,0.1c-0.2,47.1-0.5,94.3-0.7,141.4c-7.9,7.7-19,14.1-22.9,23.4
		c-9.6,22.9-16.7,46.9-23.1,70.9c-3.6,13.6-10.7,17.3-23.9,16.8c-23.6-0.9-47.3,0.2-70.9-0.4c-14.2-0.4-27.1,1.5-31.8,16.7
		c-4.6,15.1,7.6,22.5,17.4,30c19.3,14.6,38.6,29.3,58.7,42.8c9.5,6.4,11.2,12.6,7.7,23c-8,23.5-15.2,47.4-22.4,71.2
		c-3.6,11.9-8.5,24.7,5.1,33.6c13.2,8.6,24.3,2.6,35.8-5.8c23-16.9,46.9-32.7,70.4-49c0.2,88,0.4,175.9,0.5,263.9
		c-15.9-1.1-31.9-2.1-47.8-3.2c-83.8-16.2-149-59.8-195-132c-3.3-5.2-8.8-9.8-14.4-12.5c-44.3-21.7-81.9-48.6-113.6-80.1
		c-51.1-50.8-81.1-106.8-119.6-219.3C463.6,305.2,461.2,291.4,456.5,263.8z M678,538.2c0-109.6,0-219.2,0-328.7
		c-54.2,0-105.3,0-156.3,0C515.4,326.2,581.4,478.3,678,538.2z"/>
	<path class="st1" d="M1467.6,263.8c-6.4,40.9-16.1,69.6-16.1,69.6c-20.5,60.3-45.7,139.8-113.8,210.2c-26.5,27.4-57.3,51.5-93,72.2
		c-8.9,5.2-19,8.4-28.5,12.5c1.1-5,1.9-10,3.4-14.8c7.5-24.3,15.2-48.5,22.9-72.7c5.5-3.4,11.4-6.3,16.3-10.3
		c59.3-48.2,98.6-109.9,122.4-181.9c14.9-44.9,23-90.9,22.6-139.6c-53.6,0-105.4,0-157.2,0c0-21.3,0-42.6,0-63.8
		c47.2,0.1,94.4,0.2,141.6,0.3c11.8,0,32.9-2,51.6,10.8c18.5,12.7,25.1,32.8,27.7,40.6C1470.8,206.6,1474.1,221.9,1467.6,263.8z"/>
	<path class="st2" d="M962.3,98.4c-95,0-190-0.1-284.9-0.1c-15.2-1.7-26-9.3-30.2-24.1c-5.1-18.1,6.5-29.1,18.6-39.4
		c197.5,0,395,0,592.4,0c11.2,10.1,23.2,20.1,19,37.6c-3.8,16-15,24-30.8,26.1C1151.8,98.5,1057,98.4,962.3,98.4z"/>
	<path class="st3" d="M1009.5,918.9c25.7,0.2,51.3,0.2,77,0.6c29.8,0.5,48.8,19.7,49.3,49.7c0.3,17.8,0.8,35.6-0.3,53.3
		c-0.5,7.9-4.9,15.5-7.5,23.3c-55.3,0-110.6,0-165.9,0c0.1-42,0.2-84,0.3-126C978,919.6,993.8,919.3,1009.5,918.9z"/>
	<path class="st0" d="M962.3,919.9c-0.1,42-0.2,84-0.3,126c-55.3,0-110.6,0-165.9,0c-2.6-8.4-7-16.7-7.6-25.3
		c-1.2-17-0.7-34.1-0.3-51.2c0.7-30.1,19.4-49.1,49.3-49.8c25.6-0.6,51.2-0.3,76.8-0.5C930.4,919.4,946.3,919.7,962.3,919.9z"/>
	<path class="st4" d="M1246.5,98.5c0.1,15.5,0.1,31,0.2,46.5c0,21.3,0,42.6,0,63.8c-0.1,13.1-0.1,26.2-0.3,39.3
		c-1.3,97.5-2.6,195-3.9,292.6c-7.6,24.2-15.4,48.4-22.9,72.7c-1.5,4.8-2.3,9.9-3.4,14.8c0,0-0.4-0.4-0.5-0.4
		c-1.6,1.2-3.2,2.4-4.8,3.6c-37.8,61.6-88.7,107.4-158.2,130.4c-14.2,4.7-28.9,8-43.4,11.9c-15.7,1-31.4,2.1-47.1,3.1
		c-0.2-88-0.4-175.9-0.5-263.9l1-0.9c24.6,17.5,49.3,34.8,73.7,52.4c10.3,7.4,22.7,13.4,31.7,2.7c5.8-6.9,8.2-20.5,6-29.7
		c-5.4-23.5-13.3-46.7-22.1-69.2c-5.5-14.1-3.7-22.4,9.5-30.8c19.4-12.3,37.4-26.6,56-40.2c10.8-7.9,22.3-15.8,16.6-31.9
		c-5.3-14.6-17.9-15.2-30.9-15c-29.5,0.3-58.9,0.1-88.9,0.1c-9.7-29.8-19.2-58.4-28.4-87.1c-1.3-3.9-3.6-14-12.3-19.6
		c-4.4-2.8-8.9-3.6-12-3.9c0.2-47.1,0.5-94.3,0.7-141.4C1057,98.4,1151.8,98.5,1246.5,98.5z"/>
	<path class="st3" d="M961.8,513c-23.5,16.3-47.4,32-70.4,49c-11.5,8.4-22.6,14.5-35.8,5.8c-13.6-8.9-8.7-21.8-5.1-33.6
		c7.2-23.8,14.4-47.6,22.4-71.2c3.5-10.4,1.8-16.6-7.7-23c-20.1-13.4-39.4-28.1-58.7-42.8c-9.8-7.5-22-14.9-17.4-30
		c4.7-15.2,17.5-17.1,31.8-16.7c23.6,0.7,47.3-0.5,70.9,0.4c3.2,0.1,10.4,0.8,16.2-3.6c5.4-4,6.9-10.2,7.7-13.3
		c4.4-17.2,9.8-34.1,14.4-51.2c6.4-24,10.8-30,15.6-34.4c5.6-5,11.6-7.5,15.9-8.8h0c0,0.8,0,1.7,0,2.5
		C961.7,332.5,961.7,422.7,961.8,513z"/>
	<path class="st5" d="M962.3,776.9c15.7-1,31.4-2.1,47.1-3.1c0,48.4,0.1,96.8,0.1,145.2c-15.7,0.3-31.5,0.6-47.2,1
		c-16-0.3-32-0.5-47.9-0.8c0-48.5,0.1-97,0.1-145.5C930.4,774.7,946.4,775.8,962.3,776.9z"/>
</g>
</svg>
