<?xml version="1.0" encoding="UTF-8"?>
<svg width="50px" height="50px" viewBox="0 0 50 50" version="1.1" xmlns="http://www.w3.org/2000/svg" xmlns:xlink="http://www.w3.org/1999/xlink">
    <!-- Generator: Sketch 49.3 (51167) - http://www.bohemiancoding.com/sketch -->
    <title>kyc_icon</title>
    <desc>Created with Sketch.</desc>
    <defs></defs>
    <g id="Style-Guide" stroke="none" stroke-width="1" fill="none" fill-rule="evenodd">
        <g id="Branded-Icons" transform="translate(-166.000000, -178.000000)" fill-rule="nonzero">
            <g id="Line-2" transform="translate(30.000000, 160.000000)">
                <g id="KYC" transform="translate(110.000000, 0.000000)">
                    <g id="kyc_icon" transform="translate(26.000000, 18.000000)">
                        <circle id="Oval" fill="#84DBFF" cx="25" cy="25" r="25"></circle>
                        <path d="M11.4919875,14.1982437 L38.5080437,14.1982437 C38.9515974,14.1982437 39.3111688,14.5578151 39.3111688,15.0013687 L39.3111688,35.3712875 C39.3111688,35.8148412 38.9515974,36.1744125 38.5080437,36.1744125 L11.4919875,36.1744125 C11.0484166,36.1744125 10.6888312,35.8148272 10.6888312,35.3712563 L10.6888312,15.0014 C10.6888312,14.5578291 11.0484166,14.1982438 11.4919875,14.1982437 Z" id="Shape" fill="#FFFFFF"></path>
                        <rect id="Rectangle-path" fill="#E6E9EE" transform="translate(25.000000, 26.358166) rotate(90.000000) translate(-25.000000, -26.358166) " x="17.5275781" y="14.3906656" width="14.9448438" height="23.935"></rect>
                        <rect id="Rectangle-path" fill="#84DBFF" x="20.5784375" y="15.3730438" width="8.843125" height="1.60004375"></rect>
                        <rect id="Rectangle-path" fill="#324A5E" x="22.3805875" y="8.3568375" width="5.2388625" height="7.8323"></rect>
                        <path d="M26.188825,11.26 C26.1888301,11.7408453 25.8991788,12.1743458 25.4549364,12.3583591 C25.010694,12.5423724 24.4993476,12.4406596 24.1593396,12.1006498 C23.8193315,11.7606399 23.7176214,11.249293 23.901637,10.8050516 C24.0856526,10.3608102 24.5191547,10.0711612 25,10.0711688 C25.6565671,10.0711815 26.1888157,10.6034329 26.188825,11.26 Z" id="Shape" fill="#FFD05B"></path>
                        <rect id="Rectangle-path" fill="#ACB3BA" x="25" y="22.4477375" width="9.9568375" height="1.1607375"></rect>
                        <rect id="Rectangle-path" fill="#ACB3BA" x="25" y="25.777775" width="9.9568375" height="1.16074375"></rect>
                        <rect id="Rectangle-path" fill="#ACB3BA" x="29.4166375" y="29.10785" width="5.5402" height="1.16070625"></rect>
                        <path d="M22.4332524,30.1084184 C22.4372573,29.747449 22.4399272,29.3858418 22.4332524,29.0242347 C22.4332524,28.9285714 22.4332524,28.8329082 22.4379248,28.7366071 C22.4479369,28.3641582 22.2917476,28.1109694 21.9526699,27.9368622 C21.6703277,27.7914541 21.412682,27.5956633 21.1196602,27.4764031 C20.8099515,27.348852 20.4748786,27.221301 20.1451456,27.2098214 C19.9869539,27.2034439 19.8267597,27.1951531 19.6665655,27.1881378 C19.4663228,27.1715561 19.2607403,27.1664541 19.0551578,27.1683673 C18.8495752,27.1702806 18.6453277,27.1715561 18.44375,27.1881378 C18.2835558,27.1951531 18.1233617,27.2034439 17.9645024,27.2098214 C17.6354369,27.2232143 17.2970267,27.3501276 16.9899879,27.4764031 C16.6976335,27.5956633 16.4399879,27.7914541 16.1576456,27.9368622 C15.818568,28.1109694 15.6617112,28.3641582 15.6717233,28.7366071 C15.6717233,28.8322704 15.6757282,28.9279337 15.6763956,29.0242347 C15.6697209,29.3852041 15.6717233,29.7468112 15.6763956,30.1084184 C15.6763956,30.2034439 15.6763956,30.2997449 15.6763956,30.3941327 C15.6760777,30.4418291 15.6783055,30.4895101 15.6830704,30.5369898 C15.6897451,30.6868622 15.7404733,30.7857143 15.8472694,30.8431122 C15.9597624,30.8940799 16.0842454,30.9160651 16.2083738,30.9068878 C16.5614684,30.9068878 16.9138956,30.9068878 17.2669903,30.9068878 L20.8459951,30.9068878 C21.1984223,30.9068878 21.551517,30.9068878 21.9046117,30.9068878 C22.0287351,30.915976 22.1531944,30.893995 22.265716,30.8431122 C22.3725121,30.7857143 22.4232403,30.6868622 22.4292476,30.5369898 C22.4342586,30.4895227 22.4367093,30.4418405 22.4365898,30.3941327 C22.4372573,30.2997449 22.4365898,30.2034439 22.4332524,30.1084184 Z" id="Shape" fill="#324A5E"></path>
                        <path d="M18.9697209,21.6167092 C20.6043689,21.6364796 21.6903519,22.9559949 21.359284,24.4005102 C21.2351335,24.942602 21.0542476,25.466199 20.670449,25.8928571 C19.7186286,26.9515306 17.9531553,26.8214286 17.2142597,25.6128827 C16.6736044,24.7283163 16.4439927,23.7799745 16.9826456,22.8067602 C17.4205097,22.0089286 18.1540655,21.6575255 18.9697209,21.6167092 Z" id="Shape" fill="#324A5E"></path>
                    </g>
                </g>
            </g>
        </g>
    </g>
</svg>