<svg xmlns="http://www.w3.org/2000/svg" xmlns:xlink="http://www.w3.org/1999/xlink" viewBox="0 0 860.97 138.6"><defs><style>.cls-1{fill:#2f8cf2;}.cls-2{fill:url(#linear-gradient);}.cls-3{fill:#fff;}</style><linearGradient id="linear-gradient" x1="44.74" y1="104.03" x2="118.56" y2="16.06" gradientTransform="matrix(-1, -0.07, -0.07, 1, 141.99, 5.04)" gradientUnits="userSpaceOnUse"><stop offset="0" stop-color="#8a8a8a"/><stop offset="0.03" stop-color="#959595"/><stop offset="0.14" stop-color="#bbb"/><stop offset="0.25" stop-color="#d9d9d9"/><stop offset="0.35" stop-color="#eee"/><stop offset="0.46" stop-color="#fbfbfb"/><stop offset="0.56" stop-color="#fff"/></linearGradient></defs><title>Asset 1</title><g id="Layer_2" data-name="Layer 2"><g id="Layer_1-2" data-name="Layer 1"><path class="cls-1" d="M86.86,80.9c4.27,20.11-2,39.92-20.2,47.34a32.19,32.19,0,0,1-8.72,2.23c12.83,5.2,27.85,5.41,44.45-1.36a60.78,60.78,0,0,0,36.39-69.38Z"/><path class="cls-2" d="M51.06,8.58a19.4,19.4,0,0,1-34.33,14L0,29.4,27.83,97.66l.5,1.19C38.42,122.5,54.18,127,66.73,121.92c15.65-6.38,18.66-23.94,13-44.2l20.66-8.42-16.31-40-7.32,3a2.87,2.87,0,1,1-2.17-5.32l7.32-3L72.11,0ZM25.22,53.28l-7.32,3a2.87,2.87,0,1,1-2.17-5.32L23,48a2.87,2.87,0,0,1,2.17,5.32Zm20-8.14-7.32,3a2.87,2.87,0,1,1-2.17-5.32l7.32-3a2.87,2.87,0,1,1,2.17,5.32Zm20-8.14-7.32,3a2.87,2.87,0,0,1-2.17-5.32l7.32-3A2.87,2.87,0,0,1,65.13,37Z"/><path class="cls-3" d="M168.36,9.87h16.72A12.22,12.22,0,0,1,197.3,22.08V88.93h38.26a12.3,12.3,0,0,1,12.3,12.3v13.06H169a.63.63,0,0,1-.63-.63Z"/><path class="cls-3" d="M253.84,74.31V74c0-23,18.79-42.22,44.75-42.22S343,50.74,343,73.71V74c0,23-18.79,42.21-44.75,42.21S253.84,97.28,253.84,74.31Zm61.61,0V74c0-9.85-7.16-18.2-17.15-18.2-10.29,0-16.86,8.2-16.86,17.9V74c0,9.84,7.16,18.2,17.15,18.2C308.88,92.21,315.44,84,315.44,74.31Z"/><path class="cls-3" d="M359.15,89.23V56.41h-3.56a6,6,0,0,1-6-6V34.58a1,1,0,0,1,1-1h8.55V14.44a1.29,1.29,0,0,1,1.29-1.29H386a1.46,1.46,0,0,1,1.46,1.46v19H405a1.33,1.33,0,0,1,1.33,1.33V55.06a1.35,1.35,0,0,1-1.35,1.35H387.49v27.3c0,5.67,2.54,8.06,7.76,8.06a21.88,21.88,0,0,0,5.9-.84A3.85,3.85,0,0,1,406,94.66v15.46a1.94,1.94,0,0,1-1,1.74,41.2,41.2,0,0,1-18.65,4.07C369.3,115.93,359.15,108.47,359.15,89.23Z"/><path class="cls-3" d="M423.45,89.23V56.41h-3.33a6.21,6.21,0,0,1-6.21-6.21V35a1.45,1.45,0,0,1,1.45-1.45h8.09V14.44a1.29,1.29,0,0,1,1.29-1.29h25.81a1.24,1.24,0,0,1,1.24,1.24v19.2h17.13a1.67,1.67,0,0,1,1.67,1.67V54.86A1.55,1.55,0,0,1,469,56.41H451.79v27.3c0,5.67,2.54,8.06,7.76,8.06a22,22,0,0,0,6.08-.89,3.7,3.7,0,0,1,4.66,3.6v15.21a2.68,2.68,0,0,1-1.51,2.41,41.53,41.53,0,0,1-18.18,3.84C433.59,115.93,423.45,108.47,423.45,89.23Z"/><path class="cls-3" d="M477.3,74.31V74c0-23,18.79-42.22,44.75-42.22S566.5,50.74,566.5,73.71V74c0,23-18.79,42.21-44.75,42.21S477.3,97.28,477.3,74.31Zm61.61,0V74c0-9.85-7.16-18.2-17.15-18.2-10.29,0-16.86,8.2-16.86,17.9V74c0,9.84,7.16,18.2,17.15,18.2C532.34,92.21,538.9,84,538.9,74.31Z"/><path class="cls-3" d="M580.08,11.47a1.6,1.6,0,0,1,1.6-1.6h38.68c37.29,0,58.92,21.48,58.92,51.61v.3c0,30.13-21.93,52.51-59.52,52.51H590.1a10,10,0,0,1-10-10ZM620.8,88.63c17.3,0,28.79-9.55,28.79-26.4v-.3c0-16.71-11.49-26.4-28.79-26.4H609v53.1Z"/><path class="cls-3" d="M687.78,91.17v-.3c0-16.71,12.68-25.36,31.62-25.36a61.91,61.91,0,0,1,19.39,3.13V67.3c0-8.35-5.22-13.13-16.11-13.13a54.28,54.28,0,0,0-15.52,2.15,7.06,7.06,0,0,1-8.78-4.77l-3.33-11.43a1.67,1.67,0,0,1,1-2,81,81,0,0,1,31.26-5.7c14.47,0,24.31,3.43,30.73,9.85,6.12,6,8.65,14.32,8.65,25.66v44.68a1.71,1.71,0,0,1-1.71,1.71H745.92a7.28,7.28,0,0,1-7.28-7.28v-1.08c-5.52,6.12-13.13,10.14-23.72,10.14C699.56,116.08,687.78,107.28,687.78,91.17ZM739.09,85V81.32a29.69,29.69,0,0,0-11-2.09c-8.21,0-13,4-13,10v.3c0,5.52,4.18,8.8,10,8.8C733.28,98.33,739.09,93.11,739.09,85Z"/><path class="cls-3" d="M776,130l4.54-10.23a8.69,8.69,0,0,1,10.67-4.73,17.55,17.55,0,0,0,5.28,1,7.07,7.07,0,0,0,6.56-3.28l-31-77.63a1.15,1.15,0,0,1,1.07-1.58h18.61a13,13,0,0,1,12.33,8.9l13.16,39.73L829.62,42.7A13,13,0,0,1,842,33.59h17.6a1.34,1.34,0,0,1,1.26,1.81l-28.86,77c-7,18.8-14.62,26.25-30.73,26.25a51.68,51.68,0,0,1-24.44-6.19A1.86,1.86,0,0,1,776,130Z"/></g></g></svg>