<svg xmlns="http://www.w3.org/2000/svg" viewBox="0 0 100 22" width="100" height="22">
	<style>
		tspan { white-space:pre }
		.shp0 { fill: #ffffff } 
	</style>
	<g id="Layer">
		<path id="Layer" class="shp0" d="M0.53,13.65v-12.03h2.71v11.62c0,0.59 0.09,0.98 0.27,1.2c0.18,0.21 0.46,0.33 0.85,0.33l0.41,-0.02v2.42c-0.28,0.05 -0.56,0.07 -0.86,0.07c-0.44,0 -0.84,-0.04 -1.18,-0.12c-0.35,-0.08 -0.7,-0.23 -1.06,-0.46c-0.36,-0.22 -0.64,-0.6 -0.84,-1.1c-0.2,-0.51 -0.3,-1.15 -0.3,-1.91z" />
		<path id="Layer" class="shp0" d="M7.32,15.74c-1.17,-1.1 -1.74,-2.5 -1.74,-4.19c0,-1.69 0.58,-3.09 1.74,-4.19c1.17,-1.1 2.59,-1.65 4.28,-1.65c1.69,0 3.12,0.55 4.3,1.65c1.17,1.1 1.75,2.5 1.75,4.19c0,1.69 -0.58,3.09 -1.74,4.19c-1.17,1.1 -2.59,1.65 -4.28,1.65c-1.72,0 -3.15,-0.55 -4.31,-1.65zM8.35,11.56c0,1.02 0.31,1.86 0.95,2.5c0.63,0.65 1.4,0.97 2.32,0.97c0.9,0 1.67,-0.33 2.3,-0.97c0.63,-0.64 0.95,-1.48 0.95,-2.5c0,-1.01 -0.31,-1.84 -0.95,-2.49c-0.63,-0.65 -1.4,-0.98 -2.3,-0.98c-0.9,0 -1.67,0.33 -2.31,0.98c-0.63,0.65 -0.96,1.48 -0.96,2.49z" />
		<path id="Layer" class="shp0" d="M19.08,13.04v-4.68h-1.42v-2.21h1.49v-3.21h2.67v3.21h2.5v2.21h-2.5v4.33c0,0.8 0.23,1.35 0.68,1.65c0.45,0.3 0.95,0.45 1.5,0.45l0.5,-0.05v2.42c-0.21,0.05 -0.5,0.07 -0.84,0.07c-0.38,0 -0.73,-0.03 -1.07,-0.07c-0.34,-0.05 -0.73,-0.17 -1.18,-0.34c-0.44,-0.18 -0.83,-0.4 -1.15,-0.69c-0.32,-0.29 -0.6,-0.69 -0.82,-1.22c-0.24,-0.53 -0.35,-1.16 -0.35,-1.86z" />
		<path id="Layer" class="shp0" d="M26.34,13.04v-4.68h-1.42v-2.21h1.49v-3.21h2.67v3.21h2.5v2.21h-2.5v4.33c0,0.8 0.23,1.35 0.68,1.65c0.45,0.3 0.95,0.45 1.5,0.45l0.5,-0.05v2.42c-0.21,0.05 -0.5,0.07 -0.84,0.07c-0.38,0 -0.73,-0.03 -1.07,-0.07c-0.34,-0.05 -0.73,-0.17 -1.18,-0.34c-0.44,-0.18 -0.83,-0.4 -1.15,-0.69c-0.32,-0.29 -0.6,-0.69 -0.82,-1.22c-0.24,-0.53 -0.35,-1.16 -0.35,-1.86z" />
		<path id="Layer" class="shp0" d="M34.04,15.74c-1.17,-1.1 -1.74,-2.5 -1.74,-4.19c0,-1.69 0.58,-3.09 1.74,-4.19c1.17,-1.1 2.59,-1.65 4.28,-1.65c1.69,0 3.12,0.55 4.3,1.65c1.17,1.1 1.75,2.5 1.75,4.19c0,1.69 -0.58,3.09 -1.74,4.19c-1.17,1.1 -2.59,1.65 -4.28,1.65c-1.71,0 -3.14,-0.55 -4.31,-1.65zM35.08,11.56c0,1.02 0.31,1.86 0.95,2.5c0.63,0.65 1.4,0.97 2.32,0.97c0.9,0 1.67,-0.33 2.3,-0.97c0.63,-0.64 0.95,-1.48 0.95,-2.5c0,-1.01 -0.31,-1.84 -0.95,-2.49c-0.63,-0.65 -1.4,-0.98 -2.3,-0.98c-0.9,0 -1.67,0.33 -2.31,0.98c-0.64,0.65 -0.96,1.48 -0.96,2.49z" />
		<path id="Layer" class="shp0" d="M44.95,11.56c0,-1.74 0.46,-3.16 1.39,-4.22c0.93,-1.07 2.12,-1.6 3.58,-1.6c0.44,0 0.86,0.05 1.25,0.14c0.39,0.09 0.69,0.21 0.92,0.35c0.22,0.14 0.41,0.28 0.57,0.43c0.16,0.15 0.27,0.26 0.32,0.34l0.11,0.15h0.05c-0.02,-0.19 -0.02,-0.4 -0.02,-0.63v-4.89h2.74v15.51h-2.59v-0.91l0.05,-0.72h-0.05c-0.03,0.06 -0.06,0.13 -0.12,0.21c-0.05,0.08 -0.17,0.23 -0.37,0.45c-0.19,0.21 -0.41,0.41 -0.65,0.58c-0.25,0.17 -0.57,0.32 -0.98,0.46c-0.41,0.14 -0.85,0.21 -1.32,0.21c-1.48,0 -2.65,-0.54 -3.54,-1.61c-0.88,-1.09 -1.32,-2.5 -1.32,-4.22zM47.7,11.56c0,1.04 0.25,1.89 0.75,2.54c0.51,0.64 1.17,0.96 1.98,0.96c0.77,0 1.42,-0.3 1.96,-0.89c0.53,-0.59 0.8,-1.46 0.8,-2.63c0,-0.93 -0.24,-1.73 -0.73,-2.41c-0.48,-0.68 -1.15,-1.02 -2.01,-1.02c-0.79,0 -1.44,0.31 -1.97,0.93c-0.52,0.61 -0.79,1.44 -0.79,2.52z" />
		<path id="Layer" class="shp0" d="M56.7,13.92c0,-0.57 0.11,-1.07 0.35,-1.51c0.23,-0.44 0.55,-0.78 0.96,-1.04c0.41,-0.26 0.84,-0.48 1.27,-0.65c0.44,-0.18 0.93,-0.3 1.46,-0.38c0.54,-0.08 0.98,-0.13 1.34,-0.15c0.36,-0.02 0.73,-0.04 1.12,-0.04h0.37v-0.15c0,-1.31 -0.71,-1.97 -2.11,-1.97c-0.46,0 -0.94,0.09 -1.44,0.27c-0.51,0.19 -0.89,0.36 -1.17,0.53l-0.41,0.26l-1.03,-1.99c0.13,-0.1 0.31,-0.23 0.55,-0.38c0.24,-0.15 0.73,-0.35 1.48,-0.62c0.74,-0.25 1.51,-0.38 2.28,-0.38c1.45,0 2.57,0.38 3.37,1.16c0.8,0.77 1.19,1.86 1.19,3.28v6.97h-2.52v-0.91l0.05,-0.78h-0.05c0.02,0 -0.02,0.07 -0.08,0.21c-0.07,0.14 -0.19,0.3 -0.37,0.49c-0.17,0.19 -0.38,0.38 -0.62,0.57c-0.25,0.19 -0.57,0.35 -0.96,0.49c-0.4,0.14 -0.84,0.21 -1.29,0.21c-1.03,0 -1.91,-0.32 -2.64,-0.94c-0.73,-0.64 -1.08,-1.48 -1.08,-2.54zM59.46,13.79c0,0.39 0.15,0.74 0.43,1.02c0.28,0.28 0.7,0.43 1.23,0.43c0.69,0 1.28,-0.31 1.75,-0.93c0.48,-0.62 0.73,-1.29 0.73,-1.99v-0.26h-0.48c-2.45,-0.01 -3.66,0.58 -3.66,1.74z" />
		<path id="Layer" class="shp0" d="M66.4,20.99l0.9,-2.08c0.4,0.31 0.81,0.46 1.23,0.46c0.86,0 1.49,-0.48 1.89,-1.44l0.41,-0.98l-4.63,-10.96h3.08l2.3,6.42l0.41,1.51h0.05c0.11,-0.58 0.24,-1.07 0.37,-1.46l2.15,-6.47h2.99l-4.9,12.83c-0.38,0.98 -0.91,1.71 -1.61,2.18c-0.7,0.48 -1.48,0.72 -2.36,0.72c-0.39,0 -0.77,-0.06 -1.15,-0.18c-0.38,-0.12 -0.66,-0.23 -0.85,-0.35z" />
	</g>
	<g id="Layer">
		<path id="Layer" class="shp0" d="M92.39,4.88c-1.92,1.93 -6.48,1.51 -7.34,0.1c-0.64,-1.05 3.03,-2.07 1.57,-2.01c-1.03,0.04 -6.08,-0.49 -2.16,-1.56c2.1,-0.57 5.27,-1.22 7.28,0.01c1.43,0.87 1.63,2.46 0.64,3.46z" />
		<path id="Layer" class="shp0" d="M95.69,4.33c3.28,-2.95 4.19,-2.88 1.85,3.84c-0.83,2.4 -0.7,3.29 0.54,5.55c3.13,5.66 1.4,4.61 -3.77,3.06c-1.99,-0.6 -2.47,-0.22 -3.89,1.31c-4.41,4.76 -5.53,3.51 -4.1,-1.49c0.84,-2.96 -0.4,-3.52 -2.97,-5.14c-3.62,-2.27 -2.81,-3.6 1.07,-3.37c6.28,0.38 8.71,-1.47 11.27,-3.76z" />
		<path id="Layer" class="shp0" d="M94.43,6.42c-3.21,2.26 -6.62,2.52 -10.56,2.57c-5.38,0.07 5.72,2.88 10.56,-2.57z" />
		<path id="Layer" class="shp0" d="M92.25,2.69c-1.48,-1.03 -3.05,-1.16 -4.85,-1.18c-2.48,-0.04 2.63,-1.33 4.85,1.18z" />
	</g>
</svg>