<svg xmlns="http://www.w3.org/2000/svg" viewBox="0 0 180 40" width="180" height="40">
	<defs>
		<linearGradient id="grd1" gradientUnits="userSpaceOnUse"  x1="168.447" y1="2.935" x2="150.677" y2="8.708">
			<stop offset="0" stop-color="#dc2430"  />
			<stop offset="0.18" stop-color="#d82535"  />
			<stop offset="0.385" stop-color="#cb2a42"  />
			<stop offset="0.602" stop-color="#b53059"  />
			<stop offset="0.826" stop-color="#973a79"  />
			<stop offset="1" stop-color="#7b4397"  />
		</linearGradient>
		<linearGradient id="grd2" gradientUnits="userSpaceOnUse"  x1="193.074" y1="5.134" x2="153.165" y2="29.114">
			<stop offset="0" stop-color="#dc2430"  />
			<stop offset="0.192" stop-color="#d82534"  />
			<stop offset="0.39" stop-color="#cc2941"  />
			<stop offset="0.592" stop-color="#b92f55"  />
			<stop offset="0.795" stop-color="#9e3872"  />
			<stop offset="0.999" stop-color="#7b4397"  />
		</linearGradient>
	</defs>
	<style>
		tspan { white-space:pre }
		.shp0 { fill: #18005f } 
		.shp1 { fill: url(#grd1) } 
		.shp2 { fill: url(#grd2) } 
		.shp3 { fill: #ff69ab } 
	</style>
	<g id="Layer">
		<path id="Layer" class="shp0" d="M0.55,24.43v-21.48h4.88v20.74c0,1.05 0.16,1.75 0.48,2.15c0.33,0.39 0.83,0.58 1.54,0.58l0.75,-0.03v4.33c-0.5,0.08 -1.01,0.11 -1.56,0.11c-0.79,0 -1.51,-0.07 -2.13,-0.21c-0.63,-0.15 -1.25,-0.42 -1.9,-0.81c-0.65,-0.4 -1.15,-1.07 -1.51,-1.96c-0.35,-0.92 -0.54,-2.05 -0.54,-3.41z" />
		<path id="Layer" class="shp0" d="M12.77,28.15c-2.1,-1.96 -3.15,-4.46 -3.15,-7.47c0,-3.01 1.04,-5.51 3.15,-7.47c2.1,-1.96 4.66,-2.94 7.71,-2.94c3.05,0 5.63,0.98 7.74,2.94c2.1,1.96 3.16,4.46 3.16,7.47c0,3.01 -1.04,5.51 -3.15,7.47c-2.1,1.96 -4.66,2.94 -7.71,2.94c-3.09,0 -5.67,-0.98 -7.75,-2.94zM14.63,20.69c0,1.81 0.57,3.31 1.7,4.46c1.14,1.16 2.53,1.73 4.19,1.73c1.62,0 3.01,-0.58 4.15,-1.73c1.14,-1.15 1.7,-2.65 1.7,-4.46c0,-1.8 -0.57,-3.28 -1.7,-4.44c-1.14,-1.16 -2.51,-1.75 -4.15,-1.75c-1.62,0 -3.01,0.58 -4.17,1.75c-1.14,1.16 -1.72,2.65 -1.72,4.44z" />
		<path id="Layer" class="shp0" d="M33.96,23.34v-8.36h-2.56v-3.94h2.68v-5.72h4.82v5.72h4.5v3.94h-4.5v7.72c0,1.44 0.41,2.41 1.22,2.94c0.81,0.53 1.7,0.79 2.69,0.79l0.89,-0.08v4.33c-0.38,0.08 -0.89,0.11 -1.51,0.11c-0.68,0 -1.33,-0.05 -1.93,-0.13c-0.61,-0.08 -1.33,-0.3 -2.13,-0.6c-0.79,-0.32 -1.49,-0.71 -2.06,-1.23c-0.58,-0.52 -1.07,-1.23 -1.47,-2.18c-0.44,-0.93 -0.64,-2.04 -0.64,-3.31z" />
		<path id="Layer" class="shp0" d="M47.03,23.34v-8.36h-2.56v-3.94h2.68v-5.72h4.82v5.72h4.5v3.94h-4.5v7.72c0,1.44 0.41,2.41 1.22,2.94c0.81,0.53 1.7,0.79 2.69,0.79l0.89,-0.08v4.33c-0.38,0.08 -0.89,0.11 -1.51,0.11c-0.68,0 -1.33,-0.05 -1.93,-0.13c-0.61,-0.08 -1.33,-0.3 -2.13,-0.6c-0.79,-0.32 -1.49,-0.71 -2.06,-1.23c-0.58,-0.52 -1.07,-1.23 -1.47,-2.18c-0.45,-0.93 -0.64,-2.04 -0.64,-3.31z" />
		<path id="Layer" class="shp0" d="M60.9,28.15c-2.1,-1.96 -3.15,-4.46 -3.15,-7.47c0,-3.01 1.04,-5.51 3.15,-7.47c2.1,-1.96 4.66,-2.94 7.71,-2.94c3.05,0 5.63,0.98 7.74,2.94c2.1,1.96 3.16,4.46 3.16,7.47c0,3.01 -1.04,5.51 -3.15,7.47c-2.1,1.96 -4.66,2.94 -7.71,2.94c-3.07,0 -5.65,-0.98 -7.75,-2.94zM62.77,20.69c0,1.81 0.57,3.31 1.7,4.46c1.14,1.16 2.53,1.73 4.19,1.73c1.62,0 3.01,-0.58 4.15,-1.73c1.14,-1.15 1.7,-2.65 1.7,-4.46c0,-1.8 -0.57,-3.28 -1.7,-4.44c-1.14,-1.16 -2.51,-1.75 -4.15,-1.75c-1.62,0 -3.01,0.58 -4.17,1.75c-1.16,1.16 -1.72,2.65 -1.72,4.44z" />
		<path id="Layer" class="shp0" d="M80.55,20.69c0,-3.11 0.83,-5.64 2.5,-7.53c1.67,-1.91 3.82,-2.86 6.45,-2.86c0.79,0 1.56,0.08 2.25,0.25c0.7,0.16 1.24,0.39 1.65,0.63c0.39,0.25 0.75,0.5 1.02,0.76c0.27,0.26 0.48,0.47 0.58,0.61l0.2,0.26h0.08c-0.03,-0.34 -0.03,-0.71 -0.03,-1.13v-8.73h4.93v27.68h-4.65v-1.63l0.08,-1.28h-0.08c-0.05,0.1 -0.11,0.23 -0.21,0.37c-0.08,0.15 -0.31,0.42 -0.66,0.79c-0.34,0.39 -0.75,0.73 -1.17,1.03c-0.45,0.3 -1.02,0.57 -1.77,0.81c-0.75,0.25 -1.54,0.37 -2.38,0.37c-2.66,0 -4.78,-0.97 -6.38,-2.88c-1.6,-1.93 -2.39,-4.45 -2.39,-7.53zM85.51,20.69c0,1.86 0.45,3.38 1.36,4.53c0.91,1.15 2.1,1.71 3.57,1.71c1.39,0 2.56,-0.53 3.52,-1.58c0.96,-1.05 1.44,-2.62 1.44,-4.69c0,-1.66 -0.42,-3.09 -1.31,-4.31c-0.86,-1.21 -2.06,-1.81 -3.62,-1.81c-1.43,0 -2.6,0.55 -3.54,1.66c-0.93,1.08 -1.42,2.58 -1.42,4.49z" />
		<path id="Layer" class="shp0" d="M101.72,24.91c0,-1.02 0.2,-1.91 0.63,-2.7c0.41,-0.78 0.99,-1.39 1.72,-1.86c0.75,-0.47 1.51,-0.87 2.29,-1.16c0.79,-0.32 1.67,-0.53 2.63,-0.68c0.97,-0.15 1.77,-0.23 2.42,-0.26c0.65,-0.03 1.33,-0.07 2.01,-0.07h0.66v-0.26c0,-2.34 -1.27,-3.51 -3.8,-3.51c-0.83,0 -1.69,0.16 -2.6,0.48c-0.91,0.34 -1.61,0.65 -2.1,0.95l-0.75,0.47l-1.85,-3.54c0.23,-0.18 0.57,-0.42 0.99,-0.68c0.42,-0.26 1.31,-0.63 2.66,-1.1c1.34,-0.45 2.71,-0.68 4.1,-0.68c2.61,0 4.63,0.68 6.07,2.07c1.44,1.38 2.15,3.33 2.15,5.85v12.45h-4.53v-1.63l0.08,-1.39h-0.08c0.03,0 -0.03,0.11 -0.15,0.37c-0.13,0.25 -0.34,0.53 -0.66,0.89c-0.31,0.34 -0.68,0.68 -1.12,1.02c-0.45,0.34 -1.02,0.63 -1.74,0.89c-0.73,0.25 -1.51,0.37 -2.33,0.37c-1.85,0 -3.44,-0.57 -4.75,-1.68c-1.28,-1.17 -1.93,-2.67 -1.93,-4.56zM106.67,24.67c0,0.7 0.26,1.31 0.78,1.81c0.52,0.5 1.25,0.76 2.22,0.76c1.24,0 2.3,-0.55 3.16,-1.66c0.86,-1.1 1.31,-2.3 1.31,-3.56v-0.47h-0.86c-4.41,-0.01 -6.6,1.04 -6.6,3.11z" />
		<path id="Layer" class="shp0" d="M119.18,37.54l1.62,-3.72c0.73,0.55 1.46,0.81 2.22,0.81c1.56,0 2.68,-0.87 3.41,-2.58l0.75,-1.75l-8.34,-19.56h5.54l4.15,11.46l0.75,2.7h0.08c0.2,-1.03 0.42,-1.91 0.66,-2.62l3.87,-11.54h5.39l-8.83,22.89c-0.68,1.75 -1.64,3.04 -2.89,3.89c-1.25,0.87 -2.66,1.28 -4.25,1.28c-0.7,0 -1.39,-0.1 -2.06,-0.32c-0.68,-0.21 -1.19,-0.42 -1.54,-0.63z" />
	</g>
	<g id="Layer">
		<path id="Layer" class="shp1" d="M165.99,8.78c-3.46,3.44 -11.68,2.7 -13.21,0.18c-1.15,-1.88 5.45,-3.69 2.83,-3.59c-1.85,0.07 -10.95,-0.89 -3.89,-2.78c3.78,-1.02 9.49,-2.18 13.11,0.02c2.58,1.55 2.94,4.39 1.15,6.17z" />
		<path id="Layer" class="shp2" d="M171.94,7.79c5.91,-5.26 7.54,-5.14 3.34,6.85c-1.49,4.27 -1.25,5.87 0.97,9.9c5.64,10.1 2.53,8.23 -6.8,5.46c-3.59,-1.07 -4.45,-0.4 -7.01,2.33c-7.94,8.5 -9.96,6.26 -7.4,-2.67c1.52,-5.29 -0.73,-6.29 -5.34,-9.17c-6.52,-4.06 -5.06,-6.42 1.93,-6.01c11.33,0.69 15.71,-2.63 20.31,-6.7z" />
		<path id="Layer" class="shp3" d="M169.66,11.53c-5.79,4.03 -11.93,4.49 -19.02,4.59c-9.69,0.11 10.31,5.14 19.02,-4.59z" />
		<path id="Layer" class="shp3" d="M165.74,4.88c-2.66,-1.84 -5.49,-2.07 -8.73,-2.12c-4.47,-0.06 4.73,-2.37 8.73,2.12z" />
	</g>
</svg>