<?xml version="1.0" encoding="UTF-8" standalone="no"?>
<!-- Created with Inkscape (http://www.inkscape.org/) -->

<svg
   xmlns:dc="http://purl.org/dc/elements/1.1/"
   xmlns:cc="http://creativecommons.org/ns#"
   xmlns:rdf="http://www.w3.org/1999/02/22-rdf-syntax-ns#"
   xmlns:svg="http://www.w3.org/2000/svg"
   xmlns="http://www.w3.org/2000/svg"
   xmlns:sodipodi="http://sodipodi.sourceforge.net/DTD/sodipodi-0.dtd"
   xmlns:inkscape="http://www.inkscape.org/namespaces/inkscape"
   width="438.67917mm"
   height="225.33591mm"
   viewBox="0 0 438.67917 225.33591"
   version="1.1"
   id="svg8"
   inkscape:version="0.92.2 (5c3e80d, 2017-08-06)">
  <defs
     id="defs2" />
  <sodipodi:namedview
     id="base"
     pagecolor="#ffffff"
     bordercolor="#666666"
     borderopacity="1.0"
     inkscape:pageopacity="0.0"
     inkscape:pageshadow="2"
     inkscape:zoom="0.35"
     inkscape:cx="510.42857"
     inkscape:cy="431.54591"
     inkscape:document-units="mm"
     inkscape:current-layer="layer1"
     showgrid="false"
     inkscape:window-width="1920"
     inkscape:window-height="1027"
     inkscape:window-x="-8"
     inkscape:window-y="-8"
     inkscape:window-maximized="1" />
  <metadata
     id="metadata5">
    <rdf:RDF>
      <cc:Work
         rdf:about="">
        <dc:format>image/svg+xml</dc:format>
        <dc:type
           rdf:resource="http://purl.org/dc/dcmitype/StillImage" />
        <dc:title></dc:title>
      </cc:Work>
    </rdf:RDF>
  </metadata>
  <g
     inkscape:label="Layer 1"
     inkscape:groupmode="layer"
     id="layer1"
     transform="translate(119.55387,-37.677287)">
    <g
       id="g4553"
       transform="matrix(0.26458333,0,0,0.26458333,-152.54741,4.8592299)">
      <rect
         id="rect4506"
         height="167.5"
         width="1657.9"
         class="st0"
         y="808.20001"
         x="124.7"
         style="fill:#00a99d" />
      <g
         id="g4524">
        <path
           id="path4508"
           d="m 1101.3,848.8 h 12.9 v 82.3 h 41.1 v 11.7 h -54 z"
           class="st1"
           inkscape:connector-curvature="0"
           style="fill:#ffffff" />
        <path
           id="path4510"
           d="m 1170.3,848.8 h 12.9 v 94 h -12.9 z"
           class="st1"
           inkscape:connector-curvature="0"
           style="fill:#ffffff" />
        <path
           id="path4512"
           d="m 1264.2,862.6 c -4.7,-2.1 -9.6,-3.2 -14.6,-3.2 -6.6,0 -12.7,1.6 -18.3,4.8 -5.5,3.2 -9.9,7.6 -13.2,13.1 -3.2,5.5 -4.8,11.6 -4.8,18.2 0,6.5 1.6,12.6 4.8,18.1 3.2,5.5 7.6,9.9 13.2,13.2 5.5,3.2 11.6,4.8 18.3,4.8 4.9,0 9.8,-1 14.5,-3 4.7,-2 8.9,-4.8 12.6,-8.3 l 7.8,8.5 c -4.7,4.7 -10.2,8.3 -16.5,10.9 -6.3,2.6 -12.6,4 -19.1,4 -8.9,0 -17.1,-2.1 -24.6,-6.4 -7.4,-4.2 -13.3,-10 -17.6,-17.4 -4.3,-7.3 -6.4,-15.4 -6.4,-24.3 0,-8.8 2.2,-16.8 6.5,-24.1 4.3,-7.3 10.3,-13 17.8,-17.2 7.5,-4.2 15.8,-6.3 24.8,-6.3 6.5,0 12.9,1.2 19,3.7 6.1,2.5 11.4,5.9 15.9,10.4 l -7.7,9.3 c -3.5,-3.8 -7.6,-6.7 -12.4,-8.8 z"
           class="st1"
           inkscape:connector-curvature="0"
           style="fill:#ffffff" />
        <path
           id="path4514"
           d="m 1301.1,848.8 h 65.2 v 11.7 H 1314 v 29 h 46.8 v 11.7 H 1314 v 29.9 h 54 v 11.7 h -66.8 v -94 z"
           class="st1"
           inkscape:connector-curvature="0"
           style="fill:#ffffff" />
        <path
           id="path4516"
           d="m 1454.3,848.8 h 12.8 v 94 h -13 L 1400.4,870 v 72.8 h -12.9 v -94 h 13 l 53.8,72.9 z"
           class="st1"
           inkscape:connector-curvature="0"
           style="fill:#ffffff" />
        <path
           id="path4518"
           d="m 1533.9,862.2 c -4.7,-1.4 -9,-2.1 -13,-2.1 -5.5,0 -9.8,1.1 -13.1,3.2 -3.3,2.1 -4.9,5 -4.9,8.7 0,3.3 1,6 3,8.1 2,2.1 4.4,3.8 7.2,5 2.9,1.2 6.8,2.6 11.9,4.2 6.4,2 11.5,3.8 15.4,5.6 3.9,1.8 7.3,4.5 10.1,8 2.8,3.5 4.2,8.2 4.2,14 0,5.4 -1.5,10.1 -4.4,14.1 -2.9,4 -7,7.1 -12.2,9.3 -5.2,2.2 -11.3,3.3 -18.1,3.3 -6.9,0 -13.6,-1.3 -20.1,-4 -6.5,-2.7 -12.2,-6.3 -16.9,-10.7 l 5.8,-11.1 c 4.5,4.4 9.5,7.8 15.1,10.1 5.6,2.4 11,3.6 16.3,3.6 6.3,0 11.2,-1.2 14.8,-3.7 3.6,-2.5 5.4,-5.8 5.4,-10 0,-3.3 -1,-6 -3,-8.2 -2,-2.1 -4.5,-3.8 -7.4,-5.1 -3,-1.3 -7,-2.6 -12.1,-4.2 -6.3,-1.9 -11.4,-3.7 -15.3,-5.5 -3.9,-1.8 -7.3,-4.4 -10,-7.9 -2.7,-3.5 -4.1,-8.1 -4.1,-13.8 0,-5 1.4,-9.4 4.2,-13.3 2.8,-3.8 6.7,-6.8 11.7,-8.9 5,-2.1 10.8,-3.1 17.4,-3.1 5.6,0 11.2,0.8 16.6,2.5 5.4,1.7 10.2,3.9 14.4,6.6 l -5.4,11.5 c -4.2,-2.7 -8.8,-4.8 -13.5,-6.2 z"
           class="st1"
           inkscape:connector-curvature="0"
           style="fill:#ffffff" />
        <path
           id="path4520"
           d="m 1574,848.8 h 65.2 v 11.7 h -52.3 v 29 h 46.8 v 11.7 h -46.8 v 29.9 h 54 v 11.7 H 1574 Z"
           class="st1"
           inkscape:connector-curvature="0"
           style="fill:#ffffff" />
        <path
           id="path4522"
           d="m 1723.3,854.9 c 7.4,4.1 13.2,9.7 17.4,16.8 4.2,7.2 6.3,15.2 6.3,24 0,8.9 -2.1,16.9 -6.4,24 -4.3,7.2 -10.1,12.8 -17.5,16.8 -7.4,4.1 -15.8,6.1 -25,6.1 h -37.9 v -94 h 38.3 c 9.2,0.2 17.4,2.3 24.8,6.3 z m -6.7,71.7 c 5.3,-3 9.5,-7.2 12.6,-12.6 3.1,-5.4 4.6,-11.4 4.6,-18 0,-6.7 -1.6,-12.8 -4.7,-18.1 -3.1,-5.4 -7.4,-9.6 -12.8,-12.7 -5.4,-3.1 -11.4,-4.6 -18.1,-4.6 h -25.1 v 70.6 h 25.6 c 6.7,-0.1 12.6,-1.6 17.9,-4.6 z"
           class="st1"
           inkscape:connector-curvature="0"
           style="fill:#ffffff" />
      </g>
      <path
         id="path4526"
         d="M 1367.7,501.3"
         class="st2"
         inkscape:connector-curvature="0"
         style="fill:#7c7c7f" />
      <path
         id="path4528"
         d="M 449.8,231.9 V 432.3 L 342.1,142.5 c -12.3,-33 17,-11.7 17,-11.7 l 61.5,44.7 c 17.6,13.7 28.3,34.2 29.2,56.3 M 342.1,722 449.8,432.2 144.2,534.2 c -34.8,11.6 -12.4,-16.1 -12.4,-16.1 l 47.3,-57.7 c 15,-16.9 36.5,-27 59.3,-27.7 -22.8,-0.8 -44.3,-10.8 -59.3,-27.7 L 132,346.2 c 0,0 -22.4,-27.7 12.4,-16.1 L 449.9,432 v 200.6 c -0.9,22 -11.6,42.6 -29.2,56.3 l -61.6,44.7 c 0,0 -29.2,21.3 -16.9,-11.6"
         class="st3"
         inkscape:connector-curvature="0"
         style="fill:#d1010e" />
      <path
         id="path4530"
         d="m 1668.3,451.3 v 61.9 c -15.1,8.2 -32.2,12.3 -49.4,11.9 -25.9,0 -42.3,-11.2 -42.3,-34.4 -1,-11.6 4.8,-22.8 15.1,-28.8 12.4,-6.2 26.2,-9.4 40.2,-9.2 z m 25.5,148.5 h 88.9 c -4.8,-21.5 -6.8,-43.5 -5.7,-65.4 V 385.3 c 0,-80.9 -43,-126.6 -147.7,-126.6 -48.5,-0.2 -96.5,10.9 -139.8,32.3 l 33.7,66.9 c 26.7,-13.2 56.1,-20.1 86,-20.4 36.6,0 59.5,12.6 59.5,43.6 v 3.5 l -53.8,2.1 c -31,0.3 -61.6,7.2 -89.6,20.4 -35.9,16.1 -58.3,52 -56.6,90.7 0,64 48.7,109.1 115.4,109.1 35,0.5 68.8,-12 94.6,-35.2 z M 1267.9,437.9 c -32.3,0 -48,-25.3 -48,-51 0,-35.2 20.8,-51 46.6,-51 32.9,0 49.4,26.7 49.4,52.1 0,33 -20.8,49.9 -48,49.9 m 7.3,256.9 c -53.8,0 -84.5,-19 -84.5,-46.4 0.2,-11.7 5.4,-22.8 14.3,-30.6 34.4,17.6 142.7,7.7 142.7,47.1 0,20.4 -34.4,30.6 -72.7,30.6 m -15.8,71.3 c 129,0 190,-54.1 190,-113.9 0,-124.9 -222.8,-70.2 -222.8,-127 -0.1,-5.1 0.9,-10.1 2.9,-14.8 12.7,3 25.7,4.4 38.7,4.2 86.7,0 147.7,-48.5 147.7,-125.3 0.3,-26.6 -8.3,-52.5 -24.4,-73.9 6.5,-1.9 13.3,-2.8 20,-2.9 9.7,0.2 19.3,1.4 28.7,3.6 l 20,-73.2 c -5.7,-0.7 -17.2,-1.4 -24.4,-1.4 -48.7,0 -70.9,11.9 -90.4,29.6 -2.9,2.9 -5,4.2 -8.6,2.1 -21.9,-11 -46.3,-16.4 -70.9,-15.5 -104.7,0 -147,66.9 -147,125.3 0,43.6 20,84.4 59.5,104.8 -27.2,14.8 -45.2,38 -45.2,61.2 -0.6,16.5 7.9,32.1 22.2,40.8 -34.8,10.2 -59,41 -60.2,76.6 0,55.5 57.3,99.2 164.2,99.2 M 521.9,599.5 H 630.2 V 371.8 c 19,-13.6 41.7,-21.2 65.2,-21.8 40.1,0 44.5,28.1 44.5,60.5 v 189.3 h 108.2 v -228 c 18.7,-13.6 41.2,-21.2 64.5,-21.8 40.2,0 45.2,26.7 45.2,59.1 V 599.8 H 1066 V 381.7 c 0,-92.8 -57.7,-123.1 -120.1,-123.1 -35.1,0 -78.1,14.8 -119,47.1 -18,-29.6 -49.4,-47.1 -92.4,-47.1 -40.8,0 -79.6,19 -111.1,42.2 l -10.5,-34 h -91 z"
         class="st4"
         inkscape:connector-curvature="0"
         style="fill:#818084" />
    </g>
  </g>
  <style
     id="style4504"
     type="text/css">
	.st0{fill:#00A99D;}
	.st1{fill:#FFFFFF;}
	.st2{fill:#7C7C7F;}
	.st3{fill:#D1010E;}
	.st4{fill:#818084;}
</style>
</svg>
