<?xml version="1.0" encoding="UTF-8" standalone="no"?>
<!-- Created with Inkscape (http://www.inkscape.org/) -->

<svg
   xmlns:dc="http://purl.org/dc/elements/1.1/"
   xmlns:cc="http://creativecommons.org/ns#"
   xmlns:rdf="http://www.w3.org/1999/02/22-rdf-syntax-ns#"
   xmlns:svg="http://www.w3.org/2000/svg"
   xmlns="http://www.w3.org/2000/svg"
   xmlns:xlink="http://www.w3.org/1999/xlink"
   xmlns:sodipodi="http://sodipodi.sourceforge.net/DTD/sodipodi-0.dtd"
   xmlns:inkscape="http://www.inkscape.org/namespaces/inkscape"
   width="124.14978mm"
   height="145.58438mm"
   viewBox="0 0 124.14978 145.58438"
   version="1.1"
   id="svg8"
   inkscape:version="0.92.2 (5c3e80d, 2017-08-06)">
  <defs
     id="defs2">
    <linearGradient
       id="linearGradient-1"
       y2="253.90112"
       x2="177.95117"
       y1="-278.28738"
       x1="-310.22427"
       gradientTransform="matrix(0.23476956,0,0,0.2436413,16.145291,76.010362)"
       gradientUnits="userSpaceOnUse">
      <stop
         id="stop819"
         offset="0%"
         stop-color="#FFFFFF" />
      <stop
         id="stop821"
         offset="100%"
         stop-color="#F0F2F6" />
    </linearGradient>
    <path
       id="path-2"
       d="m 144.4279,170.2426 c -14.36171,-7.2216 -26.05757,-5.8729 -35.48197,-7.2216 -10.2047,-1.4583 -20.7566,-2.9672 -28.671,-13.7606 -5.912,-8.0617 -4.5472,-17.2713 -2.6572,-30.0201 2.3063,-15.5753 5.7904,-39.0964 1.0415,-79.496 -0.724796,-4.874338 0.596258,-9.831566 3.6506,-13.6988 6.3018,-7.7533 17.641,-8.7626 30.7702,-9.9303 11.4526,-1.0188 24.4248,-2.1734 29.5494,-8.2679 L 149.22873,0 l 6.5994,7.8473 c 5.1248,6.0948 18.0976,7.2491 29.5441,8.267 13.13619,1.169 24.475,2.1782 30.77719,9.9318 3.05335,3.867471 4.37395,8.82424 3.6495,13.6982 -4.7484,40.4046 -1.2661,63.9248 1.0387,79.4883 1.8919,12.7517 3.2591,21.9628 -2.6549,30.0278 -7.9148,10.7934 -18.46649,12.3023 -28.6721,13.7606 -9.42329,1.3487 -21.08805,0 -35.47972,7.2216 l -4.802,3.2181 z"
       inkscape:connector-curvature="0" />
    <filter
       id="filter-3"
       filterUnits="objectBoundingBox"
       height="1.086"
       width="1.102"
       y="-0.043000001"
       x="-0.050999999">
      <feOffset
         id="feOffset825"
         result="shadowOffsetOuter1"
         in="SourceAlpha"
         dy="0"
         dx="0" />
      <feGaussianBlur
         id="feGaussianBlur827"
         result="shadowBlurOuter1"
         in="shadowOffsetOuter1"
         stdDeviation="2.5" />
      <feColorMatrix
         id="feColorMatrix829"
         in="shadowBlurOuter1"
         type="matrix"
         values="0 0 0 0 0.578842474   0 0 0 0 0.578842474   0 0 0 0 0.578842474  0 0 0 0.496716486 0" />
    </filter>
    <clipPath
       clipPathUnits="userSpaceOnUse"
       id="clipPath1189">
      <rect
         style="opacity:1;fill:#000000;fill-opacity:1;stroke:none;stroke-width:0.52916664;stroke-linecap:butt;stroke-linejoin:round;stroke-miterlimit:4;stroke-dasharray:0, 5.82083327;stroke-dashoffset:20;stroke-opacity:0.95939086;paint-order:normal"
         id="rect1191"
         width="333.375"
         height="148.16667"
         x="-369.66071"
         y="153.36905" />
    </clipPath>
    <linearGradient
       gradientUnits="userSpaceOnUse"
       gradientTransform="matrix(0.21340554,0,0,0.25557505,11.055162,306.57144)"
       x1="162.40419"
       y1="0"
       x2="162.40419"
       y2="159.38843"
       id="linearGradient-1-7">
      <stop
         stop-color="#FFFFFF"
         offset="0%"
         id="stop944" />
      <stop
         stop-color="#F0F2F6"
         offset="100%"
         id="stop946" />
    </linearGradient>
    <path
       inkscape:connector-curvature="0"
       d="m 144.4279,170.2426 c -14.36171,-7.2216 -26.05757,-5.8729 -35.48197,-7.2216 -10.2047,-1.4583 -20.7566,-2.9672 -28.671,-13.7606 -5.912,-8.0617 -4.5472,-17.2713 -2.6572,-30.0201 2.3063,-15.5753 5.7904,-39.0964 1.0415,-79.496 -0.724796,-4.874338 0.596258,-9.831566 3.6506,-13.6988 6.3018,-7.7533 17.641,-8.7626 30.7702,-9.9303 11.4526,-1.0188 24.4248,-2.1734 29.5494,-8.2679 L 149.22873,0 l 6.5994,7.8473 c 5.1248,6.0948 18.0976,7.2491 29.5441,8.267 13.13619,1.169 24.475,2.1782 30.77719,9.9318 3.05335,3.867471 4.37395,8.82424 3.6495,13.6982 -4.7484,40.4046 -1.2661,63.9248 1.0387,79.4883 1.8919,12.7517 3.2591,21.9628 -2.6549,30.0278 -7.9148,10.7934 -18.46649,12.3023 -28.6721,13.7606 -9.42329,1.3487 -21.08805,0 -35.47972,7.2216 l -4.802,3.2181 z"
       id="path-2-2" />
    <filter
       x="-0.050999999"
       y="-0.043000001"
       width="1.102"
       height="1.086"
       filterUnits="objectBoundingBox"
       id="filter-3-8">
      <feOffset
         dx="0"
         dy="0"
         in="SourceAlpha"
         result="shadowOffsetOuter1"
         id="feOffset950" />
      <feGaussianBlur
         stdDeviation="2.5"
         in="shadowOffsetOuter1"
         result="shadowBlurOuter1"
         id="feGaussianBlur952" />
      <feColorMatrix
         values="0 0 0 0 0.578842474   0 0 0 0 0.578842474   0 0 0 0 0.578842474  0 0 0 0.496716486 0"
         type="matrix"
         in="shadowBlurOuter1"
         id="feColorMatrix954" />
    </filter>
    <linearGradient
       gradientUnits="userSpaceOnUse"
       gradientTransform="matrix(0.28680367,0,0,0.34307814,80.130119,345.28694)"
       x1="162.40419"
       y1="0"
       x2="162.40419"
       y2="159.38843"
       id="linearGradient-1-1">
      <stop
         stop-color="#FFFFFF"
         offset="0%"
         id="stop1036" />
      <stop
         stop-color="#F0F2F6"
         offset="100%"
         id="stop1038" />
    </linearGradient>
    <path
       inkscape:connector-curvature="0"
       d="m 144.4279,170.2426 c -14.36171,-7.2216 -26.05757,-5.8729 -35.48197,-7.2216 -10.2047,-1.4583 -20.7566,-2.9672 -28.671,-13.7606 -5.912,-8.0617 -4.5472,-17.2713 -2.6572,-30.0201 2.3063,-15.5753 5.7904,-39.0964 1.0415,-79.496 -0.724796,-4.874338 0.596258,-9.831566 3.6506,-13.6988 6.3018,-7.7533 17.641,-8.7626 30.7702,-9.9303 11.4526,-1.0188 24.4248,-2.1734 29.5494,-8.2679 L 149.22873,0 l 6.5994,7.8473 c 5.1248,6.0948 18.0976,7.2491 29.5441,8.267 13.13619,1.169 24.475,2.1782 30.77719,9.9318 3.05335,3.867471 4.37395,8.82424 3.6495,13.6982 -4.7484,40.4046 -1.2661,63.9248 1.0387,79.4883 1.8919,12.7517 3.2591,21.9628 -2.6549,30.0278 -7.9148,10.7934 -18.46649,12.3023 -28.6721,13.7606 -9.42329,1.3487 -21.08805,0 -35.47972,7.2216 l -4.802,3.2181 z"
       id="path-2-9" />
    <filter
       x="-0.050999999"
       y="-0.043000001"
       width="1.102"
       height="1.086"
       filterUnits="objectBoundingBox"
       id="filter-3-2">
      <feOffset
         dx="0"
         dy="0"
         in="SourceAlpha"
         result="shadowOffsetOuter1"
         id="feOffset1042" />
      <feGaussianBlur
         stdDeviation="2.5"
         in="shadowOffsetOuter1"
         result="shadowBlurOuter1"
         id="feGaussianBlur1044" />
      <feColorMatrix
         values="0 0 0 0 0.578842474   0 0 0 0 0.578842474   0 0 0 0 0.578842474  0 0 0 0.496716486 0"
         type="matrix"
         in="shadowBlurOuter1"
         id="feColorMatrix1046" />
    </filter>
    <linearGradient
       gradientUnits="userSpaceOnUse"
       gradientTransform="matrix(0.28680367,0,0,0.34307814,110.74455,40.41546)"
       x1="162.40419"
       y1="0"
       x2="162.40419"
       y2="159.38843"
       id="linearGradient-1-2">
      <stop
         stop-color="#FFFFFF"
         offset="0%"
         id="stop1090" />
      <stop
         stop-color="#F0F2F6"
         offset="100%"
         id="stop1092" />
    </linearGradient>
    <path
       inkscape:connector-curvature="0"
       d="m 144.4279,170.2426 c -14.36171,-7.2216 -26.05757,-5.8729 -35.48197,-7.2216 -10.2047,-1.4583 -20.7566,-2.9672 -28.671,-13.7606 -5.912,-8.0617 -4.5472,-17.2713 -2.6572,-30.0201 2.3063,-15.5753 5.7904,-39.0964 1.0415,-79.496 -0.724796,-4.874338 0.596258,-9.831566 3.6506,-13.6988 6.3018,-7.7533 17.641,-8.7626 30.7702,-9.9303 11.4526,-1.0188 24.4248,-2.1734 29.5494,-8.2679 L 149.22873,0 l 6.5994,7.8473 c 5.1248,6.0948 18.0976,7.2491 29.5441,8.267 13.13619,1.169 24.475,2.1782 30.77719,9.9318 3.05335,3.867471 4.37395,8.82424 3.6495,13.6982 -4.7484,40.4046 -1.2661,63.9248 1.0387,79.4883 1.8919,12.7517 3.2591,21.9628 -2.6549,30.0278 -7.9148,10.7934 -18.46649,12.3023 -28.6721,13.7606 -9.42329,1.3487 -21.08805,0 -35.47972,7.2216 l -4.802,3.2181 z"
       id="path-2-5" />
    <filter
       x="-0.050999999"
       y="-0.043000001"
       width="1.102"
       height="1.086"
       filterUnits="objectBoundingBox"
       id="filter-3-28">
      <feOffset
         dx="0"
         dy="0"
         in="SourceAlpha"
         result="shadowOffsetOuter1"
         id="feOffset1096" />
      <feGaussianBlur
         stdDeviation="2.5"
         in="shadowOffsetOuter1"
         result="shadowBlurOuter1"
         id="feGaussianBlur1098" />
      <feColorMatrix
         values="0 0 0 0 0.578842474   0 0 0 0 0.578842474   0 0 0 0 0.578842474  0 0 0 0.496716486 0"
         type="matrix"
         in="shadowBlurOuter1"
         id="feColorMatrix1100" />
    </filter>
    <path
       inkscape:connector-curvature="0"
       d="m 144.4279,170.2426 c -14.36171,-7.2216 -26.05757,-5.8729 -35.48197,-7.2216 -10.2047,-1.4583 -20.7566,-2.9672 -28.671,-13.7606 -5.912,-8.0617 -4.5472,-17.2713 -2.6572,-30.0201 2.3063,-15.5753 5.7904,-39.0964 1.0415,-79.496 -0.724796,-4.874338 0.596258,-9.831566 3.6506,-13.6988 6.3018,-7.7533 17.641,-8.7626 30.7702,-9.9303 11.4526,-1.0188 24.4248,-2.1734 29.5494,-8.2679 L 149.22873,0 l 6.5994,7.8473 c 5.1248,6.0948 18.0976,7.2491 29.5441,8.267 13.13619,1.169 24.475,2.1782 30.77719,9.9318 3.05335,3.867471 4.37395,8.82424 3.6495,13.6982 -4.7484,40.4046 -1.2661,63.9248 1.0387,79.4883 1.8919,12.7517 3.2591,21.9628 -2.6549,30.0278 -7.9148,10.7934 -18.46649,12.3023 -28.6721,13.7606 -9.42329,1.3487 -21.08805,0 -35.47972,7.2216 l -4.802,3.2181 z"
       id="path-2-28" />
    <filter
       x="-0.050999999"
       y="-0.043000001"
       width="1.102"
       height="1.086"
       filterUnits="objectBoundingBox"
       id="filter-3-27">
      <feOffset
         dx="0"
         dy="0"
         in="SourceAlpha"
         result="shadowOffsetOuter1"
         id="feOffset825-7" />
      <feGaussianBlur
         stdDeviation="2.5"
         in="shadowOffsetOuter1"
         result="shadowBlurOuter1"
         id="feGaussianBlur827-8" />
      <feColorMatrix
         values="0 0 0 0 0.578842474   0 0 0 0 0.578842474   0 0 0 0 0.578842474  0 0 0 0.496716486 0"
         type="matrix"
         in="shadowBlurOuter1"
         id="feColorMatrix829-7" />
    </filter>
    <clipPath
       id="clipPath1189-6"
       clipPathUnits="userSpaceOnUse">
      <rect
         y="153.36905"
         x="-369.66071"
         height="148.16667"
         width="333.375"
         id="rect1191-0"
         style="opacity:1;fill:#000000;fill-opacity:1;stroke:none;stroke-width:0.52916664;stroke-linecap:butt;stroke-linejoin:round;stroke-miterlimit:4;stroke-dasharray:0, 5.82083327;stroke-dashoffset:20;stroke-opacity:0.95939086;paint-order:normal" />
    </clipPath>
    <path
       id="path-2-2-8"
       d="m 144.4279,170.2426 c -14.36171,-7.2216 -26.05757,-5.8729 -35.48197,-7.2216 -10.2047,-1.4583 -20.7566,-2.9672 -28.671,-13.7606 -5.912,-8.0617 -4.5472,-17.2713 -2.6572,-30.0201 2.3063,-15.5753 5.7904,-39.0964 1.0415,-79.496 -0.724796,-4.874338 0.596258,-9.831566 3.6506,-13.6988 6.3018,-7.7533 17.641,-8.7626 30.7702,-9.9303 11.4526,-1.0188 24.4248,-2.1734 29.5494,-8.2679 L 149.22873,0 l 6.5994,7.8473 c 5.1248,6.0948 18.0976,7.2491 29.5441,8.267 13.13619,1.169 24.475,2.1782 30.77719,9.9318 3.05335,3.867471 4.37395,8.82424 3.6495,13.6982 -4.7484,40.4046 -1.2661,63.9248 1.0387,79.4883 1.8919,12.7517 3.2591,21.9628 -2.6549,30.0278 -7.9148,10.7934 -18.46649,12.3023 -28.6721,13.7606 -9.42329,1.3487 -21.08805,0 -35.47972,7.2216 l -4.802,3.2181 z"
       inkscape:connector-curvature="0" />
    <filter
       id="filter-3-8-8"
       filterUnits="objectBoundingBox"
       height="1.086"
       width="1.102"
       y="-0.043000001"
       x="-0.050999999">
      <feOffset
         id="feOffset950-0"
         result="shadowOffsetOuter1"
         in="SourceAlpha"
         dy="0"
         dx="0" />
      <feGaussianBlur
         id="feGaussianBlur952-9"
         result="shadowBlurOuter1"
         in="shadowOffsetOuter1"
         stdDeviation="2.5" />
      <feColorMatrix
         id="feColorMatrix954-8"
         in="shadowBlurOuter1"
         type="matrix"
         values="0 0 0 0 0.578842474   0 0 0 0 0.578842474   0 0 0 0 0.578842474  0 0 0 0.496716486 0" />
    </filter>
    <path
       id="path-2-9-5"
       d="m 144.4279,170.2426 c -14.36171,-7.2216 -26.05757,-5.8729 -35.48197,-7.2216 -10.2047,-1.4583 -20.7566,-2.9672 -28.671,-13.7606 -5.912,-8.0617 -4.5472,-17.2713 -2.6572,-30.0201 2.3063,-15.5753 5.7904,-39.0964 1.0415,-79.496 -0.724796,-4.874338 0.596258,-9.831566 3.6506,-13.6988 6.3018,-7.7533 17.641,-8.7626 30.7702,-9.9303 11.4526,-1.0188 24.4248,-2.1734 29.5494,-8.2679 L 149.22873,0 l 6.5994,7.8473 c 5.1248,6.0948 18.0976,7.2491 29.5441,8.267 13.13619,1.169 24.475,2.1782 30.77719,9.9318 3.05335,3.867471 4.37395,8.82424 3.6495,13.6982 -4.7484,40.4046 -1.2661,63.9248 1.0387,79.4883 1.8919,12.7517 3.2591,21.9628 -2.6549,30.0278 -7.9148,10.7934 -18.46649,12.3023 -28.6721,13.7606 -9.42329,1.3487 -21.08805,0 -35.47972,7.2216 l -4.802,3.2181 z"
       inkscape:connector-curvature="0" />
    <filter
       id="filter-3-2-2"
       filterUnits="objectBoundingBox"
       height="1.086"
       width="1.102"
       y="-0.043000001"
       x="-0.050999999">
      <feOffset
         id="feOffset1042-8"
         result="shadowOffsetOuter1"
         in="SourceAlpha"
         dy="0"
         dx="0" />
      <feGaussianBlur
         id="feGaussianBlur1044-4"
         result="shadowBlurOuter1"
         in="shadowOffsetOuter1"
         stdDeviation="2.5" />
      <feColorMatrix
         id="feColorMatrix1046-5"
         in="shadowBlurOuter1"
         type="matrix"
         values="0 0 0 0 0.578842474   0 0 0 0 0.578842474   0 0 0 0 0.578842474  0 0 0 0.496716486 0" />
    </filter>
    <linearGradient
       id="linearGradient-1-2-9"
       y2="159.38843"
       x2="162.40419"
       y1="0"
       x1="162.40419"
       gradientTransform="matrix(0.28680367,0,0,0.34307814,56.345578,181.82555)"
       gradientUnits="userSpaceOnUse">
      <stop
         id="stop1090-2"
         offset="0%"
         stop-color="#FFFFFF" />
      <stop
         id="stop1092-0"
         offset="100%"
         stop-color="#F0F2F6" />
    </linearGradient>
    <path
       id="path-2-5-9"
       d="m 144.4279,170.2426 c -14.36171,-7.2216 -26.05757,-5.8729 -35.48197,-7.2216 -10.2047,-1.4583 -20.7566,-2.9672 -28.671,-13.7606 -5.912,-8.0617 -4.5472,-17.2713 -2.6572,-30.0201 2.3063,-15.5753 5.7904,-39.0964 1.0415,-79.496 -0.724796,-4.874338 0.596258,-9.831566 3.6506,-13.6988 6.3018,-7.7533 17.641,-8.7626 30.7702,-9.9303 11.4526,-1.0188 24.4248,-2.1734 29.5494,-8.2679 L 149.22873,0 l 6.5994,7.8473 c 5.1248,6.0948 18.0976,7.2491 29.5441,8.267 13.13619,1.169 24.475,2.1782 30.77719,9.9318 3.05335,3.867471 4.37395,8.82424 3.6495,13.6982 -4.7484,40.4046 -1.2661,63.9248 1.0387,79.4883 1.8919,12.7517 3.2591,21.9628 -2.6549,30.0278 -7.9148,10.7934 -18.46649,12.3023 -28.6721,13.7606 -9.42329,1.3487 -21.08805,0 -35.47972,7.2216 l -4.802,3.2181 z"
       inkscape:connector-curvature="0" />
    <filter
       id="filter-3-28-8"
       filterUnits="objectBoundingBox"
       height="1.086"
       width="1.102"
       y="-0.043000001"
       x="-0.050999999">
      <feOffset
         id="feOffset1096-0"
         result="shadowOffsetOuter1"
         in="SourceAlpha"
         dy="0"
         dx="0" />
      <feGaussianBlur
         id="feGaussianBlur1098-3"
         result="shadowBlurOuter1"
         in="shadowOffsetOuter1"
         stdDeviation="2.5" />
      <feColorMatrix
         id="feColorMatrix1100-8"
         in="shadowBlurOuter1"
         type="matrix"
         values="0 0 0 0 0.578842474   0 0 0 0 0.578842474   0 0 0 0 0.578842474  0 0 0 0.496716486 0" />
    </filter>
    <path
       inkscape:connector-curvature="0"
       d="m 144.4279,170.2426 c -14.36171,-7.2216 -26.05757,-5.8729 -35.48197,-7.2216 -10.2047,-1.4583 -20.7566,-2.9672 -28.671,-13.7606 -5.912,-8.0617 -4.5472,-17.2713 -2.6572,-30.0201 2.3063,-15.5753 5.7904,-39.0964 1.0415,-79.496 -0.724796,-4.874338 0.596258,-9.831566 3.6506,-13.6988 6.3018,-7.7533 17.641,-8.7626 30.7702,-9.9303 11.4526,-1.0188 24.4248,-2.1734 29.5494,-8.2679 L 149.22873,0 l 6.5994,7.8473 c 5.1248,6.0948 18.0976,7.2491 29.5441,8.267 13.13619,1.169 24.475,2.1782 30.77719,9.9318 3.05335,3.867471 4.37395,8.82424 3.6495,13.6982 -4.7484,40.4046 -1.2661,63.9248 1.0387,79.4883 1.8919,12.7517 3.2591,21.9628 -2.6549,30.0278 -7.9148,10.7934 -18.46649,12.3023 -28.6721,13.7606 -9.42329,1.3487 -21.08805,0 -35.47972,7.2216 l -4.802,3.2181 z"
       id="path-2-29" />
    <filter
       x="-0.050999999"
       y="-0.043000001"
       width="1.102"
       height="1.086"
       filterUnits="objectBoundingBox"
       id="filter-3-9">
      <feOffset
         dx="0"
         dy="0"
         in="SourceAlpha"
         result="shadowOffsetOuter1"
         id="feOffset825-9" />
      <feGaussianBlur
         stdDeviation="2.5"
         in="shadowOffsetOuter1"
         result="shadowBlurOuter1"
         id="feGaussianBlur827-2" />
      <feColorMatrix
         values="0 0 0 0 0.578842474   0 0 0 0 0.578842474   0 0 0 0 0.578842474  0 0 0 0.496716486 0"
         type="matrix"
         in="shadowBlurOuter1"
         id="feColorMatrix829-9" />
    </filter>
    <clipPath
       id="clipPath1189-7"
       clipPathUnits="userSpaceOnUse">
      <rect
         y="153.36905"
         x="-369.66071"
         height="148.16667"
         width="333.375"
         id="rect1191-6"
         style="opacity:1;fill:#000000;fill-opacity:1;stroke:none;stroke-width:0.52916664;stroke-linecap:butt;stroke-linejoin:round;stroke-miterlimit:4;stroke-dasharray:0, 5.82083327;stroke-dashoffset:20;stroke-opacity:0.95939086;paint-order:normal" />
    </clipPath>
    <path
       id="path-2-2-9"
       d="m 144.4279,170.2426 c -14.36171,-7.2216 -26.05757,-5.8729 -35.48197,-7.2216 -10.2047,-1.4583 -20.7566,-2.9672 -28.671,-13.7606 -5.912,-8.0617 -4.5472,-17.2713 -2.6572,-30.0201 2.3063,-15.5753 5.7904,-39.0964 1.0415,-79.496 -0.724796,-4.874338 0.596258,-9.831566 3.6506,-13.6988 6.3018,-7.7533 17.641,-8.7626 30.7702,-9.9303 11.4526,-1.0188 24.4248,-2.1734 29.5494,-8.2679 L 149.22873,0 l 6.5994,7.8473 c 5.1248,6.0948 18.0976,7.2491 29.5441,8.267 13.13619,1.169 24.475,2.1782 30.77719,9.9318 3.05335,3.867471 4.37395,8.82424 3.6495,13.6982 -4.7484,40.4046 -1.2661,63.9248 1.0387,79.4883 1.8919,12.7517 3.2591,21.9628 -2.6549,30.0278 -7.9148,10.7934 -18.46649,12.3023 -28.6721,13.7606 -9.42329,1.3487 -21.08805,0 -35.47972,7.2216 l -4.802,3.2181 z"
       inkscape:connector-curvature="0" />
    <filter
       id="filter-3-8-4"
       filterUnits="objectBoundingBox"
       height="1.086"
       width="1.102"
       y="-0.043000001"
       x="-0.050999999">
      <feOffset
         id="feOffset950-7"
         result="shadowOffsetOuter1"
         in="SourceAlpha"
         dy="0"
         dx="0" />
      <feGaussianBlur
         id="feGaussianBlur952-7"
         result="shadowBlurOuter1"
         in="shadowOffsetOuter1"
         stdDeviation="2.5" />
      <feColorMatrix
         id="feColorMatrix954-5"
         in="shadowBlurOuter1"
         type="matrix"
         values="0 0 0 0 0.578842474   0 0 0 0 0.578842474   0 0 0 0 0.578842474  0 0 0 0.496716486 0" />
    </filter>
    <path
       id="path-2-9-33"
       d="m 144.4279,170.2426 c -14.36171,-7.2216 -26.05757,-5.8729 -35.48197,-7.2216 -10.2047,-1.4583 -20.7566,-2.9672 -28.671,-13.7606 -5.912,-8.0617 -4.5472,-17.2713 -2.6572,-30.0201 2.3063,-15.5753 5.7904,-39.0964 1.0415,-79.496 -0.724796,-4.874338 0.596258,-9.831566 3.6506,-13.6988 6.3018,-7.7533 17.641,-8.7626 30.7702,-9.9303 11.4526,-1.0188 24.4248,-2.1734 29.5494,-8.2679 L 149.22873,0 l 6.5994,7.8473 c 5.1248,6.0948 18.0976,7.2491 29.5441,8.267 13.13619,1.169 24.475,2.1782 30.77719,9.9318 3.05335,3.867471 4.37395,8.82424 3.6495,13.6982 -4.7484,40.4046 -1.2661,63.9248 1.0387,79.4883 1.8919,12.7517 3.2591,21.9628 -2.6549,30.0278 -7.9148,10.7934 -18.46649,12.3023 -28.6721,13.7606 -9.42329,1.3487 -21.08805,0 -35.47972,7.2216 l -4.802,3.2181 z"
       inkscape:connector-curvature="0" />
    <filter
       id="filter-3-2-5"
       filterUnits="objectBoundingBox"
       height="1.086"
       width="1.102"
       y="-0.043000001"
       x="-0.050999999">
      <feOffset
         id="feOffset1042-7"
         result="shadowOffsetOuter1"
         in="SourceAlpha"
         dy="0"
         dx="0" />
      <feGaussianBlur
         id="feGaussianBlur1044-41"
         result="shadowBlurOuter1"
         in="shadowOffsetOuter1"
         stdDeviation="2.5" />
      <feColorMatrix
         id="feColorMatrix1046-1"
         in="shadowBlurOuter1"
         type="matrix"
         values="0 0 0 0 0.578842474   0 0 0 0 0.578842474   0 0 0 0 0.578842474  0 0 0 0.496716486 0" />
    </filter>
    <path
       id="path-2-5-78"
       d="m 144.4279,170.2426 c -14.36171,-7.2216 -26.05757,-5.8729 -35.48197,-7.2216 -10.2047,-1.4583 -20.7566,-2.9672 -28.671,-13.7606 -5.912,-8.0617 -4.5472,-17.2713 -2.6572,-30.0201 2.3063,-15.5753 5.7904,-39.0964 1.0415,-79.496 -0.724796,-4.874338 0.596258,-9.831566 3.6506,-13.6988 6.3018,-7.7533 17.641,-8.7626 30.7702,-9.9303 11.4526,-1.0188 24.4248,-2.1734 29.5494,-8.2679 L 149.22873,0 l 6.5994,7.8473 c 5.1248,6.0948 18.0976,7.2491 29.5441,8.267 13.13619,1.169 24.475,2.1782 30.77719,9.9318 3.05335,3.867471 4.37395,8.82424 3.6495,13.6982 -4.7484,40.4046 -1.2661,63.9248 1.0387,79.4883 1.8919,12.7517 3.2591,21.9628 -2.6549,30.0278 -7.9148,10.7934 -18.46649,12.3023 -28.6721,13.7606 -9.42329,1.3487 -21.08805,0 -35.47972,7.2216 l -4.802,3.2181 z"
       inkscape:connector-curvature="0" />
    <filter
       id="filter-3-28-4"
       filterUnits="objectBoundingBox"
       height="1.086"
       width="1.102"
       y="-0.043000001"
       x="-0.050999999">
      <feOffset
         id="feOffset1096-2"
         result="shadowOffsetOuter1"
         in="SourceAlpha"
         dy="0"
         dx="0" />
      <feGaussianBlur
         id="feGaussianBlur1098-38"
         result="shadowBlurOuter1"
         in="shadowOffsetOuter1"
         stdDeviation="2.5" />
      <feColorMatrix
         id="feColorMatrix1100-1"
         in="shadowBlurOuter1"
         type="matrix"
         values="0 0 0 0 0.578842474   0 0 0 0 0.578842474   0 0 0 0 0.578842474  0 0 0 0.496716486 0" />
    </filter>
    <path
       id="path-2-1"
       d="m 144.4279,170.2426 c -14.36171,-7.2216 -26.05757,-5.8729 -35.48197,-7.2216 -10.2047,-1.4583 -20.7566,-2.9672 -28.671,-13.7606 -5.912,-8.0617 -4.5472,-17.2713 -2.6572,-30.0201 2.3063,-15.5753 5.7904,-39.0964 1.0415,-79.496 -0.724796,-4.874338 0.596258,-9.831566 3.6506,-13.6988 6.3018,-7.7533 17.641,-8.7626 30.7702,-9.9303 11.4526,-1.0188 24.4248,-2.1734 29.5494,-8.2679 L 149.22873,0 l 6.5994,7.8473 c 5.1248,6.0948 18.0976,7.2491 29.5441,8.267 13.13619,1.169 24.475,2.1782 30.77719,9.9318 3.05335,3.867471 4.37395,8.82424 3.6495,13.6982 -4.7484,40.4046 -1.2661,63.9248 1.0387,79.4883 1.8919,12.7517 3.2591,21.9628 -2.6549,30.0278 -7.9148,10.7934 -18.46649,12.3023 -28.6721,13.7606 -9.42329,1.3487 -21.08805,0 -35.47972,7.2216 l -4.802,3.2181 z"
       inkscape:connector-curvature="0" />
    <filter
       id="filter-3-5"
       filterUnits="objectBoundingBox"
       height="1.086"
       width="1.102"
       y="-0.043000001"
       x="-0.050999999">
      <feOffset
         id="feOffset825-0"
         result="shadowOffsetOuter1"
         in="SourceAlpha"
         dy="0"
         dx="0" />
      <feGaussianBlur
         id="feGaussianBlur827-7"
         result="shadowBlurOuter1"
         in="shadowOffsetOuter1"
         stdDeviation="2.5" />
      <feColorMatrix
         id="feColorMatrix829-0"
         in="shadowBlurOuter1"
         type="matrix"
         values="0 0 0 0 0.578842474   0 0 0 0 0.578842474   0 0 0 0 0.578842474  0 0 0 0.496716486 0" />
    </filter>
    <clipPath
       clipPathUnits="userSpaceOnUse"
       id="clipPath1189-0">
      <rect
         style="opacity:1;fill:#000000;fill-opacity:1;stroke:none;stroke-width:0.52916664;stroke-linecap:butt;stroke-linejoin:round;stroke-miterlimit:4;stroke-dasharray:0, 5.82083327;stroke-dashoffset:20;stroke-opacity:0.95939086;paint-order:normal"
         id="rect1191-0-5"
         width="333.375"
         height="148.16667"
         x="-369.66071"
         y="153.36905" />
    </clipPath>
    <path
       inkscape:connector-curvature="0"
       d="m 144.4279,170.2426 c -14.36171,-7.2216 -26.05757,-5.8729 -35.48197,-7.2216 -10.2047,-1.4583 -20.7566,-2.9672 -28.671,-13.7606 -5.912,-8.0617 -4.5472,-17.2713 -2.6572,-30.0201 2.3063,-15.5753 5.7904,-39.0964 1.0415,-79.496 -0.724796,-4.874338 0.596258,-9.831566 3.6506,-13.6988 6.3018,-7.7533 17.641,-8.7626 30.7702,-9.9303 11.4526,-1.0188 24.4248,-2.1734 29.5494,-8.2679 L 149.22873,0 l 6.5994,7.8473 c 5.1248,6.0948 18.0976,7.2491 29.5441,8.267 13.13619,1.169 24.475,2.1782 30.77719,9.9318 3.05335,3.867471 4.37395,8.82424 3.6495,13.6982 -4.7484,40.4046 -1.2661,63.9248 1.0387,79.4883 1.8919,12.7517 3.2591,21.9628 -2.6549,30.0278 -7.9148,10.7934 -18.46649,12.3023 -28.6721,13.7606 -9.42329,1.3487 -21.08805,0 -35.47972,7.2216 l -4.802,3.2181 z"
       id="path-2-2-0" />
    <filter
       x="-0.050999999"
       y="-0.043000001"
       width="1.102"
       height="1.086"
       filterUnits="objectBoundingBox"
       id="filter-3-8-7">
      <feOffset
         dx="0"
         dy="0"
         in="SourceAlpha"
         result="shadowOffsetOuter1"
         id="feOffset950-8" />
      <feGaussianBlur
         stdDeviation="2.5"
         in="shadowOffsetOuter1"
         result="shadowBlurOuter1"
         id="feGaussianBlur952-2" />
      <feColorMatrix
         values="0 0 0 0 0.578842474   0 0 0 0 0.578842474   0 0 0 0 0.578842474  0 0 0 0.496716486 0"
         type="matrix"
         in="shadowBlurOuter1"
         id="feColorMatrix954-9" />
    </filter>
    <path
       inkscape:connector-curvature="0"
       d="m 144.4279,170.2426 c -14.36171,-7.2216 -26.05757,-5.8729 -35.48197,-7.2216 -10.2047,-1.4583 -20.7566,-2.9672 -28.671,-13.7606 -5.912,-8.0617 -4.5472,-17.2713 -2.6572,-30.0201 2.3063,-15.5753 5.7904,-39.0964 1.0415,-79.496 -0.724796,-4.874338 0.596258,-9.831566 3.6506,-13.6988 6.3018,-7.7533 17.641,-8.7626 30.7702,-9.9303 11.4526,-1.0188 24.4248,-2.1734 29.5494,-8.2679 L 149.22873,0 l 6.5994,7.8473 c 5.1248,6.0948 18.0976,7.2491 29.5441,8.267 13.13619,1.169 24.475,2.1782 30.77719,9.9318 3.05335,3.867471 4.37395,8.82424 3.6495,13.6982 -4.7484,40.4046 -1.2661,63.9248 1.0387,79.4883 1.8919,12.7517 3.2591,21.9628 -2.6549,30.0278 -7.9148,10.7934 -18.46649,12.3023 -28.6721,13.7606 -9.42329,1.3487 -21.08805,0 -35.47972,7.2216 l -4.802,3.2181 z"
       id="path-2-9-3" />
    <filter
       x="-0.050999999"
       y="-0.043000001"
       width="1.102"
       height="1.086"
       filterUnits="objectBoundingBox"
       id="filter-3-2-1">
      <feOffset
         dx="0"
         dy="0"
         in="SourceAlpha"
         result="shadowOffsetOuter1"
         id="feOffset1042-6" />
      <feGaussianBlur
         stdDeviation="2.5"
         in="shadowOffsetOuter1"
         result="shadowBlurOuter1"
         id="feGaussianBlur1044-1" />
      <feColorMatrix
         values="0 0 0 0 0.578842474   0 0 0 0 0.578842474   0 0 0 0 0.578842474  0 0 0 0.496716486 0"
         type="matrix"
         in="shadowBlurOuter1"
         id="feColorMatrix1046-3" />
    </filter>
    <path
       inkscape:connector-curvature="0"
       d="m 144.4279,170.2426 c -14.36171,-7.2216 -26.05757,-5.8729 -35.48197,-7.2216 -10.2047,-1.4583 -20.7566,-2.9672 -28.671,-13.7606 -5.912,-8.0617 -4.5472,-17.2713 -2.6572,-30.0201 2.3063,-15.5753 5.7904,-39.0964 1.0415,-79.496 -0.724796,-4.874338 0.596258,-9.831566 3.6506,-13.6988 6.3018,-7.7533 17.641,-8.7626 30.7702,-9.9303 11.4526,-1.0188 24.4248,-2.1734 29.5494,-8.2679 L 149.22873,0 l 6.5994,7.8473 c 5.1248,6.0948 18.0976,7.2491 29.5441,8.267 13.13619,1.169 24.475,2.1782 30.77719,9.9318 3.05335,3.867471 4.37395,8.82424 3.6495,13.6982 -4.7484,40.4046 -1.2661,63.9248 1.0387,79.4883 1.8919,12.7517 3.2591,21.9628 -2.6549,30.0278 -7.9148,10.7934 -18.46649,12.3023 -28.6721,13.7606 -9.42329,1.3487 -21.08805,0 -35.47972,7.2216 l -4.802,3.2181 z"
       id="path-2-5-7" />
    <filter
       x="-0.050999999"
       y="-0.043000001"
       width="1.102"
       height="1.086"
       filterUnits="objectBoundingBox"
       id="filter-3-28-8-1">
      <feOffset
         dx="0"
         dy="0"
         in="SourceAlpha"
         result="shadowOffsetOuter1"
         id="feOffset1096-9" />
      <feGaussianBlur
         stdDeviation="2.5"
         in="shadowOffsetOuter1"
         result="shadowBlurOuter1"
         id="feGaussianBlur1098-7" />
      <feColorMatrix
         values="0 0 0 0 0.578842474   0 0 0 0 0.578842474   0 0 0 0 0.578842474  0 0 0 0.496716486 0"
         type="matrix"
         in="shadowBlurOuter1"
         id="feColorMatrix1100-5" />
    </filter>
    <linearGradient
       gradientUnits="userSpaceOnUse"
       gradientTransform="matrix(0.31336614,0,0,0.37480992,-270.32321,463.01587)"
       x1="162.40419"
       y1="0"
       x2="162.40419"
       y2="159.38843"
       id="linearGradient-1-5">
      <stop
         stop-color="#FFFFFF"
         offset="0%"
         id="stop4768" />
      <stop
         stop-color="#F0F2F6"
         offset="100%"
         id="stop4770" />
    </linearGradient>
    <path
       inkscape:connector-curvature="0"
       d="m 144.4279,170.2426 c -14.36171,-7.2216 -26.05757,-5.8729 -35.48197,-7.2216 -10.2047,-1.4583 -20.7566,-2.9672 -28.671,-13.7606 -5.912,-8.0617 -4.5472,-17.2713 -2.6572,-30.0201 2.3063,-15.5753 5.7904,-39.0964 1.0415,-79.496 -0.724796,-4.874338 0.596258,-9.831566 3.6506,-13.6988 6.3018,-7.7533 17.641,-8.7626 30.7702,-9.9303 11.4526,-1.0188 24.4248,-2.1734 29.5494,-8.2679 L 149.22873,0 l 6.5994,7.8473 c 5.1248,6.0948 18.0976,7.2491 29.5441,8.267 13.13619,1.169 24.475,2.1782 30.77719,9.9318 3.05335,3.867471 4.37395,8.82424 3.6495,13.6982 -4.7484,40.4046 -1.2661,63.9248 1.0387,79.4883 1.8919,12.7517 3.2591,21.9628 -2.6549,30.0278 -7.9148,10.7934 -18.46649,12.3023 -28.6721,13.7606 -9.42329,1.3487 -21.08805,0 -35.47972,7.2216 l -4.802,3.2181 z"
       id="path-2-0" />
    <filter
       x="-0.050999999"
       y="-0.043000001"
       width="1.102"
       height="1.086"
       filterUnits="objectBoundingBox"
       id="filter-3-89">
      <feOffset
         dx="0"
         dy="0"
         in="SourceAlpha"
         result="shadowOffsetOuter1"
         id="feOffset4774" />
      <feGaussianBlur
         stdDeviation="2.5"
         in="shadowOffsetOuter1"
         result="shadowBlurOuter1"
         id="feGaussianBlur4776" />
      <feColorMatrix
         values="0 0 0 0 0.578842474   0 0 0 0 0.578842474   0 0 0 0 0.578842474  0 0 0 0.496716486 0"
         type="matrix"
         in="shadowBlurOuter1"
         id="feColorMatrix4778" />
    </filter>
    <clipPath
       id="clipPath4940"
       clipPathUnits="userSpaceOnUse">
      <rect
         y="135.39607"
         x="72.439804"
         height="40.356339"
         width="152.61145"
         id="rect4942"
         style="opacity:1;fill:#280b0b;fill-opacity:1;stroke:none;stroke-width:0.52916664;stroke-linecap:butt;stroke-linejoin:round;stroke-miterlimit:4;stroke-dasharray:0, 5.82083327;stroke-dashoffset:20;stroke-opacity:0.95939086;paint-order:normal" />
    </clipPath>
    <path
       inkscape:connector-curvature="0"
       d="m 144.4279,170.2426 c -14.36171,-7.2216 -26.05757,-5.8729 -35.48197,-7.2216 -10.2047,-1.4583 -20.7566,-2.9672 -28.671,-13.7606 -5.912,-8.0617 -4.5472,-17.2713 -2.6572,-30.0201 2.3063,-15.5753 5.7904,-39.0964 1.0415,-79.496 -0.724796,-4.874338 0.596258,-9.831566 3.6506,-13.6988 6.3018,-7.7533 17.641,-8.7626 30.7702,-9.9303 11.4526,-1.0188 24.4248,-2.1734 29.5494,-8.2679 L 149.22873,0 l 6.5994,7.8473 c 5.1248,6.0948 18.0976,7.2491 29.5441,8.267 13.13619,1.169 24.475,2.1782 30.77719,9.9318 3.05335,3.867471 4.37395,8.82424 3.6495,13.6982 -4.7484,40.4046 -1.2661,63.9248 1.0387,79.4883 1.8919,12.7517 3.2591,21.9628 -2.6549,30.0278 -7.9148,10.7934 -18.46649,12.3023 -28.6721,13.7606 -9.42329,1.3487 -21.08805,0 -35.47972,7.2216 l -4.802,3.2181 z"
       id="path-2-3" />
    <filter
       x="-0.050999999"
       y="-0.043000001"
       width="1.102"
       height="1.086"
       filterUnits="objectBoundingBox"
       id="filter-3-3">
      <feOffset
         dx="0"
         dy="0"
         in="SourceAlpha"
         result="shadowOffsetOuter1"
         id="feOffset825-3" />
      <feGaussianBlur
         stdDeviation="2.5"
         in="shadowOffsetOuter1"
         result="shadowBlurOuter1"
         id="feGaussianBlur827-9" />
      <feColorMatrix
         values="0 0 0 0 0.578842474   0 0 0 0 0.578842474   0 0 0 0 0.578842474  0 0 0 0.496716486 0"
         type="matrix"
         in="shadowBlurOuter1"
         id="feColorMatrix829-71" />
    </filter>
    <clipPath
       id="clipPath1189-1"
       clipPathUnits="userSpaceOnUse">
      <rect
         y="153.36905"
         x="-369.66071"
         height="148.16667"
         width="333.375"
         id="rect1191-8"
         style="opacity:1;fill:#000000;fill-opacity:1;stroke:none;stroke-width:0.52916664;stroke-linecap:butt;stroke-linejoin:round;stroke-miterlimit:4;stroke-dasharray:0, 5.82083327;stroke-dashoffset:20;stroke-opacity:0.95939086;paint-order:normal" />
    </clipPath>
    <path
       id="path-2-2-7"
       d="m 144.4279,170.2426 c -14.36171,-7.2216 -26.05757,-5.8729 -35.48197,-7.2216 -10.2047,-1.4583 -20.7566,-2.9672 -28.671,-13.7606 -5.912,-8.0617 -4.5472,-17.2713 -2.6572,-30.0201 2.3063,-15.5753 5.7904,-39.0964 1.0415,-79.496 -0.724796,-4.874338 0.596258,-9.831566 3.6506,-13.6988 6.3018,-7.7533 17.641,-8.7626 30.7702,-9.9303 11.4526,-1.0188 24.4248,-2.1734 29.5494,-8.2679 L 149.22873,0 l 6.5994,7.8473 c 5.1248,6.0948 18.0976,7.2491 29.5441,8.267 13.13619,1.169 24.475,2.1782 30.77719,9.9318 3.05335,3.867471 4.37395,8.82424 3.6495,13.6982 -4.7484,40.4046 -1.2661,63.9248 1.0387,79.4883 1.8919,12.7517 3.2591,21.9628 -2.6549,30.0278 -7.9148,10.7934 -18.46649,12.3023 -28.6721,13.7606 -9.42329,1.3487 -21.08805,0 -35.47972,7.2216 l -4.802,3.2181 z"
       inkscape:connector-curvature="0" />
    <filter
       id="filter-3-8-89"
       filterUnits="objectBoundingBox"
       height="1.086"
       width="1.102"
       y="-0.043000001"
       x="-0.050999999">
      <feOffset
         id="feOffset950-3"
         result="shadowOffsetOuter1"
         in="SourceAlpha"
         dy="0"
         dx="0" />
      <feGaussianBlur
         id="feGaussianBlur952-6"
         result="shadowBlurOuter1"
         in="shadowOffsetOuter1"
         stdDeviation="2.5" />
      <feColorMatrix
         id="feColorMatrix954-1"
         in="shadowBlurOuter1"
         type="matrix"
         values="0 0 0 0 0.578842474   0 0 0 0 0.578842474   0 0 0 0 0.578842474  0 0 0 0.496716486 0" />
    </filter>
    <path
       id="path-2-9-8"
       d="m 144.4279,170.2426 c -14.36171,-7.2216 -26.05757,-5.8729 -35.48197,-7.2216 -10.2047,-1.4583 -20.7566,-2.9672 -28.671,-13.7606 -5.912,-8.0617 -4.5472,-17.2713 -2.6572,-30.0201 2.3063,-15.5753 5.7904,-39.0964 1.0415,-79.496 -0.724796,-4.874338 0.596258,-9.831566 3.6506,-13.6988 6.3018,-7.7533 17.641,-8.7626 30.7702,-9.9303 11.4526,-1.0188 24.4248,-2.1734 29.5494,-8.2679 L 149.22873,0 l 6.5994,7.8473 c 5.1248,6.0948 18.0976,7.2491 29.5441,8.267 13.13619,1.169 24.475,2.1782 30.77719,9.9318 3.05335,3.867471 4.37395,8.82424 3.6495,13.6982 -4.7484,40.4046 -1.2661,63.9248 1.0387,79.4883 1.8919,12.7517 3.2591,21.9628 -2.6549,30.0278 -7.9148,10.7934 -18.46649,12.3023 -28.6721,13.7606 -9.42329,1.3487 -21.08805,0 -35.47972,7.2216 l -4.802,3.2181 z"
       inkscape:connector-curvature="0" />
    <filter
       id="filter-3-2-4"
       filterUnits="objectBoundingBox"
       height="1.086"
       width="1.102"
       y="-0.043000001"
       x="-0.050999999">
      <feOffset
         id="feOffset1042-5"
         result="shadowOffsetOuter1"
         in="SourceAlpha"
         dy="0"
         dx="0" />
      <feGaussianBlur
         id="feGaussianBlur1044-8"
         result="shadowBlurOuter1"
         in="shadowOffsetOuter1"
         stdDeviation="2.5" />
      <feColorMatrix
         id="feColorMatrix1046-31"
         in="shadowBlurOuter1"
         type="matrix"
         values="0 0 0 0 0.578842474   0 0 0 0 0.578842474   0 0 0 0 0.578842474  0 0 0 0.496716486 0" />
    </filter>
    <path
       id="path-2-5-5"
       d="m 144.4279,170.2426 c -14.36171,-7.2216 -26.05757,-5.8729 -35.48197,-7.2216 -10.2047,-1.4583 -20.7566,-2.9672 -28.671,-13.7606 -5.912,-8.0617 -4.5472,-17.2713 -2.6572,-30.0201 2.3063,-15.5753 5.7904,-39.0964 1.0415,-79.496 -0.724796,-4.874338 0.596258,-9.831566 3.6506,-13.6988 6.3018,-7.7533 17.641,-8.7626 30.7702,-9.9303 11.4526,-1.0188 24.4248,-2.1734 29.5494,-8.2679 L 149.22873,0 l 6.5994,7.8473 c 5.1248,6.0948 18.0976,7.2491 29.5441,8.267 13.13619,1.169 24.475,2.1782 30.77719,9.9318 3.05335,3.867471 4.37395,8.82424 3.6495,13.6982 -4.7484,40.4046 -1.2661,63.9248 1.0387,79.4883 1.8919,12.7517 3.2591,21.9628 -2.6549,30.0278 -7.9148,10.7934 -18.46649,12.3023 -28.6721,13.7606 -9.42329,1.3487 -21.08805,0 -35.47972,7.2216 l -4.802,3.2181 z"
       inkscape:connector-curvature="0" />
    <filter
       id="filter-3-28-48"
       filterUnits="objectBoundingBox"
       height="1.086"
       width="1.102"
       y="-0.043000001"
       x="-0.050999999">
      <feOffset
         id="feOffset1096-1"
         result="shadowOffsetOuter1"
         in="SourceAlpha"
         dy="0"
         dx="0" />
      <feGaussianBlur
         id="feGaussianBlur1098-6"
         result="shadowBlurOuter1"
         in="shadowOffsetOuter1"
         stdDeviation="2.5" />
      <feColorMatrix
         id="feColorMatrix1100-58"
         in="shadowBlurOuter1"
         type="matrix"
         values="0 0 0 0 0.578842474   0 0 0 0 0.578842474   0 0 0 0 0.578842474  0 0 0 0.496716486 0" />
    </filter>
    <path
       id="path-2-1-1"
       d="m 144.4279,170.2426 c -14.36171,-7.2216 -26.05757,-5.8729 -35.48197,-7.2216 -10.2047,-1.4583 -20.7566,-2.9672 -28.671,-13.7606 -5.912,-8.0617 -4.5472,-17.2713 -2.6572,-30.0201 2.3063,-15.5753 5.7904,-39.0964 1.0415,-79.496 -0.724796,-4.874338 0.596258,-9.831566 3.6506,-13.6988 6.3018,-7.7533 17.641,-8.7626 30.7702,-9.9303 11.4526,-1.0188 24.4248,-2.1734 29.5494,-8.2679 L 149.22873,0 l 6.5994,7.8473 c 5.1248,6.0948 18.0976,7.2491 29.5441,8.267 13.13619,1.169 24.475,2.1782 30.77719,9.9318 3.05335,3.867471 4.37395,8.82424 3.6495,13.6982 -4.7484,40.4046 -1.2661,63.9248 1.0387,79.4883 1.8919,12.7517 3.2591,21.9628 -2.6549,30.0278 -7.9148,10.7934 -18.46649,12.3023 -28.6721,13.7606 -9.42329,1.3487 -21.08805,0 -35.47972,7.2216 l -4.802,3.2181 z"
       inkscape:connector-curvature="0" />
    <filter
       id="filter-3-5-7"
       filterUnits="objectBoundingBox"
       height="1.086"
       width="1.102"
       y="-0.043000001"
       x="-0.050999999">
      <feOffset
         id="feOffset825-0-5"
         result="shadowOffsetOuter1"
         in="SourceAlpha"
         dy="0"
         dx="0" />
      <feGaussianBlur
         id="feGaussianBlur827-7-0"
         result="shadowBlurOuter1"
         in="shadowOffsetOuter1"
         stdDeviation="2.5" />
      <feColorMatrix
         id="feColorMatrix829-0-2"
         in="shadowBlurOuter1"
         type="matrix"
         values="0 0 0 0 0.578842474   0 0 0 0 0.578842474   0 0 0 0 0.578842474  0 0 0 0.496716486 0" />
    </filter>
    <clipPath
       clipPathUnits="userSpaceOnUse"
       id="clipPath1189-0-9">
      <rect
         style="opacity:1;fill:#000000;fill-opacity:1;stroke:none;stroke-width:0.52916664;stroke-linecap:butt;stroke-linejoin:round;stroke-miterlimit:4;stroke-dasharray:0, 5.82083327;stroke-dashoffset:20;stroke-opacity:0.95939086;paint-order:normal"
         id="rect1191-0-0"
         width="333.375"
         height="148.16667"
         x="-369.66071"
         y="153.36905" />
    </clipPath>
    <path
       inkscape:connector-curvature="0"
       d="m 144.4279,170.2426 c -14.36171,-7.2216 -26.05757,-5.8729 -35.48197,-7.2216 -10.2047,-1.4583 -20.7566,-2.9672 -28.671,-13.7606 -5.912,-8.0617 -4.5472,-17.2713 -2.6572,-30.0201 2.3063,-15.5753 5.7904,-39.0964 1.0415,-79.496 -0.724796,-4.874338 0.596258,-9.831566 3.6506,-13.6988 6.3018,-7.7533 17.641,-8.7626 30.7702,-9.9303 11.4526,-1.0188 24.4248,-2.1734 29.5494,-8.2679 L 149.22873,0 l 6.5994,7.8473 c 5.1248,6.0948 18.0976,7.2491 29.5441,8.267 13.13619,1.169 24.475,2.1782 30.77719,9.9318 3.05335,3.867471 4.37395,8.82424 3.6495,13.6982 -4.7484,40.4046 -1.2661,63.9248 1.0387,79.4883 1.8919,12.7517 3.2591,21.9628 -2.6549,30.0278 -7.9148,10.7934 -18.46649,12.3023 -28.6721,13.7606 -9.42329,1.3487 -21.08805,0 -35.47972,7.2216 l -4.802,3.2181 z"
       id="path-2-2-0-0" />
    <filter
       x="-0.050999999"
       y="-0.043000001"
       width="1.102"
       height="1.086"
       filterUnits="objectBoundingBox"
       id="filter-3-8-7-1">
      <feOffset
         dx="0"
         dy="0"
         in="SourceAlpha"
         result="shadowOffsetOuter1"
         id="feOffset950-8-9" />
      <feGaussianBlur
         stdDeviation="2.5"
         in="shadowOffsetOuter1"
         result="shadowBlurOuter1"
         id="feGaussianBlur952-2-3" />
      <feColorMatrix
         values="0 0 0 0 0.578842474   0 0 0 0 0.578842474   0 0 0 0 0.578842474  0 0 0 0.496716486 0"
         type="matrix"
         in="shadowBlurOuter1"
         id="feColorMatrix954-9-1" />
    </filter>
    <path
       inkscape:connector-curvature="0"
       d="m 144.4279,170.2426 c -14.36171,-7.2216 -26.05757,-5.8729 -35.48197,-7.2216 -10.2047,-1.4583 -20.7566,-2.9672 -28.671,-13.7606 -5.912,-8.0617 -4.5472,-17.2713 -2.6572,-30.0201 2.3063,-15.5753 5.7904,-39.0964 1.0415,-79.496 -0.724796,-4.874338 0.596258,-9.831566 3.6506,-13.6988 6.3018,-7.7533 17.641,-8.7626 30.7702,-9.9303 11.4526,-1.0188 24.4248,-2.1734 29.5494,-8.2679 L 149.22873,0 l 6.5994,7.8473 c 5.1248,6.0948 18.0976,7.2491 29.5441,8.267 13.13619,1.169 24.475,2.1782 30.77719,9.9318 3.05335,3.867471 4.37395,8.82424 3.6495,13.6982 -4.7484,40.4046 -1.2661,63.9248 1.0387,79.4883 1.8919,12.7517 3.2591,21.9628 -2.6549,30.0278 -7.9148,10.7934 -18.46649,12.3023 -28.6721,13.7606 -9.42329,1.3487 -21.08805,0 -35.47972,7.2216 l -4.802,3.2181 z"
       id="path-2-9-3-6" />
    <filter
       x="-0.050999999"
       y="-0.043000001"
       width="1.102"
       height="1.086"
       filterUnits="objectBoundingBox"
       id="filter-3-2-1-7">
      <feOffset
         dx="0"
         dy="0"
         in="SourceAlpha"
         result="shadowOffsetOuter1"
         id="feOffset1042-6-5" />
      <feGaussianBlur
         stdDeviation="2.5"
         in="shadowOffsetOuter1"
         result="shadowBlurOuter1"
         id="feGaussianBlur1044-1-1" />
      <feColorMatrix
         values="0 0 0 0 0.578842474   0 0 0 0 0.578842474   0 0 0 0 0.578842474  0 0 0 0.496716486 0"
         type="matrix"
         in="shadowBlurOuter1"
         id="feColorMatrix1046-3-8" />
    </filter>
    <path
       inkscape:connector-curvature="0"
       d="m 144.4279,170.2426 c -14.36171,-7.2216 -26.05757,-5.8729 -35.48197,-7.2216 -10.2047,-1.4583 -20.7566,-2.9672 -28.671,-13.7606 -5.912,-8.0617 -4.5472,-17.2713 -2.6572,-30.0201 2.3063,-15.5753 5.7904,-39.0964 1.0415,-79.496 -0.724796,-4.874338 0.596258,-9.831566 3.6506,-13.6988 6.3018,-7.7533 17.641,-8.7626 30.7702,-9.9303 11.4526,-1.0188 24.4248,-2.1734 29.5494,-8.2679 L 149.22873,0 l 6.5994,7.8473 c 5.1248,6.0948 18.0976,7.2491 29.5441,8.267 13.13619,1.169 24.475,2.1782 30.77719,9.9318 3.05335,3.867471 4.37395,8.82424 3.6495,13.6982 -4.7484,40.4046 -1.2661,63.9248 1.0387,79.4883 1.8919,12.7517 3.2591,21.9628 -2.6549,30.0278 -7.9148,10.7934 -18.46649,12.3023 -28.6721,13.7606 -9.42329,1.3487 -21.08805,0 -35.47972,7.2216 l -4.802,3.2181 z"
       id="path-2-5-7-6" />
    <filter
       x="-0.050999999"
       y="-0.043000001"
       width="1.102"
       height="1.086"
       filterUnits="objectBoundingBox"
       id="filter-3-28-8-0">
      <feOffset
         dx="0"
         dy="0"
         in="SourceAlpha"
         result="shadowOffsetOuter1"
         id="feOffset1096-9-5" />
      <feGaussianBlur
         stdDeviation="2.5"
         in="shadowOffsetOuter1"
         result="shadowBlurOuter1"
         id="feGaussianBlur1098-7-1" />
      <feColorMatrix
         values="0 0 0 0 0.578842474   0 0 0 0 0.578842474   0 0 0 0 0.578842474  0 0 0 0.496716486 0"
         type="matrix"
         in="shadowBlurOuter1"
         id="feColorMatrix1100-5-0" />
    </filter>
    <linearGradient
       gradientUnits="userSpaceOnUse"
       gradientTransform="matrix(0.31336614,0,0,0.37480992,65.91156,223.89335)"
       x1="162.40419"
       y1="0"
       x2="162.40419"
       y2="159.38843"
       id="linearGradient-1-5-0">
      <stop
         stop-color="#FFFFFF"
         offset="0%"
         id="stop4768-3" />
      <stop
         stop-color="#F0F2F6"
         offset="100%"
         id="stop4770-8" />
    </linearGradient>
    <path
       inkscape:connector-curvature="0"
       d="m 144.4279,170.2426 c -14.36171,-7.2216 -26.05757,-5.8729 -35.48197,-7.2216 -10.2047,-1.4583 -20.7566,-2.9672 -28.671,-13.7606 -5.912,-8.0617 -4.5472,-17.2713 -2.6572,-30.0201 2.3063,-15.5753 5.7904,-39.0964 1.0415,-79.496 -0.724796,-4.874338 0.596258,-9.831566 3.6506,-13.6988 6.3018,-7.7533 17.641,-8.7626 30.7702,-9.9303 11.4526,-1.0188 24.4248,-2.1734 29.5494,-8.2679 L 149.22873,0 l 6.5994,7.8473 c 5.1248,6.0948 18.0976,7.2491 29.5441,8.267 13.13619,1.169 24.475,2.1782 30.77719,9.9318 3.05335,3.867471 4.37395,8.82424 3.6495,13.6982 -4.7484,40.4046 -1.2661,63.9248 1.0387,79.4883 1.8919,12.7517 3.2591,21.9628 -2.6549,30.0278 -7.9148,10.7934 -18.46649,12.3023 -28.6721,13.7606 -9.42329,1.3487 -21.08805,0 -35.47972,7.2216 l -4.802,3.2181 z"
       id="path-2-0-7" />
    <filter
       x="-0.050999999"
       y="-0.043000001"
       width="1.102"
       height="1.086"
       filterUnits="objectBoundingBox"
       id="filter-3-89-5">
      <feOffset
         dx="0"
         dy="0"
         in="SourceAlpha"
         result="shadowOffsetOuter1"
         id="feOffset4774-2" />
      <feGaussianBlur
         stdDeviation="2.5"
         in="shadowOffsetOuter1"
         result="shadowBlurOuter1"
         id="feGaussianBlur4776-3" />
      <feColorMatrix
         values="0 0 0 0 0.578842474   0 0 0 0 0.578842474   0 0 0 0 0.578842474  0 0 0 0.496716486 0"
         type="matrix"
         in="shadowBlurOuter1"
         id="feColorMatrix4778-0" />
    </filter>
    <clipPath
       id="clipPath4940-2"
       clipPathUnits="userSpaceOnUse">
      <rect
         y="135.39607"
         x="72.439804"
         height="40.356339"
         width="152.61145"
         id="rect4942-4"
         style="opacity:1;fill:#280b0b;fill-opacity:1;stroke:none;stroke-width:0.52916664;stroke-linecap:butt;stroke-linejoin:round;stroke-miterlimit:4;stroke-dasharray:0, 5.82083327;stroke-dashoffset:20;stroke-opacity:0.95939086;paint-order:normal" />
    </clipPath>
    <path
       inkscape:connector-curvature="0"
       d="m 144.4279,170.2426 c -14.36171,-7.2216 -26.05757,-5.8729 -35.48197,-7.2216 -10.2047,-1.4583 -20.7566,-2.9672 -28.671,-13.7606 -5.912,-8.0617 -4.5472,-17.2713 -2.6572,-30.0201 2.3063,-15.5753 5.7904,-39.0964 1.0415,-79.496 -0.724796,-4.874338 0.596258,-9.831566 3.6506,-13.6988 6.3018,-7.7533 17.641,-8.7626 30.7702,-9.9303 11.4526,-1.0188 24.4248,-2.1734 29.5494,-8.2679 L 149.22873,0 l 6.5994,7.8473 c 5.1248,6.0948 18.0976,7.2491 29.5441,8.267 13.13619,1.169 24.475,2.1782 30.77719,9.9318 3.05335,3.867471 4.37395,8.82424 3.6495,13.6982 -4.7484,40.4046 -1.2661,63.9248 1.0387,79.4883 1.8919,12.7517 3.2591,21.9628 -2.6549,30.0278 -7.9148,10.7934 -18.46649,12.3023 -28.6721,13.7606 -9.42329,1.3487 -21.08805,0 -35.47972,7.2216 l -4.802,3.2181 z"
       id="path-2-91" />
    <filter
       x="-0.050999999"
       y="-0.043000001"
       width="1.102"
       height="1.086"
       filterUnits="objectBoundingBox"
       id="filter-3-55">
      <feOffset
         dx="0"
         dy="0"
         in="SourceAlpha"
         result="shadowOffsetOuter1"
         id="feOffset825-39" />
      <feGaussianBlur
         stdDeviation="2.5"
         in="shadowOffsetOuter1"
         result="shadowBlurOuter1"
         id="feGaussianBlur827-4" />
      <feColorMatrix
         values="0 0 0 0 0.578842474   0 0 0 0 0.578842474   0 0 0 0 0.578842474  0 0 0 0.496716486 0"
         type="matrix"
         in="shadowBlurOuter1"
         id="feColorMatrix829-3" />
    </filter>
    <clipPath
       id="clipPath1189-5"
       clipPathUnits="userSpaceOnUse">
      <rect
         y="153.36905"
         x="-369.66071"
         height="148.16667"
         width="333.375"
         id="rect1191-2"
         style="opacity:1;fill:#000000;fill-opacity:1;stroke:none;stroke-width:0.52916664;stroke-linecap:butt;stroke-linejoin:round;stroke-miterlimit:4;stroke-dasharray:0, 5.82083327;stroke-dashoffset:20;stroke-opacity:0.95939086;paint-order:normal" />
    </clipPath>
    <path
       id="path-2-2-86"
       d="m 144.4279,170.2426 c -14.36171,-7.2216 -26.05757,-5.8729 -35.48197,-7.2216 -10.2047,-1.4583 -20.7566,-2.9672 -28.671,-13.7606 -5.912,-8.0617 -4.5472,-17.2713 -2.6572,-30.0201 2.3063,-15.5753 5.7904,-39.0964 1.0415,-79.496 -0.724796,-4.874338 0.596258,-9.831566 3.6506,-13.6988 6.3018,-7.7533 17.641,-8.7626 30.7702,-9.9303 11.4526,-1.0188 24.4248,-2.1734 29.5494,-8.2679 L 149.22873,0 l 6.5994,7.8473 c 5.1248,6.0948 18.0976,7.2491 29.5441,8.267 13.13619,1.169 24.475,2.1782 30.77719,9.9318 3.05335,3.867471 4.37395,8.82424 3.6495,13.6982 -4.7484,40.4046 -1.2661,63.9248 1.0387,79.4883 1.8919,12.7517 3.2591,21.9628 -2.6549,30.0278 -7.9148,10.7934 -18.46649,12.3023 -28.6721,13.7606 -9.42329,1.3487 -21.08805,0 -35.47972,7.2216 l -4.802,3.2181 z"
       inkscape:connector-curvature="0" />
    <filter
       id="filter-3-8-72"
       filterUnits="objectBoundingBox"
       height="1.086"
       width="1.102"
       y="-0.043000001"
       x="-0.050999999">
      <feOffset
         id="feOffset950-1"
         result="shadowOffsetOuter1"
         in="SourceAlpha"
         dy="0"
         dx="0" />
      <feGaussianBlur
         id="feGaussianBlur952-98"
         result="shadowBlurOuter1"
         in="shadowOffsetOuter1"
         stdDeviation="2.5" />
      <feColorMatrix
         id="feColorMatrix954-88"
         in="shadowBlurOuter1"
         type="matrix"
         values="0 0 0 0 0.578842474   0 0 0 0 0.578842474   0 0 0 0 0.578842474  0 0 0 0.496716486 0" />
    </filter>
    <path
       id="path-2-9-2"
       d="m 144.4279,170.2426 c -14.36171,-7.2216 -26.05757,-5.8729 -35.48197,-7.2216 -10.2047,-1.4583 -20.7566,-2.9672 -28.671,-13.7606 -5.912,-8.0617 -4.5472,-17.2713 -2.6572,-30.0201 2.3063,-15.5753 5.7904,-39.0964 1.0415,-79.496 -0.724796,-4.874338 0.596258,-9.831566 3.6506,-13.6988 6.3018,-7.7533 17.641,-8.7626 30.7702,-9.9303 11.4526,-1.0188 24.4248,-2.1734 29.5494,-8.2679 L 149.22873,0 l 6.5994,7.8473 c 5.1248,6.0948 18.0976,7.2491 29.5441,8.267 13.13619,1.169 24.475,2.1782 30.77719,9.9318 3.05335,3.867471 4.37395,8.82424 3.6495,13.6982 -4.7484,40.4046 -1.2661,63.9248 1.0387,79.4883 1.8919,12.7517 3.2591,21.9628 -2.6549,30.0278 -7.9148,10.7934 -18.46649,12.3023 -28.6721,13.7606 -9.42329,1.3487 -21.08805,0 -35.47972,7.2216 l -4.802,3.2181 z"
       inkscape:connector-curvature="0" />
    <filter
       id="filter-3-2-6"
       filterUnits="objectBoundingBox"
       height="1.086"
       width="1.102"
       y="-0.043000001"
       x="-0.050999999">
      <feOffset
         id="feOffset1042-70"
         result="shadowOffsetOuter1"
         in="SourceAlpha"
         dy="0"
         dx="0" />
      <feGaussianBlur
         id="feGaussianBlur1044-7"
         result="shadowBlurOuter1"
         in="shadowOffsetOuter1"
         stdDeviation="2.5" />
      <feColorMatrix
         id="feColorMatrix1046-16"
         in="shadowBlurOuter1"
         type="matrix"
         values="0 0 0 0 0.578842474   0 0 0 0 0.578842474   0 0 0 0 0.578842474  0 0 0 0.496716486 0" />
    </filter>
    <path
       id="path-2-5-2"
       d="m 144.4279,170.2426 c -14.36171,-7.2216 -26.05757,-5.8729 -35.48197,-7.2216 -10.2047,-1.4583 -20.7566,-2.9672 -28.671,-13.7606 -5.912,-8.0617 -4.5472,-17.2713 -2.6572,-30.0201 2.3063,-15.5753 5.7904,-39.0964 1.0415,-79.496 -0.724796,-4.874338 0.596258,-9.831566 3.6506,-13.6988 6.3018,-7.7533 17.641,-8.7626 30.7702,-9.9303 11.4526,-1.0188 24.4248,-2.1734 29.5494,-8.2679 L 149.22873,0 l 6.5994,7.8473 c 5.1248,6.0948 18.0976,7.2491 29.5441,8.267 13.13619,1.169 24.475,2.1782 30.77719,9.9318 3.05335,3.867471 4.37395,8.82424 3.6495,13.6982 -4.7484,40.4046 -1.2661,63.9248 1.0387,79.4883 1.8919,12.7517 3.2591,21.9628 -2.6549,30.0278 -7.9148,10.7934 -18.46649,12.3023 -28.6721,13.7606 -9.42329,1.3487 -21.08805,0 -35.47972,7.2216 l -4.802,3.2181 z"
       inkscape:connector-curvature="0" />
    <filter
       id="filter-3-28-0"
       filterUnits="objectBoundingBox"
       height="1.086"
       width="1.102"
       y="-0.043000001"
       x="-0.050999999">
      <feOffset
         id="feOffset1096-4"
         result="shadowOffsetOuter1"
         in="SourceAlpha"
         dy="0"
         dx="0" />
      <feGaussianBlur
         id="feGaussianBlur1098-1"
         result="shadowBlurOuter1"
         in="shadowOffsetOuter1"
         stdDeviation="2.5" />
      <feColorMatrix
         id="feColorMatrix1100-83"
         in="shadowBlurOuter1"
         type="matrix"
         values="0 0 0 0 0.578842474   0 0 0 0 0.578842474   0 0 0 0 0.578842474  0 0 0 0.496716486 0" />
    </filter>
  </defs>
  <sodipodi:namedview
     id="base"
     pagecolor="#ffffff"
     bordercolor="#666666"
     borderopacity="1.0"
     inkscape:pageopacity="0.0"
     inkscape:pageshadow="2"
     inkscape:zoom="0.35"
     inkscape:cx="-70.820847"
     inkscape:cy="117.12993"
     inkscape:document-units="mm"
     inkscape:current-layer="layer1-8"
     showgrid="false"
     inkscape:window-width="1920"
     inkscape:window-height="1027"
     inkscape:window-x="-8"
     inkscape:window-y="-8"
     inkscape:window-maximized="1" />
  <metadata
     id="metadata5">
    <rdf:RDF>
      <cc:Work
         rdf:about="">
        <dc:format>image/svg+xml</dc:format>
        <dc:type
           rdf:resource="http://purl.org/dc/dcmitype/StillImage" />
        <dc:title></dc:title>
      </cc:Work>
    </rdf:RDF>
  </metadata>
  <g
     inkscape:label="Layer 1"
     inkscape:groupmode="layer"
     id="layer1"
     transform="translate(-2.1070633,-4.001478)">
    <g
       transform="translate(93.979049,12.067951)"
       id="layer1-8"
       inkscape:label="Layer 1">
      <g
         transform="translate(-186.99713,-220.27025)"
         id="layer1-3"
         inkscape:label="Layer 1">
        <g
           transform="translate(0.53991633,1.0690781)"
           id="g4936">
          <g
             id="Symbols"
             style="fill:none;fill-rule:evenodd;stroke:none;stroke-width:0.34271377"
             transform="matrix(0.77582917,0,0,0.76823783,94.636422,219.59485)">
            <g
               transform="translate(-71,5)"
               id="HD-Desktop-Header-White-(My-Account)"
               style="stroke-width:0.34271377">
              <g
                 id="HD-Desktop-Header-White-(signed-in)"
                 style="stroke-width:0.34271377">
                <g
                   id="Path"
                   style="stroke-width:0.34271377">
                  <use
                     transform="translate(-0.34449533,-2.7831957)"
                     style="fill:#000000;fill-opacity:1;stroke-width:0.34271377;filter:url(#filter-3-89-5)"
                     id="use4783"
                     xlink:href="#path-2-0-7"
                     x="0"
                     y="0"
                     width="100%"
                     height="100%" />
                  <use
                     transform="translate(-0.34449533,-2.7831957)"
                     clip-path="url(#clipPath4940-2)"
                     style="fill:url(#linearGradient-1-5-0);fill-rule:evenodd;stroke-width:0.34271377"
                     id="use4785"
                     xlink:href="#path-2-0-7"
                     x="0"
                     y="0"
                     width="100%"
                     height="100%" />
                </g>
              </g>
            </g>
          </g>
        </g>
      </g>
      <g
         transform="translate(-185.47518,-229.02948)"
         id="layer1-2"
         inkscape:label="Layer 1">
        <g
           style="stroke-width:0.95585644"
           transform="matrix(0.28154984,0,0,0.27213495,95.054132,227.79121)"
           id="g4646">
          <path
             style="clip-rule:evenodd;fill:#61469c;fill-rule:evenodd;stroke-width:0.95585644"
             inkscape:connector-curvature="0"
             class="st0"
             d="m 17.5,314.1 h 63.3 7.8 c -0.3,0.4 -0.6,0.9 -0.8,1.3 -0.5,0.7 -0.9,1.5 -1.3,2.2 H 80.9 17.5 Z m 333.4,0 h 65.6 v 3.6 h -63.1 c -0.7,-1.4 -1.5,-2.5 -2.5,-3.6 z"
             id="path4624" />
          <path
             style="clip-rule:evenodd;fill:#61469c;fill-rule:evenodd;stroke-width:0.95585644"
             inkscape:connector-curvature="0"
             class="st0"
             d="m 112.7,250.8 c 0,29.6 -13.8,44.4 -41.3,44.4 H 15.5 V 93.4 h 55 c 27.3,0 41,14.8 41,44.4 v 12.8 c 0,20.7 -7.6,33.8 -22.8,39.5 v 0.6 c 16,2.8 24,15.1 24,36.8 z M 73.8,162.1 V 142 c 0,-6.1 -2.5,-9.1 -7.6,-9.1 h -13 v 38.3 h 13.1 c 5,0 7.5,-3.1 7.5,-9.1 z m 0,84.4 v -26.7 c 0,-6.1 -2.5,-9.1 -7.6,-9.1 h -13 v 45 h 13.1 c 5,-0.1 7.5,-3.1 7.5,-9.2 z"
             id="path4626" />
          <path
             style="clip-rule:evenodd;fill:#61469c;fill-rule:evenodd;stroke-width:0.95585644"
             inkscape:connector-curvature="0"
             class="st0"
             d="m 209.6,256.9 c 0,15.8 -4.7,27.2 -14,34.2 -2.2,-3.3 -5.1,-6.1 -8.5,-8.3 -4.9,-3.2 -10.6,-5 -16.3,-6.1 -7.5,-1.4 -15.5,-1.1 -23,-0.2 -7.7,0.9 -15.1,2.7 -22.2,5.7 -3.9,-6.6 -5.9,-15 -5.9,-25.2 V 146 c 0,-17.4 3,-30.3 9.1,-38.6 6.9,-9.3 18.8,-14 35.9,-14 17,0 29,4.7 35.9,14 6.1,8.3 9.1,21.2 9.1,38.6 v 81.1 h -52.9 v 24.3 c 0,9.3 3.1,14 9.4,14 6.3,0 9.4,-4.7 9.4,-14 v -8.5 h 34 z m -34.1,-59.6 v -55 c 0,-9.9 -3.1,-14.9 -9.4,-14.9 -6.3,0 -9.4,5 -9.4,14.9 v 55 z"
             id="path4628" />
          <path
             style="clip-rule:evenodd;fill:#61469c;fill-rule:evenodd;stroke-width:0.95585644"
             inkscape:connector-curvature="0"
             class="st0"
             d="m 415.3,295.1 h -36.5 v -10.6 c -5.1,9.9 -13.1,14.9 -24,14.9 -20.3,0 -30.4,-15 -30.4,-45 v -9.1 c 0,-18.4 4.7,-31.4 14,-38.9 2.6,-2 11.3,-5.8 26.1,-11.2 9.5,-3.4 14.3,-9.4 14.3,-17.9 v -37.7 c 0,-8.1 -2.9,-12.2 -8.7,-12.2 -5.8,0 -8.7,4.1 -8.7,12.2 v 48.6 h -34 v -51.3 c 0,-29 14.8,-43.4 44.4,-43.4 29,0 43.4,14.5 43.4,43.4 v 158.2 z m -36.4,-39.8 v -35.2 c -8,6.5 -12.3,10.1 -12.9,10.9 -3,3.8 -4.5,9.6 -4.5,17.3 v 3.9 c 0,8.7 3.5,13.1 10.4,13.1 4.7,0.1 7,-3.3 7,-10 z"
             id="path4630" />
          <path
             style="clip-rule:evenodd;fill:#61469c;fill-rule:evenodd;stroke-width:0.95585644"
             inkscape:connector-curvature="0"
             class="st0"
             d="m 222.8,31.7 c 0,0 -7,-11.1 -1.6,-14.9 5.4,-3.8 9,2.5 16.1,2.9 7.1,0.4 13.2,1.5 14.7,5.2 1.5,3.8 0.2,8.2 5,11.3 4.8,3.1 0.6,5.2 1.3,10.3 0.6,5 4.8,9.6 -0.6,14.9 -5.4,5.2 -1.8,9.2 0.6,10 2.4,0.7 2.3,-2.7 2.3,-2.7 0,0 1.6,4.2 1.5,6 -0.1,1.8 -2.2,2.6 -2.2,2.6 0,0 2.5,3.4 4.6,11.3 2.1,8 4.5,26.7 6,28.3 1.5,1.6 7.8,10.5 9.8,17.2 2.1,6.7 6.2,21.6 9.4,22.9 3.2,1.4 14.7,0.7 15.4,1.4 0.7,0.6 5.3,5.1 5.4,5.6 0.1,0.4 -0.5,0.6 -0.5,0.6 0,0 1.2,1 2,1.6 0.9,0.6 -0.2,1 -2.9,1 -2.7,0 -4.8,-1.4 -4.8,-1.4 0,0 -1.2,0.6 -2.9,0.2 -1.7,-0.5 -3.7,-2 -5.8,-1.6 -2.1,0.4 -7.3,1.1 -9.2,-0.7 -1.8,-1.8 -11.4,-21.1 -15.8,-26.2 -4.4,-5.1 -9.1,-13.4 -9.7,-18.9 -0.6,-5.4 -9.3,-29.5 -9.3,-29.5 0,0 -0.9,1.6 -7.1,10.6 -6.2,9 -7.8,10.1 -5,17 2.7,6.9 17.4,7.8 22.2,22.4 0.2,0.5 0.3,1 0.4,1.5 v 0 c 4.5,21.1 4.9,37 5.7,56.4 0,0 -6.6,1.4 -14.6,2.3 -0.4,2 -0.7,3.5 -0.8,4.4 -0.6,7.5 5.9,22 6.1,27.9 0.2,5.9 -6.8,31.6 -6.9,36.8 -0.1,5.1 3.9,8.4 4.8,11.1 0.9,2.7 0.1,4.1 0.1,4.1 v 17 l -1.2,-0.3 c 0,0 0,-10.5 -1.5,-10.4 -1.5,0.2 -2.6,7.1 -3.7,8.7 -1.2,1.7 -4.7,2.7 -7.6,3.1 -2.9,0.4 -5.1,-0.9 -5.4,-1.7 -0.3,-0.9 0.2,-1.4 0.2,-1.4 0,0 -2.2,-0.9 -1.8,-1.8 0.4,-0.9 3.7,-1.4 3.9,-2.6 0.2,-1.2 -1.6,-12.9 -1.6,-16.3 0,-3.4 -0.3,-25 -4,-36.6 -3.7,-11.5 -4.5,-22.2 -5.9,-24.5 -1.4,-2.3 -2,-7.5 -1.9,-10.5 0,-0.7 -0.2,-2.9 -0.7,-6.1 -2.2,0 -3.5,0 -3.5,0 h -4 l 2.1,-52.6 c -0.8,-12.9 -12.9,-44 -9.9,-53.5 0,0 -9.4,-5.9 -5.4,-11.9 4,-6.1 9.5,-9.9 9.5,-9.9 0,0 -9.7,-4 -15.8,-7.2 -6.1,-3.2 -9.6,-7.6 -10.2,-9.6 -0.5,-2 2.9,-2.5 8.9,-5.3 6,-2.8 13.3,-2.8 16.2,-2.8 2.9,0 5.4,0 5.4,0 0,0 -10.9,-19.7 4.2,-15.7 z m -3.3,21.1 c 0,0 -6.3,-0.3 -7.9,0.5 -1.6,0.7 -4.3,4.1 -4.3,4.1 0,0 5.8,2.7 10.3,2.7 4.5,0 10.1,3.1 10.1,2.6 -0.1,-0.5 1.1,-2.5 0.2,-3 -0.9,-0.6 -2.3,0 -4,-1 -1.8,-1.1 -4.4,-5.9 -4.4,-5.9 z"
             id="path4632" />
          <path
             style="clip-rule:evenodd;fill:#7e69af;fill-rule:evenodd;stroke-width:0.95585644"
             inkscape:connector-curvature="0"
             class="st1"
             d="m 105.6,409.6 c 2.9,-0.3 5.5,-2.1 7.8,-5.4 2.3,-3.3 4.5,-7.5 6.5,-12.7 2,-5.2 4,-11 6,-17.6 2,-6.6 4,-13.3 6.2,-20.1 2.1,-6.8 4.5,-13.6 7,-20.3 2.5,-6.7 5.3,-12.7 8.4,-18.1 3.1,-5.4 6.6,-9.9 10.6,-13.5 4,-3.6 8.5,-5.8 13.5,-6.6 -2.8,-2.9 -6.5,-5.1 -11.2,-6.7 -4.7,-1.5 -10.4,-1.9 -17.3,-1.1 -9.2,1.1 -17,4 -23.5,8.8 -6.4,4.8 -11.6,10.5 -15.4,17.1 -3.9,6.6 -6.5,13.5 -8,20.8 -1.5,7.3 -2,14 -1.5,20 0.5,6.1 1.9,11 4.2,14.8 2.3,3.8 5.4,5.5 9.2,5 1.7,-0.2 3.1,-1 4.2,-2.3 1.1,-1.4 1.6,-2.8 1.5,-4.3 -0.1,-1.5 -0.8,-2.8 -2.3,-3.8 -1.4,-1.1 -3.8,-1.4 -7.2,-1 0,-2.9 1.1,-5.3 3.4,-7.2 2.3,-1.9 4.7,-3.1 7.5,-3.4 2.7,-0.4 5.2,0.2 7.5,1.6 2.3,1.5 3.4,4.1 3.4,8 0,2.6 -0.6,5 -1.8,7.2 -1.2,2.2 -2.7,4.2 -4.7,5.9 -1.9,1.7 -4.1,3.2 -6.6,4.3 -2.5,1.1 -5,1.9 -7.6,2.2 -6.3,0.7 -11.5,0 -15.7,-2.3 -4.1,-2.3 -7.2,-5.5 -9.2,-9.8 -2,-4.3 -2.9,-9.3 -2.9,-15.1 0.1,-5.8 1.1,-11.8 3.1,-18 2,-6.2 4.9,-12.4 8.8,-18.6 3.9,-6.2 8.7,-11.9 14.4,-17.1 5.7,-5.2 12.2,-9.5 19.5,-13.1 7.3,-3.6 15.5,-5.9 24.5,-7 8.5,-1 15.7,-0.9 21.8,0.2 6.1,1.1 11,2.9 14.9,5.5 3.9,2.6 6.7,5.6 8.6,9.3 1.9,3.6 2.9,7.5 3.2,11.7 0.3,4.1 -0.2,8.4 -1.5,12.6 -1.3,4.3 -3.2,8.3 -5.6,12.1 -2.5,3.8 -5.4,7.1 -8.9,10 -3.5,2.9 -7.3,5 -11.5,6.5 4.2,2.4 7.4,5.3 9.8,8.7 2.4,3.4 3.9,7.1 4.7,11 0.8,3.9 0.8,8 0,12.1 -0.8,4.2 -2.1,8.1 -4.1,11.8 -2,3.7 -4.5,7.1 -7.6,10.2 -3.1,3.1 -6.6,5.5 -10.5,7.3 -3.9,1.8 -8.2,2.9 -12.8,3.2 -4.6,0.3 -9.5,-0.4 -14.6,-2.2 -3.3,-1.2 -6.3,-2.9 -9,-5.1 -2.9,2.9 -6,5.3 -9.3,7.2 -3.3,1.9 -7,3.1 -11.1,3.5 -2.8,0.3 -5.5,0.3 -8.1,-0.2 -2.6,-0.4 -4.8,-1.4 -6.6,-2.8 -1.8,-1.5 -3,-3.5 -3.6,-6 -0.6,-2.6 -0.4,-5.8 0.8,-9.8 0.6,-2.6 1.9,-4.8 3.8,-6.5 1.9,-1.7 3.9,-2.9 6.1,-3.6 2.2,-0.7 4.4,-1 6.7,-0.9 2.3,0.2 4.1,0.8 5.5,1.9 1.4,1.1 2.2,2.6 2.4,4.5 0.2,2 -0.6,4.3 -2.4,7.1 -1.4,-1 -2.7,-1.5 -3.9,-1.3 -1.2,0.1 -2.3,0.6 -3.3,1.4 -1,0.8 -1.7,1.8 -2.2,3 -0.5,1.2 -0.6,2.3 -0.4,3.3 0.2,1 0.8,1.9 1.8,2.6 1.1,1.1 2.6,1.3 4.6,1.1 z m 46,-60 c -1.5,4.7 -3,9.3 -4.6,14 -1.6,4.6 -3.2,9.1 -5.1,13.5 -1.8,4.4 -3.8,8.6 -5.9,12.5 -2.1,3.9 -4.4,7.5 -6.8,10.7 2.1,1.7 4.6,3 7.4,4 3.6,1.3 7.3,1.1 10.9,-0.7 3.6,-1.8 6.9,-4.4 9.9,-7.9 2.9,-3.5 5.4,-7.5 7.4,-12.1 2,-4.6 3.2,-9.1 3.7,-13.5 0.5,-4.4 0.1,-8.3 -1.2,-11.8 -1.3,-3.5 -3.8,-5.9 -7.6,-7.2 -2.7,-1 -5.4,-1.5 -8.1,-1.5 z M 174,298.1 c -2.1,1.7 -4.1,4.1 -5.9,7 -1.8,2.9 -3.5,6.4 -5.1,10.3 -1.6,3.9 -3.2,8.2 -4.7,12.8 -1.5,4.6 -3,9.4 -4.5,14.4 1.6,0.7 3.2,1.1 4.8,1.2 1.6,0.1 3.1,0.1 4.3,0 3.5,-0.4 6.6,-2.3 9.3,-5.6 2.7,-3.3 4.6,-7.3 5.9,-11.9 1.2,-4.6 1.6,-9.5 1,-14.7 -0.5,-5 -2.2,-9.6 -5.1,-13.5 z"
             id="path4634" />
          <path
             style="clip-rule:evenodd;fill:#7e69af;fill-rule:evenodd;stroke-width:0.95585644"
             inkscape:connector-curvature="0"
             class="st1"
             d="m 205.8,369.1 c -0.6,2.1 -1.1,3.8 -1.3,5.1 -0.2,1.3 -0.2,2.2 -0.1,2.9 0.2,0.7 0.4,1.1 0.8,1.4 0.4,0.2 0.8,0.4 1.2,0.4 1,0.2 2.4,-0.4 4.3,-1.7 1.9,-1.3 3.5,-3.5 4.7,-6.4 l 2.3,-0.3 c -1.3,3.5 -2.8,6.5 -4.5,9 -1.7,2.5 -3.5,4.6 -5.3,6.2 -1.8,1.7 -3.6,2.9 -5.5,3.8 -1.8,0.9 -3.5,1.4 -5,1.5 -1.4,0.2 -2.7,0 -4,-0.4 -1.3,-0.4 -2.3,-1.4 -3.1,-2.8 -0.8,-1.4 -1.2,-3.5 -1.1,-6.2 0.1,-2.7 0.7,-6.3 2,-10.8 l 12.4,-41.3 14.5,-1.7 c -1.8,6.2 -3.5,12 -5.1,17.3 -1.4,4.7 -2.8,9.3 -4.1,13.8 -1.5,4.6 -2.5,8 -3.1,10.2 z M 227,304 c 0,2.7 -1,5.1 -2.9,7.3 -1.9,2.2 -4.2,3.4 -6.8,3.7 -2.8,0.3 -5.1,-0.4 -7,-2.1 -1.9,-1.7 -2.8,-3.9 -2.8,-6.6 0,-2.8 0.9,-5.2 2.8,-7.2 1.9,-2 4.2,-3.2 7,-3.6 2.6,-0.3 4.8,0.3 6.8,1.9 1.9,1.6 2.9,3.8 2.9,6.6 z"
             id="path4636" />
          <path
             style="clip-rule:evenodd;fill:#7e69af;fill-rule:evenodd;stroke-width:0.95585644"
             inkscape:connector-curvature="0"
             class="st1"
             d="m 244.7,336 c -0.9,0.1 -1.8,0.7 -2.7,1.8 -1,1.1 -1.9,2.5 -2.7,4.2 -0.9,1.7 -1.7,3.5 -2.6,5.5 -0.9,2 -1.7,4 -2.4,5.9 l -10.1,34.9 -14.6,1.7 18.3,-63.4 14.6,-1.7 -3.1,10.5 c 2.1,-3.3 4.4,-6 6.8,-8.1 2.4,-2.2 5,-3.4 7.8,-3.7 3.4,-0.4 5.5,0.6 6.3,3 0.8,2.4 0.8,5.4 0.1,9.2 -0.8,3.7 -1.9,7.9 -3.5,12.4 -1.6,4.5 -3.1,8.7 -4.4,12.5 -1.3,3.8 -2.2,7 -2.7,9.5 -0.4,2.5 0.2,3.7 1.9,3.5 0.9,-0.1 2.2,-0.7 4.1,-1.9 1.9,-1.2 3.5,-3.2 4.7,-6.2 l 2.3,-0.3 c -1.3,3.5 -2.8,6.5 -4.5,9 -1.7,2.5 -3.5,4.6 -5.4,6.3 -1.9,1.7 -3.7,2.9 -5.5,3.8 -1.8,0.8 -3.3,1.4 -4.7,1.5 -3.6,0.4 -5.9,-0.5 -6.9,-2.9 -1,-2.4 -1.2,-5.4 -0.6,-9.1 0.5,-3.7 1.6,-7.8 3.1,-12.3 1.5,-4.5 2.9,-8.6 4.3,-12.4 1.3,-3.8 2.3,-7 3,-9.5 0.5,-2.7 0.3,-3.9 -0.9,-3.7 z"
             id="path4638" />
          <path
             style="clip-rule:evenodd;fill:#7e69af;fill-rule:evenodd;stroke-width:0.95585644"
             inkscape:connector-curvature="0"
             class="st1"
             d="m 280.9,375.8 c 0,-0.1 0,-0.2 0.1,-0.3 0.1,-0.1 0.1,-0.3 0.1,-0.5 -2.1,2.1 -4.4,3.8 -6.9,5.3 -2.5,1.5 -4.8,2.3 -7.1,2.6 -2.1,0.2 -3.9,-0.2 -5.2,-1.4 -1.3,-1.2 -2.2,-3.1 -2.5,-5.8 -0.3,-2.7 -0.1,-6.2 0.8,-10.5 0.9,-4.3 2.5,-9.4 5,-15.2 2.5,-6 5.6,-11.2 9.4,-15.6 3.8,-4.5 7.9,-8.1 12.1,-10.8 4.3,-2.8 8.6,-4.6 12.9,-5.5 4.3,-0.9 8.3,-0.8 11.8,0.4 -1.7,6.3 -3.5,12.7 -5.5,19.1 -1.6,5.7 -3.3,11.7 -5.2,18.2 -1.9,6.5 -3.6,12.7 -5.2,18.7 -1.4,4.8 -2.9,9.3 -4.7,13.6 -1.7,4.3 -3.8,8.1 -6.1,11.5 -2.4,3.4 -5.1,6.2 -8.1,8.3 -3.1,2.2 -6.6,3.5 -10.7,4 -2.8,0.3 -5.3,0.1 -7.5,-0.6 -2.2,-0.7 -3.9,-1.8 -5.2,-3.2 -1.3,-1.5 -2.1,-3.2 -2.5,-5.3 -0.4,-2 -0.1,-4.3 0.7,-6.8 1.2,-3.6 3.1,-6.1 5.9,-7.6 2.7,-1.5 5.4,-2.1 7.9,-1.9 2.5,0.2 4.5,1.3 5.9,3.2 1.4,1.9 1.5,4.5 0.1,7.6 -2.4,-1.3 -4.3,-1.5 -5.9,-0.5 -1.6,1 -2.7,2.3 -3.2,3.9 -0.5,1.6 -0.5,3.2 0.1,4.7 0.6,1.5 2,2.1 4.1,1.9 1.8,-0.2 3.4,-1.4 4.8,-3.5 1.4,-2.1 2.7,-4.7 3.8,-7.8 1.1,-3.1 2.2,-6.4 3.1,-10 0.9,-3.6 1.9,-7 2.9,-10.2 z m -3.7,-6.3 c 1.1,-0.1 2.3,-0.7 3.5,-1.6 1.3,-1 2.4,-1.7 3.2,-2.4 1,-3.3 2,-6.7 3,-10.2 1,-3.5 2,-7 3,-10.4 1,-3.4 1.9,-6.6 2.7,-9.6 0.9,-3 1.6,-5.7 2.3,-8 -0.6,-0.2 -1.3,-0.3 -2.1,-0.2 -1.6,0.2 -3.3,1.4 -5.1,3.6 -1.8,2.2 -3.6,4.9 -5.2,8.2 -1.7,3.2 -3.1,6.7 -4.4,10.3 -1.3,3.6 -2.2,7 -2.8,10.1 -0.6,3.1 -0.8,5.7 -0.6,7.6 0.1,1.9 1,2.8 2.5,2.6 z"
             id="path4640" />
          <path
             style="clip-rule:evenodd;fill:#7e69af;fill-rule:evenodd;stroke-width:0.95585644"
             inkscape:connector-curvature="0"
             class="st1"
             d="m 337.8,313.9 c 4.1,-0.5 7.2,-0.1 9.5,1.2 2.3,1.3 3.8,3.3 4.7,5.9 0.9,2.6 1.1,5.8 0.6,9.6 -0.4,3.7 -1.2,7.8 -2.4,12.1 -1.3,4.3 -3.1,8.5 -5.3,12.4 -2.3,4 -4.7,7.5 -7.5,10.5 -2.7,3.1 -5.6,5.5 -8.6,7.4 -3,1.9 -5.9,3 -8.8,3.4 -4.1,0.5 -7.2,0.1 -9.5,-1.2 -2.3,-1.3 -3.8,-3.3 -4.7,-5.9 -0.9,-2.6 -1.1,-5.8 -0.6,-9.6 0.4,-3.7 1.2,-7.8 2.4,-12.1 1.2,-4.3 2.9,-8.5 5.1,-12.4 2.2,-4 4.7,-7.5 7.4,-10.5 2.7,-3.1 5.6,-5.5 8.7,-7.4 2.9,-1.9 6,-3.1 9,-3.4 z m -15.3,55.4 c 1.3,-0.1 2.7,-1.4 4.1,-3.9 1.4,-2.4 2.9,-5.4 4.3,-9 1.4,-3.6 2.7,-7.4 3.8,-11.5 1.1,-4 2,-7.8 2.5,-11.3 0.5,-3.5 0.7,-6.4 0.5,-8.6 -0.2,-2.2 -1,-3.3 -2.4,-3.1 -1.4,0.2 -2.8,1.5 -4.3,3.9 -1.5,2.4 -2.9,5.4 -4.3,9 -1.3,3.6 -2.5,7.4 -3.5,11.4 -1,4 -1.8,7.8 -2.3,11.3 -0.5,3.5 -0.6,6.3 -0.4,8.6 0.1,2.3 0.8,3.4 2,3.2 z"
             id="path4642" />
          <path
             style="clip-rule:evenodd;fill:#61469c;fill-rule:evenodd;stroke-width:0.95585644"
             inkscape:connector-curvature="0"
             class="st0"
             d="M 317.1,295.1 H 280 V 156 c 2.4,4.3 4.4,7.9 5.3,8.8 1.3,1.3 3.5,1.7 5.7,1.7 1.9,0 3.9,-0.3 5,-0.5 0.9,-0.2 2.1,0.4 3.1,0.8 0.6,0.3 1.3,0.6 1.9,0.8 1.3,0.4 2.5,0.2 3.2,0.1 1,0.5 2.8,1.3 4.9,1.3 1.5,0 2.7,-0.1 3.3,-0.4 0.5,-0.2 0.9,-0.4 1.1,-0.7 v 0 c 0.6,-0.6 0.7,-1.4 0.3,-2.1 -0.2,-0.4 -0.5,-0.7 -0.9,-1 v 0 c -0.3,-0.2 -0.6,-0.4 -0.8,-0.6 0,-0.1 0,-0.2 0,-0.4 -0.1,-0.6 -1,-1.7 -2.2,-2.9 -1.4,-1.5 -3.4,-3.3 -3.8,-3.7 -0.8,-0.7 -3.1,-0.7 -6.1,-0.8 -3.6,-0.1 -8.2,-0.2 -9.8,-0.9 v 0 c -2.1,-0.9 -5.4,-11.8 -7.5,-18.8 v 0 c -0.3,-1 -0.6,-1.9 -0.9,-3 -0.5,-1.6 -1.2,-3.2 -2,-4.9 V 93.4 h 37.1 v 201.7 z"
             id="path4644" />
        </g>
      </g>
    </g>
  </g>
  <style
     id="style815"
     type="text/css">
	.st0{fill-rule:evenodd;clip-rule:evenodd;fill:#61469C;}
	.st1{fill-rule:evenodd;clip-rule:evenodd;fill:#7E69AF;}
</style>
  <style
     type="text/css"
     id="style815-2">
	.st0{fill-rule:evenodd;clip-rule:evenodd;fill:#61469C;}
	.st1{fill-rule:evenodd;clip-rule:evenodd;fill:#7E69AF;}
</style>
  <style
     id="style862"
     type="text/css">
	.st0{fill-rule:evenodd;clip-rule:evenodd;fill:#61469C;}
	.st1{fill-rule:evenodd;clip-rule:evenodd;fill:#7E69AF;}
</style>
  <style
     type="text/css"
     id="style1133">
	.st0{fill-rule:evenodd;clip-rule:evenodd;fill:#61469C;}
	.st1{fill-rule:evenodd;clip-rule:evenodd;fill:#7E69AF;}
</style>
  <style
     id="style815-8"
     type="text/css">
	.st0{fill-rule:evenodd;clip-rule:evenodd;fill:#61469C;}
	.st1{fill-rule:evenodd;clip-rule:evenodd;fill:#7E69AF;}
</style>
  <style
     type="text/css"
     id="style862-5">
	.st0{fill-rule:evenodd;clip-rule:evenodd;fill:#61469C;}
	.st1{fill-rule:evenodd;clip-rule:evenodd;fill:#7E69AF;}
</style>
  <style
     id="style1133-9"
     type="text/css">
	.st0{fill-rule:evenodd;clip-rule:evenodd;fill:#61469C;}
	.st1{fill-rule:evenodd;clip-rule:evenodd;fill:#7E69AF;}
</style>
  <style
     type="text/css"
     id="style4622">
	.st0{fill-rule:evenodd;clip-rule:evenodd;fill:#61469C;}
	.st1{fill-rule:evenodd;clip-rule:evenodd;fill:#7E69AF;}
</style>
  <style
     id="style815-98"
     type="text/css">
	.st0{fill-rule:evenodd;clip-rule:evenodd;fill:#61469C;}
	.st1{fill-rule:evenodd;clip-rule:evenodd;fill:#7E69AF;}
</style>
  <style
     type="text/css"
     id="style862-7">
	.st0{fill-rule:evenodd;clip-rule:evenodd;fill:#61469C;}
	.st1{fill-rule:evenodd;clip-rule:evenodd;fill:#7E69AF;}
</style>
  <style
     id="style1133-5"
     type="text/css">
	.st0{fill-rule:evenodd;clip-rule:evenodd;fill:#61469C;}
	.st1{fill-rule:evenodd;clip-rule:evenodd;fill:#7E69AF;}
</style>
  <style
     type="text/css"
     id="style4622-3">
	.st0{fill-rule:evenodd;clip-rule:evenodd;fill:#61469C;}
	.st1{fill-rule:evenodd;clip-rule:evenodd;fill:#7E69AF;}
</style>
  <style
     type="text/css"
     id="style815-9">
	.st0{fill-rule:evenodd;clip-rule:evenodd;fill:#61469C;}
	.st1{fill-rule:evenodd;clip-rule:evenodd;fill:#7E69AF;}
</style>
  <style
     id="style862-1"
     type="text/css">
	.st0{fill-rule:evenodd;clip-rule:evenodd;fill:#61469C;}
	.st1{fill-rule:evenodd;clip-rule:evenodd;fill:#7E69AF;}
</style>
  <style
     type="text/css"
     id="style1133-0">
	.st0{fill-rule:evenodd;clip-rule:evenodd;fill:#61469C;}
	.st1{fill-rule:evenodd;clip-rule:evenodd;fill:#7E69AF;}
</style>
  <style
     id="style4622-7"
     type="text/css">
	.st0{fill-rule:evenodd;clip-rule:evenodd;fill:#61469C;}
	.st1{fill-rule:evenodd;clip-rule:evenodd;fill:#7E69AF;}
</style>
  <style
     id="style815-1"
     type="text/css">
	.st0{fill-rule:evenodd;clip-rule:evenodd;fill:#61469C;}
	.st1{fill-rule:evenodd;clip-rule:evenodd;fill:#7E69AF;}
</style>
  <style
     type="text/css"
     id="style862-9">
	.st0{fill-rule:evenodd;clip-rule:evenodd;fill:#61469C;}
	.st1{fill-rule:evenodd;clip-rule:evenodd;fill:#7E69AF;}
</style>
  <style
     id="style1133-6"
     type="text/css">
	.st0{fill-rule:evenodd;clip-rule:evenodd;fill:#61469C;}
	.st1{fill-rule:evenodd;clip-rule:evenodd;fill:#7E69AF;}
</style>
  <style
     type="text/css"
     id="style4622-4">
	.st0{fill-rule:evenodd;clip-rule:evenodd;fill:#61469C;}
	.st1{fill-rule:evenodd;clip-rule:evenodd;fill:#7E69AF;}
</style>
  <style
     type="text/css"
     id="style815-9-8">
	.st0{fill-rule:evenodd;clip-rule:evenodd;fill:#61469C;}
	.st1{fill-rule:evenodd;clip-rule:evenodd;fill:#7E69AF;}
</style>
  <style
     id="style862-1-7"
     type="text/css">
	.st0{fill-rule:evenodd;clip-rule:evenodd;fill:#61469C;}
	.st1{fill-rule:evenodd;clip-rule:evenodd;fill:#7E69AF;}
</style>
  <style
     type="text/css"
     id="style1133-0-1">
	.st0{fill-rule:evenodd;clip-rule:evenodd;fill:#61469C;}
	.st1{fill-rule:evenodd;clip-rule:evenodd;fill:#7E69AF;}
</style>
  <style
     id="style4622-7-9"
     type="text/css">
	.st0{fill-rule:evenodd;clip-rule:evenodd;fill:#61469C;}
	.st1{fill-rule:evenodd;clip-rule:evenodd;fill:#7E69AF;}
</style>
  <style
     id="style815-97"
     type="text/css">
	.st0{fill-rule:evenodd;clip-rule:evenodd;fill:#61469C;}
	.st1{fill-rule:evenodd;clip-rule:evenodd;fill:#7E69AF;}
</style>
  <style
     type="text/css"
     id="style862-14">
	.st0{fill-rule:evenodd;clip-rule:evenodd;fill:#61469C;}
	.st1{fill-rule:evenodd;clip-rule:evenodd;fill:#7E69AF;}
</style>
  <style
     id="style1133-07"
     type="text/css">
	.st0{fill-rule:evenodd;clip-rule:evenodd;fill:#61469C;}
	.st1{fill-rule:evenodd;clip-rule:evenodd;fill:#7E69AF;}
</style>
  <style
     type="text/css"
     id="style4622-6">
	.st0{fill-rule:evenodd;clip-rule:evenodd;fill:#61469C;}
	.st1{fill-rule:evenodd;clip-rule:evenodd;fill:#7E69AF;}
</style>
</svg>
