<?xml version="1.0" encoding="UTF-8"?>
<svg width="50px" height="50px" viewBox="0 0 50 50" version="1.1" xmlns="http://www.w3.org/2000/svg" xmlns:xlink="http://www.w3.org/1999/xlink">
    <!-- Generator: Sketch 49.3 (51167) - http://www.bohemiancoding.com/sketch -->
    <title>payment_methods_icon</title>
    <desc>Created with Sketch.</desc>
    <defs></defs>
    <g id="Style-Guide" stroke="none" stroke-width="1" fill="none" fill-rule="evenodd">
        <g id="Branded-Icons" transform="translate(-56.000000, -178.000000)">
            <g id="Line-2" transform="translate(30.000000, 160.000000)">
                <g id="Payment-Methods">
                    <g id="payment_methods_icon" transform="translate(26.000000, 18.000000)">
                        <g id="Layer_3" fill="#6E69C9" fill-rule="nonzero">
                            <path d="M49.7469136,25.0277778 C49.7479693,26.8687652 49.5440381,28.7041465 49.1388889,30.5 C49.0709877,30.808642 48.9938272,31.1141975 48.9135802,31.4197531 C46.7202896,39.5830138 40.5144036,46.0635274 32.4537037,48.6080247 C31.1088468,49.0349268 29.7290431,49.3426973 28.3302469,49.5277778 C18.1780858,50.8974971 8.232937,45.8637202 3.3255004,36.8715251 C-1.58193621,27.8793301 -0.434786341,16.7919975 6.20973995,8.9950253 C12.8542662,1.19805306 23.6193508,-1.69294144 33.2760228,1.72629702 C42.9326948,5.14553548 49.4799868,14.1665035 49.7376543,24.4074074 C49.7438272,24.6141975 49.7469136,24.8209877 49.7469136,25.0277778 Z" id="Shape"></path>
                        </g>
                        <g id="Layer_1_copy" transform="translate(8.333333, 12.654321)" fill="#585193" fill-rule="nonzero">
                            <path d="M41.4136111,12.3734568 C41.4144971,24.7499467 32.262409,35.2196355 19.9969136,36.8734568 C18.9653983,37.010692 17.9263703,37.0838775 16.8858025,37.0925926 L6.01848765,26.191358 C6.02421985,26.1946922 6.02943002,26.198852 6.03395062,26.2037037 C5.85005248,26.0219117 5.69123339,25.8163946 5.56169753,25.5925926 L0.666697531,17.1759259 C0.280421633,16.5107903 0.174951242,15.7192011 0.373599462,14.9761309 C0.572247681,14.2330606 1.05865585,13.599701 1.72530864,13.2160494 L8.26851852,9.45679012 L8.93209877,10.1203704 L8.90432099,2.92592593 C8.90298494,2.16260508 9.20562362,1.43016385 9.74537669,0.890416576 C10.2851298,0.350669301 11.0175742,0.0480384746 11.7808951,0.049382716 L29.0493827,0.0586419753 C29.8447747,0.0602002841 30.6046454,0.388245384 31.1512654,0.966049383 C31.145035,0.956065772 31.1377842,0.946756532 31.1296296,0.938271605 L41.3858025,11.2283951 C41.4043519,11.6080247 41.4136111,11.9907407 41.4136111,12.3734568 Z" id="Shape"></path>
                        </g>
                        <g id="Layer_1-2" transform="translate(8.333333, 12.654321)" fill="#FFFFFF">
                            <path d="M29,0.049382716 L11.7993827,0.049382716 C10.2097202,0.0510906309 8.92147483,1.33934977 8.91978395,2.92901235 L8.91978395,12.5524691 C8.92231722,14.1422826 10.2095729,15.4309318 11.7993827,15.4351852 L29,15.4351852 C30.5898176,15.4309386 31.8770861,14.1422904 31.8796296,12.5524691 L31.8796296,2.92901235 C31.8779285,1.33934197 30.5896704,0.0510838094 29,0.049382716 Z M30.9320988,12.5524691 C30.9307655,13.6194855 30.0670129,14.4846179 29,14.4876543 L11.7993827,14.4876543 C10.7323698,14.4846179 9.86861725,13.6194855 9.86728395,12.5524691 L9.86728395,7.73765432 L30.9320988,7.73765432 L30.9320988,12.5524691 Z M30.9320988,4.42592593 L9.86728395,4.42592593 L9.86728395,2.92901235 C9.86752728,1.8615445 10.7319166,0.995774346 11.7993827,0.99382716 L29,0.99382716 C30.0674661,0.995774346 30.9318554,1.8615445 30.9320988,2.92901235 L30.9320988,4.42592593 Z M23.8611111,17.2685185 L8.98765432,25.8302469 C8.05323458,26.3665328 6.86108604,26.0464188 6.32098765,25.1141975 L1.48148148,16.7037037 C1.22309027,16.2547487 1.15369409,15.7215151 1.28856859,15.2213796 C1.42344309,14.7212441 1.7515326,14.2952029 2.20061728,14.037037 L8.26231481,10.5462963 L8.26231481,9.4537037 L1.72839506,13.212963 C0.34240934,14.0134035 -0.135104365,15.7840685 0.660493827,17.1728395 L5.50308642,25.5833333 C5.88653081,26.2501259 6.51918531,26.7372563 7.26183666,26.9375332 C8.00448801,27.1378102 8.79628435,27.0348234 9.46299383,26.6512346 L24.3333333,18.0895062 C25.07799,17.6609624 25.5936753,16.9236391 25.7407716,16.0771605 L24.7746605,16.0771605 C24.6406313,16.5799355 24.3118972,17.008637 23.8611111,17.2685185 Z" id="Shape" fill-rule="nonzero"></path>
                            <path d="M9.83641975,17.7839506 C9.79866667,17.924664 9.70650355,18.0445871 9.58024691,18.117284 L6.12654321,20.1049383 C5.99975525,20.1790503 5.84849275,20.1990704 5.70679012,20.1604938 C5.5649461,20.1216404 5.44410176,20.0285041 5.37040123,19.9012346 L4.26851852,17.9876543 C4.11778364,17.723319 4.20878921,17.3868742 4.47222222,17.2345679 L7.92595679,15.2438272 C8.05361172,15.1720993 8.20429515,15.1532625 8.34567901,15.191358 C8.48626352,15.2293719 8.60609675,15.3214659 8.67901235,15.4475309 L9.7808642,17.3641975 C9.85515808,17.4909231 9.87518809,17.6422609 9.83641975,17.7839506 Z" id="Shape"></path>
                        </g>
                    </g>
                </g>
            </g>
        </g>
    </g>
</svg>