<svg xmlns="http://www.w3.org/2000/svg" viewBox="0 0 126 126"><defs><style>.cls-1{fill:#22b573;}.cls-2{fill:#fff;}</style></defs><title>Asset 1</title><g id="Layer_2" data-name="Layer 2"><g id="Layer_1-2" data-name="Layer 1"><rect class="cls-1" width="126" height="126" rx="12" ry="12"/><path class="cls-2" d="M64.41,103.52a3.18,3.18,0,0,1-2.76,0c-23.58-11.37-37.42-37-37.42-62.72,0-.54,0-1.27,0-2.3,0-.82,0-1.61.09-2.23a3.18,3.18,0,0,1,2.79-3.06,8,8,0,0,0,7-7.85v-.13a3.12,3.12,0,0,1,3.16-3.08H88.71a3.09,3.09,0,0,1,3.12,3.08,8,8,0,0,0,7,8,3.17,3.17,0,0,1,2.76,2.94c0,.65.07,1.43.09,2.34s0,1.76,0,2.3c0,25.76-13.82,51.31-37.35,62.72Z"/><path class="cls-1" d="M78.26,61.1l-.19-.23a6.57,6.57,0,0,0-2.48-1.51V56A12.48,12.48,0,0,0,72,47.34l-.15-.19A12.43,12.43,0,0,0,63,43.47,12.6,12.6,0,0,0,50.43,56v3.35a6.44,6.44,0,0,0-2.48,1.49,6.3,6.3,0,0,0-1.83,4.38V76.32a6.18,6.18,0,0,0,1.77,4.31l.06.08h0a6.22,6.22,0,0,0,4.35,1.83H73.69a6.31,6.31,0,0,0,4.39-1.83,6.24,6.24,0,0,0,1.81-4.38V65.26A6,6,0,0,0,78.26,61.1ZM55.8,56A7.21,7.21,0,0,1,68.12,51l.11.11a7.26,7.26,0,0,1,2,5v3H55.8Z"/></g></g></svg>