<svg xmlns="http://www.w3.org/2000/svg" viewBox="0 0 252.12889 267.8833"><defs><style>.cls-1{fill:#333;}.cls-2{fill:#41bfb3;}.cls-3{fill:#ccc;}.cls-4,.cls-5{fill:#fff;}.cls-4{opacity:0.2;}.cls-6{fill:#f2f2f2;}.cls-7{fill:#262a3b;}</style></defs><title>SMS icon</title><g id="Layer_2" data-name="Layer 2"><g id="Layer_1-2" data-name="Layer 1"><path class="cls-1" d="M152.9307,249.4028a18.48379,18.48379,0,0,1-18.4785,18.4805H18.48241A18.4818,18.4818,0,0,1,0,249.4028V18.4746A18.47677,18.47677,0,0,1,18.48241,0H134.4522a18.47875,18.47875,0,0,1,18.4785,18.4746Z"/><rect class="cls-2" x="11.46341" y="23.3706" width="130.00049" height="204.3593"/><path class="cls-3" d="M88.4111,248.2866A11.9482,11.9482,0,1,1,76.46,236.3383,11.95009,11.95009,0,0,1,88.4111,248.2866Z"/><path class="cls-4" d="M18.48241,0A18.47677,18.47677,0,0,0,0,18.4746V249.4028a18.4818,18.4818,0,0,0,18.48241,18.4805H76.4668V0Z"/><path class="cls-5" d="M252.12889,141.7924a17.702,17.702,0,0,1-17.7012,17.708H61.4512a17.70716,17.70716,0,0,1-17.7139-17.708V29.4253a17.71279,17.71279,0,0,1,17.7139-17.711H234.42769a17.70759,17.70759,0,0,1,17.7012,17.711Z"/><path class="cls-6" d="M43.7373,85.6074v56.185a17.70716,17.70716,0,0,0,17.7139,17.708h44.6777l-9.0684,49.0323,59.7305-49.0323h77.63669a17.702,17.702,0,0,0,17.7012-17.708V85.6074Z"/><path class="cls-7" d="M129.3525,85.6074a13.60545,13.60545,0,1,1-13.5976-13.605A13.60191,13.60191,0,0,1,129.3525,85.6074Z"/><path class="cls-7" d="M164.333,85.6074a13.606,13.606,0,1,1-13.59859-13.605A13.60154,13.60154,0,0,1,164.333,85.6074Z"/><path class="cls-7" d="M199.31249,85.6074a13.602,13.602,0,1,1-13.59859-13.605A13.60154,13.60154,0,0,1,199.31249,85.6074Z"/></g></g></svg>