<svg xmlns="http://www.w3.org/2000/svg" viewBox="0 0 438 438"><defs><style>.cls-1{fill:#cfd1f0;}.cls-2,.cls-3{fill:#333;}.cls-2,.cls-6{opacity:0.2;}.cls-4{fill:#41bfb3;}.cls-5{fill:#ccc;}.cls-6,.cls-7{fill:#fff;}.cls-8{fill:#f2f2f2;}.cls-9{fill:#262a3b;}</style></defs><title>SMS_icon_shadow</title><g id="Layer_2" data-name="Layer 2"><g id="Layer_1-2" data-name="Layer 1"><circle class="cls-1" cx="219" cy="219" r="219"/><path class="cls-2" d="M438,219.0005a218.47982,218.47982,0,0,0-14.27151-77.8857c-.0371-.0166-.0722-.0352-.1093-.0518a5630.24294,5630.24294,0,0,1-3.4825-1.791,2234.60881,2234.60881,0,0,1-3.4765-1.7881,749406.78054,749406.78054,0,0,1-3.4863-1.793,17.49375,17.49375,0,0,0-1.7452-.8974,17.92561,17.92561,0,0,0-1.7353-.8926,1749.6918,1749.6918,0,0,1-3.4815-1.791,4205.96167,4205.96167,0,0,0-3.4882-1.793,14580.44961,14580.44961,0,0,1-3.4815-1.791,17.81048,17.81048,0,0,0-1.7353-.8916,9915.54509,9915.54509,0,0,1-3.4913-1.7959,3546.51584,3546.51584,0,0,1-3.4814-1.791,17.69718,17.69718,0,0,0-1.7353-.8916,22095.0824,22095.0824,0,0,1-3.4893-1.7949,13302.99518,13302.99518,0,0,1-3.4815-1.7901,16355.7098,16355.7098,0,0,0-3.4785-1.789,7567.21185,7567.21185,0,0,1-3.4814-1.7911,17.93705,17.93705,0,0,0-1.7451-.8974,17.75681,17.75681,0,0,0-1.7373-.8936,17.95358,17.95358,0,0,0-1.7461-.8974,5735.63341,5735.63341,0,0,0-3.4854-1.792,17.42121,17.42121,0,0,0-1.7314-.8907,17.66754,17.66754,0,0,0-1.7432-.8964,17.29687,17.29687,0,0,0-1.7461-.8985,7940.87618,7940.87618,0,0,0-3.4814-1.79,17.57824,17.57824,0,0,0-8.8819-2.4092h-72.7412c-.1465-.0703-.2978-.1318-.4463-.1992a8588.473,8588.473,0,0,0-3.4814-1.791,18.73,18.73,0,0,0-1.7461-.8985,1427.81771,1427.81771,0,0,1-3.4785-1.789,18.64532,18.64532,0,0,0-1.7432-.8955,6179.10248,6179.10248,0,0,0-3.4834-1.792,3644.294,3644.294,0,0,0-3.4824-1.791,18.34577,18.34577,0,0,0-9.373-2.5586H132.625a18.477,18.477,0,0,0-18.48241,18.4746V342.3145a18.47433,18.47433,0,0,0,10.96,16.8711,18.34563,18.34563,0,0,0,1.7451.8964,17.69454,17.69454,0,0,0,1.7402.8946,18.179,18.179,0,0,0,1.7402.8965,18.31542,18.31542,0,0,0,1.7422.8945,18.21253,18.21253,0,0,0,1.7422.8965,17.81987,17.81987,0,0,0,1.7403.8945,17.6983,17.6983,0,0,0,1.73921.8945,18.69222,18.69222,0,0,0,1.74319.8985,19.33436,19.33436,0,0,0,1.7441.8965,18.54486,18.54486,0,0,0,1.7373.8925,18.20632,18.20632,0,0,0,1.7432.8965A18.60938,18.60938,0,0,0,146,369.9317a18.18741,18.18741,0,0,0,1.74219.8964,18.37933,18.37933,0,0,0,1.7402.8946,18.21371,18.21371,0,0,0,1.7422.8965,18.62307,18.62307,0,0,0,1.7403.8945,18.33381,18.33381,0,0,0,1.74311.8965,18.37336,18.37336,0,0,0,1.73929.8945,18.31968,18.31968,0,0,0,1.7422.8965,18.072,18.072,0,0,0,1.7363.8926,18.456,18.456,0,0,0,1.7539.9023,17.99552,17.99552,0,0,0,1.7334.8906,18.29158,18.29158,0,0,0,1.7412.8965,18.62,18.62,0,0,0,1.7422.8945,4947.71552,4947.71552,0,0,0,3.4824,1.7911,1552.37694,1552.37694,0,0,0,3.4825,1.791,17.70038,17.70038,0,0,0,1.7392.8945,18.09161,18.09161,0,0,0,1.7373.8945,18.5709,18.5709,0,0,0,1.7549.9024,18.0677,18.0677,0,0,0,1.7314.8906,18.57009,18.57009,0,0,0,1.7393.8945,18.17223,18.17223,0,0,0,1.7471.8985,18.71444,18.71444,0,0,0,1.7451.8984,18.41183,18.41183,0,0,0,1.7314.8887,18.03664,18.03664,0,0,0,1.75.9004,18.70144,18.70144,0,0,0,1.7383.8945,88584.74426,88584.74426,0,0,1,3.4805,1.7891,18.22662,18.22662,0,0,0,1.74311.8965,18.59955,18.59955,0,0,0,1.73829.8945,4964.17666,4964.17666,0,0,0,3.4805,1.7891,18.31337,18.31337,0,0,0,1.7471.9003,18.5932,18.5932,0,0,0,1.7392.8946,3302.95617,3302.95617,0,0,1,3.4766,1.7871,18.41774,18.41774,0,0,0,1.7471.8984,3636.52365,3636.52365,0,0,0,3.49021,1.7949,17.95571,17.95571,0,0,0,1.72659.8868,2370.124,2370.124,0,0,0,3.4902,1.7968,18.27592,18.27592,0,0,0,1.7471.8985,18.5667,18.5667,0,0,0,1.7275.8886,18.37745,18.37745,0,0,0,1.7529.9004,18.6707,18.6707,0,0,0,1.7364.8946,2306.50378,2306.50378,0,0,1,3.4775,1.7871,18.41774,18.41774,0,0,0,1.7471.8984,7604.50347,7604.50347,0,0,0,3.4892,1.7949,29316.81671,29316.81671,0,0,1,3.4756,1.7871,94815.902,94815.902,0,0,1,3.4902,1.795,59397.27093,59397.27093,0,0,0,3.4766,1.7871,18.21253,18.21253,0,0,0,1.7422.8965,18.71327,18.71327,0,0,0,1.7383.8945,9328.15681,9328.15681,0,0,0,3.4853,1.793,2909.93412,2909.93412,0,0,0,3.4815,1.789,18.179,18.179,0,0,0,1.7402.8965,18.80393,18.80393,0,0,0,1.7432.8965,2420.84569,2420.84569,0,0,1,3.4883,1.793,18.4596,18.4596,0,0,0,1.7285.8886,18.66578,18.66578,0,0,0,1.75.9004c.5175.3008,1.0507.5723,1.59761.8223C365.23439,410.3848,438,323.1934,438,219.0005Z"/><path class="cls-3" d="M267.07329,342.3135a18.48379,18.48379,0,0,1-18.4785,18.4805H132.625a18.4818,18.4818,0,0,1-18.48241-18.4805V111.3853A18.47677,18.47677,0,0,1,132.625,92.9107H248.59479a18.47875,18.47875,0,0,1,18.4785,18.4746Z"/><rect class="cls-4" x="125.606" y="116.2813" width="130.00049" height="204.3593"/><path class="cls-5" d="M202.55369,341.1973a11.9482,11.9482,0,1,1-11.9511-11.9483A11.95009,11.95009,0,0,1,202.55369,341.1973Z"/><path class="cls-6" d="M132.625,92.9107a18.47677,18.47677,0,0,0-18.48241,18.4746V342.3135A18.4818,18.4818,0,0,0,132.625,360.794h57.98439V92.9107Z"/><path class="cls-7" d="M366.27149,234.7031a17.702,17.702,0,0,1-17.7012,17.708H175.59379a17.70716,17.70716,0,0,1-17.7139-17.708V122.336a17.71279,17.71279,0,0,1,17.7139-17.711h172.9765a17.70759,17.70759,0,0,1,17.7012,17.711Z"/><path class="cls-8" d="M157.87989,178.5181v56.185a17.70716,17.70716,0,0,0,17.7139,17.708h44.6777l-9.0684,49.0323,59.7305-49.0323h77.6367a17.702,17.702,0,0,0,17.7012-17.708v-56.185Z"/><path class="cls-9" d="M243.49509,178.5181a13.60545,13.60545,0,1,1-13.5976-13.605A13.60191,13.60191,0,0,1,243.49509,178.5181Z"/><path class="cls-9" d="M278.47559,178.5181a13.606,13.606,0,1,1-13.59859-13.605A13.60154,13.60154,0,0,1,278.47559,178.5181Z"/><path class="cls-9" d="M313.45509,178.5181a13.602,13.602,0,1,1-13.5986-13.605A13.60154,13.60154,0,0,1,313.45509,178.5181Z"/></g></g></svg>