<?xml version="1.0" encoding="UTF-8"?>
<svg width="50px" height="50px" viewBox="0 0 50 50" version="1.1" xmlns="http://www.w3.org/2000/svg" xmlns:xlink="http://www.w3.org/1999/xlink">
    <!-- Generator: Sketch 49.3 (51167) - http://www.bohemiancoding.com/sketch -->
    <title>withdraw_funds_icon</title>
    <desc>Created with Sketch.</desc>
    <defs></defs>
    <g id="Style-Guide" stroke="none" stroke-width="1" fill="none" fill-rule="evenodd">
        <g id="Branded-Icons" transform="translate(-496.000000, -58.000000)" fill-rule="nonzero">
            <g id="Line-1" transform="translate(30.000000, 40.000000)">
                <g id="Withdraw-funds" transform="translate(440.000000, 0.000000)">
                    <g id="withdraw_funds_icon" transform="translate(26.000000, 18.000000)">
                        <circle id="Oval" fill="#0FAEE1" cx="24.9921034" cy="24.9921034" r="24.9921034"></circle>
                        <path d="M49.6791954,28.9051672 L36.3019931,15.5279609 C35.9537037,15.0466898 35.3955641,14.7618545 34.8014874,14.762208 L15.1827178,14.762208 C14.6910756,14.7622065 14.2195692,14.9575096 13.8719251,15.3051526 C13.524281,15.6527956 13.3289764,16.1243014 13.3289764,16.6159437 L13.3289764,20.8640989 C13.3289493,21.6051492 13.7701964,22.2750371 14.4510511,22.5675989 L17.3936201,25.5101678 L16.2001374,32.8241333 C16.0490454,33.7500644 16.4876316,34.5763345 17.2537408,34.973081 L31.4279247,49.1472655 C40.8831828,46.6345236 48.1361494,38.7179546 49.6791954,28.9051672 Z" id="Shape" fill="#0586B0"></path>
                        <path d="M20.0585799,32.3744086 C20.6166086,32.3744086 21.1002695,31.9483511 21.1381776,31.4320523 L21.6115454,24.9852483 C21.6401833,24.5951908 21.2791776,24.2838057 20.8056431,24.2838057 C20.3321144,24.2838057 19.9136029,24.5951908 19.8702121,24.9852483 L19.1530167,31.4320523 C19.0955799,31.9483511 19.5005517,32.3744086 20.0585799,32.3744086 Z" id="Shape" fill="#FFFFFF"></path>
                        <path d="M34.8014874,14.7622023 L15.1827178,14.7622023 C14.1589247,14.7622023 13.3289764,15.5921506 13.3289764,16.6159437 L13.3289764,20.8641046 C13.3289764,21.3557469 13.524281,21.8272526 13.8719251,22.1748957 C14.2195692,22.5225387 14.6910756,22.7178418 15.1827178,22.7178402 L17.5567011,22.7178402 L17.9767868,20.1434667 L15.9033557,20.1434667 L15.9033557,17.3365816 L34.0808443,17.3365816 L34.0808443,20.1434667 L32.0074247,20.1434667 L32.4275109,22.7178402 L34.8014874,22.7178402 C35.2931296,22.7178418 35.764636,22.5225387 36.1122801,22.1748957 C36.4599242,21.8272526 36.6552287,21.3557469 36.6552287,20.8641046 L36.6552287,16.6159437 C36.6552287,15.5921506 35.8252805,14.7622023 34.8014874,14.7622023 Z" id="Shape" fill="#FFFFFF"></path>
                        <path d="M31.3039425,17.6253402 L30.6662644,17.6253402 L32.8958218,32.824127 C33.0144828,33.6330351 32.4177989,34.3092707 31.5624425,34.3092707 L30.2671897,34.3092707 L28.6775575,17.6253402 L26.0734885,17.6253402 L26.5399201,34.3092707 L18.4217471,34.3092764 C17.5663908,34.3092764 16.9697241,33.6330408 17.0883851,32.824127 L19.3179483,17.6253402 L18.6802644,17.6253402 L16.2001374,32.824127 C15.9886029,34.1204431 16.932396,35.2220063 18.3134305,35.2220063 L31.670758,35.2220006 C33.0517925,35.2220006 33.9955971,34.1204368 33.7840684,32.824127 L31.3039425,17.6253402 Z" id="Shape" fill="#FFFFFF"></path>
                    </g>
                </g>
            </g>
        </g>
    </g>
</svg>