<svg xmlns="http://www.w3.org/2000/svg" xmlns:xlink="http://www.w3.org/1999/xlink" viewBox="0 0 258.07 226.42"><defs><style>.cls-1{fill:#ec1c24;}.cls-2{fill:#58a2b8;}.cls-3{fill:#03bf6a;}.cls-4{fill:#fabb23;}.cls-5{fill:#f02836;}.cls-6{fill:url(#linear-gradient);}.cls-7{fill:url(#linear-gradient-2);}.cls-8{fill:url(#linear-gradient-3);}.cls-9{fill:url(#linear-gradient-4);}.cls-10{fill:url(#linear-gradient-5);}.cls-11{fill:url(#linear-gradient-6);}.cls-12{fill:url(#linear-gradient-7);}.cls-13{fill:#fff;}.cls-14{fill:url(#New_Gradient_Swatch_1);}.cls-15{clip-path:url(#clip-path);}.cls-16{fill:url(#New_Gradient_Swatch_1-2);}.cls-17{clip-path:url(#clip-path-2);}</style><linearGradient id="linear-gradient" x1="63.07" y1="11.71" x2="37.78" y2="153.36" gradientUnits="userSpaceOnUse"><stop offset="0" stop-color="#65a600"/><stop offset="1" stop-color="#216924"/></linearGradient><linearGradient id="linear-gradient-2" x1="68.46" y1="12.68" x2="43.16" y2="154.32" xlink:href="#linear-gradient"/><linearGradient id="linear-gradient-3" x1="118.16" y1="21.55" x2="92.86" y2="163.2" xlink:href="#linear-gradient"/><linearGradient id="linear-gradient-4" x1="218.58" y1="39.48" x2="193.28" y2="181.13" xlink:href="#linear-gradient"/><linearGradient id="linear-gradient-5" x1="130.18" y1="23.7" x2="104.89" y2="165.35" xlink:href="#linear-gradient"/><linearGradient id="linear-gradient-6" x1="227.69" y1="41.11" x2="202.39" y2="182.76" xlink:href="#linear-gradient"/><linearGradient id="linear-gradient-7" x1="148" y1="26.88" x2="122.71" y2="168.53" xlink:href="#linear-gradient"/><radialGradient id="New_Gradient_Swatch_1" cx="107.93" cy="79.5" r="25.11" gradientUnits="userSpaceOnUse"><stop offset="0.01" stop-color="#fff"/><stop offset="1" stop-color="#fff"/></radialGradient><clipPath id="clip-path"><path class="cls-1" d="M123.07,68.86a.32.32,0,0,0-.36-.47c-1.48.32-3,.62-4.66.88l-2.27.34a.31.31,0,0,1-.3-.15,21.15,21.15,0,0,0-8.18-8.11.41.41,0,0,0-.6.4c.06,1,.1,1.94.1,2.93a42.79,42.79,0,0,1-.36,5.59.24.24,0,0,1-.23.21h-.34c-3.72.16-7.29.14-10.63-.05a.14.14,0,0,0-.07.27c3.16,1.48,6.49,3.24,9.89,5.25a.27.27,0,0,1,.12.31,31.49,31.49,0,0,1-5,10.24.23.23,0,0,0,.25.37,40.23,40.23,0,0,0,12-6.22l.4-.3q1.5-1.15,2.85-2.38a0,0,0,0,1,.08.05c-.42,1.07-.89,2.11-1.39,3.09a.86.86,0,0,0,.26,1.09c1.29.93,2.53,1.86,3.71,2.79a.39.39,0,0,0,.63-.28c0-.6.06-1.21.06-1.83a27.8,27.8,0,0,0-.91-7.07.38.38,0,0,1,.09-.35A37.51,37.51,0,0,0,123.07,68.86Z"/></clipPath><radialGradient id="New_Gradient_Swatch_1-2" cx="210.54" cy="79.5" r="25.11" xlink:href="#New_Gradient_Swatch_1"/><clipPath id="clip-path-2"><path class="cls-1" d="M225.69,68.86a.32.32,0,0,0-.36-.47c-1.48.32-3,.62-4.66.88l-2.27.34a.31.31,0,0,1-.3-.15,21.15,21.15,0,0,0-8.18-8.11.41.41,0,0,0-.6.4c.06,1,.1,1.94.1,2.93a42.79,42.79,0,0,1-.36,5.59.24.24,0,0,1-.23.21h-.34c-3.72.16-7.29.14-10.63-.05a.14.14,0,0,0-.07.27c3.16,1.48,6.49,3.24,9.89,5.25a.27.27,0,0,1,.12.31,31.49,31.49,0,0,1-5,10.24.23.23,0,0,0,.25.37,40.23,40.23,0,0,0,12-6.22l.4-.3q1.5-1.15,2.85-2.38a0,0,0,0,1,.08.05c-.42,1.07-.89,2.11-1.39,3.09a.86.86,0,0,0,.26,1.09c1.29.93,2.53,1.86,3.71,2.79a.39.39,0,0,0,.63-.28c0-.6.06-1.21.06-1.83a27.8,27.8,0,0,0-.91-7.07.38.38,0,0,1,.09-.35A37.51,37.51,0,0,0,225.69,68.86Z"/></clipPath></defs><title>Asset 25</title><g id="Layer_2" data-name="Layer 2"><g id="Layer_1-2" data-name="Layer 1"><polygon class="cls-2" points="68.47 12.68 70.58 20.81 63.68 18.56 61.79 11.5 68.47 12.68"/><polygon class="cls-3" points="74.47 29.32 69.3 31.24 65.77 25.63 71.01 23.71 74.47 29.32"/><polygon class="cls-4" points="50.84 51.32 42.29 52.34 44.73 62.32 53.43 61.14 50.84 51.32"/><polygon class="cls-3" points="39.89 44.35 38.57 49.46 36.18 47.54 38.17 42.91 39.89 44.35"/><polygon class="cls-3" points="37.7 53.68 36.63 59.11 32.76 59.71 32.98 54.71 37.7 53.68"/><path class="cls-5" d="M23.93,54.5s1.19,4.15.65,7-5.17,1.92-5.17,1.92l-1.85-7.82Z"/><polygon class="cls-4" points="20.09 93.05 22.82 99.54 18.36 104.37 16.14 98.58 20.09 93.05"/><polygon class="cls-3" points="25.63 121.93 25.48 125.34 19.08 123.38 20.16 119.43 25.63 121.93"/><path class="cls-3" d="M65.38,108.11c0-.12-3.33,2.26-3.33,2.26l.36,2.63,4.05-2.35-.34-2.52Z"/><polygon class="cls-3" points="83.97 100.57 82.32 103.7 80.82 101.82 82.52 98.28 83.97 100.57"/><polygon class="cls-3" points="78.2 81.73 71.62 85.46 70.24 84 73.63 81.13 76.41 79.5 78.2 81.73"/><polygon class="cls-3" points="86.25 74.31 83.18 78.55 85.39 80.99 88.62 76.68 86.25 74.31"/><polygon class="cls-3" points="6.36 51.52 2.33 52.95 0 49.84 3.79 47.94 6.36 51.52"/><polygon class="cls-3" points="12.94 50.58 12.26 52.09 9.57 51.22 10.69 49.13 12.94 50.58"/><polygon class="cls-3" points="57.12 26.43 52.49 26.46 53.27 29.69 58.55 29.71 57.12 26.43"/><polygon class="cls-3" points="78.03 27.8 81.61 30.02 80.13 33.2 77.71 32.15 78.03 27.8"/><polygon class="cls-3" points="143.32 210.29 133.04 213.16 135.56 205.03 144.48 202.48 143.32 210.29"/><polygon class="cls-5" points="122.37 218.1 119.66 212.2 126.64 207.82 129.35 213.79 122.37 218.1"/><polygon class="cls-5" points="93.08 191.81 91.34 181.93 78.73 185.28 80.67 195.32 93.08 191.81"/><polygon class="cls-4" points="116.74 184.16 111.7 186.08 108.79 180.18 115 177.47 116.74 184.16"/><polygon class="cls-2" points="145.82 193.72 139.83 193.72 140.99 188.62 145.82 189.26 145.82 193.72"/><polygon class="cls-4" points="148.94 195.32 158.25 193.72 158.25 188.62 147.97 189.42 148.94 195.32"/><polygon class="cls-2" points="155.15 179.71 150.1 180.82 148.75 177.47 155.15 176.68 155.15 179.71"/><polygon class="cls-2" points="101.42 178.75 94.83 177.47 97.16 174.61 103.17 176.68 101.42 178.75"/><rect class="cls-4" x="45.18" y="204.08" width="9.31" height="7.49"/><path class="cls-3" d="M88,163s-5.24,1.59-8.92,1.12-2.72-5.9-2.72-5.9l9.89-2.55Z"/><polygon class="cls-2" points="62.63 199.62 53.52 201.85 53.52 199.62 62.63 195.32 62.63 199.62"/><polygon class="cls-5" points="37.03 173.97 28.88 177.47 22.48 172.54 29.75 169.67 37.03 173.97"/><polygon class="cls-2" points="8.22 164.17 3.86 164.17 6.04 156.65 11.13 157.69 8.22 164.17"/><polygon class="cls-3" points="79.72 218.12 73.44 214.89 75.8 212.44 82.2 215.28 79.72 218.12"/><polygon class="cls-2" points="43.06 195.72 48.52 192.13 45.47 187.35 40.95 191.53 43.06 195.72"/><polygon class="cls-2" points="76.6 146.78 74.78 146.78 76.6 143.44 77.4 143.92 76.6 146.78"/><polygon class="cls-2" points="90.56 140.21 88.53 135.61 92.38 132.75 95 137.05 90.56 140.21"/><polygon class="cls-2" points="92.09 147.8 90.12 147.09 91.1 143.92 93.83 145.11 92.09 147.8"/><polygon class="cls-2" points="29.61 137.17 26.12 136.85 27.87 131.36 30.87 131.36 29.61 137.17"/><polygon class="cls-2" points="125.18 197.83 124.89 192.45 120.82 193.53 121.06 199.66 125.18 197.83"/><polygon class="cls-2" points="124.5 222.16 121.83 226.42 117.71 224.87 118.93 222 124.5 222.16"/><polygon class="cls-4" points="99.58 204.08 91.22 202.11 95.8 198.58 103.07 200.56 99.58 204.08"/><polygon class="cls-2" points="215.01 54.67 205.13 57.43 207.55 49.62 216.13 47.17 215.01 54.67"/><polygon class="cls-2" points="189.46 29.55 184.61 31.39 181.81 25.73 187.78 23.12 189.46 29.55"/><polygon class="cls-5" points="217.42 38.74 211.65 38.74 212.77 33.84 217.42 34.46 217.42 38.74"/><polygon class="cls-3" points="220.41 40.27 229.37 38.74 229.37 33.84 219.48 34.61 220.41 40.27"/><polygon class="cls-2" points="226.38 25.27 221.54 26.34 220.22 23.12 226.38 22.36 226.38 25.27"/><polygon class="cls-4" points="174.73 24.35 168.39 23.12 170.63 20.37 176.41 22.36 174.73 24.35"/><polygon class="cls-3" points="163.17 22.36 156.46 21.44 155.53 17.15 161.67 17.15 163.17 22.36"/><polygon class="cls-3" points="118.6 48.7 111.33 44.41 111.33 32.62 119.53 37.06 118.6 48.7"/><path class="cls-3" d="M161.49,7s-5,1.53-8.58,1.07-2.61-5.67-2.61-5.67L159.81,0Z"/><polygon class="cls-5" points="137.44 44.41 128.67 46.56 128.67 44.41 137.44 40.27 137.44 44.41"/><polygon class="cls-2" points="112.82 19.75 104.99 23.12 98.84 18.37 105.83 15.62 112.82 19.75"/><polygon class="cls-5" points="85.13 10.34 80.93 10.34 83.03 3.1 87.93 4.1 85.13 10.34"/><polygon class="cls-5" points="105.83 43.42 100.79 47.89 97.72 45.65 102.47 40.66 105.83 43.42"/><path class="cls-5" d="M97.72,55.9c.14,0-2.94-3.6-2.94-3.6l-3.22.53,3.08,4.4,3.08-.5Z"/><polygon class="cls-5" points="107.88 76.27 103.96 74.58 106.2 72.82 110.63 74.54 107.88 76.27"/><polygon class="cls-4" points="130.72 68.92 125.83 61.76 127.55 60.15 131.24 63.78 133.38 66.81 130.72 68.92"/><polygon class="cls-5" points="140.23 77.53 134.87 74.31 131.98 76.9 137.44 80.29 140.23 77.53"/><polygon class="cls-5" points="157.2 41.12 152.68 39.74 150.4 42.84 154.59 44.28 157.2 41.12"/><polygon class="cls-5" points="197.57 42.69 197.29 37.52 193.38 38.55 193.61 44.45 197.57 42.69"/><polygon class="cls-4" points="196.92 66.08 194.36 70.18 190.39 68.69 191.56 65.93 196.92 66.08"/><polygon class="cls-5" points="191.65 64.82 188.01 64.13 188.86 61.33 193.19 62.2 191.65 64.82"/><polygon class="cls-2" points="172.96 48.7 164.92 46.8 169.32 43.42 176.32 45.31 172.96 48.7"/><polygon class="cls-5" points="220.58 182.28 218.35 175.48 224.32 177.05 226.3 182.96 220.58 182.28"/><polygon class="cls-4" points="214.61 168.46 218.88 166.58 222.17 171.17 217.84 173.04 214.61 168.46"/><polygon class="cls-2" points="239.35 164.29 237.89 160.97 242.16 158.96 244.22 163.05 239.35 164.29"/><rect class="cls-5" x="219.58" y="117.03" width="5.48" height="6.19" transform="translate(-2.2 4.16) rotate(-1.07)"/><polygon class="cls-3" points="223.85 113.33 227.01 108.25 235.99 108.09 232.72 113.83 223.85 113.33"/><path class="cls-4" d="M233.7,137l-1.36-2.75,1.86-3.42s3.47,1.49,3.18,3.33S233.7,137,233.7,137Z"/><polygon class="cls-5" points="245.79 111.19 243.13 105.82 246.66 101.5 248.85 106.3 245.79 111.19"/><polygon class="cls-2" points="252.59 91.92 252.54 89.02 258.07 90.38 257.37 93.78 252.59 91.92"/><path class="cls-4" d="M218.1,101.22c0,.1,2.7-2.07,2.7-2.07l-.44-2.22L217,99.12l.42,2.12Z"/><polygon class="cls-4" points="202.75 108.52 203.97 105.79 205.34 107.31 204.09 110.4 202.75 108.52"/><polygon class="cls-4" points="208.63 124.21 214.02 120.73 215.26 121.9 212.54 124.5 210.27 126.02 208.63 124.21"/><polygon class="cls-4" points="229.46 170.07 233.39 169.81 232.56 167.12 228.07 167.35 229.46 170.07"/><polygon class="cls-4" points="211.66 169.93 208.51 168.21 209.6 165.45 211.71 166.22 211.66 169.93"/><path class="cls-6" d="M61.26,59.07c0-4.22-2.62-6.24-7.59-6.24H48.94V65.49h5.48C59.15,65.49,61.26,62.7,61.26,59.07Z"/><path class="cls-7" d="M64,83.12c0-4.39-2.79-7.17-9.37-7.17H48.94V89.87h6.83C60.76,89.87,64,87.43,64,83.12Z"/><path class="cls-8" d="M108.18,91.31c5.91,0,8.35-4.89,8.35-11.81,0-8.69-2.7-12.66-8.77-12.66s-8.52,4.89-8.52,11.9C99.23,87.68,101.93,91.31,108.18,91.31Z"/><path class="cls-9" d="M211.8,91.31c5.91,0,8.35-4.89,8.35-11.81,0-8.69-2.7-12.66-8.77-12.66s-8.52,4.89-8.52,11.9C202.85,87.68,205.55,91.31,211.8,91.31Z"/><path class="cls-10" d="M106,143.27c-7.29,0-10.23,5.88-10.23,14.29,0,10.74,3.24,15.1,10.74,15.1,7.09,0,10-5.88,10-14.18C116.59,148,113.35,143.27,106,143.27Z"/><path class="cls-11" d="M206.67,143.27c-7.3,0-10.23,5.88-10.23,14.29,0,10.74,3.24,15.1,10.74,15.1,7.09,0,10-5.88,10-14.18C217.2,148,214,143.27,206.67,143.27Z"/><path class="cls-12" d="M213.57,116.27c21.24-1.09,35.33-15.93,35.33-37.62,0-22.43-14.5-36.93-36.93-36.93-10.23,0-18.84,3-25.25,8.35-3.9-4-10.69-8.35-21.75-8.35a34,34,0,0,0-11.61,1.88,14,14,0,0,0-3.83-.53H138.81A14,14,0,0,0,129.08,47a39.91,39.91,0,0,0-20.73-5.28,41,41,0,0,0-20.12,4.83C85,37.92,76.56,28,54.34,28H34.51A14.06,14.06,0,0,0,20.45,42v58.9a14,14,0,0,0,1.49,6.28,14,14,0,0,0-1.49,6.28V184.2a14.06,14.06,0,0,0,14.06,14.06H74.23a14,14,0,0,0,9.21-3.45c6.16,3.3,13.63,5.07,22.2,5.07,12.72,0,23.45-4.07,31.09-11.75,4.92,7.42,13.31,11.65,24.24,11.65,5,0,12.11-.62,16.92-2.35a14,14,0,0,0,5.1-3.22c6.36,3.68,14.2,5.67,23.28,5.67,12.83,0,23.65-4.14,31.3-12,7.42-7.59,11.34-18.13,11.34-30.47C248.9,134,235.52,118.66,213.57,116.27ZM212,55.78c15.36,0,22.87,8.69,22.87,22.87,0,14.34-8.35,23.63-23.79,23.63-7,0-12.35-1.77-16.06-4.94V73.08a40.53,40.53,0,0,0-1.23-10.19C197.73,58.33,203.83,55.78,212,55.78Zm-61.35,6.07c4.3-4.22,8.18-6.07,14.34-6.07s10.45,2,13,5.74a43.28,43.28,0,0,0-3.79,18.39c0,9.42,2.52,16.23,5.52,21h-13V76.12c0-5.82-1.43-8.86-5.48-8.86-3.46,0-5.4,1.69-8.27,4.73v28.94H139c4.06-6,6.31-13.61,6.31-22.28,0-8.4.57-13.71-3.15-19.54l7.4-2Zm-42.27-6.07c7.18,0,12.61,1.92,16.4,5.39v35c-4,3.9-9.82,6.1-17.33,6.1-7.69,0-13.3-2.1-17-5.83a31.72,31.72,0,0,0,3-13.83,28.22,28.22,0,0,0-4.94-16.3q.41-1.11.72-2.26C93.08,58.76,99.53,55.78,108.35,55.78ZM36.65,45.11,54.34,42C67.67,42,76,46.25,76,57a14,14,0,0,1-.1,1.59,36.16,36.16,0,0,0-3.14,6.94,13,13,0,0,1-5.2,3.37,15.8,15.8,0,0,1,4,1.19,48.2,48.2,0,0,0-1,9.87,41.7,41.7,0,0,0,2.86,15.77c-3.86,3.08-9.27,4.61-15.11,5.08a14,14,0,0,0-6-1.35H34.51ZM34.51,115l16,2.29L52.35,170h13A38.77,38.77,0,0,0,71.4,184.2H34.51Zm71.13,70.83c-7.31,0-13-1.59-17.35-4.46V170a14.07,14.07,0,0,0-9.93-13.44C79.23,140.07,89,130,106.76,130c7.63,0,13.62,1.81,18.06,5.11v9.27a14.06,14.06,0,0,0,7,12.16V170c0,.15,0,.29,0,.43C127.85,180.06,119,185.82,105.64,185.82ZM146,172.69a49.58,49.58,0,0,0,2.28-15.24c0-10.33.16-16.82-4.6-23.58l2.09-2.25,4.05-15.1,11.3,3.11,1.67,12,7.31,1.13c-2.73,3.7-1.89,6.85-3.28,11.63h-4v19.35c0,5.26.82,7.51,3.64,8.23a38,38,0,0,0,5.78,12.52A48.06,48.06,0,0,1,161,185.72C152.69,185.72,146.9,182.28,146,172.69Zm60.26,13.13c-8.32,0-14.62-2-19.07-5.73v-7.85a14.06,14.06,0,0,0-8.27-12.82c0-.15,0-.3,0-.46,0-.61,0-1.2.06-1.8a14.06,14.06,0,0,0,8.22-12.8v-7.59c4.76-4.37,11.5-6.8,20.19-6.8,18.44,0,27.46,10.44,27.46,27.46C234.83,174.68,224.8,185.82,206.26,185.82Z"/><path class="cls-13" d="M54.34,100.93H34.51V49.69A7.66,7.66,0,0,1,42.18,42H54.34C67.67,42,76,46.25,76,57a12.27,12.27,0,0,1-8.44,11.9c6.75,1.1,11.73,6,11.73,13.75C79.32,96.37,67.25,100.93,54.34,100.93Zm-.68-48.1H48.94V65.49h5.48c4.73,0,6.84-2.78,6.84-6.41C61.26,54.86,58.65,52.83,53.67,52.83Zm.93,23.12H48.94V89.87h6.83c5,0,8.19-2.45,8.19-6.75S61.18,75.95,54.6,75.95Z"/><path class="cls-13" d="M107.42,102.28c-15.7,0-22.78-8.69-22.78-22.36,0-14.93,8.18-24.13,23.71-24.13,15.36,0,22.87,8.69,22.87,22.87C131.21,93,122.86,102.28,107.42,102.28Zm.34-35.44c-6.08,0-8.52,4.89-8.52,11.9,0,8.94,2.7,12.57,8.94,12.57,5.91,0,8.35-4.89,8.35-11.81C116.53,70.8,113.83,66.84,107.76,66.84Z"/><path class="cls-13" d="M166.74,100.93V76.12c0-5.82-1.43-8.86-5.48-8.86-3.46,0-5.4,1.69-8.27,4.73v28.94H138.81v-38a5.75,5.75,0,0,1,5.75-5.75h5l1.1,4.72c4.3-4.22,8.18-6.07,14.34-6.07,10.89,0,15.95,6.24,15.95,17.3v27.84Z"/><path class="cls-13" d="M211,102.28c-15.7,0-22.78-8.69-22.78-22.36,0-14.93,8.18-24.13,23.71-24.13,15.36,0,22.87,8.69,22.87,22.87C234.83,93,226.48,102.28,211,102.28Zm.34-35.44c-6.08,0-8.52,4.89-8.52,11.9,0,8.94,2.7,12.57,8.94,12.57,5.91,0,8.35-4.89,8.35-11.81C220.15,70.8,217.45,66.84,211.38,66.84Z"/><path class="cls-13" d="M34.51,184.2V113.48h10.4a7.43,7.43,0,0,1,7.43,7.43V170H68.86a5.37,5.37,0,0,1,5.37,5.37v8.81Z"/><path class="cls-13" d="M105.64,185.82c-18.85,0-27.36-10.44-27.36-26.85,0-17.93,9.83-29,28.47-29,18.44,0,27.46,10.44,27.46,27.46C134.22,174.68,124.19,185.82,105.64,185.82Zm.41-42.56c-7.29,0-10.23,5.88-10.23,14.29,0,10.74,3.24,15.1,10.74,15.1,7.09,0,10-5.88,10-14.18C116.59,148,113.35,143.27,106,143.27Z"/><path class="cls-13" d="M161,185.72c-9,0-15.1-4.05-15.1-15.71V144.38h-2.8a4.2,4.2,0,0,1-4.2-4.2v-3.84a4.73,4.73,0,0,1,4.73-4.73h2.16l4.05-15.1h8.53a4.44,4.44,0,0,1,4.44,4.44v10.65H169a4.15,4.15,0,0,1,4.15,4.15v3.68a4.94,4.94,0,0,1-4.94,4.94h-5.4v19.35c0,6.69,1.32,8.51,6.38,8.51h4v12C170.59,185.11,165.43,185.72,161,185.72Z"/><path class="cls-13" d="M206.26,185.82c-18.85,0-27.36-10.44-27.36-26.85,0-17.93,9.83-29,28.47-29,18.44,0,27.46,10.44,27.46,27.46C234.83,174.68,224.8,185.82,206.26,185.82Zm.41-42.56c-7.3,0-10.23,5.88-10.23,14.29,0,10.74,3.24,15.1,10.74,15.1,7.09,0,10-5.88,10-14.18C217.2,148,214,143.27,206.67,143.27Z"/><circle class="cls-14" cx="107.93" cy="79.5" r="25.11"/><path class="cls-1" d="M123.07,68.86a.32.32,0,0,0-.36-.47c-1.48.32-3,.62-4.66.88l-2.27.34a.31.31,0,0,1-.3-.15,21.15,21.15,0,0,0-8.18-8.11.41.41,0,0,0-.6.4c.06,1,.1,1.94.1,2.93a42.79,42.79,0,0,1-.36,5.59.24.24,0,0,1-.23.21h-.34c-3.72.16-7.29.14-10.63-.05a.14.14,0,0,0-.07.27c3.16,1.48,6.49,3.24,9.89,5.25a.27.27,0,0,1,.12.31,31.49,31.49,0,0,1-5,10.24.23.23,0,0,0,.25.37,40.23,40.23,0,0,0,12-6.22l.4-.3q1.5-1.15,2.85-2.38a0,0,0,0,1,.08.05c-.42,1.07-.89,2.11-1.39,3.09a.86.86,0,0,0,.26,1.09c1.29.93,2.53,1.86,3.71,2.79a.39.39,0,0,0,.63-.28c0-.6.06-1.21.06-1.83a27.8,27.8,0,0,0-.91-7.07.38.38,0,0,1,.09-.35A37.51,37.51,0,0,0,123.07,68.86Z"/><g class="cls-15"><rect class="cls-1" x="95.03" y="61.17" width="28.19" height="25.74"/><circle class="cls-1" cx="109.1" cy="74.07" r="13.42"/><circle class="cls-1" cx="109.1" cy="74.07" r="13.36"/><circle class="cls-1" cx="109.1" cy="74.07" r="13.3"/><circle class="cls-1" cx="109.1" cy="74.07" r="13.25"/><circle class="cls-1" cx="109.1" cy="74.07" r="13.19"/><circle class="cls-1" cx="109.1" cy="74.07" r="13.13"/><circle class="cls-1" cx="109.1" cy="74.07" r="13.08"/><circle class="cls-1" cx="109.1" cy="74.07" r="13.02"/><circle class="cls-1" cx="109.1" cy="74.07" r="12.97"/><circle class="cls-1" cx="109.1" cy="74.07" r="12.91"/><circle class="cls-1" cx="109.1" cy="74.07" r="12.85"/><circle class="cls-1" cx="109.1" cy="74.07" r="12.8"/><circle class="cls-1" cx="109.1" cy="74.07" r="12.74"/><circle class="cls-1" cx="109.1" cy="74.07" r="12.68"/><circle class="cls-1" cx="109.1" cy="74.07" r="12.63"/><circle class="cls-1" cx="109.1" cy="74.07" r="12.57"/><circle class="cls-1" cx="109.1" cy="74.07" r="12.51"/><circle class="cls-1" cx="109.1" cy="74.07" r="12.46"/><circle class="cls-1" cx="109.1" cy="74.07" r="12.4"/><circle class="cls-1" cx="109.1" cy="74.07" r="12.34"/><circle class="cls-1" cx="109.1" cy="74.07" r="12.29"/><circle class="cls-1" cx="109.1" cy="74.07" r="12.23"/><circle class="cls-1" cx="109.1" cy="74.07" r="12.17"/><circle class="cls-1" cx="109.1" cy="74.07" r="12.12"/><circle class="cls-1" cx="109.1" cy="74.07" r="12.06"/><circle class="cls-1" cx="109.1" cy="74.07" r="12"/><circle class="cls-1" cx="109.1" cy="74.07" r="11.95"/><circle class="cls-1" cx="109.1" cy="74.07" r="11.89"/><circle class="cls-1" cx="109.1" cy="74.07" r="11.84"/><circle class="cls-1" cx="109.1" cy="74.07" r="11.78"/><circle class="cls-1" cx="109.1" cy="74.07" r="11.72"/><circle class="cls-1" cx="109.1" cy="74.07" r="11.67"/><circle class="cls-1" cx="109.1" cy="74.07" r="11.61"/><circle class="cls-1" cx="109.1" cy="74.07" r="11.55"/><circle class="cls-1" cx="109.1" cy="74.07" r="11.5"/><circle class="cls-1" cx="109.1" cy="74.07" r="11.44"/><circle class="cls-1" cx="109.1" cy="74.07" r="11.38"/><circle class="cls-1" cx="109.1" cy="74.07" r="11.33"/><circle class="cls-1" cx="109.1" cy="74.07" r="11.27"/><circle class="cls-1" cx="109.1" cy="74.07" r="11.21"/><circle class="cls-1" cx="109.1" cy="74.07" r="11.16"/><circle class="cls-1" cx="109.1" cy="74.07" r="11.1"/><circle class="cls-1" cx="109.1" cy="74.07" r="11.05"/><circle class="cls-1" cx="109.1" cy="74.07" r="10.99"/><circle class="cls-1" cx="109.1" cy="74.07" r="10.93"/><circle class="cls-1" cx="109.1" cy="74.07" r="10.88"/><circle class="cls-1" cx="109.1" cy="74.07" r="10.82"/><circle class="cls-1" cx="109.1" cy="74.07" r="10.67"/><circle class="cls-1" cx="109.1" cy="74.07" r="10.52"/><circle class="cls-1" cx="109.1" cy="74.07" r="10.37"/><circle class="cls-1" cx="109.1" cy="74.07" r="10.23"/><circle class="cls-1" cx="109.1" cy="74.07" r="10.08"/><circle class="cls-1" cx="109.1" cy="74.07" r="9.93"/><circle class="cls-1" cx="109.1" cy="74.07" r="9.78"/><circle class="cls-1" cx="109.1" cy="74.07" r="9.63"/><circle class="cls-1" cx="109.1" cy="74.07" r="9.49"/><circle class="cls-1" cx="109.1" cy="74.07" r="9.34"/><circle class="cls-1" cx="109.1" cy="74.07" r="9.19"/><circle class="cls-1" cx="109.1" cy="74.07" r="9.04"/><circle class="cls-1" cx="109.1" cy="74.07" r="8.89"/><circle class="cls-1" cx="109.1" cy="74.07" r="8.75"/><circle class="cls-1" cx="109.1" cy="74.07" r="8.6"/><circle class="cls-1" cx="109.1" cy="74.07" r="8.45"/><circle class="cls-1" cx="109.1" cy="74.07" r="8.3"/><circle class="cls-1" cx="109.1" cy="74.07" r="8.15"/><circle class="cls-1" cx="109.1" cy="74.07" r="8.01"/><circle class="cls-1" cx="109.1" cy="74.07" r="7.86"/><circle class="cls-1" cx="109.1" cy="74.07" r="7.71"/><circle class="cls-1" cx="109.1" cy="74.07" r="7.56"/><circle class="cls-1" cx="109.1" cy="74.07" r="7.41"/><circle class="cls-1" cx="109.1" cy="74.07" r="7.26"/><circle class="cls-1" cx="109.1" cy="74.07" r="7.12"/><circle class="cls-1" cx="109.1" cy="74.07" r="6.97"/><circle class="cls-1" cx="109.1" cy="74.07" r="6.82"/><circle class="cls-1" cx="109.1" cy="74.07" r="6.67"/><circle class="cls-1" cx="109.1" cy="74.07" r="6.52"/><circle class="cls-1" cx="109.1" cy="74.07" r="6.38"/><circle class="cls-1" cx="109.1" cy="74.07" r="6.23"/><circle class="cls-1" cx="109.1" cy="74.07" r="6.08"/><circle class="cls-1" cx="109.1" cy="74.07" r="5.93"/><circle class="cls-1" cx="109.1" cy="74.07" r="5.78"/><circle class="cls-1" cx="109.1" cy="74.07" r="5.63"/><circle class="cls-1" cx="109.1" cy="74.07" r="5.49"/><circle class="cls-1" cx="109.1" cy="74.07" r="5.34"/><circle class="cls-1" cx="109.1" cy="74.07" r="5.19"/><circle class="cls-1" cx="109.1" cy="74.07" r="5.04"/><circle class="cls-1" cx="109.1" cy="74.07" r="4.89"/><circle class="cls-1" cx="109.1" cy="74.07" r="4.75"/><circle class="cls-1" cx="109.1" cy="74.07" r="4.6"/><circle class="cls-1" cx="109.1" cy="74.07" r="4.45"/><circle class="cls-1" cx="109.1" cy="74.07" r="4.3"/><circle class="cls-1" cx="109.1" cy="74.07" r="4.15"/><circle class="cls-1" cx="109.1" cy="74.07" r="4.01"/><circle class="cls-1" cx="109.1" cy="74.07" r="3.86"/><circle class="cls-1" cx="109.1" cy="74.07" r="3.71"/><circle class="cls-1" cx="109.1" cy="74.07" r="3.56"/><circle class="cls-1" cx="109.1" cy="74.07" r="3.41"/><circle class="cls-1" cx="109.1" cy="74.07" r="3.27"/><circle class="cls-1" cx="109.1" cy="74.07" r="3.12"/><circle class="cls-1" cx="109.1" cy="74.07" r="2.97"/><circle class="cls-1" cx="109.1" cy="74.07" r="2.82"/><circle class="cls-1" cx="109.1" cy="74.07" r="2.67"/></g><path class="cls-1" d="M100.32,87.45a.81.81,0,0,1-.73-.46.82.82,0,0,1,.09-.87,31.07,31.07,0,0,0,4.86-9.81c-3.24-1.92-6.48-3.63-9.62-5.11a.73.73,0,0,1,.31-1.39h0c1.86.1,3.79.16,5.73.16,1.59,0,3.22,0,4.84-.1h0a42,42,0,0,0,.32-5.22c0-1,0-1.93-.1-2.89a1,1,0,0,1,1.47-1A21.73,21.73,0,0,1,115.9,69l2.06-.31c1.6-.26,3.16-.55,4.63-.87a.93.93,0,0,1,1,.44.9.9,0,0,1,0,.91,38.26,38.26,0,0,1-4.89,6.59,28.41,28.41,0,0,1,.9,7.11c0,.62,0,1.25-.06,1.87a1,1,0,0,1-1,.91h0a1,1,0,0,1-.61-.21c-1.17-.92-2.41-1.86-3.69-2.78a1.44,1.44,0,0,1-.44-1.84c.15-.29.3-.59.44-.9q-.55.45-1.1.87l-.36.27,0,0a41.17,41.17,0,0,1-12.19,6.32A.82.82,0,0,1,100.32,87.45ZM97.4,71.1c2.62,1.3,5.29,2.75,8,4.33a.86.86,0,0,1,.39,1,33,33,0,0,1-4.47,9.53A40.48,40.48,0,0,0,112,80.15l0,0,.35-.26c1-.74,1.92-1.53,2.82-2.35a.64.64,0,0,1,1,.7c-.43,1.08-.9,2.14-1.41,3.14a.27.27,0,0,0,.08.35c1.18.85,2.33,1.71,3.43,2.57,0-.47,0-.95,0-1.41a27.16,27.16,0,0,0-.89-6.92,1,1,0,0,1,.22-.9,37.32,37.32,0,0,0,4.51-6c-1.31.28-2.69.53-4.1.76l-2.29.34a.9.9,0,0,1-.89-.44A20.65,20.65,0,0,0,107.31,62c.05.88.08,1.77.08,2.66a43.68,43.68,0,0,1-.37,5.66.83.83,0,0,1-.79.72l-.34,0c-1.64.07-3.28.11-4.89.11C99.79,71.16,98.58,71.14,97.4,71.1Z"/><circle class="cls-16" cx="210.54" cy="79.5" r="25.11"/><path class="cls-1" d="M225.69,68.86a.32.32,0,0,0-.36-.47c-1.48.32-3,.62-4.66.88l-2.27.34a.31.31,0,0,1-.3-.15,21.15,21.15,0,0,0-8.18-8.11.41.41,0,0,0-.6.4c.06,1,.1,1.94.1,2.93a42.79,42.79,0,0,1-.36,5.59.24.24,0,0,1-.23.21h-.34c-3.72.16-7.29.14-10.63-.05a.14.14,0,0,0-.07.27c3.16,1.48,6.49,3.24,9.89,5.25a.27.27,0,0,1,.12.31,31.49,31.49,0,0,1-5,10.24.23.23,0,0,0,.25.37,40.23,40.23,0,0,0,12-6.22l.4-.3q1.5-1.15,2.85-2.38a0,0,0,0,1,.08.05c-.42,1.07-.89,2.11-1.39,3.09a.86.86,0,0,0,.26,1.09c1.29.93,2.53,1.86,3.71,2.79a.39.39,0,0,0,.63-.28c0-.6.06-1.21.06-1.83a27.8,27.8,0,0,0-.91-7.07.38.38,0,0,1,.09-.35A37.51,37.51,0,0,0,225.69,68.86Z"/><g class="cls-17"><rect class="cls-1" x="197.64" y="61.17" width="28.19" height="25.74"/><circle class="cls-1" cx="211.72" cy="74.07" r="13.42"/><circle class="cls-1" cx="211.72" cy="74.07" r="13.36"/><circle class="cls-1" cx="211.72" cy="74.07" r="13.3"/><circle class="cls-1" cx="211.72" cy="74.07" r="13.25"/><circle class="cls-1" cx="211.72" cy="74.07" r="13.19"/><circle class="cls-1" cx="211.72" cy="74.07" r="13.13"/><circle class="cls-1" cx="211.72" cy="74.07" r="13.08"/><circle class="cls-1" cx="211.72" cy="74.07" r="13.02"/><circle class="cls-1" cx="211.72" cy="74.07" r="12.97"/><circle class="cls-1" cx="211.72" cy="74.07" r="12.91"/><circle class="cls-1" cx="211.72" cy="74.07" r="12.85"/><circle class="cls-1" cx="211.72" cy="74.07" r="12.8"/><circle class="cls-1" cx="211.72" cy="74.07" r="12.74"/><circle class="cls-1" cx="211.72" cy="74.07" r="12.68"/><circle class="cls-1" cx="211.72" cy="74.07" r="12.63"/><circle class="cls-1" cx="211.72" cy="74.07" r="12.57"/><circle class="cls-1" cx="211.72" cy="74.07" r="12.51"/><circle class="cls-1" cx="211.72" cy="74.07" r="12.46"/><circle class="cls-1" cx="211.72" cy="74.07" r="12.4"/><circle class="cls-1" cx="211.72" cy="74.07" r="12.34"/><circle class="cls-1" cx="211.72" cy="74.07" r="12.29"/><circle class="cls-1" cx="211.72" cy="74.07" r="12.23"/><circle class="cls-1" cx="211.72" cy="74.07" r="12.17"/><circle class="cls-1" cx="211.72" cy="74.07" r="12.12"/><circle class="cls-1" cx="211.72" cy="74.07" r="12.06"/><circle class="cls-1" cx="211.72" cy="74.07" r="12"/><circle class="cls-1" cx="211.72" cy="74.07" r="11.95"/><circle class="cls-1" cx="211.72" cy="74.07" r="11.89"/><circle class="cls-1" cx="211.72" cy="74.07" r="11.84"/><circle class="cls-1" cx="211.72" cy="74.07" r="11.78"/><circle class="cls-1" cx="211.72" cy="74.07" r="11.72"/><circle class="cls-1" cx="211.72" cy="74.07" r="11.67"/><circle class="cls-1" cx="211.72" cy="74.07" r="11.61"/><circle class="cls-1" cx="211.72" cy="74.07" r="11.55"/><circle class="cls-1" cx="211.72" cy="74.07" r="11.5"/><circle class="cls-1" cx="211.72" cy="74.07" r="11.44"/><circle class="cls-1" cx="211.72" cy="74.07" r="11.38"/><circle class="cls-1" cx="211.72" cy="74.07" r="11.33"/><circle class="cls-1" cx="211.72" cy="74.07" r="11.27"/><circle class="cls-1" cx="211.72" cy="74.07" r="11.21"/><circle class="cls-1" cx="211.72" cy="74.07" r="11.16"/><circle class="cls-1" cx="211.72" cy="74.07" r="11.1"/><circle class="cls-1" cx="211.72" cy="74.07" r="11.05"/><circle class="cls-1" cx="211.72" cy="74.07" r="10.99"/><circle class="cls-1" cx="211.72" cy="74.07" r="10.93"/><circle class="cls-1" cx="211.72" cy="74.07" r="10.88"/><circle class="cls-1" cx="211.72" cy="74.07" r="10.82"/><circle class="cls-1" cx="211.72" cy="74.07" r="10.67"/><circle class="cls-1" cx="211.72" cy="74.07" r="10.52"/><circle class="cls-1" cx="211.72" cy="74.07" r="10.37"/><circle class="cls-1" cx="211.72" cy="74.07" r="10.23"/><circle class="cls-1" cx="211.72" cy="74.07" r="10.08"/><circle class="cls-1" cx="211.72" cy="74.07" r="9.93"/><circle class="cls-1" cx="211.72" cy="74.07" r="9.78"/><circle class="cls-1" cx="211.72" cy="74.07" r="9.63"/><circle class="cls-1" cx="211.72" cy="74.07" r="9.49"/><circle class="cls-1" cx="211.72" cy="74.07" r="9.34"/><circle class="cls-1" cx="211.72" cy="74.07" r="9.19"/><circle class="cls-1" cx="211.72" cy="74.07" r="9.04"/><circle class="cls-1" cx="211.72" cy="74.07" r="8.89"/><circle class="cls-1" cx="211.72" cy="74.07" r="8.75"/><circle class="cls-1" cx="211.72" cy="74.07" r="8.6"/><circle class="cls-1" cx="211.72" cy="74.07" r="8.45"/><circle class="cls-1" cx="211.72" cy="74.07" r="8.3"/><circle class="cls-1" cx="211.72" cy="74.07" r="8.15"/><circle class="cls-1" cx="211.72" cy="74.07" r="8.01"/><circle class="cls-1" cx="211.72" cy="74.07" r="7.86"/><circle class="cls-1" cx="211.72" cy="74.07" r="7.71"/><circle class="cls-1" cx="211.72" cy="74.07" r="7.56"/><circle class="cls-1" cx="211.72" cy="74.07" r="7.41"/><circle class="cls-1" cx="211.72" cy="74.07" r="7.26"/><circle class="cls-1" cx="211.72" cy="74.07" r="7.12"/><circle class="cls-1" cx="211.72" cy="74.07" r="6.97"/><circle class="cls-1" cx="211.72" cy="74.07" r="6.82"/><circle class="cls-1" cx="211.72" cy="74.07" r="6.67"/><circle class="cls-1" cx="211.72" cy="74.07" r="6.52"/><circle class="cls-1" cx="211.72" cy="74.07" r="6.38"/><circle class="cls-1" cx="211.72" cy="74.07" r="6.23"/><circle class="cls-1" cx="211.72" cy="74.07" r="6.08"/><circle class="cls-1" cx="211.72" cy="74.07" r="5.93"/><circle class="cls-1" cx="211.72" cy="74.07" r="5.78"/><circle class="cls-1" cx="211.72" cy="74.07" r="5.63"/><circle class="cls-1" cx="211.72" cy="74.07" r="5.49"/><circle class="cls-1" cx="211.72" cy="74.07" r="5.34"/><circle class="cls-1" cx="211.72" cy="74.07" r="5.19"/><circle class="cls-1" cx="211.72" cy="74.07" r="5.04"/><circle class="cls-1" cx="211.72" cy="74.07" r="4.89"/><circle class="cls-1" cx="211.72" cy="74.07" r="4.75"/><circle class="cls-1" cx="211.72" cy="74.07" r="4.6"/><circle class="cls-1" cx="211.72" cy="74.07" r="4.45"/><circle class="cls-1" cx="211.72" cy="74.07" r="4.3"/><circle class="cls-1" cx="211.72" cy="74.07" r="4.15"/><circle class="cls-1" cx="211.72" cy="74.07" r="4.01"/><circle class="cls-1" cx="211.72" cy="74.07" r="3.86"/><circle class="cls-1" cx="211.72" cy="74.07" r="3.71"/><circle class="cls-1" cx="211.72" cy="74.07" r="3.56"/><circle class="cls-1" cx="211.72" cy="74.07" r="3.41"/><circle class="cls-1" cx="211.72" cy="74.07" r="3.27"/><circle class="cls-1" cx="211.72" cy="74.07" r="3.12"/><circle class="cls-1" cx="211.72" cy="74.07" r="2.97"/><circle class="cls-1" cx="211.72" cy="74.07" r="2.82"/><circle class="cls-1" cx="211.72" cy="74.07" r="2.67"/></g><path class="cls-1" d="M202.94,87.45a.81.81,0,0,1-.73-.46.82.82,0,0,1,.09-.87,31.07,31.07,0,0,0,4.86-9.81c-3.24-1.92-6.48-3.63-9.62-5.11a.73.73,0,0,1,.31-1.39h0c1.86.1,3.79.16,5.73.16,1.59,0,3.22,0,4.84-.1h0a42,42,0,0,0,.32-5.22c0-1,0-1.93-.1-2.89a1,1,0,0,1,1.47-1A21.73,21.73,0,0,1,218.52,69l2.06-.31c1.6-.26,3.16-.55,4.63-.87a.93.93,0,0,1,1,.44.9.9,0,0,1,0,.91,38.26,38.26,0,0,1-4.89,6.59,28.41,28.41,0,0,1,.9,7.11c0,.62,0,1.25-.06,1.87a1,1,0,0,1-1,.91h0a1,1,0,0,1-.61-.21c-1.17-.92-2.41-1.86-3.69-2.78a1.44,1.44,0,0,1-.44-1.84c.15-.29.3-.59.44-.9q-.55.45-1.1.87l-.36.27,0,0a41.17,41.17,0,0,1-12.19,6.32A.82.82,0,0,1,202.94,87.45ZM200,71.1c2.62,1.3,5.29,2.75,8,4.33a.86.86,0,0,1,.39,1,33,33,0,0,1-4.47,9.53,40.48,40.48,0,0,0,10.78-5.78l0,0,.35-.26c1-.74,1.92-1.53,2.82-2.35a.64.64,0,0,1,1,.7c-.43,1.08-.9,2.14-1.41,3.14a.27.27,0,0,0,.08.35c1.18.85,2.33,1.71,3.43,2.57,0-.47,0-.95,0-1.41a27.16,27.16,0,0,0-.89-6.92,1,1,0,0,1,.22-.9,37.32,37.32,0,0,0,4.51-6c-1.31.28-2.69.53-4.1.76l-2.29.34a.9.9,0,0,1-.89-.44A20.65,20.65,0,0,0,209.92,62c.05.88.08,1.77.08,2.66a43.68,43.68,0,0,1-.37,5.66.83.83,0,0,1-.79.72l-.34,0c-1.64.07-3.28.11-4.89.11C202.41,71.16,201.2,71.14,200,71.1Z"/></g></g></svg>