<svg xmlns="http://www.w3.org/2000/svg" xmlns:xlink="http://www.w3.org/1999/xlink" viewBox="0 0 349.58 177.07"><defs><style>.cls-1{fill:url(#New_Gradient_Swatch_copy);}.cls-2,.cls-3,.cls-5{fill:#00a3e4;}.cls-3,.cls-5{stroke:#216ffa;}.cls-3{stroke-miterlimit:10;}.cls-4{fill:#216ffa;}.cls-5{stroke-linecap:round;stroke-linejoin:round;stroke-width:7px;}.cls-6{fill:url(#New_Gradient_Swatch_1);}.cls-7{fill:#fff;}.cls-8{fill:url(#New_Gradient_Swatch_1-2);}</style><linearGradient id="New_Gradient_Swatch_copy" x1="91.19" y1="82.72" x2="256.64" y2="82.72" gradientUnits="userSpaceOnUse"><stop offset="0" stop-color="#ffe100"/><stop offset="0.03" stop-color="#fedd00"/><stop offset="0.21" stop-color="#fbc800"/><stop offset="0.42" stop-color="#f8b800"/><stop offset="0.66" stop-color="#f6af00"/><stop offset="1" stop-color="#f6ac00"/></linearGradient><radialGradient id="New_Gradient_Swatch_1" cx="27.98" cy="130.51" r="22.33" gradientUnits="userSpaceOnUse"><stop offset="0.01" stop-color="#fff"/><stop offset="1" stop-color="#fff"/></radialGradient><radialGradient id="New_Gradient_Swatch_1-2" cx="274.18" cy="131.66" r="18.03" xlink:href="#New_Gradient_Swatch_1"/></defs><title>Asset 6</title><g id="Layer_2" data-name="Layer 2"><g id="Layer_1-2" data-name="Layer 1"><path class="cls-1" d="M256.64,82.72s-25.71-2.19-27.38-11.39c-1.5-8.29,6.62-14.79,6.62-14.79s-11,1.79-15.12-5.41c-4-7,11.65-26.91,11.65-26.91s-20,16-26.91,11.65c-6.1-3.8-5.41-15.12-5.41-15.12s-7.35,8.81-14.79,6.62C176.53,24.81,173.92,0,173.92,0s-2.79,24.76-11.39,27.38c-8.33,2.54-14.79-6.62-14.79-6.62s1.67,10-5.41,15.12c-6.06,4.35-26.91-11.65-26.91-11.65S130.8,46,127.07,51.14c-5.19,7.2-15.12,5.41-15.12,5.41s7.8,7.29,6.62,14.79c-1.23,7.85-27.38,11.39-27.38,11.39s27,4.56,27.38,11.39c.52,8.45-6.62,14.79-6.62,14.79s11.2-1.18,15.12,5.41c3.69,6.19-11.65,26.91-11.65,26.91s21.2-16.82,26.91-11.65c5,4.56,5.41,15.12,5.41,15.12s7.53-8.39,14.79-6.62,11.39,27.38,11.39,27.38,3.55-25.59,11.39-27.38c6.71-1.53,14.79,6.62,14.79,6.62s-.27-10.91,5.41-15.12c6.24-4.63,26.91,11.65,26.91,11.65s-16.22-20.9-11.65-26.91c5.88-7.73,15.12-5.41,15.12-5.41s-8.69-7.23-6.62-14.79C231.5,85.92,256.64,82.72,256.64,82.72Z"/><polyline class="cls-2" points="107.92 50.64 130.61 148.02 224.02 132.96 216.02 92.11 161.97 100.93 148.22 44.25"/><polygon class="cls-3" points="148.22 44.25 161.97 100.93 216.02 92.11 223.84 132.1 130.61 148.02 107.92 50.64 148.22 44.25"/><polygon class="cls-4" points="107.92 50.64 101.18 58.5 122.85 159.05 130.61 148.02 107.92 50.64"/><polygon class="cls-4" points="122.85 159.05 220.99 141.27 224.02 132.1 130.61 148.02 122.85 159.05"/><path class="cls-4" d="M30.86,97.64A31.26,31.26,0,0,0,21.38,99a25,25,0,0,0-8.11,4.27,21.63,21.63,0,0,0-5.75,7,19.88,19.88,0,0,0-2.19,9.18,22.52,22.52,0,0,0,1.27,7.77,18.68,18.68,0,0,0,1.72,3.51A9.34,9.34,0,0,0,.05,141.08a25.24,25.24,0,0,0,2.41,8.5,23,23,0,0,0,6.31,7.86A26,26,0,0,0,17.64,162a35.75,35.75,0,0,0,10.16,1.38A34.4,34.4,0,0,0,37.86,162a24.87,24.87,0,0,0,8.59-4.51,21.89,21.89,0,0,0,5.81-7.33,21.56,21.56,0,0,0,2.12-9.52,20.43,20.43,0,0,0-2-9.09,20,20,0,0,0-2.12-3.39A9.33,9.33,0,0,0,55.94,119,23.88,23.88,0,0,0,54.77,113a21.1,21.1,0,0,0-4.69-7.84,23.67,23.67,0,0,0-8-5.48,28.35,28.35,0,0,0-11.21-2.06Z"/><path class="cls-4" d="M83.67,110.29H77.49a9.32,9.32,0,0,0-7.86,4.3,9.34,9.34,0,0,0-7.86-4.3H55.6A9.31,9.31,0,0,0,46.41,118L43,137.47a28.92,28.92,0,0,0-.23,9.63A20.9,20.9,0,0,0,46,155.48a17.25,17.25,0,0,0,6.71,6,18.75,18.75,0,0,0,8.47,1.94A19.44,19.44,0,0,0,68.61,162a9.34,9.34,0,0,0,3.23.57h5.89a9.32,9.32,0,0,0,9.19-7.71l5.94-33.59a9.33,9.33,0,0,0-9.19-11Z"/><path class="cls-4" d="M109.7,109.39a21.76,21.76,0,0,0-6,.8,21.47,21.47,0,0,0-2.12.72,9.34,9.34,0,0,0-3.36-.63h-6A9.31,9.31,0,0,0,83.08,118l-8.44,48.12a9.33,9.33,0,0,0,9.19,10.94H90a9.31,9.31,0,0,0,9.19-7.75l1.13-6.57a22.91,22.91,0,0,0,5.47.63,23.5,23.5,0,0,0,10-2.23,25.69,25.69,0,0,0,8.17-6.06,28.86,28.86,0,0,0,5.46-8.92,30.84,30.84,0,0,0,2-11.31,29.63,29.63,0,0,0-1.52-9.57,25.64,25.64,0,0,0-4.37-8,22.16,22.16,0,0,0-6.91-5.67,19.28,19.28,0,0,0-9-2.22Z"/><path class="cls-4" d="M104.86,139.18a5.48,5.48,0,0,1-.14-1.34,7.15,7.15,0,0,1,.36-2.44,5.48,5.48,0,0,1,.86-1.61,2.34,2.34,0,0,1,.21-.23,6.9,6.9,0,0,1,.18,1.7,6.64,6.64,0,0,1-.32,2.26,3.89,3.89,0,0,1-.69,1.24,2.41,2.41,0,0,1-.46.42Z"/><path class="cls-4" d="M146.25,109.39a26,26,0,0,0-10.4,2.18,27.67,27.67,0,0,0-14.58,14.79A28.68,28.68,0,0,0,119,137.63a28,28,0,0,0,1.69,9.74,25,25,0,0,0,5,8.25,23.65,23.65,0,0,0,8,5.69,25.05,25.05,0,0,0,10.22,2.06,27.22,27.22,0,0,0,15.17-4.22,24.38,24.38,0,0,0,8.61-9.75,9.28,9.28,0,0,0,.84-5.7,9.25,9.25,0,0,0,1.82-4.38,31.29,31.29,0,0,0-.22-10.17,25.57,25.57,0,0,0-4.23-10.06,22.81,22.81,0,0,0-8.37-7.15,24.71,24.71,0,0,0-11.25-2.55Z"/><path class="cls-4" d="M189,109.79a22.44,22.44,0,0,0-8,1.43,9.32,9.32,0,0,0-4.06-.93h-6.17a9.31,9.31,0,0,0-9.19,7.72l-5.87,33.59A9.33,9.33,0,0,0,165,162.54h6.59a9.31,9.31,0,0,0,9.19-7.73L184,136.12a2.68,2.68,0,0,1,.34-1,.78.78,0,0,1,.28-.29,2.6,2.6,0,0,1,1-.3,4.52,4.52,0,0,1,.64,0,6.61,6.61,0,0,1,.86.06A9.3,9.3,0,0,0,197.47,127l1.12-6.2a9.34,9.34,0,0,0-9-11Z"/><path class="cls-4" d="M206.54,98.82h-6.38a9.31,9.31,0,0,0-9.19,7.72l-7.89,45.06a9.33,9.33,0,0,0,9.19,10.94H220a9.32,9.32,0,0,0,9.19-7.71l1-5.72A9.33,9.33,0,0,0,221,138.16H210.76l5-28.4a9.33,9.33,0,0,0-9.19-10.94Z"/><path class="cls-4" d="M206.54,107.05a1.1,1.1,0,0,1,1.08,1.29l-6.43,36.76a1.1,1.1,0,0,0,1.08,1.29H221a1.1,1.1,0,0,1,1.08,1.29l-1,5.72a1.1,1.1,0,0,1-1.08.91H192.27a1.1,1.1,0,0,1-1.08-1.29L199.07,108a1.1,1.1,0,0,1,1.08-.91h6.38"/><path class="cls-4" d="M244.47,109.39a26.86,26.86,0,0,0-19.24,8,27.82,27.82,0,0,0-5.88,9,29.1,29.1,0,0,0-2.16,11.22,27,27,0,0,0,1.87,10,26.09,26.09,0,0,0,5.08,8.14,23.87,23.87,0,0,0,17.61,7.64,27.74,27.74,0,0,0,10.36-2,26.43,26.43,0,0,0,8.8-5.74,27,27,0,0,0,6-9A29.65,29.65,0,0,0,269,135.27a27.46,27.46,0,0,0-1.81-10,25.34,25.34,0,0,0-5.15-8.26,24.68,24.68,0,0,0-7.81-5.58,23.54,23.54,0,0,0-9.79-2.09Z"/><path class="cls-4" d="M242.53,139.32a6.82,6.82,0,0,1-.18-1.75,7.34,7.34,0,0,1,.34-2.38,4.49,4.49,0,0,1,.71-1.38,2.3,2.3,0,0,1,.28-.29,5.5,5.5,0,0,1,.21,1.68,7.93,7.93,0,0,1-.34,2.48,4.07,4.07,0,0,1-.64,1.28,2.09,2.09,0,0,1-.37.36Z"/><path class="cls-4" d="M277.92,100.21h-6.12a9.31,9.31,0,0,0-9.19,7.75l-.52,3a9.3,9.3,0,0,0-5.74,7.14l-.82,4.89a9.33,9.33,0,0,0,3,8.46L257,139.81c-1.22,6.6-.13,12.17,3.24,16.51,2.41,3.09,7,6.78,15.42,6.78a19.85,19.85,0,0,0,3-.23l1-.16a9.34,9.34,0,0,0,7.65-7.63l1.12-6.53a8.23,8.23,0,0,0-6.21-9.4l1-5.32A9.3,9.3,0,0,0,292,126l.81-4.89A9.34,9.34,0,0,0,287.14,111a9.33,9.33,0,0,0-9.22-10.76Z"/><polygon class="cls-4" points="281.51 143.29 281.51 143.29 281.51 143.29 281.51 143.29"/><path class="cls-4" d="M299.54,100.21h-6.12a9.31,9.31,0,0,0-9.19,7.74l-.52,3a9.3,9.3,0,0,0-5.74,7.14l-.81,4.89a9.33,9.33,0,0,0,3,8.46l-1.49,8.37c-1.22,6.6-.13,12.17,3.25,16.51,2.41,3.09,7,6.78,15.42,6.78a19.86,19.86,0,0,0,3-.23l1-.16a9.34,9.34,0,0,0,7.65-7.63l1.12-6.53a8.23,8.23,0,0,0-6.21-9.4l1-5.32a9.3,9.3,0,0,0,8.82-7.79l.81-4.89A9.34,9.34,0,0,0,308.76,111a9.33,9.33,0,0,0-9.22-10.76Z"/><polygon class="cls-4" points="303.13 143.29 303.13 143.29 303.13 143.29 303.13 143.29"/><path class="cls-4" d="M325,109.39a26.86,26.86,0,0,0-19.24,8,27.82,27.82,0,0,0-5.88,9,29.07,29.07,0,0,0-2.16,11.22,27,27,0,0,0,1.87,10,26.12,26.12,0,0,0,5.09,8.15,23.87,23.87,0,0,0,17.61,7.64,27.74,27.74,0,0,0,10.36-2,26.44,26.44,0,0,0,8.8-5.74,27.05,27.05,0,0,0,6-9,29.68,29.68,0,0,0,2.16-11.42,27.49,27.49,0,0,0-1.8-9.95,25.34,25.34,0,0,0-5.16-8.27,24.66,24.66,0,0,0-7.81-5.57,23.54,23.54,0,0,0-9.79-2.09Z"/><path class="cls-4" d="M323.08,139.32a6.8,6.8,0,0,1-.18-1.75,7.33,7.33,0,0,1,.34-2.38,4.49,4.49,0,0,1,.71-1.38,2.36,2.36,0,0,1,.28-.29,5.51,5.51,0,0,1,.21,1.68,7.94,7.94,0,0,1-.34,2.48,4.08,4.08,0,0,1-.65,1.28,2.08,2.08,0,0,1-.37.36Z"/><path class="cls-5" d="M141.87,129.91h7.3s-2-2.46-4.37-1.84a5.92,5.92,0,0,0-3.28,1.84"/><path class="cls-5" d="M147.85,142.78h-7.3s2,2.46,4.37,1.84a5.92,5.92,0,0,0,3.28-1.84"/><path class="cls-6" d="M30.86,105.87a20.17,20.17,0,0,1,8,1.39,15.44,15.44,0,0,1,5.25,3.54A12.87,12.87,0,0,1,47,115.6a15.59,15.59,0,0,1,.78,3.88,1.11,1.11,0,0,1-1.1,1.19H39.9a1.09,1.09,0,0,1-1.08-.91q-1-6.18-8.51-6.18A11,11,0,0,0,24.57,115a4.43,4.43,0,0,0-2.33,4,4.92,4.92,0,0,0,.42,2.08,4.75,4.75,0,0,0,1.42,1.7,11.91,11.91,0,0,0,2.71,1.53q1.7.73,4.2,1.56,3.34,1.18,6.12,2.43a21,21,0,0,1,4.8,2.92A11.87,11.87,0,0,1,45,135.17a12.27,12.27,0,0,1,1.11,5.46,13.33,13.33,0,0,1-1.28,5.91,13.65,13.65,0,0,1-3.65,4.59,16.61,16.61,0,0,1-5.77,3,26.09,26.09,0,0,1-7.65,1,27.41,27.41,0,0,1-7.82-1A17.73,17.73,0,0,1,13.91,151a14.75,14.75,0,0,1-4.07-5.07,17,17,0,0,1-1.6-5.74A1.11,1.11,0,0,1,9.33,139h6.45a1.08,1.08,0,0,1,1.08.89,8.3,8.3,0,0,0,2.91,5.33q2.68,2.19,7.89,2.26H28a12.25,12.25,0,0,0,6.77-1.64,5.26,5.26,0,0,0,2.61-4.62,4.33,4.33,0,0,0-.63-2.33,6.22,6.22,0,0,0-2-1.88,18.75,18.75,0,0,0-3.48-1.67q-2.12-.8-5.11-1.84a36.09,36.09,0,0,1-5.63-2.4,15.9,15.9,0,0,1-3.93-2.92,10.57,10.57,0,0,1-2.33-3.72,14.31,14.31,0,0,1-.76-4.93,11.68,11.68,0,0,1,1.29-5.42,13.39,13.39,0,0,1,3.58-4.34,16.75,16.75,0,0,1,5.46-2.85,22.94,22.94,0,0,1,7-1"/><path class="cls-7" d="M83.67,118.52a1.1,1.1,0,0,1,1.08,1.29L78.81,153.4a1.1,1.1,0,0,1-1.08.91H71.84A1.1,1.1,0,0,1,70.76,153a1.12,1.12,0,0,0-1.1-1.31,1,1,0,0,0-.71.29,16.45,16.45,0,0,1-1.59,1.31,10.31,10.31,0,0,1-6.22,1.84,10.57,10.57,0,0,1-4.8-1.08,9.09,9.09,0,0,1-3.54-3.16,12.72,12.72,0,0,1-1.88-5.11,20.77,20.77,0,0,1,.21-6.91l3.39-19.45a1.1,1.1,0,0,1,1.08-.91h6.17a1.1,1.1,0,0,1,1.08,1.29L59.4,139.37q-.7,3.89.59,6t4.83,2.16a7.13,7.13,0,0,0,5.32-2.09,10.37,10.37,0,0,0,2.68-5.63l3.59-20.43a1.1,1.1,0,0,1,1.08-.91h6.17"/><path class="cls-7" d="M122.17,127.94a17.37,17.37,0,0,0-3-5.46,13.91,13.91,0,0,0-4.34-3.58,11.07,11.07,0,0,0-5.18-1.29,13.49,13.49,0,0,0-3.72.49,12.14,12.14,0,0,0-3.06,1.32,13.24,13.24,0,0,0-2.43,1.91,15.69,15.69,0,0,0-1.84,2.19l.67-3.71a1.1,1.1,0,0,0-1.08-1.3h-6a1.1,1.1,0,0,0-1.08.91l-8.44,48.12a1.1,1.1,0,0,0,1.08,1.29H90a1.1,1.1,0,0,0,1.08-.91L94,150.87a1.11,1.11,0,0,1,1.1-.92,1,1,0,0,1,.84.43,12.82,12.82,0,0,0,2.67,2.69,11.61,11.61,0,0,0,7.16,2.08,15.27,15.27,0,0,0,6.53-1.46,17.43,17.43,0,0,0,5.56-4.13,20.57,20.57,0,0,0,3.89-6.39,22.56,22.56,0,0,0,1.46-8.31A21.32,21.32,0,0,0,122.17,127.94Zm-8.44,12.44a12,12,0,0,1-2.26,3.86,10.29,10.29,0,0,1-3.23,2.47,8.56,8.56,0,0,1-3.75.87,7.15,7.15,0,0,1-5.77-2.68,10.67,10.67,0,0,1-2.22-7.05,15.2,15.2,0,0,1,.87-5.28,13.52,13.52,0,0,1,2.26-4,9.82,9.82,0,0,1,3.23-2.57,8.38,8.38,0,0,1,3.72-.9,7.11,7.11,0,0,1,5.73,2.75,11.42,11.42,0,0,1,2.26,7.47A14.66,14.66,0,0,1,113.73,140.38Z"/><path class="cls-7" d="M162,130.72a17.32,17.32,0,0,0-2.85-6.85,14.59,14.59,0,0,0-5.39-4.59,16.5,16.5,0,0,0-7.54-1.67,17.71,17.71,0,0,0-7.12,1.49,19.51,19.51,0,0,0-6.08,4.14,19.71,19.71,0,0,0-4.2,6.32,20.41,20.41,0,0,0-1.56,8.06,19.68,19.68,0,0,0,1.18,6.88,16.78,16.78,0,0,0,3.34,5.56,15.41,15.41,0,0,0,5.21,3.72,16.81,16.81,0,0,0,6.88,1.35,19.07,19.07,0,0,0,10.67-2.88,16.18,16.18,0,0,0,5.73-6.51,1.11,1.11,0,0,0-1-1.59h-6.83a1.14,1.14,0,0,0-.91.49,6.5,6.5,0,0,1-2.8,2.12,11.27,11.27,0,0,1-4.38.87,8.08,8.08,0,0,1-6.08-2.19,9.16,9.16,0,0,1-2.31-5,1.11,1.11,0,0,1,1.09-1.29h24a1.1,1.1,0,0,0,1.09-.94A23,23,0,0,0,162,130.72Zm-9.6,2.33H137.88a1.11,1.11,0,0,1-1-1.48,10.53,10.53,0,0,1,3-4.47A8.72,8.72,0,0,1,145.7,125a7.49,7.49,0,0,1,5.59,2.09,8.67,8.67,0,0,1,2.22,4.67A1.11,1.11,0,0,1,152.43,133Z"/><path class="cls-7" d="M189,118h.37a1.11,1.11,0,0,1,1.08,1.3l-1.12,6.19a1.09,1.09,0,0,1-1.06.91h-.14a14.78,14.78,0,0,0-1.94-.13,12.69,12.69,0,0,0-1.78.12,10.72,10.72,0,0,0-4,1.36,9,9,0,0,0-3,2.81,10.71,10.71,0,0,0-1.6,4.14l-3.25,18.69a1.1,1.1,0,0,1-1.08.91H165A1.1,1.1,0,0,1,163.9,153l5.87-33.59a1.1,1.1,0,0,1,1.08-.91H177a1.1,1.1,0,0,1,1.08,1.29l-.14.79A1.09,1.09,0,0,0,179,121.9a1.08,1.08,0,0,0,.77-.32,11.45,11.45,0,0,1,3.21-2.26,14.08,14.08,0,0,1,6-1.3"/><path class="cls-7" d="M206.54,107.05a1.1,1.1,0,0,1,1.08,1.29l-6.43,36.76a1.1,1.1,0,0,0,1.08,1.29H221a1.1,1.1,0,0,1,1.08,1.29l-1,5.72a1.1,1.1,0,0,1-1.08.91H192.27a1.1,1.1,0,0,1-1.08-1.29L199.07,108a1.1,1.1,0,0,1,1.08-.91h6.38"/><path class="cls-7" d="M259.55,128.29a17.07,17.07,0,0,0-3.47-5.6,16.41,16.41,0,0,0-5.21-3.72,15.29,15.29,0,0,0-6.39-1.36,18.63,18.63,0,0,0-13.38,5.56A19.55,19.55,0,0,0,227,129.5a20.82,20.82,0,0,0-1.53,8.06,18.71,18.71,0,0,0,1.29,7,17.82,17.82,0,0,0,3.47,5.59,15.64,15.64,0,0,0,11.57,5,19.46,19.46,0,0,0,7.3-1.39,18.17,18.17,0,0,0,6.08-4,18.76,18.76,0,0,0,4.13-6.26,21.39,21.39,0,0,0,1.53-8.27A19.18,19.18,0,0,0,259.55,128.29Zm-8.2,12a12.06,12.06,0,0,1-2.11,3.93,9.82,9.82,0,0,1-3.12,2.54,8.17,8.17,0,0,1-3.77.9,7.5,7.5,0,0,1-6-2.64q-2.29-2.64-2.28-7.43a15.42,15.42,0,0,1,.8-5.07,12.56,12.56,0,0,1,2.15-3.93,9.86,9.86,0,0,1,3.12-2.54,8.19,8.19,0,0,1,3.77-.9,7.33,7.33,0,0,1,5.85,2.75,11,11,0,0,1,2.32,7.33A16,16,0,0,1,251.36,140.27Z"/><path class="cls-8" d="M277.92,108.44a1.1,1.1,0,0,1,1.09,1.28l-1.24,7.52a1.1,1.1,0,0,0,1.09,1.28h4.77a1.1,1.1,0,0,1,1.09,1.28l-.81,4.89a1.1,1.1,0,0,1-1.08.92h-5.58a1.1,1.1,0,0,0-1.08.91l-2.69,15q-1,5.91,4.38,5.91a12.1,12.1,0,0,0,1.29-.07,8.6,8.6,0,0,0,1.22-.21l-1.12,6.53a1.1,1.1,0,0,1-.9.9l-.9.14a11.53,11.53,0,0,1-1.74.14q-6.12,0-8.93-3.61t-1.63-10l2.55-14.34a1.1,1.1,0,0,0-1.08-1.29h-1.84a1.1,1.1,0,0,1-1.09-1.28l.81-4.89a1.1,1.1,0,0,1,1.09-.92h2.66a1.1,1.1,0,0,0,1.08-.91l1.42-8.25a1.1,1.1,0,0,1,1.08-.91h6.12"/><path class="cls-7" d="M299.54,108.44a1.1,1.1,0,0,1,1.09,1.28l-1.24,7.52a1.1,1.1,0,0,0,1.09,1.28h4.77a1.1,1.1,0,0,1,1.09,1.28l-.81,4.89a1.1,1.1,0,0,1-1.09.92h-5.58a1.1,1.1,0,0,0-1.08.91l-2.69,15q-1,5.91,4.38,5.91a12.08,12.08,0,0,0,1.29-.07,8.56,8.56,0,0,0,1.22-.21l-1.12,6.53a1.09,1.09,0,0,1-.9.9l-.9.14a11.54,11.54,0,0,1-1.74.14q-6.12,0-8.93-3.61t-1.63-10l2.55-14.34a1.1,1.1,0,0,0-1.08-1.29h-1.84a1.1,1.1,0,0,1-1.09-1.28l.81-4.89a1.1,1.1,0,0,1,1.09-.92h2.66a1.1,1.1,0,0,0,1.08-.91l1.42-8.25a1.1,1.1,0,0,1,1.08-.91h6.12"/><path class="cls-7" d="M340.1,128.29a17.07,17.07,0,0,0-3.48-5.6,16.39,16.39,0,0,0-5.21-3.72,15.29,15.29,0,0,0-6.39-1.36,18.63,18.63,0,0,0-13.38,5.56,19.55,19.55,0,0,0-4.13,6.32,20.8,20.8,0,0,0-1.53,8.06,18.72,18.72,0,0,0,1.28,7,17.83,17.83,0,0,0,3.48,5.59,15.64,15.64,0,0,0,11.57,5,19.45,19.45,0,0,0,7.3-1.39,18.19,18.19,0,0,0,6.08-4,18.78,18.78,0,0,0,4.13-6.26,21.42,21.42,0,0,0,1.53-8.27A19.21,19.21,0,0,0,340.1,128.29Zm-8.2,12a12.09,12.09,0,0,1-2.11,3.93,9.84,9.84,0,0,1-3.12,2.54,8.17,8.17,0,0,1-3.77.9,7.5,7.5,0,0,1-6-2.64q-2.29-2.64-2.29-7.43a15.41,15.41,0,0,1,.8-5.07,12.53,12.53,0,0,1,2.15-3.93,9.86,9.86,0,0,1,3.11-2.54,8.19,8.19,0,0,1,3.77-.9,7.33,7.33,0,0,1,5.85,2.75,11,11,0,0,1,2.32,7.33A16,16,0,0,1,331.9,140.27Z"/></g></g></svg>