<svg xmlns="http://www.w3.org/2000/svg" viewBox="0 0 693 300" width="693" height="300">
	<defs>
		<radialGradient id="grd1" gradientUnits="userSpaceOnUse"  cx="-21.765" cy="-659.06" r="572.309">
			<stop offset="0" stop-color="#0f54eb"  />
			<stop offset="0" stop-color="#0f54eb"  />
			<stop offset="1" stop-color="#321ca6"  />
		</radialGradient>
		<radialGradient id="grd2" gradientUnits="userSpaceOnUse"  cx="345.853" cy="144.918" r="259.124">
			<stop offset="0" stop-color="#0f54eb"  />
			<stop offset="0" stop-color="#0f54eb"  />
			<stop offset="1" stop-color="#321ca6"  />
		</radialGradient>
	</defs>
	<style>
		tspan { white-space:pre }
		.shp0 { fill: #9fc5ff } 
		.shp1 { fill: url(#grd1);stroke: #ffffff } 
		.shp2 { fill: #ffffff } 
		.shp3 { fill: url(#grd2);stroke: #ffffff;stroke-width: 0.453 } 
	</style>
	<g id="Folder 16">
		<path id="Layer" class="shp0" d="null" />
		<path id="Layer" class="shp0" d="M517.1,-718.6c-32.5,-3.2 -64.9,-6.4 -97.4,-9.6c0.1,23.2 0.3,46.4 0.4,69.5c-10.3,-21.5 -20.6,-43 -31,-64.5c-20.9,0 -41.8,0 -62.7,0c36.4,-56.8 37.6,-126.9 3.3,-176.4c-37.2,-53.8 -102,-62.9 -111.2,-64c-10.7,-1.3 -30.3,-3 -53.9,3.2c-20.3,5.3 -50.2,31.5 -56.7,32c-14.3,1.2 -77.1,-41.5 -118,-36.8c-40.3,4.7 -91.3,23.6 -120.4,22.1c-66.2,-3.3 -84.3,-15.6 -150.9,-19.8c-37.3,-2.3 -92.7,0.5 -162.7,27.9c9.4,27.2 19.4,65.1 22.5,111c3.1,46.4 -1.8,85.6 -7.5,114c-7,5.4 -13.9,10.9 -20.9,16.3c-15,-1.3 -30.1,-2.6 -45.1,-3.9c-32.5,-2.8 -65,-5.6 -97.6,-8.3c-12.8,21.4 -25.3,42.9 -37.5,64.6c-0.1,4.8 -0.2,9.6 -0.2,14.5c0,94.8 22.9,184.3 63.3,263.2c4.2,4.3 8.3,8.5 12.5,12.8c91.6,-19.5 189.7,-14.8 281.2,0.2c81.8,13.4 182.8,2.6 253.5,-16c33.5,-8.8 81.8,7.6 116.7,24.9c51,25.4 126.9,-10.9 171.3,-27.4c27.5,-10.3 67.2,2.1 95.6,15.9c40.9,19.8 63.2,6.5 95.2,-6.6c41.7,-79.8 65.3,-170.6 65.3,-266.9c0.2,-31.3 -2.3,-62 -7.1,-91.9z" />
		<path id="Layer" class="shp1" d="M-657.3,-708.7l-114.7,3.3l-6.6,301.5l114.7,6.6l-3.3,-81.9l22.9,52.4h42.6l32.8,-36.1l6.6,81.9c0,0 127.8,-29.5 285.1,-6.6c159.7,23.3 255.6,-16.4 255.6,-16.4c0,0 52.4,-6.6 118,22.9c65.5,29.5 170.4,-22.9 170.4,-22.9c0,0 39.3,-9.8 98.3,16.4c59,26.2 160.6,-22.9 160.6,-22.9c0,0 62.3,59 147.5,22.9c85.2,-36.1 65.5,-137.6 39.3,-170.4c-26.2,-32.8 -59,-45.9 -59,-45.9c0,0 42.6,19.7 62.3,-3.3c19.7,-22.9 42.6,-68.8 -45.9,-101.6c-88.5,-32.8 -127.8,16.4 -127.8,16.4c-18.2,-4.2 -39.1,-7.8 -62.3,-9.8c-16,-1.4 -31,-1.9 -44.8,-1.7c-3.6,23.5 -7.2,47 -10.9,70.5l-52.4,-68.8h-88.5c0,0 65.5,-62.3 39.3,-157.3c-26.2,-95 -118,-91.8 -157.3,-81.9c-39.3,9.9 -59,29.5 -59,29.5c0,0 -52.4,-39.3 -118,-32.8c-40.8,4.2 -81.3,10.8 -121.3,19.7c0,0 -55.7,-19.7 -154,-19.7c-98.3,0 -108,19.7 -108,19.7l-3.3,209.7c0,0 22.9,13.1 16.4,19.7l-186.8,-16.4l-49.1,85.2z" />
		<path id="Layer" class="shp2" d="M-216.5,-765h-88.9v-37.8h73.5v-40.5h-73.5v-29.6h82.8v-41.3h-130.8v190.5h136.9z" />
		<path id="Layer" class="shp2" d="M-167.9,-725.7c9.7,3.7 21.4,5.6 34.6,5.6c13.4,0 25.2,-1.9 35.1,-5.5c9.4,-3.3 17.9,-8.7 24.9,-15.8c6.6,-7 11.6,-15.3 14.6,-24.5c3.2,-9.9 4.8,-20.3 4.7,-30.8v-117.5h-48v114.2c0,13.9 -2.8,23.6 -8.5,29.3c-5.7,5.6 -13,8.3 -22.3,8.3c-4.3,0 -8.5,-0.6 -12.6,-2c-3.6,-1.2 -6.8,-3.3 -9.2,-6.1c-2.9,-3.4 -5,-7.3 -6.2,-11.6c-1.7,-5.8 -2.5,-11.9 -2.4,-18v-114.1h-48v117.7c-0.1,10.4 1.4,20.7 4.5,30.6c2.9,9.1 7.8,17.4 14.3,24.3c6.9,7.1 15.3,12.5 24.5,15.9z" />
		<path id="Layer" class="shp2" d="M57.7,-743.6c-3.4,-6.1 -7.1,-12.2 -10.6,-17.9c-3.5,-5.7 -7.2,-11.3 -10.7,-16.5c-3.2,-4.7 -6.3,-8.9 -9.5,-12.8h-15.6v67.2h-48v-187.3l2.6,-0.5c9.4,-1.9 18.9,-3.1 28.4,-3.8c9.7,-0.7 18.5,-1.1 26.1,-1.1c28.2,0 50.1,5.2 65.3,15.3c15.6,10.4 23.5,26.7 23.5,48.5c0,13.6 -3.2,24.9 -9.5,33.4c-5.6,7.5 -13.3,13.6 -23.1,18.3c3,3.9 6,8.1 9.2,12.7c4.1,5.9 8.2,12.2 12.2,18.7c3.9,6.4 7.9,13.3 11.6,20.3c3.7,7 7.2,14 10.4,20.7l2.2,4.7h-53.4l-0.9,-1.7c-3.4,-6 -6.8,-12.1 -10.2,-18.2zM51.3,-869.2c-6.3,-3.5 -15.9,-5.3 -28.5,-5.3c-3,0 -5.6,0.1 -7.9,0.3l-3.7,0.3v43.6h8.4c14.9,0 25.6,-1.8 31.8,-5.4c5.7,-3.3 8.5,-8.9 8.5,-17.1c0,-7.8 -2.8,-13.2 -8.6,-16.4z" />
		<path id="Layer" class="shp2" d="M294,-861.8c4.9,12.3 7.4,26.7 7.4,42.8c0,16.1 -2.5,30.5 -7.3,42.7c-4.4,11.6 -11.2,22.2 -20,31.1c-8.6,8.4 -19,14.9 -30.3,18.9c-12,4.3 -24.6,6.4 -37.3,6.3c-12.5,0.1 -24.9,-2.1 -36.7,-6.3c-11.4,-4.1 -21.7,-10.5 -30.4,-18.9c-8.9,-8.8 -15.9,-19.4 -20.4,-31.1c-4.9,-12.3 -7.4,-26.7 -7.4,-42.8c0,-16.1 2.6,-30.5 7.7,-42.8c4.7,-11.7 11.8,-22.3 20.8,-31.2c8.6,-8.4 19,-14.9 30.3,-19c11.5,-4.2 23.7,-6.3 36,-6.3c12.5,-0.1 24.9,2.1 36.7,6.3c11.4,4.1 21.8,10.6 30.4,19c8.9,8.9 15.9,19.5 20.5,31.3zM249.1,-842.7c-1.8,-6.4 -4.9,-12.4 -9,-17.7c-3.8,-4.7 -8.7,-8.6 -14.2,-11.1c-6.1,-2.7 -12.7,-4 -19.3,-3.9c-6.7,-0.2 -13.3,1.2 -19.3,4c-5.5,2.7 -10.3,6.5 -14.1,11.3c-4.1,5.2 -7.2,11.3 -9,17.7c-4.2,15.3 -4.2,31.5 0,46.8c1.8,6.4 4.9,12.3 9,17.6c3.8,4.8 8.6,8.6 14.1,11.2c12.3,5.3 26.2,5.3 38.5,0c5.5,-2.6 10.4,-6.4 14.2,-11.2c4.1,-5.2 7.1,-11.2 9,-17.6c2.2,-7.7 3.3,-15.6 3.2,-23.5c0.1,-8 -1,-15.9 -3.1,-23.6z" />
		<path id="Layer" class="shp2" d="M-485.9,-495.8c-1.2,-20.7 -2.6,-41.5 -4,-62.1c-1.4,-20.6 -3.1,-40.6 -5,-59.6c-1.9,-19 -3.9,-36.4 -6.2,-51.8l-0.4,-2.8h-52.3l-0.9,1.7c-4,7.4 -8.8,16.7 -14,27.4c-5.2,10.7 -10.8,22.7 -16.5,35.2c-5.6,12.5 -11.4,25.5 -16.9,38.7l-12.8,30.1l-12.7,-30c-5.6,-13.2 -11.3,-26.1 -16.9,-38.7c-5.7,-12.6 -11.2,-24.3 -16.5,-35.2c-5.3,-10.9 -10,-20.1 -14,-27.4l-0.9,-1.7h-54.6l-0.4,2.8c-2.2,15.4 -4.3,32.9 -6.2,51.8c-1.9,18.9 -3.6,39.1 -5,59.6c-1.4,20.5 -2.8,41.4 -4,62.1c-1.2,20.8 -2.3,40.5 -3.2,58.6l-0.2,3.4h57.5l0.1,-3.2c0.7,-22.7 1.5,-47.4 2.7,-73.5c0.9,-22 2.3,-44.5 4,-67c2.6,6 5.3,12.3 8.2,19c4.9,11.4 9.8,22.7 14.6,34.1c4.8,11.4 9.5,22.3 13.9,32.6c4.5,10.4 8.3,19.2 11.4,26.6l0.8,2h40.8l0.8,-2c3.1,-7.4 6.9,-16.2 11.4,-26.6c4.5,-10.4 9.1,-21.3 13.9,-32.6c4.8,-11.4 9.7,-22.7 14.6,-34.1l8.2,-19c1.7,22.4 3,44.9 4,67c1.1,26.6 2,51.4 2.7,73.5l0.1,3.2h57.5l-0.2,-3.4c-1.1,-18.1 -2.2,-38 -3.4,-58.7z" />
		<path id="Layer" class="shp2" d="M-462.8,-433.8h58.7v-238.3h-58.7z" />
		<path id="Layer" class="shp2" d="M-318.5,-672.1h-58.7v238.3h161.4v-51.4h-102.7z" />
		<path id="Layer" class="shp2" d="M-143.6,-672.1h-58.7v238.3h161.4v-51.4h-102.7z" />
		<path id="Layer" class="shp2" d="M-27.4,-433.8h58.7v-238.3h-58.7z" />
		<path id="Layer" class="shp2" d="M276.2,-606.7c6.2,15.4 9.3,33.5 9.3,53.6c0,20.1 -3,38.1 -9,53.5c-6,15.4 -14.5,28.5 -25,38.9c-10.7,10.6 -23.6,18.7 -37.8,23.7c-15,5.4 -30.9,8 -46.8,7.9c-15.6,0.1 -31.2,-2.6 -45.9,-7.9c-14.1,-5.1 -27.1,-13.1 -37.9,-23.6c-11.2,-11 -19.8,-24.3 -25.5,-38.9c-6.2,-15.4 -9.3,-33.4 -9.3,-53.6c0,-20.2 3.2,-38.2 9.6,-53.6c5.9,-14.7 14.8,-28 26,-39.1c10.8,-10.5 23.7,-18.6 37.9,-23.8c14.4,-5.3 29.7,-8 45.1,-7.9c15.6,-0.1 31.2,2.6 45.9,7.9c14.2,5.1 27.1,13.2 37.9,23.8c11.1,11.2 19.8,24.5 25.5,39.1zM221.2,-583.2c-2.4,-8.2 -6.3,-15.9 -11.5,-22.6c-4.9,-6.1 -11.2,-11 -18.3,-14.3c-7.7,-3.5 -16.1,-5.2 -24.5,-5.1c-8.6,-0.1 -17,1.6 -24.7,5.2c-7.1,3.4 -13.2,8.4 -18.1,14.5c-5.3,6.7 -9.1,14.4 -11.5,22.6c-5.4,19.5 -5.4,40 0,59.5c2.4,8.2 6.3,15.8 11.5,22.5c4.9,6.1 11,11 18.1,14.3c15.7,6.7 33.5,6.7 49.2,0c7.1,-3.3 13.3,-8.2 18.2,-14.3c5.2,-6.7 9.1,-14.3 11.5,-22.5c2.8,-9.7 4.1,-19.7 4,-29.8c0.1,-10.1 -1.2,-20.2 -3.9,-30z" />
		<path id="Layer" class="shp2" d="M449.8,-542.8c-6.2,-9.3 -12.9,-18.9 -19.8,-28.7c-9.1,-13 -18.4,-25.7 -27.7,-37.9c-9.3,-12.2 -18.4,-23.6 -27.3,-34.4c-9,-10.7 -17.2,-19.9 -24.6,-27.3l-1,-1h-47.1v238.3h58.1v-146.2c17.6,21.2 34.2,43.2 49.5,66.1c17.2,25.6 33.5,52 48.4,78.4l0.9,1.7h49v-238.3h-58.4z" />
		<path id="Layer" class="shp2" d="M691.6,-530.2c-3,-8.1 -7.8,-15.5 -14,-21.6c-6.8,-6.5 -14.6,-11.8 -23.1,-15.8c-8.9,-4.3 -19.6,-8.8 -31.8,-13.4c-5.7,-2 -11,-3.9 -15.7,-5.8c-4.2,-1.6 -8.3,-3.7 -12.2,-6.1c-3,-1.8 -5.5,-4.2 -7.6,-7c-1.7,-2.6 -2.5,-5.7 -2.4,-8.8c0,-6 2.1,-10.3 6.7,-13.1c4.9,-3.1 13.4,-4.7 25.2,-4.7c10.7,0 20,1.2 27.6,3.7c7.3,2.3 14.3,5.2 21.1,8.7l3.3,1.7l17.3,-47.3l-2.5,-1.4c-9.2,-4.8 -18.8,-8.5 -28.7,-11.3c-11.6,-3.4 -25.6,-5.2 -41.4,-5.2c-12.3,-0.2 -24.6,1.5 -36.4,5c-10.1,3 -19.6,7.9 -27.9,14.5c-7.6,6.2 -13.8,14.1 -18,23.1c-4.3,9.5 -6.5,19.9 -6.3,30.3c0,11.2 2,20.8 6,28.7c3.8,7.6 9.1,14.4 15.5,20c6.4,5.5 13.5,10.1 21.2,13.6c7.6,3.5 15.3,6.6 23.1,9.3c17,5.6 29.1,11 35.9,15.8c6.3,4.4 9.3,9.7 9.3,16.2c0,2.9 -0.4,5.8 -1.4,8.5c-1,2.5 -2.7,4.6 -4.9,6.1c-3.2,2.1 -6.7,3.7 -10.4,4.5c-5.7,1.3 -11.6,1.9 -17.4,1.7c-14.3,0 -26.6,-1.5 -36.4,-4.4c-8.6,-2.4 -17,-5.8 -24.9,-9.9l-3.4,-1.9l-16.9,47.7l2.4,1.4c9,5.1 18.7,9 28.7,11.7c7.3,2 14.8,3.5 22.3,4.6c9.4,1.3 18.8,1.9 28.2,1.9c31.2,0 54.9,-6.2 70.6,-18.6c15.9,-12.5 24,-30.3 24,-52.9c-0.2,-11.4 -1.7,-21.3 -4.7,-29.5z" />
	</g>
	<g id="Folder 16">
		<path id="Layer" class="shp0" d="null" />
		<path id="Layer" class="shp0" d="M589.83,117.96c-14.72,-1.45 -29.38,-2.9 -44.1,-4.35c0.05,10.5 0.14,21.01 0.18,31.47c-4.66,-9.73 -9.33,-19.47 -14.04,-29.2c-9.46,0 -18.93,0 -28.39,0c16.48,-25.72 17.02,-57.46 1.49,-79.87c-16.84,-24.36 -46.18,-28.48 -50.35,-28.98c-4.84,-0.59 -13.72,-1.36 -24.4,1.45c-9.19,2.4 -22.73,14.26 -25.67,14.49c-6.47,0.54 -34.91,-18.79 -53.43,-16.66c-18.25,2.13 -41.34,10.69 -54.51,10.01c-29.97,-1.49 -38.17,-7.06 -68.32,-8.96c-16.89,-1.04 -41.97,0.23 -73.67,12.63c4.26,12.32 8.78,29.48 10.19,50.26c1.4,21.01 -0.81,38.76 -3.4,51.62c-3.17,2.44 -6.29,4.94 -9.46,7.38c-6.79,-0.59 -13.63,-1.18 -20.42,-1.77c-14.72,-1.27 -29.43,-2.54 -44.19,-3.76c-5.8,9.69 -11.46,19.42 -16.98,29.25c-0.05,2.17 -0.09,4.35 -0.09,6.57c0,42.92 10.37,83.45 28.66,119.17c1.9,1.95 3.76,3.85 5.66,5.8c41.47,-8.83 85.89,-6.7 127.32,0.09c37.04,6.07 82.77,1.18 114.78,-7.24c15.17,-3.98 37.04,3.44 52.84,11.27c23.09,11.5 57.46,-4.94 77.56,-12.41c12.45,-4.66 30.43,0.95 43.28,7.2c18.52,8.96 28.62,2.94 43.1,-2.99c18.88,-36.13 29.57,-77.24 29.57,-120.84c0.09,-14.17 -1.04,-28.07 -3.21,-41.61z" />
		<path id="Layer" class="shp3" d="M58.1,122.44l-51.93,1.49l-2.99,136.51l51.93,2.99l-1.49,-37.08l10.37,23.73h19.29l14.85,-16.34l2.99,37.08c0,0 57.86,-13.36 129.08,-2.99c72.31,10.55 115.73,-7.43 115.73,-7.43c0,0 23.73,-2.99 53.43,10.37c29.66,13.36 77.15,-10.37 77.15,-10.37c0,0 17.79,-4.44 44.51,7.43c26.71,11.86 72.71,-10.37 72.71,-10.37c0,0 28.21,26.71 66.78,10.37c38.58,-16.34 29.66,-62.3 17.79,-77.15c-11.86,-14.85 -26.71,-20.78 -26.71,-20.78c0,0 19.29,8.92 28.21,-1.49c8.92,-10.37 19.29,-31.15 -20.78,-46c-40.07,-14.85 -57.86,7.43 -57.86,7.43c-8.24,-1.9 -17.7,-3.53 -28.21,-4.44c-7.24,-0.63 -14.04,-0.86 -20.28,-0.77c-1.63,10.64 -3.26,21.28 -4.94,31.92l-23.73,-31.15h-40.07c0,0 29.66,-28.21 17.79,-71.22c-11.86,-43.01 -53.43,-41.56 -71.22,-37.08c-17.79,4.48 -26.71,13.36 -26.71,13.36c0,0 -23.73,-17.79 -53.43,-14.85c-18.47,1.9 -36.81,4.89 -54.92,8.92c0,0 -25.22,-8.92 -69.73,-8.92c-44.51,0 -48.9,8.92 -48.9,8.92l-1.49,94.95c0,0 10.37,5.93 7.43,8.92l-84.58,-7.43l-22.23,38.58z" />
		<path id="Layer" class="shp2" d="M257.68,96.95h-40.25v-17.11h33.28v-18.34h-33.28v-13.4h37.49v-18.7h-59.22v86.25h61.98z" />
		<path id="Layer" class="shp2" d="M279.69,114.75c4.39,1.68 9.69,2.54 15.67,2.54c6.07,0 11.41,-0.86 15.89,-2.49c4.26,-1.49 8.1,-3.94 11.27,-7.15c2.99,-3.17 5.25,-6.93 6.61,-11.09c1.45,-4.48 2.17,-9.19 2.13,-13.95v-53.2h-21.73v51.71c0,6.29 -1.27,10.69 -3.85,13.27c-2.58,2.54 -5.89,3.76 -10.1,3.76c-1.95,0 -3.85,-0.27 -5.7,-0.91c-1.63,-0.54 -3.08,-1.49 -4.17,-2.76c-1.31,-1.54 -2.26,-3.31 -2.81,-5.25c-0.77,-2.63 -1.13,-5.39 -1.09,-8.15v-51.66h-21.73v53.29c-0.05,4.71 0.63,9.37 2.04,13.85c1.31,4.12 3.53,7.88 6.47,11c3.12,3.21 6.93,5.66 11.09,7.2z" />
		<path id="Layer" class="shp2" d="M381.83,106.64c-1.54,-2.76 -3.21,-5.52 -4.8,-8.1c-1.58,-2.58 -3.26,-5.12 -4.84,-7.47c-1.45,-2.13 -2.85,-4.03 -4.3,-5.8h-7.06v30.43h-21.73v-84.8l1.18,-0.23c4.26,-0.86 8.56,-1.4 12.86,-1.72c4.39,-0.32 8.38,-0.5 11.82,-0.5c12.77,0 22.68,2.35 29.57,6.93c7.06,4.71 10.64,12.09 10.64,21.96c0,6.16 -1.45,11.27 -4.3,15.12c-2.54,3.4 -6.02,6.16 -10.46,8.29c1.36,1.77 2.72,3.67 4.17,5.75c1.86,2.67 3.71,5.52 5.52,8.47c1.77,2.9 3.58,6.02 5.25,9.19c1.68,3.17 3.26,6.34 4.71,9.37l1,2.13h-24.18l-0.41,-0.77c-1.54,-2.72 -3.08,-5.48 -4.62,-8.24zM378.93,49.77c-2.85,-1.58 -7.2,-2.4 -12.9,-2.4c-1.36,0 -2.54,0.05 -3.58,0.14l-1.68,0.14v19.74h3.8c6.75,0 11.59,-0.81 14.4,-2.44c2.58,-1.49 3.85,-4.03 3.85,-7.74c0,-3.53 -1.27,-5.98 -3.89,-7.43z" />
		<path id="Layer" class="shp2" d="M488.82,53.12c2.22,5.57 3.35,12.09 3.35,19.38c0,7.29 -1.13,13.81 -3.31,19.33c-1.99,5.25 -5.07,10.05 -9.06,14.08c-3.89,3.8 -8.6,6.75 -13.72,8.56c-5.43,1.95 -11.14,2.9 -16.89,2.85c-5.66,0.05 -11.27,-0.95 -16.62,-2.85c-5.16,-1.86 -9.83,-4.75 -13.76,-8.56c-4.03,-3.98 -7.2,-8.78 -9.24,-14.08c-2.22,-5.57 -3.35,-12.09 -3.35,-19.38c0,-7.29 1.18,-13.81 3.49,-19.38c2.13,-5.3 5.34,-10.1 9.42,-14.13c3.89,-3.8 8.6,-6.75 13.72,-8.6c5.21,-1.9 10.73,-2.85 16.3,-2.85c5.66,-0.05 11.27,0.95 16.62,2.85c5.16,1.86 9.87,4.8 13.76,8.6c4.03,4.03 7.2,8.83 9.28,14.17zM468.49,61.77c-0.81,-2.9 -2.22,-5.61 -4.07,-8.01c-1.72,-2.13 -3.94,-3.89 -6.43,-5.03c-2.76,-1.22 -5.75,-1.81 -8.74,-1.77c-3.03,-0.09 -6.02,0.54 -8.74,1.81c-2.49,1.22 -4.66,2.94 -6.38,5.12c-1.86,2.35 -3.26,5.12 -4.07,8.01c-1.9,6.93 -1.9,14.26 0,21.19c0.81,2.9 2.22,5.57 4.07,7.97c1.72,2.17 3.89,3.89 6.38,5.07c5.57,2.4 11.86,2.4 17.43,0c2.49,-1.18 4.71,-2.9 6.43,-5.07c1.86,-2.35 3.21,-5.07 4.07,-7.97c1,-3.49 1.49,-7.06 1.45,-10.64c0.05,-3.62 -0.45,-7.2 -1.4,-10.69z" />
		<path id="Layer" class="shp2" d="M135.71,218.84c-0.54,-9.37 -1.18,-18.79 -1.81,-28.12c-0.63,-9.33 -1.4,-18.38 -2.26,-26.99c-0.86,-8.6 -1.77,-16.48 -2.81,-23.45l-0.18,-1.27h-23.68l-0.41,0.77c-1.81,3.35 -3.98,7.56 -6.34,12.41c-2.35,4.84 -4.89,10.28 -7.47,15.94c-2.54,5.66 -5.16,11.55 -7.65,17.52l-5.8,13.63l-5.75,-13.58c-2.54,-5.98 -5.12,-11.82 -7.65,-17.52c-2.58,-5.7 -5.07,-11 -7.47,-15.94c-2.4,-4.94 -4.53,-9.1 -6.34,-12.41l-0.41,-0.77h-24.72l-0.18,1.27c-1,6.97 -1.95,14.9 -2.81,23.45c-0.86,8.56 -1.63,17.7 -2.26,26.99c-0.63,9.28 -1.27,18.74 -1.81,28.12c-0.54,9.42 -1.04,18.34 -1.45,26.53l-0.09,1.54h26.03l0.05,-1.45c0.32,-10.28 0.68,-21.46 1.22,-33.28c0.41,-9.96 1.04,-20.15 1.81,-30.34c1.18,2.72 2.4,5.57 3.71,8.6c2.22,5.16 4.44,10.28 6.61,15.44c2.17,5.16 4.3,10.1 6.29,14.76c2.04,4.71 3.76,8.69 5.16,12.04l0.36,0.91h18.47l0.36,-0.91c1.4,-3.35 3.12,-7.33 5.16,-12.04c2.04,-4.71 4.12,-9.64 6.29,-14.76c2.17,-5.16 4.39,-10.28 6.61,-15.44l3.71,-8.6c0.77,10.14 1.36,20.33 1.81,30.34c0.5,12.04 0.91,23.27 1.22,33.28l0.05,1.45h26.03l-0.09,-1.54c-0.5,-8.2 -1,-17.21 -1.54,-26.58z" />
		<path id="Layer" class="shp2" d="M146.17,246.91h26.58v-107.9h-26.58z" />
		<path id="Layer" class="shp2" d="M211.5,139.01h-26.58v107.9h73.08v-23.27h-46.5z" />
		<path id="Layer" class="shp2" d="M290.69,139.01h-26.58v107.9h73.08v-23.27h-46.5z" />
		<path id="Layer" class="shp2" d="M343.3,246.91h26.58v-107.9h-26.58z" />
		<path id="Layer" class="shp2" d="M480.76,168.63c2.81,6.97 4.21,15.17 4.21,24.27c0,9.1 -1.36,17.25 -4.07,24.22c-2.72,6.97 -6.57,12.9 -11.32,17.61c-4.84,4.8 -10.69,8.47 -17.11,10.73c-6.79,2.44 -13.99,3.62 -21.19,3.58c-7.06,0.05 -14.13,-1.18 -20.78,-3.58c-6.38,-2.31 -12.27,-5.93 -17.16,-10.69c-5.07,-4.98 -8.96,-11 -11.55,-17.61c-2.81,-6.97 -4.21,-15.12 -4.21,-24.27c0,-9.15 1.45,-17.3 4.35,-24.27c2.67,-6.66 6.7,-12.68 11.77,-17.7c4.89,-4.75 10.73,-8.42 17.16,-10.78c6.52,-2.4 13.45,-3.62 20.42,-3.58c7.06,-0.05 14.13,1.18 20.78,3.58c6.43,2.31 12.27,5.98 17.16,10.78c5.03,5.07 8.96,11.09 11.55,17.7zM455.86,179.27c-1.09,-3.71 -2.85,-7.2 -5.21,-10.23c-2.22,-2.76 -5.07,-4.98 -8.29,-6.47c-3.49,-1.58 -7.29,-2.35 -11.09,-2.31c-3.89,-0.05 -7.7,0.72 -11.18,2.35c-3.21,1.54 -5.98,3.8 -8.2,6.57c-2.4,3.03 -4.12,6.52 -5.21,10.23c-2.44,8.83 -2.44,18.11 0,26.94c1.09,3.71 2.85,7.15 5.21,10.19c2.22,2.76 4.98,4.98 8.2,6.47c7.11,3.03 15.17,3.03 22.28,0c3.21,-1.49 6.02,-3.71 8.24,-6.47c2.35,-3.03 4.12,-6.47 5.21,-10.19c1.27,-4.39 1.86,-8.92 1.81,-13.49c0.05,-4.57 -0.54,-9.15 -1.77,-13.58z" />
		<path id="Layer" class="shp2" d="M559.36,197.56c-2.81,-4.21 -5.84,-8.56 -8.96,-12.99c-4.12,-5.89 -8.33,-11.64 -12.54,-17.16c-4.21,-5.52 -8.33,-10.69 -12.36,-15.58c-4.07,-4.84 -7.79,-9.01 -11.14,-12.36l-0.45,-0.45h-21.33v107.9h26.31v-66.19c7.97,9.6 15.48,19.56 22.41,29.93c7.79,11.59 15.17,23.54 21.91,35.5l0.41,0.77h22.19v-107.9h-26.44z" />
		<path id="Layer" class="shp2" d="M668.84,203.26c-1.36,-3.67 -3.53,-7.02 -6.34,-9.78c-3.08,-2.94 -6.61,-5.34 -10.46,-7.15c-4.03,-1.95 -8.87,-3.98 -14.4,-6.07c-2.58,-0.91 -4.98,-1.77 -7.11,-2.63c-1.9,-0.72 -3.76,-1.68 -5.52,-2.76c-1.36,-0.81 -2.49,-1.9 -3.44,-3.17c-0.77,-1.18 -1.13,-2.58 -1.09,-3.98c0,-2.72 0.95,-4.66 3.03,-5.93c2.22,-1.4 6.07,-2.13 11.41,-2.13c4.84,0 9.06,0.54 12.5,1.68c3.31,1.04 6.47,2.35 9.55,3.94l1.49,0.77l7.83,-21.42l-1.13,-0.63c-4.17,-2.17 -8.51,-3.85 -12.99,-5.12c-5.25,-1.54 -11.59,-2.35 -18.74,-2.35c-5.57,-0.09 -11.14,0.68 -16.48,2.26c-4.57,1.36 -8.87,3.58 -12.63,6.57c-3.44,2.81 -6.25,6.38 -8.15,10.46c-1.95,4.3 -2.94,9.01 -2.85,13.72c0,5.07 0.91,9.42 2.72,12.99c1.72,3.44 4.12,6.52 7.02,9.06c2.9,2.49 6.11,4.57 9.6,6.16c3.44,1.58 6.93,2.99 10.46,4.21c7.7,2.54 13.18,4.98 16.25,7.15c2.85,1.99 4.21,4.39 4.21,7.33c0,1.31 -0.18,2.63 -0.63,3.85c-0.45,1.13 -1.22,2.08 -2.22,2.76c-1.45,0.95 -3.03,1.68 -4.71,2.04c-2.58,0.59 -5.25,0.86 -7.88,0.77c-6.47,0 -12.04,-0.68 -16.48,-1.99c-3.89,-1.09 -7.7,-2.63 -11.27,-4.48l-1.54,-0.86l-7.65,21.6l1.09,0.63c4.07,2.31 8.47,4.07 12.99,5.3c3.31,0.91 6.7,1.58 10.1,2.08c4.26,0.59 8.51,0.86 12.77,0.86c14.13,0 24.86,-2.81 31.97,-8.42c7.2,-5.66 10.87,-13.72 10.87,-23.95c-0.09,-5.16 -0.77,-9.64 -2.13,-13.36z" />
	</g>
</svg>