<svg xmlns="http://www.w3.org/2000/svg" xmlns:xlink="http://www.w3.org/1999/xlink" viewBox="0 0 379.08 252.5"><defs><style>.cls-1{fill:url(#New_Gradient_Swatch_18);}.cls-2{fill:#f61f29;}.cls-3{fill:#ec1c24;}.cls-4{fill:#0a3e94;}</style><radialGradient id="New_Gradient_Swatch_18" cx="293.37" cy="-21.77" r="336.74" gradientUnits="userSpaceOnUse"><stop offset="0" stop-color="#4dafff"/><stop offset="0.11" stop-color="#40afff"/><stop offset="0.33" stop-color="#1faeff"/><stop offset="0.49" stop-color="#00adff"/><stop offset="0.58" stop-color="#06a0f8"/><stop offset="0.75" stop-color="#147fe7"/><stop offset="0.98" stop-color="#2b49ca"/><stop offset="1" stop-color="#2e43c7"/></radialGradient></defs><title>Asset 22</title><g id="Layer_2" data-name="Layer 2"><g id="Layer_1-2" data-name="Layer 1"><path class="cls-1" d="M378.64,74.84a3.21,3.21,0,0,0-3.52-4.71c-14.58,3.19-29.95,6.09-46,8.65q-11,1.76-22.44,3.31a3,3,0,0,1-3-1.51C283.56,45.85,255.65,18,223,.48A4.07,4.07,0,0,0,217,4.42q1,14.27,1,28.94a423,423,0,0,1-3.58,55.12,2.38,2.38,0,0,1-2.26,2l-3.34.15c-36.68,1.58-72,1.33-105-.51a1.37,1.37,0,0,0-.69,2.61c31.18,14.62,64.08,32,97.6,51.89A2.68,2.68,0,0,1,202,147.7c-11.42,38.86-28.48,73.28-49.67,101a2.29,2.29,0,0,0,2.41,3.65c39.89-12.45,80.48-33,118.54-61.43,1.32-1,2.63-2,3.94-3q14.81-11.33,28.18-23.55a.48.48,0,0,1,.79.51q-6.26,15.88-13.72,30.53A8.51,8.51,0,0,0,295,206.26q19.1,13.78,36.58,27.55a3.84,3.84,0,0,0,6.23-2.75q.58-8.94.59-18.05a274,274,0,0,0-8.94-69.78,3.73,3.73,0,0,1,.85-3.48A370.85,370.85,0,0,0,378.64,74.84Z"/><path class="cls-2" d="M47.11,147.92c-18,0-27.07-9.84-27.07-29.25v-37a1.5,1.5,0,0,1,1.5-1.5H35.15a1.5,1.5,0,0,1,1.5,1.5v37.12c0,12.92,6.3,14.41,11,14.41s10.83-1.43,10.83-13.84V81.63a1.5,1.5,0,0,1,1.5-1.5H73.58a1.5,1.5,0,0,1,1.5,1.5v36.3C75.08,137.83,65.67,147.92,47.11,147.92Z"/><path class="cls-3" d="M73.58,81.63v36.3q0,28.49-26.47,28.49-25.57,0-25.57-27.75v-37H35.15v37.12q0,15.91,12.54,15.91Q60,134.66,60,119.33V81.63H73.58m0-3H60a3,3,0,0,0-3,3v37.7c0,10.93-5,12.34-9.33,12.34s-9.54-1.47-9.54-12.91V81.63a3,3,0,0,0-3-3H21.54a3,3,0,0,0-3,3v37c0,20.12,9.88,30.75,28.57,30.75,19.28,0,29.47-10.89,29.47-31.49V81.63a3,3,0,0,0-3-3Z"/><path class="cls-2" d="M122.3,146.81a1.5,1.5,0,0,1-1.23-.65l-18.44-26.62v25.76a1.5,1.5,0,0,1-1.5,1.5H87.56a1.5,1.5,0,0,1-1.5-1.5V81.63a1.5,1.5,0,0,1,1.5-1.5h13.57a1.5,1.5,0,0,1,1.5,1.5v24.78l17.53-25.63a1.5,1.5,0,0,1,1.24-.65h16.2a1.5,1.5,0,0,1,1.2,2.4L116.69,112l24,32.4a1.5,1.5,0,0,1-1.21,2.39Z"/><path class="cls-3" d="M137.59,81.63,114.82,112l24.67,33.3H122.3L103,117.48a19.18,19.18,0,0,1-1.69-3.33h-.21v31.16H87.56V81.63h13.57v30.09h.21a29.46,29.46,0,0,1,1.81-3.41l18.25-26.68h16.2m0-3h-16.2a3,3,0,0,0-2.48,1.31l-14.79,21.62V81.63a3,3,0,0,0-3-3H87.56a3,3,0,0,0-3,3v63.68a3,3,0,0,0,3,3h13.57a3,3,0,0,0,3-3v-21L119.83,147a3,3,0,0,0,2.47,1.29h17.18a3,3,0,0,0,2.41-4.79L118.56,112,140,83.43a3,3,0,0,0-2.4-4.8Zm0,6h0Z"/><path class="cls-4" d="M180.38,144.4H159.71V108.1h20.67V116H169.16v6.2h10.61V130H169.16v6.49h11.22Z"/><path class="cls-4" d="M218,129a25.3,25.3,0,0,1-.53,5.59,13,13,0,0,1-3.94,6.54q-4.42,4.18-11.81,4.18T190,141.08a11.65,11.65,0,0,1-3.06-5.61,28.21,28.21,0,0,1-.58-6.44V108.1h9.44v19.64q0,2.36.08,3.53a5.72,5.72,0,0,0,3.38,5.16,6.44,6.44,0,0,0,2.82.61,6,6,0,0,0,5.21-2.42q1.3-1.78,1.3-6.88V108.1H218Z"/><path class="cls-4" d="M255.84,144.4H244.11l-9-13.94V144.4h-9.44V108.1h14.68q6.44,0,9.52,3.86a11.33,11.33,0,0,1,2.5,7.31,10.39,10.39,0,0,1-2.87,7.69,10.05,10.05,0,0,1-5.05,2.55Zm-13.27-24.62a4.3,4.3,0,0,0-1.41-3.26,6.17,6.17,0,0,0-4.3-1.25h-1.76v9h1.76q3,0,4.3-1.25A4.38,4.38,0,0,0,242.57,119.79Z"/><path class="cls-4" d="M298.37,126.37a19,19,0,0,1-4.92,13q-5.61,6.36-15.19,6.36t-15.16-6.36a19,19,0,0,1-4.92-13,19.68,19.68,0,0,1,1.33-6.93,19.27,19.27,0,0,1,3.56-6.08q5.61-6.36,15.19-6.36t15.19,6.36A19.07,19.07,0,0,1,298.37,126.37Zm-9.79,0a9.75,9.75,0,0,0-2.45-6.64A10.32,10.32,0,0,0,268,126.37a9.93,9.93,0,0,0,2.45,6.59,9.79,9.79,0,0,0,7.84,3.6,10.21,10.21,0,0,0,10.32-10.19Z"/><path class="cls-4" d="M60.69,211.59H48.1L44.52,183.7,32.83,211.59h-5L16.67,183.7l-4.11,27.88H0l8.23-48.42H20.68L30.47,189l10.36-25.82H53.39Z"/><path class="cls-4" d="M81.27,211.59H68.68V163.17H81.27Z"/><path class="cls-4" d="M119.15,211.59H91.45V163.17H104v37.92h15.11Z"/><path class="cls-4" d="M153.31,211.59h-27.7V163.17H138.2v37.92h15.11Z"/><path class="cls-4" d="M172.36,211.59H159.77V163.17h12.59Z"/><path class="cls-4" d="M234,187.54a25.39,25.39,0,0,1-6.56,17.31q-7.49,8.48-20.25,8.48t-20.22-8.48a25.38,25.38,0,0,1-6.56-17.31,26.24,26.24,0,0,1,1.77-9.24,25.7,25.7,0,0,1,4.75-8.11q7.48-8.48,20.26-8.48t20.25,8.48A25.43,25.43,0,0,1,234,187.54Zm-13.05,0a13,13,0,0,0-3.27-8.86,13.76,13.76,0,0,0-24.22,8.86,13.25,13.25,0,0,0,3.27,8.78,13.06,13.06,0,0,0,10.46,4.8,13.62,13.62,0,0,0,13.76-13.59Z"/><path class="cls-4" d="M290.31,211.59H277.71l-23.16-29.65v29.66H242V163.17h12.59l23.16,29.62V163.17h12.59Z"/><path class="cls-4" d="M334,195.57q0,12.29-10.78,16a24.37,24.37,0,0,1-8.09,1.31,28.58,28.58,0,0,1-16.85-5.5l5.39-10.15q5.69,5.14,11.13,5.14a7.28,7.28,0,0,0,4.16-1.15,4.11,4.11,0,0,0,2-3.66,4.2,4.2,0,0,0-2.2-3.58,21.56,21.56,0,0,0-5.51-2.19q-4.69-1.38-5.9-1.91a13.5,13.5,0,0,1-3.27-1.91q-3.87-3.19-3.87-9.64a16,16,0,0,1,4-11.16Q308.9,162,316.7,162a32.76,32.76,0,0,1,15.36,3.94l-5,9.79a13.46,13.46,0,0,0-8.32-3.23,6.55,6.55,0,0,0-3.63,1,3.58,3.58,0,0,0-1.81,3.13q0,1.92,2.38,3.31a39.83,39.83,0,0,0,6.4,2.21q6.68,2,9.52,5.54A12.14,12.14,0,0,1,334,195.57Z"/></g></g></svg>