<svg xmlns="http://www.w3.org/2000/svg" xmlns:xlink="http://www.w3.org/1999/xlink" viewBox="0 0 442.54 139.57"><defs><style>.cls-1{fill:#0a3e94;}.cls-2{fill:#fff;}.cls-3{fill:#234b8d;}.cls-4{fill:url(#New_Gradient_Swatch_1);}</style><radialGradient id="New_Gradient_Swatch_1" cx="279.33" cy="66.91" r="110.94" gradientUnits="userSpaceOnUse"><stop offset="0.01" stop-color="#fff"/><stop offset="1" stop-color="#fff"/></radialGradient></defs><title>Asset 24</title><g id="Layer_2" data-name="Layer 2"><g id="Layer_1-2" data-name="Layer 1"><path class="cls-1" d="M0,64.05a51.12,51.12,0,1,1,51.12,51.12A51.12,51.12,0,0,1,0,64.05Z"/><path class="cls-2" d="M10.22,64.05c0-28.23,18.31-51.12,40.89-51.12S92,35.82,92,64.05,73.7,115.17,51.12,115.17,10.22,92.28,10.22,64.05Z"/><path class="cls-1" d="M18.59,64.05c0-28.23,14.56-51.12,32.53-51.12S83.65,35.82,83.65,64.05s-14.56,51.12-32.53,51.12S18.59,92.28,18.59,64.05Z"/><path class="cls-2" d="M27.88,64.05c0-28.23,10.4-51.12,23.24-51.12S74.36,35.82,74.36,64.05,64,115.17,51.12,115.17,27.88,92.28,27.88,64.05Z"/><path class="cls-1" d="M37.18,64.05c0-28.23,6.24-51.12,13.94-51.12S65.05,35.82,65.05,64.05s-6.24,51.12-13.94,51.12S37.18,92.28,37.18,64.05Z"/><path class="cls-2" d="M46.47,64.05c0-28.23,2.08-51.12,4.65-51.12s4.64,22.89,4.64,51.12-2.08,51.12-4.64,51.12S46.47,92.28,46.47,64.05Z"/><path class="cls-1" d="M80.71,22.37H21.52a51.14,51.14,0,0,1,59.19,0ZM22.35,106.31H79.89a51.14,51.14,0,0,1-57.54,0Z"/><path class="cls-2" d="M.11,60.8h102a50.25,50.25,0,0,1,0,6.51H.11A50.65,50.65,0,0,1,.11,60.8ZM24.56,20.37H77.67A50.17,50.17,0,0,1,83,24.09H19.25A50.13,50.13,0,0,1,24.56,20.37ZM19.25,104H83a52.85,52.85,0,0,1-5.31,3.71H24.56A53.19,53.19,0,0,1,19.25,104Z"/><path class="cls-1" d="M43.68,111.46H58.55v14.87H43.68Z"/><path class="cls-3" d="M428.53,62.25h-37.1V12.17A12,12,0,0,0,379.58,0H121.69a12,12,0,0,0-11.86,12.17V70a12.51,12.51,0,0,0,.17,2,9.44,9.44,0,0,0-.17,1.71v54.41c0,6.33,6.27,11.46,14,11.46H428.53c7.74,0,14-5.13,14-11.46V73.7C442.54,67.37,436.27,62.25,428.53,62.25Z"/><path class="cls-4" d="M134.6,126.55h14.19v-39h.13l8.39,39h24.32V72.69H167.44v38h-.13l-8-38H134.6ZM189.37,99a21.28,21.28,0,0,1,10.74-3.4c3.89,0,8.15.62,8.21,5.79a55.06,55.06,0,0,0-6.05-.54c-7.71,0-16.6,2.47-16.6,14.81,0,8.41,5.8,11.8,11.79,11.8a11.2,11.2,0,0,0,10.49-6.71h.13v5.78h14.44V102.08c0-14.66-10.8-16.66-19.69-16.66a34,34,0,0,0-13.45,2.32V99Zm18.95,11.11c0,3.47-1.6,7.18-4.81,7.18-2.41,0-3.64-1.08-3.64-3.86,0-4.16,3.7-4.54,6.92-4.54h1.54Zm49.71,3.4a11.47,11.47,0,0,1-7.22,2.39c-4.63,0-7.71-3.63-7.71-9.88,0-6,3.08-9,7.71-9a13.92,13.92,0,0,1,7,2V87.12a32.11,32.11,0,0,0-11.3-1.69c-13,0-19.93,6.79-19.93,20.29,0,13.88,6.91,21.75,19.93,21.75a29.41,29.41,0,0,0,11.55-2v-12Zm4,13h15.55V86.35H262.07Zm15.55-57.86H262.07V82.11h15.55Zm4,37c0,13.88,6.92,21.75,19.94,21.75s20-7.87,20-21.75c0-13.51-7-20.29-20-20.29s-19.94,6.79-19.94,20.29Zm16.55,0c0-4.78.37-8.72,3.4-8.72s3.45,3.94,3.45,8.72c0,5.86-.43,10.18-3.45,10.18S298.2,111.58,298.2,105.72Zm27.42,20.83h15.56V103.4c0-2.31,0-5.48,2.78-5.48s2.72,3.16,2.72,5.48v23.15h15.56V98.62c0-7.79-3-13.2-11.29-13.2-4.39,0-8.65,2.24-10.49,7.87h-.13V86.35H325.62v40.2ZM370,99a21.25,21.25,0,0,1,10.74-3.4c3.89,0,8.15.62,8.21,5.79a55.18,55.18,0,0,0-6.05-.54c-7.72,0-16.6,2.47-16.6,14.81,0,8.41,5.8,11.8,11.79,11.8a11.2,11.2,0,0,0,10.49-6.71h.12v5.78h14.44V102.08c0-14.66-10.8-16.66-19.69-16.66A34,34,0,0,0,370,87.74V99Zm18.95,11.11c0,3.47-1.61,7.18-4.81,7.18-2.41,0-3.65-1.08-3.65-3.86,0-4.16,3.7-4.54,6.92-4.54h1.55Zm19.58-41.43v57.86h15.56V68.69ZM134.6,64.2h36.85V48.31H151.14v-38H134.6Zm39.49-20.83c0,13.88,6.91,21.75,19.94,21.75s20-7.87,20-21.75c0-13.51-7-20.29-20-20.29s-19.94,6.79-19.94,20.29Zm16.54,0c0-4.79.37-8.72,3.4-8.72s3.45,3.94,3.45,8.72c0,5.86-.43,10.18-3.45,10.18S190.63,49.24,190.63,43.37ZM216.72,24V35.58h5.5V49.46c0,10.65,3.89,15.66,11.91,15.66A30.77,30.77,0,0,0,244.8,63V51.47a9.07,9.07,0,0,1-3.64.69c-2,0-3.4-1.85-3.4-5.24V35.58h7V24h-7V8.8l-15.55,5.94V24Zm47.36,16.27c-.18-3.16.62-7.95,4.2-7.95s3.89,4.87,3.89,7.95Zm21.54,8.49V46.38c0-13.58-4.38-23.3-16.85-23.3-13,0-19.94,6.79-19.94,20.3,0,13.88,6.91,21.75,19.94,21.75a40.08,40.08,0,0,0,14.5-2.31V52.39c-2.47,1.62-6.3,2.55-10.55,2.55-4.57,0-8.33-1.16-8.58-6.17h21.48Zm4-24.77V64.2h15.55V49.62c0-5.94,3.64-10.65,8-10.65a8.42,8.42,0,0,1,3.52.62V23.46a8.06,8.06,0,0,0-2.53-.38c-4.88,0-8,4.32-9.81,10h-.12V24Zm53,12.65a21.26,21.26,0,0,1,10.74-3.4c3.89,0,8.15.62,8.21,5.79a54.77,54.77,0,0,0-6.05-.54c-7.72,0-16.6,2.47-16.6,14.81,0,8.41,5.8,11.8,11.79,11.8a11.21,11.21,0,0,0,10.49-6.71h.12V64.2h14.44V39.74c0-14.66-10.8-16.67-19.69-16.67a34.07,34.07,0,0,0-13.46,2.32V36.66Zm18.95,11.11c0,3.47-1.61,7.18-4.82,7.18-2.41,0-3.64-1.08-3.64-3.86,0-4.16,3.7-4.54,6.91-4.54h1.54v1.23ZM319.39,64.2h15.55V24H319.39Zm6.85-57.86-6.11,12h8.58l12.16-12Z"/></g></g></svg>