<svg xmlns="http://www.w3.org/2000/svg" viewBox="0 0 826 300" width="826" height="300">
	<style>
		tspan { white-space:pre }
		.shp0 { fill: none } 
		.shp1 { fill: #2e3191 } 
		.shp2 { fill: #ffffff } 
		.shp3 { fill: #fafbfb } 
		.shp4 { fill: #f7f8f9 } 
	</style>
	<g id="Layer_2">
		<g id="Logos">
			<path id="BG" class="shp0" d="M-4,332.6h833v-333.2h-833z" />
			<g id="UK_Lotto">
				<path id="Layer" class="shp1" d="M743.28,125.18c-17.78,-0.11 -35.16,5.35 -49.69,15.6v-8.01h-37.36v-29.5c0,-3.8 -1.78,-7.38 -4.8,-9.68c-3.02,-2.3 -6.95,-3.06 -10.61,-2.05l-10.27,2.82c-3.92,1.08 -7.96,2.02 -12.23,3.01c-9.8,2.27 -19.94,4.61 -29.56,9.05l-9.73,4.48l-3.67,21.82h-23.87v-29.44c0,-3.8 -1.78,-7.38 -4.8,-9.68c-3.02,-2.3 -6.95,-3.06 -10.61,-2.05l-10.29,2.82c-3.99,0.9 -8.06,1.9 -12.23,3.01c-9.2,2.5 -17.83,5.19 -25.82,8.06l-14.26,-19.02l17.08,-23.77c1.55,-2.15 1.76,-5 0.54,-7.35c-1.22,-2.36 -3.66,-3.83 -6.31,-3.81l-34.8,0.24l-5.18,8.12v-9.06l-8.1,0.56c-2.27,0.16 -9.16,0.38 -18.77,0.38l-10.41,-0.37c-2.09,0.14 -8.43,0.36 -17.31,0.36h-7.58l-10.04,-0.37c-2.28,0.16 -9.16,0.38 -18.78,0.38v0c-4.18,0 -7.58,3.4 -7.58,7.58v7.71l-23.84,6.61c-4.94,1.37 -10,2.5 -15.29,3.76c-11.85,2.74 -24.1,5.58 -35.51,10.83v0c-7.19,3.31 -11.79,10.5 -11.79,18.42v113.62c0,20.75 0.48,37.32 1.27,43.24l2.13,16.12l16.19,1.42c5.83,0.52 11.87,0.78 17.9,0.78c11.79,-0.04 23.56,-0.93 35.22,-2.68l20.11,-2.93l-1.17,-7.86c12.94,9.72 29.5,15.34 48.23,15.34c29.16,0 54.38,-13.81 69.47,-35.25c3.95,8.91 10.15,16.64 17.98,22.43c14.4,10.68 31.05,12.91 42.48,12.91c21,0 38.32,-7.88 47.48,-15.26l5.36,-4.31l0.41,-1.67c2.69,3.09 5.71,5.89 9,8.33c14.4,10.68 31.05,12.91 42.48,12.91c21,0 38.32,-7.88 47.48,-15.26l3.29,-2.65c13.33,11.25 31.08,17.82 51.34,17.82c47.3,0 84.35,-36.34 84.35,-82.74c-0.03,-43.92 -32.65,-75.75 -77.56,-75.75z" />
				<path id="Layer" class="shp2" d="M409.94,62.56v29.99c0,17.85 -9.79,28.41 -26.75,28.41c-16.96,0 -27.49,-10.55 -27.49,-28.41v-29.6c9.76,0 16.74,-0.22 19.29,-0.4v29.99c0,7.66 3.24,12.2 8.59,12.2c5.35,0 8.51,-4.53 8.51,-12.2v-14.51v0v-15.09c9.03,0 15.49,-0.22 17.84,-0.37z" />
				<path id="Layer" class="shp2" d="M441.95,96.22h-2.8v23.47c-6.4,0.8 -12.87,0.93 -19.29,0.38v-57.13c9.76,0 16.75,-0.22 19.29,-0.4v21.53h3.43l13.49,-21.13h19.73l-17.16,25.38l18.21,31.36l-21.82,1.22z" />
				<path id="Layer" class="shp2" d="M332.37,251.91c-16.92,2.5 -32.81,3.15 -48.39,1.77c-0.47,-3.57 -1.09,-17.01 -1.09,-40.59v-113.61c14.09,-6.5 31.2,-8.91 47.71,-13.47v127.08c0,19.55 1.01,33.66 1.77,38.82z" />
				<path id="Layer" class="shp2" d="M345.55,200.64c0,-35.49 27.96,-62.38 63.73,-62.38c33.15,0 57.26,22.49 57.26,55.51c0,35.16 -27.96,62.47 -64.08,62.47c-33.06,-0.01 -56.91,-22.78 -56.91,-55.61zM418.86,198.15c0.22,-16.84 -6.66,-22.98 -13.59,-22.98c-7.37,0 -11.76,6.3 -11.98,21.25c-0.22,16.84 5.91,22.99 12.85,22.99c7.35,-0.02 12.47,-6.32 12.69,-21.28z" />
				<path id="Layer" class="shp2" d="M567.17,245.54c-5.77,4.65 -18.63,10.83 -34.79,10.83c-19.68,0 -46.06,-8.87 -46.06,-44.8v-31.01h-15.13c1.6,-11.57 4.8,-23.41 4.8,-34.7l15.09,-3.25l4.17,-24.91c11.43,-5.26 25.31,-7.23 38.7,-10.93v39.08h37.39c0,11.3 -3.19,23.13 -4.79,34.7h-32.49v17.93c0,14.42 9.44,18.45 15.36,18.45c8.23,0 16.76,-3.61 21.8,-6.32c1.36,9.53 -0.77,21.42 -4.07,34.93z" />
				<path id="Layer" class="shp2" d="M671.91,245.54c-5.77,4.65 -18.64,10.83 -34.79,10.83c-19.68,0 -46.06,-8.87 -46.06,-44.8v-31.01h-15.13c1.59,-11.57 4.79,-23.41 4.79,-34.7l15.1,-3.25l4.17,-24.91c11.43,-5.26 25.31,-7.23 38.7,-10.93v39.08h37.36c0,11.3 -3.19,23.13 -4.79,34.7h-32.49v17.93c0,14.42 9.44,18.45 15.36,18.45c8.23,0 16.76,-3.61 21.8,-6.32c1.39,9.53 -0.73,21.42 -4.03,34.93z" />
				<path id="Layer" class="shp2" d="M682.33,200.64c0,-35.49 27.96,-62.38 63.73,-62.38c33.15,0 57.26,22.49 57.26,55.51c0,35.16 -27.96,62.47 -64.08,62.47c-33.06,-0.01 -56.91,-22.78 -56.91,-55.61zM755.63,198.15c0.22,-16.84 -6.66,-22.98 -13.59,-22.98c-7.37,0 -11.77,6.3 -11.99,21.25c-0.22,16.84 5.91,22.99 12.85,22.99c7.36,-0.02 12.48,-6.32 12.7,-21.28z" />
				<path id="Layer" class="shp1" d="M141.41,292.38c-13.48,0 -27.49,-3.12 -41.57,-9.26l-5,-2.12l-0.83,-0.57c-5.4,-3.81 -10.59,-7.91 -15.54,-12.28l-0.17,-0.15l-0.17,-0.17c-10.54,-10.2 -16.83,-22.1 -23.4,-35.48l-0.27,-0.56l-0.2,-0.59c-1.85,-5.52 -3.33,-11.1 -4.7,-16.49c-2.02,-7.8 -3.93,-15.17 -6.93,-22.11l-0.17,-0.41l-0.13,-0.42c-0.24,-0.6 -0.58,-1.4 -1.06,-2.31c-0.99,-1.89 -2.2,-3.65 -3.61,-5.26c-1.45,-1.74 -3.13,-3.27 -5,-4.56c-1.6,-1.06 -2.5,-1.37 -7.69,-3.24c-7.79,-2.84 -8.77,-3.28 -10,-4.12c-2.18,-1.51 -4.02,-3.44 -5.42,-5.69c-0.68,-1.08 -1.19,-1.85 -1.75,-2.8c-1.28,-1.96 -2.29,-4.1 -2.97,-6.34c-0.33,-1.24 -0.52,-2.52 -0.57,-3.8c0.25,-7.34 2.72,-14.43 7.09,-20.33c9.57,-12.49 25.16,-14.24 28.64,-14.57c2.34,-0.22 4.61,-0.32 6.86,-0.32c10.01,-0.01 19.92,2.1 29.05,6.21l0.44,0.19l0.42,0.24c2.7,1.57 5.33,3.26 7.87,5.06l7.08,-20.1l0.18,-0.38c1.3,-2.85 2.6,-5.7 3.91,-8.56l2.9,-6.36c-4.69,-10.82 -8.41,-22.04 -11.12,-33.52l-0.12,-0.54l-0.07,-0.56c-0.14,-1.32 -0.32,-2.63 -0.48,-3.94c-0.83,-6.35 -1.74,-13.54 -0.3,-21.12c1.1,-6.02 3.55,-14.84 11.36,-21.5c4.75,-4.18 10.85,-6.5 17.18,-6.52c6.89,0.08 13.51,2.7 18.58,7.36c3.98,3.55 7.35,7.72 10,12.35l0.39,0.66l1.02,-0.83l0.42,-0.3c5.91,-4.03 11.6,-6 17.39,-6c3.98,0.02 7.9,0.95 11.47,2.72c9.16,4.44 14.24,12.8 15.1,24.84v0.27c0.36,8.69 -1.26,17.35 -4.74,25.32c-3,7.5 -6.66,16.24 -10.91,24.99c-1.21,2.57 -0.95,3 -0.56,3.65l0.17,0.27l0.14,0.27c0.61,1.18 1.19,2.39 1.72,3.62c1.19,-0.13 2.38,-0.2 3.57,-0.2c13.33,0 23.37,8.45 26.91,21.8c0.95,-0.11 1.91,-0.16 2.87,-0.16c11.02,0 20.78,7.02 24.87,17.9c3.72,9.88 3.67,20.2 -0.12,32.49c-0.77,2.58 -0.98,5.29 -0.62,7.96v0.23c4.05,37.06 -9.16,67.61 -38.21,88.3c-16.53,11.8 -34.42,17.78 -53.2,17.78zM78.05,206.82c6.29,22.49 16.3,37.39 31.5,46.94c9.12,5.7 19.67,8.71 30.42,8.68c27.87,0 53.4,-18.96 61.78,-44.98c-2.78,0.87 -5.67,1.32 -8.58,1.32c-8.46,0.01 -16.44,-3.93 -21.57,-10.65c-3.86,1.79 -8.07,2.71 -12.33,2.72c-12,0 -22.71,-7.61 -27.29,-19.4c-1.99,-5.03 -2.91,-10.42 -2.7,-15.83c0.4,-14.31 4.29,-28.3 11.33,-40.77c-0.57,-0.2 -1.09,-0.42 -1.57,-0.62c-4.86,-2.02 -6.83,-5.27 -7.61,-7.64c-1.67,-5.05 0.83,-9.16 1.77,-10.7l0.17,-0.28c3.33,-7.81 7.16,-15.44 10.83,-22.8c4.82,-9.68 9.37,-18.82 13.09,-28.45l0.09,-0.24l0.11,-0.23c1.85,-4.09 2.89,-8.51 3.05,-12.99c-3.85,2.68 -7.11,6.11 -9.59,10.1l-0.11,0.17c-23.12,35.49 -37.08,66.81 -43.92,98.62c-1.74,7.96 -7.71,10.48 -10.25,11.55l-0.64,0.27c-1.73,0.82 -3.62,1.25 -5.53,1.27c-6.34,0 -9.6,-4.73 -10.67,-6.29c-0.09,-0.13 -0.17,-0.27 -0.27,-0.39c-6.49,-8.16 -12.96,-13.2 -20.38,-15.88c-3.85,-1.46 -7.93,-2.25 -12.05,-2.34c-3.08,-0.02 -6.13,0.57 -8.98,1.72c13.49,4.76 23.73,14.51 30.49,29.06l0.12,0.27c3.85,9 6.96,18.29 9.3,27.8zM207.01,157.86c-8.66,8.64 -13.26,20.54 -12.66,32.76c0.14,-0.05 0.27,-0.11 0.4,-0.17c1.71,-0.92 3.16,-2.25 4.24,-3.87l0.12,-0.19c5.11,-7.28 8,-15.88 8.33,-24.77v-0.29c-0.03,-1.16 -0.17,-2.32 -0.43,-3.46zM157.38,174.52c-0.12,5.71 1.18,8.04 1.84,8.27c0.06,0.03 0.13,0.04 0.2,0.05c0,0 1.97,-0.21 5.45,-4.88l0.09,-0.12c0.56,-0.73 1.07,-1.49 1.54,-2.28c6.1,-10.12 10.01,-21.39 11.5,-33.11c0.62,-5.76 0,-6.9 -0.83,-7.45c-0.77,0.19 -2.87,1.16 -5.56,4.29c-8.32,9.87 -13.3,22.11 -14.24,34.99zM115.38,39.88c-0.11,0.48 -0.17,0.98 -0.17,1.47v0.26c-0.09,5.46 0.6,10.91 2.06,16.17c0.72,-0.92 1.48,-1.83 2.31,-2.71c3.51,-3.72 4.79,-5.71 -1.57,-14.11c-0.27,-0.34 -0.52,-0.71 -0.77,-1.07c-0.11,-0.16 -0.21,-0.31 -0.32,-0.46l-0.89,-1.08l-0.07,-0.12c-0.19,0.45 -0.37,0.99 -0.57,1.66z" />
				<path id="Layer" class="shp3" d="M175.09,194.45c5.39,18.63 27.25,20.52 38.86,1.72c0.61,5.84 0.16,11.74 -1.34,17.41c-10.35,48.31 -67.22,73.85 -107.98,48.23c-19.5,-12.23 -29.67,-31.05 -35.64,-52.5c-2.22,-9.04 -5.18,-17.88 -8.85,-26.44c-5.83,-12.42 -14.69,-21.47 -28.32,-25.16c-3.37,-0.91 -6.56,-2.3 -7,-6.21c-0.43,-3.91 2.22,-6.31 5.16,-8.06c10.35,-6.21 21.38,-5.83 32.42,-1.82c10.16,3.65 17.95,10.5 24.56,18.88c1.3,1.67 2.07,4.17 5.23,2.69c2.5,-1.16 4.81,-1.67 5.57,-5.24c7.95,-37.2 24.62,-70.32 45.15,-101.85c3.27,-5.27 7.63,-9.79 12.78,-13.25c7.31,-4.7 13.89,-1.18 14.2,7.58c-0.11,6 -1.43,11.91 -3.9,17.38c-6.87,17.78 -16.56,34.24 -24.16,51.75c-0.83,2.07 -3.62,4.26 0.78,6.07c3.26,1.34 5.28,1.67 6.86,-2.07c1.7,-3.79 3.6,-7.49 5.67,-11.1c1.67,3.67 3.04,6.66 4.51,9.65c1.2,2.42 -0.89,3.29 -2.07,4.61c-11.81,13.7 -18.54,31.06 -19.03,49.15c-0.15,4.12 0.56,8.23 2.07,12.07c5.26,13.52 20.33,17.59 31.65,8.61c1,-0.63 1.93,-1.34 2.81,-2.13zM149.47,251.98c9.37,0.21 17.94,-2.69 26.29,-6.66c5.17,-2.5 0.91,-5.2 0.5,-7.76c-0.57,-3.47 -2.57,-2.55 -4.89,-1.51c-7.43,3.62 -15.73,5.06 -23.95,4.17c-14.64,-2.07 -24.35,-10.35 -30.08,-23.75c-0.77,-1.76 -1.39,-3.97 -3.79,-2.07c-2.4,1.91 -7.56,0.74 -5.88,5.48c7,19.77 22.87,32.41 41.76,32.1z" />
				<path id="Layer" class="shp4" d="M147.96,174.33c0.93,-15.14 6.74,-29.58 16.56,-41.14c5.76,-6.71 12.3,-9.25 17.04,-6.52c6.66,3.82 6.5,10.54 5.83,16.89c-1.66,13.01 -6,25.53 -12.75,36.77c-0.66,1.13 -1.39,2.22 -2.19,3.25c-5.41,7.25 -10.95,10 -16.36,8.08c-5.41,-1.92 -8.34,-7.85 -8.13,-17.33zM162.12,183.62c2.15,-0.04 4.2,-0.93 5.7,-2.48c1.5,-1.55 2.31,-3.63 2.28,-5.78c0.01,-2.12 -0.83,-4.15 -2.32,-5.66c-1.49,-1.5 -3.52,-2.35 -5.64,-2.36h-0.36c-2.2,0 -4.3,0.87 -5.86,2.42c-1.55,1.55 -2.43,3.66 -2.42,5.85v0.29c0.3,4.48 4.13,7.9 8.61,7.71z" />
				<path id="Layer" class="shp4" d="M216.81,161.98c-0.37,10.74 -3.84,21.13 -10,29.94c-1.98,2.97 -4.66,5.4 -7.82,7.06c-6.94,3.39 -13.58,0.49 -13.99,-7.11c-1.04,-16.29 5.57,-32.13 17.87,-42.85c4.7,-4.31 9.94,-2.3 12.42,3.78c1.03,2.95 1.55,6.05 1.52,9.17zM204.72,185.22c-0.13,-4.09 -3.49,-7.33 -7.58,-7.33c-1.94,0.03 -3.8,0.83 -5.15,2.23c-1.35,1.4 -2.09,3.27 -2.06,5.22v0.15c-0.02,1.89 0.71,3.72 2.03,5.08c1.32,1.36 3.13,2.13 5.03,2.15c0.15,0.01 0.29,0.01 0.44,0c1.94,-0.01 3.8,-0.79 5.17,-2.17c1.37,-1.38 2.13,-3.25 2.12,-5.19z" />
				<path id="Layer" class="shp4" d="M114.92,80.71c-4.68,-13.23 -9.63,-25.65 -9.11,-39.33c0.01,-1.31 0.18,-2.61 0.5,-3.87c1.28,-4.38 2.87,-8.81 7.95,-9.91c5.07,-1.1 7.31,2.82 9.92,5.96c0.47,0.57 0.83,1.22 1.32,1.82c6.46,8.51 10,16.57 0.91,26.23c-4.81,5.01 -7.46,12.15 -11.49,19.11z" />
				<path id="Layer" class="shp1" d="M149.43,251.98c-18.88,0.33 -34.76,-12.42 -41.8,-32.25c-1.67,-4.74 3.77,-3.82 5.88,-5.49c2.12,-1.67 3.02,0.31 3.79,2.07c5.73,13.33 15.44,21.73 30.08,23.74c8.22,0.9 16.52,-0.54 23.95,-4.17c2.3,-1.02 4.32,-1.97 4.89,1.52c0.41,2.57 4.7,5.3 -0.5,7.76c-8.26,4.13 -16.92,7.02 -26.29,6.81z" />
				<path id="Layer" class="shp1" d="M162.1,183.62c-2.96,0.18 -5.79,-1.25 -7.39,-3.75c-1.6,-2.5 -1.72,-5.66 -0.32,-8.27c1.4,-2.61 4.11,-4.26 7.07,-4.31h0.3c2.12,-0.08 4.18,0.69 5.73,2.13c1.55,1.44 2.47,3.44 2.54,5.56c0,0.11 0,0.22 0,0.32c0.06,2.15 -0.74,4.24 -2.23,5.8c-1.48,1.56 -3.53,2.47 -5.68,2.53z" />
				<path id="Layer" class="shp1" d="M204.72,185.22c0.09,4.04 -3.1,7.39 -7.14,7.5h-0.17c-1.89,0.1 -3.75,-0.57 -5.15,-1.84c-1.41,-1.27 -2.25,-3.05 -2.34,-4.94c0,-0.15 0,-0.3 0,-0.44c-0.07,-1.94 0.63,-3.84 1.95,-5.26c1.32,-1.42 3.16,-2.27 5.1,-2.34h0.15c4.09,-0.01 7.45,3.23 7.6,7.32z" />
			</g>
		</g>
	</g>
</svg>