<?xml version="1.0" standalone="no"?>
<!DOCTYPE svg PUBLIC "-//W3C//DTD SVG 20010904//EN"
 "http://www.w3.org/TR/2001/REC-SVG-20010904/DTD/svg10.dtd">
<svg version="1.0" xmlns="http://www.w3.org/2000/svg"
 width="700.000000pt" height="700.000000pt" viewBox="0 0 700.000000 700.000000"
 preserveAspectRatio="xMidYMid meet">
<metadata>
Created by potrace 1.11, written by Peter Selinger 2001-2013
</metadata>
<g transform="translate(0.000000,700.000000) scale(0.100000,-0.100000)"
fill="#000000" stroke="none">
<path d="M3607 6964 c-1 -1 -51 -5 -112 -9 -60 -3 -112 -8 -115 -10 -3 -2 -36
-6 -75 -10 -70 -6 -117 -12 -165 -21 -122 -21 -193 -33 -234 -40 -51 -8 -74
-12 -94 -18 -9 -3 -30 -8 -47 -11 -70 -14 -81 -16 -97 -21 -10 -3 -30 -7 -45
-10 -16 -2 -39 -7 -53 -11 -14 -3 -29 -7 -35 -8 -82 -19 -347 -92 -431 -120
-315 -104 -396 -203 -234 -285 39 -20 126 -53 170 -66 92 -25 329 -68 435 -79
33 -3 67 -8 75 -10 8 -2 47 -6 85 -9 39 -3 104 -8 145 -12 41 -3 136 -7 211
-8 74 -2 144 -8 154 -13 17 -10 14 -14 -29 -44 -26 -19 -59 -41 -74 -49 -436
-244 -572 -360 -572 -490 0 -134 208 -298 495 -391 22 -7 42 -14 45 -14 3 -1
12 -4 20 -8 14 -5 123 -28 135 -28 2 0 19 -5 37 -10 18 -5 53 -12 78 -15 25
-3 52 -7 60 -9 93 -24 540 -24 700 0 74 11 107 16 130 21 14 2 39 7 55 10 120
21 332 92 455 153 314 155 505 368 546 612 14 81 7 213 -15 293 -109 398 -540
668 -1166 732 -65 7 -432 14 -438 8z"/>
<path d="M6220 6366 c-117 -30 -344 -174 -560 -354 -36 -30 -76 -63 -90 -75
-35 -29 -224 -191 -230 -197 -13 -14 -343 -292 -410 -346 -284 -227 -628 -443
-890 -558 -36 -16 -83 -37 -105 -47 -41 -19 -49 -22 -220 -82 -109 -39 -328
-104 -379 -113 -17 -2 -67 -13 -111 -24 -105 -24 -131 -29 -240 -45 -23 -3
-50 -7 -60 -9 -49 -9 -105 -16 -165 -21 -36 -3 -81 -8 -100 -10 -79 -11 -122
-14 -275 -21 -214 -10 -566 -9 -805 1 -402 18 -693 11 -863 -21 -650 -123
-553 -509 263 -1046 63 -41 192 -122 285 -180 573 -352 748 -503 861 -742 54
-114 73 -223 69 -391 -2 -77 -6 -156 -10 -175 -16 -93 -49 -240 -65 -295 -10
-33 -25 -87 -33 -120 -9 -33 -27 -105 -42 -160 -25 -96 -79 -340 -89 -401 -2
-16 -8 -49 -12 -74 -34 -205 -39 -465 -11 -570 26 -95 58 -150 110 -188 111
-80 302 -35 552 132 80 53 220 161 298 230 16 13 46 39 68 56 64 53 254 236
408 394 428 439 518 522 646 599 189 112 404 123 730 37 61 -16 121 -32 135
-35 14 -4 59 -17 100 -30 94 -29 277 -85 395 -120 50 -15 146 -44 215 -65 284
-86 525 -151 640 -172 30 -5 71 -12 90 -16 19 -4 82 -7 140 -7 93 0 111 3 154
25 82 42 112 133 86 263 -7 34 -13 69 -15 77 -24 121 -221 556 -393 866 -217
393 -301 558 -372 735 -121 301 -144 577 -74 894 9 39 17 77 19 85 14 64 53
186 194 607 88 264 167 505 175 535 8 29 29 100 46 158 32 111 95 354 104 405
3 17 8 41 11 55 6 27 9 50 20 120 4 25 9 54 12 65 6 29 5 216 -1 243 -24 110
-98 155 -206 128z"/>
</g>
</svg>
