<?xml version="1.0" standalone="no"?>
<!DOCTYPE svg PUBLIC "-//W3C//DTD SVG 20010904//EN"
 "http://www.w3.org/TR/2001/REC-SVG-20010904/DTD/svg10.dtd">
<svg version="1.0" xmlns="http://www.w3.org/2000/svg"
 width="137.000000pt" height="137.000000pt" viewBox="0 0 137.000000 137.000000"
 preserveAspectRatio="xMidYMid meet">
<metadata>
Created by potrace 1.11, written by Peter Selinger 2001-2013
</metadata>
<g transform="translate(0.000000,137.000000) scale(0.100000,-0.100000)"
fill="#000000" stroke="none">
<path d="M699 1262 c-1 -4 -1 -11 0 -16 1 -4 -3 -14 -9 -21 -6 -7 -8 -20 -4
-29 5 -12 0 -16 -22 -16 -16 0 -36 -5 -44 -10 -13 -9 -12 -13 9 -30 13 -11 30
-20 39 -20 13 0 12 -3 -3 -20 -14 -16 -16 -23 -7 -32 7 -7 12 -24 12 -39 0
-14 6 -44 13 -65 8 -23 12 -67 10 -108 -3 -47 1 -79 11 -100 22 -47 42 -144
41 -208 0 -48 3 -58 17 -58 26 0 33 19 35 95 1 39 3 77 4 85 0 8 -2 34 -6 58
-7 39 -6 42 15 42 22 0 22 2 17 75 -7 85 -15 105 -52 129 -30 20 -31 36 -6 67
l18 23 17 -50 c26 -79 79 -151 116 -156 19 -3 29 -1 27 6 -2 6 -15 12 -28 14
-20 2 -31 15 -51 60 -22 48 -46 120 -52 157 -1 6 -4 15 -8 20 -4 6 -5 27 -3
48 4 38 -20 101 -34 92 -5 -2 -22 0 -40 5 -17 5 -32 6 -32 2z m6 -109 c18 -14
18 -15 2 -9 -10 3 -23 6 -28 6 -5 0 -9 5 -9 10 0 14 12 12 35 -7z"/>
</g>
</svg>
