<svg xmlns="http://www.w3.org/2000/svg" viewBox="0 0 670.57178 497.75245"><title>bingo_icon</title><g id="Layer_2" data-name="Layer 2"><g id="Layer_1-2" data-name="Layer 1"><g id="Desktop"><g id="Desktop-Entry-Logged-Out---Bingo-Rooms-List-View"><g id="Popular-Bingo-Rooms"><g id="Header"><g id="Bingo-Icon"><path id="Shape" d="M182.0725,131.83769a109.13288,109.13288,0,0,0-7.34131,11.68457c11.38293-4.62988,27.83339-.66634,33.23712,9.685,6.76908,12.7778,2.66066,33.70187-11.24715,39.4075-25.02131,10.25023-47.83567-10.04361-41.75788-40.12466a83.73622,83.73622,0,0,1,26.13343-43.14857,7.7986,7.7986,0,0,1,8.41137-.92535,8.01872,8.01872,0,0,1,4.401,7.33065C194.0783,121.09224,189.41434,121.70828,182.0725,131.83769ZM170.05,167.14663a26.86206,26.86206,0,0,0,.91,2.62924,14.23974,14.23974,0,0,0,8.58341,8.36585A13.97,13.97,0,0,0,191.38316,176.9a12.36792,12.36792,0,0,0,3.25011-13.39166c-2.49147-8.13206-14.09369-7.12409-20.49207-.97406A47.78653,47.78653,0,0,0,170.05,167.14663Z"/><path id="Shape-2" data-name="Shape" d="M117.48249,193.11a7.7123,7.7123,0,0,1-8.83691.61181,7.95741,7.95741,0,0,1-3.70663-8.16118,139.61691,139.61691,0,0,1,22.57836-61.42645c-33.25436,0-34.63588.87132-37.59772-1.9815a8.27813,8.27813,0,0,1-1.8345-9.30943,8.06092,8.06092,0,0,1,8.0637-4.81743c27.0424,0,30.30814-.17108,48.5275,0a8.11326,8.11326,0,0,1,6.76748,6.74694c.33838,4.936-1.80179,6.28667-6.38114,12.00816a133.76234,133.76234,0,0,0-24.46473,61.76863A9.96355,9.96355,0,0,1,117.48249,193.11Z"/><path id="Shape-3" data-name="Shape" d="M149.27344,0C88.90346-.004,34.47557,36.88559,11.36956,93.46707S1.02977,215.1791,43.71532,258.48829a147.70642,147.70642,0,0,0,162.66,32.8336c55.77583-23.43435,92.14471-78.64678,92.14775-139.89168a152.54089,152.54089,0,0,0-43.71035-107.074A148.18471,148.18471,0,0,0,149.27344,0Zm0,259.11548c-42.93356.00753-81.64374-26.224-98.07893-66.46209A108.82649,108.82649,0,0,1,74.19181,75.294,105.04149,105.04149,0,0,1,189.87039,51.942c39.66626,16.666,65.53013,55.93244,65.53057,99.48822C255.39733,210.894,207.88769,259.101,149.27344,259.11548Z"/><path id="Shape-4" data-name="Shape" d="M149.27344,57.00211A93.06793,93.06793,0,0,0,63.2681,115.26828,95.42193,95.42193,0,0,0,83.42248,218.17486a92.10318,92.10318,0,0,0,101.4289,20.4852c34.78194-14.61032,57.463-49.03867,57.46616-87.22985C242.31675,99.29322,200.6656,57.02254,149.27344,57.00211Zm0,176.74638c-44.81322.00046-81.14186-36.854-81.1423-82.31664S104.4586,69.114,149.27182,69.11357s81.14186,36.854,81.14229,82.31664a82.91544,82.91544,0,0,1-23.762,58.21073A80.54739,80.54739,0,0,1,149.27344,233.74849Z"/><path id="Shape-5" data-name="Shape" d="M488.4379,319.27706c-10.65869-.63189-18.6903,19.88276-27.64912,8.64424-9.90011-12.60614,32.027-40.89429,45.95152-14.62317a28.87118,28.87118,0,0,1-8.57092,38.04148c-7.81224,5.774-19.63323,9.97529-21.65428,20.6699a74.21435,74.21435,0,0,0,23.608-.66633c-.87613.90411-1.91924,1.63877,2.91228-2.972,6.07938-5.67283,21.754,5.96145,4.09118,18.1057-4.71408,3.24637-5.85848,2.51173-39.4512,2.51173a8.40588,8.40588,0,0,1-8.03152-6.8497c-.72419-3.04195.08455-4.203.64016-8.95038,4.41169-30.91848,28.75952-28.28812,34.31628-42.97909a8.96648,8.96648,0,0,0-.83094-6.77167A8.7451,8.7451,0,0,0,488.4379,319.27706Z"/><path id="Shape-6" data-name="Shape" d="M531.77774,374.82734a8.17336,8.17336,0,0,1,4.62722-8.16521,7.9535,7.9535,0,0,1,9.12979,1.70908,21.26253,21.26253,0,0,0,9.34507,5.80728c4.98294,1.12659,13.50422-5.58535,12.19008-16.77468-3.2997-6.30251-7.99814-5.94394-17.25924-7.12245a7.92156,7.92156,0,0,1-7.40685-5.32934,8.1021,8.1021,0,0,1,2.4067-8.88278c4.41073-3.98158,15.17133-1.16157,19.66661-8.79678.472-5.17594-.53825-6.45831-4.36061-7.193a25.09034,25.09034,0,0,0-13.80756,1.38406c-12.1071,12.24756-29.70254-17.18411,10.18677-17.59352,23.99379-.17165,30.67833,23.93049,16.804,37.61457,13.8571,9.70087,13.72291,29.27753-.58951,41.78093-12.59366,11.08655-26.351,7.80683-38.71038-3.22726A9.3284,9.3284,0,0,1,531.77774,374.82734Z"/><path id="Shape-7" data-name="Shape" d="M521.32211,194.88706c-60.373-.00718-114.80551,36.88126-137.91578,93.46425s-10.347,121.71752,32.33823,165.03137a147.71426,147.71426,0,0,0,162.6663,32.845c55.78-23.43209,92.15406-78.645,92.16092-139.89295C670.57369,262.70536,603.75682,194.90442,521.32211,194.88706Zm0,259.13137c-42.93214.00043-81.63714-26.23575-98.06678-66.47464a108.82628,108.82628,0,0,1,23.00905-117.3536,105.04139,105.04139,0,0,1,115.677-23.34315c39.66409,16.66759,65.52567,55.93338,65.52548,99.48772C627.46516,405.80586,579.94359,454.01637,521.32211,454.01843Z"/><path id="Shape-8" data-name="Shape" d="M521.32211,251.90721A93.06822,93.06822,0,0,0,435.32988,310.186,95.42157,95.42157,0,0,0,455.49594,413.0861a92.10277,92.10277,0,0,0,101.42648,20.47669c34.77962-14.61145,57.45855-49.03859,57.46162-87.228C614.383,294.19089,572.72105,251.91759,521.32211,251.90721Zm0,176.7289a81.1393,81.1393,0,0,1-74.9787-50.80817,83.191,83.191,0,0,1,17.5859-89.71681,80.29745,80.29745,0,0,1,88.435-17.84135,82.33841,82.33841,0,0,1,50.08279,76.065C602.43774,391.78436,566.12242,428.62623,521.32211,428.63611Z"/><path id="Shape-9" data-name="Shape" d="M619.5873,486.25208h42.61729V441.72A172.05973,172.05973,0,0,1,619.5873,486.25208Z"/><path id="Shape-10" data-name="Shape" d="M662.20459,250.9151V197.8257H606.554A171.76362,171.76362,0,0,1,662.20459,250.9151Z"/><rect id="Rectangle-path" x="537.97404" y="35.52922" width="124.2305" height="126.0479"/><path id="Shape-11" data-name="Shape" d="M436.07085,197.8257H378.01558V254.725A171.9736,171.9736,0,0,1,436.07085,197.8257Z"/><rect id="Rectangle-path-2" data-name="Rectangle-path" x="378.01558" y="35.52922" width="124.22834" height="126.0479"/><path id="Shape-12" data-name="Shape" d="M378.01558,437.92753v48.32455h45.02355A171.89762,171.89762,0,0,1,378.01558,437.92753Z"/><rect id="Rectangle-path-3" data-name="Rectangle-path" x="218.03762" y="360.12052" width="124.24721" height="126.13151"/><path id="Shape-13" data-name="Shape" d="M218.03762,308.48077V323.872H342.28483V197.8257H312.41474A171.89951,171.89951,0,0,1,218.03762,308.48077Z"/><path id="Shape-14" data-name="Shape" d="M318.40849,161.57712h23.87634V35.52922H274.32724A172.61436,172.61436,0,0,1,318.40849,161.57712Z"/><rect id="Rectangle-path-4" data-name="Rectangle-path" x="57.96161" y="360.12052" width="124.34743" height="126.13151"/><path id="Shape-15" data-name="Shape" d="M57.96161,296.13152V323.872H182.309v-3.82524A166.73628,166.73628,0,0,1,57.96161,296.13152Z"/></g></g></g></g></g></g></g></svg>