<?xml version="1.0" encoding="utf-8"?>
<!-- Generator: Adobe Illustrator 22.1.0, SVG Export Plug-In . SVG Version: 6.00 Build 0)  -->
<svg version="1.1" id="Layer_1" xmlns="http://www.w3.org/2000/svg" xmlns:xlink="http://www.w3.org/1999/xlink" x="0px" y="0px"
	 viewBox="0 0 698 485" style="enable-background:new 0 0 698 485;" xml:space="preserve">
<style type="text/css">
	.st0{fill:#7E69AF;}
</style>
<title>new_games_icon</title>
<path class="st0" d="M695.8,166.7c-1.3-8.1-3.6-16-6.6-23.6c-11.5-28.7-33.6-46.7-62.2-58.2c-28.5-11.5-63.7-16.4-101.5-18.5
	c-37.8-2.2-78.6-1.4-119.3-0.7c-40.7,0.7-81.1,1.2-118.7-1.2C250,62,215.5,56.5,186.2,45.7c-14.1-5-27.7-11.7-40.3-19.8
	C133.5,18.2,123.1,8.5,111.6,0c-0.5,0.5-1,1-1.6,1.6C86.2,42.2,64.6,84.1,45.4,127.1c-15.9,36.2-27.2,67.7-34.5,95.2
	c-14.6,55-13.7,94.4-2.1,122.9c11.6,28.6,34.1,46.2,63.2,57.2c29.2,10.9,65.1,15,103.9,16.1c38.8,1.1,80.4-0.4,121.7-1.7
	c41.2-1.3,82.1-2.1,119.7,0.2c9.4,0.6,18.6,1.4,27.6,2.4c9,1,17.7,2.3,26.1,3.9c16.1,2.8,31.9,7.1,47.1,12.9
	c13.9,5.3,27.1,12.3,39.2,21c12.1,8,21.8,18.4,32.5,27.7c0.5-0.5,1-1,1.6-1.6c23.2-40.1,44.2-81.4,62.8-123.7
	c15.5-35.7,26.4-66.8,33.4-94.1c7.1-27.3,10.2-50.6,10.4-70.9C698.1,185.3,697.4,175.9,695.8,166.7z M135.7,394.2
	c-20.6-2.4-41.5-7.5-60.8-17.8c-9.8-5.1-18.8-11.8-26.7-19.6c-7.9-8-14.2-17.4-18.7-27.8c-0.5-1.3-1.1-2.5-1.6-3.9l-0.7-2l-0.6-1.8
	c-0.9-2.6-1.6-5.3-2.2-8c-1.2-5.3-2-10.7-2.4-16.1c-0.7-10.6,0.2-21.2,2.9-31.5c2.6,10.2,5,20,8.2,29.4c1.6,4.6,3.4,9.2,5.3,13.5
	c1,2.2,2,4.3,3.1,6.4l0.9,1.7l0.8,1.5l1.7,3c9.6,15.8,23.2,28.9,39.3,37.9c16.3,9.4,34.9,15.8,54,21c9.6,2.6,19.3,4.9,29.2,7.2
	c9.9,2.2,19.8,4.4,29.8,6.8C176.9,396.4,156.2,396.5,135.7,394.2z M220.9,308.2c-2.4-7.3-5.1-15.2-8.2-23.7
	c-3.1-8.5-6.3-16.9-9.8-25.4c-3.4-8.5-7-16.7-10.7-24.7c-3.7-8-7.4-15.4-11.2-22.1l-22.8,95.9h-23.3l31.2-131.3h19
	c3.5,5.7,7.2,12.2,11,19.5c3.8,7.3,7.5,15,11.2,23c3.6,8,7.1,16.1,10.5,24.2c3.4,8.1,6.3,15.7,8.8,22.9l20.9-89.6h23.5l-31.2,131.3
	H220.9z M377.6,196.7h-57.4l-7.8,33h50.9l-4.7,19.5H308l-9.4,39h61.7l-4.7,19.9h-85.4l31.2-131.4h80.9L377.6,196.7z M533,246
	c-10.1,21.7-20.8,42.5-32.1,62.2h-23c-1-6.8-2-13.5-2.9-20.1c-0.9-6.6-1.8-13.2-2.6-20c-0.8-6.8-1.6-13.6-2.2-20.7
	c-0.7-7-1.3-14.3-2-21.9c-7.8,14.5-15.6,28.6-23.2,42.2c-7.6,13.6-15.8,27.1-24.3,40.5h-23c-1-11-1.7-21.9-2.1-32.8
	c-0.4-10.9-0.6-22-0.6-33.4c0-20.7,0.7-42.5,2.1-65.2h23.7c-0.8,12.1-1.4,24.2-1.9,36.1c-0.5,11.9-0.8,24-0.8,36.3V263
	c0,4.6,0.1,9.3,0.4,13.9c3.9-6.4,7.9-13.2,12.1-20.4c4.2-7.1,8.2-14.4,12.3-21.7c4-7.3,8-14.7,11.8-22c3.8-7.3,7.4-14.3,10.8-21
	h20.7c0.4,6.8,0.8,14,1.4,21.4c0.6,7.5,1.2,14.9,2,22.3c0.7,7.4,1.5,14.6,2.2,21.7c0.7,7.1,1.5,13.6,2.2,19.7
	c3.5-6.7,7.2-14.1,10.9-22.1c3.8-8,7.5-16.3,11.3-24.9c3.8-8.6,7.5-17.4,11.1-26.4c3.6-9,7.2-17.9,10.6-26.6h25.2
	C553.2,201.2,543.1,224.3,533,246z M673.2,219.3c-2.6-10.2-5-20-8.2-29.4c-1.6-4.6-3.4-9.2-5.3-13.5c-1-2.2-2-4.3-3.1-6.4l-0.9-1.7
	l-0.8-1.5l-1.7-3c-9.6-15.8-23.2-28.9-39.3-37.9c-16.3-9.4-34.9-15.8-54-21c-9.6-2.6-19.3-4.9-29.2-7.2c-9.9-2.2-19.8-4.4-29.8-6.8
	c20.5-2.5,41.2-2.6,61.7-0.3c20.6,2.4,41.5,7.5,60.8,17.8c9.8,5.1,18.8,11.8,26.7,19.6c7.9,8,14.2,17.4,18.7,27.8
	c0.5,1.3,1.1,2.5,1.6,3.9l0.7,2l0.6,1.8c0.9,2.6,1.6,5.3,2.2,8c1.2,5.3,2,10.7,2.4,16.1C676.7,198.4,675.8,209,673.2,219.3z"/>
</svg>
