<svg xmlns="http://www.w3.org/2000/svg" viewBox="0 0 439.98898 439.99695"><defs><style>.cls-1{fill:#7e69af;}</style></defs><title>table_games_icon</title><g id="Layer_2" data-name="Layer 2"><g id="Layer_1-2" data-name="Layer 1"><g id="Desktop"><g id="Desktop-Entry-Logged-Out---Bingo-Rooms-List-View"><g id="Casino"><g id="Sub-Navigation"><g id="Menu-Item-3"><g id="dice_icon" data-name="dice icon"><path id="Shape" class="cls-1" d="M430.192,243.63863a33.42478,33.42478,0,0,0,0-47.28393l-50.22094-50.21534L243.64334,9.80713a33.41527,33.41527,0,0,0-47.29634,0L9.79257,196.35472a33.43541,33.43541,0,0,0,0,47.28394L196.347,430.194a33.42537,33.42537,0,0,0,47.29633,0L379.97107,293.85613Zm-291.77149,3.555a38.454,38.454,0,1,1,11.26431-27.19249A38.45482,38.45482,0,0,1,138.42052,247.19363Zm108.77456,108.7643a38.458,38.458,0,1,1,0-54.39064A38.45795,38.45795,0,0,1,247.19508,355.95793Zm0-108.7643a38.456,38.456,0,1,1,0-54.385A38.456,38.456,0,0,1,247.19508,247.19363Zm0-108.76764a38.45721,38.45721,0,1,1,0-54.38841A38.4572,38.4572,0,0,1,247.19508,138.426ZM355.96157,247.19363a38.45839,38.45839,0,1,1,0-54.385A38.45839,38.45839,0,0,1,355.96157,247.19363Z"/></g></g></g></g></g></g></g></g></svg>