<svg xmlns="http://www.w3.org/2000/svg" viewBox="0 0 388.60189 507.99663"><defs><style>.cls-1{fill:#7e69af;}</style></defs><title>video_slots_icon</title><g id="Layer_2" data-name="Layer 2"><g id="Layer_1-2" data-name="Layer 1"><g id="Desktop"><g id="Desktop-Entry-Logged-Out---Bingo-Rooms-List-View"><g id="Casino"><g id="Sub-Navigation"><g id="Menu-Item-4"><g id="Slots-Icon"><path id="Shape" class="cls-1" d="M290.12649,223.68283c-29.74325-.02594-57.8984,12.91017-76.57417,35.18261a488.32409,488.32409,0,0,1-37.97009-48.60726c-19.24594-28.19157-41.61141-67.87089-53.14244-112.78835l5.2851-.50019-7.342-71.81945L118.41826,0C76.44789,7.173,65.73631,28.93661,51.41792,61.16612a229.52172,229.52172,0,0,0-13.94784,42.41477l5.42211,1.02814q-1.73763,7.6153-3.04271,15.60543c-4.77067,29.351-5.12878,62.61309-1.06569,98.86251a565.11061,565.11061,0,0,0,22.7543,106.28162c-47.02292,18.32979-71.88571,68.02407-57.446,114.8197s63.45874,75.38615,113.25962,66.05905,84.09414-53.521,79.23533-102.111-47.28041-85.68273-98.016-85.70354c-1.51437,0-3.01954.038-4.51721.10308C89.2,303.96707,55.30357,197.03781,75.31854,110.758l5.49706,1.04238c.017-.08281.9489-4.47447,2.90035-11.082l.04214.41218,5.36328-.50768A328.69827,328.69827,0,0,0,104.94709,149.196a432.193,432.193,0,0,0,43.40383,79.24173,514.5493,514.5493,0,0,0,48.26849,60.22758c-13.41964,39.0144.8297,81.90418,35.28166,106.19586a101.62944,101.62944,0,0,0,115.87667.38419c34.62516-24.06264,49.1814-66.85689,36.04154-105.95938S332.83932,223.68811,290.12649,223.68283ZM80.64475,364.01038c-13.26518,8.08111-38.93159,29.45568-30.70906,70.6122A9.527,9.527,0,0,1,42.907,445.60014l-2.17909.59566a10.26719,10.26719,0,0,1-7.90513-1.05133,9.56312,9.56312,0,0,1-4.54765-6.30943c-7.15428-35.18,5.48019-59.31476,18.023-73.75775a97.9792,97.9792,0,0,1,22.88376-19.17,10.25391,10.25391,0,0,1,8.27091-1.03444,9.78618,9.78618,0,0,1,6.16614,5.4036l.04316.09839.80921,1.82747c.02828.064.04838.12937.07507.19355l.00051.00116A9.352,9.352,0,0,1,80.64475,364.01038ZM276.4367,271.26506c-13.26568,8.08133-38.9317,29.456-30.70927,70.61229a9.527,9.527,0,0,1-7.02869,10.97759l-2.179.59567a10.26721,10.26721,0,0,1-7.90521-1.05134,9.56312,9.56312,0,0,1-4.54775-6.30942c-7.154-35.1801,5.48036-59.31483,18.02314-73.75776A97.9764,97.9764,0,0,1,264.97366,253.162a10.25362,10.25362,0,0,1,8.271-1.03442,9.78608,9.78608,0,0,1,6.16607,5.4038l.04283.09784.80921,1.82745A9.3531,9.3531,0,0,1,276.4367,271.26506Z"/></g></g></g></g></g></g></g></g></svg>