<svg xmlns="http://www.w3.org/2000/svg" viewBox="0 0 730 300" width="730" height="300">
	<style>
		tspan { white-space:pre }
		.shp0 { fill: none } 
		.shp1 { fill: #ffc900 } 
	</style>
	<g id="Layer_2">
		<g id="Logos">
			<path id="BG" class="shp0" d="M-73,330.6h886v-354.4h-886z" />
			<g id="El_Gordo">
				<path id="Layer" class="shp1" d="M63.21,124.38c3.37,2.46 8.86,2.01 12.86,-0.11c12.25,-6.56 3.62,-26.03 16.3,-52.14c4.87,-9.88 11.1,-19.03 18.51,-27.17c9.34,-9.75 18.4,-14.99 17.29,-22.09c-0.52,-3.33 -3.2,-6.5 -6.2,-7.31c-2.6,-0.7 -5.6,0.31 -13.62,6.94c-6.59,5.45 -9.89,8.18 -13.95,13.18c-20.53,25.23 -28.64,49 -28.64,49c-3.3,9.91 -11.12,33.41 -2.54,39.69z" />
				<path id="Layer" class="shp1" d="M19.71,100.55c1.49,-1.83 14.24,-17.23 31.01,-18.89c1.77,-0.18 4.85,-0.32 6.64,-2.52c2.35,-2.87 0.63,-7.41 0.19,-10.69c-1.4,-9.8 -5.25,-19.09 -11.21,-27.01c-0.23,-0.3 -0.26,-0.7 -0.08,-1.03c0.18,-0.33 0.53,-0.52 0.9,-0.5c8.09,0.42 31.9,1.12 38.35,-5.13c0.69,-0.66 1.23,-1.47 1.57,-2.37c1.98,-5.5 -4.26,-14.72 -11.85,-17.99c-12.87,-5.54 -28.67,6.49 -34.8,11.16c-0.48,0.36 -0.92,0.75 -1.34,1.18c-3.21,3.3 -4.54,8.73 -3.69,13.34c0.3,1.66 0.76,3.29 1.36,4.87c1.31,3.59 3.1,6.98 5.32,10.08c0.65,0.89 1.5,2.66 -1.52,3.05c-7.77,1.81 -14.96,5.54 -20.92,10.85c-14.24,12.89 -15.59,30.92 -16.34,40.84c-0.76,10.13 -1.42,18.92 4.08,27.91c5.65,9.23 15.6,15.12 25.22,15.95c6.02,0.52 15.31,-0.59 16.52,-4.71c0.27,-0.89 0.23,-2.36 -1.98,-5.48c-3.86,-5.44 -9.62,-9.42 -24.23,-16.75c-4.79,-2.41 -7.72,-3.76 -8.92,-6.96c-1.2,-3.21 -0.31,-6.47 0.43,-9.12c1.07,-3.7 2.88,-7.14 5.32,-10.12z" />
				<path id="Layer" class="shp1" d="M589.52,242.89v0.19c0.33,11.76 2.28,26.79 -0.38,33.52c-0.83,2.09 -1.29,4.61 -4.72,7.54c-3.16,2.39 -6.85,4.01 -10.75,4.71c-57.69,8.86 -86.32,-10.63 -86.32,-10.63c-34.68,-24.42 -38.38,-64.03 -38.49,-69.27c-0.05,-5.03 0.47,-10.04 1.55,-14.95c0.54,-1.9 1.36,-4.59 2.49,-7.77c3.34,-9.29 11.1,-30.39 30.81,-48.23c5.4,-4.88 15.86,-14.18 32.65,-19.94c12.02,-4.11 24.79,-5.6 37.43,-4.38c1.84,-4.53 4.55,-11.31 7.7,-19.59c5.92,-15.62 7.21,-20.35 10.35,-28.75c10.01,-26.82 15.9,-40.4 28.93,-50.17c2.75,-2.07 16.01,-12.04 22.91,-7.79c1.02,0.38 1.82,1.18 2.21,2.2c1.35,2.79 -36.99,122.14 -38.43,197.45c-0.21,11.99 0.48,23.98 2.06,35.87zM544.92,157.56c-0.13,-2.06 -1.32,-3.9 -3.14,-4.86c-1.82,-0.96 -4.01,-0.91 -5.78,0.15c-34.05,20.49 -50.99,47.26 -43.79,76.91c2.85,11.66 16.67,26.27 30.32,28.79c8.98,1.66 18.83,-8.76 21.18,-12.88c14.42,-25.21 2.86,-57.62 1.21,-88.1z" />
				<path id="Layer" class="shp1" d="M705.13,128.25c-11.52,-10.52 -26.39,-12.18 -31.83,-12.58c-9.55,-0.7 -22.39,-1.64 -27.65,6.26c-3.34,5.01 -1.93,12.94 0.14,18.82c0.25,0.71 0.86,1.23 1.59,1.38c11.64,2.34 35.58,0.81 48.81,9.81c6.96,4.74 9.13,12.68 10.21,16.62c5.32,19.59 -9.26,37.71 -14.45,44.13c-18.33,22.72 -51.02,36.57 -60.03,27.98c-0.87,-0.86 -1.54,-1.91 -1.93,-3.07c-6.84,-17.45 30.69,-45.81 30.12,-66.45c0,-1.05 -0.14,-2.02 -0.14,-2.02c-1.09,-9.82 -7.83,-16.83 -13.29,-21.18c-0.9,-0.38 -1.85,-0.63 -2.82,-0.75c-9.93,-1.22 -19.08,12.54 -23.27,18.82c-7.03,10.56 -25.29,38 -19.11,75.18c2.45,14.34 8.05,27.96 16.4,39.87c7.54,6.97 14.53,9.32 19.24,10.19c29.16,5.42 54.93,-30.01 56.39,-32.05c8.49,-11.96 15.61,-27.95 15.61,-27.95c0,0 0.1,-0.21 0.16,-0.36c12.63,-28.56 21.46,-79.33 -4.16,-102.63z" />
				<path id="Layer" class="shp1" d="M321.38,152.88c-1.94,-5.53 -9.27,-26.39 -30.4,-37.04c-14.69,-7.42 -27.29,-5.48 -51.57,-1.77c-12.33,1.89 -16.54,4.16 -18.23,7.86c-2.89,6.33 1.9,16.19 8.59,19.96c2.84,1.59 4.43,1.2 14.34,2.4c0.32,0 0.64,0.09 0.95,0.15c0.97,0.21 4.24,0.81 14.57,2.2c42.32,5.71 48.03,16.28 26.82,54.12c-12.14,21.76 -28.09,38.59 -54.43,41.75c-3.91,0.43 -7.75,-1.23 -10.11,-4.37c-2.36,-3.14 -2.9,-7.29 -1.4,-10.93c6.26,-15.39 12.05,-29.87 18.69,-43.95c1.4,-2.97 4.48,-10.01 3.08,-18.55c-0.42,-2.59 -2.34,-14.33 -12.4,-18.22c-8.32,-3.22 -16.83,2.26 -21.86,5.45c-14.25,9.09 -20.06,23.32 -24.05,33.46c-3.84,9.75 -9.75,24.9 -7.75,42c3.84,32.39 35.49,64.68 68.06,65.12c51.94,0.71 73.54,-77.97 76.43,-88.36c8.03,-29.16 2.1,-47.21 0.67,-51.27z" />
				<path id="Layer" class="shp1" d="M493.47,98.09c0.89,-1.69 1.9,-4.04 1.25,-6.55c-0.72,-2.76 -3.09,-4.43 -4.3,-5.09h-0.08c-3.96,-1.8 -8.58,-1.37 -12.15,1.13c-4.62,3.23 -9.24,6.46 -13.86,9.69l-58.02,37.91l-0.26,0.13l-12.05,5.44c-0.87,0.38 -1.89,0.06 -2.37,-0.76l-13.15,-22.15c-3.2,-5.37 -8.78,-8.87 -15.01,-9.41c-24.67,-2.18 -24.86,1.27 -26.67,33.39c-2.65,35.63 -5.31,71.26 -7.97,106.89v0.24l1.33,27.01c0.33,7.12 5.73,12.98 12.8,13.88c3.29,0.43 6.57,0.89 9.84,1.4c14.59,2.34 21.47,-1.84 23.35,-18.44c4.48,-39.64 15.35,-77.35 44.83,-106.83c0.12,-0.11 0.25,-0.21 0.38,-0.3c28.35,-22.07 28.35,-23.92 49.52,-41.23c0,-0.03 14.69,-12.02 22.58,-26.37z" />
				<path id="Layer" class="shp1" d="M184.41,65.69c-0.56,-0.81 -1.28,-1.5 -2.12,-2.03c-4.14,-2.53 -10.14,0.14 -13.9,1.96c-11.52,5.57 -22.91,15.37 -28.02,19.99c-21.97,16.68 -41.42,36.45 -57.74,58.7v0c-5.67,7.74 -19.01,26.39 -24.11,53.58c-3.11,16.24 -2.73,32.96 1.11,49.04c2.19,8.62 4.13,16.28 10.14,24.49c8.63,11.79 27.53,27.3 46.07,21.59c3.21,-0.98 11.27,-4.1 18.21,-14.75v0c0.82,-0.82 4.48,-6.04 6.55,-6.84c2.06,-0.8 4.6,1.88 9.18,6.46c0,0 13.29,12.86 22.93,15.35c0.63,0.18 1.31,0.18 1.94,0c3.77,-1.08 4.48,-9.21 4.74,-12.05c1.31,-15.06 -9.57,-40.56 -15.06,-55.09c-11.36,-30 -11.22,-43.54 -22.15,-46.85c-0.38,-0.12 -8.53,-2.45 -14.72,2.09c-12.93,9.47 0.93,35.56 -10.79,66.29c-1.87,4.9 -7.09,18.06 -15.9,19.19c-0.98,0.18 -1.98,0.15 -2.95,-0.09c-9.75,-2.77 -11.31,-33.8 -6.73,-57.36c3.22,-16.59 9.21,-28.07 15.19,-39.31c23.3,-43.83 62.34,-79.59 71.64,-85.19c1.89,-1.16 3.54,-2.69 4.83,-4.49c2.71,-3.82 4.7,-10.38 1.67,-14.66z" />
			</g>
		</g>
	</g>
</svg>