<svg xmlns="http://www.w3.org/2000/svg" viewBox="0 0 666 300" width="666" height="300">
	<defs>
		<radialGradient id="grd1" gradientUnits="userSpaceOnUse"  cx="332.926" cy="150.4" r="238.901">
			<stop offset="0.32" stop-color="#f9fae8"  />
			<stop offset="0.54" stop-color="#faefb3"  />
			<stop offset="1" stop-color="#fdd840"  />
		</radialGradient>
		<radialGradient id="grd2" gradientUnits="userSpaceOnUse"  cx="332.926" cy="150.4" r="238.901">
			<stop offset="0.32" stop-color="#f9fae8"  />
			<stop offset="0.54" stop-color="#faefb3"  />
			<stop offset="1" stop-color="#fdd840"  />
		</radialGradient>
		<radialGradient id="grd3" gradientUnits="userSpaceOnUse"  cx="332.926" cy="150.4" r="238.901">
			<stop offset="0.32" stop-color="#f9fae8"  />
			<stop offset="0.54" stop-color="#faefb3"  />
			<stop offset="1" stop-color="#fdd840"  />
		</radialGradient>
		<radialGradient id="grd4" gradientUnits="userSpaceOnUse"  cx="332.926" cy="150.4" r="238.901">
			<stop offset="0.32" stop-color="#f9fae8"  />
			<stop offset="0.54" stop-color="#faefb3"  />
			<stop offset="1" stop-color="#fdd840"  />
		</radialGradient>
		<radialGradient id="grd5" gradientUnits="userSpaceOnUse"  cx="332.926" cy="150.4" r="238.901">
			<stop offset="0.32" stop-color="#f9fae8"  />
			<stop offset="0.54" stop-color="#faefb3"  />
			<stop offset="1" stop-color="#fdd840"  />
		</radialGradient>
		<radialGradient id="grd6" gradientUnits="userSpaceOnUse"  cx="332.926" cy="150.4" r="238.901">
			<stop offset="0.32" stop-color="#f9fae8"  />
			<stop offset="0.54" stop-color="#faefb3"  />
			<stop offset="1" stop-color="#fdd840"  />
		</radialGradient>
		<radialGradient id="grd7" gradientUnits="userSpaceOnUse"  cx="332.926" cy="150.4" r="238.901">
			<stop offset="0.32" stop-color="#f9fae8"  />
			<stop offset="0.54" stop-color="#faefb3"  />
			<stop offset="1" stop-color="#fdd840"  />
		</radialGradient>
		<radialGradient id="grd8" gradientUnits="userSpaceOnUse"  cx="332.926" cy="150.4" r="238.901">
			<stop offset="0.32" stop-color="#f9fae8"  />
			<stop offset="0.54" stop-color="#faefb3"  />
			<stop offset="1" stop-color="#fdd840"  />
		</radialGradient>
		<radialGradient id="grd9" gradientUnits="userSpaceOnUse"  cx="332.926" cy="150.4" r="238.901">
			<stop offset="0.32" stop-color="#f9fae8"  />
			<stop offset="0.54" stop-color="#faefb3"  />
			<stop offset="1" stop-color="#fdd840"  />
		</radialGradient>
		<radialGradient id="grd10" gradientUnits="userSpaceOnUse"  cx="332.926" cy="150.4" r="238.901">
			<stop offset="0.32" stop-color="#f9fae8"  />
			<stop offset="0.54" stop-color="#faefb3"  />
			<stop offset="1" stop-color="#fdd840"  />
		</radialGradient>
		<radialGradient id="grd11" gradientUnits="userSpaceOnUse"  cx="332.926" cy="150.4" r="238.901">
			<stop offset="0.32" stop-color="#f9fae8"  />
			<stop offset="0.54" stop-color="#faefb3"  />
			<stop offset="1" stop-color="#fdd840"  />
		</radialGradient>
	</defs>
	<style>
		tspan { white-space:pre }
		.shp0 { fill: none } 
		.shp1 { fill: #5a4a42 } 
		.shp2 { fill: url(#grd1) } 
		.shp3 { fill: url(#grd2) } 
		.shp4 { fill: url(#grd3) } 
		.shp5 { fill: url(#grd4) } 
		.shp6 { fill: url(#grd5) } 
		.shp7 { fill: url(#grd6) } 
		.shp8 { fill: url(#grd7) } 
		.shp9 { fill: url(#grd8) } 
		.shp10 { fill: url(#grd9) } 
		.shp11 { fill: url(#grd10) } 
		.shp12 { fill: url(#grd11) } 
	</style>
	<g id="eurojackpot">
		<g id="Logos">
			<path id="BG" class="shp0" d="M-45,300.6h751v-300.4h-751z" />
			<g id="Euro_Jackpot">
				<path id="Layer" class="shp1" d="M657.94,162.46c-3.46,-4.2 -8.63,-6.63 -14.07,-6.59h-80.41c-6.52,0.09 -12.5,3.66 -15.68,9.36c-9.18,-6.28 -20.13,-10.13 -32.15,-11.35c2.6,-1.92 5.04,-4.03 7.31,-6.33c12.5,-12.67 19.1,-30.04 19.1,-50.2c0,-20.16 -6.59,-37.55 -19.08,-50.24c-12.48,-12.69 -29.82,-19.59 -49.87,-19.59c-20.05,0 -37.44,6.76 -50.02,19.53c-1.7,1.73 -3.3,3.56 -4.79,5.48c-9.35,-14.27 -26.38,-22.61 -46.39,-22.61h-39.64c-2.48,0 -4.93,0.51 -7.19,1.5c-2.31,-0.99 -4.79,-1.5 -7.31,-1.5h-25.72c-4.89,0 -9.57,1.95 -13.03,5.4c-3.44,-3.45 -8.11,-5.39 -12.98,-5.39h-25.79c-2.4,0 -4.78,0.47 -7,1.39c-2.23,-0.92 -4.62,-1.4 -7.04,-1.4h-12.83l-0.12,-3.76v-0.34c-0.54,-8.72 -7.22,-15.81 -15.88,-16.88c-4.8,-0.91 -9.67,-1.37 -14.55,-1.37c-10.91,0.11 -21.71,2.19 -31.88,6.15c-30.39,11.46 -48.1,38.68 -46.83,70.03c-7.02,4.68 -9.83,13.62 -6.72,21.47l2,5.26c0.54,1.45 1.26,2.83 2.13,4.11c0.19,1.54 0.56,3.06 1.12,4.51l1.96,5.21c2.59,7.18 9.38,11.98 17.01,12.02c0.79,0 1.58,-0.05 2.36,-0.15c2.44,2.98 5.1,5.78 7.96,8.35c2.37,2.13 4.88,4.11 7.51,5.92c1.07,0.73 1.54,2.08 1.15,3.32c-0.38,1.24 -1.53,2.08 -2.83,2.08h-19.62c-8.17,0 -14.94,4.27 -18.12,11.43l-0.29,0.65l-1.97,5.78c0.13,-4.07 -1.18,-8.06 -3.69,-11.26c-3.42,-4.3 -8.65,-6.76 -14.15,-6.62h-26.7c-3.16,-0.23 -6.31,0.46 -9.09,1.98c-8.43,4.75 -8.68,15.57 -8.69,16.18v56.84c-2.17,-0.92 -4.51,-1.4 -6.86,-1.4c-7.35,0.04 -13.87,4.71 -16.27,11.66l-7.51,21.07l-0.14,0.5c-1.99,7.05 0.4,14.6 6.07,19.23l0.32,0.26c8.49,6.76 21.87,11.02 34.92,11.02c9.67,0 18.38,-1.88 25.91,-5.57c2.99,2.15 6.58,3.31 10.26,3.3h29.6c7.65,0.08 14.6,-4.42 17.67,-11.42l0.45,-1l1.5,-5.26h4.14l1.5,5.26l0.46,1.03c3.07,7.01 10.03,11.5 17.68,11.42h29.66c5.58,0.02 10.84,-2.66 14.1,-7.19c5.28,3.08 10.95,5.45 16.85,7.04c6.19,1.6 12.56,2.41 18.95,2.4c0,0 12.41,0.05 23.78,-3.63c2.02,-0.65 4,-1.42 4,-1.42c1.44,-0.56 2.75,-1.12 3.91,-1.65c3.22,2.83 7.35,4.41 11.64,4.44h26.53c4.31,0.06 8.51,-1.41 11.84,-4.15c3.45,2.72 7.73,4.19 12.13,4.15h34.71c1.49,0 2.97,-0.19 4.42,-0.56c1.42,0.37 2.88,0.56 4.35,0.56h26.82c10.03,0.07 18.22,-7.99 18.32,-18.02v-14.52c9.01,-1 17.68,-3.96 25.42,-8.68c3.08,8.88 8.08,16.98 14.64,23.72c12.55,12.86 29.78,19.66 49.81,19.66h1.04c8.73,0 30.99,-1.9 49.08,-19.53c6.09,-5.94 11.01,-12.98 14.49,-20.74l0.8,20.19c0.06,9.95 8.15,17.98 18.1,17.96h26.53c9.94,-0.03 17.99,-8.08 18.02,-18.02v-58.26h6.38c9.06,0.09 16.78,-6.57 18.02,-15.55l0.08,-0.45l2.25,-22.76c0.63,-4.81 -0.75,-9.67 -3.83,-13.43z" />
				<path id="Layer" class="shp2" d="M81.72,174.04c0.36,-1.5 -0.22,-2.25 -1.83,-2.25h-26.28c-1.54,0 -2.25,0.75 -2.25,2.25v65.83c-0.59,5.92 -4.16,9.87 -11.18,9.87c-3.69,-0.07 -7.24,-1.4 -10.08,-3.76c-1.39,-1.03 -2.34,-0.8 -2.85,0.58l-7.31,20.46c-0.28,1.03 0.13,2.12 1.02,2.7c5.48,4.39 15.42,7.51 24.99,7.51c22.58,0 35.81,-12.71 35.81,-34.27z" />
				<path id="Layer" class="shp3" d="M186.06,273.05c0.21,0.44 0.18,0.96 -0.09,1.36c-0.27,0.41 -0.74,0.64 -1.22,0.61h-29.66c-1.37,0.1 -2.64,-0.7 -3.15,-1.98l-4.45,-15.71h-28.12l-4.51,15.71c-0.5,1.27 -1.77,2.07 -3.14,1.98h-29.6c-0.5,0.05 -0.98,-0.18 -1.27,-0.58c-0.29,-0.41 -0.33,-0.94 -0.12,-1.39l33.8,-99.3c0.58,-1.31 1.76,-1.98 3.58,-1.98h30.54c1.82,0 3,0.66 3.57,1.98zM141.49,235.9l-8.11,-28.43l-8.04,28.46z" />
				<path id="Layer" class="shp4" d="M237.38,198.74c6.72,0 12.5,1.38 17.39,4.16c1.32,0.59 2.25,0.15 2.85,-1.24l9.86,-20.75c0.51,-1.1 0.08,-2.05 -1.31,-2.7c-9.27,-5.78 -19.8,-8.7 -31.49,-8.7c-30.91,0 -51.44,21.55 -51.44,53.85c0,32.29 20.53,53.92 51.44,53.92v0c11.76,0 22.21,-2.92 31.49,-8.69c1.39,-0.66 1.82,-1.61 1.31,-2.7l-9.86,-20.83c-0.59,-1.39 -1.5,-1.83 -2.85,-1.17c-4.89,2.78 -10.74,4.17 -17.46,4.17c-13.44,0 -22.36,-9.94 -22.36,-24.7c0,-14.76 8.91,-24.62 22.43,-24.62z" />
				<path id="Layer" class="shp5" d="M332.34,220.99l29.59,-47.49c0.75,-1.17 0.37,-1.76 -1.02,-1.76h-32.8c-1.4,-0.18 -2.77,0.51 -3.44,1.76l-17.9,33.98v-33.43c0,-1.5 -0.75,-2.25 -2.25,-2.25h-26.54c-0.95,-0.07 -2.04,1.1 -2.04,2.25v98.86c0.06,1.11 0.93,2.02 2.04,2.12h26.53c1.5,0 2.25,-0.75 2.25,-2.12v-37.12l18.56,37.41c0.59,1.17 1.82,1.89 3.14,1.82h34.71c1.16,0 1.82,-0.95 1.02,-1.82z" />
				<path id="Layer" class="shp6" d="M449.25,207.36c0,21.55 -16,35.66 -41.94,35.66h-6.14v29.88c-0.14,1.22 -1.18,2.13 -2.41,2.12h-26.82c-1.11,-0.1 -1.98,-1 -2.04,-2.12v-98.88c0,-1.16 1.1,-2.32 2.04,-2.25h35.36c25.94,0 41.94,14.04 41.94,35.59zM417.45,207.36c0,-5.19 -3.66,-8.85 -8.85,-8.85h-7.73v17.69h7.73c5.2,0 8.85,-3.65 8.85,-8.84z" />
				<path id="Layer" class="shp7" d="M560.31,223.29c0,32.44 -21.04,53.7 -53.04,53.85c-32.17,0.15 -53.19,-21.55 -53.19,-53.92c0,-32.37 20.97,-53.85 53.19,-53.85c32.02,0 53.04,21.59 53.04,53.93zM527.7,223.36c0,-13.59 -7.82,-23.75 -20.53,-23.75c-12.2,0 -20.46,9.59 -20.46,23.75c0,14.16 8.26,23.82 20.48,23.82c12.2,0 20.53,-9.67 20.51,-23.82z" />
				<path id="Layer" class="shp8" d="M643.89,171.77h-80.44c-1.16,0.14 -2.05,1.09 -2.12,2.25v22.58c0.07,1.14 0.98,2.05 2.12,2.12h24.84v74.17c0.07,1.17 1.02,2.09 2.19,2.12h26.52c1.14,-0.06 2.06,-0.97 2.13,-2.12v-74.15h22.28c1.39,0 2.12,-0.75 2.34,-2.13l2.25,-22.72c0.23,-1.1 -0.72,-2.13 -2.11,-2.13z" />
				<path id="Layer" class="shp9" d="M279.18,151.19c26.89,0 41.14,-13.88 41.14,-40.4v-62.4c0,-0.68 -0.27,-1.33 -0.75,-1.81c-0.48,-0.48 -1.13,-0.75 -1.81,-0.74h-25.71c-1.41,0.02 -2.54,1.15 -2.56,2.56v65.21c0,6.76 -3.87,10.75 -10.45,10.75c-6.58,0 -10.51,-4.09 -10.51,-10.89v-65.07c0.02,-0.67 -0.23,-1.32 -0.7,-1.8c-0.47,-0.48 -1.11,-0.75 -1.78,-0.75h-25.8c-1.4,0.02 -2.54,1.15 -2.56,2.55v62.4c0.51,26.53 14.61,40.4 41.5,40.4z" />
				<path id="Layer" class="shp10" d="M330.18,146.95v-98.8c0,-1.22 0.97,-2.22 2.19,-2.25h39.52c23.18,0 38.3,13.41 38.3,33.79c0,11.87 -7.31,23.78 -18.34,28.54l23.75,38.41c0.8,1.24 -0.23,2.41 -1.61,2.41h-32.08c-1.55,0.05 -2.95,-0.93 -3.44,-2.41l-15.56,-32.57h-1.76v32.88c-0.21,1.18 -1.21,2.06 -2.41,2.12h-26.38c-1.17,-0.03 -2.12,-0.95 -2.19,-2.12zM361.16,88.65h8.77c5.19,0 8.55,-3.22 8.55,-7.97c0,-4.75 -3.36,-7.96 -8.55,-7.89h-8.77z" />
				<path id="Layer" class="shp11" d="M419.91,97.27c0,-32.37 20.97,-53.85 53.19,-53.85c32.02,0 53.04,21.55 53.04,53.92c0,32.44 -21.04,53.7 -53.04,53.85c-32.15,0.15 -53.19,-21.55 -53.19,-53.92zM452.58,97.42c0,14.18 8.25,23.82 20.46,23.82c12.2,0 20.53,-9.64 20.53,-23.82c0,-13.59 -7.82,-23.75 -20.53,-23.75c-12.2,0 -20.46,9.57 -20.46,23.75z" />
				<path id="Layer" class="shp12" d="M114.21,104.9c0.62,1.63 1.76,2.08 3.48,1.43l6.36,-2.4l1.5,3.96l-6.36,2.4c-1.71,0.65 -2.25,1.74 -1.72,3.22l1.97,5.2c0.62,1.63 1.76,2.08 3.47,1.43l7.3,-2.75c15.02,26 42.88,35.82 69.6,25.74c13.36,-5.04 23.76,-12.51 31.32,-22.37c0.99,-0.87 1.13,-2.37 0.31,-3.4l-16.68,-20.23c-1.18,-1.24 -2.37,-1.33 -3.5,-0.1c-5.07,6.08 -10.81,10.38 -17.27,12.8c-11.81,4.46 -21.44,2.6 -28.91,-5.59l28.91,-10.93v0c1.71,-0.65 2.25,-1.74 1.66,-3.37l-1.97,-5.2c-0.56,-1.5 -1.7,-1.93 -3.41,-1.28l-30.99,11.71l-1.5,-3.96l30.99,-11.69c1.71,-0.65 2.25,-1.74 1.65,-3.37l-1.99,-5.26c-0.56,-1.5 -1.67,-1.85 -3.39,-1.2l-28.88,10.87c0.28,-11.02 5.61,-18.53 16.02,-22.45c7.46,-2.9 15.57,-3.75 23.47,-2.46c1.66,0.17 2.49,-0.68 2.55,-2.39l-0.83,-26.21c-0.11,-1.5 -0.93,-2.25 -2.49,-2.34c-12.17,-2.42 -25,-1.13 -38.36,3.91c-26.8,10.12 -41.27,35.71 -35.24,65.11l-7.3,2.76c-1.73,0.56 -2.3,1.67 -1.74,3.14z" />
			</g>
		</g>
	</g>
</svg>