<svg xmlns="http://www.w3.org/2000/svg" xmlns:xlink="http://www.w3.org/1999/xlink" viewBox="0 0 329.94 204.73"><defs><style>.cls-1{isolation:isolate;}.cls-2{opacity:0.5;}.cls-3,.cls-4{mix-blend-mode:screen;}.cls-3{fill:url(#radial-gradient);}.cls-4{fill:url(#radial-gradient-2);}.cls-5{fill:url(#New_Gradient_Swatch_copy);}.cls-6{fill:#eb0c6d;}.cls-6,.cls-7,.cls-8{fill-rule:evenodd;}.cls-7{fill:#027562;}.cls-8{fill:#fff;}</style><radialGradient id="radial-gradient" cx="4098.67" cy="465.04" r="34.51" gradientTransform="matrix(0.84, 0, 0, 1, -3239.19, -408.16)" gradientUnits="userSpaceOnUse"><stop offset="0.08" stop-color="#fff"/><stop offset="0.14" stop-color="#fcfcfc"/><stop offset="0.19" stop-color="#f3f3f3"/><stop offset="0.23" stop-color="#e3e3e4"/><stop offset="0.27" stop-color="#cccdce"/><stop offset="0.31" stop-color="#afb0b2"/><stop offset="0.35" stop-color="#8c8d90"/><stop offset="0.35" stop-color="#898a8d"/><stop offset="0.41" stop-color="#727376"/><stop offset="0.54" stop-color="#4a4a4c"/><stop offset="0.67" stop-color="#2a2a2b"/><stop offset="0.79" stop-color="#131313"/><stop offset="0.9" stop-color="#050505"/><stop offset="1"/></radialGradient><radialGradient id="radial-gradient-2" cx="3124.34" cy="67.04" r="5.78" gradientTransform="matrix(-1, 0, 0, 1, 3376.49, 0)" gradientUnits="userSpaceOnUse"><stop offset="0" stop-color="#fff"/><stop offset="0" stop-color="#fafafa"/><stop offset="0.05" stop-color="#cbcbcb"/><stop offset="0.1" stop-color="#a0a0a0"/><stop offset="0.15" stop-color="#7a7a7a"/><stop offset="0.2" stop-color="#595959"/><stop offset="0.27" stop-color="#3d3d3d"/><stop offset="0.34" stop-color="#262626"/><stop offset="0.42" stop-color="#151515"/><stop offset="0.52" stop-color="#090909"/><stop offset="0.65" stop-color="#020202"/><stop offset="1"/></radialGradient><linearGradient id="New_Gradient_Swatch_copy" x1="165.27" y1="9.83" x2="165.27" y2="115.28" gradientUnits="userSpaceOnUse"><stop offset="0" stop-color="#ffe100"/><stop offset="0.03" stop-color="#fedd00"/><stop offset="0.21" stop-color="#fbc800"/><stop offset="0.42" stop-color="#f8b800"/><stop offset="0.66" stop-color="#f6af00"/><stop offset="1" stop-color="#f6ac00"/></linearGradient></defs><title>Asset 14</title><g class="cls-1"><g id="Layer_2" data-name="Layer 2"><g id="Layer_1-2" data-name="Layer 1"><g id="_Group_" data-name="&lt;Group&gt;" class="cls-2"><ellipse id="_Path_" data-name="&lt;Path&gt;" class="cls-3" cx="193.41" cy="56.73" rx="28.9" ry="34.51" transform="translate(3.06 123.01) rotate(-35.55)"/></g><circle class="cls-4" cx="252.16" cy="67.04" r="5.78"/><path id="_Path_2" data-name="&lt;Path&gt;" class="cls-5" d="M59.82,115.28a105.45,105.45,0,0,1,210.9,0"/><path class="cls-6" d="M228.89,75.27c-.07,1.85-.41,3.67-.63,5.51-.37,1.37-.81,2.73-1.1,4.11-.52,2.5-.83,5-1.43,7.53-.29,1.19-.44,2.42-.66,3.63-.8-.13-1.59-.27-2.39-.38-.54-.07-1.08-.1-1.33-.71a2.92,2.92,0,0,1-.15-.44c-.38-2.15-1-4.26-1.57-6.36-.68-2.43-1.32-4.88-2.14-7.27a2.84,2.84,0,0,1-.07-1.58,13.21,13.21,0,0,1,.88-2,1.52,1.52,0,0,0,1-.67,20.55,20.55,0,0,0,2.57-3.92c.23-.39.49-.78.7-1.18,1-2,2.07-3.94,3-5.94.28-.57.8-1.11.65-1.83-.28-1.32-.35-2.66-.55-4s-.18-1.25-1.48-1.3a31.94,31.94,0,0,1-6.56-1,21,21,0,0,1-4-1.49c-.92-.44-1.77-1-2.67-1.49l-.87-.78a1,1,0,0,0-.26-.12l-8.79-1.37a1.53,1.53,0,0,0-1.93.58,1.52,1.52,0,0,1-.27.24,24.72,24.72,0,0,1-4,2.62L194,56a.33.33,0,0,1-.34-.06.21.21,0,0,1,0-.28c.38-.37.28-.91.47-1.34h0a.2.2,0,0,0,0-.05c0-.2,0-.39.06-.59.06-.74.06-.74-.69-.62a1,1,0,0,0-.47,0,11.79,11.79,0,0,0-3.27,1.66c-.28.2-.52.5-.91.51-.12-.23-.72.48-.56-.29.26-.21.23-.56.3-.83a9.37,9.37,0,0,0,.63-2.19c0-.13.07-.29-.11-.36s-.25,0-.35.15a7.3,7.3,0,0,1-.6.65,18.68,18.68,0,0,1-4,2.71,6.39,6.39,0,0,0-1.87,1.44,10.07,10.07,0,0,0-1.22,1.72c-.07.14-.18.36-.44.34s-.31-.23-.35-.36a5.31,5.31,0,0,1-.33-1.56,8.19,8.19,0,0,1,1.22-3.93,4.89,4.89,0,0,0,1-2.34c0-.45-.1-.56-.51-.35s-.61.28-.91.42a14.81,14.81,0,0,0-6.61,5.6c-.49.8-.9,1.66-1.33,2.5-.23.45-.39.26-.58,0a3.6,3.6,0,0,1-.34-1.24,6.1,6.1,0,0,1,.59-4.12,14.64,14.64,0,0,1,2-2.82,45.58,45.58,0,0,1,6.53-6.52,37.77,37.77,0,0,1,7.09-4.57c.27-.14.63-.14.77-.48a12.16,12.16,0,0,1,5.83-2.5c.72,0,1.07-.6,1.56-1l2.18-1.43.67-.4c2.5-1.59,5.09-3,7.72-4.39,2.85-1.47,5.79-2.73,8.76-3.93L219.2,24a50.07,50.07,0,0,1,9-1.93,27.07,27.07,0,0,1,7.39.14A38.83,38.83,0,0,1,242,23.81a30.25,30.25,0,0,1,5.55,2.58A38.92,38.92,0,0,1,251,28.95l2,2.15c.11.17.2.35.32.5a20.29,20.29,0,0,1,4,11.66q0,.81,0,1.62a5.71,5.71,0,0,0-.14,2.86c.48,1.75,2.72,2,4,1.51A3.1,3.1,0,0,0,263,45.81a5.48,5.48,0,0,0-.17-1.91c0-.22,0-.44-.09-.65a25.72,25.72,0,0,0-3.4-8,17,17,0,0,0-2.93-3.77,21.62,21.62,0,0,0-2.18-2.16c-.12-.16-.23-.32-.36-.47a49.61,49.61,0,0,1-3.51-4.35c-1-1.34-1.74-2.78-2.56-4.2l-.85-2A14.81,14.81,0,0,1,246,11.1a.69.69,0,0,0,0-.23,10.85,10.85,0,0,0,.41-1.79c.2-.5.4-1,.61-1.5a16.22,16.22,0,0,1,2.23-3.46L251,2.51c.39-.25.77-.5,1.17-.74a11.36,11.36,0,0,1,11.6-.35,10.88,10.88,0,0,1,4.13,3.77L269,7.25a.91.91,0,0,0,.08.47,15.83,15.83,0,0,1,.8,5.19l0,1.7a1.59,1.59,0,0,0,.15,1.32q.73,1.47,1.36,3c.49,1.15.93,2.33,1.39,3.49a3,3,0,0,1-.13,1.84l-1.5,3.12a44.68,44.68,0,0,1-2.49,4.3c-.28.31-.55.64-.86.92s-.68.34-.84-.23c-.09-.33-.15-.66-.22-1q-.13-3-.26-6a.52.52,0,0,0-.06-.29,14.79,14.79,0,0,1-1.3-2.08,10.84,10.84,0,0,0-.94-2,23.92,23.92,0,0,0-.86-2.79c0-.13-.19-.13-.3-.16a8.18,8.18,0,0,1-4.32-2.81,1.91,1.91,0,0,0-1.8-.88,6.37,6.37,0,0,1-1.37-.18c-.29,0-.58-.22-.87,0a4.83,4.83,0,0,0-.35,2.29,7.12,7.12,0,0,0,.58,3.28,5.92,5.92,0,0,0,1.1,1.92,5,5,0,0,0,.48.68A114.62,114.62,0,0,1,264.2,31l1.5,2c.45.71.91,1.41,1.35,2.12,1.92,3.11,3.55,6.33,3.67,10.1L270.64,47l-.3,1.79a11.9,11.9,0,0,1-1.44,3.94,14.34,14.34,0,0,1-7.23,6.13c-1.13.47-2.32.74-3.47,1.13a37,37,0,0,1-5.47.55,35.44,35.44,0,0,1-8.27-1.1c-2.64-.61-5.26-1.25-7.84-2.06-1-.3-1.19.45-1.63.94-1.45,1.45-2.4,3.29-3.73,4.83a6.3,6.3,0,0,0-1.15,3.08A57.51,57.51,0,0,0,228.89,75.27Zm-3-1c.28-.24.21-.59.26-.9.18-1,.32-2,.48-3-.58.27-.75.75-1,1.17a12.16,12.16,0,0,0-1.21,2.26,44.83,44.83,0,0,0-2.47,5,3.15,3.15,0,0,0-.27.59,4.53,4.53,0,0,0-.46,2.61c.27,1.38.49,2.77.75,4.15.32,1.74.66,3.47,1,5.37.37-1,.42-1.82.67-2.63.49-1.57.45-3.26,1-4.83a1.79,1.79,0,0,0-.07-1.09,7.81,7.81,0,0,1-.36-3.38Z"/><path class="cls-7" d="M45.38,164.56c-1.11,5.86-2.15,10.94-3,16-.39,2.24-1.18,3.22-3.77,3.18-11.68-.18-23.37-.16-35.06,0C.95,183.78,0,183.3,0,180.4c.14-20.37.1-40.73,0-61.1,0-2.36.54-3.25,3.06-3.17,5.32.17,10.65.16,16,0,2.32-.09,2.6.84,2.59,2.81-.07,14,0,28-.09,42,0,2.5.46,3.39,3.17,3.29,6-.23,12-.12,18,0,1.86,0,2.68-.25,2.33-2.46C42.26,143.53,56,130.08,75,131.65c11.92,1,20.71,6.5,25.77,17.91,0-4.62.13-9.26-.06-13.87-.1-2.44.67-3.47,3.08-3,3.73.68,4.72-1,4.5-4.52-.18-2.8-1.38-6.6.66-8.22,1.72-1.37,5.32-.44,8.08-.43,3.58,0,8.16-1.17,10.46.58,2.45,1.88.67,6.69.77,10.21.05,1.92.54,2.63,2.54,2.57q6.42-.19,12.84,0c2,.07,2.61-.68,2.51-2.6-.13-2.77.06-5.56-.06-8.33-.08-1.82.57-2.4,2.38-2.36,5,.1,10,.13,14.92,0,2.1-.06,2.54.79,2.46,2.64-.11,2.89,0,5.79,0,8.68,0,1.67.63,2.34,2.24,2.17a3.47,3.47,0,0,1,.69,0c2.72.29,6.35-1.27,7.93.73,1.31,1.67.42,5.1.43,7.76,0,3.12,1,7-.44,9.12s-5.61.57-8.57.67c-1.54.05-2.35.37-2.29,2.12.11,2.89-.07,5.79.07,8.67.18,3.68,2.23,5,5.55,3.47,2-.94,2.78-.47,3.58,1.38,1.51,3.48,3.18,6.89,4.85,10.3.57,1.17.67,2-.51,3-6.07,4.79-23.38,6.27-29.1-.78-3-3.69-4-7.71-4.1-12.15s-.11-9,0-13.54c.06-2.13-.68-2.82-2.8-2.75-4.27.14-8.56.13-12.84,0-2-.06-2.65.66-2.55,2.61.14,2.89-.14,5.8.14,8.67.32,3.36,2.18,4.42,5.2,2.91,1.9-1,2.64-.32,3.47,1.23,1.8,3.35,3.55,6.75,5.63,9.93,1.45,2.21.57,3.26-1.25,4.37a24.51,24.51,0,0,1-10.83,3.31c-5.87.49-11.87.85-16.86-3.31a14,14,0,0,1-5.07-10.62c-.21-5.55-.09-11.1-.22-16.66-.12-5-3.93-2.11-6-2.42-2.72-.41-1.12,1.81-.94,2.82C104,169,93,182.94,77.22,184.23c-9.89.81-18.89-.9-25.9-8.67C48.64,172.59,47,169.09,45.38,164.56ZM73.95,150.7c-4.68-.07-8.05,3.08-8.09,7.57a7.67,7.67,0,0,0,7.84,7.88,7.56,7.56,0,0,0,8.13-7.56A7.75,7.75,0,0,0,73.95,150.7Z"/><path class="cls-7" d="M278.53,147.27c.4,2.91-1,3.19-3,3a14.11,14.11,0,0,0-6.12,1c-4.38,1.52-6.54,4.44-6.59,9.08-.07,6.94-.15,13.89,0,20.82.08,2.7-.79,3.31-3.33,3.21-5-.2-9.95-.13-14.92,0-1.88,0-2.64-.41-2.63-2.46q.12-23.43,0-46.85c0-1.85.62-2.39,2.4-2.34,3.81.11,7.64.17,11.45,0,3-.14,5.41-.09,4.24,4.85,4.47-3.75,8.93-5.41,13.92-5.08,2.15.14,4.87-1,6,2.28.26.74,1.5.25,2.25.11a30.63,30.63,0,0,0,6.06-1.36c3.71-1.52,5.41-.25,6.87,3.32,2.6,6.37,5.78,12.51,9.08,19.51,2.25-7,4.52-13.16,6.19-19.49.85-3.23,2.36-3.86,5.28-3.26a92.6,92.6,0,0,0,11.61,1.89c2.9.21,2.75,1.57,2.25,3.58a253.12,253.12,0,0,1-8.52,28.09c-4.35,11.43-8.81,22.82-16.92,32.29-.45.53-.89,1.06-1.37,1.55-4.79,4.77-5.67,4.87-11.39,1.35L281.21,196c3.93-3.34,7.85-6.14,11-9.82,2.68-3.13,3.45-5.95,1.28-9.95-4.39-8.11-8.2-16.53-12.27-24.81A10.23,10.23,0,0,0,278.53,147.27Z"/><path class="cls-7" d="M221.22,164.07c-4.63,0-9.26.09-13.89,0-2.68-.07-2.25,1.27-1.4,2.72a5.93,5.93,0,0,0,4.57,2.81c5,.65,10,.61,14.43-2.2,1.54-1,2.45-1,3.69.46,2.43,2.93,5.07,5.71,7.67,8.5.9,1,1.51,1.65,0,2.66-11.82,7.76-32.94,9.47-43.74,1.24-8.31-6.33-12.1-18.36-8.94-29,3.38-11.36,11.26-17.73,22.86-18.41,4.27-.25,8.56-.47,12.79.4,10.66,2.17,17.2,9.39,18.37,20.21,1.15,10.63,1.15,10.63-9.44,10.63Zm1.23-10.53c-1.07-4.4-5.84-8.28-9.93-8.2-4.49.09-10.15,4.28-11,8.2Z"/><path class="cls-8" d="M226,90.38c0,5.38-.06,10.77,0,16.15,0,1.47-.41,1.94-1.86,2.1-5.21.57-10.35,1.7-15.64,1.4-9.1-.52-14.85-7.57-13.46-16.61,1.15-7.45,4.81-11.32,11.73-12.48a12.22,12.22,0,0,1,6.22.75c1.38.49,1.51,0,1.48-1.14,0-2.37,0-4.74,0-7.11,0-1.12.2-1.6,1.45-1.56q4.32.14,8.65,0c1.28,0,1.45.5,1.44,1.59C225.93,79.1,226,84.74,226,90.38ZM214.28,96c0-3.49-.72-4.68-3.11-4.84a3.94,3.94,0,0,0-4.34,3.17c-.55,2.81.55,5,2.85,5.71,3.15,1,4.58-.06,4.6-3.28C214.28,96.5,214.28,96.24,214.28,96Z"/><path class="cls-8" d="M251,92.26a2.41,2.41,0,0,0-2-2.31c-2.66-.89-5.24-.2-7.73.54-2.13.63-3.23.19-3.9-1.94a36.61,36.61,0,0,0-1.95-4.37c-.27-.59-.43-1,.47-1.21,6.92-1.71,13.84-3.26,20.91-.72,4,1.45,5.9,4.1,5.92,8.38,0,6-.16,11.91.74,17.82.18,1.18-.66,1.06-1.3,1.11-2.29.2-4.77,1-6.86.38-4.13-1.15-7.94.85-11.93.47-3.56-.34-6.82-1-9-4.27A8.59,8.59,0,0,1,237.25,94a18.2,18.2,0,0,1,12.8-1.87Zm-1.53,5.15c-1.65,0-3.73,1.81-3.76,3.28s2.06,3.09,3.67,3.06c1.41,0,3.17-2,3.25-3.59C252.73,98.79,251.15,97.41,249.51,97.41Z"/><path class="cls-8" d="M68.69,90.75c0-5.76,0-11.53,0-17.29,0-1.26.34-1.6,1.6-1.59q10.47.09,20.94,0c1,0,1.48.26,1.55,1.33.17,2.75.38,5.49.66,8.22.11,1.12-.39,1.27-1.32,1.26-3.33,0-6.66,0-10,0-1.18,0-1.61.3-1.5,1.5.16,1.64-.66,3.77.31,4.82s3.14.29,4.78.35,3.07.06,4.61,0c1.13-.05,1.43.35,1.3,1.47-.26,2.35-.45,4.71-.53,7.07,0,1.08-.33,1.42-1.41,1.39-2.56-.07-5.12,0-7.68,0-1.1,0-1.41.33-1.38,1.41.07,2.56,0,5.12,0,7.68,0,1-.33,1.35-1.33,1.33-3,0-6-.07-9,0-1.24,0-1.63-.32-1.61-1.59C68.73,102.28,68.69,96.52,68.69,90.75Z"/><path class="cls-8" d="M132.63,81.44c5.83.09,10.74,1.7,14,6.56,5.78,8.64.08,20.67-10.5,22.39-5.45.88-10.55.21-14.58-3.86-4.67-4.7-5.56-10.47-3.16-16.47,2.23-5.57,6.83-8.21,12.77-8.55Zm.59,19.09a4.24,4.24,0,0,0,4.53-4.16A4.47,4.47,0,0,0,133.36,92a4.29,4.29,0,0,0-4.46,4.24A4.1,4.1,0,0,0,133.22,100.53Z"/><path class="cls-8" d="M99.48,90.77c0-5.76,0-11.52,0-17.29,0-1.32.3-1.77,1.69-1.71,2.68.12,5.38.07,8.07,0,1.1,0,1.57.22,1.57,1.47q-.07,17.48,0,35c0,1.1-.35,1.43-1.43,1.41-2.75-.06-5.51-.11-8.26,0-1.47.07-1.63-.54-1.62-1.78C99.51,102.17,99.48,96.47,99.48,90.77Z"/><path class="cls-8" d="M163.83,83.57a14.57,14.57,0,0,1,7.8-2.44c1-.08,1.5.18,1.46,1.34-.08,2.43-.05,4.86,0,7.29,0,.88-.22,1.26-1.17,1.27a7.9,7.9,0,0,0-3.49.9c-2.35,1.21-3.73,2.89-3.6,5.75.16,3.45,0,6.91.06,10.37,0,1.14-.29,1.6-1.5,1.57-2.88-.07-5.76-.06-8.64,0-1,0-1.34-.22-1.33-1.27q.06-12.58,0-25.15c0-1.2.48-1.33,1.47-1.31,2.49.06,5,.08,7.49,0C163.46,81.85,164.1,82,163.83,83.57Z"/><path class="cls-8" d="M189.68,95.57c0,4,0,8.06,0,12.09,0,1.15-.19,1.76-1.53,1.74-3,0-6,0-9,.09-1.35,0-1.17-.84-1.17-1.67q0-8.35,0-16.7c0-2.56.05-5.12,0-7.68,0-1.12.22-1.6,1.46-1.56,2.94.08,5.89.06,8.83,0,1.09,0,1.43.32,1.42,1.41-.05,4.09,0,8.19,0,12.29Z"/><path class="cls-6" d="M185.16,65.63A5.78,5.78,0,0,1,191,71.28a6,6,0,0,1-11.9,0A5.77,5.77,0,0,1,185.16,65.63Z"/></g></g></g></svg>