<svg xmlns="http://www.w3.org/2000/svg" viewBox="0 0 301.5 182.51"><defs><style>.cls-1{fill:#0a3e94;}.cls-2{fill:#1a6bd1;}.cls-3{fill:#d60423;}.cls-4{fill:#fefdfd;fill-rule:evenodd;}</style></defs><title>Asset 15</title><g id="Layer_2" data-name="Layer 2"><g id="Layer_1-2" data-name="Layer 1"><circle class="cls-1" cx="35.5" cy="64.5" r="35.5"/><circle class="cls-2" cx="197.25" cy="59.25" r="44.75"/><circle class="cls-1" cx="197.25" cy="59.25" r="44.75"/><circle class="cls-3" cx="110.25" cy="51.75" r="51.75"/><circle class="cls-3" cx="266" cy="74" r="35.5"/><path class="cls-4" d="M132.11,26.09c9.43,13.84,9.4,29.89-.08,42.34A34,34,0,0,1,93.65,80.22a34.72,34.72,0,0,1-22.3-41.61c1.16-4.46,2.6-8.76,5.29-12.55,1.93-.11,2.67-1.76,3.82-2.91,6.2-6.17,13.35-10,22.4-10.38C115,12.24,124.27,17.46,132.11,26.09ZM98.46,58.91C108,59,116.22,51,116.17,41.66c0-8.65-8.57-17.2-17.39-17.17-8,0-17.63,6.28-17.31,17.35C81.76,51.49,88.79,58.85,98.46,58.91Z"/><path class="cls-4" d="M183.23,31.67a13.35,13.35,0,0,1-.51,5c-.41,1.67,1.43,1.32,2.47,1.57,4,1,9.57.13,11.56,3,2.1,3-1.78,7.53-2.5,11.55a66.32,66.32,0,0,1-2.63,8.41c-1,6.38-3.48,12.44-3.41,19.06.06,5.84,3.42,9.26,8,11.47,6.07,2.93,9,1.53,10.86-5,3-10.84,5.65-21.79,8.44-32.69.55-8.48,1.17-8.87,8.66-5.24,1.16.56,2.21,1.34,3.31,2,.93,0,2,.71,2.69-.41,2.48-4.05.94-11.83-2.84-14.84a19.24,19.24,0,0,1-3.27-3c-.17-.22-.37-.44-.55-.65A44.53,44.53,0,0,0,203.16,27C195,27,189.82,27.85,183.23,31.67Z"/><path class="cls-4" d="M28.85,38.54c1.23,6.85,1,14,3.63,20.57,1,3.44,1.85,6.93,3,10.31,1.87,5.43,3.83,6.49,9.35,5.42a14,14,0,0,1,2.89-.69c2.47.08,5.32-4.6,7.29-.06C58.18,81.37,56.9,84.63,50.94,87,34.57,93.56,24,88.75,18.29,72.21a136.84,136.84,0,0,1-5.17-21.8c-.66-3.82-.36-6.82,2.38-9.51a46.36,46.36,0,0,1,10.63-2.24"/><path class="cls-4" d="M292.37,79.87c-7.12,11.33-17.25,14.53-29.85,11l0,0a4.73,4.73,0,0,0-3-2l-.05,0-2.88-2.2c-11.93-12.8-7.52-26.84-.23-33.84a25.33,25.33,0,0,1,10.29-5.8l9-.22c5.66.91,10,4,13.79,8.13l2.85,4.16,0,0a26.32,26.32,0,0,1,.1,20.81ZM277.06,61.21a10.88,10.88,0,0,0-11.22,10.85c-.1,5.82,5.09,11.41,10.81,11.66S288.26,78,288.25,72.22A11.19,11.19,0,0,0,277.06,61.21Z"/><path class="cls-3" d="M33.18,140.09H53.74l-2.19,14.54H31l-3.94,26.24H8.8l10.71-71.72H61.06l-2.19,15.2H35.48Z"/><path class="cls-3" d="M92.33,145.45c-.87,0-1.53-.11-2-.11-7.65-.44-13.23,4.26-17.71,14.65l-3.17,20.88H52.75l4.48-30.17c.33-1.75.55-3.83.77-6.34a39.85,39.85,0,0,0,.33-6.67A14.08,14.08,0,0,0,57,132.44l14.32-3.5a10.25,10.25,0,0,1,3.28,8,36.57,36.57,0,0,1-.44,5.58c5.58-10.17,9.29-13.34,16-13.67a13,13,0,0,1,4.26.55Z"/><path class="cls-3" d="M138.47,159.55l-.44,3.94c-.77,6,.55,7.87,5.25,7.54l-3.06,10.28a34.74,34.74,0,0,1-8.86.77c-6.34-.33-9.84-3.83-9.84-9.62-5,7.43-9.29,10.06-16.18,10.06-10.39,0-16.51-8.86-15.42-22.19.87-10.93,5.47-19.9,13.12-25.36a33.5,33.5,0,0,1,19-6.23,66.8,66.8,0,0,1,20.55,3.39Zm-14.1-16.95a7,7,0,0,0-1.64-.33,13,13,0,0,0-9.4,2.19c-3.28,2.73-5.79,8.31-6.34,14s1.42,9,5.36,9.18c3.06.22,5.58-1.86,9.4-7.43Z"/><path class="cls-3" d="M164.27,128.94a11.05,11.05,0,0,1,3.28,8v3.28c2.84-3.94,4.48-5.69,6.78-7.43a18.53,18.53,0,0,1,11-3.83c8.53,0,13.67,5.14,13.12,13-.11,1.53-.33,3.5-.66,5.79l-5,33.13H176.08l4.37-28.53c.22-1.75.44-3.17.44-4,.11-2.73-1.64-4.59-4.15-4.26-3.72.44-6.34,2.84-10.28,9.62l-4,27.22H145.68l4.48-30.17c.33-1.75.55-3.83.77-6.34a39.85,39.85,0,0,0,.33-6.67,14.08,14.08,0,0,0-1.31-5.25Z"/><path class="cls-3" d="M237.85,147.2c-3.94-3.17-5.47-3.83-8.09-3.72-5.58.22-10.39,7-10.39,14.54,0,6.23,2.51,9.84,7,10.06,3.17.22,5.14-.66,10.6-4.48l3.39,11.92c-6.45,5-11.59,7-18.7,7-12.35,0-20.12-8.75-20.12-23,0-16.18,13-30.94,27.33-30.94,7,0,11.37,1.75,16.62,6.56Z"/><path class="cls-3" d="M286.39,173c-8.2,7-14.32,9.51-23.62,9.51-6.45,0-12.57-3-16-7.65-3-3.94-4.26-8.53-4.26-15.09,0-7.11,3.61-16.4,8.64-22a27.71,27.71,0,0,1,20-9.18c11.48,0,17.93,5,17.93,13.88,0,9.84-10.06,17.27-28.86,21.32.66,4.15,3.72,7,7.43,7,5.14,0,9.18-1.86,15.85-7.32Zm-10.82-28.86a4,4,0,0,0-4.26-4.37c-5.36,0-9.95,6.34-11.26,15.74C269.44,153.21,275.24,148.95,275.57,144.14Z"/></g></g></svg>