<svg xmlns="http://www.w3.org/2000/svg" xmlns:xlink="http://www.w3.org/1999/xlink" viewBox="0 0 297.99 106.39"><defs><style>.cls-1{fill:url(#linear-gradient);}.cls-2{fill:url(#linear-gradient-2);}.cls-3{fill:url(#linear-gradient-3);}.cls-4{fill:url(#linear-gradient-4);}.cls-5{fill:url(#linear-gradient-5);}.cls-6{fill:#fff;}.cls-7{fill:url(#New_Gradient_Swatch_copy_10);}</style><linearGradient id="linear-gradient" x1="94.88" y1="-51.36" x2="92.73" y2="103.51" gradientUnits="userSpaceOnUse"><stop offset="0.41" stop-color="#ed1c24"/><stop offset="0.56" stop-color="#e91b23"/><stop offset="0.71" stop-color="#de181f"/><stop offset="0.85" stop-color="#cb131a"/><stop offset="0.99" stop-color="#b00d12"/><stop offset="1" stop-color="#ad0c11"/></linearGradient><linearGradient id="linear-gradient-2" x1="125.64" y1="-50.94" x2="123.49" y2="103.94" xlink:href="#linear-gradient"/><linearGradient id="linear-gradient-3" x1="217.71" y1="-49.66" x2="215.56" y2="105.21" xlink:href="#linear-gradient"/><linearGradient id="linear-gradient-4" x1="229.84" y1="-49.49" x2="227.69" y2="105.38" xlink:href="#linear-gradient"/><linearGradient id="linear-gradient-5" x1="150.24" y1="-50.59" x2="148.09" y2="104.28" xlink:href="#linear-gradient"/><linearGradient id="New_Gradient_Swatch_copy_10" x1="59.81" y1="44.41" x2="59.81" y2="101.73" gradientUnits="userSpaceOnUse"><stop offset="0.41" stop-color="#ed1c24"/><stop offset="0.53" stop-color="#e91b23"/><stop offset="0.64" stop-color="#de1a21"/><stop offset="0.75" stop-color="#cb171e"/><stop offset="0.86" stop-color="#b01319"/><stop offset="0.96" stop-color="#8e0e13"/><stop offset="1" stop-color="#800c11"/></linearGradient></defs><title>Asset 16</title><g id="Layer_2" data-name="Layer 2"><g id="Layer_1-2" data-name="Layer 1"><path class="cls-1" d="M93.88,26.36a5.17,5.17,0,0,0,4.32-1.95,9.05,9.05,0,0,0,1.52-5.67A11.3,11.3,0,0,0,99,14.56,5.35,5.35,0,0,0,97,12a5.63,5.63,0,0,0-3.17-.87,5.53,5.53,0,0,0-3.14.88,5.36,5.36,0,0,0-2,2.57,11.36,11.36,0,0,0-.67,4.17,9.11,9.11,0,0,0,1.51,5.67A5.11,5.11,0,0,0,93.88,26.36Z"/><path class="cls-2" d="M124.65,26.36A5.17,5.17,0,0,0,129,24.41a9.05,9.05,0,0,0,1.52-5.67,11.3,11.3,0,0,0-.68-4.19,5.35,5.35,0,0,0-2-2.56,5.63,5.63,0,0,0-3.17-.87,5.52,5.52,0,0,0-3.14.88,5.36,5.36,0,0,0-2,2.57,11.36,11.36,0,0,0-.67,4.17,9.12,9.12,0,0,0,1.51,5.67A5.11,5.11,0,0,0,124.65,26.36Z"/><path class="cls-3" d="M220.09,16.3a2.63,2.63,0,0,0,.87-2.19q0-2.62-3.46-2.62h-4.77V17h4.6A4.43,4.43,0,0,0,220.09,16.3Z"/><path class="cls-4" d="M228,49.91h-.2l-5,.09,0,14.16,3.61-.14c5-.21,7.57-3.27,7.56-7.77C234,52.78,232.35,49.91,228,49.91Z"/><path class="cls-5" d="M296.95,35.42a6,6,0,0,0-5-2.62h0l-13.18,0A6,6,0,0,0,273,37.31c-.61,2.28-1.25,4.44-1.93,6.53-.73-2.08-1.42-4.27-2.1-6.61a6,6,0,0,0-5.76-4.32h0l-14.17,0a5.91,5.91,0,0,0-5.47,3.6,26.11,26.11,0,0,0-10.72-3.35,6,6,0,0,0,.51-2.42v-.83a6,6,0,0,0-1-3.25c0-.16,0-.34,0-.55,0-1-.05-1.65-.07-1.84a16.85,16.85,0,0,0-.84-4.7,12.32,12.32,0,0,0,1.58-6.24A13.64,13.64,0,0,0,232,8a11,11,0,0,0-3.56-4.53,13.4,13.4,0,0,0-5-2.25,23.28,23.28,0,0,0-5.32-.55H206.59a6,6,0,0,0-3,.82,6,6,0,0,0-3-.82H182.22a6,6,0,0,0-3.45,1.09A6,6,0,0,0,175.33.65h-6.17a6,6,0,0,0-5.17,3l0,0A14.59,14.59,0,0,0,158.89.84,19,19,0,0,0,153.12,0a20.1,20.1,0,0,0-5.75.78,14.91,14.91,0,0,0-5,2.57A12.66,12.66,0,0,0,139.23,7a16.23,16.23,0,0,0-1.4-1.69,16.68,16.68,0,0,0-5.94-3.95,20.81,20.81,0,0,0-14.45,0,16.4,16.4,0,0,0-8.14,6.86,16.41,16.41,0,0,0-2.24-2.92,16.69,16.69,0,0,0-5.94-3.95,20.81,20.81,0,0,0-14.45,0,16.58,16.58,0,0,0-5.34,3.41A6,6,0,0,0,75.66.65H69.45a6,6,0,0,0-4.23,1.74A6,6,0,0,0,61,.65H54.79a6,6,0,0,0-6,6V30.78a6,6,0,0,0,.87,3.11C37.27,39.1,30.1,52.72,30,66a44.59,44.59,0,0,0,1,9.44l-6.58-.76.05-35.81a6,6,0,0,0-6-6L6,32.81H6a6,6,0,0,0-6,6V88.27a6,6,0,0,0,5,5.91c11,1.88,16.75,2.76,27.82,4.28a6,6,0,0,0,6.79-5.53A30.45,30.45,0,0,0,59.78,103c1.06.1,2.11.15,3.14.15A25.82,25.82,0,0,0,85,91.32c4.11-6.16,6.39-14.46,6.43-23.37A49.79,49.79,0,0,0,90.27,57l3.78.06-.11,41.88a6,6,0,0,0,5.65,6c5.1.29,7.59.42,12.66.64h.26a6,6,0,0,0,6-6V95.48l.08-38.14,6.6,0h0a6,6,0,0,0,1.45-.19,6,6,0,0,0,1.49.2l6.72,0,0,42.9a6,6,0,0,0,5.94,6c3.29,0,5.35,0,7.61,0l5.07,0a6,6,0,0,0,6-6V57.45l5.95,0,0,20.88,0,21.79a6,6,0,0,0,6,6h.15c10.34-.25,20.83-.72,31.15-1.39a6,6,0,0,0,4-1.87,6,6,0,0,0,3.73,1.33l.43,0c5-.36,7.58-.57,12.57-1a6,6,0,0,0,5.48-6V96l1,2.41a6,6,0,0,0,6.11,3.58c5.75-.59,8.73-.92,14.47-1.61a6,6,0,0,0,4.68-8.58c-3.75-7.7-5.93-12.27-9.27-19.46a20.76,20.76,0,0,0,6.29-10.7c2,4.06,4,8,6.16,12l0,9.54,0,9.42a6,6,0,0,0,6.82,5.93c5-.69,7.5-1,12.58-1.82a6,6,0,0,0,5.1-5.94l0-10.42V72.38A282.7,282.7,0,0,0,297.57,41,6,6,0,0,0,296.95,35.42ZM277,90.69c-5,.76-7.49,1.12-12.49,1.81L264.45,72a253.3,253.3,0,0,1-15.39-33l14.17,0a113.15,113.15,0,0,0,8,20.49,107.76,107.76,0,0,0,7.61-20.54l13.18,0a278,278,0,0,1-15,32.06C277,78.79,277,82.76,277,90.69Zm-38.6-20.53c4.6,9.93,6.89,14.79,11.48,24.22-5.74.69-8.62,1-14.37,1.59-3.63-8.35-5.44-12.61-9.07-21.25l-3.54.2c0,8.9,0,13.35.07,22.25-5,.44-7.49.64-12.49,1q-.09-29.56-.18-59.13L229,39h.08c10.38,0,18,4.53,18,15.45C247.15,62.5,243.77,67.65,238.39,70.16Zm-84.93-18.7q0,24.46,0,48.91l-5,0c-2.34,0-4.48,0-7.55,0l0-48.89-9.67,0-3,0h0l0-12.32h37.13l0,12.35Zm-40.85-.17q0,24.15-.1,48.31c-5-.22-7.55-.34-12.58-.63q.06-23.91.12-47.82L88.47,51q-.5-1.31-1.09-2.55l0-9.41,34.82,0v12.3ZM85.41,67.92c-.07,14.51-6.9,29.26-22.5,29.26q-1.24,0-2.56-.13c-9.9-1-16.84-6.87-20.7-14.7v-.57a6,6,0,0,0-2-4.44A38.07,38.07,0,0,1,36,66C36.11,52,45.37,37.67,60.86,37.67h.2c9.89.08,16.51,5,20.32,12.17v1.11a6,6,0,0,0,2.4,4.81A42.56,42.56,0,0,1,85.41,67.92ZM6,38.81l12.47,0q0,20.56-.06,41.12c5.81.73,8.86,1.09,14.41,1.7.26.68.54,1.35.83,2,0,3.12,0,5.23,0,8.84C22.56,91,17,90.15,6,88.27Q6,63.54,6,38.81ZM54.79,6.65H61v8.57h8.45V6.65h6.21V30.78H69.45V20.62H61V30.78H54.79ZM93.88,6a13.69,13.69,0,0,1,5,.88,10.68,10.68,0,0,1,3.82,2.53,11.05,11.05,0,0,1,2.44,4,15.64,15.64,0,0,1,.84,5.29,15.51,15.51,0,0,1-.84,5.26,11.22,11.22,0,0,1-2.44,4,10.51,10.51,0,0,1-3.86,2.55,13.75,13.75,0,0,1-5,.88,13.59,13.59,0,0,1-5-.88A10.44,10.44,0,0,1,85.07,28a11.15,11.15,0,0,1-2.42-4,15.68,15.68,0,0,1-.84-5.25,15.73,15.73,0,0,1,.84-5.27,11.07,11.07,0,0,1,2.42-4,10.55,10.55,0,0,1,3.81-2.54A13.53,13.53,0,0,1,93.88,6Zm30.77,0a13.7,13.7,0,0,1,5,.88,10.68,10.68,0,0,1,3.82,2.53,11,11,0,0,1,2.44,4,15.64,15.64,0,0,1,.84,5.29A15.51,15.51,0,0,1,136,24a11.2,11.2,0,0,1-2.44,4,10.51,10.51,0,0,1-3.86,2.55,13.75,13.75,0,0,1-5,.88,13.59,13.59,0,0,1-5-.88A10.44,10.44,0,0,1,115.84,28a11.15,11.15,0,0,1-2.42-4,15.68,15.68,0,0,1-.84-5.25,15.73,15.73,0,0,1,.84-5.27,11.07,11.07,0,0,1,2.42-4,10.55,10.55,0,0,1,3.81-2.54A13.53,13.53,0,0,1,124.65,6Zm31.88,16.82a6.41,6.41,0,0,0-1-.43l-2.08-.64q-1.54-.46-2.54-.79t-2.1-.76a9.26,9.26,0,0,1-4-2.75,6.18,6.18,0,0,1-1.35-3.94,7.14,7.14,0,0,1,.66-3.08A6.66,6.66,0,0,1,146.07,8a8.9,8.9,0,0,1,3-1.52,14.08,14.08,0,0,1,4-.52,13,13,0,0,1,4,.56,8.58,8.58,0,0,1,3,1.61,6.91,6.91,0,0,1,1.88,2.53,8.06,8.06,0,0,1,.65,3.27h-5.8q-.38-3.29-4.05-3.29a4.25,4.25,0,0,0-2.45.63,1.84,1.84,0,0,0-.92,1.55,1.74,1.74,0,0,0,.59,1.38,4.5,4.5,0,0,0,1.45.83q.86.31,3.63,1.21t4,1.4A7.42,7.42,0,0,1,161,18.75,6.14,6.14,0,0,1,163.15,22a7.11,7.11,0,0,1,.24,1.85,7.73,7.73,0,0,1-.24,1.91,6.38,6.38,0,0,1-1,2.15,7.59,7.59,0,0,1-3.61,2.63,15.9,15.9,0,0,1-5.69.92q-4.7,0-7.17-2.15T143,22.79h5.94a4.09,4.09,0,0,0,1.21,3.1,4.87,4.87,0,0,0,3.36,1,5.62,5.62,0,0,0,2.94-.63,2,2,0,0,0,1-1.74A1.74,1.74,0,0,0,156.53,22.85Zm12.62-16.2h6.17V30.78h-6.17V6.65Zm13.07,0h18.33v5H188.4v4.24h11.1v4.83H188.4v5.16h12.2v4.93H182.22ZM222.1,7a7.43,7.43,0,0,1,2.78,1.21,5,5,0,0,1,1.64,2.08,7.68,7.68,0,0,1,.54,3,6.28,6.28,0,0,1-.93,3.49,7.18,7.18,0,0,1-2.87,2.42,4.06,4.06,0,0,1,2.37,1.86,9.74,9.74,0,0,1,.7,3.53q0,.26.06,1.65t.1,2a3.1,3.1,0,0,0,.25,1,1.39,1.39,0,0,0,.62.65v.83h-6.47a8.37,8.37,0,0,1-.38-1.72q-.11-.9-.17-2.51t-.11-2.07a2.91,2.91,0,0,0-1-2.07,3.78,3.78,0,0,0-2.41-.65h-4.13v9h-6.14V6.65h11.55A17.61,17.61,0,0,1,222.1,7ZM171.41,54.19q0-7.56,0-15.12h.69l29.86,0,0,11.46c-7.26.1-10.89.14-18.15.2l0,12c6.21-.1,9.32-.17,15.54-.32l0,11.32c-6.22.22-9.32.31-15.54.46l0,13.89c7.39-.25,11.08-.4,18.46-.78,0,4.58,0,6.87,0,11.45-10.28.67-20.61,1.13-30.91,1.38Z"/><path class="cls-6" d="M18.47,38.85,6,38.81Q6,63.54,6,88.27C17,90.15,22.56,91,33.63,92.52l0-10.75c-6.11-.67-9.16-1-15.25-1.79Q18.44,59.41,18.47,38.85Z"/><path class="cls-6" d="M61.06,37.67h-.2C45.37,37.67,36.11,52,36,66c-.08,14.79,8.2,29.46,24.32,31q1.32.13,2.56.13c15.6,0,22.43-14.75,22.5-29.26C85.48,52.4,78.12,37.81,61.06,37.67Z"/><path class="cls-6" d="M87.41,39l0,11.94,12.69.18Q100,75.06,99.94,99c5,.29,7.54.42,12.58.63q0-24.15.1-48.31l9.6.08V39.07Z"/><path class="cls-6" d="M165.4,51.43l0-12.35H128.26l0,12.32h0l3,0,9.67,0,0,48.89c3.07,0,5.21,0,7.55,0l5,0q0-24.46,0-48.91Z"/><path class="cls-6" d="M202.35,87.25c-7.38.38-11.08.53-18.46.78l0-13.89c6.22-.15,9.33-.24,15.54-.46l0-11.32c-6.21.15-9.32.21-15.54.32l0-12c7.26-.06,10.89-.1,18.15-.2l0-11.46-29.86,0h-.69q0,7.56,0,15.12l.06,45.9c10.3-.25,20.63-.71,30.91-1.38C202.37,94.12,202.36,91.83,202.35,87.25Z"/><path class="cls-6" d="M210.47,98.16c5-.36,7.49-.56,12.49-1,0-8.9,0-13.35-.07-22.25l3.54-.2c3.63,8.64,5.45,12.9,9.07,21.25,5.75-.59,8.63-.91,14.37-1.59-4.59-9.43-6.89-14.29-11.48-24.22,5.38-2.51,8.76-7.65,8.73-15.72,0-10.91-7.67-15.45-18-15.45H229l-18.71,0Q210.38,68.59,210.47,98.16Zm17.29-48.25h.2c4.39,0,6,2.87,6.06,6.34,0,4.5-2.52,7.57-7.56,7.77l-3.61.14,0-14.16Z"/><path class="cls-6" d="M264.5,92.5c5-.69,7.5-1,12.49-1.81,0-7.93,0-11.9,0-19.83a278,278,0,0,0,15-32.06l-13.18,0a107.76,107.76,0,0,1-7.61,20.54,113.15,113.15,0,0,1-8-20.49l-14.17,0a253.3,253.3,0,0,0,15.39,33Z"/><polygon class="cls-6" points="69.45 15.22 61 15.22 61 6.66 54.79 6.66 54.79 30.78 61 30.78 61 20.63 69.45 20.63 69.45 30.78 75.66 30.78 75.66 6.66 69.45 6.66 69.45 15.22"/><path class="cls-6" d="M98.92,6.91a13.69,13.69,0,0,0-5-.88,13.53,13.53,0,0,0-5,.88,10.55,10.55,0,0,0-3.81,2.54,11.07,11.07,0,0,0-2.42,4,15.73,15.73,0,0,0-.84,5.27A15.68,15.68,0,0,0,82.65,24a11.15,11.15,0,0,0,2.42,4,10.44,10.44,0,0,0,3.84,2.55,13.59,13.59,0,0,0,5,.88,13.75,13.75,0,0,0,5-.88A10.51,10.51,0,0,0,102.75,28a11.22,11.22,0,0,0,2.44-4,15.51,15.51,0,0,0,.84-5.26,15.64,15.64,0,0,0-.84-5.29,11.05,11.05,0,0,0-2.44-4A10.68,10.68,0,0,0,98.92,6.91Zm-.72,17.5a5.17,5.17,0,0,1-4.32,1.95,5.11,5.11,0,0,1-4.29-1.94,9.11,9.11,0,0,1-1.51-5.67,11.36,11.36,0,0,1,.67-4.17,5.36,5.36,0,0,1,2-2.57,5.53,5.53,0,0,1,3.14-.88A5.63,5.63,0,0,1,97,12a5.35,5.35,0,0,1,2,2.56,11.3,11.3,0,0,1,.68,4.19A9.05,9.05,0,0,1,98.2,24.41Z"/><path class="cls-6" d="M129.69,6.91a13.7,13.7,0,0,0-5-.88,13.53,13.53,0,0,0-5,.88,10.55,10.55,0,0,0-3.81,2.54,11.07,11.07,0,0,0-2.42,4,15.73,15.73,0,0,0-.84,5.27,15.68,15.68,0,0,0,.84,5.25,11.15,11.15,0,0,0,2.42,4,10.44,10.44,0,0,0,3.84,2.55,13.59,13.59,0,0,0,5,.88,13.75,13.75,0,0,0,5-.88A10.51,10.51,0,0,0,133.52,28,11.2,11.2,0,0,0,136,24a15.51,15.51,0,0,0,.84-5.26,15.64,15.64,0,0,0-.84-5.29,11,11,0,0,0-2.44-4A10.68,10.68,0,0,0,129.69,6.91ZM129,24.41a5.17,5.17,0,0,1-4.32,1.95,5.11,5.11,0,0,1-4.29-1.94,9.12,9.12,0,0,1-1.51-5.67,11.36,11.36,0,0,1,.67-4.17,5.36,5.36,0,0,1,2-2.57,5.52,5.52,0,0,1,3.14-.88,5.63,5.63,0,0,1,3.17.87,5.35,5.35,0,0,1,2,2.56,11.3,11.3,0,0,1,.68,4.19A9.05,9.05,0,0,1,129,24.41Z"/><polygon class="cls-6" points="169.15 6.66 169.15 21.27 169.15 26.43 169.15 30.78 175.33 30.78 175.33 6.66 169.15 6.66"/><path class="cls-6" d="M163.15,22A6.14,6.14,0,0,0,161,18.75a7.42,7.42,0,0,0-1.95-1.09q-1.18-.47-4-1.4t-3.63-1.21a4.5,4.5,0,0,1-1.45-.83,1.74,1.74,0,0,1-.59-1.38,1.84,1.84,0,0,1,.92-1.55,4.25,4.25,0,0,1,2.45-.63q3.68,0,4.05,3.29h5.8a8.06,8.06,0,0,0-.65-3.27,6.91,6.91,0,0,0-1.88-2.53,8.58,8.58,0,0,0-3-1.61,13,13,0,0,0-4-.56,14.08,14.08,0,0,0-4,.52,8.9,8.9,0,0,0-3,1.52,6.66,6.66,0,0,0-1.93,2.41,7.14,7.14,0,0,0-.66,3.08,6.18,6.18,0,0,0,1.35,3.94,9.26,9.26,0,0,0,4,2.75q1.1.43,2.1.76t2.54.79l2.08.64a6.41,6.41,0,0,1,1,.43,1.74,1.74,0,0,1,.94,1.7,2,2,0,0,1-1,1.74,5.62,5.62,0,0,1-2.94.63,4.87,4.87,0,0,1-3.36-1,4.09,4.09,0,0,1-1.21-3.1H143q.26,4.37,2.73,6.51t7.17,2.15a15.9,15.9,0,0,0,5.69-.92,7.59,7.59,0,0,0,3.61-2.63,6.38,6.38,0,0,0,1-2.15,7.73,7.73,0,0,0,.24-1.91A7.11,7.11,0,0,0,163.15,22Z"/><polygon class="cls-6" points="188.4 20.69 199.5 20.69 199.5 15.86 188.4 15.86 188.4 11.62 200.55 11.62 200.55 6.66 182.22 6.66 182.22 30.78 200.59 30.78 200.59 25.85 188.4 25.85 188.4 20.69"/><path class="cls-6" d="M226.74,29.29a3.1,3.1,0,0,1-.25-1q-.06-.58-.1-2t-.06-1.65a9.74,9.74,0,0,0-.7-3.53,4.06,4.06,0,0,0-2.37-1.86,7.18,7.18,0,0,0,2.87-2.42,6.28,6.28,0,0,0,.93-3.49,7.68,7.68,0,0,0-.54-3,5,5,0,0,0-1.64-2.08A7.43,7.43,0,0,0,222.1,7a17.61,17.61,0,0,0-4-.39H206.59V30.78h6.14v-9h4.13a3.78,3.78,0,0,1,2.41.65,2.91,2.91,0,0,1,1,2.07q0,.46.11,2.07t.17,2.51a8.37,8.37,0,0,0,.38,1.72h6.47v-.83A1.39,1.39,0,0,1,226.74,29.29Zm-6.65-13a4.43,4.43,0,0,1-2.75.69h-4.6v-5.5h4.77q3.46,0,3.46,2.62A2.63,2.63,0,0,1,220.09,16.3Z"/><path class="cls-7" d="M74.45,52.27s0-.08,0-.13c0-.24-.8-.29-1.09-.31-.73,0-1.46-.12-2.18-.18a117.57,117.57,0,0,0-14.92-.27,1.47,1.47,0,0,0-.59.15,14.7,14.7,0,0,1-2.86,1.08,3,3,0,0,1-2.29-.08,1.44,1.44,0,0,0-.69-.13c-.09,0-.11.22,0,.34l.05.51h0a.55.55,0,0,0,0,.62h0a26.86,26.86,0,0,0,0,3.32c0,.17,0,.34,0,.51a1.23,1.23,0,0,0-.07.41l.14,16.75a1.25,1.25,0,0,0,.29.78.51.51,0,0,1-.41.59c-.83.14-.74.68-1,1.07,0,.07.05.22-.06.23-.9.11-.59,1-1.43,1.13,0,.37-.47.5-.82.45s-.27,0-.43.13c-.33.31-.27.51.14.72.22.11.1.25-.08.29s-.32.23-.46.38c-.4.44-.17.93-.43,1.36s.2.93.81,1c.21,0,.28-.14.41-.2s.08-.24,0-.34-.29-.3,0-.46.43.07.57.19a.78.78,0,0,0,.76.19,4,4,0,0,1,.69,0c.23,0,.33,0,.21.23s-.09.29.15.34a.6.6,0,0,0,.53-.09.24.24,0,0,0,.06-.38c-.24-.3-.23-.3.07-.62a1,1,0,0,0,.49.5c.34.18.53-.06.78-.12a1,1,0,0,1,.61.08,10.8,10.8,0,0,0,2.05.91c.08,0,.14.12.2.2s.13.28.39.25a.51.51,0,0,0,.43-.31.88.88,0,0,0,.11-.28c0-.36.35-.52.8-.54a1.37,1.37,0,0,0,.8-.28c.41-.3.57-.26.85.12a4,4,0,0,0,.26.33.42.42,0,0,0,.57.11c.27-.13.46-.11.36.19,0,.11-.14.28.13.3s.43-.1.44-.27.06-.39.5-.33c.24,0,.35-.09.24-.3s-.29-.68.5-.8c.55-.08.13-.32-.09-.53a7.69,7.69,0,0,0,1.1-.09c.26,0,.16-.44.54-.22s.06.34.1.52.64.61,1.19.59c.34,0,.66,0,.84.24,0,.06.22.11.23.08.15-.4.85-.21,1-.51a1.31,1.31,0,0,0,.19-.9.61.61,0,0,1,.32-.65.62.62,0,0,0,.3-.4c0-.18.23-.26.47-.25.76,0,1.19-.16,1.3-.67a1,1,0,0,1,1-.9c.54-.06.25-.55.58-.71s.41-.43.2-.75a1,1,0,0,1-.14-.4c1.14-.29,4.54-2.09,4.53-2.75l.42-12.89h0c0-.08,0-.16,0-.23l.07-2.18a1.24,1.24,0,0,0,0-.19A42.77,42.77,0,0,0,74.45,52.27Z"/></g></g></svg>