<svg xmlns="http://www.w3.org/2000/svg" xmlns:xlink="http://www.w3.org/1999/xlink" viewBox="0 0 308.78 183.97"><defs><style>.cls-1,.cls-10,.cls-11,.cls-2,.cls-3,.cls-4,.cls-5,.cls-6,.cls-7,.cls-8,.cls-9{fill-rule:evenodd;}.cls-1{fill:url(#New_Gradient_Swatch_copy_12);}.cls-2{fill:url(#New_Gradient_Swatch_copy_12-2);}.cls-3{fill:url(#New_Gradient_Swatch_copy_12-3);}.cls-4{fill:url(#New_Gradient_Swatch_copy_12-4);}.cls-5{fill:url(#New_Gradient_Swatch_copy_12-5);}.cls-6{fill:url(#New_Gradient_Swatch_copy_12-6);}.cls-7{fill:url(#New_Gradient_Swatch_copy_12-7);}.cls-8{fill:url(#New_Gradient_Swatch_copy_12-8);}.cls-9{fill:url(#New_Gradient_Swatch_copy_12-9);}.cls-10{fill:url(#New_Gradient_Swatch_copy_12-10);}.cls-11{fill:url(#New_Gradient_Swatch_copy_12-11);}.cls-12{fill:#fff;}.cls-13{fill:url(#New_Gradient_Swatch_copy_12-12);}.cls-14{fill:url(#New_Gradient_Swatch_copy_12-13);}.cls-15{fill:url(#New_Gradient_Swatch_copy_12-14);}.cls-16{fill:url(#New_Gradient_Swatch_copy_12-15);}</style><linearGradient id="New_Gradient_Swatch_copy_12" x1="145.05" y1="33.84" x2="145.05" y2="33.85" gradientUnits="userSpaceOnUse"><stop offset="0.19" stop-color="#f33623"/><stop offset="0.38" stop-color="#f23323"/><stop offset="0.53" stop-color="#f02824"/><stop offset="0.64" stop-color="#ed1c24"/><stop offset="0.72" stop-color="#e91b23"/><stop offset="0.78" stop-color="#de1a21"/><stop offset="0.85" stop-color="#cb171e"/><stop offset="0.91" stop-color="#b01319"/><stop offset="0.98" stop-color="#8e0e13"/><stop offset="1" stop-color="#800c11"/></linearGradient><linearGradient id="New_Gradient_Swatch_copy_12-2" x1="161" y1="77.29" x2="160.99" y2="77.29" xlink:href="#New_Gradient_Swatch_copy_12"/><linearGradient id="New_Gradient_Swatch_copy_12-3" x1="161.33" y1="50.29" x2="161.33" y2="50.29" xlink:href="#New_Gradient_Swatch_copy_12"/><linearGradient id="New_Gradient_Swatch_copy_12-4" x1="144.3" y1="26.04" x2="144.29" y2="26.04" xlink:href="#New_Gradient_Swatch_copy_12"/><linearGradient id="New_Gradient_Swatch_copy_12-5" x1="146.23" y1="42.43" x2="146.23" y2="42.43" xlink:href="#New_Gradient_Swatch_copy_12"/><linearGradient id="New_Gradient_Swatch_copy_12-6" x1="141.06" y1="4.71" x2="141.05" y2="4.72" xlink:href="#New_Gradient_Swatch_copy_12"/><linearGradient id="New_Gradient_Swatch_copy_12-7" x1="153.82" y1="0.49" x2="153.82" y2="0.49" xlink:href="#New_Gradient_Swatch_copy_12"/><linearGradient id="New_Gradient_Swatch_copy_12-8" x1="174.28" y1="15.72" x2="77.98" y2="112.01" xlink:href="#New_Gradient_Swatch_copy_12"/><linearGradient id="New_Gradient_Swatch_copy_12-9" x1="161.71" y1="38.73" x2="161.71" y2="38.74" xlink:href="#New_Gradient_Swatch_copy_12"/><linearGradient id="New_Gradient_Swatch_copy_12-10" x1="164.2" y1="38.07" x2="164.2" y2="38.07" xlink:href="#New_Gradient_Swatch_copy_12"/><linearGradient id="New_Gradient_Swatch_copy_12-11" x1="80.7" y1="56.3" x2="161" y2="56.3" xlink:href="#New_Gradient_Swatch_copy_12"/><linearGradient id="New_Gradient_Swatch_copy_12-12" x1="222.41" y1="83.46" x2="103.31" y2="202" xlink:href="#New_Gradient_Swatch_copy_12"/><linearGradient id="New_Gradient_Swatch_copy_12-13" x1="234.34" y1="95.44" x2="115.23" y2="213.98" xlink:href="#New_Gradient_Swatch_copy_12"/><linearGradient id="New_Gradient_Swatch_copy_12-14" x1="286.35" y1="147.7" x2="167.24" y2="266.24" xlink:href="#New_Gradient_Swatch_copy_12"/><linearGradient id="New_Gradient_Swatch_copy_12-15" x1="129.31" y1="-10.08" x2="10.21" y2="108.46" xlink:href="#New_Gradient_Swatch_copy_12"/></defs><title>Asset 19</title><g id="Layer_2" data-name="Layer 2"><g id="Layer_1-2" data-name="Layer 1"><path d="M108.26,119c-21.92,0-33.92-10.22-33.92-35.69,0-22.22,12.19-36.08,34.61-36.08,21.43,0,33.92,10.91,33.92,35.2C142.87,105.65,131.07,119,108.26,119Zm0-57.71c-12.29,0-15.73,9.73-15.73,21,0,14.45,3.93,22.61,16.32,22.61,12.19,0,15.83-9.44,15.83-21.53C124.68,69.86,120.85,61.31,108.26,61.31Z"/><polygon class="cls-1" points="145.05 33.84 145.05 33.85 145.05 33.85 145.05 33.84"/><polygon class="cls-2" points="161 77.29 161 77.29 161 77.29 161 77.29"/><polygon class="cls-3" points="161.33 50.28 161.33 50.29 161.33 50.29 161.33 50.28"/><polygon class="cls-4" points="144.3 26.04 144.29 26.04 144.3 26.04 144.3 26.04"/><polygon class="cls-5" points="146.23 42.42 146.23 42.43 146.23 42.43 146.23 42.42"/><polygon class="cls-6" points="141.04 4.72 141.05 4.71 141.06 4.71 141.04 4.72"/><polygon class="cls-7" points="153.82 0.49 153.82 0.49 153.82 0.49 153.82 0.49"/><path class="cls-8" d="M167.31,38.07l-.43-.09-.16,0a1.6,1.6,0,0,1-.87,0h0l-.26-.05-.14,0a.34.34,0,0,1-.46,0l-.23,0a.49.49,0,0,1-.52.06.66.66,0,0,1-.56.13.07.07,0,0,1-.09,0,.74.74,0,0,1-.53.13l-.38.07a1.59,1.59,0,0,1-.94.32.62.62,0,0,1-.63.22c-.42.06-.71.41-1.1.53a.29.29,0,0,1-.37.17.17.17,0,0,1-.1.08,1,1,0,0,1-.68.36.1.1,0,0,1-.09.07,1.38,1.38,0,0,1-.76.44l-.1.11a.55.55,0,0,1-.46.27l-.38.3a1.49,1.49,0,0,1-.83.61c-.23.41-.78.53-.93,1a.44.44,0,0,1-.38.42,26.7,26.7,0,0,0-1.63,2.82.6.6,0,0,1,0,.1h-.05a.76.76,0,0,0-.18.6,12.31,12.31,0,0,1,.09,3.93A34.46,34.46,0,0,1,152,57.9,21.49,21.49,0,0,1,149.68,64a43.46,43.46,0,0,0-4-6.61l0-.05.06-.15A2.79,2.79,0,0,1,146,56v0a2.73,2.73,0,0,1,.2-1.25.14.14,0,0,1,0-.13,1.47,1.47,0,0,1,.1-1c0-.15-.11-.32,0-.45a1.12,1.12,0,0,1,.12-.85l0-.27a.57.57,0,0,1,0-.45l.07-.58a.64.64,0,0,1,0-.59h0s0-.09,0-.11l0-.22a.54.54,0,0,1,0-.54v0a1.69,1.69,0,0,1,0-.84l0-.15a5.78,5.78,0,0,1-.07-1.63.11.11,0,0,1,0-.13,4.42,4.42,0,0,1-.1-1.65h0a4.1,4.1,0,0,1-.15-1.51.57.57,0,0,1,0-.49c-.2-.18-.08-.4-.07-.61a.3.3,0,0,1-.07-.4.17.17,0,0,1,0-.13.63.63,0,0,1-.11-.63l0-.43a1.79,1.79,0,0,1-.17-1.08.12.12,0,0,1,0-.12l-.07-.23h0a27.11,27.11,0,0,1-.47-3.3l-.05-.32a2.85,2.85,0,0,1-.14-1.2l-.05-.24a.47.47,0,0,1-.06-.52c-.16-.16-.12-.37-.11-.56s0-.28,0-.42a2.48,2.48,0,0,1-.17-1.14.18.18,0,0,1,0-.13.82.82,0,0,1-.1-.77l0-.28a.41.41,0,0,1-.07-.48l0-.19a9.58,9.58,0,0,1-.17-2.05.17.17,0,0,1,0-.13c-.16-.18-.1-.4-.1-.61l0-.15c-.06-.29-.19-.58,0-.88a1.7,1.7,0,0,1,0-1.07.07.07,0,0,1,0-.1.49.49,0,0,1,0-.45l0-.14a1.13,1.13,0,0,1,0-.89.08.08,0,0,1,0-.1,1.08,1.08,0,0,1,0-.77l.07-.57a.54.54,0,0,1,0-.59,4.76,4.76,0,0,1,.13-1.48,1.24,1.24,0,0,1,.15-.82.17.17,0,0,1,0-.13,7.86,7.86,0,0,1,.54-2.69l.07-.15a4.25,4.25,0,0,1,.52-1.79L146,14a1.46,1.46,0,0,1,.37-1l.14-.3a5.34,5.34,0,0,1,.94-2.06l.76-1.31.51-.94c.24-.19.28-.58.64-.66a.62.62,0,0,1,.28-.39.62.62,0,0,1,.48-.52l.31-.43c.13-.23.22-.5.54-.55l.21-.24a.29.29,0,0,1,.32-.27l.32-.41a.36.36,0,0,1,.38-.28c.1-.29.42-.35.6-.55a1.29,1.29,0,0,1,.84-.63.07.07,0,0,1,.07-.07.76.76,0,0,1,.58-.46,14.62,14.62,0,0,1,2.65-1.72,11.57,11.57,0,0,1,1.54-.78c.11,0,.24-.12.21-.27a.24.24,0,0,0-.3-.16c-.41.14-.86-.06-1.25.18s-.5.34-.81.1h0a6.18,6.18,0,0,0-2,.14.46.46,0,0,1-.52.07.33.33,0,0,1-.41.07l-.24.05H153l-.39.09v0h0l-.46,0a.38.38,0,0,1-.47.09l-.17,0a.33.33,0,0,1-.45.09l-.2,0a.3.3,0,0,1-.43.1l-.2.05a.28.28,0,0,1-.41.1l-.22.06a.27.27,0,0,1-.4.11l-.84.23a.29.29,0,0,1-.41.13l-.2.06a.31.31,0,0,1-.43.14l-.18.06c-.1.13-.21.23-.39.14l-1.06.41c0,.06-.09.12-.18.05h0a.33.33,0,0,1-.4.15.19.19,0,0,1-.11.09.46.46,0,0,1-.53.15v0h0c-.1.22-.29.22-.49.22-.29.27-.75.18-1,.48a.32.32,0,0,1-.39.15l-.17.07-.1.08-.17.11c-.16.1-.3.27-.53.22a.18.18,0,0,1-.1.09.3.3,0,0,1-.37.17.37.37,0,0,1-.3.17.12.12,0,0,1-.1.09.49.49,0,0,1-.4.22c-.26.08-.38.4-.69.38a.27.27,0,0,1-.36.2.11.11,0,0,1-.08.08,1.39,1.39,0,0,1-.84.55h0a1.39,1.39,0,0,1-.84.56l-.1.13a.23.23,0,0,1-.3.17l-.63.53a.55.55,0,0,1-.48.33l-.19.17-.16.1a.18.18,0,0,1-.09.1,1.36,1.36,0,0,1-.91.7,10.78,10.78,0,0,0-1.41,1.46,3.22,3.22,0,0,1-1.06,1l-.24.34c-.16.27-.28.57-.62.67A.64.64,0,0,1,131,13a.67.67,0,0,1-.47.52l-.54.83a6.65,6.65,0,0,1-1.23,1.71l-1.38,2.42a6.3,6.3,0,0,1-.81,1.79l-.51,1a.66.66,0,0,1-.22.67.63.63,0,0,1-.18.44c.12.3-.09.5-.2.74l-.23.5a.43.43,0,0,1-.13.53l-.11.31c.13.24,0,.42-.12.61l-.07.16a3.3,3.3,0,0,1-.29,1.39l-.09.22a1.37,1.37,0,0,1-.12,1.07h0a1.66,1.66,0,0,1-.07,1l-.08.57a.37.37,0,0,1,0,.45l-.08.57a.37.37,0,0,1,0,.45,4.77,4.77,0,0,0-.11,1.57.35.35,0,0,1,0,.47.13.13,0,0,1,0,.12,1,1,0,0,1,0,.91,4,4,0,0,1,0,1.3.49.49,0,0,1,0,.45l0,.15a1.4,1.4,0,0,1,0,.87.13.13,0,0,1,0,.14,1.25,1.25,0,0,1,0,.88l-.19,1.7a.41.41,0,0,1,0,.47l-.07.15a1.82,1.82,0,0,1-.15,1.13l-.08.22a43.42,43.42,0,0,0-20.48-1.16l0-.16a.79.79,0,0,1,.06-.73l.08-.23a1.57,1.57,0,0,1,.21-1.19v0c.05-.25,0-.54.21-.74l.11-.31a1.51,1.51,0,0,1,.35-1,10,10,0,0,1,.87-1.65l-.09-.19c.32-.29.34-.81.8-1l.7-1.11a4.26,4.26,0,0,1,1.36-1.52l.25-.35c.09-.14.13-.33.36-.3l.22-.23c.06-.25.28-.31.46-.42l.1-.14a1.4,1.4,0,0,1,.83-.63l.17-.2a.54.54,0,0,1,.48-.33l.45-.36a.35.35,0,0,1,.4-.23l.44-.33c.06-.11.1-.24.28-.19.17-.2.53-.41,0-.55l-.2,0h0l-.24.14-.28-.1a1.86,1.86,0,0,1-.86.08c-.26.06-.51.24-.79,0l-.22,0a.25.25,0,0,1-.39.1l-.3.07a.5.5,0,0,1-.46,0c-.09.06-.18.11-.29,0l-.27.08-1.23.25a.68.68,0,0,1-.72,0l-.23.11a1,1,0,0,1-.85.27.09.09,0,0,1-.09.06.11.11,0,0,1-.19.05l-.3.05a.44.44,0,0,1-.47.14,1.11,1.11,0,0,1-.67.21l-.23.09a.31.31,0,0,1-.32.09.3.3,0,0,1-.37.15h0a.4.4,0,0,1-.4.16h0l-.23.05a.15.15,0,0,1-.1.08.3.3,0,0,1-.38.13l-.2.07a.37.37,0,0,1-.44.19c-.19.09-.35.28-.6.24a.3.3,0,0,1-.38.17.19.19,0,0,1-.11.09.27.27,0,0,1-.37.11c-.41,0-.6.46-1,.5a.47.47,0,0,1-.49.25l-.21.1v.06h-.07a1,1,0,0,1-.69.34.14.14,0,0,1-.09.09c-.08.18-.23.2-.4.19a.06.06,0,0,1-.08.06l-.2.1a.1.1,0,0,1-.09.08.42.42,0,0,1-.4.23.07.07,0,0,1-.1,0l-.18.11-.18.2a.52.52,0,0,1-.39.22l-.36.23a.59.59,0,0,1-.47.3h0a.2.2,0,0,1-.24.1s0,.06-.06.06l-.1.12-.11.11-.38.23-.45.34a.43.43,0,0,1-.39.24l0,0a.36.36,0,0,1-.31.22.09.09,0,0,1-.08.08,1.37,1.37,0,0,1-.85.62l-.16.2a1.8,1.8,0,0,1-.85.65l-.16.17a2.58,2.58,0,0,1-1,.84l-.09.12a2.27,2.27,0,0,1-1,.89l-.25.33c-.1.2-.21.39-.46.41l-.21.25a.41.41,0,0,1-.39.35l-.24.34c-.13.23-.23.49-.54.55l-.3.37a.59.59,0,0,1-.46.48l-.4.6c-.18.31-.32.66-.69.81a.5.5,0,0,1-.31.37,1.81,1.81,0,0,1-.74,1L81,45.4l-1.07,1.85-1.09,2a1.1,1.1,0,0,1-.35.89.52.52,0,0,1-.19.45,2,2,0,0,1-.41,1.13l-.4.78c0,.18.14.39-.13.49a.32.32,0,0,1-.08.32c.1.29-.07.51-.2.74l-.26.52c0,.12.15.26-.05.35a.3.3,0,0,1-.07.33c.13.24,0,.42-.13.61l-.13.34a1.27,1.27,0,0,1,0,.13,43.48,43.48,0,1,0,74.47,43.27,3.37,3.37,0,0,1,.87-.8l.25-.37c.16-.26.26-.58.61-.67.15-.28.26-.59.63-.64-.13-.28.06-.39.27-.49l.47-.74a14.65,14.65,0,0,1,1.62-2.36,12,12,0,0,1,1.1-1.9,13.05,13.05,0,0,1,1.17-2.45,22.84,22.84,0,0,1,.93-2.12,1.22,1.22,0,0,1,.27-.87l.19-.4a4.3,4.3,0,0,1,.47-1.67l.11-.26a3,3,0,0,1,.26-1.28l.16-.38a1.73,1.73,0,0,1,.14-1l.32-1.55a7.82,7.82,0,0,1,.28-2.3,1.14,1.14,0,0,1,0-.88.21.21,0,0,1,0-.14,1.25,1.25,0,0,1,0-.88.2.2,0,0,1,0-.14,1.08,1.08,0,0,1,0-.89v0a1.38,1.38,0,0,1,0-1l0-.29a.53.53,0,0,1,0-.44l0-.15-.05-.39c.07-.3-.15-.61,0-.9a2.93,2.93,0,0,1-.08-1.22.13.13,0,0,1,0-.14,1,1,0,0,1,0-.75.18.18,0,0,1,0-.13,3.72,3.72,0,0,1-.12-1.51c-.15-.34,0-.68,0-1a.82.82,0,0,1-.06-.77h0a1.71,1.71,0,0,1-.09-.93s0-.1,0-.15a18.32,18.32,0,0,1-.11-3.07.15.15,0,0,1,0-.12,1.15,1.15,0,0,1-.05-.91l0-.18a.54.54,0,0,1,0-.57.45.45,0,0,1,0-.41,2.81,2.81,0,0,1,0-1.5l0-.28a.46.46,0,0,1,0-.45l0-.14a1.21,1.21,0,0,1,0-.88.1.1,0,0,1,0-.12,1.16,1.16,0,0,1,0-.9.1.1,0,0,1,0-.11,1.19,1.19,0,0,1,0-.9.13.13,0,0,1,0-.13,1.38,1.38,0,0,1,0-.88l.09-.26a1.36,1.36,0,0,1,.1-1,.16.16,0,0,1,0-.13,1.77,1.77,0,0,1,.21-1.28,1.62,1.62,0,0,1,.18-1.14,1.77,1.77,0,0,1,.25-.94,4.11,4.11,0,0,1,.48-1.63l.12-.31c-.09-.28.11-.5.16-.75-1.17.07-2,.86-2.91,1.44-.15.1-.25.23-.44.14A17.26,17.26,0,0,1,161,43.27,11.6,11.6,0,0,1,165,39.56c.66-.4,1.36-.71,2-1.08C167.14,38.39,167.42,38.37,167.31,38.07Z"/><polygon class="cls-9" points="161.71 38.74 161.71 38.74 161.71 38.73 161.71 38.74"/><polygon class="cls-10" points="164.2 38.07 164.2 38.07 164.2 38.07 164.2 38.07"/><path class="cls-11" d="M146.67,5.64,145.91,7A5.34,5.34,0,0,0,145,9l-.14.3a1.46,1.46,0,0,0-.37,1l-.14.27a4.25,4.25,0,0,0-.52,1.79l-.07.15a7.86,7.86,0,0,0-.54,2.69.17.17,0,0,0,0,.13,1.24,1.24,0,0,0-.15.82,4.76,4.76,0,0,0-.13,1.48.54.54,0,0,0,0,.59l-.07.57a1.08,1.08,0,0,0,0,.77.08.08,0,0,0,0,.1,1.13,1.13,0,0,0,0,.89l0,.14a.49.49,0,0,0,0,.45.07.07,0,0,0,0,.1,1.69,1.69,0,0,0,0,1.07h0c-.17.3,0,.59,0,.89l0,.15c0,.21-.07.43.1.61a.17.17,0,0,0,0,.13,9.58,9.58,0,0,0,.17,2.05l0,.19a.41.41,0,0,0,.07.48l0,.28a.82.82,0,0,0,.1.77.18.18,0,0,0,0,.13,2.48,2.48,0,0,0,.17,1.14c0,.14,0,.28,0,.42s0,.4.12.56h0a.47.47,0,0,0,.06.52l.05.24a2.85,2.85,0,0,0,.14,1.2l.05.32a27.13,27.13,0,0,0,.47,3.3h0l.07.23a.12.12,0,0,0,0,.12,1.79,1.79,0,0,0,.17,1.08l0,.43a.63.63,0,0,0,.11.63.17.17,0,0,0,0,.13.3.3,0,0,0,.07.4h0c0,.21-.12.43.07.61a.58.58,0,0,0,0,.49,4.1,4.1,0,0,0,.15,1.51h0A4.42,4.42,0,0,0,145,43a.11.11,0,0,0,0,.13,5.78,5.78,0,0,0,.07,1.63l0,.15a1.69,1.69,0,0,0,0,.84v0a.54.54,0,0,0,0,.54l0,.22s-.06.06,0,.11h0a.64.64,0,0,0,0,.59l-.07.58a.57.57,0,0,0,0,.45l0,.27a1.12,1.12,0,0,0-.12.85c-.15.14-.05.3,0,.45a1.47,1.47,0,0,0-.1,1,.14.14,0,0,0,0,.13,2.73,2.73,0,0,0-.2,1.25v0a2.79,2.79,0,0,0-.23,1.27l-.06.15a2,2,0,0,0-.22,1.18l-.15.36a1.13,1.13,0,0,0-.2.85l-.17.35-.05,0,0,0-.12.54a1.11,1.11,0,0,0-.25.87l-.13.31a.64.64,0,0,0-.2.65l-.32.64a3.47,3.47,0,0,0-.57,1.4,1,1,0,0,0-.27.57l-2.44,4.22a1,1,0,0,0-.35.53,3.69,3.69,0,0,0-1,1.31l-.1.15-.06,0v.07c-1,.84-1.7,1.9-2.61,2.81a46.92,46.92,0,0,1-4.79,4.1,6.68,6.68,0,0,0-1.46,1.14h-.06s0,0,0,0l.08-.05a5.89,5.89,0,0,0,2.63.25,18.43,18.43,0,0,0,5.35-.94c.2.13.3,0,.33-.17h0c.09.08.14.07.15-.06a.08.08,0,0,1,.08-.06c.12.36.53.22.74.42a5.85,5.85,0,0,1-.67,1,46.55,46.55,0,0,1-4.89,4.2l-2,1.46a18.57,18.57,0,0,0,4.45.05,16,16,0,0,0,9.24-4.48,29.07,29.07,0,0,0,2.28-2.6,8.34,8.34,0,0,0,2.13-3.92c.66-.68,1.2-1.46,1.84-2.15a18.94,18.94,0,0,0,3-4.86,21.15,21.15,0,0,0,1.18-3.77,17.35,17.35,0,0,0,.61-3c.08-1,.25-2,.34-3a35.58,35.58,0,0,1,.58-3.71c.19-.95.23-1.91.45-2.85a7.63,7.63,0,0,0,.42-1.66c0-.92.56-1.63.68-2.47.2.1.29,0,.44-.14.92-.58,1.74-1.37,2.91-1.44-.06.25-.26.47-.16.75l-.12.31a4.1,4.1,0,0,0-.48,1.63,1.77,1.77,0,0,0-.25.94,1.62,1.62,0,0,0-.18,1.15h0a1.77,1.77,0,0,0-.21,1.29.16.16,0,0,0,0,.13,1.36,1.36,0,0,0-.1,1l-.09.26a1.37,1.37,0,0,0,0,.88.13.13,0,0,0,0,.13,1.19,1.19,0,0,0,0,.9.1.1,0,0,0,0,.12,1.16,1.16,0,0,0,0,.9.1.1,0,0,0,0,.12,1.21,1.21,0,0,0,0,.88l0,.14a.46.46,0,0,0,0,.45l0,.28a2.81,2.81,0,0,0,0,1.5.45.45,0,0,0,0,.41.54.54,0,0,0,0,.57l0,.18a1.15,1.15,0,0,0,.05.91.15.15,0,0,0,0,.12,18.33,18.33,0,0,0,.11,3.07s0,.1,0,.15a1.71,1.71,0,0,0,.09.93h0a.82.82,0,0,0,.06.77c0,.34-.14.68,0,1a3.72,3.72,0,0,0,.12,1.51.18.18,0,0,0,0,.13,1,1,0,0,0,0,.75.13.13,0,0,0,0,.14,2.92,2.92,0,0,0,.08,1.22c-.2.29,0,.61,0,.9l.05.39,0,.15a.53.53,0,0,0,0,.44l0,.29a1.38,1.38,0,0,0,0,1v0a1.08,1.08,0,0,0,0,.89.2.2,0,0,0,0,.14,1.25,1.25,0,0,0,0,.88.21.21,0,0,0,0,.14,1.14,1.14,0,0,0,0,.88h0a7.83,7.83,0,0,0-.28,2.31l-.32,1.55a1.73,1.73,0,0,0-.14,1l-.16.38a3,3,0,0,0-.26,1.28l-.11.26a4.29,4.29,0,0,0-.47,1.67l-.19.4a1.22,1.22,0,0,0-.27.87,22.82,22.82,0,0,0-.93,2.12,13.05,13.05,0,0,0-1.17,2.45,12,12,0,0,0-1.1,1.9,14.65,14.65,0,0,0-1.62,2.36l-.47.74c-.21.09-.4.2-.27.49-.37.05-.48.37-.63.64-.35.09-.45.41-.62.67l-.25.37A4.33,4.33,0,0,0,149,96.32a9.8,9.8,0,0,0-1.42,1.51,2,2,0,0,0-1,.8l-.17.21a1.81,1.81,0,0,0-.91.74.15.15,0,0,0-.09.11,1.6,1.6,0,0,0-.83.59l-.17.2a7,7,0,0,0-1.69,1.18.18.18,0,0,0-.09.1,5.53,5.53,0,0,0-1.61,1,.13.13,0,0,0-.09.08,4.34,4.34,0,0,0-1.45.78.11.11,0,0,0-.1.08,1,1,0,0,0-.68.34.16.16,0,0,0-.1.09,4,4,0,0,0-1.38.64.15.15,0,0,0-.1.08.65.65,0,0,0-.6.22l-.44.23a2,2,0,0,0-1,.37l-.3.1a.49.49,0,0,0-.41.19l-.71.26a14.81,14.81,0,0,0-2.57.82h0c-.22,0-.47-.07-.63.17l-.2.05a.3.3,0,0,0-.43.1h0l-.22.06h0a.27.27,0,0,0-.41.09l-.21,0a1.87,1.87,0,0,0-1.1.24l-.21-.07c0-.07,0-.13,0-.2-.31.15-.7.09-1,.35a.11.11,0,0,1-.1,0,1.14,1.14,0,0,0-.69-.2c-.71,0-1.43,0-2.34.12,1.16-.86,1.11-1.18,0-1.82,0-.41.83,0,.54-.56s-.68-.13-1,0l-.06,0c-.39.2-1-.11-1.24.39s.09.95,0,1.4c-.13.75-.76-.25-1,.24,0,.08-.28,0-.28-.14s.24-.21.39-.27a.57.57,0,0,0,.14-1.06.79.79,0,0,0-.85-.12c-.42.19-.46.56-.43,1,0,.18.07.37-.12.48s-.29,0-.41-.11-.18-.34-.14-.54c0,0,.05-.08.08-.12.33-.48-.25-.62-.4-.88s-.28.16-.38.31-.39.4-.68.14c-.13-.12-.08-.49-.38-.33s-.05.37-.09.56a2,2,0,0,1-.14.35h0c-.25-.11-.53-.44-.65.14,0,.23-.25.21-.43.11s-.37-.26-.54-.25a14.91,14.91,0,0,1-3.8-.76,23,23,0,0,1-5.26-1.73c.18-.26.47-.21.69-.2a18.74,18.74,0,0,0,3.67-.31,42.71,42.71,0,0,0,7.71-1.85,44.57,44.57,0,0,0,8.48-4.05,43.12,43.12,0,0,0,5.46-4.12,8.7,8.7,0,0,0,1.37-1.4A35,35,0,0,0,130,93.82a72.14,72.14,0,0,1-8.68,2.75,50.07,50.07,0,0,1-9.62,1.28,4.67,4.67,0,0,1-2.44-.17l.29-.17.36,0a.3.3,0,0,0,.31-.09,19.29,19.29,0,0,0,3.33-.66.6.6,0,0,1,.44,0c.14.06.28.18.41.16,1.44-.2,2.89-.34,4.3-.66A38.14,38.14,0,0,0,124,94.7a31.65,31.65,0,0,0,3.82-1.62,40.43,40.43,0,0,0,7.16-4.51c1-.89,2.13-1.75,3.18-2.64a.61.61,0,0,0,.25-.57c-1.87.78-3.67,1.59-5.52,2.27a9.5,9.5,0,0,1-3.31.93A28.18,28.18,0,0,0,132,86.11c-5.21,2.33-10.38,4.34-16,5a1.38,1.38,0,0,0-.63-.22c-.88,0-1.76,0-2.63-.09a43.58,43.58,0,0,1-5.34-.73,36.39,36.39,0,0,1-6-1.78,55.27,55.27,0,0,1-5.26-2.84A26.39,26.39,0,0,1,91.45,82a28.57,28.57,0,0,1-2.94-3c-.85-1-1.6-2-2.4-3a23.39,23.39,0,0,1-2.91-5.09,25.68,25.68,0,0,1-2-6.54,31.63,31.63,0,0,1-.49-6,28.46,28.46,0,0,1,1-7c.36-1.19.68-2.4,1.05-3.59a30.71,30.71,0,0,1,2.34-5.14c1.06-.8,1.8-1.9,2.77-2.8s1.7-1.62,2.61-2.33a50.3,50.3,0,0,1,5.23-3.61,39.56,39.56,0,0,1,7.35-3.35l.09.19a10,10,0,0,0-.87,1.65,1.51,1.51,0,0,0-.35,1l-.11.31c-.23.2-.16.49-.21.74v0a1.57,1.57,0,0,0-.21,1.19l-.08.23a.79.79,0,0,0-.06.73l-.06.42a1,1,0,0,0,0,.75.12.12,0,0,0,0,.13.89.89,0,0,0,.08.72v0a.3.3,0,0,0,.06.43l0,.18a.38.38,0,0,0,.08.48c-.1.26,0,.47.14.69l.08.21h0a.12.12,0,0,0,.06.2l.14.32a10.37,10.37,0,0,0,1.3,2.64,3,3,0,0,0,.07,1.42,10.31,10.31,0,0,0,5.06,7.36,9.9,9.9,0,0,0,4.41,1.36,8.69,8.69,0,0,0,5.14-1.17,10.53,10.53,0,0,0,3.32-3,12.76,12.76,0,0,0,2.11-4.37,10.75,10.75,0,0,0,3.21-3.42,20.76,20.76,0,0,0,1.2-2.59,13.84,13.84,0,0,0,.74-2.51,50.07,50.07,0,0,0,.54-7.56,30.64,30.64,0,0,1,.25-4.7,28.82,28.82,0,0,1,1.12-5.63c.65-1.74,1.41-3.43,2.07-5.17a.41.41,0,0,0,.55-.08,20.68,20.68,0,0,1,2.3-2.24,34.74,34.74,0,0,1,4.5-3.38,33.08,33.08,0,0,1,3.49-1.88,17.91,17.91,0,0,1,3.87-1.47Z"/><path class="cls-12" d="M47,117.45V89.53H24.3v27.92H7V48.82H24.3v26H47v-26h17.3v68.62Z"/><path class="cls-12" d="M183.08,62.69v54.76h-17.4V62.69h-17.6V48.82h52.5V62.69Z"/><path class="cls-13" d="M150.74,142.88c-5.84,0-8.2,4.71-8.2,11.44,0,8.6,2.6,12.09,8.6,12.09,5.68,0,8-4.71,8-11.36C159.18,146.7,156.59,142.88,150.74,142.88Zm.7,16.52-.29,0a5,5,0,0,1-1-.08c-.2-.43-.65-1.78-.65-5,0-2.7.51-4,.76-4.41a2.37,2.37,0,0,1,.44,0,4,4,0,0,1,.72.05c.2.39.72,1.74.72,5.12A9.23,9.23,0,0,1,151.44,159.4Z"/><path class="cls-14" d="M279.79,125.25c-12.29,0-21.46,5.18-26.19,14.17V126.55h-8.28V114.45H222.56l-1.39,5.19-1.85,6.91H206.5V114.45H190.08V69.69h17.5V41.82h-66.5V69.69h17.6v54.76h22.38l-.56,2.1h-7.15v7.16c-5-5.47-12.5-8.46-22-8.46-18.39,0-29.81,11.58-29.81,30.21,0,.63,0,1.24,0,1.85h-9.3V112H84v70.65h45.82V177c4.94,4.53,11.95,7,20.64,7,14.54,0,25-7.49,28.53-19.75v.08c0,12.26,7.14,19.58,19.09,19.58,3.5,0,8.77-.43,12.11-1.63l4.63-1.67V159.1H206.5v-8.32h11.26v13.54c0,12.26,7.14,19.58,19.09,19.58,3.5,0,8.77-.43,12.11-1.63l4.63-1.67V171c4.58,8.29,13.35,12.93,25.3,12.93,18.16,0,29.89-11.67,29.89-29.73S297.94,125.25,279.79,125.25ZM148.08,62.69V48.82h52.5V62.69h-17.5v54.25l-.14.51H165.68V62.69ZM91,175.67V119h14.29v45.29h17.28q.12.49.26,1v10.4Zm59.46,1.3c-11.37,0-18-4.74-20.64-12.69v-7h-1.21c0-.61-.06-1.22-.06-1.85,0-14.37,7.87-23.21,22.81-23.21,14.77,0,22,8.36,22,22C173.31,168,165.27,177,150.42,177Zm57.36-33.2H199.5v15.5c0,5.36,1.06,6.82,5.11,6.82h3.17v9.58a34.81,34.81,0,0,1-9.74,1.22c-7.22,0-12.09-3.25-12.09-12.58V143.78h-5.6V133.55h5.52l2.44-9.1h1.77v-3h9.42v12.09h8.28Zm38.81,31.9a34.8,34.8,0,0,1-9.74,1.22c-7.22,0-12.09-3.25-12.09-12.58V143.78h-5.6V133.55h5.52l3.25-12.09h10.39v12.09h8.28v10.23h-8.28v15.5c0,5.36,1.06,6.82,5.11,6.82h3.17Zm0-16.58h-1.28v-8.32h4.92a42,42,0,0,0-.26,4.69c0,1.25.06,2.46.16,3.63ZM278.89,177c-15.1,0-21.92-8.36-21.92-21.51,0-14.37,7.87-23.21,22.81-23.21,14.77,0,22,8.36,22,22C301.78,168,293.75,177,278.89,177Z"/><path class="cls-15" d="M279.22,142.88c-5.84,0-8.2,4.71-8.2,11.44,0,8.6,2.6,12.09,8.6,12.09,5.68,0,8-4.71,8-11.36C287.66,146.7,285.06,142.88,279.22,142.88Zm.7,16.52-.29,0a5,5,0,0,1-1-.08c-.2-.43-.64-1.78-.64-5,0-2.7.51-4,.76-4.41a2.38,2.38,0,0,1,.44,0,4,4,0,0,1,.72.05c.2.39.72,1.74.72,5.12A9.23,9.23,0,0,1,279.92,159.4Z"/><path class="cls-16" d="M47,41.82H40v26H31.3v-26H0v82.62H31.3V96.53H40v27.92h31.3V41.82H47Zm17.3,75.62H47V89.53H24.3v27.92H7V48.82H24.3v26H47v-26h17.3Z"/><path class="cls-12" d="M236.85,176.89c-7.22,0-12.09-3.25-12.09-12.58V143.78h-5.6V133.55h5.52l3.25-12.09h10.39v12.09h8.28v10.23h-8.28v15.5c0,5.36,1.06,6.82,5.11,6.82h3.17v9.58A34.81,34.81,0,0,1,236.85,176.89Z"/><path class="cls-12" d="M278.89,177c-15.1,0-21.92-8.36-21.92-21.51,0-14.37,7.87-23.21,22.81-23.21,14.77,0,22,8.36,22,22C301.78,168,293.75,177,278.89,177Zm.32-34.09c-5.84,0-8.2,4.71-8.2,11.44,0,8.6,2.6,12.09,8.6,12.09,5.68,0,8-4.71,8-11.36C287.66,146.7,285.06,142.88,279.22,142.88Z"/><path class="cls-12" d="M198,176.89c-7.22,0-12.09-3.25-12.09-12.58V143.78h-5.6V133.55h5.52l3.25-12.09H199.5v12.09h8.28v10.23H199.5v15.5c0,5.36,1.06,6.82,5.11,6.82h3.17v9.58A34.82,34.82,0,0,1,198,176.89Z"/><path class="cls-12" d="M91,175.67V119h14.29v45.29h17.53v11.36Z"/><path class="cls-12" d="M150.42,177c-15.1,0-21.92-8.36-21.92-21.51,0-14.37,7.87-23.21,22.81-23.21,14.77,0,22,8.36,22,22C173.31,168,165.27,177,150.42,177Zm.32-34.09c-5.84,0-8.2,4.71-8.2,11.44,0,8.6,2.6,12.09,8.6,12.09,5.68,0,8-4.71,8-11.36C159.18,146.7,156.59,142.88,150.74,142.88Z"/></g></g></svg>