<svg xmlns="http://www.w3.org/2000/svg" xmlns:xlink="http://www.w3.org/1999/xlink" viewBox="0 0 357.84 142.03"><defs><style>.cls-1{fill:#bfd733;}.cls-1,.cls-2,.cls-3,.cls-4,.cls-5{fill-rule:evenodd;}.cls-2{fill:#7fbe3f;}.cls-3,.cls-7{fill:#bddd00;}.cls-3,.cls-4{stroke:#024f23;stroke-linecap:round;}.cls-3{stroke-linejoin:round;stroke-width:4px;}.cls-4{fill:none;stroke-linejoin:bevel;stroke-width:6px;}.cls-5,.cls-6{fill:#024f23;}.cls-8{fill:url(#New_Gradient_Swatch_1);}.cls-9{fill:url(#New_Gradient_Swatch_1-2);}.cls-10{fill:url(#New_Gradient_Swatch_1-3);}.cls-11{fill:url(#New_Gradient_Swatch_1-4);}.cls-12{fill:url(#New_Gradient_Swatch_1-5);}.cls-13{fill:url(#New_Gradient_Swatch_1-6);}.cls-14{fill:url(#New_Gradient_Swatch_1-7);}.cls-15{fill:url(#New_Gradient_Swatch_1-8);}.cls-16{fill:url(#New_Gradient_Swatch_1-9);}.cls-17{fill:url(#New_Gradient_Swatch_1-10);}</style><radialGradient id="New_Gradient_Swatch_1" cx="204.39" cy="102.48" r="22.89" gradientUnits="userSpaceOnUse"><stop offset="0.01" stop-color="#fff"/><stop offset="1" stop-color="#fff"/></radialGradient><radialGradient id="New_Gradient_Swatch_1-2" cx="204.39" cy="102.48" r="24.57" xlink:href="#New_Gradient_Swatch_1"/><radialGradient id="New_Gradient_Swatch_1-3" cx="230.45" cy="113.33" r="17.18" xlink:href="#New_Gradient_Swatch_1"/><radialGradient id="New_Gradient_Swatch_1-4" cx="230.45" cy="113.33" r="19.12" xlink:href="#New_Gradient_Swatch_1"/><radialGradient id="New_Gradient_Swatch_1-5" cx="256.88" cy="105.29" r="22.15" xlink:href="#New_Gradient_Swatch_1"/><radialGradient id="New_Gradient_Swatch_1-6" cx="256.88" cy="105.29" r="23.93" xlink:href="#New_Gradient_Swatch_1"/><radialGradient id="New_Gradient_Swatch_1-7" cx="286.42" cy="113.33" r="19.56" xlink:href="#New_Gradient_Swatch_1"/><radialGradient id="New_Gradient_Swatch_1-8" cx="286.42" cy="113.33" r="21.54" xlink:href="#New_Gradient_Swatch_1"/><radialGradient id="New_Gradient_Swatch_1-9" cx="329.74" cy="102.48" r="26.61" xlink:href="#New_Gradient_Swatch_1"/><radialGradient id="New_Gradient_Swatch_1-10" cx="329.74" cy="102.48" r="28.57" xlink:href="#New_Gradient_Swatch_1"/></defs><title>Asset 18</title><g id="Layer_2" data-name="Layer 2"><g id="Layer_1-2" data-name="Layer 1"><path class="cls-1" d="M230.17,72.76a.31.31,0,0,1-.21.3C230,72.93,230,72.8,230.17,72.76Z"/><path class="cls-1" d="M230.32,72.55l-.14.18A.16.16,0,0,1,230.32,72.55Z"/><path class="cls-2" d="M284.11,34.76a3.86,3.86,0,0,0-1.18.58,2.32,2.32,0,0,0-.84,1.89c0,2.37.26,4.72.25,7.09a9.08,9.08,0,0,0,.14,1.16.4.4,0,0,0-.38.37,7,7,0,0,0,0,3,3.1,3.1,0,0,1,0,.67c0,.15,0,.29-.2.32s-.25-.07-.33-.2a4.66,4.66,0,0,1-.61-2c-.06-1-.3-1.87-.44-2.8-.1-.71-.13-1.44-.22-2.15a34,34,0,0,1-.38-4.91,5.11,5.11,0,0,1,3.28-4.8,3.57,3.57,0,0,1,1.91,0c.27,0,.36.38.54.67C284.94,33.81,284.26,34,284.11,34.76Z"/><path class="cls-3" d="M330.77,25.15a4.84,4.84,0,0,0-1.56-.18,27.05,27.05,0,0,1-3.56.14,27,27,0,0,0,3.56-.14,1,1,0,0,0-.56-.14c-1.37-.05-2.74-.14-4.11-.15-4.53,0-9.07.1-13.6.28-3.94.16-7.89.24-11.83.36-.67,0-1.34,0-2,.05-2.85.14-5.71.15-8.56.22a1.18,1.18,0,0,1-.87-.23,13.85,13.85,0,0,1-1.45-1.26c-.8-.94-1.7-1.78-2.57-2.64q-4-4-8.07-7.83c-2.73-2.57-5.6-5-8.51-7.35a28,28,0,0,0-3-2.32h0a.3.3,0,0,1-.33-.18.25.25,0,0,1-.17-.17l-.17-.17h0l-.18-.17a.32.32,0,0,1-.33-.19l-.17-.16,0,0-.19-.18A2.52,2.52,0,0,0,261.38,2a1.2,1.2,0,0,0-.24.73c-.25,1.53-.47,3.07-.72,4.61-.2,1.23-.44,2.46-.66,3.69-.3.29-.17.69-.25,1A82.66,82.66,0,0,1,256,24.13a27.15,27.15,0,0,1-3.45,6.51,4.46,4.46,0,0,1-2.73,1.88c-3.55.77-7.07,1.69-10.6,2.57-1.46.36-2.93.69-4.36,1.16a11.41,11.41,0,0,0-2.21.46q-6.76,1.64-13.5,3.31a11.94,11.94,0,0,0-2.64.76.14.14,0,0,0-.14,0,2.11,2.11,0,0,1-1.34.32l-.18,0a.39.39,0,0,1-.38.11.09.09,0,0,0-.11,0c-.14.21-.35.16-.56.15l-.29,0c0,.07-.09.09-.15,0a14.83,14.83,0,0,0-2.14.49c.09.28.27.31.41.39l7.42,3.92c3.79,2,7.55,4,11.27,6.18a25.27,25.27,0,0,0,2.85,1.59,2.5,2.5,0,0,0,.31.27,39.5,39.5,0,0,1,4.93,3.4,1.16,1.16,0,0,1,0,1.18c-.33.58-.6,1.2-.91,1.79-2,3.69-4.15,7.25-6.48,10.73-.17.25-.42.46-.43.79a.31.31,0,0,0-.21.31l-.14.18,0,0a.31.31,0,0,1-.21.3s-.11,0-.14.09c-1.65,2.34-3.36,4.63-5.12,6.89a4.63,4.63,0,0,0-.91,1.2.6.6,0,0,0,.47.07c.07,0,.14-.11.21-.15a2.5,2.5,0,0,0-.21.15,10.09,10.09,0,0,0,2.4.14c2.11,0,4.23.17,6.34,0,.07-.42.41-.29.66-.31,1.14-.08,2.28-.13,3.42-.23,1.55-.13,3.1-.3,4.66-.45.83-.08,1.67-.12,2.5-.21,1.69-.2,3.37-.42,5.05-.64s3.53-.46,5.3-.72c2-.3,3.91-.6,5.85-1a17.89,17.89,0,0,0,3.17-.65,56.75,56.75,0,0,0,5.76-1.1c.6-.13,1.19-.29,1.79-.43a2,2,0,0,1,1.44.16,76.11,76.11,0,0,1,11.34,5.94,100.45,100.45,0,0,1,9.13,6.51c1.92,1.53,3.75,3.17,5.57,4.82a47.83,47.83,0,0,1,3.54,3.45c.91,1,1.92,1.94,2.82,3a.81.81,0,0,1,.26.42v0a.23.23,0,0,1,.17.17.23.23,0,0,1,.17.19.27.27,0,0,1,.18.28l0,0h.05a.38.38,0,0,1,.23.22c.29-.13.3-.13.43-.51a80.18,80.18,0,0,0,3-11.79,67.53,67.53,0,0,0,.94-7.83,35.44,35.44,0,0,0-.23-7c-.27-1.94-.74-3.84-1.13-5.76-.45-2.19-1-4.36-1.31-6.58a4.83,4.83,0,0,1,1.69-4.71A106,106,0,0,0,318.93,47a85.92,85.92,0,0,0,11.52-17.78,1.67,1.67,0,0,0,.28-.87h0l0,0,0,0c0-.19,0-.32.22-.36a4.56,4.56,0,0,0,.59-1.8C331.61,25.57,331.41,25.3,330.77,25.15Z"/><path id="_Path_" data-name="&lt;Path&gt;" class="cls-4" d="M259.34,60.36s14.8,11.39,35,.57"/><path class="cls-5" d="M282.83,34.83c.44,0,.84-.25,1.3-.19a2.63,2.63,0,0,1,2,1.21c.08.12.18.23.27.35a24,24,0,0,1,1.82,6.71q.53,3.14.78,6.31a16.62,16.62,0,0,1-.12,4.94,3.05,3.05,0,0,1-.71,1.4c-.71.79-3,.62-3.55-.25a8.45,8.45,0,0,1-1-2.24,36.24,36.24,0,0,1-.89-5.4c-.2-1.76-.38-3.51-.57-5.27a.93.93,0,0,0-.1-.73q-.05-1-.11-2a.54.54,0,0,0-.11-.55c0-.35,0-.7,0-1a4.56,4.56,0,0,1,.31-2.3.31.31,0,0,0,.07-.14Z"/><path class="cls-5" d="M262.77,36.64c.42,0,.79-.24,1.23-.18a2.49,2.49,0,0,1,1.85,1.14c.08.12.17.22.25.33a22.75,22.75,0,0,1,1.73,6.36q.51,3,.74,6a15.74,15.74,0,0,1-.11,4.68,2.9,2.9,0,0,1-.67,1.33c-.67.75-2.85.58-3.36-.24a8,8,0,0,1-1-2.13,34.32,34.32,0,0,1-.84-5.12c-.19-1.66-.36-3.33-.54-5a.89.89,0,0,0-.1-.69l-.1-1.85a.52.52,0,0,0-.1-.52c0-.33,0-.66,0-1a4.32,4.32,0,0,1,.3-2.18.29.29,0,0,0,.06-.13Z"/><path class="cls-6" d="M30,138.53a43.26,43.26,0,0,1-12.84-1.63A17.6,17.6,0,0,1,8.39,131,24.11,24.11,0,0,1,4,120.42a84.47,84.47,0,0,1-1.14-15.06V80.72c-.06-1.76-.09-3.28-.09-4.44s0-1.87-.08-2.48-.11-1.14-.16-1.46A2.5,2.5,0,0,1,5,69.43c8.82,0,13.67,4.69,13.67,13.21l.18,23.24a80.62,80.62,0,0,0,.48,9.69A13,13,0,0,0,21.06,121a6.25,6.25,0,0,0,3.31,2.53,22.07,22.07,0,0,0,7.09.91q2.25,0,4.1,0c1.22,0,2.24-.07,3-.13,1-.06,1.83-.14,2.55-.25l.38,0a2.5,2.5,0,0,1,2.5,2.5v.55a10.29,10.29,0,0,1-.89,4.05,10.76,10.76,0,0,1-2.73,3.75,14.45,14.45,0,0,1-4.31,2.61A16.3,16.3,0,0,1,30,138.53Z"/><path class="cls-6" d="M5,71.93q11.17,0,11.17,10.71l.18,23.26a82.48,82.48,0,0,0,.5,10,15.38,15.38,0,0,0,2.11,6.5,8.73,8.73,0,0,0,4.58,3.53A24.31,24.31,0,0,0,31.46,127q2.29,0,4.17,0t3.16-.14q1.56-.09,2.75-.27v.55a7.78,7.78,0,0,1-.69,3.07A8.24,8.24,0,0,1,38.74,133a11.91,11.91,0,0,1-3.57,2.15A13.77,13.77,0,0,1,30,136a40.63,40.63,0,0,1-12.09-1.51,15.09,15.09,0,0,1-7.55-5.08A21.57,21.57,0,0,1,6.46,120a81.66,81.66,0,0,1-1.1-14.61V80.72Q5.27,78,5.27,76.28t-.09-2.7c-.06-.73-.12-1.28-.18-1.65m0-5A5,5,0,0,0,.07,72.75c0,.11.07.44.13,1.25,0,.39.07,1.08.07,2.28s0,2.7.09,4.52v24.55a86.94,86.94,0,0,0,1.18,15.52,26.57,26.57,0,0,0,4.87,11.64,20.06,20.06,0,0,0,10,6.77A45,45,0,0,0,30,141,18.77,18.77,0,0,0,37,139.79a16.92,16.92,0,0,0,5-3.08,13.22,13.22,0,0,0,3.35-4.62,12.77,12.77,0,0,0,1.09-5v-.55a5,5,0,0,0-5.77-4.94c-.63.1-1.39.17-2.27.22h-.07c-.76.05-1.74.1-2.92.13s-2.49,0-4,0a19.26,19.26,0,0,1-6.25-.77,3.75,3.75,0,0,1-2.05-1.53,10.81,10.81,0,0,1-1.34-4.4,78,78,0,0,1-.46-9.36l-.18-23.3c0-9.8-6-15.67-16.17-15.67Z"/><path class="cls-6" d="M65.71,139.53a21,21,0,0,1-9-2,23.9,23.9,0,0,1-7.31-5.31,24.56,24.56,0,0,1-4.85-7.69,25.3,25.3,0,0,1-1.78-9.49,27.93,27.93,0,0,1,1.56-9.4,22.91,22.91,0,0,1,4.58-7.75,21.52,21.52,0,0,1,7.27-5.36,22.69,22.69,0,0,1,9.51-2,21.2,21.2,0,0,1,9.07,2A22.84,22.84,0,0,1,82,97.9a23.68,23.68,0,0,1,4.91,7.66,25.34,25.34,0,0,1,1.78,9.5,27.22,27.22,0,0,1-1.62,9.42,23.52,23.52,0,0,1-4.61,7.73,21.51,21.51,0,0,1-7.27,5.36A22.69,22.69,0,0,1,65.71,139.53Zm0-36.08a6.34,6.34,0,0,0-2,.42,5.49,5.49,0,0,0-2.08,1.44,9.59,9.59,0,0,0-1.92,3.41,19.23,19.23,0,0,0-.86,6.34,18.82,18.82,0,0,0,.85,6.28,10.12,10.12,0,0,0,1.95,3.45,5.29,5.29,0,0,0,2.06,1.45,4.94,4.94,0,0,0,4,0,5.3,5.3,0,0,0,2.06-1.45,10.16,10.16,0,0,0,1.95-3.45,18.85,18.85,0,0,0,.85-6.28,19.27,19.27,0,0,0-.86-6.34,9.63,9.63,0,0,0-1.92-3.41,5.51,5.51,0,0,0-2.08-1.44A6.34,6.34,0,0,0,65.71,103.46Z"/><path class="cls-6" d="M65.71,93.08a18.64,18.64,0,0,1,8,1.74,20.26,20.26,0,0,1,6.46,4.76,21.21,21.21,0,0,1,4.44,6.91,22.75,22.75,0,0,1,1.6,8.56,24.62,24.62,0,0,1-1.47,8.56,20.94,20.94,0,0,1-4.12,6.91,19,19,0,0,1-6.46,4.76A20.12,20.12,0,0,1,65.71,137a18.42,18.42,0,0,1-7.92-1.74,21.33,21.33,0,0,1-6.55-4.76,22,22,0,0,1-4.35-6.91,22.71,22.71,0,0,1-1.6-8.56,25.33,25.33,0,0,1,1.42-8.56,20.32,20.32,0,0,1,4.07-6.91,19,19,0,0,1,6.45-4.76,20.12,20.12,0,0,1,8.47-1.74m0,36.08a8.8,8.8,0,0,0,2.79-.55,7.69,7.69,0,0,0,3.07-2.1A12.52,12.52,0,0,0,74,122.2a21.14,21.14,0,0,0,1-7.14,21.56,21.56,0,0,0-1-7.19,12,12,0,0,0-2.47-4.3,7.91,7.91,0,0,0-3.07-2.06,7.37,7.37,0,0,0-5.59,0,7.89,7.89,0,0,0-3.07,2.06,11.93,11.93,0,0,0-2.47,4.3,21.51,21.51,0,0,0-1,7.19,21.1,21.1,0,0,0,1,7.14,12.47,12.47,0,0,0,2.47,4.3,7.68,7.68,0,0,0,3.07,2.1,8.79,8.79,0,0,0,2.79.55m0-41.08a25.16,25.16,0,0,0-10.55,2.19,24,24,0,0,0-8.1,6A25.4,25.4,0,0,0,42,104.82a30.42,30.42,0,0,0-1.71,10.24,27.8,27.8,0,0,0,2,10.43A27,27,0,0,0,47.59,134a26.4,26.4,0,0,0,8.07,5.87,23.46,23.46,0,0,0,10,2.21,25.18,25.18,0,0,0,10.55-2.19,24.06,24.06,0,0,0,8.11-6,26,26,0,0,0,5.08-8.51,29.72,29.72,0,0,0,1.77-10.29,27.83,27.83,0,0,0-2-10.43,26.31,26.31,0,0,0-5.43-8.47,25.33,25.33,0,0,0-8-5.87,23.68,23.68,0,0,0-10.13-2.21Zm0,36.08a4.15,4.15,0,0,1-1.17-.28,2.85,2.85,0,0,1-1-.8,7.56,7.56,0,0,1-1.42-2.6,16.09,16.09,0,0,1-.7-5.42,16.52,16.52,0,0,1,.71-5.49A7.07,7.07,0,0,1,63.43,107a3,3,0,0,1,1.1-.81,4.19,4.19,0,0,1,1.17-.28,4.23,4.23,0,0,1,1.18.28,3.07,3.07,0,0,1,1.1.81,7.12,7.12,0,0,1,1.36,2.52,16.56,16.56,0,0,1,.71,5.49,16.14,16.14,0,0,1-.7,5.42,7.6,7.6,0,0,1-1.42,2.6,2.86,2.86,0,0,1-1,.8,4.2,4.2,0,0,1-1.17.28Z"/><path class="cls-6" d="M109.56,139.53a16.43,16.43,0,0,1-7-1.61,18.62,18.62,0,0,1-6.14-4.75,23.24,23.24,0,0,1-4.27-7.64,31.7,31.7,0,0,1-1.56-10.39l.09-26.47c0-4.43,1.3-7.73,3.85-9.81,2.4-2,5.8-2.94,10.09-2.94a2.5,2.5,0,0,1,2.47,2.86q-.08.59-.17,1.59t-.13,2.56q0,1.67,0,4.37l.05,3.27h9.81a2.5,2.5,0,0,1,2.5,2.5,11.77,11.77,0,0,1-3,8.29,10.85,10.85,0,0,1-8.34,3.27h-1l-.07,10.52a23.48,23.48,0,0,0,.6,5.8,10.53,10.53,0,0,0,1.45,3.38,5.31,5.31,0,0,0,4.42,2.12,9.8,9.8,0,0,0,2.63-.37l1.62-.51a2.5,2.5,0,0,1,3.29,2.37,8,8,0,0,1,.27,2,8.55,8.55,0,0,1-1,4.18,9.25,9.25,0,0,1-2.75,3.07A12.93,12.93,0,0,1,109.56,139.53Z"/><path class="cls-6" d="M104.62,78.43h0m0,0q-.09.64-.18,1.74t-.14,2.7q0,1.7,0,4.44l.09,5.77h12.27a9.32,9.32,0,0,1-2.29,6.59,8.42,8.42,0,0,1-6.5,2.47h-3.48l-.09,13a25.82,25.82,0,0,0,.69,6.46,12.81,12.81,0,0,0,1.88,4.26,7.81,7.81,0,0,0,6.41,3.11,12.25,12.25,0,0,0,3.3-.46l1.74-.55a2.64,2.64,0,0,0,.09.64,5.72,5.72,0,0,1,.18,1.38,6.06,6.06,0,0,1-.73,3,6.74,6.74,0,0,1-2,2.24,10.44,10.44,0,0,1-6.23,1.83,13.89,13.89,0,0,1-6-1.37,16.05,16.05,0,0,1-5.31-4.12,20.66,20.66,0,0,1-3.8-6.82,29.1,29.1,0,0,1-1.42-9.57l.09-26.46q0-5.49,2.93-7.87t8.52-2.38m12,14.65h0m-12-19.65h0c-4.88,0-8.81,1.18-11.67,3.5-3.17,2.58-4.78,6.53-4.78,11.76l-.09,26.44a34.21,34.21,0,0,0,1.7,11.23,25.72,25.72,0,0,0,4.74,8.45,21.09,21.09,0,0,0,7,5.37,18.92,18.92,0,0,0,8.07,1.85,15.37,15.37,0,0,0,9.13-2.76,11.75,11.75,0,0,0,3.49-3.89,11,11,0,0,0,1.36-5.39,10.64,10.64,0,0,0-.29-2.41,5,5,0,0,0-6.56-4.35l-1.55.49a7.19,7.19,0,0,1-1.91.26,2.82,2.82,0,0,1-2.42-1.13,8.24,8.24,0,0,1-1-2.52,21.11,21.11,0,0,1-.52-5.18l.06-8.06a12.94,12.94,0,0,0,8.68-4,14.13,14.13,0,0,0,3.62-9.8c0-.06,0-.12,0-.19a5,5,0,0,0-5-5h-7.35v-.81c0-1.81,0-3.21,0-4.26s.07-1.82.12-2.38.1-1.09.13-1.34a5,5,0,0,0-4.92-5.86Zm0,10h0Z"/><path class="cls-6" d="M139.59,139.53a16.44,16.44,0,0,1-7-1.61,18.6,18.6,0,0,1-6.14-4.75,23.21,23.21,0,0,1-4.27-7.64,31.67,31.67,0,0,1-1.56-10.39l.09-26.47c0-4.43,1.3-7.73,3.85-9.81,2.4-2,5.8-2.94,10.09-2.94a2.5,2.5,0,0,1,2.48,2.85q-.08.59-.17,1.6t-.13,2.56q0,1.67,0,4.37l.05,3.27h9.81a2.5,2.5,0,0,1,2.5,2.5,11.78,11.78,0,0,1-3,8.29,10.85,10.85,0,0,1-8.34,3.28h-1l-.07,10.52a23.49,23.49,0,0,0,.6,5.8,10.52,10.52,0,0,0,1.45,3.38,5.3,5.3,0,0,0,4.42,2.12,9.79,9.79,0,0,0,2.63-.37l1.62-.51a2.5,2.5,0,0,1,3.29,2.37,8,8,0,0,1,.27,2,8.54,8.54,0,0,1-1,4.18,9.26,9.26,0,0,1-2.75,3.07A12.93,12.93,0,0,1,139.59,139.53Z"/><path class="cls-6" d="M134.65,78.43h0m0,0c-.06.43-.12,1-.18,1.74s-.11,1.57-.14,2.7,0,2.61,0,4.44l.09,5.77h12.27a9.32,9.32,0,0,1-2.29,6.59,8.42,8.42,0,0,1-6.5,2.47h-3.48l-.09,13a25.83,25.83,0,0,0,.69,6.46,12.81,12.81,0,0,0,1.88,4.26,7.81,7.81,0,0,0,6.41,3.11,12.24,12.24,0,0,0,3.3-.46l1.74-.55a2.68,2.68,0,0,0,.09.64,5.71,5.71,0,0,1,.18,1.38,6,6,0,0,1-.73,3,6.75,6.75,0,0,1-2,2.24,10.44,10.44,0,0,1-6.23,1.83,13.9,13.9,0,0,1-6-1.37,16,16,0,0,1-5.31-4.12,20.64,20.64,0,0,1-3.8-6.82,29.07,29.07,0,0,1-1.42-9.57l.09-26.46q0-5.49,2.93-7.87t8.51-2.38m12,14.65h0m-12-19.65h0c-4.88,0-8.81,1.18-11.67,3.5-3.17,2.57-4.78,6.53-4.78,11.76l-.09,26.44a34.17,34.17,0,0,0,1.7,11.23,25.68,25.68,0,0,0,4.74,8.45,21.08,21.08,0,0,0,7,5.37,18.92,18.92,0,0,0,8.07,1.85,15.38,15.38,0,0,0,9.13-2.76,11.75,11.75,0,0,0,3.49-3.9,11,11,0,0,0,1.36-5.39,10.64,10.64,0,0,0-.29-2.41,5,5,0,0,0-6.57-4.35l-1.55.49a7.19,7.19,0,0,1-1.91.26,2.82,2.82,0,0,1-2.42-1.13,8.22,8.22,0,0,1-1-2.52,21.11,21.11,0,0,1-.52-5.18l.06-8.06a12.94,12.94,0,0,0,8.68-4,14.13,14.13,0,0,0,3.62-9.8c0-.06,0-.12,0-.19a5,5,0,0,0-5-5H139.3v-.81c0-1.78,0-3.21,0-4.26s.07-1.82.12-2.38.1-1.09.13-1.35a5,5,0,0,0-4.93-5.84Zm0,10h0Z"/><path class="cls-6" d="M173.11,139.53a21,21,0,0,1-9-2,23.89,23.89,0,0,1-7.31-5.31,24.56,24.56,0,0,1-4.85-7.69,25.3,25.3,0,0,1-1.78-9.49,27.9,27.9,0,0,1,1.56-9.4,22.87,22.87,0,0,1,4.58-7.75,21.51,21.51,0,0,1,7.27-5.36,22.68,22.68,0,0,1,9.51-2,21.19,21.19,0,0,1,9.07,2,22.84,22.84,0,0,1,7.24,5.34,23.7,23.7,0,0,1,4.91,7.66,25.34,25.34,0,0,1,1.78,9.5,27.24,27.24,0,0,1-1.62,9.42,23.52,23.52,0,0,1-4.61,7.73,21.52,21.52,0,0,1-7.27,5.36A22.69,22.69,0,0,1,173.11,139.53Zm0-36.08a6.34,6.34,0,0,0-2,.42,5.47,5.47,0,0,0-2.08,1.44,9.57,9.57,0,0,0-1.92,3.41,19.22,19.22,0,0,0-.86,6.34,18.82,18.82,0,0,0,.85,6.28,10.12,10.12,0,0,0,1.95,3.45,5.28,5.28,0,0,0,2.06,1.45,4.94,4.94,0,0,0,4,0,5.3,5.3,0,0,0,2.06-1.45,10.16,10.16,0,0,0,1.95-3.45,18.86,18.86,0,0,0,.85-6.28,19.27,19.27,0,0,0-.86-6.34,9.63,9.63,0,0,0-1.92-3.41,5.51,5.51,0,0,0-2.08-1.44A6.34,6.34,0,0,0,173.11,103.46Z"/><path class="cls-6" d="M173.11,93.08a18.63,18.63,0,0,1,8,1.74,20.27,20.27,0,0,1,6.46,4.76A21.24,21.24,0,0,1,192,106.5a22.75,22.75,0,0,1,1.6,8.56,24.63,24.63,0,0,1-1.46,8.56,20.94,20.94,0,0,1-4.12,6.91,19,19,0,0,1-6.46,4.76,20.12,20.12,0,0,1-8.47,1.74,18.43,18.43,0,0,1-7.92-1.74,21.33,21.33,0,0,1-6.55-4.76,22,22,0,0,1-4.35-6.91,22.7,22.7,0,0,1-1.6-8.56,25.3,25.3,0,0,1,1.42-8.56,20.31,20.31,0,0,1,4.07-6.91,19,19,0,0,1,6.46-4.76,20.12,20.12,0,0,1,8.47-1.74m0,36.08a8.8,8.8,0,0,0,2.79-.55,7.7,7.7,0,0,0,3.07-2.1,12.52,12.52,0,0,0,2.47-4.3,21.15,21.15,0,0,0,1-7.14,21.57,21.57,0,0,0-1-7.19,12,12,0,0,0-2.47-4.3,7.91,7.91,0,0,0-3.07-2.06,7.37,7.37,0,0,0-5.59,0,7.89,7.89,0,0,0-3.07,2.06,11.92,11.92,0,0,0-2.47,4.3,21.51,21.51,0,0,0-1,7.19,21.09,21.09,0,0,0,1,7.14,12.46,12.46,0,0,0,2.47,4.3,7.67,7.67,0,0,0,3.07,2.1,8.79,8.79,0,0,0,2.79.55m0-41.08a25.16,25.16,0,0,0-10.55,2.19,24,24,0,0,0-8.11,6,25.37,25.37,0,0,0-5.05,8.56,30.4,30.4,0,0,0-1.71,10.24,27.79,27.79,0,0,0,2,10.43A27,27,0,0,0,155,134a26.41,26.41,0,0,0,8.07,5.87,23.47,23.47,0,0,0,10,2.21,25.18,25.18,0,0,0,10.55-2.19,24.07,24.07,0,0,0,8.11-6,26,26,0,0,0,5.08-8.52,29.73,29.73,0,0,0,1.77-10.29,27.83,27.83,0,0,0-2-10.43,26.33,26.33,0,0,0-5.43-8.47,25.34,25.34,0,0,0-8-5.87,23.68,23.68,0,0,0-10.13-2.21Zm0,36.08a4.17,4.17,0,0,1-1.17-.28,2.84,2.84,0,0,1-1-.8,7.55,7.55,0,0,1-1.42-2.6,16.08,16.08,0,0,1-.7-5.42,16.51,16.51,0,0,1,.71-5.49,7.08,7.08,0,0,1,1.36-2.52,3,3,0,0,1,1.1-.81,2.6,2.6,0,0,1,2.35,0,3.06,3.06,0,0,1,1.1.81,7.12,7.12,0,0,1,1.36,2.52,16.57,16.57,0,0,1,.71,5.49,16.14,16.14,0,0,1-.7,5.42,7.61,7.61,0,0,1-1.42,2.6,2.86,2.86,0,0,1-1,.8,4.2,4.2,0,0,1-1.17.28Z"/><path class="cls-6" d="M201.4,138.31a2.5,2.5,0,0,1-2.47-2.91c.05-.32.1-.81.16-1.45s.08-1.46.08-2.53,0-2.73.09-4.57V82.34c0-4.45,1.32-7.75,3.93-9.79,2.42-1.9,5.86-2.87,10.2-2.87a2.5,2.5,0,0,1,2.46,2.92c0,.2-.09.62-.16,1.43q-.09,1-.13,2.56t0,4.37l-.18,44.6c0,4.43-1.3,7.73-3.85,9.8C209.09,137.32,205.69,138.31,201.4,138.31Z"/><path class="cls-6" d="M213.39,72.17q-.09.55-.18,1.65t-.14,2.7q0,1.69,0,4.44l-.18,44.59q0,5.49-2.93,7.87t-8.52,2.38q.09-.55.18-1.65t.09-2.75q0-1.74.09-4.49V82.34q0-5.49,3-7.83t8.65-2.34m0-5c-4.91,0-8.86,1.14-11.74,3.4-3.24,2.54-4.89,6.5-4.89,11.76v44.51c-.06,1.83-.09,3.37-.09,4.57s0,1.94-.07,2.31c-.07.84-.12,1.17-.14,1.28a5,5,0,0,0,4.93,5.81c4.89,0,8.81-1.18,11.67-3.5,3.17-2.57,4.78-6.53,4.78-11.75L218,81c0-1.85,0-3.26,0-4.32,0-1.27.08-2,.12-2.38.07-.86.12-1.19.13-1.27a5,5,0,0,0-4.93-5.83Zm0,10h0Z"/><path class="cls-6" d="M232.8,138.31c-4.27,0-7.68-1-10.14-2.86-2.65-2-4-5.35-4-9.81v-11.9a26.71,26.71,0,0,1,2-11.07,17.8,17.8,0,0,1,12.72-10.46,35.13,35.13,0,0,1,7.54-.84h4.49a2.5,2.5,0,0,1,2.43,1.92,11.52,11.52,0,0,1,.22,4.56,7.69,7.69,0,0,1-1.77,3.83,7.38,7.38,0,0,1-5.08,2.45,13,13,0,0,0-2.57.58,4.12,4.12,0,0,0-1.69,1.1,7,7,0,0,0-1.4,2.6,17.34,17.34,0,0,0-.65,5.33V127q0,2.7,0,4.37c0,1.07.07,1.93.13,2.54.07.84.12,1.25.16,1.46a2.5,2.5,0,0,1-2.47,2.92Z"/><path class="cls-6" d="M245.44,93.87a9,9,0,0,1,.18,3.57,5.29,5.29,0,0,1-1.24,2.66,5,5,0,0,1-3.43,1.56,15.53,15.53,0,0,0-3.07.69,6.63,6.63,0,0,0-2.7,1.74,9.38,9.38,0,0,0-2,3.53,19.6,19.6,0,0,0-.78,6.14V127q0,2.75,0,4.44t.14,2.7q.09,1.1.18,1.65-5.59,0-8.61-2.33t-3-7.83v-11.9a24.17,24.17,0,0,1,1.79-10,15.31,15.31,0,0,1,11-9.07,32.47,32.47,0,0,1,7-.78h4.49m0-5H241a37.64,37.64,0,0,0-8.08.9,20.3,20.3,0,0,0-14.46,11.86,28.74,28.74,0,0,0-2.24,12.11v11.9c0,5.27,1.67,9.24,5,11.79,2.9,2.24,6.83,3.38,11.66,3.38a5,5,0,0,0,4.93-5.83c0-.08-.06-.41-.13-1.22v-.05c-.05-.56-.09-1.36-.12-2.37s0-2.46,0-4.31V113.74a14.63,14.63,0,0,1,.51-4.53,4.63,4.63,0,0,1,.84-1.67,1.63,1.63,0,0,1,.68-.46,10.58,10.58,0,0,1,2.08-.47,9.77,9.77,0,0,0,6.7-3.34,10.24,10.24,0,0,0,2.32-5.08,14,14,0,0,0-.26-5.47,5,5,0,0,0-4.87-3.85Z"/><path class="cls-6" d="M261.06,139.29a12,12,0,0,1-4.58-.85,12.2,12.2,0,0,1-4.42-3.05,12.44,12.44,0,0,1-2.63-4.57,16.64,16.64,0,0,1-.81-5.17l.09-21.62c0-4.42,1.3-7.73,3.85-9.8,2.4-2,5.83-2.94,10.18-2.94a2.5,2.5,0,0,1,2.47,2.86c-.06.39-.11.92-.17,1.58s-.1,1.5-.13,2.56,0,2.57,0,4.38v21.88a3.15,3.15,0,0,0,.23,1.55c.22.26.36.28.42.29l.27,0a1.8,1.8,0,0,0,.64-.13,1.6,1.6,0,0,0,.45-.23,2.43,2.43,0,0,1,2-1,2.57,2.57,0,0,1,.69.1,2.51,2.51,0,0,1,1.8,2.24,14.76,14.76,0,0,1-.45,5.18,10.36,10.36,0,0,1-2.39,4.16,8.49,8.49,0,0,1-6,2.51c-.45,0-1,.07-1.47.07Zm-4.64-47.9a8.54,8.54,0,0,1-3.87-.91l-.16-.09a8.18,8.18,0,0,1-3-3.09,8.67,8.67,0,0,1,.1-8.43,8.53,8.53,0,0,1,3.19-3.35A8.33,8.33,0,0,1,257,74.3a7.78,7.78,0,0,1,3.84,1A7.38,7.38,0,0,1,264,78.46a8.64,8.64,0,0,1,1,4.11,8.75,8.75,0,0,1-1.15,4.34A8.44,8.44,0,0,1,256.42,91.39Z"/><path class="cls-6" d="M257,76.8a5.29,5.29,0,0,1,2.66.73,4.91,4.91,0,0,1,2.2,2.11,6.14,6.14,0,0,1,.73,2.93,6.26,6.26,0,0,1-.82,3.11,5.93,5.93,0,0,1-5.31,3.2,6,6,0,0,1-2.75-.64,5.69,5.69,0,0,1-2.11-2.15,5.86,5.86,0,0,1-.73-2.88,5.93,5.93,0,0,1,.82-3.11A6,6,0,0,1,254,77.67a5.84,5.84,0,0,1,3-.87m5.77,17q-.09.64-.18,1.74t-.14,2.7q0,1.7,0,4.44v21.88a4.85,4.85,0,0,0,.82,3.16,3.19,3.19,0,0,0,1.92,1.14,4.07,4.07,0,0,0,.68.06,4.29,4.29,0,0,0,1.52-.29,3.26,3.26,0,0,0,1.56-1.05,12.21,12.21,0,0,1-.37,4.3,7.86,7.86,0,0,1-1.83,3.16,6.09,6.09,0,0,1-4.3,1.69q-.68.07-1.32.07a9.44,9.44,0,0,1-3.63-.66,9.66,9.66,0,0,1-3.52-2.43A9.91,9.91,0,0,1,251.8,130a14.09,14.09,0,0,1-.69-4.4l.09-21.61q0-5.49,2.93-7.87t8.61-2.38M257,71.8a10.8,10.8,0,0,0-5.57,1.57,11.65,11.65,0,0,0-5.56,9.84,10.83,10.83,0,0,0,1.36,5.31,10.6,10.6,0,0,0,3.66,3.87c-3.09,2.57-4.66,6.49-4.66,11.65l-.09,21.59a19.18,19.18,0,0,0,.93,6,14.92,14.92,0,0,0,3.17,5.48,14.66,14.66,0,0,0,5.31,3.68,14.45,14.45,0,0,0,5.53,1c.56,0,1.13,0,1.71-.08a10.85,10.85,0,0,0,7.6-3.32,12.83,12.83,0,0,0,2.95-5.18,17.2,17.2,0,0,0,.54-6,5,5,0,0,0-6.49-4.39V102.66c0-1.84,0-3.25,0-4.3s.07-1.82.12-2.38v-.05c.06-.78.12-1.21.15-1.43a5,5,0,0,0-2.47-5.06,13.46,13.46,0,0,0,.8-1.19l.07-.12a11.23,11.23,0,0,0,1.47-5.56,11.12,11.12,0,0,0-1.32-5.28A10,10,0,0,0,262,73.13a10.23,10.23,0,0,0-5-1.32Zm5.77,27h0Z"/><path class="cls-6" d="M289.84,139.32a9.28,9.28,0,0,1-1.46-.1,24,24,0,0,1-9.49-2.54,23.62,23.62,0,0,1-7.84-6.15l-.19-.19a2.5,2.5,0,0,1-.23-3.26l.22-.29a7.44,7.44,0,0,1,1.46-1.68l1.06-.86a2.51,2.51,0,0,1,.44-.28,7.37,7.37,0,0,1,3.32-.81,8.81,8.81,0,0,1,3.44.7q1.17.5,2.52,1l.19.09a14.27,14.27,0,0,0,2.45.93,16.94,16.94,0,0,0,3,.54c2.08,0,2.76-.49,2.92-.64a2.39,2.39,0,0,0,.8-1.07.49.49,0,0,0-.16-.49,8.78,8.78,0,0,0-2.35-1.54c-1.26-.62-2.77-1.29-4.48-2a40.7,40.7,0,0,1-6-3.12A15.15,15.15,0,0,1,275.2,114a14.27,14.27,0,0,1-2.49-4.66,14.83,14.83,0,0,1-.66-5.06,14.37,14.37,0,0,1,1.21-5.15,13.12,13.12,0,0,1,3-4.22,15.69,15.69,0,0,1,3.86-2.66,17.53,17.53,0,0,1,4.22-1.44,20.05,20.05,0,0,1,3.88-.41h1.24a24.09,24.09,0,0,1,17.46,8.78l.19.19a2.5,2.5,0,0,1,.23,3.27L307,103a9,9,0,0,1-2.76,2.58,6.56,6.56,0,0,1-3.55,1,8.79,8.79,0,0,1-3.45-.7l-2.52-1c-1.13-.48-2.17-.87-3.11-1.18a7.21,7.21,0,0,0-2.28-.38,2.5,2.5,0,0,0-1.39.26.91.91,0,0,0-.34.49.71.71,0,0,0,.28.69,10.48,10.48,0,0,0,3,1.7c1.93.81,4,1.69,6.11,2.64a26.61,26.61,0,0,1,6.26,3.84,16.06,16.06,0,0,1,4.44,5.85,13.21,13.21,0,0,1,.42,8.61,16.18,16.18,0,0,1-1.86,4.15,14.33,14.33,0,0,1-3.7,3.95,20,20,0,0,1-5.44,2.79A22.74,22.74,0,0,1,289.84,139.32Z"/><path class="cls-6" d="M289.29,92.87a21.58,21.58,0,0,1,8.88,2.38,21.82,21.82,0,0,1,6.87,5.59l.27.27-.27.37a6.61,6.61,0,0,1-2,1.92,4.17,4.17,0,0,1-2.29.64,6.27,6.27,0,0,1-2.47-.5l-2.56-1.05q-1.74-.73-3.25-1.24a9.67,9.67,0,0,0-3.07-.5,4.52,4.52,0,0,0-3,.87,3.34,3.34,0,0,0-1.19,2.06,3.2,3.2,0,0,0,1.1,2.88,13,13,0,0,0,3.75,2.15q2.84,1.19,6,2.61a24,24,0,0,1,5.68,3.48,13.51,13.51,0,0,1,3.75,4.94,10.75,10.75,0,0,1,.28,7,13.54,13.54,0,0,1-1.56,3.43,11.78,11.78,0,0,1-3.07,3.25,17.42,17.42,0,0,1-4.76,2.43,20.16,20.16,0,0,1-6.55,1,6.43,6.43,0,0,1-1.19-.09,21.39,21.39,0,0,1-8.65-2.29,21,21,0,0,1-7.1-5.58l-.27-.27.27-.37a5,5,0,0,1,1-1.19l1-.82a4.88,4.88,0,0,1,2.2-.55,6.3,6.3,0,0,1,2.47.5q1.19.5,2.56,1.05a16.69,16.69,0,0,0,2.88,1.1,19.47,19.47,0,0,0,3.52.64q3.3,0,4.72-1.28a4.45,4.45,0,0,0,1.6-2.56,3,3,0,0,0-.87-2.61,11.29,11.29,0,0,0-3-2q-2-1-4.62-2.06a38,38,0,0,1-5.58-2.93,12.76,12.76,0,0,1-3.62-3.07,11.73,11.73,0,0,1-2.06-3.85,12.28,12.28,0,0,1-.55-4.21,11.83,11.83,0,0,1,1-4.26,10.55,10.55,0,0,1,2.38-3.39,13.16,13.16,0,0,1,3.25-2.24,15,15,0,0,1,3.62-1.24,17.46,17.46,0,0,1,3.39-.37h1.1m0-5h-1.1a22.51,22.51,0,0,0-4.36.46A20.06,20.06,0,0,0,279,90a18.24,18.24,0,0,0-4.48,3.09A15.56,15.56,0,0,0,271,98l0,.07a16.86,16.86,0,0,0-1.42,6,17.31,17.31,0,0,0,.77,5.91,16.75,16.75,0,0,0,2.92,5.47,17.75,17.75,0,0,0,4.94,4.23q1.27.79,2.51,1.47a11.26,11.26,0,0,0-3.59-.58,9.86,9.86,0,0,0-4.43,1.08,5,5,0,0,0-.89.57l-1.08.88a9.94,9.94,0,0,0-1.92,2.19l-.17.22a5,5,0,0,0,.46,6.53l.11.11a26.13,26.13,0,0,0,8.59,6.71,26.5,26.5,0,0,0,10.34,2.79,12.09,12.09,0,0,0,1.71.11,25.2,25.2,0,0,0,8.17-1.23,22.48,22.48,0,0,0,6.12-3.15,16.78,16.78,0,0,0,4.34-4.64,18.57,18.57,0,0,0,2.11-4.71l0-.16a15.63,15.63,0,0,0-.56-10.22,18.54,18.54,0,0,0-5.12-6.76,27.27,27.27,0,0,0-2.77-2,9,9,0,0,0,3.45-1.26,11.59,11.59,0,0,0,3.45-3.24l.24-.32a5,5,0,0,0-.47-6.54l-.1-.1a26.59,26.59,0,0,0-19.17-9.59Z"/><path class="cls-6" d="M352.84,138.31c-4.34,0-7.79-1-10.25-2.92-2.64-2.08-4-5.36-4-9.75l-.09-12.89a17.83,17.83,0,0,0-.65-5.41,7.54,7.54,0,0,0-1.47-2.75,3.76,3.76,0,0,0-1.65-1.1,8,8,0,0,0-4.68,0,3.77,3.77,0,0,0-1.64,1.1,7.1,7.1,0,0,0-1.41,2.7,19,19,0,0,0-.62,5.43v14.19q0,2.7,0,4.42c0,1.1.07,2,.13,2.59.07.88.13,1.29.16,1.46a2.5,2.5,0,0,1-2.47,2.92c-4.35,0-7.79-1-10.22-2.93-2.6-2.08-3.91-5.35-3.91-9.73l.09-43.31c0-4.42,1.26-7.71,3.75-9.75s5.74-2.9,10.1-2.9a2.5,2.5,0,0,1,2.47,2.91c0,.21-.09.62-.16,1.44q-.09.95-.13,2.61t0,4.42V90.9q.77-.15,1.54-.24a38.37,38.37,0,0,1,4.65-.29,36.14,36.14,0,0,1,7.67.84,18.79,18.79,0,0,1,7.44,3.43,18.21,18.21,0,0,1,5.43,7,26.71,26.71,0,0,1,2,11.07v14.19q0,2.7,0,4.42c0,1.08.07,2,.13,2.59.07.84.12,1.25.16,1.46a2.5,2.5,0,0,1-2.46,2.92Z"/><path class="cls-6" d="M324.09,72.17h0m0,0q-.09.55-.18,1.65t-.14,2.75q0,1.74,0,4.49V94.15a21,21,0,0,1,4.35-1,35.75,35.75,0,0,1,4.35-.27,33.47,33.47,0,0,1,7.14.78,16.23,16.23,0,0,1,6.45,3,15.68,15.68,0,0,1,4.67,6.09,24.17,24.17,0,0,1,1.79,10v14.19q0,2.75,0,4.49t.14,2.75q.09,1.1.18,1.65-5.68,0-8.7-2.38t-3-7.78L341,112.73a20.07,20.07,0,0,0-.78-6.18,9.92,9.92,0,0,0-2-3.66,6.24,6.24,0,0,0-2.75-1.79,10.51,10.51,0,0,0-6.13,0,6.24,6.24,0,0,0-2.75,1.79,9.47,9.47,0,0,0-2,3.66,21.21,21.21,0,0,0-.73,6.18v14.19q0,2.75,0,4.49t.14,2.75c.06.73.12,1.28.18,1.65q-5.68,0-8.65-2.38t-3-7.78l.09-43.31q0-5.49,2.84-7.83t8.52-2.34m0-5h0c-5,0-8.89,1.17-11.69,3.48-3.09,2.54-4.66,6.47-4.66,11.69l-.09,43.3c0,5.19,1.63,9.13,4.85,11.7,2.88,2.3,6.84,3.47,11.77,3.47A5,5,0,0,0,329.2,135c0-.08-.06-.42-.13-1.23-.06-.61-.1-1.42-.12-2.47s0-2.5,0-4.36V112.73a16.2,16.2,0,0,1,.5-4.68,4.66,4.66,0,0,1,.86-1.76,1.56,1.56,0,0,1,.54-.41,5.51,5.51,0,0,1,3.23,0,1.59,1.59,0,0,1,.53.41,5.08,5.08,0,0,1,.93,1.83,15.07,15.07,0,0,1,.52,4.6l.09,12.95c0,5.16,1.66,9.1,4.93,11.68,2.9,2.29,6.87,3.45,11.79,3.45a5,5,0,0,0,4.93-5.83c0-.08-.06-.4-.13-1.22,0-.44-.09-1.19-.12-2.47,0-1.1,0-2.52,0-4.36V112.73a28.74,28.74,0,0,0-2.24-12.11,20.68,20.68,0,0,0-6.18-8,21.28,21.28,0,0,0-8.42-3.88,38.64,38.64,0,0,0-8.21-.89c-1.2,0-2.44.06-3.7.18v-7c0-1.86,0-3.29,0-4.35s.07-1.87.12-2.43v-.05c0-.61.09-.95.11-1.11a5,5,0,0,0-4.91-5.94Zm0,10h0Z"/><path class="cls-7" d="M27,135.52A41.81,41.81,0,0,1,14.61,134a16.13,16.13,0,0,1-8-5.42,22.64,22.64,0,0,1-4.09-9.91,83,83,0,0,1-1.12-14.79V79.22c-.06-1.79-.09-3.3-.09-4.44s0-2-.09-2.61S1.07,70.94,1,70.59a1,1,0,0,1,1-1.16c8,0,12.17,4.05,12.17,11.71l.18,23.25a82,82,0,0,0,.5,9.86,14.48,14.48,0,0,0,2,6.08,7.69,7.69,0,0,0,4.07,3.13,23.48,23.48,0,0,0,7.59,1q2.27,0,4.14,0c1.24,0,2.29-.08,3.11-.14,1-.06,1.91-.15,2.67-.26h.15a1,1,0,0,1,1,1v.55a8.8,8.8,0,0,1-.77,3.46,9.27,9.27,0,0,1-2.35,3.23,13,13,0,0,1-3.87,2.34A14.83,14.83,0,0,1,27,135.52Z"/><path class="cls-7" d="M2,70.43q11.17,0,11.17,10.71l.18,23.26a82.48,82.48,0,0,0,.5,10,15.38,15.38,0,0,0,2.11,6.5,8.73,8.73,0,0,0,4.58,3.53,24.31,24.31,0,0,0,7.92,1.05q2.29,0,4.17,0t3.16-.14q1.56-.09,2.75-.27v.55a7.78,7.78,0,0,1-.69,3.07,8.24,8.24,0,0,1-2.11,2.88,11.91,11.91,0,0,1-3.57,2.15,13.77,13.77,0,0,1-5.17.87A40.63,40.63,0,0,1,14.91,133a15.09,15.09,0,0,1-7.55-5.08,21.57,21.57,0,0,1-3.89-9.48,81.66,81.66,0,0,1-1.1-14.61V79.22q-.09-2.75-.09-4.44t-.09-2.7c-.06-.73-.12-1.28-.18-1.65m0-2a2,2,0,0,0-2,2.32c0,.22.09.65.16,1.49.06.63.08,1.48.08,2.53s0,2.66.09,4.47v24.6a84,84,0,0,0,1.13,15,23.63,23.63,0,0,0,4.28,10.34,17.12,17.12,0,0,0,8.53,5.75A42.78,42.78,0,0,0,27,136.52a15.79,15.79,0,0,0,5.92-1A13.94,13.94,0,0,0,37.08,133a10.25,10.25,0,0,0,2.6-3.58,9.8,9.8,0,0,0,.85-3.85V125a2,2,0,0,0-2-2l-.31,0c-.73.11-1.59.2-2.56.25s-1.87.1-3.09.14-2.54,0-4.12,0a22.53,22.53,0,0,1-7.25-.94,6.73,6.73,0,0,1-3.57-2.73,13.52,13.52,0,0,1-1.8-5.66,81,81,0,0,1-.49-9.73l-.18-23.27c0-8.18-4.68-12.7-13.17-12.7Z"/><path class="cls-7" d="M62.71,136.53a19.5,19.5,0,0,1-8.34-1.83,22.39,22.39,0,0,1-6.85-5A23,23,0,0,1,43,122.49a23.81,23.81,0,0,1-1.67-8.93,26.44,26.44,0,0,1,1.48-8.9A21.41,21.41,0,0,1,47,97.41a20,20,0,0,1,6.78-5,21.2,21.2,0,0,1,8.89-1.83,19.71,19.71,0,0,1,8.44,1.83,21.35,21.35,0,0,1,6.77,5,22.26,22.26,0,0,1,4.63,7.21,23.86,23.86,0,0,1,1.67,8.94,25.73,25.73,0,0,1-1.53,8.91,22,22,0,0,1-4.32,7.24,20.05,20.05,0,0,1-6.78,5A21.2,21.2,0,0,1,62.71,136.53Zm0-36.08a7.9,7.9,0,0,0-2.47.5,7,7,0,0,0-2.67,1.81,11,11,0,0,0-2.25,3.95,20.67,20.67,0,0,0-.95,6.85,20.24,20.24,0,0,0,.95,6.8,11.56,11.56,0,0,0,2.26,4,6.74,6.74,0,0,0,2.66,1.84,6.39,6.39,0,0,0,4.94,0,6.75,6.75,0,0,0,2.66-1.84,11.61,11.61,0,0,0,2.26-4,20.29,20.29,0,0,0,.95-6.8,20.7,20.7,0,0,0-.95-6.85,11.07,11.07,0,0,0-2.25-3.95,7,7,0,0,0-2.67-1.81A7.91,7.91,0,0,0,62.71,100.45Z"/><path class="cls-7" d="M62.71,91.58a18.64,18.64,0,0,1,8,1.74,20.26,20.26,0,0,1,6.46,4.76A21.21,21.21,0,0,1,81.61,105a22.75,22.75,0,0,1,1.6,8.56,24.62,24.62,0,0,1-1.47,8.56A20.94,20.94,0,0,1,77.63,129a19,19,0,0,1-6.46,4.76,20.12,20.12,0,0,1-8.47,1.74,18.42,18.42,0,0,1-7.92-1.74A21.33,21.33,0,0,1,48.24,129a22,22,0,0,1-4.35-6.91,22.71,22.71,0,0,1-1.6-8.56A25.33,25.33,0,0,1,43.71,105a20.32,20.32,0,0,1,4.07-6.91,19,19,0,0,1,6.45-4.76,20.12,20.12,0,0,1,8.47-1.74m0,36.08a8.8,8.8,0,0,0,2.79-.55,7.69,7.69,0,0,0,3.07-2.1,12.52,12.52,0,0,0,2.47-4.3,21.14,21.14,0,0,0,1-7.14,21.56,21.56,0,0,0-1-7.19,12,12,0,0,0-2.47-4.3A7.91,7.91,0,0,0,65.5,100a7.37,7.37,0,0,0-5.59,0,7.89,7.89,0,0,0-3.07,2.06,11.93,11.93,0,0,0-2.47,4.3,21.51,21.51,0,0,0-1,7.19,21.1,21.1,0,0,0,1,7.14,12.47,12.47,0,0,0,2.47,4.3,7.68,7.68,0,0,0,3.07,2.1,8.79,8.79,0,0,0,2.79.55m0-38.08a22.19,22.19,0,0,0-9.3,1.92,21.07,21.07,0,0,0-7.12,5.26,22.37,22.37,0,0,0-4.46,7.56,27.43,27.43,0,0,0-1.54,9.23A24.81,24.81,0,0,0,42,122.86a24,24,0,0,0,4.75,7.53,23.41,23.41,0,0,0,7.16,5.2,20.49,20.49,0,0,0,8.77,1.93,22.2,22.2,0,0,0,9.3-1.92,21.08,21.08,0,0,0,7.13-5.26,23,23,0,0,0,4.49-7.54,26.73,26.73,0,0,0,1.59-9.25,24.84,24.84,0,0,0-1.75-9.31,23.31,23.31,0,0,0-4.84-7.54,22.35,22.35,0,0,0-7.06-5.2,20.7,20.7,0,0,0-8.86-1.93Zm0,36.08a6.89,6.89,0,0,1-2.14-.44,5.76,5.76,0,0,1-2.26-1.58A10.58,10.58,0,0,1,56.25,120a19.28,19.28,0,0,1-.89-6.45,19.7,19.7,0,0,1,.89-6.51,10.06,10.06,0,0,1,2-3.59,6,6,0,0,1,2.28-1.56,5.43,5.43,0,0,1,4.29,0,6,6,0,0,1,2.28,1.56,10.1,10.1,0,0,1,2,3.59,19.74,19.74,0,0,1,.89,6.51,19.33,19.33,0,0,1-.88,6.45,10.64,10.64,0,0,1-2.05,3.62,5.78,5.78,0,0,1-2.26,1.58,6.93,6.93,0,0,1-2.15.44Z"/><path class="cls-7" d="M106.56,136.53a15,15,0,0,1-6.38-1.47,17.12,17.12,0,0,1-5.64-4.37,21.74,21.74,0,0,1-4-7.15,30.23,30.23,0,0,1-1.47-9.9l.09-26.46c0-4,1.11-6.87,3.3-8.65s5.2-2.6,9.15-2.6a1,1,0,0,1,1,1.14q-.09.62-.18,1.68c-.06.65-.1,1.54-.13,2.65s0,2.59,0,4.41l.08,4.77h11.28a1,1,0,0,1,1,1,10.33,10.33,0,0,1-2.56,7.27,9.41,9.41,0,0,1-7.23,2.79h-2.49l-.08,12a25,25,0,0,0,.65,6.19,11.88,11.88,0,0,0,1.72,3.93,6.78,6.78,0,0,0,5.6,2.7,11.3,11.3,0,0,0,3-.42l1.69-.53a1,1,0,0,1,1.32.95,1.66,1.66,0,0,0,.06.39,6.75,6.75,0,0,1,.21,1.62,7.07,7.07,0,0,1-.86,3.46,7.76,7.76,0,0,1-2.31,2.57A11.46,11.46,0,0,1,106.56,136.53Z"/><path class="cls-7" d="M101.62,76.93h0m0,0q-.09.64-.18,1.74t-.14,2.7q0,1.7,0,4.44l.09,5.77h12.27a9.32,9.32,0,0,1-2.29,6.59,8.42,8.42,0,0,1-6.5,2.47h-3.48l-.09,13a25.82,25.82,0,0,0,.69,6.46,12.81,12.81,0,0,0,1.88,4.26,7.81,7.81,0,0,0,6.41,3.11,12.25,12.25,0,0,0,3.3-.46l1.74-.55a2.64,2.64,0,0,0,.09.64,5.72,5.72,0,0,1,.18,1.38,6.06,6.06,0,0,1-.73,3,6.74,6.74,0,0,1-2,2.24,10.44,10.44,0,0,1-6.23,1.83,13.89,13.89,0,0,1-6-1.37A16.05,16.05,0,0,1,95.3,130a20.66,20.66,0,0,1-3.8-6.82,29.1,29.1,0,0,1-1.42-9.57l.09-26.46q0-5.49,2.93-7.87t8.52-2.38m12,14.65h0m-12-16.65h0c-4.18,0-7.47,1-9.78,2.83s-3.67,5.15-3.67,9.43l-.09,26.45a31.22,31.22,0,0,0,1.53,10.23,22.74,22.74,0,0,0,4.18,7.47,18.11,18.11,0,0,0,6,4.62,15.94,15.94,0,0,0,6.8,1.56,12.44,12.44,0,0,0,7.39-2.2,8.77,8.77,0,0,0,2.6-2.9,8.06,8.06,0,0,0,1-3.94,7.74,7.74,0,0,0-.24-1.86,1,1,0,0,1,0-.17,2,2,0,0,0-2-2,2,2,0,0,0-.64.1l-1.68.53a10.23,10.23,0,0,1-2.72.37,5.77,5.77,0,0,1-4.81-2.32,11,11,0,0,1-1.54-3.56,24,24,0,0,1-.62-5.95l.08-11h1.49a10.37,10.37,0,0,0,8-3.11,11.25,11.25,0,0,0,2.82-7.84s0-.07,0-.11a2,2,0,0,0-2-2H103.31l-.06-3.8c0-1.83,0-3.26,0-4.35s.07-1.95.13-2.57.11-1.16.16-1.54a2,2,0,0,0-2-2.38Zm0,4h0Z"/><path class="cls-7" d="M136.59,136.53a15,15,0,0,1-6.38-1.47,17.11,17.11,0,0,1-5.64-4.37,21.72,21.72,0,0,1-4-7.15,30.19,30.19,0,0,1-1.48-9.9l.09-26.46c0-4,1.11-6.87,3.3-8.65s5.2-2.6,9.14-2.6a1,1,0,0,1,1,1.14c-.06.41-.12,1-.18,1.68s-.1,1.54-.13,2.65,0,2.59,0,4.41l.08,4.77h11.29a1,1,0,0,1,1,1,10.33,10.33,0,0,1-2.55,7.27,9.41,9.41,0,0,1-7.24,2.79h-2.49l-.08,12a25,25,0,0,0,.65,6.19,11.88,11.88,0,0,0,1.72,3.93,6.78,6.78,0,0,0,5.6,2.7,11.29,11.29,0,0,0,3-.42c.58-.17,1.15-.35,1.69-.53a1,1,0,0,1,1.32.95,1.68,1.68,0,0,0,.06.4,6.75,6.75,0,0,1,.21,1.62,7.06,7.06,0,0,1-.86,3.46,7.76,7.76,0,0,1-2.31,2.57A11.46,11.46,0,0,1,136.59,136.53Z"/><path class="cls-7" d="M131.65,76.93h0m0,0c-.06.43-.12,1-.18,1.74s-.11,1.57-.14,2.7,0,2.61,0,4.44l.09,5.77h12.27a9.32,9.32,0,0,1-2.29,6.59,8.42,8.42,0,0,1-6.5,2.47h-3.48l-.09,13a25.83,25.83,0,0,0,.69,6.46,12.81,12.81,0,0,0,1.88,4.26,7.81,7.81,0,0,0,6.41,3.11,12.24,12.24,0,0,0,3.3-.46l1.74-.55a2.68,2.68,0,0,0,.09.64,5.71,5.71,0,0,1,.18,1.38,6,6,0,0,1-.73,3,6.75,6.75,0,0,1-2,2.24,10.44,10.44,0,0,1-6.23,1.83,13.9,13.9,0,0,1-6-1.37,16,16,0,0,1-5.31-4.12,20.64,20.64,0,0,1-3.8-6.82,29.07,29.07,0,0,1-1.42-9.57l.09-26.46q0-5.49,2.93-7.87t8.51-2.38m12,14.65h0m-12-16.65h0c-4.18,0-7.47,1-9.78,2.83s-3.67,5.15-3.67,9.43l-.09,26.45a31.19,31.19,0,0,0,1.53,10.23,22.71,22.71,0,0,0,4.18,7.47,18.1,18.1,0,0,0,6,4.62,15.94,15.94,0,0,0,6.8,1.56,12.44,12.44,0,0,0,7.39-2.2,8.77,8.77,0,0,0,2.6-2.9,8,8,0,0,0,1-3.94,7.73,7.73,0,0,0-.24-1.86,1.08,1.08,0,0,1,0-.17,2,2,0,0,0-2-2,2,2,0,0,0-.64.1l-1.68.53a10.23,10.23,0,0,1-2.72.37,5.78,5.78,0,0,1-4.81-2.32,11,11,0,0,1-1.54-3.56,24,24,0,0,1-.62-5.95l.08-11h1.49a10.37,10.37,0,0,0,8-3.11,11.25,11.25,0,0,0,2.82-7.84s0-.07,0-.11a2,2,0,0,0-2-2H133.34l-.06-3.8c0-1.82,0-3.25,0-4.35s.07-1.95.13-2.57.1-1.15.16-1.55a2,2,0,0,0-2-2.38Zm0,4h0Z"/><path class="cls-7" d="M170.11,136.53a19.51,19.51,0,0,1-8.35-1.83,22.39,22.39,0,0,1-6.85-5,23.06,23.06,0,0,1-4.55-7.22,23.8,23.8,0,0,1-1.67-8.93,26.41,26.41,0,0,1,1.48-8.9,21.38,21.38,0,0,1,4.28-7.25,20,20,0,0,1,6.78-5,21.19,21.19,0,0,1,8.89-1.83,19.7,19.7,0,0,1,8.44,1.83,21.36,21.36,0,0,1,6.77,5,22.28,22.28,0,0,1,4.63,7.21,23.86,23.86,0,0,1,1.67,8.94,25.74,25.74,0,0,1-1.53,8.91,22,22,0,0,1-4.32,7.24,20.07,20.07,0,0,1-6.78,5A21.21,21.21,0,0,1,170.11,136.53Zm0-36.08a7.9,7.9,0,0,0-2.47.5,6.94,6.94,0,0,0-2.67,1.81,11,11,0,0,0-2.25,3.95,20.65,20.65,0,0,0-.95,6.85,20.25,20.25,0,0,0,.95,6.8,11.56,11.56,0,0,0,2.26,4,6.73,6.73,0,0,0,2.66,1.84,6.39,6.39,0,0,0,4.94,0,6.75,6.75,0,0,0,2.66-1.84,11.61,11.61,0,0,0,2.26-4,20.3,20.3,0,0,0,.95-6.8,20.71,20.71,0,0,0-.95-6.85,11.07,11.07,0,0,0-2.25-3.95,7,7,0,0,0-2.67-1.81A7.91,7.91,0,0,0,170.11,100.45Z"/><path class="cls-7" d="M170.11,91.58a18.63,18.63,0,0,1,8,1.74,20.27,20.27,0,0,1,6.46,4.76A21.24,21.24,0,0,1,189,105a22.75,22.75,0,0,1,1.6,8.56,24.63,24.63,0,0,1-1.46,8.56A20.94,20.94,0,0,1,185,129a19,19,0,0,1-6.46,4.76,20.12,20.12,0,0,1-8.47,1.74,18.43,18.43,0,0,1-7.92-1.74,21.33,21.33,0,0,1-6.55-4.76,22,22,0,0,1-4.35-6.91,22.7,22.7,0,0,1-1.6-8.56,25.3,25.3,0,0,1,1.42-8.56,20.31,20.31,0,0,1,4.07-6.91,19,19,0,0,1,6.46-4.76,20.12,20.12,0,0,1,8.47-1.74m0,36.08a8.8,8.8,0,0,0,2.79-.55A7.7,7.7,0,0,0,176,125a12.52,12.52,0,0,0,2.47-4.3,21.15,21.15,0,0,0,1-7.14,21.57,21.57,0,0,0-1-7.19,12,12,0,0,0-2.47-4.3A7.91,7.91,0,0,0,172.9,100a7.37,7.37,0,0,0-5.59,0,7.89,7.89,0,0,0-3.07,2.06,11.92,11.92,0,0,0-2.47,4.3,21.51,21.51,0,0,0-1,7.19,21.09,21.09,0,0,0,1,7.14,12.46,12.46,0,0,0,2.47,4.3,7.67,7.67,0,0,0,3.07,2.1,8.79,8.79,0,0,0,2.79.55m0-38.08a22.19,22.19,0,0,0-9.3,1.92,21.06,21.06,0,0,0-7.13,5.26,22.35,22.35,0,0,0-4.46,7.56,27.41,27.41,0,0,0-1.53,9.23,24.8,24.8,0,0,0,1.75,9.31,24.06,24.06,0,0,0,4.74,7.53,23.42,23.42,0,0,0,7.16,5.2,20.5,20.5,0,0,0,8.77,1.93,22.2,22.2,0,0,0,9.3-1.92,21.08,21.08,0,0,0,7.13-5.26,23,23,0,0,0,4.5-7.54,26.74,26.74,0,0,0,1.59-9.25,24.84,24.84,0,0,0-1.75-9.31A23.33,23.33,0,0,0,186,96.71a22.35,22.35,0,0,0-7.07-5.2,20.69,20.69,0,0,0-8.86-1.93Zm0,36.08a6.9,6.9,0,0,1-2.14-.44,5.76,5.76,0,0,1-2.26-1.58,10.58,10.58,0,0,1-2.05-3.62,19.28,19.28,0,0,1-.89-6.45,19.69,19.69,0,0,1,.89-6.51,10.06,10.06,0,0,1,2-3.59,6,6,0,0,1,2.28-1.56,5.43,5.43,0,0,1,4.29,0,6,6,0,0,1,2.28,1.56,10.11,10.11,0,0,1,2,3.59,19.75,19.75,0,0,1,.89,6.51,19.33,19.33,0,0,1-.88,6.45,10.64,10.64,0,0,1-2.05,3.62,5.78,5.78,0,0,1-2.26,1.58,6.93,6.93,0,0,1-2.15.44Z"/><path class="cls-8" d="M198.76,125.42V80.83q0-5.49,3-7.83t8.65-2.34q-.09.55-.18,1.65t-.14,2.7q0,1.69,0,4.44L209.84,124q0,5.49-2.93,7.87t-8.52,2.38q.09-.55.18-1.65t.09-2.75Q198.67,128.17,198.76,125.42Z"/><path class="cls-9" d="M210.39,70.67q-.09.55-.18,1.65t-.14,2.7q0,1.69,0,4.44L209.84,124q0,5.49-2.93,7.87t-8.52,2.38q.09-.55.18-1.65t.09-2.75q0-1.74.09-4.49V80.83q0-5.49,3-7.83t8.65-2.34m0-2c-4.23,0-7.55.93-9.89,2.76s-3.74,5.11-3.74,9.4v44.56c-.06,1.82-.09,3.34-.09,4.52s0,1.95-.08,2.57-.11,1.19-.16,1.5a2,2,0,0,0,2,2.33c4.18,0,7.47-1,9.78-2.83s3.67-5.15,3.67-9.43L212,79.46c0-1.87,0-3.3,0-4.39s.07-1.94.13-2.58c.07-.85.13-1.28.16-1.5a2,2,0,0,0-2-2.33Zm0,4h0Z"/><path class="cls-10" d="M218.17,112.24a24.17,24.17,0,0,1,1.79-10,15.31,15.31,0,0,1,11-9.07,32.46,32.46,0,0,1,7-.78h4.49a9,9,0,0,1,.18,3.57,5.28,5.28,0,0,1-1.24,2.66,5,5,0,0,1-3.43,1.56,15.51,15.51,0,0,0-3.07.69,6.62,6.62,0,0,0-2.7,1.74,9.38,9.38,0,0,0-2,3.53,19.6,19.6,0,0,0-.78,6.14v13.28q0,2.75,0,4.44t.14,2.7q.09,1.1.18,1.65-5.59,0-8.61-2.33t-3-7.83Z"/><path class="cls-11" d="M242.44,92.37a9,9,0,0,1,.18,3.57,5.29,5.29,0,0,1-1.24,2.66,5,5,0,0,1-3.43,1.56,15.53,15.53,0,0,0-3.07.69,6.63,6.63,0,0,0-2.7,1.74,9.38,9.38,0,0,0-2,3.53,19.6,19.6,0,0,0-.78,6.14v13.28q0,2.75,0,4.44t.14,2.7q.09,1.1.18,1.65-5.59,0-8.61-2.33t-3-7.83v-11.9a24.17,24.17,0,0,1,1.79-10,15.31,15.31,0,0,1,11-9.07,32.47,32.47,0,0,1,7-.78h4.49m0-2H238a34.62,34.62,0,0,0-7.43.82,17.3,17.3,0,0,0-12.38,10.19,26.22,26.22,0,0,0-2,10.86v11.9c0,4.3,1.28,7.46,3.8,9.41,2.36,1.83,5.67,2.75,9.83,2.75a2,2,0,0,0,2-2.33c0-.21-.09-.65-.16-1.48q-.09-1-.13-2.59c0-1.07,0-2.51,0-4.39V112.24a17.81,17.81,0,0,1,.67-5.49,7.5,7.5,0,0,1,1.52-2.78,4.61,4.61,0,0,1,1.89-1.23,13.61,13.61,0,0,1,2.67-.6,6.9,6.9,0,0,0,4.74-2.27,7.29,7.29,0,0,0,1.67-3.63,11,11,0,0,0-.21-4.33,2,2,0,0,0-1.95-1.54Z"/><path class="cls-12" d="M258.73,84.18a5.93,5.93,0,0,1-5.31,3.2,6,6,0,0,1-2.75-.64,5.68,5.68,0,0,1-2.11-2.15,5.86,5.86,0,0,1-.73-2.88,5.93,5.93,0,0,1,.82-3.11A6,6,0,0,1,251,76.16a5.84,5.84,0,0,1,3-.87,5.29,5.29,0,0,1,2.66.73,4.91,4.91,0,0,1,2.2,2.11,6.14,6.14,0,0,1,.73,2.93A6.26,6.26,0,0,1,258.73,84.18Zm7.14,41.89a3.26,3.26,0,0,1-1.56,1.05,4.18,4.18,0,0,1-2.2.23,3.19,3.19,0,0,1-1.92-1.14,4.84,4.84,0,0,1-.82-3.16V101.16q0-2.75,0-4.44t.14-2.7q.09-1.1.18-1.74-5.68,0-8.61,2.38t-2.93,7.87l-.09,21.61a14.09,14.09,0,0,0,.69,4.4,9.91,9.91,0,0,0,2.11,3.66,9.67,9.67,0,0,0,3.52,2.43,10.26,10.26,0,0,0,4.94.6,6.09,6.09,0,0,0,4.3-1.69,7.85,7.85,0,0,0,1.83-3.16A12.21,12.21,0,0,0,265.88,126.06Z"/><path class="cls-13" d="M254,75.29a5.29,5.29,0,0,1,2.66.73,4.91,4.91,0,0,1,2.2,2.11,6.14,6.14,0,0,1,.73,2.93,6.26,6.26,0,0,1-.82,3.11,5.93,5.93,0,0,1-5.31,3.2,6,6,0,0,1-2.75-.64,5.69,5.69,0,0,1-2.11-2.15,5.86,5.86,0,0,1-.73-2.88,5.93,5.93,0,0,1,.82-3.11A6,6,0,0,1,251,76.16a5.84,5.84,0,0,1,3-.87m5.77,17q-.09.64-.18,1.74t-.14,2.7q0,1.7,0,4.44V123a4.85,4.85,0,0,0,.82,3.16,3.19,3.19,0,0,0,1.92,1.14,4.07,4.07,0,0,0,.68.06,4.29,4.29,0,0,0,1.52-.29,3.26,3.26,0,0,0,1.56-1.05,12.21,12.21,0,0,1-.37,4.3,7.86,7.86,0,0,1-1.83,3.16,6.09,6.09,0,0,1-4.3,1.69q-.68.07-1.32.07a9.44,9.44,0,0,1-3.63-.66,9.66,9.66,0,0,1-3.52-2.43,9.91,9.91,0,0,1-2.11-3.66,14.09,14.09,0,0,1-.69-4.4l.09-21.61q0-5.49,2.93-7.87t8.61-2.38m-5.77-19a7.84,7.84,0,0,0-4,1.15,8,8,0,0,0-3,3.16,8.17,8.17,0,0,0-.1,7.95,7.69,7.69,0,0,0,2.83,2.9l.13.07a8,8,0,0,0,3.64.85,7.93,7.93,0,0,0,7-4.18l0,0a8.26,8.26,0,0,0,1.08-4.09,8.15,8.15,0,0,0-1-3.87,6.89,6.89,0,0,0-3-2.93,7.28,7.28,0,0,0-3.6-1Zm5.77,17c-4.24,0-7.56,1-9.87,2.83s-3.67,5.15-3.67,9.42l-.09,21.6a16.17,16.17,0,0,0,.78,5,11.94,11.94,0,0,0,2.53,4.39,11.69,11.69,0,0,0,4.24,2.93,11.47,11.47,0,0,0,4.39.81c.48,0,1,0,1.47-.07a8,8,0,0,0,5.62-2.34,9.87,9.87,0,0,0,2.28-4,14.24,14.24,0,0,0,.43-5,2,2,0,0,0-3.62-1,1.59,1.59,0,0,1-.63.35,2.29,2.29,0,0,1-.82.16l-.35,0a1.2,1.2,0,0,1-.74-.47s-.34-.44-.34-1.86V101.16c0-1.87,0-3.3,0-4.39s.07-1.95.13-2.57.11-1.25.17-1.63a2,2,0,0,0-2-2.29Zm0,4h0Z"/><path class="cls-14" d="M291.88,123.59A3,3,0,0,0,291,121a11.29,11.29,0,0,0-3-2q-2-1-4.62-2.06a38,38,0,0,1-5.58-2.93,12.76,12.76,0,0,1-3.62-3.07,11.73,11.73,0,0,1-2.06-3.84,12.28,12.28,0,0,1-.55-4.21,11.84,11.84,0,0,1,1-4.26,10.55,10.55,0,0,1,2.38-3.39A13.16,13.16,0,0,1,278.19,93a15,15,0,0,1,3.62-1.24,17.43,17.43,0,0,1,3.39-.37h1.1a21.58,21.58,0,0,1,8.88,2.38A21.83,21.83,0,0,1,302,99.33l.27.27L302,100a6.61,6.61,0,0,1-2,1.92,4.18,4.18,0,0,1-2.29.64,6.27,6.27,0,0,1-2.47-.5L292.7,101q-1.74-.73-3.25-1.23a9.66,9.66,0,0,0-3.07-.5,4.52,4.52,0,0,0-3,.87,3.34,3.34,0,0,0-1.19,2.06,3.2,3.2,0,0,0,1.1,2.88A13,13,0,0,0,287,107.2q2.84,1.19,6,2.61a24,24,0,0,1,5.68,3.48,13.51,13.51,0,0,1,3.75,4.94,10.75,10.75,0,0,1,.28,7,13.54,13.54,0,0,1-1.56,3.43,11.78,11.78,0,0,1-3.07,3.25,17.43,17.43,0,0,1-4.76,2.43,20.16,20.16,0,0,1-6.55,1,6.39,6.39,0,0,1-1.19-.09,21.38,21.38,0,0,1-8.65-2.29,21,21,0,0,1-7.1-5.59l-.27-.27.27-.37a5,5,0,0,1,1-1.19l1-.82a4.88,4.88,0,0,1,2.2-.55,6.3,6.3,0,0,1,2.47.5q1.19.5,2.56,1.05a16.68,16.68,0,0,0,2.88,1.1,19.51,19.51,0,0,0,3.52.64q3.3,0,4.72-1.28A4.45,4.45,0,0,0,291.88,123.59Z"/><path class="cls-15" d="M286.29,91.36a21.58,21.58,0,0,1,8.88,2.38A21.82,21.82,0,0,1,302,99.33l.27.27L302,100a6.61,6.61,0,0,1-2,1.92,4.17,4.17,0,0,1-2.29.64,6.27,6.27,0,0,1-2.47-.5L292.7,101q-1.74-.73-3.25-1.24a9.67,9.67,0,0,0-3.07-.5,4.52,4.52,0,0,0-3,.87,3.34,3.34,0,0,0-1.19,2.06,3.2,3.2,0,0,0,1.1,2.88A13,13,0,0,0,287,107.2q2.84,1.19,6,2.61a24,24,0,0,1,5.68,3.48,13.51,13.51,0,0,1,3.75,4.94,10.75,10.75,0,0,1,.28,7,13.54,13.54,0,0,1-1.56,3.43,11.78,11.78,0,0,1-3.07,3.25,17.42,17.42,0,0,1-4.76,2.43,20.16,20.16,0,0,1-6.55,1,6.43,6.43,0,0,1-1.19-.09,21.39,21.39,0,0,1-8.65-2.29,21,21,0,0,1-7.1-5.58l-.27-.27.27-.37a5,5,0,0,1,1-1.19l1-.82a4.88,4.88,0,0,1,2.2-.55,6.3,6.3,0,0,1,2.47.5q1.19.5,2.56,1.05a16.69,16.69,0,0,0,2.88,1.1,19.47,19.47,0,0,0,3.52.64q3.3,0,4.72-1.28a4.45,4.45,0,0,0,1.6-2.56A3,3,0,0,0,291,121a11.29,11.29,0,0,0-3-2q-2-1-4.62-2.06a38,38,0,0,1-5.58-2.93,12.76,12.76,0,0,1-3.62-3.07,11.73,11.73,0,0,1-2.06-3.85,12.28,12.28,0,0,1-.55-4.21,11.83,11.83,0,0,1,1-4.26,10.55,10.55,0,0,1,2.38-3.39A13.16,13.16,0,0,1,278.19,93a15,15,0,0,1,3.62-1.24,17.46,17.46,0,0,1,3.39-.37h1.1m0-2h-1.1a19.51,19.51,0,0,0-3.78.4,17,17,0,0,0-4.1,1.4,15.21,15.21,0,0,0-3.74,2.58,12.58,12.58,0,0,0-2.83,4,13.92,13.92,0,0,0-1.18,5,14.33,14.33,0,0,0,.64,4.89,13.77,13.77,0,0,0,2.41,4.5,14.79,14.79,0,0,0,4.15,3.53,40.19,40.19,0,0,0,5.85,3.07c1.72.71,3.24,1.39,4.51,2a9.43,9.43,0,0,1,2.49,1.63,1,1,0,0,1,.3.93,2.8,2.8,0,0,1-1,1.34c-.31.28-1.15.75-3.28.76a17.39,17.39,0,0,1-3.07-.56,14.8,14.8,0,0,1-2.54-1l-.15-.07q-1.35-.54-2.53-1a8.32,8.32,0,0,0-3.25-.66,6.88,6.88,0,0,0-3.09.76,2,2,0,0,0-.35.23l-1,.85a7,7,0,0,0-1.38,1.59l-.23.3a2,2,0,0,0,.18,2.61l.21.21a23.14,23.14,0,0,0,7.7,6,23.5,23.5,0,0,0,9.32,2.49,8.76,8.76,0,0,0,1.41.1,22.23,22.23,0,0,0,7.2-1.07,19.49,19.49,0,0,0,5.31-2.72,13.81,13.81,0,0,0,3.58-3.81,15.59,15.59,0,0,0,1.78-3.94l0-.06a12.73,12.73,0,0,0-.39-8.29,15.56,15.56,0,0,0-4.3-5.67,26.12,26.12,0,0,0-6.15-3.77c-2.12-.94-4.17-1.82-6.08-2.63a11.25,11.25,0,0,1-3.19-1.8,1.21,1.21,0,0,1-.45-1.13,1.36,1.36,0,0,1,.51-.81,2.88,2.88,0,0,1,1.71-.38,7.71,7.71,0,0,1,2.44.4c1,.32,2,.72,3.11,1.18l2.56,1.05a8.28,8.28,0,0,0,3.25.66,6.17,6.17,0,0,0,3.33-.93,8.64,8.64,0,0,0,2.6-2.47l.25-.33a2,2,0,0,0-.19-2.62l-.2-.2a23.92,23.92,0,0,0-7.42-6,23.66,23.66,0,0,0-9.7-2.61Z"/><path class="cls-16" d="M349.47,125.42q0,2.75,0,4.49t.14,2.75q.09,1.1.18,1.65-5.68,0-8.7-2.38t-3-7.78L338,111.23a20.07,20.07,0,0,0-.78-6.18,9.91,9.91,0,0,0-2-3.66,6.24,6.24,0,0,0-2.75-1.79,10.52,10.52,0,0,0-6.13,0,6.25,6.25,0,0,0-2.75,1.79,9.47,9.47,0,0,0-2,3.66,21.21,21.21,0,0,0-.73,6.18v14.19q0,2.75,0,4.49t.14,2.75q.09,1.1.18,1.65-5.68,0-8.65-2.38t-3-7.78l.09-43.31q0-5.49,2.84-7.83t8.52-2.34q-.09.55-.18,1.65t-.14,2.75q0,1.74,0,4.49V92.64a21,21,0,0,1,4.35-1,35.7,35.7,0,0,1,4.35-.27,33.48,33.48,0,0,1,7.14.78,16.23,16.23,0,0,1,6.45,3,15.68,15.68,0,0,1,4.67,6.09,24.17,24.17,0,0,1,1.79,10Z"/><path class="cls-17" d="M321.09,70.67h0m0,0q-.09.55-.18,1.65t-.14,2.75q0,1.74,0,4.49V92.64a21,21,0,0,1,4.35-1,35.75,35.75,0,0,1,4.35-.27,33.47,33.47,0,0,1,7.14.78,16.23,16.23,0,0,1,6.45,3,15.68,15.68,0,0,1,4.67,6.09,24.17,24.17,0,0,1,1.79,10v14.19q0,2.75,0,4.49t.14,2.75q.09,1.1.18,1.65-5.68,0-8.7-2.38t-3-7.78L338,111.23a20.07,20.07,0,0,0-.78-6.18,9.92,9.92,0,0,0-2-3.66,6.24,6.24,0,0,0-2.75-1.79,10.51,10.51,0,0,0-6.13,0,6.24,6.24,0,0,0-2.75,1.79,9.47,9.47,0,0,0-2,3.66,21.21,21.21,0,0,0-.73,6.18v14.19q0,2.75,0,4.49t.14,2.75c.06.73.12,1.28.18,1.65q-5.68,0-8.65-2.38t-3-7.78l.09-43.31q0-5.49,2.84-7.83t8.52-2.34m0-2h0c-4.24,0-7.54.94-9.79,2.79s-3.57,5.1-3.57,9.37l-.09,43.3c0,4.23,1.25,7.37,3.73,9.35s5.67,2.82,9.9,2.82a2,2,0,0,0,2-2.33c0-.22-.09-.66-.16-1.48-.06-.64-.1-1.52-.13-2.64s0-2.55,0-4.43V111.23a19.42,19.42,0,0,1,.64-5.58,7.57,7.57,0,0,1,1.53-2.9,4.24,4.24,0,0,1,1.87-1.23,8.51,8.51,0,0,1,5,0,4.25,4.25,0,0,1,1.86,1.23,8,8,0,0,1,1.58,2.93,18.26,18.26,0,0,1,.68,5.55l.09,12.92c0,4.22,1.27,7.36,3.78,9.34s5.71,2.81,9.94,2.81a2,2,0,0,0,2-2.33c0-.21-.09-.64-.16-1.48-.06-.66-.1-1.54-.13-2.63s0-2.57,0-4.44V111.23a26.22,26.22,0,0,0-2-10.86,17.72,17.72,0,0,0-5.28-6.85A18.3,18.3,0,0,0,337,90.18a35.63,35.63,0,0,0-7.57-.82,37.94,37.94,0,0,0-4.59.29q-1.06.13-2.11.36V79.55c0-1.89,0-3.34,0-4.43s.07-2,.13-2.62.11-1.17.15-1.41a2,2,0,0,0-2-2.42Zm0,4h0Z"/></g></g></svg>