<svg xmlns="http://www.w3.org/2000/svg" xmlns:xlink="http://www.w3.org/1999/xlink" viewBox="0 0 416.98 179.28"><defs><style>.cls-1{fill:#349e36;}.cls-1,.cls-10,.cls-11,.cls-12,.cls-13,.cls-14,.cls-15,.cls-2,.cls-3,.cls-4,.cls-5,.cls-6,.cls-7,.cls-8,.cls-9{fill-rule:evenodd;}.cls-2{fill:url(#New_Gradient_Swatch_1);}.cls-3{fill:url(#New_Gradient_Swatch_1-2);}.cls-5{fill:url(#New_Gradient_Swatch_1-3);}.cls-6{fill:url(#New_Gradient_Swatch_1-4);}.cls-7{fill:url(#New_Gradient_Swatch_1-5);}.cls-8{fill:url(#New_Gradient_Swatch_1-6);}.cls-9{fill:url(#New_Gradient_Swatch_1-7);}.cls-10{fill:url(#New_Gradient_Swatch_1-8);}.cls-11{fill:url(#New_Gradient_Swatch_1-9);}.cls-12{fill:url(#New_Gradient_Swatch_1-10);}.cls-13{fill:url(#New_Gradient_Swatch_1-11);}.cls-14{fill:url(#New_Gradient_Swatch_1-12);}.cls-15{fill:#020202;}</style><radialGradient id="New_Gradient_Swatch_1" cx="173.85" cy="95.18" r="29.42" gradientUnits="userSpaceOnUse"><stop offset="0.01" stop-color="#fff"/><stop offset="1" stop-color="#fff"/></radialGradient><radialGradient id="New_Gradient_Swatch_1-2" cx="51.57" cy="87.71" r="28.97" xlink:href="#New_Gradient_Swatch_1"/><radialGradient id="New_Gradient_Swatch_1-3" cx="366.85" cy="95.75" r="23.25" xlink:href="#New_Gradient_Swatch_1"/><radialGradient id="New_Gradient_Swatch_1-4" cx="320.64" cy="95.77" r="23.26" xlink:href="#New_Gradient_Swatch_1"/><radialGradient id="New_Gradient_Swatch_1-5" cx="253.43" cy="87.42" r="26.09" xlink:href="#New_Gradient_Swatch_1"/><radialGradient id="New_Gradient_Swatch_1-6" cx="96.54" cy="95.2" r="20.44" xlink:href="#New_Gradient_Swatch_1"/><radialGradient id="New_Gradient_Swatch_1-7" cx="223.12" cy="95.75" r="17.91" xlink:href="#New_Gradient_Swatch_1"/><radialGradient id="New_Gradient_Swatch_1-8" cx="124.63" cy="95.76" r="17.9" xlink:href="#New_Gradient_Swatch_1"/><radialGradient id="New_Gradient_Swatch_1-9" cx="285.31" cy="95.76" r="17.9" xlink:href="#New_Gradient_Swatch_1"/><radialGradient id="New_Gradient_Swatch_1-10" cx="223.12" cy="59.26" r="8.57" xlink:href="#New_Gradient_Swatch_1"/><radialGradient id="New_Gradient_Swatch_1-11" cx="124.63" cy="59.27" r="8.55" xlink:href="#New_Gradient_Swatch_1"/><radialGradient id="New_Gradient_Swatch_1-12" cx="285.31" cy="59.26" r="8.55" xlink:href="#New_Gradient_Swatch_1"/></defs><title>Asset 23</title><g id="Layer_2" data-name="Layer 2"><g id="Layer_1-2" data-name="Layer 1"><path class="cls-1" d="M408.22,40.35H233.57V8.6c0-4.75-1.16-8.6-2.6-8.6H112.57c-1.43,0-2.6,3.85-2.6,8.6V40.35H8.76C3.92,40.35,0,43.82,0,48.1v81.35c0,4.28,3.92,7.75,8.76,7.75H408.22c4.84,0,8.76-3.47,8.76-7.75V48.1C417,43.82,413.06,40.35,408.22,40.35Z"/><path class="cls-2" d="M157.69,79.38c2.49-6,7.12-8.6,13.41-8.29,5.54.27,8.65,2.47,11,7.44.14-.09.34-.15.39-.28,1.74-4.3,5.31-6.13,9.54-7a15.46,15.46,0,0,1,7.32.4,10,10,0,0,1,7,6.56,24.19,24.19,0,0,1,1.35,8.27c0,9.74,0,19.49,0,29.23,0,.8,0,1.6,0,2.41,0,1.19,0,1.21-1.27,1.21-4.07,0-8.14,0-12.21,0-1.26,0-2.52,0-3.78,0-.74,0-1-.24-1-1,0-1.32,0-2.63,0-4q0-11.78,0-23.55A10,10,0,0,0,189,88a2.85,2.85,0,0,0-2.89-2.24A2.76,2.76,0,0,0,183.43,88a13.25,13.25,0,0,0-.43,3.74q0,12.64,0,25.28c0,.34,0,.69,0,1,0,1.29,0,1.31-1.35,1.31H166.18c-1.46,0-1.47,0-1.47-1.53q0-13.15,0-26.31a11.31,11.31,0,0,0-.34-3.41,2.86,2.86,0,0,0-2.78-2.37A2.82,2.82,0,0,0,158.75,88a15,15,0,0,0-.4,4.6c0,8.14,0,16.28,0,24.41,0,.4,0,.8,0,1.2.06.78-.21,1.12-1.07,1.12q-8.08,0-16.16,0c-.81,0-1.18-.25-1.1-1.08,0-.34,0-.69,0-1q0-21.49,0-43c0-.34,0-.69,0-1-.08-.83.3-1.1,1.1-1.09,2.58,0,5.16,0,7.74,0h6.71c1.8,0,1.8,0,1.81,1.74,0,1.49,0,3,0,4.47C157.37,78.67,157.24,79,157.69,79.38Z"/><path class="cls-3" d="M25.55,87.7q0-14.87,0-29.75c0-2.21.06-1.86,1.85-1.86q15.65,0,31.3,0A17.79,17.79,0,0,1,72,61.41a17.37,17.37,0,0,1,4.36,7.88,33.76,33.76,0,0,1-.79,20.28C73,96.89,67.14,101,59.38,101.13c-4.3.08-8.6,0-12.9,0-1.47,0-1.48,0-1.48,1.52q0,7.57,0,15.13c0,1.52,0,1.54-1.46,1.54H27c-1.45,0-1.47,0-1.47-1.55Q25.54,102.75,25.55,87.7Zm19-9.16c0,2.23,0,4.46,0,6.69,0,.85.19,1.25,1.14,1.2,1.43-.08,2.86,0,4.29-.05,5.69-.19,8.32-3,8.1-8.72,0-.17,0-.34,0-.51a6.14,6.14,0,0,0-5.21-6c-2.37-.55-4.78-.27-7.17-.39-1,0-1.12.41-1.11,1.22C44.58,74.2,44.55,76.37,44.55,78.55Z"/><path class="cls-4" d="M137.37,35.27V12c0-.32,0-.64,0-1-.05-.65.23-.89.88-.87,1.23,0,2.46,0,3.7,0h9.58c1.53,0,1.38-.05,1.38,1.43q0,16.15,0,32.31c0,1.74-.24,1.63,1.59,1.63h16.84a.46.46,0,0,1,.5.51c0,.18,0,.37,0,.55q0,6.37,0,12.73c0,1.1,0,1.11-1.14,1.11H138.54c-1.15,0-1.16,0-1.16-1.24Q137.37,47.24,137.37,35.27Z"/><path class="cls-5" d="M349.74,86.69c-.36-.4-.21-.88-.21-1.32q0-5.07,0-10.14c0-1.46,0-1.44,1.36-1.93a42.79,42.79,0,0,1,16.75-2.2,34.13,34.13,0,0,1,9.13,1.44c6.93,2.23,10.55,7.12,11.47,14.19a41.73,41.73,0,0,1,.29,5.49q0,12.47,0,24.93c0,.4,0,.8,0,1.2.06.73-.23,1-1,1-1.37,0-2.75,0-4.13,0-3.55,0-7.11,0-10.66,0-1.23,0-1.26,0-1.27-1.22,0-1.65,0-3.3,0-5-.63.09-.66.56-.85.87a13.45,13.45,0,0,1-14,6.25,17.63,17.63,0,0,1-2.84-.67c-5.15-1.8-7.83-5.58-8.43-10.88a21.25,21.25,0,0,1,.76-8.68c1.8-5.89,6.05-8.95,11.84-10.22a35.17,35.17,0,0,1,12.48-.21c1.35.19,1.51,0,1.25-1.29a5.64,5.64,0,0,0-4.3-4.65,18.92,18.92,0,0,0-8.85-.23,26.88,26.88,0,0,0-7.39,2.71C350.68,86.36,350.31,86.78,349.74,86.69ZM369.2,98.64a15.57,15.57,0,0,0-3.46.39,4.71,4.71,0,0,0-3.82,5.29c.18,3.06,2,4.54,5,4a4.65,4.65,0,0,0,3-2,9.33,9.33,0,0,0,1.72-5.12C371.83,98.11,372.13,98.72,369.2,98.64Z"/><path class="cls-4" d="M177.81,34.46c0-3.26,0-6.45,0-9.64,0-.6.32-.78.77-.93a29.46,29.46,0,0,1,6.76-1.64,39.69,39.69,0,0,1,12.39.46,19,19,0,0,1,2.74.83c4.68,1.82,7.22,5.35,8,10.22a24.33,24.33,0,0,1,.3,4.09q0,10.61,0,21.21c0,.14,0,.27,0,.41,0,1,0,1-1,1h-9.31c-.78,0-1.55,0-2.33,0s-.9-.18-.88-.85c0-1.37,0-2.74,0-4.11-.51-.15-.51.31-.64.53-3.87,6.61-11.86,6.12-15.93,3.44A9.57,9.57,0,0,1,174.58,53a16.59,16.59,0,0,1,.33-7.46c1.29-4.9,4.7-7.52,9.48-8.59a27.91,27.91,0,0,1,9.93-.2c1.17.16,1.25.09,1-1.09A4.39,4.39,0,0,0,192,32.05a14.13,14.13,0,0,0-5.28-.45A20.26,20.26,0,0,0,179.09,34,2.34,2.34,0,0,1,177.81,34.46ZM193.33,44a16.08,16.08,0,0,0-2.35.23c-3.08.68-3.68,2.82-3.19,5.37a2.55,2.55,0,0,0,2.37,2.13,3.82,3.82,0,0,0,4-1.76,8.48,8.48,0,0,0,1.29-4.13c.15-1.84.17-1.84-1.62-1.84Z"/><path class="cls-6" d="M297.83,72.34a2.13,2.13,0,0,1,1.33-.17h15.64c1.51,0,1.54,0,1.78,1.57q1.8,11.79,3.57,23.59c.25,1.64.51,3.28.79,5.08.77-1.2.66-2.47.84-3.63q2-12.72,3.85-25.46c.12-.85.4-1.17,1.28-1.17,5.21,0,10.43,0,15.64,0,1.07,0,1.12.09.84,1.25q-2.33,9.68-4.69,19.35l-6.12,25.18c-.35,1.44-.36,1.46-1.76,1.46H310.2c-1.39,0-1.41,0-1.71-1.31q-5.32-22.37-10.63-44.75A1.57,1.57,0,0,1,297.83,72.34Z"/><path class="cls-7" d="M261.67,54.42v8.72c0,2.52,0,5,0,7.56,0,1.43,0,1.44,1.39,1.45,1.89,0,3.78,0,5.67,0,.84,0,1.23.18,1.22,1.14q-.08,5.67,0,11.34c0,1-.41,1.13-1.23,1.12-1.89,0-3.78,0-5.67,0-1.35,0-1.37,0-1.37,1.28,0,4.06,0,8.13,0,12.2a9.76,9.76,0,0,0,.48,3,3.8,3.8,0,0,0,4.45,2.88,14,14,0,0,0,3.32-.74v5.53c0,2.35,0,4.7,0,7,0,.64-.14,1.07-.81,1.29-4.88,1.61-9.82,2.7-15,1.84a11.15,11.15,0,0,1-8.94-7.16,23.19,23.19,0,0,1-1.71-8.71c-.07-5.38,0-10.77,0-16.15,0-.23,0-.46,0-.69,0-1.79.1-1.68-1.67-1.68-1.26,0-2.52,0-3.78,0-.69,0-1-.16-1-1q0-5.84,0-11.68c0-.79.37-1,1-1,1.43,0,2.86,0,4.29,0,.92,0,1.17-.34,1.16-1.21,0-2.86,0-5.73,0-8.59a1.34,1.34,0,0,1,1-1.51c5.52-2.07,11-4.19,16.52-6.29A6.09,6.09,0,0,1,261.67,54.42Z"/><path class="cls-8" d="M97.72,82.27a2.86,2.86,0,0,0,.91-1.62,21.07,21.07,0,0,1,3.62-6.19,9.36,9.36,0,0,1,9.09-3.24c.75.13,1.08.42,1.07,1.23,0,5.78,0,11.57,0,17.35a1.9,1.9,0,0,1-.12.41c-1-.14-2-.31-3-.41a8,8,0,0,0-7.34,3.28,13.57,13.57,0,0,0-3,8.6c0,5.27,0,10.54,0,15.81,0,2,.19,1.88-1.82,1.88H82.34c-1.66,0-1.67,0-1.68-1.68q0-18.73,0-37.45c0-2.29,0-4.58,0-6.87,0-.85.21-1.21,1.14-1.2q7.39.06,14.77,0c.91,0,1.17.31,1.16,1.19C97.69,76.25,97.72,79.17,97.72,82.27Z"/><path class="cls-9" d="M214,95.61V74.3c0-.34,0-.69,0-1-.08-.79.21-1.13,1.06-1.13q8.08,0,16.15,0c.79,0,1.2.22,1.12,1.07,0,.34,0,.69,0,1V117c0,.34,0,.69,0,1,0,1.25,0,1.28-1.22,1.28q-7.91,0-15.81,0c-1.25,0-1.27,0-1.28-1.39,0-4.24,0-8.48,0-12.72Z"/><path class="cls-10" d="M133.76,95.86q0,10.65,0,21.3c0,.4,0,.8,0,1.2.06.74-.24,1-1,1-1.31,0-2.63,0-4,0H117c-1.44,0-1.46,0-1.46-1.37q0-22.25,0-44.49c0-1.3,0-1.32,1.33-1.32q7.82,0,15.63,0c1.26,0,1.28,0,1.28,1.36Q133.76,84.69,133.76,95.86Z"/><path class="cls-11" d="M294.44,95.83q0,10.65,0,21.3c0,.4,0,.8,0,1.2,0,.71-.21,1.07-1,1s-1.26,0-1.89,0c-4.7,0-9.39,0-14.09,0-1.29,0-1.32,0-1.32-1.34q0-22.25,0-44.5c0-1.32,0-1.34,1.32-1.35q7.82,0,15.63,0c1.29,0,1.31,0,1.31,1.34Q294.45,84.67,294.44,95.83Z"/><path class="cls-12" d="M223,67.16c-2.58,0-5.15,0-7.73,0-1.27,0-1.3,0-1.3-1.18,0-4.46,0-8.93,0-13.39,0-.85.21-1.23,1.14-1.22q8,.05,16,0c.85,0,1.25.19,1.24,1.13,0,4.52,0,9,0,13.56,0,1-.41,1.13-1.24,1.12C228.37,67.14,225.68,67.16,223,67.16Z"/><path class="cls-13" d="M124.75,51.37c2.57,0,5.15,0,7.72,0,1.25,0,1.28,0,1.29,1.2,0,4.46,0,8.92,0,13.38,0,.82-.14,1.23-1.11,1.22q-8.06-.06-16.12,0c-.85,0-1.06-.31-1.05-1.11q0-6.78,0-13.55c0-.92.34-1.17,1.2-1.15C119.37,51.4,122.06,51.37,124.75,51.37Z"/><path class="cls-14" d="M285.18,67.16c-2.57,0-5.15,0-7.72,0-1.26,0-1.28,0-1.29-1.19q0-6.69,0-13.38c0-1.17,0-1.2,1.28-1.21,5.26,0,10.52,0,15.78,0,.85,0,1.23.21,1.22,1.14,0,4.52,0,9,0,13.55,0,1-.39,1.13-1.22,1.12C290.55,67.14,287.86,67.16,285.18,67.16Z"/><path class="cls-15" d="M184.3,177a65.39,65.39,0,0,1-12.44,2.26,35.17,35.17,0,0,1-15.3-2.36l-6.61-3.2c-1.28-.88-2.55-1.77-3.83-2.64-4.64-3.12-8.57-7.05-12.66-10.81a11.73,11.73,0,0,0-3.1-3.58l-9.89-13.55c-.17-.35-.36-.7-.5-1.06-.62-1.59-1.69-1.9-3.28-1.4a23.1,23.1,0,0,0-5.33,2.45c-1.94.22-3.87.95-5.81,0a3.83,3.83,0,0,1-.88-3,2.79,2.79,0,0,1,2.64-.89c5.6.36,9.85-2.48,11.76-7.79.27-.74.45-1.51.76-2.23a2.25,2.25,0,0,1,2.58-1.49,2.46,2.46,0,0,1,2.07,2.2,4.82,4.82,0,0,1-2,4.67,4.78,4.78,0,0,0-1.59,5.5c.14,1.47,1.24,2.34,2.09,3.37a38.72,38.72,0,0,0,13.89,13.32,16.7,16.7,0,0,0,5.78,3.61c1.84,1.55,4.1,2.29,6.24,3.26a54,54,0,0,0,17.85,4.8c11.32.93,21.5-2.62,31.17-8.08a19,19,0,0,0,5.88-3.6,61.55,61.55,0,0,0,16.26-13.27,10.38,10.38,0,0,0,3.41-3.43,67.86,67.86,0,0,0,7.07-8.57,1.35,1.35,0,0,0-.36-2.21,30.21,30.21,0,0,0-4.38-2.92c-.58-1.18-1.79-2-1.94-3.43a10,10,0,0,1,.29-1.45,2.74,2.74,0,0,1,5.34-.07,2.31,2.31,0,0,0,.86,1.5,5.43,5.43,0,0,0,2.53,3.57,13.14,13.14,0,0,0,9.38,4.8,6.35,6.35,0,0,1,3.06.94c1.28.81,1.38,2.09,1.1,3.39s-1.33,1.55-2.49,1.58a6.78,6.78,0,0,1-3.67-.91q-2.41-1.41-4.74-2.94c-.85-.56-1.56-.8-2.18.29-1.16,2-2.81,3.77-3.7,6-1.16.73-1.62,2.07-2.58,3-.69.93-1.4,1.85-2.07,2.8-2.83,4-6.5,7.3-9.49,11.17-1.48.76-2.37,2.17-3.62,3.19a89.72,89.72,0,0,1-19.36,13.9Z"/></g></g></svg>