<svg xmlns="http://www.w3.org/2000/svg" xmlns:xlink="http://www.w3.org/1999/xlink" viewBox="0 0 226.33 205.97"><defs><style>.cls-1{fill:#216ffa;}.cls-2{isolation:isolate;}.cls-3,.cls-4{mix-blend-mode:color-dodge;}.cls-3{fill:url(#radial-gradient);}.cls-4{fill:url(#radial-gradient-2);}.cls-11,.cls-13,.cls-14,.cls-16,.cls-17,.cls-20,.cls-23,.cls-26,.cls-27,.cls-31,.cls-32,.cls-35,.cls-36,.cls-5,.cls-7,.cls-9{mix-blend-mode:multiply;}.cls-5{fill:url(#radial-gradient-3);}.cls-10,.cls-11,.cls-12,.cls-14,.cls-15,.cls-17,.cls-18,.cls-20,.cls-21,.cls-23,.cls-24,.cls-27,.cls-28,.cls-31,.cls-32,.cls-33,.cls-35,.cls-36,.cls-37,.cls-6,.cls-8,.cls-9{opacity:0.5;}.cls-10,.cls-12,.cls-15,.cls-18,.cls-21,.cls-24,.cls-28,.cls-33,.cls-37,.cls-6,.cls-8{mix-blend-mode:screen;}.cls-6{fill:url(#radial-gradient-4);}.cls-7{fill:url(#radial-gradient-5);}.cls-8{fill:url(#radial-gradient-6);}.cls-9{fill:url(#linear-gradient);}.cls-10{fill:url(#radial-gradient-7);}.cls-11{fill:url(#linear-gradient-2);}.cls-12{fill:url(#radial-gradient-8);}.cls-13{fill:url(#radial-gradient-9);}.cls-14{fill:url(#linear-gradient-3);}.cls-15{fill:url(#radial-gradient-10);}.cls-16{fill:url(#radial-gradient-11);}.cls-17{fill:url(#linear-gradient-4);}.cls-18{fill:url(#radial-gradient-12);}.cls-19{fill:url(#radial-gradient-13);}.cls-20{fill:url(#linear-gradient-5);}.cls-21{fill:url(#radial-gradient-14);}.cls-22{fill:url(#radial-gradient-15);}.cls-23{fill:url(#linear-gradient-6);}.cls-24{fill:url(#radial-gradient-16);}.cls-25{fill:url(#radial-gradient-17);}.cls-26{fill:url(#radial-gradient-18);}.cls-27{fill:url(#linear-gradient-7);}.cls-28{fill:url(#radial-gradient-19);}.cls-29{fill:url(#radial-gradient-20);}.cls-30{fill:url(#radial-gradient-21);}.cls-31{fill:url(#linear-gradient-8);}.cls-32{fill:url(#linear-gradient-9);}.cls-33{fill:url(#radial-gradient-22);}.cls-34{fill:url(#radial-gradient-23);}.cls-35{fill:url(#linear-gradient-10);}.cls-36{fill:url(#linear-gradient-11);}.cls-37{fill:url(#radial-gradient-24);}.cls-38{fill:#dd0b1b;}.cls-39{clip-path:url(#clip-path);}.cls-40{clip-path:url(#clip-path-2);}.cls-41{clip-path:url(#clip-path-3);}.cls-42{clip-path:url(#clip-path-4);}.cls-43{fill:#fff;}.cls-44{fill:#404040;}.cls-45{clip-path:url(#clip-path-5);}.cls-46{clip-path:url(#clip-path-6);}.cls-47{clip-path:url(#clip-path-7);}</style><radialGradient id="radial-gradient" cx="3235.23" cy="5.63" r="0" gradientTransform="matrix(-1, 0, 0, 1, 3272.89, 0)" gradientUnits="userSpaceOnUse"><stop offset="0" stop-color="#fff"/><stop offset="0.04" stop-color="#eaeaea"/><stop offset="0.15" stop-color="#b4b4b4"/><stop offset="0.26" stop-color="#848484"/><stop offset="0.37" stop-color="#5b5b5b"/><stop offset="0.49" stop-color="#3a3a3a"/><stop offset="0.61" stop-color="#212121"/><stop offset="0.73" stop-color="#0e0e0e"/><stop offset="0.86" stop-color="#040404"/><stop offset="1"/></radialGradient><radialGradient id="radial-gradient-2" cx="3258.9" cy="1.75" r="0" gradientTransform="matrix(-1, 0, 0, 1, 3272.89, 0)" gradientUnits="userSpaceOnUse"><stop offset="0" stop-color="#fff"/><stop offset="0" stop-color="#fafafa"/><stop offset="0.05" stop-color="#cbcbcb"/><stop offset="0.1" stop-color="#a0a0a0"/><stop offset="0.15" stop-color="#7a7a7a"/><stop offset="0.2" stop-color="#595959"/><stop offset="0.27" stop-color="#3d3d3d"/><stop offset="0.34" stop-color="#262626"/><stop offset="0.42" stop-color="#151515"/><stop offset="0.52" stop-color="#090909"/><stop offset="0.65" stop-color="#020202"/><stop offset="1"/></radialGradient><radialGradient id="radial-gradient-3" cx="-136.1" cy="-184.59" r="32.24" gradientTransform="translate(130.87 151.71) rotate(0.97) scale(0.97)" gradientUnits="userSpaceOnUse"><stop offset="0" stop-color="#fbff7d"/><stop offset="1" stop-color="#f1e17d"/></radialGradient><radialGradient id="radial-gradient-4" cx="7.02" cy="412.93" r="154.69" gradientTransform="translate(-29.62 -277.22) scale(1.04 1.04)" gradientUnits="userSpaceOnUse"><stop offset="0.62"/><stop offset="0.66" stop-color="#050505"/><stop offset="0.72" stop-color="#131313"/><stop offset="0.77" stop-color="#2b2b2b"/><stop offset="0.83" stop-color="#4b4b4b"/><stop offset="0.9" stop-color="#757575"/><stop offset="0.9" stop-color="#797979"/><stop offset="0.91" stop-color="gray"/><stop offset="0.93" stop-color="#949494"/><stop offset="0.96" stop-color="#b5b5b5"/><stop offset="0.99" stop-color="#e3e3e3"/><stop offset="1" stop-color="#fff"/></radialGradient><radialGradient id="radial-gradient-5" cx="-136.09" cy="-184.64" r="32.26" xlink:href="#radial-gradient-3"/><radialGradient id="radial-gradient-6" cx="6.89" cy="414.69" r="156.41" xlink:href="#radial-gradient-4"/><linearGradient id="linear-gradient" x1="-115.7" y1="16.29" x2="-70.38" y2="16.29" gradientTransform="matrix(1, 0.02, -0.02, 1, 109.29, -14.73)" gradientUnits="userSpaceOnUse"><stop offset="0" stop-color="#dcb200"/><stop offset="1" stop-color="#d48100"/></linearGradient><radialGradient id="radial-gradient-7" cx="7.03" cy="416.37" r="157.99" xlink:href="#radial-gradient-4"/><linearGradient id="linear-gradient-2" x1="-115.83" y1="16.57" x2="-70.33" y2="16.57" xlink:href="#linear-gradient"/><radialGradient id="radial-gradient-8" cx="6.9" cy="415.52" r="157.21" xlink:href="#radial-gradient-4"/><radialGradient id="radial-gradient-9" cx="-136.03" cy="-184.91" r="32.4" xlink:href="#radial-gradient-3"/><linearGradient id="linear-gradient-3" x1="-115.94" y1="16.26" x2="-70.28" y2="16.26" xlink:href="#linear-gradient"/><radialGradient id="radial-gradient-10" cx="6.92" cy="415.05" r="156.75" xlink:href="#radial-gradient-4"/><radialGradient id="radial-gradient-11" cx="-135.97" cy="-184.71" r="32.24" xlink:href="#radial-gradient-3"/><linearGradient id="linear-gradient-4" x1="-115.94" y1="16.55" x2="-70.28" y2="16.55" xlink:href="#linear-gradient"/><radialGradient id="radial-gradient-12" cx="6.83" cy="414.77" r="156.51" xlink:href="#radial-gradient-4"/><radialGradient id="radial-gradient-13" cx="-173.68" cy="-184.83" r="53.39" gradientTransform="translate(130.87 151.71) rotate(0.97) scale(0.97)" gradientUnits="userSpaceOnUse"><stop offset="0" stop-color="#ffe800"/><stop offset="1" stop-color="#dd9800"/></radialGradient><linearGradient id="linear-gradient-5" x1="-168.58" y1="16.41" x2="-83.16" y2="16.41" gradientTransform="matrix(1, 0.02, -0.02, 1, 109.29, -14.73)" gradientUnits="userSpaceOnUse"><stop offset="0" stop-color="#f4eb53"/><stop offset="1" stop-color="#e5c456"/></linearGradient><radialGradient id="radial-gradient-14" cx="6.97" cy="415.69" r="157.35" xlink:href="#radial-gradient-4"/><radialGradient id="radial-gradient-15" cx="-173.76" cy="-184.78" r="53.42" xlink:href="#radial-gradient-13"/><linearGradient id="linear-gradient-6" x1="-168.66" y1="16.75" x2="-83.16" y2="16.75" xlink:href="#linear-gradient-5"/><radialGradient id="radial-gradient-16" cx="7.01" cy="415.19" r="156.86" xlink:href="#radial-gradient-4"/><radialGradient id="radial-gradient-17" cx="-173.96" cy="-184.81" r="53.57" xlink:href="#radial-gradient-13"/><radialGradient id="radial-gradient-18" cx="-136.2" cy="-184.81" r="32.43" xlink:href="#radial-gradient-3"/><linearGradient id="linear-gradient-7" x1="-168.78" y1="16.75" x2="-83.16" y2="16.75" xlink:href="#linear-gradient-5"/><radialGradient id="radial-gradient-19" cx="6.84" cy="415.13" r="156.86" xlink:href="#radial-gradient-4"/><radialGradient id="radial-gradient-20" cx="-173.83" cy="-184.72" r="53.45" xlink:href="#radial-gradient-13"/><radialGradient id="radial-gradient-21" cx="-172.58" cy="-184.77" r="52.62" xlink:href="#radial-gradient-13"/><linearGradient id="linear-gradient-8" x1="-115.22" y1="16.6" x2="-70.58" y2="16.6" xlink:href="#linear-gradient"/><linearGradient id="linear-gradient-9" x1="-166.99" y1="16.6" x2="-83.17" y2="16.6" xlink:href="#linear-gradient-5"/><radialGradient id="radial-gradient-22" cx="52.97" cy="266.39" r="0.01" xlink:href="#radial-gradient-4"/><radialGradient id="radial-gradient-23" cx="-173.48" cy="-184.86" r="53.26" xlink:href="#radial-gradient-13"/><linearGradient id="linear-gradient-10" x1="-115.72" y1="16.32" x2="-70.38" y2="16.32" xlink:href="#linear-gradient"/><linearGradient id="linear-gradient-11" x1="-168.29" y1="16.32" x2="-83.16" y2="16.32" xlink:href="#linear-gradient-5"/><radialGradient id="radial-gradient-24" cx="7.25" cy="415.94" r="157.51" xlink:href="#radial-gradient-4"/><clipPath id="clip-path"><path class="cls-1" d="M54.94,104.48l4.79.78a17.87,17.87,0,0,0-3.24-.22c-9.72.21-15.64,6.82-15.43,17.56.19,9.71,5.07,16,12.93,17.31h0l-4.79-.78c-7.86-1.28-12.74-7.61-12.93-17.31-.21-10.74,5.7-17.35,15.43-17.56A17.64,17.64,0,0,1,54.94,104.48Z"/></clipPath><clipPath id="clip-path-2"><path class="cls-1" d="M66.45,60.78l4.79.78a209,209,0,0,0-16,22.36l-4.79-.78A208.91,208.91,0,0,1,66.45,60.78Z"/></clipPath><clipPath id="clip-path-3"><path class="cls-1" d="M80.06,44.45l4.79.78C77.14,54.44,72.55,60,71.24,61.56l-4.79-.78C67.77,59.22,72.35,53.66,80.06,44.45Z"/></clipPath><clipPath id="clip-path-4"><path class="cls-1" d="M63.4,83.19l4.79.78c18,2.92,30.5,17.75,30.89,37.87.47,24.21-16.62,42.32-40.27,42.84A53.2,53.2,0,0,1,49.1,164l-4.79-.78a53.34,53.34,0,0,0,9.71.65c23.64-.52,40.74-18.63,40.27-42.84C93.91,100.94,81.39,86.12,63.4,83.19Z"/></clipPath><clipPath id="clip-path-5"><path class="cls-1" d="M179.21,104.11l4.79.78a11.42,11.42,0,0,0-2.09-.14c-5.58.12-9.28,4.36-9.16,10.54.11,5.55,3.21,9.45,7.85,10.2l-4.79-.78c-4.63-.75-7.74-4.66-7.85-10.2-.12-6.18,3.58-10.42,9.16-10.54A11.5,11.5,0,0,1,179.21,104.11Z"/></clipPath><clipPath id="clip-path-6"><path class="cls-1" d="M175.56,138.15l-4.79-.78a24.57,24.57,0,0,0,4.51.31,16.58,16.58,0,0,0,3.18-.28l4.79.78a16.53,16.53,0,0,1-3.18.28A25,25,0,0,1,175.56,138.15Z"/></clipPath><clipPath id="clip-path-7"><path class="cls-1" d="M182.12,89.78l4.79.78c12.21,2,20.08,11.32,20.34,24.89.14,7.39-1.81,14.74-6.14,22.64-4.13,7.69-7.34,12.33-17.44,25.84l-4.79-.78C189,149.64,192.18,145,196.31,137.31c4.34-7.9,6.29-15.24,6.14-22.64C202.19,101.11,194.33,91.76,182.12,89.78Z"/></clipPath></defs><title>Asset 10</title><g class="cls-2"><g id="Layer_2" data-name="Layer 2"><g id="Layer_1-2" data-name="Layer 1"><path class="cls-3" d="M37.66,5.63"/><path class="cls-4" d="M14,1.75"/><path class="cls-5" d="M25.35.34l0,.05h0Z"/><path class="cls-6" d="M25.35.34l0,.05h0Z"/><path class="cls-7" d="M25,0l.13.1,0,0Z"/><path class="cls-8" d="M25,0l.13.1,0,0Z"/><path class="cls-9" d="M25.12.1l.09.08,0,0Z"/><path class="cls-10" d="M25.12.1l.09.08,0,0Z"/><path class="cls-11" d="M25.39.39l.06.08v0Z"/><path class="cls-12" d="M25.39.39l.06.08v0Z"/><path class="cls-13" d="M25.1.08l0,0,.06,0Z"/><path class="cls-14" d="M25.1.08l0,0,.06,0Z"/><path class="cls-15" d="M25.1.08l0,0,.06,0Z"/><path class="cls-16" d="M25.39.38h0l.05.06Z"/><path class="cls-17" d="M25.39.38h0l.05.06Z"/><path class="cls-18" d="M25.39.38h0l.05.06Z"/><path class="cls-19" d="M25.21.18l.14.15L25.22.2Z"/><path class="cls-20" d="M25.21.18l.14.15L25.22.2Z"/><path class="cls-21" d="M25.21.18l.14.15L25.22.2Z"/><path class="cls-22" d="M25.46.46a1.26,1.26,0,0,1,.16.28,1.23,1.23,0,0,0-.15-.27Z"/><path class="cls-23" d="M25.46.46a1.26,1.26,0,0,1,.16.28,1.23,1.23,0,0,0-.15-.27Z"/><path class="cls-24" d="M25.46.46a1.26,1.26,0,0,1,.16.28,1.23,1.23,0,0,0-.15-.27Z"/><path class="cls-25" d="M25.61.74a1.25,1.25,0,0,0-.15-.27A1.23,1.23,0,0,1,25.61.74Z"/><path class="cls-26" d="M25.61.74a1.25,1.25,0,0,0-.15-.27A1.23,1.23,0,0,1,25.61.74Z"/><path class="cls-27" d="M25.61.74a1.25,1.25,0,0,0-.15-.27A1.23,1.23,0,0,1,25.61.74Z"/><path class="cls-28" d="M25.61.74a1.25,1.25,0,0,0-.15-.27A1.23,1.23,0,0,1,25.61.74Z"/><path class="cls-29" d="M25.22.2l.13.14,0,0Z"/><path class="cls-30" d="M25.45.44v0h0Z"/><path class="cls-31" d="M25.45.44v0h0Z"/><path class="cls-32" d="M25.45.44v0h0Z"/><path class="cls-33" d="M25.45.44v0h0Z"/><path class="cls-34" d="M25.18.15l0,0h0Z"/><path class="cls-35" d="M25.18.15l0,0h0Z"/><path class="cls-36" d="M25.18.15l0,0h0Z"/><path class="cls-37" d="M25.18.15l0,0h0Z"/><path class="cls-38" d="M85.22,203.71A15.84,15.84,0,0,1,76.75,206a15.1,15.1,0,0,1-5.7-1c-5.08-2.06-8.47-7.55-8.47-13.65,0-8.36,6-14.63,13.86-14.63a16.28,16.28,0,0,1,3.85.47,17.2,17.2,0,0,1,4.85,2l-.54,7c-.54-.55-1-.93-1.35-1.28a10.09,10.09,0,0,0-6.39-2.45c-4.58,0-7.66,3.46-7.66,8.56,0,5.33,3.16,8.71,8.16,8.71a13.25,13.25,0,0,0,5.47-1.17,9.46,9.46,0,0,0,2.93-2Z"/><path class="cls-38" d="M107.75,205l-1.69-4H94.77l-1.69,4H86.68l13.75-28.32H101L114.49,205Zm-7.36-17.51-3.7,8.87h7.43Z"/><path class="cls-38" d="M139.17,206,121.92,189.9V205h-5.85V176.71h.69L134,192.86V177.65h5.85V206Z"/><path class="cls-38" d="M162.51,205l-1.69-4H149.54l-1.69,4h-6.39l13.75-28.32h.54L169.25,205Zm-7.36-17.51-3.7,8.87h7.43Z"/><path class="cls-38" d="M179.5,205h-8.43V177.65h8.43c9,0,15.17,5.56,15.17,13.69S188.55,205,179.5,205Zm-1.23-21.78h-.73v16h.73c6.2,0,9.78-2.92,9.78-8S184.43,183.25,178.27,183.25Z"/><path class="cls-38" d="M215.85,205l-1.69-4H202.88l-1.69,4h-6.39l13.75-28.32h.54L222.59,205Zm-7.36-17.51-3.7,8.87h7.43Z"/><path class="cls-1" d="M213.74,40.57H96.8c1.61-2.19,3.52-4.65,5.81-7.38l4.87-6.53-59.34.93C27.52,55.13,21,64.57,12.55,80.28,3.7,96.39-.28,111.37,0,126.45.63,158.29,21.78,178.71,53.29,178A53.06,53.06,0,0,0,69,175.34H213.74c7,0,12.59-6.14,12.59-13.71V54.27C226.33,46.7,220.69,40.57,213.74,40.57Z"/><g class="cls-2"><path class="cls-1" d="M54.94,104.48l4.79.78a17.87,17.87,0,0,0-3.24-.22c-9.72.21-15.64,6.82-15.43,17.56.19,9.71,5.07,16,12.93,17.31h0l-4.79-.78c-7.86-1.28-12.74-7.61-12.93-17.31-.21-10.74,5.7-17.35,15.43-17.56A17.64,17.64,0,0,1,54.94,104.48Z"/><g class="cls-39"><g class="cls-2"><path class="cls-1" d="M54.94,104.48l4.79.78a17.87,17.87,0,0,0-3.24-.22c-5.28.12-9.44,2.12-12.11,5.65l-4.79-.78c2.66-3.53,6.82-5.54,12.11-5.65a17.64,17.64,0,0,1,3.24.22"/><path class="cls-1" d="M39.59,109.91l4.79.78a14.37,14.37,0,0,0-1.21,1.89l-4.79-.78a14.44,14.44,0,0,1,1.21-1.89"/><path class="cls-1" d="M38.38,111.8l4.79.78a15.93,15.93,0,0,0-.85,1.88l-4.79-.78a15.88,15.88,0,0,1,.85-1.88"/><path class="cls-1" d="M37.53,113.68l4.79.78a18,18,0,0,0-.64,2l-4.79-.78a17.91,17.91,0,0,1,.64-2"/><path class="cls-1" d="M36.9,115.73l4.79.78a21,21,0,0,0-.45,2.41l-4.79-.78a20.79,20.79,0,0,1,.44-2.41"/><path class="cls-1" d="M36.45,118.14l4.79.78a25.24,25.24,0,0,0-.19,3l-4.79-.78a24.91,24.91,0,0,1,.19-3"/><path class="cls-1" d="M36.26,121.19,41,122c0,.21,0,.42,0,.64a27.11,27.11,0,0,0,.23,3.09l-4.79-.78a27.21,27.21,0,0,1-.23-3.09c0-.21,0-.42,0-.64"/><path class="cls-1" d="M36.5,124.91l4.79.78a21.71,21.71,0,0,0,.89,3.94l-4.79-.78a21.78,21.78,0,0,1-.89-3.94"/><path class="cls-1" d="M37.39,128.85l4.79.78a15.62,15.62,0,0,0,4.11,6.62l-4.79-.78a15.66,15.66,0,0,1-4.11-6.62"/><path class="cls-1" d="M41.5,135.47l4.79.78a13.61,13.61,0,0,0,2,1.57L43.54,137a13.89,13.89,0,0,1-2-1.57"/><path class="cls-1" d="M43.54,137l4.79.78a13.93,13.93,0,0,0,1.73.93L45.27,138a14.36,14.36,0,0,1-1.73-.93"/><path class="cls-1" d="M45.27,138l4.79.78a14.44,14.44,0,0,0,1.73.65L47,138.62a15,15,0,0,1-1.73-.65"/><path class="cls-1" d="M47,138.62l4.79.78a16.5,16.5,0,0,0,1.87.46l-4.79-.78a16,16,0,0,1-1.87-.46"/><path class="cls-1" d="M48.87,139.08l4.79.78.33.06-4.79-.78-.33-.06"/></g></g></g><g class="cls-2"><path class="cls-1" d="M66.45,60.78l4.79.78a209,209,0,0,0-16,22.36l-4.79-.78A208.91,208.91,0,0,1,66.45,60.78Z"/><g class="cls-40"><g class="cls-2"><path class="cls-1" d="M66.45,60.78l4.79.78c-2.4,3-4.29,5.42-6,7.66l-4.79-.78c1.68-2.24,3.58-4.65,6-7.66"/><path class="cls-1" d="M60.47,68.44l4.79.78c-3.37,4.47-5.9,8.24-10,14.7l-4.79-.78c4.12-6.45,6.66-10.23,10-14.7"/></g></g></g><g class="cls-2"><path class="cls-1" d="M80.06,44.45l4.79.78C77.14,54.44,72.55,60,71.24,61.56l-4.79-.78C67.77,59.22,72.35,53.66,80.06,44.45Z"/><g class="cls-41"><g class="cls-2"><path class="cls-1" d="M80.06,44.45l4.79.78C77.14,54.44,72.55,60,71.24,61.56l-4.79-.78c1.31-1.56,5.9-7.12,13.61-16.33"/></g></g></g><polygon class="cls-1" points="84.65 39.06 89.44 39.84 84.85 45.23 80.06 44.45 84.65 39.06"/><g class="cls-2"><path class="cls-1" d="M63.4,83.19l4.79.78c18,2.92,30.5,17.75,30.89,37.87.47,24.21-16.62,42.32-40.27,42.84A53.2,53.2,0,0,1,49.1,164l-4.79-.78a53.34,53.34,0,0,0,9.71.65c23.64-.52,40.74-18.63,40.27-42.84C93.91,100.94,81.39,86.12,63.4,83.19Z"/><g class="cls-42"><g class="cls-2"><path class="cls-1" d="M63.4,83.19l4.79.78.76.13-4.79-.78-.76-.13"/><path class="cls-1" d="M64.16,83.32l4.79.78a38.31,38.31,0,0,1,4.39,1.07l-4.79-.78a37.72,37.72,0,0,0-4.39-1.07"/><path class="cls-1" d="M68.55,84.4l4.79.78a36.43,36.43,0,0,1,4.22,1.6L72.77,86a36.61,36.61,0,0,0-4.22-1.59"/><path class="cls-1" d="M72.77,86l4.79.78a35.32,35.32,0,0,1,4.35,2.34l-4.79-.78A35.14,35.14,0,0,0,72.77,86"/><path class="cls-1" d="M77.12,88.33l4.79.78a35,35,0,0,1,5.17,4l-4.79-.78a34.75,34.75,0,0,0-5.17-4"/><path class="cls-1" d="M82.3,92.32l4.79.78a37,37,0,0,1,9.81,15.55l-4.79-.78A37,37,0,0,0,82.3,92.32"/><path class="cls-1" d="M92.11,107.88l4.79.78a43.07,43.07,0,0,1,1.77,7.73l-4.79-.78a43,43,0,0,0-1.77-7.73"/><path class="cls-1" d="M93.88,115.61l4.79.78a47.7,47.7,0,0,1,.42,5.45q0,.57,0,1.14l-4.79-.78c0-.38,0-.76,0-1.14a47.39,47.39,0,0,0-.42-5.45"/><path class="cls-1" d="M94.31,122.2l4.79.78a47.8,47.8,0,0,1-.37,5.86l-4.79-.78a48,48,0,0,0,.37-5.86"/><path class="cls-1" d="M93.93,128.05l4.79.78a45,45,0,0,1-1,5.16L93,133.22a45,45,0,0,0,1-5.16"/><path class="cls-1" d="M93,133.22l4.79.78a42.65,42.65,0,0,1-1.51,4.85l-4.79-.78A42.75,42.75,0,0,0,93,133.22"/><path class="cls-1" d="M91.46,138.07l4.79.78a41,41,0,0,1-2.19,4.83l-4.79-.78a41.2,41.2,0,0,0,2.19-4.83"/><path class="cls-1" d="M89.27,142.91l4.79.78a39.66,39.66,0,0,1-3.34,5.23l-4.79-.78a39.92,39.92,0,0,0,3.34-5.23"/><path class="cls-1" d="M85.93,148.14l4.79.78c-7.19,9.52-18.49,15.47-31.9,15.76A53.2,53.2,0,0,1,49.1,164l-4.79-.78a53.34,53.34,0,0,0,9.71.65c13.41-.29,24.71-6.25,31.9-15.76"/></g></g></g><path class="cls-43" d="M55.81,82.68c22-.48,38,15.53,38.49,38.38.47,24.21-16.62,42.32-40.27,42.84-26,.57-43.43-16.27-43.94-42.53-.24-12.44,3-24.79,10.33-38.08,7-12.95,12.35-20.74,29.35-43.46l34.87-.76-4.59,5.39c-7.71,9.21-12.29,14.77-13.61,16.33a208.91,208.91,0,0,0-16,22.36A28.43,28.43,0,0,1,55.81,82.68Zm-3.09,56.69c9.39-.21,15.63-7.33,15.42-17.74-.21-10.57-6.89-17.59-16.45-17.38-9.72.21-15.64,6.82-15.43,17.56.22,11.08,6.55,17.76,16.45,17.55"/><path class="cls-43" d="M102.35,79.14V54.73h5.77V74h9.58v5.13Z"/><path class="cls-43" d="M130.6,80c-6.76,0-12-5.69-12-13s5.25-13,12-13,12,5.69,12,13S137.36,80,130.6,80Zm0-20.52c-3.67,0-6.11,3-6.11,7.49s2.44,7.49,6.11,7.49,6.11-3,6.11-7.49S134.27,59.44,130.6,59.44Z"/><path class="cls-43" d="M155.55,59.51V79.14h-5.77V59.51h-7.72V54.73h21.21v4.78Z"/><path class="cls-43" d="M177.11,59.51V79.14h-5.77V59.51h-7.72V54.73h21.21v4.78Z"/><path class="cls-43" d="M196.33,80c-6.76,0-12-5.69-12-13s5.25-13,12-13,12,5.69,12,13S203.09,80,196.33,80Zm0-20.52c-3.67,0-6.11,3-6.11,7.49s2.44,7.49,6.11,7.49,6.11-3,6.11-7.49S200,59.44,196.33,59.44Z"/><polygon class="cls-44" points="130.48 110.27 135.27 111.05 134.97 111.06 130.18 110.28 130.48 110.27"/><polygon class="cls-1" points="145.81 149.88 150.59 150.65 150.86 164.64 146.08 163.87 145.81 149.88"/><polygon class="cls-1" points="131.25 150.2 136.04 150.97 106.34 151.63 101.55 150.85 131.25 150.2"/><polygon class="cls-1" points="146.08 163.87 150.86 164.64 136.31 164.96 131.53 164.19 146.08 163.87"/><polygon class="cls-1" points="130.18 110.28 134.97 111.06 118.26 138.8 113.47 138.02 130.18 110.28"/><polygon class="cls-1" points="144.69 92.53 149.48 93.3 150.35 138.09 145.56 137.32 144.69 92.53"/><polygon class="cls-1" points="151.94 137.18 156.73 137.95 156.97 150.52 152.19 149.74 151.94 137.18"/><polygon class="cls-1" points="152.19 149.74 156.97 150.52 150.59 150.65 145.81 149.88 152.19 149.74"/><g class="cls-2"><path class="cls-1" d="M179.21,104.11l4.79.78a11.42,11.42,0,0,0-2.09-.14c-5.58.12-9.28,4.36-9.16,10.54.11,5.55,3.21,9.45,7.85,10.2l-4.79-.78c-4.63-.75-7.74-4.66-7.85-10.2-.12-6.18,3.58-10.42,9.16-10.54A11.5,11.5,0,0,1,179.21,104.11Z"/><g class="cls-45"><g class="cls-2"><path class="cls-1" d="M179.21,104.11l4.79.78a11.42,11.42,0,0,0-2.09-.14,8.87,8.87,0,0,0-7.11,3.48l-4.79-.78a8.87,8.87,0,0,1,7.11-3.48,11.5,11.5,0,0,1,2.09.14"/><path class="cls-1" d="M170,107.45l4.79.78a9.23,9.23,0,0,0-.77,1.21l-4.79-.78a9.26,9.26,0,0,1,.77-1.21"/><path class="cls-1" d="M169.24,108.66l4.79.78a10.19,10.19,0,0,0-.53,1.18l-4.79-.78a10,10,0,0,1,.53-1.18"/><path class="cls-1" d="M168.71,109.84l4.79.78a11.18,11.18,0,0,0-.39,1.25l-4.79-.78a11.2,11.2,0,0,1,.39-1.25"/><path class="cls-1" d="M168.32,111.09l4.79.78a12.17,12.17,0,0,0-.26,1.41l-4.79-.78a12.15,12.15,0,0,1,.26-1.41"/><path class="cls-1" d="M168.06,112.49l4.79.78a13.72,13.72,0,0,0-.11,1.68l-4.79-.78a13.9,13.9,0,0,1,.11-1.68"/><path class="cls-1" d="M168,114.18l4.79.78c0,.11,0,.23,0,.34a14.36,14.36,0,0,0,.12,1.64l-4.79-.78a14.5,14.5,0,0,1-.12-1.64c0-.11,0-.23,0-.34"/><path class="cls-1" d="M168.08,116.15l4.79.78a12.37,12.37,0,0,0,.51,2.23l-4.79-.78a12.36,12.36,0,0,1-.51-2.23"/><path class="cls-1" d="M168.59,118.39l4.79.78a9.68,9.68,0,0,0,2.55,4.08l-4.79-.78a9.68,9.68,0,0,1-2.55-4.08"/><path class="cls-1" d="M171.14,122.47l4.79.78a8.61,8.61,0,0,0,1.28,1l-4.79-.78a8.6,8.6,0,0,1-1.28-1"/><path class="cls-1" d="M172.43,123.46l4.79.78a8.8,8.8,0,0,0,1.06.57l-4.79-.78a8.8,8.8,0,0,1-1.06-.57"/><path class="cls-1" d="M173.49,124l4.79.78a9.1,9.1,0,0,0,1,.39l-4.79-.78a8.82,8.82,0,0,1-1-.39"/><path class="cls-1" d="M174.53,124.42l4.79.78a9.68,9.68,0,0,0,1.09.26l-4.79-.78a9.55,9.55,0,0,1-1.09-.27"/><path class="cls-1" d="M175.61,124.69l4.79.78.19,0-4.79-.78-.19,0"/></g></g></g><g class="cls-2"><path class="cls-1" d="M175.56,138.15l-4.79-.78a24.57,24.57,0,0,0,4.51.31,16.58,16.58,0,0,0,3.18-.28l4.79.78a16.53,16.53,0,0,1-3.18.28A25,25,0,0,1,175.56,138.15Z"/><g class="cls-46"><g class="cls-2"><path class="cls-1" d="M178.47,137.4l4.79.78a16.53,16.53,0,0,1-3.18.28,25,25,0,0,1-4.51-.31l-4.79-.78a24.57,24.57,0,0,0,4.51.31,16.58,16.58,0,0,0,3.18-.28"/></g></g></g><polygon class="cls-1" points="178.87 163.15 183.66 163.93 162.93 164.38 158.14 163.6 178.87 163.15"/><g class="cls-2"><path class="cls-1" d="M182.12,89.78l4.79.78c12.21,2,20.08,11.32,20.34,24.89.14,7.39-1.81,14.74-6.14,22.64-4.13,7.69-7.34,12.33-17.44,25.84l-4.79-.78C189,149.64,192.18,145,196.31,137.31c4.34-7.9,6.29-15.24,6.14-22.64C202.19,101.11,194.33,91.76,182.12,89.78Z"/><g class="cls-47"><g class="cls-2"><path class="cls-1" d="M182.12,89.78l4.79.78.55.09-4.79-.78-.55-.09"/><path class="cls-1" d="M182.67,89.88l4.79.78a27.3,27.3,0,0,1,3.11.76l-4.79-.78a26.78,26.78,0,0,0-3.11-.76"/><path class="cls-1" d="M185.78,90.64l4.79.78a25.06,25.06,0,0,1,2.87,1.08l-4.79-.78a24.92,24.92,0,0,0-2.87-1.08"/><path class="cls-1" d="M188.65,91.72l4.79.78A23.17,23.17,0,0,1,196.3,94l-4.79-.78a23.21,23.21,0,0,0-2.87-1.54"/><path class="cls-1" d="M191.51,93.25l4.79.78a22.23,22.23,0,0,1,3.28,2.53l-4.79-.78a22.11,22.11,0,0,0-3.28-2.52"/><path class="cls-1" d="M194.79,95.78l4.79.78a23.27,23.27,0,0,1,6.19,9.84l-4.79-.78a23.28,23.28,0,0,0-6.19-9.84"/><path class="cls-1" d="M201,105.62l4.79.78A28.86,28.86,0,0,1,207,111.6l-4.79-.78a29,29,0,0,0-1.19-5.21"/><path class="cls-1" d="M202.17,110.83l4.79.78a33.57,33.57,0,0,1,.29,3.85c0,.3,0,.61,0,.91l-4.79-.78c0-.3,0-.6,0-.91a33.87,33.87,0,0,0-.29-3.85"/><path class="cls-1" d="M202.47,115.58l4.79.78a38.89,38.89,0,0,1-.31,4.72l-4.79-.78a38.76,38.76,0,0,0,.31-4.72"/><path class="cls-1" d="M202.16,120.3l4.79.78a40.5,40.5,0,0,1-.87,4.64l-4.79-.78a40.27,40.27,0,0,0,.87-4.64"/><path class="cls-1" d="M201.29,124.94l4.79.78a45,45,0,0,1-1.61,5.13l-4.79-.78a45.37,45.37,0,0,0,1.61-5.13"/><path class="cls-1" d="M199.68,130.07l4.79.78a56,56,0,0,1-3,6.55l-4.79-.78a56,56,0,0,0,3-6.55"/><path class="cls-1" d="M196.69,136.62l4.79.78-.37.69c-4.13,7.69-7.34,12.33-17.44,25.84l-4.79-.78C189,149.64,192.18,145,196.31,137.31l.37-.69"/></g></g></g><path class="cls-43" d="M176.34,89.4c15.45-.34,25.82,9.67,26.12,25.28.14,7.39-1.81,14.74-6.14,22.64-4.13,7.69-7.34,12.33-17.44,25.84l-20.74.46,2.73-3.2c4.58-5.48,7.31-8.78,8.09-9.71a122.41,122.41,0,0,0,9.52-13.29,16.58,16.58,0,0,1-3.18.28c-13.06.29-22.61-9.24-22.88-22.82C152.13,100.47,162.29,89.7,176.34,89.4Zm1.39,35.45c5.78-.13,9.3-4.06,9.17-10.45-.13-6.58-3.89-10.56-9.78-10.43-5.58.12-9.28,4.36-9.16,10.54S172,125,177.72,124.85"/><path class="cls-43" d="M145.56,137.32l6.38-.14.24,12.56-6.38.14.27,14-14.55.32-.27-14-29.7.65-.24-12.56L128,92.89l16.64-.36Zm-14.55.32-.53-27.36h-.3L113.47,138l17.54-.38"/><circle class="cls-38" cx="52.72" cy="122.03" r="19.23"/></g></g></g></svg>