<svg xmlns="http://www.w3.org/2000/svg" xmlns:xlink="http://www.w3.org/1999/xlink" viewBox="0 0 352.63 175.46"><defs><style>.cls-1{fill:url(#linear-gradient);}.cls-2{fill:#fff;}.cls-3{fill:#f6ac00;}.cls-4{fill:url(#New_Gradient_Swatch_copy);}.cls-5{fill:url(#New_Gradient_Swatch_copy-2);}.cls-6{fill:url(#New_Gradient_Swatch_copy-3);}.cls-7{fill:url(#New_Gradient_Swatch_copy-4);}</style><linearGradient id="linear-gradient" y1="87.73" x2="352.63" y2="87.73" gradientUnits="userSpaceOnUse"><stop offset="0" stop-color="#b7dd00"/><stop offset="1" stop-color="#5eb325"/></linearGradient><linearGradient id="New_Gradient_Swatch_copy" x1="87.07" y1="113.84" x2="115.02" y2="113.84" gradientUnits="userSpaceOnUse"><stop offset="0" stop-color="#ffe100"/><stop offset="0.03" stop-color="#fedd00"/><stop offset="0.21" stop-color="#fbc800"/><stop offset="0.42" stop-color="#f8b800"/><stop offset="0.66" stop-color="#f6af00"/><stop offset="1" stop-color="#f6ac00"/></linearGradient><linearGradient id="New_Gradient_Swatch_copy-2" x1="59.06" y1="115.62" x2="87" y2="115.62" xlink:href="#New_Gradient_Swatch_copy"/><linearGradient id="New_Gradient_Swatch_copy-3" x1="80.66" y1="128.62" x2="95.14" y2="128.62" xlink:href="#New_Gradient_Swatch_copy"/><linearGradient id="New_Gradient_Swatch_copy-4" x1="78.88" y1="100.78" x2="93.36" y2="100.78" xlink:href="#New_Gradient_Swatch_copy"/></defs><title>Asset 17</title><g id="Layer_2" data-name="Layer 2"><g id="Layer_1-2" data-name="Layer 1"><path class="cls-1" d="M352.61,148.91l-4.28-67.43c-.38-6-5.09-10.52-10.52-10.18l-50.94,3.24-4.09-64.39A10.82,10.82,0,0,0,271.29,0L10.14,16.61A10.82,10.82,0,0,0,0,28.1L4.31,95.53a10.82,10.82,0,0,0,11.49,10.12L91,100.87l4.09,64.39c.38,6,5.09,10.52,10.52,10.18l237.81-15.11C348.89,160,353,154.87,352.61,148.91Z"/><path d="M109.38,79.25q0,.68,0,1.41t0,1.41a9.87,9.87,0,0,1-.11,1L80.18,84.95a19.8,19.8,0,0,1-.4-2.32q-.18-1.4-.23-2.25l2.08-.9a5,5,0,0,0,2-1.75,7.82,7.82,0,0,0,1.12-2.59,12.46,12.46,0,0,0,.33-2.93,13.69,13.69,0,0,0-.26-2.68L80,47.87,78.2,39l-.43,0L67.06,84.24,54.77,88.53,37.58,41.25l-.51,0-.57,8.58L33.92,77.72q-.28,2.41,1.11,2.66l7.31,2.1.06.94q0,.68,0,1.45t0,1.45a9.65,9.65,0,0,1-.1,1L18.56,88.86q-.23-.93-.45-2.32a12.36,12.36,0,0,1-.19-2.25l3-1.73a7.53,7.53,0,0,0,2.76-3A12.33,12.33,0,0,0,25,75.64l5-37a2.83,2.83,0,0,0-.54-2.4,4,4,0,0,0-2-1.28L21.8,33.63l-.06-1c0-.51-.05-1.05-.06-1.62s0-1.11,0-1.62a9,9,0,0,1,.1-1.12l26.38-1.68,10.3,29L61.78,65.7l.77,0L64.94,54.9,72.27,25l25.11-1.59q.12.51.25,1.22t.22,1.48q.09.76.13,1.44l.07,1.11-4.11,1.2a4.33,4.33,0,0,0-2.48,2q-1,1.56-.19,4.33l10.34,37.71a3.75,3.75,0,0,0,1.11,1.94,5.84,5.84,0,0,0,1.81.87l4.8,1.57Z"/><path d="M128.53,59.23q.74,6.36,4.55,9a14.35,14.35,0,0,0,9.42,2.31q2.3-.15,5.78-.5a49,49,0,0,0,8.18-1.67l2.86,7.34A38.23,38.23,0,0,1,150.06,80a39.33,39.33,0,0,1-9,1.77,59.29,59.29,0,0,1-10.82-.21,19.38,19.38,0,0,1-8.39-2.89,15.84,15.84,0,0,1-5.59-6.57,30.81,30.81,0,0,1-2.51-11.33,25.67,25.67,0,0,1,1.12-9.22,26.62,26.62,0,0,1,4.33-8.44,24.66,24.66,0,0,1,7.29-6.36,22.39,22.39,0,0,1,10-2.9,27.54,27.54,0,0,1,9.88.91A15.77,15.77,0,0,1,157.1,44.9a29.58,29.58,0,0,1,1.63,8.23L159,57.3Zm13-15.31a5.73,5.73,0,0,0-5.24-2.53A9.63,9.63,0,0,0,132,42.56a7.62,7.62,0,0,0-2.7,2.56,10.36,10.36,0,0,0-1.35,3.59,17.37,17.37,0,0,0-.24,4.33l16.09-1Q143.54,46.66,141.53,43.92Z"/><path d="M205.6,39a15.06,15.06,0,0,1,1.08,4.89,14.45,14.45,0,0,1-1.1,6.86A14.65,14.65,0,0,1,201.64,56a19,19,0,0,1-6.32,3.48A31.84,31.84,0,0,1,187.09,61a47.84,47.84,0,0,1-5,.06,24.42,24.42,0,0,1-4.74-.64l.45,7.15,15.49-1a59.41,59.41,0,0,1,9.62,0,16.78,16.78,0,0,1,6.17,1.66,7.51,7.51,0,0,1,3.39,3.55,16.23,16.23,0,0,1,1.26,5.69A13.36,13.36,0,0,1,212,85.34a18.7,18.7,0,0,1-5.86,6,33.15,33.15,0,0,1-8.76,4,46.25,46.25,0,0,1-10.52,1.86,56.54,56.54,0,0,1-7,0,23.19,23.19,0,0,1-6.27-1.18A11.29,11.29,0,0,1,169,93.19,8.47,8.47,0,0,1,167.47,85,11.09,11.09,0,0,1,169,82.17a12.76,12.76,0,0,1,2.16-2.32,9.34,9.34,0,0,1,2.47-1.52A6,6,0,0,1,170,77.28q-1.83-1.17-2-4.4a10.31,10.31,0,0,1,.29-2.84,25.31,25.31,0,0,1,1.06-3.49q.7-1.84,1.64-3.82a39,39,0,0,1,2.1-3.85,13.15,13.15,0,0,1-4.91-4,12,12,0,0,1-2.17-6.61,16.85,16.85,0,0,1,.89-6.81,14.92,14.92,0,0,1,3.53-5.57A18.35,18.35,0,0,1,176.45,32a26.34,26.34,0,0,1,8.43-1.82,38.83,38.83,0,0,1,8.44.36,19,19,0,0,1,7.21,2.58l13-4.16.6,9.45ZM199,78.6q-1.14-1.12-4.12-.93l-16,1a7.62,7.62,0,0,0-1.13,1.74,4.85,4.85,0,0,0-.4,2.46q.17,2.64,3.49,4.48t10.73,1.37q4.93-.31,6.9-2.32a6.23,6.23,0,0,0,1.78-5A4.2,4.2,0,0,0,199,78.6Zm-8.56-39.32a5.67,5.67,0,0,0-5.21-2,6.4,6.4,0,0,0-3.27,1,5.87,5.87,0,0,0-1.91,2.17,8.62,8.62,0,0,0-.88,3,19.47,19.47,0,0,0-.08,3.47,13.35,13.35,0,0,0,.54,3,7,7,0,0,0,1.27,2.44,5.49,5.49,0,0,0,2.15,1.57,7.22,7.22,0,0,0,3.27.43q3.57-.23,5-2.75a11.75,11.75,0,0,0,1.13-6.44A10.58,10.58,0,0,0,190.45,39.28Z"/><path d="M262.89,72.62a12.91,12.91,0,0,1-5.57,1.85,21.82,21.82,0,0,1-4.19-.07,6.7,6.7,0,0,1-2.88-1,5.42,5.42,0,0,1-1.85-2.19,12.17,12.17,0,0,1-1-3.61q-1,1.26-2.44,2.68a23.82,23.82,0,0,1-3.12,2.63A19.38,19.38,0,0,1,238.09,75a12.83,12.83,0,0,1-4.17,1q-5.87.37-9.44-2t-3.92-8a12.5,12.5,0,0,1,5.16-11.61,21.8,21.8,0,0,1,5.83-3,55.47,55.47,0,0,1,6.76-1.88q1.94-.38,3.89-.72l3.72-.62-.34-5.36a9.59,9.59,0,0,0-.35-2.16,2.36,2.36,0,0,0-1.16-1.38,6.52,6.52,0,0,0-2.56-.65,31.66,31.66,0,0,0-4.57,0,43.48,43.48,0,0,0-5.25.72,72.58,72.58,0,0,0-7.31,1.87l-3.12-10.06a45.83,45.83,0,0,1,8.92-2.87,61.19,61.19,0,0,1,8.34-1.13q2.81-.18,6.36-.1a20.41,20.41,0,0,1,6.7,1.24A12.87,12.87,0,0,1,257,32.19a12.62,12.62,0,0,1,2.57,7.53l.66,10.38,1.53,14.68,5.79-.37.76,3.88A23.49,23.49,0,0,1,262.89,72.62Zm-16.56-18q-1,.24-2.2.4t-2.37.41a16,16,0,0,0-5.47,2.06,4.16,4.16,0,0,0-1.84,4,3.57,3.57,0,0,0,1.33,2.73,4.78,4.78,0,0,0,3.34.81,25.1,25.1,0,0,0,4-.6,17.82,17.82,0,0,0,3.72-1.26Z"/><path class="cls-2" d="M160.88,144.21a19.62,19.62,0,0,1-5.87,6.44,28.17,28.17,0,0,1-8.29,3.95,41.21,41.21,0,0,1-9,1.64,54.63,54.63,0,0,1-5.51,0q-3-.11-5.93-.52a42.25,42.25,0,0,1-5.8-1.21,26,26,0,0,1-5.13-2l.64-15.51,6.13-.39a13.18,13.18,0,0,0,2,5.43,13.42,13.42,0,0,0,3.7,3.78,14.5,14.5,0,0,0,5,2.12,19.94,19.94,0,0,0,5.75.45,20.45,20.45,0,0,0,3-.44,12.46,12.46,0,0,0,3.17-1.14,9.13,9.13,0,0,0,2.53-1.91,3.68,3.68,0,0,0,.93-2.84,3.57,3.57,0,0,0-1-2.28,11.84,11.84,0,0,0-2.52-1.93,24.84,24.84,0,0,0-3.61-1.74q-2.06-.81-4.42-1.68-3.41-1.23-7-2.76a35.65,35.65,0,0,1-6.55-3.64,19.81,19.81,0,0,1-5-5.11,14.09,14.09,0,0,1-2.29-7.16,15.69,15.69,0,0,1,1.55-7.87,23.23,23.23,0,0,1,4.83-6.72,25.29,25.29,0,0,1,6.92-4.75,21.53,21.53,0,0,1,7.81-2.08,53.7,53.7,0,0,1,10.84.42,40.62,40.62,0,0,1,10,2.61l.84,13.19-5.53.35a11.55,11.55,0,0,0-2.4-4.2,12.27,12.27,0,0,0-3.63-2.72,15.13,15.13,0,0,0-4.49-1.38,22.81,22.81,0,0,0-4.8-.21,19,19,0,0,0-3.34.51,8.63,8.63,0,0,0-2.87,1.25,5.78,5.78,0,0,0-1.91,2.22,6.64,6.64,0,0,0-.55,3.41,3.56,3.56,0,0,0,1.27,2.44,14,14,0,0,0,3.12,2.07,40.27,40.27,0,0,0,4.44,1.9q2.49.91,5.2,1.85,3.41,1.24,6.84,2.68a32.93,32.93,0,0,1,6.24,3.45,19.54,19.54,0,0,1,4.7,4.66,12,12,0,0,1,2.11,6.32A15.89,15.89,0,0,1,160.88,144.21Z"/><path class="cls-2" d="M184.94,129.65q.74,6.36,4.55,9a14.35,14.35,0,0,0,9.42,2.31q2.3-.15,5.78-.5a49.05,49.05,0,0,0,8.18-1.67l2.86,7.34a38.25,38.25,0,0,1-9.26,4.26,39.38,39.38,0,0,1-9,1.77,59.33,59.33,0,0,1-10.82-.21,19.38,19.38,0,0,1-8.39-2.89,15.85,15.85,0,0,1-5.59-6.57,30.82,30.82,0,0,1-2.51-11.33A25.66,25.66,0,0,1,171.3,122a26.61,26.61,0,0,1,4.33-8.44,24.65,24.65,0,0,1,7.29-6.36,22.39,22.39,0,0,1,10-2.9,27.53,27.53,0,0,1,9.88.91,15.76,15.76,0,0,1,10.73,10.13,29.6,29.6,0,0,1,1.63,8.23l.26,4.17Zm13-15.31a5.73,5.73,0,0,0-5.25-2.53,9.65,9.65,0,0,0-4.28,1.17,7.63,7.63,0,0,0-2.7,2.56,10.34,10.34,0,0,0-1.35,3.59,17.36,17.36,0,0,0-.24,4.33l16.08-1Q200,117.07,197.94,114.34Z"/><path class="cls-2" d="M280.68,144.29a8,8,0,0,1-.43,2l-24.34,1.55q-.34-1.34-.54-2.4a13.08,13.08,0,0,1-.13-2.77l2.89-1.55a2.31,2.31,0,0,0,1.28-1.4,5.79,5.79,0,0,0,.14-1.76l-.7-13.71-.29-4.51q-.12-1.87-.36-3.69a10.54,10.54,0,0,0-.88-3.15,4.79,4.79,0,0,0-2-2.1,6.31,6.31,0,0,0-3.59-.63,42,42,0,0,0-5.54.74,24.59,24.59,0,0,0-4.73,1.37l.83,13,1,12.5a11.92,11.92,0,0,0,.36,2.33,2,2,0,0,0,1.24,1.42l4,1.37q.14,2.21.11,3.15a13.73,13.73,0,0,1-.28,2.24l-25.36,1.61a16,16,0,0,1-.36-2.33q-.13-1.4-.21-2.68l4-1.62a3.16,3.16,0,0,0,1.55-1.17,4.32,4.32,0,0,0,.28-2.28L228,126.14l-1-16.34-6.64.42-.4-6.3q2.1-.56,4.42-1T229,102q2.3-.36,4.43-.62t3.67-.36a3.54,3.54,0,0,1,2.66.6,3.09,3.09,0,0,1,.87,2.17l.18,2.81q1.13-1,2.59-2.13a21.62,21.62,0,0,1,3.28-2,25.7,25.7,0,0,1,4.07-1.63,21.4,21.4,0,0,1,5-.87,28.19,28.19,0,0,1,9.15.57,9.88,9.88,0,0,1,5,2.89,9.3,9.3,0,0,1,2.09,4.69q.43,2.75.64,6.07l.58,9.11,1.15,14a8.49,8.49,0,0,0,.42,1.85,1.18,1.18,0,0,0,.95.79L280.6,141A27.54,27.54,0,0,1,280.68,144.29Z"/><path class="cls-2" d="M328.58,142.44a12.91,12.91,0,0,1-5.56,1.85,21.85,21.85,0,0,1-4.19-.07,6.71,6.71,0,0,1-2.88-1,5.42,5.42,0,0,1-1.85-2.19,12.18,12.18,0,0,1-1-3.61q-1,1.26-2.44,2.68a23.81,23.81,0,0,1-3.12,2.63,19.39,19.39,0,0,1-3.76,2.08,12.84,12.84,0,0,1-4.17,1q-5.87.37-9.44-2t-3.92-8a12.51,12.51,0,0,1,5.16-11.61,21.82,21.82,0,0,1,5.83-3,55.32,55.32,0,0,1,6.76-1.88q1.94-.38,3.89-.72l3.72-.62-.34-5.36a9.55,9.55,0,0,0-.35-2.16,2.36,2.36,0,0,0-1.16-1.38,6.52,6.52,0,0,0-2.56-.65,31.51,31.51,0,0,0-4.57,0,43.55,43.55,0,0,0-5.25.72,72.35,72.35,0,0,0-7.31,1.88L286.94,101a45.88,45.88,0,0,1,8.92-2.87A61.43,61.43,0,0,1,304.21,97q2.81-.18,6.36-.11a20.41,20.41,0,0,1,6.7,1.24,12.86,12.86,0,0,1,5.41,3.84,12.62,12.62,0,0,1,2.57,7.53l.66,10.38,1.53,14.68,5.79-.37.76,3.88A23.49,23.49,0,0,1,328.58,142.44Zm-16.56-18q-1,.24-2.2.4t-2.37.41a16,16,0,0,0-5.47,2.06,4.16,4.16,0,0,0-1.84,4,3.57,3.57,0,0,0,1.33,2.73,4.78,4.78,0,0,0,3.34.81,25.09,25.09,0,0,0,4-.6,17.85,17.85,0,0,0,3.72-1.26Z"/><path class="cls-3" d="M95,127.54c1.8,3,4,4.8,6.57,5.56,4.22,1.23,8.56-.89,9.67-4.71a7.15,7.15,0,0,0-2.22-7.25l-.06-.05-21.85-6.35C87.52,115.46,94.1,126.11,95,127.54Z"/><path class="cls-4" d="M109,121.07a7.15,7.15,0,0,0,5.75-4.93c1.11-3.82-1.42-7.93-5.64-9.16-2.62-.76-5.41-.38-8.52,1.17-1.5.74-12.76,6.22-13.52,6.59h0l21.85,6.35H109Z"/><path class="cls-5" d="M73.48,121.31c-3.12,1.55-5.91,1.93-8.52,1.17-4.22-1.23-6.75-5.34-5.64-9.16a7.15,7.15,0,0,1,5.75-4.93h.08L87,114.73C86.24,115.1,75,120.57,73.48,121.31Z"/><path class="cls-3" d="M65.09,108.32a7.15,7.15,0,0,1-2.22-7.25c1.11-3.82,5.45-5.94,9.67-4.71,2.62.76,4.77,2.58,6.57,5.55C80,103.35,86.56,114,87,114.73h0l-21.85-6.35h0Z"/><path class="cls-3" d="M74.2,122.53c-3,1.8-4.8,4-5.56,6.57-1.23,4.22.89,8.56,4.71,9.67a7.15,7.15,0,0,0,7.25-2.22l.06-.06L87,114.64C86.28,115.09,75.63,121.67,74.2,122.53Z"/><path class="cls-6" d="M80.67,136.58a7.15,7.15,0,0,0,4.93,5.75c3.82,1.11,7.93-1.42,9.16-5.64.76-2.62.38-5.41-1.17-8.53-.74-1.5-6.22-12.75-6.59-13.52h0L80.66,136.5h0Z"/><path class="cls-7" d="M80.43,101.24c-1.55-3.12-1.93-5.91-1.17-8.53,1.23-4.22,5.34-6.75,9.16-5.64a7.15,7.15,0,0,1,4.93,5.75l0,.08L87,114.75C86.65,114,81.17,102.73,80.43,101.24Z"/><path class="cls-3" d="M93.42,92.84a7.15,7.15,0,0,1,7.25-2.22c3.82,1.11,5.94,5.45,4.71,9.67-.76,2.62-2.58,4.77-5.55,6.57-1.43.86-12.08,7.44-12.81,7.89h0L93.36,92.9h0Z"/></g></g></svg>