<svg xmlns="http://www.w3.org/2000/svg" viewBox="0 0 642 300" width="642" height="300">
	<style>
		tspan { white-space:pre }
		.shp0 { fill: none } 
		.shp1 { fill: #ffffff } 
		.shp2 { fill: #c1272d } 
		.shp3 { fill: #2e3192 } 
	</style>
	<g id="MegaMillion">
		<g id="Logos">
			<path id="BG" class="shp0" d="M-77,305.22h787v-313.02h-787z" />
			<g id="Mega_Millions">
				<path id="Layer" class="shp1" d="M94.22,292.14c-4.11,-0.01 -7.8,-2.51 -9.31,-6.32c-1.89,3.98 -5.78,6.32 -10.58,6.32h-15.48c-4.78,0 -8.66,-2.35 -10.53,-6.39c-1.52,3.82 -5.22,6.35 -9.35,6.39h-26.07c-5.43,-0.02 -9.82,-4.41 -9.8,-9.81v-92.56c0,-5.76 4.12,-9.95 9.8,-9.95h29.44c4.88,-0.08 9.39,2.56 11.69,6.83l0.31,0.55l12.28,33.72l12.21,-33.72l0.31,-0.56c2.31,-4.27 6.82,-6.9 11.69,-6.82h29.45c5.72,0 9.87,4.19 9.87,9.95v92.56c-0.07,5.39 -4.45,9.75 -9.87,9.81z" />
				<path id="Layer" class="shp1" d="M137.85,292.14c-5.4,-0.09 -9.75,-4.44 -9.8,-9.81v-92.56c0.02,-5.41 4.36,-9.82 9.8,-9.95h24.97c2.68,-0.09 5.28,0.93 7.18,2.81c1.9,1.89 2.92,4.47 2.83,7.14v92.56c0,5.69 -4.2,9.81 -10,9.81z" />
				<path id="Layer" class="shp1" d="M180.66,292.14c-5.46,0.01 -9.91,-4.38 -9.93,-9.81v-92.56c0.03,-5.42 4.39,-9.83 9.84,-9.95h25.07c5.33,0.04 9.7,4.19 9.99,9.48l0.13,2.09l-0.11,0.22v59.61h18.34c2.67,-0.04 5.23,1.01 7.08,2.92c1.84,1.98 2.77,4.62 2.58,7.3v0.15l-1.99,21.72v0.26c-0.64,5 -4.97,8.71 -10.04,8.61z" />
				<path id="Layer" class="shp1" d="M247.24,292.14c-5.47,0.01 -9.91,-4.38 -9.94,-9.81v-92.56c0.03,-5.42 4.39,-9.83 9.84,-9.95h25.07c5.33,0.04 9.7,4.19 9.99,9.48l0.13,2.09l-0.11,0.22v59.61h18.35c2.67,-0.04 5.23,1.01 7.08,2.92c1.84,1.97 2.77,4.62 2.58,7.3v0.15l-1.97,21.68l-0.04,0.26c-0.64,5 -4.97,8.72 -10.04,8.61z" />
				<path id="Layer" class="shp1" d="M313.75,292.14c-5.4,-0.09 -9.74,-4.44 -9.79,-9.81v-92.56c0.02,-5.4 4.36,-9.81 9.79,-9.95h24.98c2.69,-0.1 5.29,0.91 7.2,2.8c1.9,1.89 2.93,4.48 2.84,7.15v92.56c0,5.69 -4.21,9.81 -10,9.81z" />
				<path id="Layer" class="shp1" d="M522.1,292.14c-3.98,-0.03 -7.65,-2.16 -9.64,-5.59l-0.08,-0.13l-9.83,-17.49v13.4c0,5.69 -4.2,9.81 -10,9.81h-25c-5.43,-0.02 -9.82,-4.41 -9.8,-9.81v-92.56c0,-5.77 4.12,-9.95 9.8,-9.95h24.4c4.32,-0.14 8.31,2.24 10.23,6.09l9.44,16.95v-13.09c0.03,-5.43 4.41,-9.84 9.87,-9.95h24.97c2.68,-0.09 5.28,0.93 7.18,2.81c1.9,1.89 2.92,4.47 2.83,7.14v92.56c0,5.69 -4.2,9.81 -10,9.81z" />
				<path id="Layer" class="shp1" d="M521.55,187.65h24.91c0.59,-0.09 1.19,0.1 1.61,0.52c0.42,0.42 0.62,1.01 0.52,1.6v92.56c0,1.31 -0.68,1.99 -2.13,1.99h-24.4c-1.26,-0.02 -2.4,-0.73 -2.96,-1.85l-24.49,-43.58v43.44c0,1.31 -0.68,1.99 -2.13,1.99h-24.93c-1.08,-0.03 -1.94,-0.91 -1.93,-1.99v-92.56c0,-1.43 0.62,-2.12 1.93,-2.12h24.4c1.36,-0.13 2.66,0.61 3.23,1.85l24.37,43.51v-43.24c0.06,-1.09 0.91,-1.99 2,-2.12z" />
				<path id="Layer" class="shp1" d="M593.47,294.26c-13.67,0 -27.84,-4.29 -36.13,-10.96c-4.78,-3.75 -5.14,-8.61 -3.34,-12.13l8.61,-19.17c0.84,-2.53 2.71,-4.59 5.15,-5.68c-0.75,-0.5 -1.49,-1.03 -2.21,-1.57c-5.82,-4.44 -10.03,-10.63 -12,-17.65l-1.46,0.49v-10.8c0,-23.01 17.9,-39.09 43.51,-39.09c11.45,0 25.88,4.59 35.93,11.43c2.45,1.44 4.16,3.85 4.72,6.62c0.39,2.07 0.02,4.21 -1.03,6.03l-8.5,18.98c-0.75,2.22 -2.28,4.11 -4.31,5.3c0.52,0.36 1.05,0.74 1.57,1.11c8.51,6.13 13.61,16.65 13.61,28.17c0,10.4 -3.64,19.56 -10.63,26.61c-8,7.91 -19.9,12.31 -33.5,12.31z" />
				<path id="Layer" class="shp1" d="M137.98,168.18c-4.61,-0.07 -8.42,-3.62 -8.79,-8.19v-0.18v-31.36l-11.33,32.87v0.09c-0.98,2.54 -3.67,6.82 -10.71,6.82h-24.12c-5.08,0 -8.94,-2.48 -10.6,-6.82l-0.06,-0.16l-11.42,-32.95v31.3c0,4.48 -4.21,8.56 -8.82,8.56h-40.53c-4.72,-0.03 -8.53,-3.86 -8.5,-8.56v-143.82c0,-5.25 3.42,-8.77 8.5,-8.77h45.76c5.14,-0.12 9.9,2.66 12.3,7.18l0.21,0.38l25.22,69.29l25.13,-69.29l0.22,-0.39c2.4,-4.51 7.16,-7.29 12.29,-7.17h45.77c5.15,0 8.61,3.52 8.61,8.77v143.85c0,4.05 -3.54,8.56 -8.61,8.56z" />
				<path id="Layer" class="shp2" d="M132.74,12.47h45.77c2.03,0 3.1,1.07 3.1,3.3v143.85c-0.11,1.66 -1.44,2.97 -3.1,3.08h-40.53c-1.72,-0.06 -3.14,-1.38 -3.31,-3.08v-64l-22.04,63.79c-0.86,2.24 -2.68,3.29 -5.56,3.29h-24.04c-2.78,0 -4.6,-1.06 -5.45,-3.29l-22.13,-63.79v64c-0.21,1.69 -1.61,2.98 -3.31,3.08h-40.53c-1.67,-0.05 -3,-1.42 -2.99,-3.08v-143.85c0,-2.23 0.96,-3.3 2.99,-3.3h45.76c3.13,-0.11 6.05,1.59 7.48,4.37l30.26,83.14l30.15,-83.14c1.44,-2.77 4.36,-4.47 7.49,-4.37z" />
				<path id="Layer" class="shp1" d="M205.8,168.18c-4.37,0 -7.65,-2.8 -8.78,-7.5l-0.15,-0.63v-144.51c0,-5.04 3.49,-8.56 8.51,-8.56h99.65c4.87,-0.11 8.91,3.72 9.03,8.56v32.87c0,5.25 -3.63,8.78 -9.03,8.78h-51.59v6.16h40.92c2.57,0 5,1.15 6.63,3.13c1.36,1.67 1.95,3.83 1.61,5.95l-2.99,30.46v0.18c-0.79,4.53 -4.15,7.36 -8.85,7.36h-37.32v7.54h54.26c2.46,-0.12 4.86,0.8 6.6,2.54c1.5,1.6 2.26,3.75 2.11,5.93v33.15c-0.15,4.71 -3.98,8.47 -8.71,8.56z" />
				<path id="Layer" class="shp2" d="M247.93,104.97v18.5h59.77c2.25,0 3.32,0.96 3.21,2.87v33.27c-0.16,1.67 -1.52,2.98 -3.21,3.08h-101.9c-1.82,0 -2.89,-1.06 -3.42,-3.29v-143.86c0,-2.02 0.96,-3.08 3,-3.08h99.65c1.82,-0.09 3.39,1.27 3.53,3.08v32.87c0,2.24 -1.17,3.3 -3.53,3.3h-57.1v17.1h46.43c1.72,0 3.1,1.49 2.79,2.87l-3,30.52c-0.31,1.92 -1.5,2.87 -3.74,2.77z" />
				<path id="Layer" class="shp1" d="M402.89,171.26c-24.09,0 -44.86,-8.03 -59.99,-23.23c-15.13,-15.2 -23.26,-36.26 -23.26,-60.71c0,-50.15 33.89,-83.83 84.32,-83.83c17.86,0 34.21,4.48 48.61,13.3c4.19,2.03 5.98,5.94 4.72,10.3l-0.08,0.23l-11.14,32.29l-0.13,0.27c-1.37,3.1 -4.47,5.08 -7.87,5.05c-0.91,-0.01 -1.82,-0.13 -2.71,-0.36l-0.61,-0.16l-0.56,-0.29c-8.53,-4.58 -18.08,-6.97 -27.78,-6.95c-18.1,0 -29.32,11.74 -29.32,30.52c0,17.81 11.02,30.25 26.89,30.25h0.96c6.14,0 9.29,-0.78 10.85,-1.39v-4.24h-14.62c-4.66,0 -8.08,-2.63 -8.93,-6.85l-0.06,-0.27l-2.9,-30.18c-0.45,-2.16 -0.01,-4.41 1.23,-6.24c1.24,-1.83 3.17,-3.08 5.35,-3.47l61.76,-0.09c4.72,0 8.82,3.91 8.82,8.46v69.32c0.01,3.72 -1.74,7.23 -4.72,9.47c-14.9,12.5 -34.7,18.84 -58.84,18.84z" />
				<path id="Layer" class="shp2" d="M398.29,70.63h59.34c1.72,0 3.32,1.57 3.32,2.98v69.32c0.01,2.07 -0.99,4.01 -2.68,5.21c-14.01,11.8 -32.4,17.65 -55.39,17.65c-45.87,0 -77.74,-31.47 -77.74,-78.47c0,-47 31.48,-78.36 78.81,-78.36c17.1,0 32.4,4.26 45.98,12.65c1.93,0.85 2.57,2.13 2.03,3.91l-11.02,32c-0.75,1.57 -2.14,2.24 -4.17,1.71c-9.33,-4.98 -19.77,-7.58 -30.36,-7.56c-21.49,0 -34.82,14.38 -34.82,36c0,21.61 14.12,35.72 32.4,35.72c9.09,0.11 14.87,-1.28 17.31,-4.04v-12.52h-20.12c-2.03,0 -3.21,-0.85 -3.53,-2.44l-2.88,-30.03c-0.32,-2.45 0.85,-3.72 3.53,-3.72z" />
				<path id="Layer" class="shp1" d="M581.91,168.18c-4.17,0.13 -8,-2.3 -9.63,-6.12l-0.16,-0.36l-5.51,-19.25h-32.84l-5.56,19.27l-0.16,0.34c-1.63,3.82 -5.46,6.25 -9.63,6.12h-43.28c-2.48,0.05 -4.82,-1.1 -6.3,-3.08c-1.44,-2.04 -1.8,-4.64 -0.96,-6.99l49.58,-144.77l0.1,-0.22c1.02,-2.29 3.71,-6.13 10.23,-6.13h44.69c6.56,0 9.26,3.83 10.28,6.12l0.09,0.23l49.58,144.65c0.89,2.32 0.59,4.92 -0.79,6.98c-1.43,2.05 -3.79,3.25 -6.3,3.21zM554.72,100.35l-4.54,-15.81l-4.51,15.84z" />
				<path id="Layer" class="shp2" d="M581.91,162.7c-2,0.14 -3.86,-1.01 -4.6,-2.86l-6.52,-22.87h-41.17l-6.63,22.87c-0.74,1.85 -2.61,3.01 -4.6,2.86h-43.29c-1.72,0 -2.57,-1.28 -2.03,-2.86l49.5,-144.49c0.86,-1.92 2.57,-2.87 5.24,-2.87h44.69c2.68,0 4.38,0.95 5.24,2.87l49.51,144.49c0.31,0.64 0.25,1.39 -0.14,1.98c-0.4,0.59 -1.07,0.92 -1.78,0.89zM538.39,105.82h23.61l-11.84,-41.36z" />
				<path id="Layer" class="shp3" d="M90.84,187.65h29.45c1.31,0 2,0.69 2,2.12v92.56c-0.07,1.07 -0.92,1.92 -2,1.99h-26.07c-1.11,-0.04 -2.02,-0.89 -2.13,-1.99v-41.18l-14.17,41.04c-0.55,1.44 -1.72,2.12 -3.58,2.12h-15.49c-1.79,0 -2.95,-0.68 -3.5,-2.12l-14.24,-41.04v41.18c-0.13,1.09 -1.03,1.92 -2.13,1.99h-26.07c-1.08,-0.03 -1.94,-0.91 -1.93,-1.99v-92.56c0,-1.43 0.61,-2.12 1.93,-2.12h29.44c2.02,-0.07 3.89,1.02 4.82,2.8l19.47,53.5l19.41,-53.5c0.92,-1.78 2.8,-2.87 4.82,-2.8z" />
				<path id="Layer" class="shp3" d="M137.85,187.65h24.97c0.59,-0.09 1.19,0.1 1.61,0.52c0.42,0.42 0.62,1.01 0.52,1.6v92.56c0,1.31 -0.68,1.99 -2.13,1.99h-24.97c-1.05,-0.1 -1.87,-0.94 -1.93,-1.99v-92.56c0.03,-1.08 0.85,-1.98 1.93,-2.12z" />
				<path id="Layer" class="shp3" d="M207.77,189.77v69.28h26.21c1.24,0 1.86,0.68 1.79,1.99l-1.9,21.29c-0.02,0.57 -0.28,1.1 -0.71,1.47c-0.43,0.38 -0.99,0.56 -1.56,0.51h-50.92c-1.11,-0.02 -2.01,-0.89 -2.06,-1.99v-92.56c0,-1.15 0.91,-2.09 2.06,-2.12h24.98c1.16,0.05 2.08,0.97 2.13,2.12z" />
				<path id="Layer" class="shp3" d="M274.38,189.77v69.28h26.21c1.24,0 1.86,0.68 1.79,1.99l-1.93,21.27c-0.02,0.57 -0.28,1.1 -0.71,1.47c-0.43,0.38 -0.99,0.56 -1.56,0.51h-50.94c-1.11,-0.02 -2.01,-0.89 -2.07,-1.99v-92.54c0,-1.15 0.92,-2.09 2.07,-2.12h24.97c1.16,0.05 2.08,0.97 2.13,2.12z" />
				<path id="Layer" class="shp3" d="M313.75,187.65h24.98c0.59,-0.09 1.18,0.11 1.61,0.52c0.42,0.42 0.62,1.01 0.53,1.6v92.56c0,1.31 -0.69,1.99 -2.13,1.99h-24.98c-1.04,-0.1 -1.86,-0.95 -1.92,-1.99v-92.56c0.03,-1.08 0.84,-1.98 1.92,-2.12z" />
				<path id="Layer" class="shp3" d="M521.55,187.65h24.91c0.59,-0.09 1.19,0.1 1.61,0.52c0.42,0.42 0.62,1.01 0.52,1.6v92.56c0,1.31 -0.68,1.99 -2.13,1.99h-24.4c-1.26,-0.02 -2.4,-0.73 -2.96,-1.85l-24.49,-43.58v43.44c0,1.31 -0.68,1.99 -2.13,1.99h-24.93c-1.08,-0.03 -1.94,-0.91 -1.93,-1.99v-92.56c0,-1.43 0.62,-2.12 1.93,-2.12h24.4c1.36,-0.13 2.66,0.61 3.23,1.85l24.37,43.51v-43.24c0.06,-1.09 0.91,-1.99 2,-2.12z" />
				<path id="Layer" class="shp3" d="M559.96,216.79c0,-18.67 14.17,-31.26 35.64,-31.26c9.98,0 22.78,4.11 31.58,10.13c1.31,0.82 1.72,1.64 1.09,2.47l-8.87,19.77c-0.48,1.51 -1.31,1.92 -2.55,1.17c-7.7,-4.38 -14.31,-6.84 -19.82,-7.32c-4.33,0.07 -7.22,2.12 -7.22,4.86c0,2.39 3.45,4.79 10.33,7.04c6.88,2.26 13.36,5.58 19.19,9.84c5.99,4.31 10.39,12.18 10.39,21.83c0.07,18.68 -14.58,31.13 -36.26,31.13c-11.81,0 -24.36,-3.69 -31.24,-9.23c-1.24,-0.95 -1.65,-1.78 -1.17,-2.53l8.85,-19.77c0.48,-1.51 1.31,-1.85 2.54,-1.1c7.16,4.04 13.69,6.26 19.61,6.71c4.47,0 7.43,-2.35 7.43,-5.06c-0.06,-2.39 -3.51,-4.79 -10.39,-7.18c-6.76,-2.28 -13.13,-5.58 -18.89,-9.78c-5.78,-4.31 -10.23,-12.18 -10.23,-21.69z" />
				<path id="Layer" class="shp1" d="M402.97,294.12c-16.9,0 -31.35,-5.63 -41.81,-16.28c-10.46,-10.65 -15.84,-25.06 -15.84,-42.04c0,-34.83 23.3,-58.24 57.96,-58.24c16.93,0 31.42,5.6 41.89,16.22c10.47,10.62 15.93,25.1 15.93,42.09c0,34.68 -23.22,58.09 -57.79,58.25z" />
				<path id="Layer" class="shp3" d="M453.23,235.88c0,30.38 -19.82,50.29 -49.95,50.42c-30.28,0.14 -50.09,-20.19 -50.09,-50.49c0,-30.3 19.75,-50.42 50.09,-50.42c30.13,0 49.95,20.19 49.95,50.49zM441.7,224.43l-26.58,-3.83l-11.89,-23.95l-11.89,23.95l-26.58,3.83l19.23,18.65l-4.54,26.32l23.74,-12.43l23.78,12.43l-4.54,-26.32z" />
			</g>
		</g>
	</g>
</svg>