<svg xmlns="http://www.w3.org/2000/svg" xmlns:xlink="http://www.w3.org/1999/xlink" viewBox="0 0 349.81 208.84"><defs><style>.cls-1{isolation:isolate;}.cls-2,.cls-3{fill:#4699fd;}.cls-3{fill-rule:evenodd;}.cls-4{fill:#0d2451;}.cls-5{fill:red;}.cls-6{fill:#fff;}.cls-7{opacity:0.22;}.cls-10,.cls-12,.cls-14,.cls-16,.cls-17,.cls-19,.cls-20,.cls-23,.cls-26,.cls-29,.cls-30,.cls-34,.cls-35,.cls-38,.cls-39,.cls-8{mix-blend-mode:multiply;}.cls-8{fill:url(#radial-gradient);}.cls-11,.cls-12,.cls-13,.cls-14,.cls-15,.cls-17,.cls-18,.cls-20,.cls-21,.cls-23,.cls-24,.cls-26,.cls-27,.cls-30,.cls-31,.cls-34,.cls-35,.cls-36,.cls-38,.cls-39,.cls-40,.cls-9{opacity:0.5;}.cls-11,.cls-13,.cls-15,.cls-18,.cls-21,.cls-24,.cls-27,.cls-31,.cls-36,.cls-40,.cls-9{mix-blend-mode:screen;}.cls-9{fill:url(#radial-gradient-2);}.cls-10{fill:url(#radial-gradient-3);}.cls-11{fill:url(#radial-gradient-4);}.cls-12{fill:url(#linear-gradient);}.cls-13{fill:url(#radial-gradient-5);}.cls-14{fill:url(#linear-gradient-2);}.cls-15{fill:url(#radial-gradient-6);}.cls-16{fill:url(#radial-gradient-7);}.cls-17{fill:url(#linear-gradient-3);}.cls-18{fill:url(#radial-gradient-8);}.cls-19{fill:url(#radial-gradient-9);}.cls-20{fill:url(#linear-gradient-4);}.cls-21{fill:url(#radial-gradient-10);}.cls-22{fill:url(#radial-gradient-11);}.cls-23{fill:url(#linear-gradient-5);}.cls-24{fill:url(#radial-gradient-12);}.cls-25{fill:url(#radial-gradient-13);}.cls-26{fill:url(#linear-gradient-6);}.cls-27{fill:url(#radial-gradient-14);}.cls-28{fill:url(#radial-gradient-15);}.cls-29{fill:url(#radial-gradient-16);}.cls-30{fill:url(#linear-gradient-7);}.cls-31{fill:url(#radial-gradient-17);}.cls-32{fill:url(#radial-gradient-18);}.cls-33{fill:url(#radial-gradient-19);}.cls-34{fill:url(#linear-gradient-8);}.cls-35{fill:url(#linear-gradient-9);}.cls-36{fill:url(#radial-gradient-20);}.cls-37{fill:url(#radial-gradient-21);}.cls-38{fill:url(#linear-gradient-10);}.cls-39{fill:url(#linear-gradient-11);}.cls-40{fill:url(#radial-gradient-22);}</style><radialGradient id="radial-gradient" cx="24.21" cy="-25.74" r="19.94" gradientTransform="translate(122.22 134.81) rotate(0.97) scale(0.97)" gradientUnits="userSpaceOnUse"><stop offset="0" stop-color="#fbff7d"/><stop offset="1" stop-color="#f1e17d"/></radialGradient><radialGradient id="radial-gradient-2" cx="157.58" cy="455.97" r="96.12" gradientTransform="translate(-32.07 -250.92) scale(1.04 1.04)" gradientUnits="userSpaceOnUse"><stop offset="0.62"/><stop offset="0.66" stop-color="#050505"/><stop offset="0.72" stop-color="#131313"/><stop offset="0.77" stop-color="#2b2b2b"/><stop offset="0.83" stop-color="#4b4b4b"/><stop offset="0.9" stop-color="#757575"/><stop offset="0.9" stop-color="#797979"/><stop offset="0.91" stop-color="gray"/><stop offset="0.93" stop-color="#949494"/><stop offset="0.96" stop-color="#b5b5b5"/><stop offset="0.99" stop-color="#e3e3e3"/><stop offset="1" stop-color="#fff"/></radialGradient><radialGradient id="radial-gradient-3" cx="24.22" cy="-25.54" r="19.81" xlink:href="#radial-gradient"/><radialGradient id="radial-gradient-4" cx="157.5" cy="455.98" r="96.15" xlink:href="#radial-gradient-2"/><linearGradient id="linear-gradient" x1="44.96" y1="143.89" x2="72.75" y2="143.89" gradientTransform="matrix(1, 0.02, -0.02, 1, 98.81, -15.84)" gradientUnits="userSpaceOnUse"><stop offset="0" stop-color="#dcb200"/><stop offset="1" stop-color="#d48100"/></linearGradient><radialGradient id="radial-gradient-5" cx="157.56" cy="455.99" r="96.14" xlink:href="#radial-gradient-2"/><linearGradient id="linear-gradient-2" x1="44.91" y1="144.07" x2="72.77" y2="144.07" xlink:href="#linear-gradient"/><radialGradient id="radial-gradient-6" cx="157.53" cy="456.2" r="96.36" xlink:href="#radial-gradient-2"/><radialGradient id="radial-gradient-7" cx="24.29" cy="-25.65" r="19.84" xlink:href="#radial-gradient"/><linearGradient id="linear-gradient-3" x1="44.87" y1="143.88" x2="72.78" y2="143.88" xlink:href="#linear-gradient"/><radialGradient id="radial-gradient-8" cx="157.58" cy="455.92" r="96.07" xlink:href="#radial-gradient-2"/><radialGradient id="radial-gradient-9" cx="24.28" cy="-25.51" r="19.76" xlink:href="#radial-gradient"/><linearGradient id="linear-gradient-4" x1="44.8" y1="144.06" x2="72.81" y2="144.06" xlink:href="#linear-gradient"/><radialGradient id="radial-gradient-10" cx="157.42" cy="455.68" r="95.89" xlink:href="#radial-gradient-2"/><radialGradient id="radial-gradient-11" cx="1.22" cy="-25.48" r="32.65" gradientTransform="translate(122.22 134.81) rotate(0.97) scale(0.97)" gradientUnits="userSpaceOnUse"><stop offset="0" stop-color="#ffe800"/><stop offset="1" stop-color="#dd9800"/></radialGradient><linearGradient id="linear-gradient-5" x1="12.61" y1="143.97" x2="64.91" y2="143.97" gradientTransform="matrix(1, 0.02, -0.02, 1, 98.81, -15.84)" gradientUnits="userSpaceOnUse"><stop offset="0" stop-color="#f4eb53"/><stop offset="1" stop-color="#e5c456"/></linearGradient><radialGradient id="radial-gradient-12" cx="157.57" cy="455.75" r="95.91" xlink:href="#radial-gradient-2"/><radialGradient id="radial-gradient-13" cx="1.21" cy="-25.54" r="32.68" xlink:href="#radial-gradient-11"/><linearGradient id="linear-gradient-6" x1="12.61" y1="144.17" x2="64.91" y2="144.17" xlink:href="#linear-gradient-5"/><radialGradient id="radial-gradient-14" cx="157.62" cy="455.91" r="96.05" xlink:href="#radial-gradient-2"/><radialGradient id="radial-gradient-15" cx="1.16" cy="-25.56" r="32.72" xlink:href="#radial-gradient-11"/><radialGradient id="radial-gradient-16" cx="24.21" cy="-25.56" r="19.83" xlink:href="#radial-gradient"/><linearGradient id="linear-gradient-7" x1="12.64" y1="144.18" x2="64.91" y2="144.18" xlink:href="#linear-gradient-5"/><radialGradient id="radial-gradient-17" cx="157.57" cy="455.84" r="96" xlink:href="#radial-gradient-2"/><radialGradient id="radial-gradient-18" cx="1.16" cy="-25.52" r="32.71" xlink:href="#radial-gradient-11"/><radialGradient id="radial-gradient-19" cx="1.12" cy="-25.58" r="32.75" xlink:href="#radial-gradient-11"/><linearGradient id="linear-gradient-8" x1="44.89" y1="144.08" x2="72.77" y2="144.08" xlink:href="#linear-gradient"/><linearGradient id="linear-gradient-9" x1="12.55" y1="144.08" x2="64.91" y2="144.08" xlink:href="#linear-gradient-5"/><radialGradient id="radial-gradient-20" cx="185.73" cy="364.78" r="0.01" xlink:href="#radial-gradient-2"/><radialGradient id="radial-gradient-21" cx="1.21" cy="-25.51" r="32.67" xlink:href="#radial-gradient-11"/><linearGradient id="linear-gradient-10" x1="44.91" y1="143.91" x2="72.76" y2="143.91" xlink:href="#linear-gradient"/><linearGradient id="linear-gradient-11" x1="12.61" y1="143.91" x2="64.91" y2="143.91" xlink:href="#linear-gradient-5"/><radialGradient id="radial-gradient-22" cx="157.64" cy="455.99" r="96.12" xlink:href="#radial-gradient-2"/></defs><title>Asset 13</title><g class="cls-1"><g id="Layer_2" data-name="Layer 2"><g id="Layer_1-2" data-name="Layer 1"><rect class="cls-2" x="35.35" y="64.19" width="314.47" height="144.54" rx="7.81" ry="7.81"/><path class="cls-3" d="M21.31,29.8c0-1.16,0-2.15,0-3,0-1.14.7-1.23.74-2.19.06-1.27.54-2.44.18-3.82-.15-.59-1-.64-1-1.45s-.2-4,.93-3.79c3.1.11,1.38-1.58,2.14-2.8,1-1.57-1.57-1.66-2.91-1.67-4.88,0-1.06-.53-.13-1.47,2.25-2.25.78-6.95-.83-8.93-.91-1.12-1.08-.66-1.38.61-.16.67-.58,1.79-.68,2.53,0,.35.32.54.48.9.79,1.77.45-3,1.25-.69a4.5,4.5,0,0,1-.28,3.36c-1.72,4.34.09-3.48-2.07-1.36-.68-.89-1.93-2.87-1.93.15,0,3.53,3,4.88-1.66,4.88-1.19,0-1.15,1.26.76,1.49,1.6.2,4,.42,5.05.61s-.91.5-1.11.5c-6,.06-5.48.81-5.46,1.21,0,.85,6,0,4.52.63-.29.12-2.73.48-2.75,2,0,1.14.06,1.7.06,2.38s1.25.61.21.92c-.27.08-.5.25-.13.62s-.19.52-.18,1.09a1.89,1.89,0,0,0,.65,1.7c1.15.77.49,3.14.74,4.59.11.63.25,2.36.39,2.92.32,1.22,3.24,11.25,1.57,10.58-1.43-.58-1.95-1-1.72.7.09.65-.09,2.43-.13,4.38-.1,4.06-1.21-1.69-1.88,4.48-.23,2.07,2.06-2.53,2,.74,0,1.09.4,1.81.81,1.81,1.54,0,2.62-2.88,3.36-4,3.54-5.21.32-18.31.32-20.59ZM4.41,175.32v32.13l8.08-6.78,9-24h7.69v12.68l1.39-.94V176.71h7.69v6.55l.69-.47v-6.08h9l2.06-1.39Zm-3-9.27v4.6H12.2V166Zm12.9,4.6H27.14V166H14.29v4.6Zm35.79,0h2.09V166H50.08v4.6ZM8.34,158v3.9H12.2V158Zm0-8.5v1.12h20.2l2.08-1.12ZM2,172.73H57.15c.32,0,.76.32.58.58l-1.6,2.39,2,33.14H1L3,175.7l-1.61-2.39c-.18-.27.26-.58.59-.58ZM.59,164.66h58a.59.59,0,0,1,.58.59v6.2a.59.59,0,0,1-.58.59H.59a.59.59,0,0,1-.58-.59v-6.2a.59.59,0,0,1,.59-.59Zm7-8.07h44a.59.59,0,0,1,.58.59v6.09H7v-6.09a.59.59,0,0,1,.58-.59Zm-2.08-3.21H53.67a.59.59,0,0,1,.58.59v1.34a.59.59,0,0,1-.58.58H5.45a.59.59,0,0,1-.58-.58V154a.59.59,0,0,1,.58-.59Zm2.09-5.29h44a.59.59,0,0,1,.58.59v2.73a.59.59,0,0,1-.58.59h-44A.59.59,0,0,1,7,151.4v-2.73a.59.59,0,0,1,.58-.59ZM47.2,73.92c1.39-1.65,3.69-4.48,5.57-3.64,2.25,1,4.82,2.17,6.76,3.27S60.11,75.22,59,77c-3,4.1-.45,1.82-.14,2.52s.84,1.42.52,1.94a12.64,12.64,0,0,1-1.67,2.06c-.19.19-.62.37-.79.54s-.23.53-.47.74a.9.9,0,0,1-.78.3c-.23,0,0,.75-.63,1-1.25.46-1.48-3-1.87-2.58-.13.15.29,3.64.11,4a21,21,0,0,1-3.2,4.31,9.7,9.7,0,0,0-1,1.34l-.08.09c.05-1.11.11-2.23.15-3.34.16-4.44.09-9-1.21-13.33a22,22,0,0,0-.83-2.28l.11-.32ZM25.82,136.64c-3.3,2-7,2.49-13,4-3.33,4.1-5.3,6-4,6.8H34.13c5.8,0,9.89-20.56,7.55,0h5.51c3.42-3.5.94-2.63.94-7.19,0-5.56.39-12.21.7-18.15.26-5.09-.09-5.27-3.43-2.76-7.93,6-7.91,5.26-7.79,1,.15-5.2,2.43-29.78,2.91-27.66.26,1.16-.21,27.82.9,26.92.35-.28,1.93-2.51,1.78-7.27-.61-19.86,3.31-8.72,5.11-2,2.27,8.42,1.47-2.45.85-5.21a26.15,26.15,0,0,1-1-8.14c.31-8.87,1.64-18.56-3.75-26.06-.55-.88-1.68-.71-1.4.65.71,3.42-.29,5.75-1,5.29-.82-1,.45-9.4.4-10.59s0-2.54-.8-3.27c-2.3-2.17-.15,4.57-3.7,6.77-.44.27,2.14-7.57,1.84-8.37-.77-2-1.89-2.16-6.34,2.28-5.09,5.09-13.62,2.88-15.18,10.27,0,1.24,11.8-6.21,11.53-4.43-.18,1.15-2.07,3.76-4.44,6.45-.54.62,3.18-1.06,6.3-3.26,2.27-1.6,4.23-4,4-3.44-3.36,7-11.63,8.37-16.81,13.23-3.26,3.06-5,4.91-3,6.37a19.71,19.71,0,0,0,2.84,1.16c.85.43.82,1.88,1.74,1.54,2.89-1,7-8.1,5.82-5.08-1.8,4.72-5.5,11-9.38,12.51-1.24.48.59,1.53.59,3.43s.33,4.65.33,7.38c0,2,1.9,2.08,4.59,1.24,7.69-2.41,8.37-5.94,12.08-12.52,2.58-4.57-2,10.12-5,12.37-5.35,4.11-11.46,4.64-11.82,5.28a34.4,34.4,0,0,0-3.91,13.6c-.25,4,.59,10.8,4.74,8.31,6.86-4.12,12.58-5.29,15.89-7.29,6.23-3.78-.8,10.33-3.71,12.54-1.21.92,5.11-12.5-4.72-6.58Zm-.7-88.58c-1.94-4.19-.28-3.25.37-4.91-.47-.13-1.33-.29-2.16-.44,0-.28,0-.55,0-.82.66,0,1.49,0,2.52,0a5.43,5.43,0,0,0,1.34-.11,5,5,0,0,1,.69-.74c.06-1.05-1.48-2.81-2.47-4.13C24,35,27.32,37.69,29.3,39c.39.25.75.52,1.09.72a8.54,8.54,0,0,1,1.83-.34,13.49,13.49,0,0,0,1.38-3.48C35,31.61,34.9,34,34.79,37.05a15.2,15.2,0,0,0,0,2.47,8.07,8.07,0,0,1,1.09.32c4.6-2.42,10-5.53,2,1.11l-.1.09a3.44,3.44,0,0,1,.3.36c.77,0,2.46-.29,4.55-.5,5.23-.52-.68.9-3.77,2.28l-.17.08a4.19,4.19,0,0,1,0,.44,14.37,14.37,0,0,0,2.86.46c2.62.27,5,.66.44,1-1.26.09-2.91-.05-3.82.38a4,4,0,0,1-.43.63c.12.83.77,2.31-.15,3.7-.55.83.41,2.73.29,3.73s-.69,1-.56,1.74c.66,3.6.28,4.24-3.51,5-.41.08.41-2.85,0-3.23-1.35-1.35-3.93-2.82-2.73-3.44.37-.19,1.55.13,2.3-.3a.66.66,0,0,0,0-1c-.1-.08.11-.59.12-.74s-.8-.32-.79-.72,1-.14,1-.4c0-.61,0-1.26,0-1.87,0-2.17,2.13-.65,1.34-2.23-.69-1.38-2.15-.88-2.9-.22s-2.46.71-1.8,1.11a15.13,15.13,0,0,0,2.08.18c.34.07.07.25-.27.6s-.51.69-1.19.69c-1.14,0-1.83-1.63-1.94-.07,0,.58-.39,1.1-.26,1.37.64,1.31.12,2.57.55,3,.76.71-.65,1.78-.57,2.65C29,57.08,30.3,60.25,30,61c-.2.46-1.27-1.15-2.75-1.15-.89,0-1.72,3-2.52,4-2.7,3.27-5.57,7.33-8.11,7.42-1.6.06-1.55-.62-.8-1.25,1.18-1,3.39-1.45,5.11-3.51,2.69-3.23,4.69-10.67,1.48-5.36-2.15,2.65-3.54,4.7-4.67,4.27-.43-.16,3.29-4.9,2.85-5.75-.26-.51-2.11,4-4.31,3.57-1.93-.37-1-2-1.74-3.81-.6-1.54-1.79-2.1-1.49-4.14.26-1.79.36,3.25,3.1,3.11,1.35-.07,9.75-8.15,9-10.34Zm5.26-2.56a22.71,22.71,0,0,0,3.07-1.25c.35-.21,1.22.37,1.78.46,2.41.37,2.23-1.46-2.38-1.79s-4.62,3.73-4.46,3.73c.87,0,1.35-.83,2-1.15Z"/><rect class="cls-4" x="46.41" y="72.98" width="292.98" height="38.09"/><rect class="cls-5" x="46.41" y="120.18" width="292.98" height="80.08"/><path class="cls-6" d="M64.39,105.52V80.61h6.9L76,88.79q1.2,2.06,2.16,3.91t2,3.92q-.27-5.77-.27-9.64V80.61H86v24.91h-6.9L74.23,97.1q-1.42-2.4-4-7.34.36,4.85.35,8.25v7.51Z"/><path class="cls-6" d="M99.79,105.52V80.61h18.92v5.12H106.17v4.38h11.47v5H106.17v5.33h13v5.09Z"/><path class="cls-6" d="M136,105.52l-6.81-24.91h6.41l3.48,17.67,3.33-17.67h6.8l3.28,17.67L156,80.61h6.41l-6.87,24.91H149.3l-3.53-17.91-3.53,17.91Z"/><path class="cls-6" d="M198.43,105.52V96.13l-8.61-15.52H197l4.58,10,4.57-10h7.2l-8.69,15.52v9.39Z"/><path class="cls-6" d="M222.62,93.09a16.26,16.26,0,0,1,.86-5.44,11.45,11.45,0,0,1,2.5-4.16,10.9,10.9,0,0,1,3.93-2.62,14,14,0,0,1,5.17-.9,14.15,14.15,0,0,1,5.21.9,11,11,0,0,1,3.95,2.61,11.4,11.4,0,0,1,2.52,4.14,17.49,17.49,0,0,1,0,10.9,11.59,11.59,0,0,1-2.52,4.15,10.87,10.87,0,0,1-4,2.63,14.21,14.21,0,0,1-5.17.9,14,14,0,0,1-5.13-.9,10.8,10.8,0,0,1-4-2.63,11.53,11.53,0,0,1-2.5-4.17A16.2,16.2,0,0,1,222.62,93.09Zm6.48,0a9.42,9.42,0,0,0,1.56,5.86,5.28,5.28,0,0,0,4.43,2,5.34,5.34,0,0,0,4.46-2,9.35,9.35,0,0,0,1.57-5.85,11.65,11.65,0,0,0-.7-4.32,5.5,5.5,0,0,0-2.06-2.65,5.81,5.81,0,0,0-3.27-.9,5.7,5.7,0,0,0-3.25.91,5.53,5.53,0,0,0-2,2.66A11.71,11.71,0,0,0,229.1,93.09Z"/><path class="cls-6" d="M260.3,105.52V80.61h11.92a18.24,18.24,0,0,1,4.09.41,7.68,7.68,0,0,1,2.88,1.25,5.18,5.18,0,0,1,1.69,2.15,7.91,7.91,0,0,1,.56,3.13,6.49,6.49,0,0,1-1,3.6,7.41,7.41,0,0,1-3,2.5A4.19,4.19,0,0,1,280,95.57a10,10,0,0,1,.72,3.64q0,.27.06,1.7t.1,2a3.22,3.22,0,0,0,.26,1,1.44,1.44,0,0,0,.64.68v.86h-6.68a8.61,8.61,0,0,1-.4-1.78q-.11-.93-.18-2.6T274.38,99a3,3,0,0,0-1-2.14,3.91,3.91,0,0,0-2.49-.67h-4.26v9.32Zm6.34-14.24h4.75a4.57,4.57,0,0,0,2.84-.71,2.72,2.72,0,0,0,.9-2.27q0-2.71-3.57-2.71h-4.92Z"/><path class="cls-6" d="M294.62,105.52V80.61h6.27v9.5l8.86-9.5h7.66L307.34,91.08l10.32,14.44H310l-7-10-2.15,2.15v7.83Z"/><g class="cls-7"><path class="cls-8" d="M161,129.25l0,0h0Z"/><path class="cls-9" d="M161,129.25l0,0h0Z"/><path class="cls-10" d="M160.75,129l.08.06h0Z"/><path class="cls-11" d="M160.75,129l.08.06h0Z"/><path class="cls-12" d="M160.83,129.11l.05,0,0,0Z"/><path class="cls-13" d="M160.83,129.11l.05,0,0,0Z"/><path class="cls-14" d="M161,129.28l0,0h0Z"/><path class="cls-15" d="M161,129.28l0,0h0Z"/><path class="cls-16" d="M160.81,129.1h0l0,0Z"/><path class="cls-17" d="M160.81,129.1h0l0,0Z"/><path class="cls-18" d="M160.81,129.1h0l0,0Z"/><path class="cls-19" d="M161,129.28h0l0,0Z"/><path class="cls-20" d="M161,129.28h0l0,0Z"/><path class="cls-21" d="M161,129.28h0l0,0Z"/><path class="cls-22" d="M160.88,129.16l.09.09-.08-.09Z"/><path class="cls-23" d="M160.88,129.16l.09.09-.08-.09Z"/><path class="cls-24" d="M160.88,129.16l.09.09-.08-.09Z"/><path class="cls-25" d="M161,129.33a.78.78,0,0,1,.1.17.76.76,0,0,0-.09-.17Z"/><path class="cls-26" d="M161,129.33a.78.78,0,0,1,.1.17.76.76,0,0,0-.09-.17Z"/><path class="cls-27" d="M161,129.33a.78.78,0,0,1,.1.17.76.76,0,0,0-.09-.17Z"/><path class="cls-28" d="M161.13,129.5a.77.77,0,0,0-.09-.17A.76.76,0,0,1,161.13,129.5Z"/><path class="cls-29" d="M161.13,129.5a.77.77,0,0,0-.09-.17A.76.76,0,0,1,161.13,129.5Z"/><path class="cls-30" d="M161.13,129.5a.77.77,0,0,0-.09-.17A.76.76,0,0,1,161.13,129.5Z"/><path class="cls-31" d="M161.13,129.5a.77.77,0,0,0-.09-.17A.76.76,0,0,1,161.13,129.5Z"/><path class="cls-32" d="M160.89,129.17l.08.09,0,0Z"/><path class="cls-33" d="M161,129.32h0Z"/><path class="cls-34" d="M161,129.32h0Z"/><path class="cls-35" d="M161,129.32h0Z"/><path class="cls-36" d="M161,129.32h0Z"/><path class="cls-37" d="M160.86,129.14l0,0h0Z"/><path class="cls-38" d="M160.86,129.14l0,0h0Z"/><path class="cls-39" d="M160.86,129.14l0,0h0Z"/><path class="cls-40" d="M160.86,129.14l0,0h0Z"/><polygon class="cls-6" points="54.85 177.61 53.9 175.83 52.94 177.61 50.8 177.89 52.35 179.28 51.99 181.23 53.9 180.31 55.81 181.23 55.44 179.28 56.99 177.89 54.85 177.61"/><polygon class="cls-6" points="68.94 177.57 67.98 175.79 67.03 177.57 64.89 177.85 66.44 179.24 66.07 181.19 67.98 180.27 69.89 181.19 69.53 179.24 71.08 177.85 68.94 177.57"/><polygon class="cls-6" points="83.21 177.42 82.25 175.64 81.3 177.42 79.16 177.7 80.71 179.09 80.34 181.04 82.25 180.12 84.17 181.04 83.8 179.09 85.35 177.7 83.21 177.42"/><polygon class="cls-6" points="97.94 179.04 99.48 177.66 97.34 177.38 96.39 175.6 95.43 177.38 93.3 177.66 94.84 179.04 94.48 181 96.39 180.08 98.3 181 97.94 179.04"/><polygon class="cls-6" points="62.02 169.6 61.06 167.82 60.11 169.6 57.97 169.89 59.52 171.27 59.15 173.22 61.06 172.3 62.97 173.22 62.61 171.27 64.16 169.89 62.02 169.6"/><polygon class="cls-6" points="76.11 169.56 75.15 167.78 74.19 169.56 72.06 169.85 73.6 171.23 73.24 173.19 75.15 172.26 77.06 173.19 76.69 171.23 78.24 169.85 76.11 169.56"/><polygon class="cls-6" points="90.38 169.41 89.42 167.63 88.47 169.41 86.33 169.7 87.88 171.08 87.51 173.03 89.42 172.11 91.33 173.03 90.97 171.08 92.51 169.7 90.38 169.41"/><polygon class="cls-6" points="51.94 165.29 53.85 164.37 55.76 165.29 55.4 163.34 56.94 161.95 54.81 161.67 53.85 159.89 52.9 161.67 50.76 161.95 52.3 163.34 51.94 165.29"/><polygon class="cls-6" points="66.03 165.25 67.94 164.33 69.85 165.25 69.48 163.3 71.03 161.91 68.89 161.63 67.94 159.85 66.98 161.63 64.85 161.91 66.39 163.3 66.03 165.25"/><polygon class="cls-6" points="80.3 165.1 82.21 164.18 84.12 165.1 83.76 163.15 85.3 161.76 83.17 161.48 82.21 159.7 81.25 161.48 79.12 161.76 80.66 163.15 80.3 165.1"/><polygon class="cls-6" points="94.43 165.06 96.34 164.14 98.25 165.06 97.89 163.11 99.43 161.72 97.3 161.44 96.34 159.66 95.39 161.44 93.25 161.72 94.8 163.11 94.43 165.06"/><polygon class="cls-6" points="62.02 193.79 61.06 192.01 60.11 193.79 57.97 194.07 59.52 195.46 59.15 197.41 61.06 196.49 62.97 197.41 62.61 195.46 64.16 194.07 62.02 193.79"/><polygon class="cls-6" points="76.11 193.75 75.15 191.97 74.19 193.75 72.06 194.03 73.6 195.42 73.24 197.37 75.15 196.45 77.06 197.37 76.69 195.42 78.24 194.03 76.11 193.75"/><polygon class="cls-6" points="90.38 193.6 89.42 191.82 88.47 193.6 86.33 193.88 87.88 195.27 87.51 197.22 89.42 196.3 91.33 197.22 90.97 195.27 92.51 193.88 90.38 193.6"/><polygon class="cls-6" points="51.94 189.48 53.85 188.56 55.76 189.48 55.4 187.52 56.94 186.14 54.81 185.85 53.85 184.08 52.9 185.85 50.76 186.14 52.3 187.52 51.94 189.48"/><polygon class="cls-6" points="66.03 189.44 67.94 188.52 69.85 189.44 69.48 187.49 71.03 186.1 68.89 185.82 67.94 184.04 66.98 185.82 64.85 186.1 66.39 187.49 66.03 189.44"/><polygon class="cls-6" points="80.3 189.29 82.21 188.37 84.12 189.29 83.76 187.33 85.3 185.95 83.17 185.66 82.21 183.88 81.25 185.66 79.12 185.95 80.66 187.33 80.3 189.29"/><polygon class="cls-6" points="94.43 189.25 96.34 188.32 98.25 189.25 97.89 187.29 99.43 185.91 97.3 185.62 96.34 183.84 95.39 185.62 93.25 185.91 94.8 187.29 94.43 189.25"/><polygon class="cls-6" points="59.06 157.28 60.97 156.36 62.88 157.28 62.52 155.33 64.06 153.94 61.93 153.66 60.97 151.88 60.02 153.66 57.88 153.94 59.43 155.33 59.06 157.28"/><polygon class="cls-6" points="73.15 157.25 75.06 156.32 76.97 157.25 76.6 155.29 78.15 153.91 76.01 153.62 75.06 151.84 74.1 153.62 71.97 153.91 73.51 155.29 73.15 157.25"/><polygon class="cls-6" points="87.42 157.09 89.33 156.17 91.24 157.09 90.88 155.14 92.42 153.75 90.29 153.47 89.33 151.69 88.38 153.47 86.24 153.75 87.78 155.14 87.42 157.09"/><polygon class="cls-6" points="65.94 149.31 67.85 148.39 69.76 149.31 69.39 147.36 70.94 145.97 68.8 145.69 67.85 143.91 66.89 145.69 64.75 145.97 66.3 147.36 65.94 149.31"/><polygon class="cls-6" points="80.21 149.16 82.12 148.24 84.03 149.16 83.66 147.21 85.21 145.82 83.07 145.54 82.12 143.76 81.16 145.54 79.03 145.82 80.57 147.21 80.21 149.16"/><polygon class="cls-6" points="94.34 149.12 96.25 148.19 98.16 149.12 97.8 147.16 99.34 145.78 97.21 145.49 96.25 143.72 95.3 145.49 93.16 145.78 94.71 147.16 94.34 149.12"/><polygon class="cls-6" points="73.1 141.29 75.01 140.36 76.92 141.29 76.56 139.33 78.1 137.95 75.97 137.66 75.01 135.88 74.06 137.66 71.92 137.95 73.47 139.33 73.1 141.29"/><polygon class="cls-6" points="87.37 141.13 89.28 140.21 91.19 141.13 90.83 139.18 92.38 137.8 90.24 137.51 89.28 135.73 88.33 137.51 86.19 137.8 87.74 139.18 87.37 141.13"/><path class="cls-6" d="M79,129.86l1.55,1.38-.36,2,1.91-.92,1.91.92-.37-2,1.55-1.38L83,129.58l-.61-1.15-.86.33-.44.82Z"/><polygon class="cls-6" points="55.97 147.72 57.88 146.8 59.79 147.72 59.43 145.77 60.97 144.38 58.84 144.1 57.88 142.32 56.93 144.1 54.79 144.38 56.34 145.77 55.97 147.72"/><polygon class="cls-6" points="62.84 139.75 64.75 138.83 66.67 139.75 66.3 137.79 67.85 136.41 65.71 136.13 64.75 134.35 63.8 136.13 61.66 136.41 63.21 137.79 62.84 139.75"/><polygon class="cls-6" points="70.01 131.72 71.92 130.8 73.83 131.72 73.47 129.77 75.01 128.38 72.88 128.1 71.92 126.32 70.97 128.1 68.83 128.38 70.38 129.77 70.01 131.72"/><polygon class="cls-6" points="53.08 140.49 54.99 139.57 56.91 140.49 56.54 138.54 58.09 137.15 55.95 136.87 54.99 135.09 54.04 136.87 51.9 137.15 53.45 138.54 53.08 140.49"/><path class="cls-6" d="M59,129.07l1.55,1.38-.36,2,1.91-.92,1.91.92-.37-2,1.55-1.38L63,128.78l-.61-1.15-.86.33-.44.82Z"/><polygon class="cls-6" points="49.99 130.93 51.9 130.01 53.81 130.93 53.45 128.97 54.99 127.59 52.86 127.3 51.9 125.53 50.95 127.3 48.81 127.59 50.36 128.97 49.99 130.93"/><polygon class="cls-6" points="94.3 133.16 96.2 132.24 98.12 133.16 97.75 131.2 99.3 129.82 97.16 129.53 96.2 127.76 95.25 129.53 93.11 129.82 94.66 131.2 94.3 133.16"/><rect class="cls-6" x="106.46" y="162.73" width="232.78" height="10.68"/><rect class="cls-6" x="106.46" y="183.95" width="232.78" height="10.68"/><rect class="cls-6" x="106.46" y="141.27" width="232.78" height="10.68"/><rect class="cls-6" x="106.46" y="120.18" width="232.78" height="10.68"/></g><path class="cls-6" d="M63.46,143H72v31.57H90.85v7.16H63.46Z"/><path class="cls-6" d="M115,142.07c12,0,19,9,19,20.45,0,11.17-7.05,20.13-19,20.13s-19-9-19-20.12C96,151,103.05,142.07,115,142.07Zm0,33.42c7.65,0,10.52-6.51,10.52-13,0-6.78-2.87-13.29-10.52-13.29s-10.52,6.51-10.52,13.29C104.52,169,107.39,175.49,115,175.49Z"/><path class="cls-6" d="M150.52,150.15H138.91V143h31.73v7.16H159v31.57h-8.52Z"/><path class="cls-6" d="M185.72,150.15H174.11V143h31.73v7.16H194.23v31.57h-8.52Z"/><path class="cls-6" d="M212.35,143h29v7.16H220.87v8.3h18.77v6.62H220.87v9.49h20.88v7.16h-29.4Z"/><path class="cls-6" d="M249.56,143h20.88c6.94,0,11.34,4.83,11.34,10.69,0,4.56-1.84,8-6.13,9.71v.11c4.18,1.08,5.37,5.15,5.64,9.06.16,2.44.11,7,1.63,9.17H274.4c-1-2.44-.92-6.18-1.36-9.28-.6-4.07-2.17-5.86-6.46-5.86h-8.52v15.13h-8.52Zm8.52,17.52h9.33c3.8,0,5.86-1.63,5.86-5.53,0-3.74-2.06-5.37-5.86-5.37h-9.33Z"/><path class="cls-6" d="M298.81,166.64,284.55,143h9.6l9.06,15.3,9-15.3h9.49l-14.37,23.87v14.86h-8.52Z"/></g></g></g></svg>