<svg xmlns="http://www.w3.org/2000/svg" viewBox="0 0 950 300" width="950" height="300">
	<style>
		tspan { white-space:pre }
		.shp0 { fill: none } 
		.shp1 { fill: #129164 } 
		.shp2 { fill: #fff100 } 
	</style>
	<g id="Layer_2">
		<g id="Logos">
			<path id="BG" class="shp0" d="M-6,353l956,0v-389.84l-956,0z" />
			<g id="Oz_Lotto">
				<path id="Layer" class="shp1" d="M938.84,180.78c-0.06,9.06 -1.91,18.01 -5.45,26.31c-3.46,8.29 -8.54,15.77 -14.94,21.98c-6.41,6.17 -14.02,10.91 -22.34,13.9c-8.84,3.26 -18.17,4.95 -27.57,5.02h-0.51c-18.7,-0.1 -34.81,-6.71 -47.87,-19.59c-9.12,-8.78 -15.44,-20.15 -18.16,-32.63l-0.32,51.33l-68.02,-0.44l0.42,-66.27l-18.76,-0.13v-0.16h-2.13l-0.42,66.27l-68.01,-0.44l0.28,-43.78c-0.54,1.56 -1.11,3.12 -1.76,4.66c-3.47,8.28 -8.55,15.76 -14.94,21.98c-6.4,6.19 -14.01,10.95 -22.32,13.97c-8.86,3.26 -18.19,4.96 -27.61,5.02h-0.47c-18.71,-0.1 -34.82,-6.71 -47.87,-19.59c-0.65,-0.61 -1.28,-1.28 -1.91,-1.95l-5.32,18.92l-93.12,-0.6l0.82,-130.75l68.01,0.44l-0.43,69.4l12.24,0.08c-0.09,-1.35 -0.09,-2.71 -0.09,-4.09c0.09,-19.13 6.85,-35.34 20.08,-48.15c12.92,-12.51 29.37,-18.86 48.9,-18.86h0.58c9.24,0.05 18.4,1.79 27.04,5.14c7.99,3 15.3,7.61 21.49,13.57l0.66,-16.2l114.72,0.75v0.16l88.91,0.58l-2.06,7.05c11.09,-7.18 24.05,-10.82 38.81,-10.82h0.59c9.24,0.06 18.39,1.8 27.03,5.15c12.55,4.68 23.31,13.33 30.7,24.69c7.44,11.25 11.32,24.54 11.13,38.11zM587.79,180.15c0,-5.93 -3.71,-10.8 -8.28,-10.8c-4.57,0 -8.28,4.86 -8.28,10.8c0,5.94 3.71,10.81 8.28,10.81c4.57,0 8.28,-4.88 8.28,-10.81zM877.91,180.77c0,-5.93 -3.69,-10.8 -8.27,-10.8c-4.58,0 -8.28,4.87 -8.28,10.8c0,5.93 3.7,10.8 8.28,10.8c4.57,0 8.27,-4.87 8.27,-10.8z" />
				<path id="Layer" class="shp1" d="M383.48,291.98c4.66,-0.19 9.3,-0.78 13.86,-1.74c3.1,-0.71 6.16,-1.62 9.14,-2.75c0,0 19.39,-24.89 14.09,-75.57c-0.34,-3.28 -0.63,-4.38 -3.97,-4.36c-9.56,0.08 -19.22,0 -28.81,-0.31c-12.88,-0.44 -25.75,-1.17 -39.84,-1.84c37.13,-45.56 75.65,-88.29 109.55,-135.2l-13.38,-4.79c4.49,-7.42 4.5,-7.43 -3.43,-9.6c-21.99,-5.99 -44.11,-11.29 -66.55,-15.2c-39.65,-6.94 -79.55,-9.9 -119.78,-7.64c-4.02,0.22 -5.74,1.58 -6.46,5.66c-2.56,14.33 -5.48,28.58 -8.6,44.57c-0.74,-1.68 -0.96,-2.29 -1.25,-2.84c-19.03,-33.32 -52.2,-55.7 -89.73,-60.53c-11.52,-1.55 -23.2,-1.41 -34.68,0.41c0,0 -34.82,6.82 -63.05,30.53c-57.57,48.45 -60.98,136.35 -7.02,188.9c38.38,37.38 96.7,44.98 142.26,18.45c6.79,-3.95 13.27,-8.42 19.89,-12.67c0.44,-0.32 1.08,-1.03 1.28,-0.92c1.18,0.66 0.12,1.27 -0.18,1.89c-1.81,2.6 -3.48,5.32 -5.45,7.8c-1.11,1.37 -1.72,2.4 -1.49,3.21c0.36,1.27 2.35,1.68 2.95,1.81c3.73,0.84 17.44,4.97 36.64,10.88l66.97,15.17c39.36,4.86 68.46,6.98 77.03,6.68z" />
				<path id="Layer" class="shp2" d="M364.45,160.29c23.22,-30.64 46.74,-61.06 68.52,-92.81c2.45,-3.58 2.55,-4.79 -2.07,-5.99c-22.4,-6 -45.08,-10.84 -67.95,-14.51c-33.91,-5.26 -67.97,-8.02 -102.29,-6.18c-4.24,0.22 -5.36,1.95 -6.36,5.77c-4.21,16.28 -5.56,33.05 -8.9,49.46c-0.74,3.65 0.47,4.27 3.68,4.35c12.94,0.31 25.89,0.61 38.8,1.42c11.05,0.68 22.18,0.81 33.73,2.75c-36.25,50.08 -74.92,97.32 -109.5,148.5c15.61,4.66 30.8,8.1 46.08,11.23c45.21,9.24 90.82,13.64 136.94,10.72c2.73,-0.18 5.42,0.15 6.15,-3.71c3.01,-15.98 6.1,-31.93 9.28,-47.87c1.16,-5.85 0.12,-8.92 -6.83,-8.08c-5.54,0.66 -11.25,0 -16.89,-0.14c-15.74,-0.43 -31.47,-0.86 -47.21,-1.39c-4.66,-0.17 -9.02,-2.27 -14.21,-1.77c3.92,-5.21 7.26,-9.67 10.61,-14.11c9.45,-12.54 18.93,-25.08 28.42,-37.62z" />
				<path id="Layer" class="shp2" d="M238.32,149.61c-1.23,62.77 -50.1,107.5 -108.31,108.18c-60.42,-0.74 -107.77,-50.61 -107.07,-112.75c0.7,-60.43 49.83,-109.07 109.75,-108.03c58.51,1.01 106.86,49.83 105.63,112.6zM176.19,208.87c-1.94,0.29 -3.92,0.16 -5.8,-0.38c-4.28,-1.34 -6.02,-0.3 -5.94,5c0.71,2.06 1.61,4.05 2.69,5.94c1.47,2.22 3.86,4.82 6.46,2.43c2.66,-2.55 4.78,-5.63 6.22,-9.05c1.13,-2.57 -0.32,-4.4 -3.63,-3.94zM198.68,125.74c-9.29,-10.71 -16.1,-23.41 -19.93,-37.17c-0.81,-2.9 -1.77,-5.76 -2.87,-8.57c-1.9,-4.85 -3.98,-9.64 -5.98,-14.45h-2.25c-1.17,4.5 -2.49,8.97 -3.44,13.53c-0.89,4.41 -0.95,9.02 -2.11,13.35c-1.46,5.41 -5.75,7.29 -10.33,4.22c-4.05,-2.72 -7.33,-6.64 -10.96,-10.02c-2.48,-2.32 -2.35,-4.69 -0.76,-7.61c1.41,-2.57 2.04,-5.58 2.76,-7.71c-5.29,-1.06 -9.62,-1.59 -13.73,-2.84c-6.16,-1.87 -9.98,-0.93 -13.8,4.4c-1.85,2.56 -3.39,5.35 -5.31,7.88c-3.34,4.46 -7.9,7.31 -13.29,5.74c-6.43,-1.86 -10.92,0.31 -14.82,5.02c-2.33,2.81 -5.11,5.5 -6.53,8.77c-3.24,7.52 -9.32,11.46 -16.01,14.88c-2.22,1.1 -4.37,2.34 -6.43,3.71c-7.35,4.97 -10.79,13.11 -8.51,21.78c1.44,5.45 4.22,10.52 5.97,15.91c2.19,6.72 5.7,13.69 5.49,20.47c-0.33,10.47 3.53,11.64 10.91,8.63c11.92,-4.86 18.04,-9.71 27.53,-14.29c6.43,-3.05 10.12,-4.83 15.53,-5c5.37,-0.02 10.67,1.22 15.49,3.63c1.24,0.58 5.1,2.43 11.47,7.7c9.88,8.17 11.24,11.03 20.39,19.73c6.61,6.27 14.29,8.41 22.69,4.41c3.1,-1.54 5.79,-3.81 7.84,-6.64c6.51,-9.04 13.53,-17.92 18.59,-27.8c7.88,-15.38 2.76,-29.54 -7.6,-41.66z" />
				<path id="Layer" class="shp2" d="M481.06,136.66l-35.3,0.58l1.54,97.38l64.35,-1.06l7.26,-28.13l-36.76,0.6l-1.09,-69.38z" />
				<path id="Layer" class="shp2" d="M623.43,154.31c5.8,8.33 8.95,18.28 9.02,28.5c0.11,6.82 -1.14,13.6 -3.66,19.92c-2.46,6.28 -6.15,11.99 -10.86,16.75c-4.65,4.7 -10.22,8.35 -16.35,10.72c-7.13,2.82 -14.69,4.36 -22.34,4.55c-14.41,0.23 -26.71,-4.45 -36.91,-14.05c-10.2,-9.6 -15.41,-21.66 -15.64,-36.16c-0.22,-14.5 4.52,-26.66 14.23,-36.51c9.71,-9.84 22.3,-14.89 37.78,-15.15c7.29,-0.13 14.54,1.07 21.41,3.57c9.46,3.24 17.63,9.5 23.33,17.85zM596.43,190.37c0.77,-2.23 1.13,-4.59 1.08,-6.95c0.02,-3.62 -1,-7.17 -2.92,-10.21c-1.92,-2.95 -4.69,-5.22 -7.93,-6.49c-2.41,-1.01 -4.99,-1.52 -7.59,-1.5c-7.35,0.14 -13.86,4.87 -16.4,11.9c-0.87,2.2 -1.29,4.56 -1.22,6.93c0.01,3.62 1.09,7.16 3.09,10.16c1.94,2.95 4.71,5.24 7.93,6.57c2.35,1.03 4.89,1.54 7.45,1.5c7.4,-0.09 13.98,-4.82 16.54,-11.9z" />
				<path id="Layer" class="shp2" d="M643.12,165.13l18.17,-0.29l1.05,66.27l35.29,-0.58l-1.04,-66.27l15.78,-0.26l8.4,-31.25l-77.09,1.27l-0.56,31.12z" />
				<path id="Layer" class="shp2" d="M732.01,163.83l18.18,-0.3l1.04,66.27l35.3,-0.58l-1.05,-66.27l15.79,-0.26l8.39,-31.26l-77.08,1.27l-0.57,31.13z" />
				<path id="Layer" class="shp2" d="M922.49,176.38c0.11,6.83 -1.14,13.61 -3.67,19.93c-2.45,6.27 -6.13,11.96 -10.81,16.72c-4.66,4.7 -10.23,8.35 -16.36,10.72c-7.13,2.83 -14.7,4.37 -22.35,4.55c-14.42,0.24 -26.73,-4.44 -36.92,-14.04c-10.19,-9.6 -15.4,-21.66 -15.63,-36.16c-0.23,-14.5 4.51,-26.66 14.22,-36.51c9.71,-9.84 22.3,-14.89 37.78,-15.15c7.29,-0.13 14.54,1.08 21.4,3.57c9.44,3.25 17.62,9.5 23.31,17.84c5.81,8.34 8.96,18.29 9.03,28.52zM887.62,176.98c0.01,-3.63 -1.02,-7.19 -2.95,-10.23c-1.92,-2.95 -4.69,-5.22 -7.93,-6.5c-2.41,-1 -4.99,-1.51 -7.59,-1.49c-7.35,0.14 -13.86,4.87 -16.4,11.9c-0.87,2.2 -1.28,4.55 -1.21,6.92c-0.01,3.63 1.05,7.18 3.03,10.19c1.94,2.95 4.71,5.24 7.93,6.57c2.35,1.03 4.9,1.54 7.46,1.5c3.62,-0.03 7.15,-1.2 10.1,-3.34c2.97,-2.1 5.22,-5.1 6.43,-8.57c0.79,-2.23 1.18,-4.58 1.14,-6.95z" />
			</g>
		</g>
	</g>
</svg>