<svg xmlns="http://www.w3.org/2000/svg" viewBox="0 0 892 300" width="892" height="300">
	<defs>
		<radialGradient id="grd1" gradientUnits="userSpaceOnUse"  cx="444.264" cy="149.689" r="328.165">
			<stop offset="0" stop-color="#ffffff"  />
			<stop offset="1" stop-color="#c9c9c9"  />
		</radialGradient>
	</defs>
	<style>
		tspan { white-space:pre }
		.shp0 { fill: none } 
		.shp1 { fill: url(#grd1) } 
		.shp2 { fill: #000000 } 
		.shp3 { fill: #000000;stroke: #ffffff;stroke-width: 0.912 } 
		.shp4 { fill: #ff0000 } 
		.shp5 { fill: #ffffff } 
	</style>
	<g id="powerBall">
		<g id="Logos">
			<path id="BG" class="shp0" d="M-9,332.6h912v-364.8h-912z" />
			<g id="US_Powerball">
				<path id="Layer" class="shp1" d="M884.76,146.39c-0.75,-10.85 -9.75,-19.27 -20.62,-19.3h-31.79c-3.11,0.01 -6.18,0.74 -8.96,2.15c-2.83,-1.41 -5.95,-2.15 -9.12,-2.15h-31.77c-11.25,0.16 -20.32,9.25 -20.46,20.49v20.16c-10.27,-7.79 -23.71,-11.73 -40.06,-11.73c-11.17,-0.13 -22.27,1.66 -32.83,5.29c-3.59,1.23 -7.08,2.73 -10.44,4.47c-6.17,3.19 -8.46,5.47 -9.63,6.74c-0.77,0.86 -1.49,1.78 -2.13,2.74c-10.99,-12.58 -26.52,-19.22 -45.06,-19.22c-2.55,0 -5.11,0.15 -7.64,0.47v-8.89c-0.16,-11.27 -9.28,-20.36 -20.55,-20.49h-16.78c1.47,-5.29 2.19,-10.75 2.15,-16.24c0,-14.92 -5.79,-28.82 -15.74,-38.36c0.5,-0.91 0.94,-1.86 1.31,-2.83l10.61,-23.77c2.13,-3.89 2.85,-8.41 2.02,-12.77c-1.08,-5.69 -4.51,-10.65 -9.45,-13.68c-14.23,-9.7 -33.88,-15.97 -50.16,-15.97c-15.5,0 -29.18,4.07 -40.13,11.8c-3.38,-4.91 -8.68,-8.15 -14.59,-8.91l0.12,-0.17h-33.59c-5.97,0 -11.65,2.53 -15.63,6.98c-3.96,-4.44 -9.62,-6.97 -15.56,-6.98h-30.93c-11.57,0.04 -20.94,9.41 -20.98,20.98v75.18c0.39,20.73 6.59,37.1 18.42,48.65c2.89,2.81 6.07,5.3 9.5,7.42h-30.92c-5.31,-0.66 -10.48,2.08 -12.9,6.85c-2.19,-4.88 -7.39,-7.69 -12.68,-6.85h-27.76c-2.68,-0.5 -5.45,-0.09 -7.87,1.17c-2.27,1.2 -4.1,3.08 -5.23,5.38c-2.58,-4.57 -7.65,-7.14 -12.86,-6.55h-36.19c-6,-0.03 -11.7,2.65 -15.5,7.3c-10.99,-6.38 -24.12,-9.86 -38.23,-9.86c-16.73,0 -32.09,4.85 -44.14,13.82c-3.35,-7.84 -8.48,-14.8 -14.98,-20.33c-12.19,-10.44 -28.96,-15.96 -48.48,-15.96h-42.48c-11.01,0 -20.3,9.5 -20.3,20.67v118.56c0.13,11.23 9.17,20.31 20.4,20.48h32.16c11.4,0.08 20.72,-9.08 20.83,-20.48v-18.46c10.07,-0.97 19.83,-4.02 28.66,-8.95c2.87,11.82 8.96,22.62 17.57,31.2c12.77,12.52 30.78,19.42 50.78,19.42c20,0 38.04,-6.94 50.81,-19.54c3.47,-3.43 6.53,-7.25 9.12,-11.38l4.05,12.8c2.56,9.16 10.94,15.46 20.45,15.39h27.77c6.87,0.05 13.35,-3.2 17.42,-8.75c4.05,5.52 10.5,8.77 17.36,8.75h27.86c9.51,0.08 17.89,-6.23 20.45,-15.39l3.96,-12.66c2.58,4.1 5.62,7.89 9.06,11.3c12.69,12.55 30.46,19.46 50.04,19.46c16.51,0 31.01,-3.39 43.1,-10.08h0.57l0.41,-0.29c3.89,4.83 9.76,7.65 15.96,7.65h31.64c8.2,-0.01 15.63,-4.86 18.92,-12.38c3.26,7.5 10.66,12.36 18.84,12.38h20.33c3.45,0.02 6.85,-0.85 9.86,-2.54c7.95,3.49 17.05,5.25 27.2,5.25c17.76,0 33.87,-6.81 45.54,-19.22c1.13,1.46 2.35,2.84 3.65,4.16c9.57,9.7 23.16,15.06 38.3,15.06c10.12,0 19,-1.49 26.63,-4.46c2.63,1.15 5.46,1.74 8.33,1.74h22.58c3.16,0 6.28,-0.73 9.12,-2.13c2.83,1.41 5.96,2.14 9.12,2.13h31.63c3.15,-0.01 6.25,-0.75 9.06,-2.17c2.83,1.42 5.95,2.17 9.12,2.17h31.64c11.37,-0.15 20.55,-9.32 20.7,-20.69c0,-42 0,-84.01 0,-126.02z" />
				<path id="Layer" class="shp2" d="M430.12,24.23h30.84c0.82,0 1.6,0.32 2.17,0.9c0.58,0.58 0.9,1.36 0.89,2.18v74.83c0,31.8 -17.08,48.45 -49.33,48.45c-32.25,0 -49.16,-16.65 -49.77,-48.45v-74.78c0.02,-1.69 1.38,-3.05 3.06,-3.07h30.94c0.81,0 1.58,0.33 2.14,0.91c0.56,0.58 0.86,1.36 0.84,2.16v78.07c0,8.14 4.73,13.05 12.62,13.05c7.89,0 12.53,-4.82 12.53,-12.88v-78.29c0.01,-1.69 1.38,-3.05 3.06,-3.07z" />
				<path id="Layer" class="shp2" d="M472.96,61.55c0,-23.91 18.05,-40.04 45.38,-40.04c12.71,0 29.01,5.25 40.23,12.97c1.66,1.05 2.19,2.1 1.4,3.16l-11.3,25.32c-0.61,1.93 -1.67,2.45 -3.25,1.49c-9.81,-5.6 -18.24,-8.76 -25.24,-9.37c-5.47,0.08 -9.19,2.74 -9.19,6.22c0,3.06 4.38,6.13 13.14,9.02c8.76,2.89 17.01,7.15 24.44,12.62c7.62,5.52 13.23,15.6 13.23,27.95c0.08,23.91 -18.58,39.86 -46.17,39.86c-15.08,0 -31.01,-4.73 -39.78,-11.86c-1.58,-1.22 -2.1,-2.28 -1.49,-3.24l11.3,-25.33c0.61,-1.93 1.67,-2.37 3.25,-1.4c9.12,5.17 17.44,7.98 24.97,8.59c5.69,0 9.46,-2.98 9.46,-6.48c-0.08,-3.07 -4.47,-6.14 -13.22,-9.2c-8.63,-2.92 -16.75,-7.14 -24.1,-12.53c-7.36,-5.47 -13.06,-15.6 -13.06,-27.78z" />
				<path id="Layer" class="shp3" d="M24.17,151.35h42.41c31.1,0 50.29,16.82 50.29,42.67c0,25.86 -19.15,42.75 -50.29,42.75h-7.36v35.84c-0.18,1.46 -1.42,2.55 -2.89,2.53h-32.16c-1.33,-0.13 -2.36,-1.21 -2.45,-2.54v-118.56c0,-1.4 1.31,-2.81 2.45,-2.74zM58.83,183.42v21.2h9.33c6.22,0 10.6,-4.38 10.6,-10.6c0,-6.22 -4.38,-10.61 -10.6,-10.61z" />
				<path id="Layer" class="shp2" d="M343.37,176.49h36.27c0.62,-0.04 1.21,0.24 1.58,0.73c0.37,0.5 0.46,1.14 0.25,1.72l-29.25,93.67c-0.29,1.54 -1.68,2.62 -3.24,2.54h-27.83c-1.61,0.05 -3.05,-0.99 -3.51,-2.54l-13.87,-47.63l-13.84,47.67c-0.52,1.54 -1.97,2.56 -3.59,2.54h-27.77c-1.56,0.09 -2.95,-1 -3.25,-2.54l-29.27,-93.71c-0.21,-0.58 -0.12,-1.23 0.25,-1.72c0.37,-0.5 0.96,-0.77 1.58,-0.73h36.19c1.6,-0.19 3.08,0.88 3.42,2.45l9.38,39.34l9.64,-39.34c0.09,-0.76 0.49,-1.45 1.1,-1.91c0.61,-0.46 1.38,-0.66 2.14,-0.54h28.04c2.36,0 2.74,0.61 3.16,2.45l9.72,39.34l9.38,-39.34c0.3,-1.56 1.75,-2.63 3.33,-2.45z" />
				<path id="Layer" class="shp2" d="M470.59,267.79c-10.16,6.75 -22.87,10.08 -38.11,10.08c-30.5,0 -51.98,-20.77 -51.98,-51.87c0,-31.11 21.14,-52.08 51.63,-52.08c26.99,0 46.09,14.81 46.09,46.89c0,3.66 -0.2,7.31 -0.62,10.94c-0.02,0.71 -0.33,1.38 -0.86,1.84c-0.53,0.47 -1.24,0.69 -1.94,0.62h-55.91c0,7.88 6.05,13.14 15.08,13.14c9.5,0.06 18.89,-1.97 27.52,-5.95c0.32,-0.17 0.68,-0.26 1.05,-0.26c0.7,0 1.23,0.53 1.58,1.67l7.72,22.25c0.35,1.05 -0.09,1.93 -1.23,2.74zM418.73,215.86h25.54c0,-7.98 -4.72,-13.06 -12.35,-13.06c-7.62,0 -13.19,5.05 -13.19,13.06z" />
				<path id="Layer" class="shp2" d="M542.18,176.49h4.65c1.66,0 2.54,0.79 2.54,2.45v23.39c0,1.67 -0.91,2.54 -2.54,2.45h-4.65c-6.66,0 -12.88,2.98 -15.24,7.54v60.07c-0.06,1.49 -1.25,2.68 -2.74,2.74h-31.6c-1.47,-0.06 -2.63,-1.27 -2.63,-2.74v-93.46c0.14,-1.36 1.26,-2.41 2.63,-2.45h20.33c1.14,0 2.11,0.88 2.89,2.64l2.64,8.05c5.86,-7.1 13.84,-10.69 23.71,-10.69z" />
				<path id="Layer" class="shp2" d="M596.33,147.58v35.92c5.69,-5.96 15.07,-9.55 25.54,-9.55c28.66,0 43.64,20.77 43.64,51.87c0,31.1 -19.14,52.06 -46.14,52.06c-13.5,0 -24.01,-3.95 -31.55,-11.86l-2.63,6.38c-0.79,1.93 -1.76,2.74 -2.89,2.74h-20.32c-1.47,-0.05 -2.64,-1.26 -2.64,-2.74v-124.83c0.1,-1.4 1.24,-2.5 2.64,-2.54h31.63c1.41,0.08 2.56,1.15 2.74,2.54zM610.44,247.2c9.81,0 16.55,-8.58 16.55,-21.2c0,-12.62 -6.66,-21.2 -16.55,-21.2c-5.53,0.03 -10.74,2.62 -14.11,7.01v28.39c2.8,4.2 8.5,7 14.1,7z" />
				<path id="Layer" class="shp2" d="M682.82,184.21c10.77,-6.86 23.83,-10.3 39.16,-10.3c30.75,0 45.13,16.42 45.13,52.05v46.45c-0.02,1.5 -1.24,2.71 -2.74,2.74h-22.59c-1.51,-0.03 -2.73,-1.23 -2.8,-2.74l-1.31,-4.82c-6.48,6.86 -16.74,10.29 -30.84,10.29c-20.59,0 -34.35,-13.5 -34.08,-32.16c0.26,-18.66 13.75,-30.14 34.08,-30.14c10.52,0 19.8,3.65 23.31,9.55v-7.53c0,-7.71 -5.47,-12.77 -13.76,-12.77c-7.62,0 -14.19,1.4 -20.98,5.26c-0.55,0.4 -1.25,0.52 -1.9,0.33c-0.65,-0.19 -1.18,-0.67 -1.43,-1.3l-10.21,-21.53c-0.63,-1.22 -0.21,-2.71 0.97,-3.42zM730.13,242.82c-2.98,-2.98 -5.96,-4.47 -8.86,-4.47c-5.87,0 -8.5,2.63 -8.5,6.48c0,3.86 2.63,6.48 8.5,6.38c2.89,0 5.87,-1.49 8.86,-4.47z" />
				<path id="Layer" class="shp2" d="M782.62,145.04h31.63c1.42,0.04 2.59,1.13 2.74,2.54v124.83c-0.12,1.46 -1.28,2.62 -2.74,2.74h-31.63c-1.47,-0.05 -2.64,-1.26 -2.64,-2.74v-124.83c0.1,-1.4 1.24,-2.5 2.64,-2.54z" />
				<path id="Layer" class="shp2" d="M832.47,145.04h31.64c1.42,0.03 2.6,1.13 2.74,2.54v124.83c-0.12,1.46 -1.28,2.62 -2.74,2.74h-31.64c-1.47,-0.06 -2.63,-1.27 -2.63,-2.74v-124.83c0.1,-1.39 1.23,-2.49 2.63,-2.54z" />
				<path id="Layer" class="shp4" d="M226.92,225.79c0,31.07 -21.19,52.05 -52.74,52.05c-31.55,0 -52.75,-20.77 -52.75,-51.87c0,-31.36 21.47,-52.05 52.75,-52.05c31.54,0 52.74,20.8 52.74,51.87zM192.98,232.28l18.81,-18.33l-25.99,-3.78l-11.62,-23.56l-11.63,23.56l-25.99,3.78l18.81,18.33l-4.44,25.91l23.26,-12.23l23.25,12.18z" />
				<path id="Layer" class="shp5" d="M174.18,185.13l-11.87,24.05l-26.53,3.85l19.2,18.72l-4.53,26.43l23.74,-12.49l23.73,12.49l-4.53,-26.43l19.2,-18.72l-26.53,-3.85l-11.87,-24.05z" />
			</g>
		</g>
	</g>
</svg>