<svg xmlns="http://www.w3.org/2000/svg" viewBox="0 0 722 300" width="722" height="300">
	<style>
		tspan { white-space:pre }
		.shp0 { fill: #ffffff } 
		.shp1 { fill: #44a949 } 
		.shp2 { fill: #ffc31d } 
		.shp3 { fill: #ee3941 } 
		.shp4 { fill: #ffffff;stroke: #ee3941;stroke-linecap:round;stroke-linejoin:round;stroke-width: 1.949 } 
	</style>
	<g id="Layer_2">
		<g id="Logos">
			<g id="Super_Enalotto">
				<path id="Layer" class="shp0" d="M651.19,165.52c-12.95,-0.01 -25.61,3.91 -36.29,11.24c-0.27,0.19 -0.61,0.26 -0.93,0.2c-0.32,-0.06 -0.61,-0.26 -0.79,-0.54c-2.19,-3.48 -5.38,-6.21 -9.15,-7.84c-4.36,-1.81 -9.2,-2.06 -13.72,-0.72c-0.37,0.1 -0.77,0.03 -1.07,-0.21c-0.31,-0.23 -0.48,-0.6 -0.48,-0.98v-12.19c0,-4.91 -3.98,-8.89 -8.89,-8.89h-7.16c-21.54,0 -35.33,10.53 -42.03,22.2c-0.22,0.38 -0.62,0.61 -1.05,0.61h-3.72c-0.68,0 -1.23,-0.55 -1.23,-1.23v-12.57c-0.01,-6.19 -3.91,-11.71 -9.75,-13.78c-2.14,-0.75 -4.33,-1.33 -6.56,-1.73c-23.03,-4.1 -42.09,12.48 -48.49,18.91c-0.36,0.36 -0.9,0.46 -1.36,0.26c-0.46,-0.2 -0.76,-0.67 -0.73,-1.18l0.25,-58.06c0,-0.34 0.14,-0.66 0.38,-0.89c0.24,-0.23 0.57,-0.35 0.91,-0.34c4.58,0.27 14.56,0.08 22.15,-6.62c12.71,-11.21 10.73,-33.51 1.22,-46.67c-10.98,-15.26 -30.35,-15.85 -36.02,-16.02c-11.48,-0.15 -22.72,3.25 -32.18,9.74c-2.35,1.64 -4.53,3.49 -6.52,5.54c-0.23,0.23 -0.55,0.36 -0.87,0.36c-0.33,0 -0.64,-0.13 -0.87,-0.36c-0.72,-0.7 -1.45,-1.34 -2.15,-1.92c-9.95,-8.36 -23.5,-12.61 -40.26,-12.61c-16.76,0 -36.09,4.06 -48.31,19.73c-0.22,0.29 -0.56,0.47 -0.93,0.48c-0.37,0.01 -0.72,-0.14 -0.96,-0.41c-0.81,-0.91 -1.64,-1.78 -2.51,-2.62c-11.71,-11.45 -27.6,-17.75 -44.73,-17.75c-13.96,-0.12 -27.57,4.32 -38.78,12.64c-0.5,0.39 -1.22,0.33 -1.65,-0.14c-6.29,-6.87 -14.4,-11.81 -23.39,-14.26c-11.05,-2.88 -22.75,-1.89 -33.15,2.81c-0.29,0.13 -0.62,0.13 -0.91,0c-16.47,-6.24 -34.73,-5.68 -50.79,1.55c-0.31,0.14 -0.66,0.14 -0.98,0.01c-0.31,-0.13 -0.55,-0.39 -0.67,-0.71c-2.15,-6.14 -6.08,-11.5 -11.27,-15.41c-2.62,-1.84 -5.51,-3.28 -8.56,-4.27c-9.86,-3.8 -20.33,-5.8 -30.9,-5.88c-16.55,0 -31.97,5.44 -43.41,15.31c-11.44,9.87 -18.11,23.61 -18.11,37.51c-0.07,6.17 1.07,12.29 3.34,18.03c0.05,0.14 0.08,0.29 0.08,0.44v24.86c0,17.78 2.68,39.08 23.52,46.03l1.14,0.38c0.47,0.15 0.81,0.57 0.85,1.07c0.04,0.5 -0.23,0.96 -0.67,1.18c-1.24,0.6 -2.44,1.28 -3.6,2.02c-7.12,4.58 -15.6,14 -15.6,32.59v59.79v0.42c1.54,29.28 28.31,48.97 66.62,48.97c15.34,0 27.97,-3.14 36.6,-8.66c0.43,-0.27 0.98,-0.26 1.39,0.05c4.57,3.35 10.98,6.04 19.97,6.04h28.51c0.68,0 1.23,-0.56 1.24,-1.24v-13.07c0,-0.55 0.37,-1.04 0.91,-1.18c0.54,-0.14 1.1,0.11 1.36,0.59v0.05c3.23,5.54 11.14,14.81 27.84,14.81h28.51c0.68,-0.01 1.23,-0.56 1.23,-1.24v-1.89c0,-0.42 0.21,-0.81 0.56,-1.03c0.35,-0.23 0.79,-0.26 1.17,-0.08c9.61,4.57 21.69,6.71 37.73,6.71c17.61,0 31.11,-5.49 40.05,-16.4l0.1,-0.12c9.09,9.96 23.59,15.19 37.51,15.19v0c8.12,0 15.56,-1.73 21.43,-5.01c3.94,-2.13 7.32,-5.18 9.85,-8.88c0.19,-0.3 0.5,-0.5 0.85,-0.55c0.35,-0.05 0.71,0.05 0.98,0.29c26.35,22.59 65.88,20.19 89.3,-5.43c0.25,-0.28 0.62,-0.42 0.99,-0.4c0.37,0.02 0.72,0.22 0.93,0.52c3.11,4.36 7.04,8.06 11.57,10.92c8.52,5.49 19.32,8.45 30.41,8.45v0c12.4,0 22.78,-3.71 29.58,-10.06c0.43,-0.41 1.1,-0.45 1.58,-0.09c0.81,0.61 1.64,1.19 2.5,1.73c8.52,5.49 19.32,8.45 30.41,8.45v0c14.64,0 26.49,-5.18 32.94,-13.82c0.2,-0.29 0.52,-0.48 0.87,-0.52c0.35,-0.04 0.7,0.07 0.96,0.3c11.64,9.98 26.47,15.46 41.8,15.45c35.43,0 64.25,-28.69 64.25,-63.96c0,-35.26 -28.77,-64.01 -64.2,-64.01z" />
				<path id="Layer" class="shp1" d="M313.54,154.79v98.1c0,27.38 50.19,29.66 50.19,11.41v-13.68h-13.72c0,0 -6.84,0 -6.84,-4.58v-77.56c0,0 0,-13.73 -15.97,-13.73z" />
				<path id="Layer" class="shp1" d="M541.88,251.75c1.14,28.52 51.33,30.81 54.75,12.55c0.86,-4.62 0,-14.83 0,-14.83c0,0 -7.99,2.29 -14.83,2.29c-6.84,0 -9.15,-4.96 -9.15,-7.99v-35.36h13.73c4.57,0 11.4,-5.7 11.4,-10.27v-13.68h-25.1v-22.82c-22.81,0 -30.8,15.98 -30.8,22.82z" />
				<path id="Layer" class="shp1" d="M477.8,251.75c1.13,28.52 51.33,30.81 54.74,12.55c0.91,-4.62 0,-14.83 0,-14.83c0,0 -7.98,2.29 -14.82,2.29c-6.84,0 -9.15,-4.96 -9.15,-7.99v-35.36h13.72c4.58,0 11.4,-5.7 11.4,-10.27v-13.68h-25.1v-22.82c-22.82,0 -30.8,15.98 -30.8,22.82z" />
				<path id="Layer" class="shp1" d="M113.32,175.32v-13.73h-59.31c-11.41,0 -25.1,2.29 -25.1,22.82v59.31c2.28,43.34 82.7,38.79 83.84,20.53c0.29,-4.69 0,-15.4 0,-15.4c0,0 -54.19,10.83 -54.19,-9.7v-9.15h33.08c4.58,0 11.41,-5.7 11.41,-10.27v-13.73h-44.49v-20.43h43.34c4.57,0 11.41,-5.7 11.41,-10.27z" />
				<path id="Layer" class="shp1" d="M685.21,195.57c9.04,8.99 14.14,21.19 14.17,33.94c0,26.42 -21.39,47.86 -47.82,47.91c-26.42,0.05 -47.9,-21.3 -48,-47.72c-0.1,-26.42 21.2,-47.94 47.63,-48.1c12.74,-0.04 24.98,4.99 34.02,13.97zM668.3,229.51c0,-13.23 -7.66,-23.95 -17.11,-23.95c-9.45,0 -17.11,10.73 -17.11,23.95c0,13.22 7.66,23.95 17.11,23.95c9.45,0 17.11,-10.72 17.11,-23.95z" />
				<path id="Layer" class="shp1" d="M453.26,195.57c9.04,8.99 14.14,21.19 14.17,33.94c0,26.42 -21.39,47.86 -47.82,47.91c-26.42,0.05 -47.9,-21.3 -48,-47.72c-0.1,-26.42 21.2,-47.94 47.63,-48.1c12.74,-0.04 24.98,4.99 34.02,13.97zM436.35,229.51c0,-13.23 -7.66,-23.95 -17.11,-23.95c-9.45,0 -17.11,10.73 -17.11,23.95c0,13.22 7.66,23.95 17.11,23.95c9.44,0 17.11,-10.72 17.11,-23.95z" />
				<path id="Layer" class="shp2" d="M467.13,55.56c-3.42,-18.25 -54.75,-14.83 -54.75,17.11v43.34c0,9.15 6.84,18.3 15.97,18.3h13.73v-54.8c0,-6.84 3.42,-11.41 10.27,-11.41c6.84,0 14.8,2.26 14.8,2.26c0,0 0.86,-10.18 0,-14.8z" />
				<path id="Layer" class="shp1" d="M166,181.6v0c-44.49,0 -44.49,37.07 -44.49,37.07v42.59c0,0 0,13.72 15.97,13.72h13.72v-52.32c0,0 0,-15.97 15.11,-15.97c15.11,0 15.11,15.97 15.11,15.97v0v38.59c0,0 0,13.73 15.97,13.73h13.73v-56.31c0,0 1.66,-37.07 -45.11,-37.07z" />
				<path id="Layer" class="shp2" d="M368.39,100.66h-19.36c1.12,14.16 17.02,13.12 26.17,13.12c13.66,0 22.81,-3.43 22.81,-5.71c6.84,30.8 -31.93,29.09 -31.93,29.09c-40.96,0 -49.05,-30.27 -46.2,-55.37c2.85,-25.1 16.54,-36.5 43.92,-36.5c25.09,0 41.06,11.4 41.06,36.5c0,20.53 -36.46,18.87 -36.46,18.87zM368.4,81.79c0,0 7.99,0 7.99,-6.84c0,-6.84 -7.94,-7.99 -10.27,-7.99c-2.32,0 -18.3,-1.13 -18.3,14.83z" />
				<path id="Layer" class="shp3" d="M200.2,74.94c-10.74,0 -12.35,9.15 -12.35,11.41c0,0 0.17,26.23 -24.92,26.23c-25.1,0 -24.93,-26.23 -24.93,-26.23c0,-2.29 -1.61,-11.41 -12.34,-11.41c-10.73,0 -12.34,9.15 -12.34,11.41c0,22.81 17.62,50.76 49.62,50.76c32,0 49.62,-27.94 49.62,-50.76c0,-2.26 -1.61,-11.41 -12.34,-11.41z" />
				<path id="Layer" class="shp1" d="M303.07,232.32c0,32.02 -11.38,45.09 -36.47,45.09c-25.09,0 -46.2,-5.7 -46.2,-30.79c0,-29.66 41.63,-28.52 43.92,-28.52h7.98c1.14,-13.12 -10.25,-13.12 -14.82,-13.12c-25.1,0 -33.65,7.99 -33.65,10.28c-7.44,-35.36 33.63,-33.65 33.63,-33.65c43.34,0 45.62,25.57 45.62,50.72zM262.59,255.73c6.26,0 10.82,-1.72 10.82,-17.71h-14.8c0,0 -9.15,0 -9.15,6.84c0,12.56 10.84,10.84 13.13,10.84z" />
				<path id="Layer" class="shp2" d="M313.43,90.93c0,26.46 -17.11,47.91 -47.05,46.77c-6.06,0 -12.17,-4.95 -17.38,-11.82v35.78h-13.73c-9.12,0 -15.97,-9.1 -15.97,-18.25v-52.48c0,-26.45 20.43,-46.19 47.05,-46.19c26.62,0 47.08,19.73 47.08,46.19zM266.35,114.87c9.45,0 17.11,-10.71 17.11,-23.94c0,-13.23 -7.66,-22.81 -17.11,-22.81c-9.45,0 -17.11,9.58 -17.11,22.81c0,13.23 7.66,23.95 17.11,23.95z" />
				<path id="Layer" class="shp2" d="M74.61,68.1c-18.48,-3.53 -23.95,-4.57 -23.95,-11.41c0,-18.39 46.77,-9.15 52.47,0c3.42,-20.52 -3.42,-27.37 -12.54,-30.8c-40.53,-15.2 -70.72,7.99 -70.72,31.94c0,23.95 20.84,28.68 31.95,30.83c18.48,3.53 25.1,5.7 25.1,12.54c0,19.4 -47.91,9.15 -53.61,0c0,22.81 5.7,28.52 12.54,30.8c41.07,13.73 70.72,-4.57 70.72,-31.93c-0.02,-25.14 -20.9,-29.85 -31.95,-31.97z" />
				<path id="Layer" class="shp4" d="M132.21,41.3v13.68l-11.4,-13.68v13.68" />
				<path id="Layer" class="shp4" d="M180.12,41.3l5.7,13.68l5.7,-13.68" />
				<path id="Layer" class="shp4" d="M151.59,41.3v8.55c0,1.62 -0.57,5.13 -5.13,5.13v0c-4.57,0 -5.13,-3.51 -5.13,-5.13v-8.55" />
				<path id="Layer" class="shp4" d="M173.84,48.15c0,3.78 -3.06,6.84 -6.84,6.84c-3.78,0 -6.84,-3.06 -6.84,-6.84c0,-3.78 3.06,-6.84 6.84,-6.84c3.78,0 6.84,3.06 6.84,6.84z" />
				<path id="Layer" class="shp4" d="M196.79,48.15c0,2.77 1.67,5.27 4.23,6.33c2.56,1.06 5.51,0.47 7.46,-1.5c1.96,-1.96 2.53,-4.91 1.47,-7.47c-1.07,-2.56 -3.57,-4.22 -6.34,-4.21c-3.77,0.02 -6.82,3.07 -6.82,6.84z" />
			</g>
		</g>
	</g>
</svg>