<svg xmlns="http://www.w3.org/2000/svg" viewBox="0 0 436.05 165.47"><defs><style>.cls-1{fill:#3a4297;}.cls-1,.cls-2{fill-rule:evenodd;}.cls-2{fill:#fff;stroke:#3a4297;stroke-miterlimit:10;stroke-width:4px;}</style></defs><title>Asset 26</title><g id="Layer_2" data-name="Layer 2"><g id="Layer_1-2" data-name="Layer 1"><path class="cls-1" d="M89.12,64.6c-19,3.68-38.25,6.33-56.23,14.06-7.83,3.37-15.21,7.4-21.12,13.7-8.42,9-10,22-3.8,30.78,5.52,7.78,22.37,12.64,31.39,9.4,3.06-1.1,2.85-3.65,3.85-5.73,1.46-3,3.56-5.17,7.05-3.31,2,1.05,3.36,2.61,0,4.49-5.3,3-5.73,11.4,0,13.9,10.77,4.71,14.8,14.87,22,23.3-1.29.11-2.45.45-2.6.19-6.18-10.48-17.77-15.25-25.34-24.18-1.76-2.07-3.13-1.42-4.9-1.21-18.94,2.28-30.48-4.4-36.62-21.21S.37,87.65,17,79.17c11.72-6,12.5-12.69,9.76-23.41-2-7.63-1.6-15.75-1-23.67C27,14.32,41.75,1.75,59.26,4.15c7.64,1,14.7.42,21.54-2.75C86.94-1.44,91.72.2,96.25,4.8c11.2,11.37,20.15,24.43,28.46,37.92,2.88,4.67,5.5,5.58,10.48,3.38,8.72-3.84,17.76-7,26.64-10.46,3.19-1.26,6.4-2.34,8.93.91s1.06,6.34-.83,9.1c-6.55,9.56-15.12,17.25-24,24.5-3.71,3-6.47,5.39-3.76,10.66,2,3.8,0,6.73-5,8.75,4.11,1.26,9.26.84,8.1,6.19-.9,4.14-10.82,8.16-13.64,5.42-3.14-3-7-7-3.86-12a23.34,23.34,0,0,1,7.67-7.27c4.93-2.91,3.42-5.95,1.16-9.38-4.83-7.35-12.23-8-19.69-6.59C95.15,70.09,74.36,76.28,61.51,97.19c-1-6-.33-8.09,3.66-13.3,6.55-8.56,15.94-13,25.28-17.56,1.26-.53,3-.1,3.83-1.92A6.12,6.12,0,0,0,89.12,64.6Zm-56.34-21c.53,4.41,1.77,12.79,2.47,21.21.38,4.55,2.09,5,6.21,4.13,16.78-3.68,33.66-6.88,50.45-10.46,9.59-2,19.23-4,28.51-7.32,2.81-1,5.55-1.54,2.71-5.38C113.73,33.05,104.35,20.3,92.82,9.32c-4-3.79-8.33-4.89-13.41-2.55a40.41,40.41,0,0,1-18.29,3.47C43.56,9.8,32,21.85,32.78,43.62Zm81.36,14.43c1.7,1.38,2.31,2.31,2.94,2.32,7.92.09,15.94-.31,20.76,8,.9,1.56,2.43.62,3.47-.25,9-7.46,18.37-14.44,25.56-23.8,1.12-1.46,2.62-3.27,1.37-5.16-1.76-2.66-3.92-.57-5.73.19C146.8,45.9,131.31,53,114.14,58.05Z"/><path class="cls-1" d="M111.18,101.94c-9.35-1.75-16.47-.08-23.77,1.12,5.52-8.42,21.32-13.2,29.46-8.8,3.87,2.09,5.5,6.24,5.65,10.27.16,4.37-3.7,3.81-6.65,3.62a3.84,3.84,0,0,0-4,2.18c-3.77,6.67-10,.72-15,2.66-2.09.81-.83-2.66.17-4.11C100,104.74,105.22,105.11,111.18,101.94Z"/><path class="cls-1" d="M155.24,141c-.3,2.87-2.43,3.17-4.67,3.49-9.87,1.41-18.65,5.47-26.73,11.15-1.79,1.26-3.78,3.14-5.51.54s.94-3.47,2.59-4.87c8.86-7.51,19.1-11.4,30.56-12.85C154.28,138.11,154.77,139,155.24,141Z"/><path class="cls-1" d="M63.26,131.29c.54,11,7.05,17.8,15.1,23.89,2.28,1.72,3,5,2.09,8.26C68.6,157.13,59.29,140.82,63.26,131.29Z"/><path class="cls-1" d="M124,127.86c5.71,1.8,8-1.56,11.07-3,2.87-1.35,6.59-3.85,8.54-.2,1.82,3.43-1.15,7.48-4.3,8.5-4.41,1.43-9.4,1.49-14.12,1.35-2.6-.08-4.22-2.91-3.91-5.36C121.63,126,124,127.87,124,127.86Z"/><path class="cls-2" d="M370.09,136.83c1.27,13.84-.61,16.21-14.3,18.81-18.07,3.43-27.18-5.68-23.66-23.58,2.08-10.59,4-21.23,6.14-31.8.67-3.25.08-4.29-3.48-4.52-14-.9-14.11-1.07-16.79,12.66q-2.17,11.08-3.64,22.29c-.83,6.43,2.18,9.26,8.43,6.95,3.94-1.45,4.15-.05,3.94,3.24-.61,10-1.9,11.55-11.87,14A34.82,34.82,0,0,1,302.17,156c-10.89-1.32-16.17-6.81-14.93-17.64,1.46-12.7,4.28-25.25,6.44-37.88.32-1.87,2.34-4.65-2-4.67-2.45,0-5.85.44-4.32-3.63,1.43-3.81-1.26-10.67,4.92-10.92s6.5-3.86,6.71-7.6c.33-5.76,3.09-7.82,8.51-8.1a105.1,105.1,0,0,0,15-1.89c3.94-.77,4.48.7,3.52,3.92a6.16,6.16,0,0,0-.22.72c-2.27,13.07-2.27,12.88,10.89,12.7,4.1-.06,6.34-1.31,6.29-5.37-.09-7.78,4-10.65,11.27-10.24a11.24,11.24,0,0,0,2.25-.25c13.54-2,13.84-2,12,11.13-.72,5.08,1.87,4.4,5,4.71,2.2.22,7-1.72,5.52,3.08-1.28,4,1.84,11.89-6,11.47-7.42-.4-9.25,2.82-10.07,9.08-1,7.46-2.89,14.8-4.15,22.23C356.93,137.51,359.61,139.86,370.09,136.83Z"/><path class="cls-2" d="M248.85,139.68c-3.95,3.52-7.58,7.24-11.7,10.32-7.12,5.32-14.93,9.08-23.63,3.85S202.38,140,203.41,130.37C206.62,100.46,226.88,82.44,259,81c7.27-.33,14.58.1,21.86-.13,3.93-.12,5.43.87,4.57,5.11Q279,117.69,273,149.48c-.73,3.83-2.26,5.86-6.37,5.08a8.86,8.86,0,0,0-1.51,0c-5.27-.07-11.5,1.59-15.55-.67C244.6,151.09,251.58,144.91,248.85,139.68Zm-22-11.12c-.23,4.55.53,7.28,2.63,8.07,3.35,1.27,5.84-.81,8.1-2.72,10.25-8.68,16.28-20.11,21.3-32.32,2.51-6.11.25-6.88-5.13-6.2C240.4,97.06,227.64,112.66,226.82,128.55Z"/><path class="cls-2" d="M197.48,56.51c11.57,0,23.15.28,34.71-.12,5.27-.19,5.73,1.78,4.85,6.13-2.14,10.61-2,10.64-13.19,10.64-15.38,0-15.28,0-18.22,15.35-3.87,20.22-8.07,40.38-11.76,60.63-.74,4-2,5.79-6.14,5.45-6.47-.53-15,2.69-18.9-1.3-3.69-3.81,1-11.76,2.08-17.85,3.48-19,7-38,11-56.95.92-4.46.09-5.66-4.4-5.41-6.27.34-12.58-.11-18.86.16-3.81.16-4.68-1.17-4.18-4.78,1.64-11.92,1.54-11.93,13.63-11.93Z"/><path class="cls-2" d="M394.71,156.26c-6.09,0-11.92-1.44-17.83-2.74-4.18-.92-5.1-2.42-4.21-6.67,2.4-11.49,2.14-11.5,13.4-7.51a33.43,33.43,0,0,0,7.29,1.72,7.78,7.78,0,0,0,7.69-3.76c2.12-3.16.7-6-1.21-8.29a127.83,127.83,0,0,0-9-9.14c-6.61-6.49-11.23-13.77-8.24-23.5,2.91-9.49,10.35-13.63,19.42-15.83,9.55-2.31,19-.94,28.47.26,3,.38,3.89,1.82,3.4,4.54s-1.15,5.41-1.46,8.15c-.39,3.4-1.77,4.11-5,3-4.76-1.62-9.72-2.91-14.81-1.91-6.75,1.33-8.59,6.46-4,11.5,3,3.31,6.77,6,10.12,9C433.3,128.23,429.5,147,411,153.64A50.77,50.77,0,0,1,394.71,156.26Z"/></g></g></svg>