<svg xmlns="http://www.w3.org/2000/svg" xmlns:xlink="http://www.w3.org/1999/xlink" viewBox="0 0 319 221.88"><defs><style>.cls-1{isolation:isolate;}.cls-2{fill:#550094;}.cls-3{fill:#8b00ff;}.cls-4{fill:#4699fd;}.cls-12,.cls-13,.cls-14,.cls-15,.cls-4{fill-rule:evenodd;}.cls-5{fill:url(#radial-gradient);}.cls-10,.cls-11,.cls-6,.cls-7{opacity:0.5;}.cls-10,.cls-6,.cls-9{mix-blend-mode:multiply;}.cls-6{fill:url(#linear-gradient);}.cls-11,.cls-7{mix-blend-mode:screen;}.cls-7{fill:url(#radial-gradient-2);}.cls-8{fill:url(#radial-gradient-3);}.cls-9{fill:url(#radial-gradient-4);}.cls-10{fill:url(#linear-gradient-2);}.cls-11{fill:url(#radial-gradient-5);}.cls-12{fill:#070707;}.cls-13{fill:#fbfbfb;}.cls-14{fill:#f9f9f9;}.cls-15{fill:#080808;}.cls-16{fill:#fff;}</style><radialGradient id="radial-gradient" cx="99.3" cy="69.62" r="37.54" gradientTransform="translate(103.93 -115.56) rotate(11.54) scale(0.97)" gradientUnits="userSpaceOnUse"><stop offset="0" stop-color="#ffe800"/><stop offset="1" stop-color="#dd9800"/></radialGradient><linearGradient id="linear-gradient" x1="105.63" y1="197.21" x2="165.7" y2="197.21" gradientTransform="translate(100.45 -226.22) rotate(11.54)" gradientUnits="userSpaceOnUse"><stop offset="0" stop-color="#f4eb53"/><stop offset="1" stop-color="#e5c456"/></linearGradient><radialGradient id="radial-gradient-2" cx="221.83" cy="454.19" r="110.28" gradientTransform="translate(30.21 -406.67) rotate(10.57) scale(1.04 1.04)" gradientUnits="userSpaceOnUse"><stop offset="0.62"/><stop offset="0.66" stop-color="#050505"/><stop offset="0.72" stop-color="#131313"/><stop offset="0.77" stop-color="#2b2b2b"/><stop offset="0.83" stop-color="#4b4b4b"/><stop offset="0.9" stop-color="#757575"/><stop offset="0.9" stop-color="#797979"/><stop offset="0.91" stop-color="gray"/><stop offset="0.93" stop-color="#949494"/><stop offset="0.96" stop-color="#b5b5b5"/><stop offset="0.99" stop-color="#e3e3e3"/><stop offset="1" stop-color="#fff"/></radialGradient><radialGradient id="radial-gradient-3" cx="99.24" cy="69.56" r="37.6" xlink:href="#radial-gradient"/><radialGradient id="radial-gradient-4" cx="125.72" cy="69.56" r="22.8" gradientTransform="translate(103.93 -115.56) rotate(11.54) scale(0.97)" gradientUnits="userSpaceOnUse"><stop offset="0" stop-color="#fbff7d"/><stop offset="1" stop-color="#f1e17d"/></radialGradient><linearGradient id="linear-gradient-2" x1="105.64" y1="197.21" x2="165.7" y2="197.21" xlink:href="#linear-gradient"/><radialGradient id="radial-gradient-5" cx="221.77" cy="454.29" r="110.39" xlink:href="#radial-gradient-2"/></defs><title>Asset 20</title><g class="cls-1"><g id="Layer_2" data-name="Layer 2"><g id="Layer_1-2" data-name="Layer 1"><circle id="_Path_" data-name="&lt;Path&gt;" class="cls-2" cx="190.6" cy="102.26" r="76.47"/><circle id="_Path_2" data-name="&lt;Path&gt;" class="cls-3" cx="242.17" cy="92.96" r="60.76"/><circle id="_Path_3" data-name="&lt;Path&gt;" class="cls-3" cx="127.8" cy="163.49" r="38.17"/><path class="cls-4" d="M144.23,135.06c.56,0,.93.26.81.91C144.37,136,144.26,135.57,144.23,135.06Z"/><path class="cls-5" d="M223.12,0a.9.9,0,0,1,.07.21.88.88,0,0,0-.07-.21Z"/><path class="cls-6" d="M223.12,0a.9.9,0,0,1,.07.21.88.88,0,0,0-.07-.21Z"/><path class="cls-7" d="M223.12,0a.9.9,0,0,1,.07.21.88.88,0,0,0-.07-.21Z"/><path class="cls-8" d="M223.19.21a.9.9,0,0,0-.07-.21A.88.88,0,0,1,223.19.21Z"/><path class="cls-9" d="M223.19.21a.9.9,0,0,0-.07-.21A.88.88,0,0,1,223.19.21Z"/><path class="cls-10" d="M223.19.21a.9.9,0,0,0-.07-.21A.88.88,0,0,1,223.19.21Z"/><path class="cls-11" d="M223.19.21a.9.9,0,0,0-.07-.21A.88.88,0,0,1,223.19.21Z"/><path class="cls-12" d="M180.27,43.92c1.45-2.06,2.89-4.13,4.35-6.19a2.15,2.15,0,0,0,.11-1.93,75.85,75.85,0,0,1-1.91-13.72c.22-3,.17-6,1.29-8.87a10.69,10.69,0,0,1,4.45-5.76c3.2-1.85,6.82-1,9.22,2A16.13,16.13,0,0,1,200.25,14c.55,1.53,1,3.08,1.63,4.84a25.22,25.22,0,0,1,4.2-2.68c2.71-1.22,5.38-1.45,7.89.41s3,4.56,2.63,7.47a19.19,19.19,0,0,1-3.16,8.12c-1.93,3-3.92,6-6.05,8.94-1.16,1.58-1.68,3.06-1,5a21.35,21.35,0,0,1,.72,3.29c.13.64.27,1.05,1.14,1,6-.58,9.76,3.44,8.75,10.23,0,.29-.06.59-.1,1,.94-.17,1.79-.39,2.66-.47a6.85,6.85,0,0,1,7.31,5.94c.66,3.72-.36,7.18-2.07,10.42a11.43,11.43,0,0,0-1.26,4.67c-1,13.3-7.31,23.32-19.46,29-11.93,5.55-23.53,4-34.39-3.33l-1.5-1a70.72,70.72,0,0,1-5-5.71c-3.13-4.42-4.65-9.48-6.07-14.59-.77-5.45-.58-11-1.81-16.4a8.26,8.26,0,0,0-1.31-3.5,7.93,7.93,0,0,0-2.75-4.23c-1.95-1.88-4.61-2.69-6.67-4.41v0c.14-.36-.05-.52-.37-.61A13.54,13.54,0,0,1,143,53.65c1.44-5.91,6-8.82,12.74-8.29a24.78,24.78,0,0,1,11.93,4.32,36.82,36.82,0,0,1,5.79,6.26Zm23.57,37.49c-.42.24-.8.47-1.19.68a8,8,0,0,1-11.89-5.74,12,12,0,0,1,.05-4.93,31.57,31.57,0,0,1,11.16-18c.55-.44,1.44-.63,1.14-1.68-.36-1.28-.67-2.57-1.07-4.15-1.17,1.48-2.22,2.63-3.06,3.92s-1.68,1.1-2.86.33c-1.61-1-.36-1.72.14-2.46,4.26-6.36,9.33-12.15,13.36-18.68a17.76,17.76,0,0,0,2.82-6.59c.53-3.49-1.82-5.37-5.05-4a17.67,17.67,0,0,0-6,4.3C190.9,35.25,181.86,47.16,176,61.21c-.57,1.37-1.53,1.39-2.59,1.66-1.31.34-1.48-.7-1.87-1.45a22.17,22.17,0,0,0-8.32-9.28c-4.07-2.38-8.37-3.33-13-1.67-1.29.47-2.51,1.24-2.63,2.8s1,2.39,2.31,3c5.12,2.46,8,6.66,9.34,12a68.49,68.49,0,0,1,1.54,11.13c.78,8.94,3.4,17.13,10.2,23.4,14.24,13.14,38.63,7.25,46.27-11.11A19.43,19.43,0,0,0,219.09,85C213.1,91.53,204.59,89.22,203.84,81.41Zm-9.23-10c-.78,3.74-.07,6.29,1.92,7.45s4.39.49,7.07-2a12.65,12.65,0,0,0,1.11-1.12,38.05,38.05,0,0,0,7.76-13.6c.73-2.46,1.28-5.12-1.06-7.11-1.67-1.43-4.45-.9-7.22,1.32A28.24,28.24,0,0,0,194.61,71.45Zm28.14.21a10.88,10.88,0,0,0,.06-3.76c-.52-2.58-2.45-3.77-4.62-2.41A21.1,21.1,0,0,0,208,81.12c-.4,3,2,4.68,5,3.85a8.55,8.55,0,0,0,3.61-2.21A22.37,22.37,0,0,0,222.76,71.66ZM188.45,32c2.12-2.46,3.68-5.08,6-6.74,4.31-3.14,3.5-6.6,1.57-10.44-.13-.27-.24-.55-.39-.81-.8-1.44-1.49-3.14-3.48-3.09s-3,1.69-3.88,3.33a6.46,6.46,0,0,0-.48,1.5C186.54,21.14,187.57,26.42,188.45,32Z"/><path class="cls-13" d="M203.84,81.41c.75,7.81,9.26,10.12,15.25,3.55a19.43,19.43,0,0,1-1.82,6.79c-7.64,18.36-32,24.24-46.27,11.11-6.8-6.27-9.42-14.47-10.2-23.4a68.49,68.49,0,0,0-1.54-11.13c-1.38-5.38-4.23-9.58-9.34-12-1.27-.61-2.43-1.39-2.31-3s1.34-2.34,2.63-2.8c4.58-1.66,8.89-.71,13,1.67a22.17,22.17,0,0,1,8.32,9.28c.39.75.55,1.79,1.87,1.45,1.07-.27,2-.29,2.59-1.66,5.88-14.05,14.93-26,25.37-36.88a17.67,17.67,0,0,1,6-4.3c3.24-1.32,5.58.56,5.05,4a17.76,17.76,0,0,1-2.82,6.59c-4,6.53-9.1,12.32-13.36,18.68-.5.74-1.74,1.42-.14,2.46,1.19.77,2,1.06,2.86-.33S200.87,49,202,47.56c.4,1.58.71,2.87,1.07,4.15.29,1-.6,1.24-1.14,1.68a31.57,31.57,0,0,0-11.16,18,12,12,0,0,0-.05,4.93,8,8,0,0,0,11.89,5.74C203,81.88,203.43,81.65,203.84,81.41Zm-14.38,20.87a23.17,23.17,0,0,0,10.89-.7c2.23-.6.74-2,.77-3,0-1.42-.83-1.19-1.82-1a17.62,17.62,0,0,1-9.77-.16c-5.64-1.88-8.86-5.91-10.15-11.61-.17-.76-.26-1.68-1.34-1.1s-3-.26-2.73,1.74C176.63,94.83,182,101,189.46,102.28Z"/><path class="cls-14" d="M194.61,71.45a28.24,28.24,0,0,1,9.57-15c2.77-2.22,5.55-2.75,7.22-1.32,2.34,2,1.79,4.65,1.06,7.11a38.05,38.05,0,0,1-7.76,13.6,12.65,12.65,0,0,1-1.11,1.12c-2.67,2.47-5.07,3.14-7.07,2S193.83,75.19,194.61,71.45Zm4.9,4.72a3.26,3.26,0,0,0,3.76-2.71,3.22,3.22,0,0,0-2.67-3.77,3.32,3.32,0,0,0-3.93,2.77A3.37,3.37,0,0,0,199.52,76.17Z"/><path class="cls-14" d="M222.76,71.66a22.37,22.37,0,0,1-6.16,11.1A8.55,8.55,0,0,1,213,85c-3,.83-5.41-.8-5-3.85A21.1,21.1,0,0,1,218.2,65.49c2.17-1.36,4.1-.17,4.62,2.41A10.88,10.88,0,0,1,222.76,71.66Zm-6.51,8.29a3,3,0,0,0-2.46-3.46A3,3,0,0,0,210.37,79a2.88,2.88,0,0,0,2.43,3.41A3,3,0,0,0,216.24,79.95Z"/><path class="cls-14" d="M188.45,32c-.88-5.57-1.91-10.85-.7-16.26a6.46,6.46,0,0,1,.48-1.5c.83-1.64,1.79-3.28,3.88-3.33s2.68,1.65,3.48,3.09c.15.26.25.55.39.81,1.93,3.84,2.73,7.3-1.57,10.44C192.13,26.91,190.57,29.54,188.45,32Z"/><path class="cls-12" d="M189.46,102.27C182,101,176.63,94.83,175.31,86.44c-.31-2,1.77-1.23,2.73-1.74s1.17.35,1.34,1.1c1.29,5.7,4.5,9.74,10.15,11.61a17.62,17.62,0,0,0,9.77.16c1-.23,1.85-.46,1.82,1,0,1,1.47,2.44-.77,3A23.16,23.16,0,0,1,189.46,102.27Z"/><path class="cls-15" d="M199.52,76.17a3.37,3.37,0,0,1-2.84-3.71,3.32,3.32,0,0,1,3.93-2.77,3.22,3.22,0,0,1,2.67,3.77A3.26,3.26,0,0,1,199.52,76.17Z"/><path class="cls-15" d="M216.24,79.95a3,3,0,0,1-3.44,2.43A2.88,2.88,0,0,1,210.37,79a3,3,0,0,1,3.41-2.47A3,3,0,0,1,216.24,79.95Z"/><path class="cls-16" d="M24,165a1.5,1.5,0,0,1-1.5-1.5V110.26H3a1.5,1.5,0,0,1-1.5-1.5V93A1.5,1.5,0,0,1,3,91.46H63.45A1.5,1.5,0,0,1,65,93v15.8a1.5,1.5,0,0,1-1.5,1.5H43.91v53.23a1.5,1.5,0,0,1-1.5,1.5Z"/><path class="cls-2" d="M63.45,93v15.8h-21v54.73H24V108.76H3V93H63.45m0-3H3a3,3,0,0,0-3,3v15.8a3,3,0,0,0,3,3H21v51.73a3,3,0,0,0,3,3H42.41a3,3,0,0,0,3-3V111.76h18a3,3,0,0,0,3-3V93a3,3,0,0,0-3-3Z"/><path class="cls-16" d="M79.93,165.75a1.5,1.5,0,0,1-1.5-1.5V148.95h-11v15.31a1.5,1.5,0,0,1-1.5,1.5H55.3a1.5,1.5,0,0,1-1.5-1.5V123.44a1.5,1.5,0,0,1,1.5-1.5H65.93a1.5,1.5,0,0,1,1.5,1.5V136.8h11V123.44a1.5,1.5,0,0,1,1.5-1.5H90.57a1.5,1.5,0,0,1,1.5,1.5v40.81a1.5,1.5,0,0,1-1.5,1.5Z"/><path class="cls-2" d="M90.57,123.44v40.81H79.93V147.45h-14v16.81H55.3V123.44H65.93V138.3h14V123.44H90.57m0-3H79.93a3,3,0,0,0-3,3V135.3h-8V123.44a3,3,0,0,0-3-3H55.3a3,3,0,0,0-3,3v40.81a3,3,0,0,0,3,3H65.93a3,3,0,0,0,3-3V150.45h8v13.81a3,3,0,0,0,3,3H90.57a3,3,0,0,0,3-3V123.44a3,3,0,0,0-3-3Z"/><path class="cls-16" d="M116.89,166.61c-13,0-19.28-6.29-19.28-19.22v-24a1.5,1.5,0,0,1,1.5-1.5h10.63a1.5,1.5,0,0,1,1.5,1.5V148c0,4.7,1.53,6.44,5.65,6.44s5.65-1.75,5.65-6.44V123.44a1.5,1.5,0,0,1,1.5-1.5h10.63a1.5,1.5,0,0,1,1.5,1.5v24C136.17,160.32,129.86,166.61,116.89,166.61Z"/><path class="cls-2" d="M134.67,123.44v24c0,11.83-5.43,17.72-17.78,17.72s-17.78-5.89-17.78-17.72v-24h10.63V148c0,5.26,1.94,7.94,7.15,7.94S124,153.28,124,148V123.44h10.63m0-3H124a3,3,0,0,0-3,3V148c0,4.26-1.22,4.94-4.15,4.94s-4.15-.69-4.15-4.94V123.44a3,3,0,0,0-3-3H99.11a3,3,0,0,0-3,3v24c0,13.75,7,20.72,20.78,20.72s20.78-7,20.78-20.72v-24a3,3,0,0,0-3-3Z"/><path class="cls-16" d="M169.18,165.75a1.5,1.5,0,0,1-1.31-.77l-11.48-20.6v19.87a1.5,1.5,0,0,1-1.5,1.5h-10a1.5,1.5,0,0,1-1.5-1.5V123.44a1.5,1.5,0,0,1,1.5-1.5H155.8a1.5,1.5,0,0,1,1.31.76l11.48,20.38V123.44a1.5,1.5,0,0,1,1.5-1.5h10a1.5,1.5,0,0,1,1.5,1.5v40.81a1.5,1.5,0,0,1-1.5,1.5Z"/><path class="cls-2" d="M180.1,123.44v40.81H169.18L155,138.81h-.12v25.44h-10V123.44H155.8L170,148.59h.12V123.44h10m0-3h-10a3,3,0,0,0-3,3v13.92L158.42,122a3,3,0,0,0-2.61-1.53H144.89a3,3,0,0,0-3,3v40.81a3,3,0,0,0,3,3h10a3,3,0,0,0,3-3v-14.1l8.67,15.56a3,3,0,0,0,2.62,1.54H180.1a3,3,0,0,0,3-3V123.44a3,3,0,0,0-3-3Z"/><path class="cls-16" d="M190.61,165.75a1.5,1.5,0,0,1-1.5-1.5V123.44a1.5,1.5,0,0,1,1.5-1.5h17.55c13.27,0,21.51,8.33,21.51,21.74,0,13.82-8,22.08-21.51,22.08Zm15.66-12.15c7.29-.15,9.76-2.68,9.76-10,0-6.42-3.19-9.53-9.76-9.53h-3.53v19.52Z"/><path class="cls-2" d="M208.15,123.44c12.52,0,20,7.6,20,20.24,0,13.38-7.6,20.58-20,20.58H190.61V123.44h17.55m-6.92,31.67h5c8.06-.17,11.26-3.31,11.26-11.49,0-7.43-4-11-11.26-11h-5v22.52m6.92-34.67H190.61a3,3,0,0,0-3,3v40.81a3,3,0,0,0,3,3h17.55c14.41,0,23-8.81,23-23.58,0-14.33-8.82-23.24-23-23.24Zm-3.92,15.15h2c5.79,0,8.26,2.4,8.26,8,0,6.44-1.86,8.35-8.29,8.49h-2V135.58Z"/><path class="cls-16" d="M237.24,165.75a1.5,1.5,0,0,1-1.5-1.5V123.44a1.5,1.5,0,0,1,1.5-1.5h32.52a1.5,1.5,0,0,1,1.5,1.5V132a1.5,1.5,0,0,1-1.5,1.5H249.37v4.14h18.51a1.5,1.5,0,0,1,1.5,1.5v8.23a1.5,1.5,0,0,1-1.5,1.5H249.37v4.78h21a1.5,1.5,0,0,1,1.5,1.5v9.15a1.5,1.5,0,0,1-1.5,1.5Z"/><path class="cls-2" d="M269.76,123.44V132H247.87v7.14h20v8.23h-20v7.78h22.47v9.15h-33.1V123.44h32.52m0-3H237.24a3,3,0,0,0-3,3v40.81a3,3,0,0,0,3,3h33.1a3,3,0,0,0,3-3v-9.15a3,3,0,0,0-3-3H250.87v-1.78h17a3,3,0,0,0,3-3V139.1a3,3,0,0,0-3-3h-17V135h18.89a3,3,0,0,0,3-3v-8.52a3,3,0,0,0-3-3Z"/><path class="cls-16" d="M305.48,165.75a1.5,1.5,0,0,1-1.25-.67c-.92-1.37-1.19-4-1.39-6.54,0-.27,0-.49-.06-.66-.37-5.31-1.45-7-4.45-7h-6.56v13.36a1.5,1.5,0,0,1-1.5,1.5H279.64a1.5,1.5,0,0,1-1.5-1.5V123.44a1.5,1.5,0,0,1,1.5-1.5h20.81c9.59,0,15.79,5.1,15.79,13a12.44,12.44,0,0,1-4.75,10.19c2,1.49,3.81,4.37,4.28,9.8l0,.73c.32,5.77.93,7.22,1.26,7.56a1.5,1.5,0,0,1-1.08,2.54Zm-6.29-26.09c2.36,0,3.42-1,3.42-3.3,0-2.52-2.43-2.9-3.87-2.9h-7v6.2Z"/><path class="cls-2" d="M300.45,123.44c7.2,0,14.29,3.26,14.29,11.49,0,4.4-2.12,8.57-6.4,10.23v.11c4.34,1,5.6,5.89,5.94,9.78.11,1.71.29,7.72,1.72,9.2H305.48c-.91-1.37-1.09-5.37-1.2-6.52-.29-4.11-1-8.34-5.95-8.34h-8.06v14.86H279.64V123.44h20.81m-10.18,17.72h8.92c3.2,0,4.92-1.72,4.92-4.8s-2.4-4.4-5.37-4.4h-8.46v9.2m10.18-20.72H279.64a3,3,0,0,0-3,3v40.81a3,3,0,0,0,3,3h10.63a3,3,0,0,0,3-3V152.39h5.06c1.59,0,2.59.27,3,5.55V158c0,.16,0,.37.05.62.22,2.75.52,5.58,1.64,7.26a3,3,0,0,0,2.5,1.33H316a3,3,0,0,0,2.26-5c-.25-.46-.67-1.94-.94-6.71,0-.28,0-.52,0-.72v-.06c-.42-4.75-1.8-7.76-3.51-9.64a14.24,14.24,0,0,0,4-10.22c0-8.8-6.79-14.49-17.29-14.49ZM293.27,135h5.46c2.37,0,2.37,1,2.37,1.4,0,1.33-.29,1.8-1.92,1.8h-5.92V135Z"/><path d="M152.66,173.21h22.77c8.39-.14,17.59,2,17.59,12.2a10.94,10.94,0,0,1-6.41,9.82A11.55,11.55,0,0,1,195,206.75c0,11.59-8.52,15.13-18.95,15.13H152.66Zm12.68,19.15h9.82c2.18,0,5.18-1.16,5.18-4.64s-2.52-4.7-5.18-4.7h-9.82Zm0,19.36H175.5c4,0,6.82-1.43,6.82-5.45,0-4.29-3-5.73-6.82-5.73H165.34Z"/><path d="M211.08,173.21H224l18.2,48.67H228.94l-3-8.73H209l-3.07,8.73h-13Zm.82,30.54h11l-5.38-17h-.14Z"/><path d="M243.79,173.21h12.68V211h22.7v10.91H243.79Z"/><path d="M282.73,173.21H295.4V211h22.7v10.91H282.73Z"/></g></g></g></svg>