<svg xmlns="http://www.w3.org/2000/svg" viewBox="0 0 538 538" width="100" height="100">
	<style>
		tspan { white-space:pre }
		.shp0 { fill: none } 
		.shp1 { fill: #000000 } 
	</style>
	<g id="Layer">
		<g id="Layer">
			<path id="Layer" class="shp0" d="M341.4,259.2c3.8,0 6.3,-1.3 7.6,-3.8c1.3,-2.5 2,-7.7 2,-15.6v-15.3c0,-7.5 -0.7,-12.5 -2,-14.9c-1.4,-2.4 -4,-3.6 -7.8,-3.6c-3.8,0 -6.3,1.3 -7.6,3.9c-1.3,2.6 -2,7.5 -2,14.6v16.9c0,6.7 0.8,11.3 2.3,13.9c1.3,2.6 3.9,3.9 7.5,3.9z" />
			<path id="Layer" class="shp0" d="M341.8,368.6c4,0 6.8,-1.4 8.2,-4.2c1.4,-2.8 2.1,-9.1 2.1,-18.9v-28.5c0,-8.5 -0.9,-14.2 -2.7,-17c-1.8,-2.8 -4.6,-4.2 -8.5,-4.2c-3.8,0 -6.5,1.4 -8.1,4.1c-1.6,2.7 -2.5,8.4 -2.5,17.1v28.9c0,9.6 0.9,15.8 2.8,18.6c1.8,2.7 4.7,4.1 8.7,4.1z" />
			<path id="Layer" class="shp1" d="M296,69.9h32.3v34.1c0,2.5 2,4.5 4.5,4.5h9.3c2.5,0 4.5,-2 4.5,-4.5v-34.1h32.3c2.5,0 4.5,-2 4.5,-4.5v-8.6c0,-2.5 -2,-4.5 -4.5,-4.5h-32.3v-33.7c0,-2.5 -2,-4.5 -4.5,-4.5h-9.3c-2.5,0 -4.5,2 -4.5,4.5v33.7h-32.3c-2.5,0 -4.5,2 -4.5,4.5v8.6c-0.1,2.4 1.9,4.5 4.5,4.5z" />
			<path id="Layer" class="shp1" d="M514.7,287.9l-0.1,-5.3l-0.3,-5.3c-0.1,-3.6 -0.6,-7.1 -0.9,-10.6c-0.1,-1.8 -0.4,-3.5 -0.6,-5.3l-0.8,-5.4l-0.9,-5.2c-0.3,-1.7 -0.6,-3.5 -1,-5.2l-1.1,-5.2l-0.3,-1.3c-0.1,-0.4 -0.2,-0.9 -0.3,-1.3l-0.6,-2.6c-0.4,-1.7 -0.8,-3.4 -1.3,-5.1l-1.5,-5.1c-4,-13.5 -9.4,-26.6 -15.8,-39c-12.8,-24.9 -30.3,-47.2 -50.9,-65.5l-1,-0.9l-1,-0.8l-2,-1.7l-2,-1.7c-0.7,-0.6 -1.3,-1.1 -2,-1.6c-2.7,-2.1 -5.4,-4.3 -8.2,-6.3c-1.4,-1 -2.8,-2 -4.2,-3l-4.3,-2.9l-2.1,-1.4l-2.2,-1.4l-4.4,-2.7c-11.7,-7.1 -24.1,-13 -36.8,-17.8c12.3,5.8 24,12.7 35,20.6l4.1,3l2,1.5l2,1.6l3.9,3.2c1.3,1.1 2.6,2.2 3.8,3.3c2.6,2.2 5,4.5 7.5,6.8c0.6,0.6 1.2,1.2 1.8,1.8l1.8,1.8l1.8,1.8l0.9,0.9l0.9,0.9c18.5,19.4 33.4,42 43.5,66.3c5.1,12.2 9.1,24.7 11.8,37.6l1,4.8c0.3,1.6 0.6,3.2 0.8,4.8l0.4,2.4c0.1,0.4 0.1,0.8 0.2,1.2l0.2,1.2l0.6,4.9c0.2,1.6 0.4,3.2 0.5,4.9l0.4,4.9l0.3,4.9c0.1,1.6 0.2,3.2 0.2,4.9c0,3.3 0.2,6.5 0,9.7l-0.1,4.9l-0.3,4.9c-0.4,6.5 -1.1,12.9 -2.1,19.3c-2,12.7 -5.1,25.2 -9.4,37.3c-8.6,24.1 -21.6,46.4 -38,65.5c-16.4,19.1 -36.3,35 -58.1,46.7c-10.9,5.9 -22.3,10.7 -34,14.4c-11.7,3.7 -23.7,6.3 -35.8,7.8c-6,0.7 -12.1,1.2 -18.2,1.4c-6.1,0.2 -12.1,0.1 -18.2,-0.3c-12.1,-0.7 -24,-2.5 -35.7,-5.4c-23.2,-5.8 -45.2,-15.8 -64.4,-29.5c-19.3,-13.6 -35.8,-30.7 -48.7,-49.9c-12.9,-19.3 -22.1,-40.7 -27,-62.9c-2.5,-11.1 -3.9,-22.4 -4.3,-33.6c-0.4,-11.3 0.2,-22.6 1.9,-33.7c3.3,-22.1 10.6,-43.4 21.5,-62.4c10.9,-19.1 25.2,-35.9 41.9,-49.6c16.7,-13.7 35.8,-24.1 55.8,-30.6c16.5,-5.4 33.7,-8.2 50.8,-8.4c6.1,-0.1 11.1,-5 11.1,-11.2v-82.2c0,-6.5 -5.5,-11.6 -12,-11.1c-12.7,1 -25.4,2.8 -37.8,5.5c-16.4,3.6 -32.3,8.7 -47.7,15.2c-30.7,13 -58.6,31.6 -82.2,54.5c-23.6,22.8 -42.8,49.9 -56.4,79.3c-13.7,29.4 -21.7,61.3 -23.8,93.3c-1,16 -0.6,31.9 1.3,47.7c1.8,15.8 5.2,31.4 9.9,46.5c9.4,30.2 24.5,58.5 43.9,82.9c19.4,24.4 43.3,45.1 69.8,60.7c26.6,15.7 55.9,26.2 86,31.1c15,2.5 30.2,3.5 45.3,3.2c7.5,-0.2 15.1,-0.7 22.5,-1.5c7.5,-0.9 14.9,-2 22.3,-3.6c14.7,-3 29.1,-7.4 42.9,-13.1c13.8,-5.7 27,-12.6 39.5,-20.7c24.9,-16.1 46.5,-36.7 63.7,-60.3c17.2,-23.6 29.9,-50.3 37.3,-78.1c3.7,-13.9 6.1,-28.2 7.2,-42.4c0.7,-7.5 0.9,-14.6 0.8,-21.7z" />
			<path id="Layer" class="shp1" d="M252,398.6v-222.6h-33.6c-14.3,18 -35.3,29.9 -62.9,35.6v26h5.7c13.2,0 21.7,0.9 25.5,2.7c3.8,1.8 6.1,4.4 7,7.9c0.8,3.5 1.3,13.8 1.3,31.1v119.3z" />
			<path id="Layer" class="shp1" d="M275.3,229.1c0,-19.2 5.5,-33.5 16.4,-43.1c10.9,-9.6 27.2,-14.4 49,-14.4c25.1,0 42.5,5.1 52.1,15.3c9.6,10.2 14.4,24.7 14.4,43.6c0,12 -1.5,20.7 -4.7,26c-3.1,5.3 -9.6,10.6 -19.4,15.8c8.4,3.3 14.9,8.2 19.4,14.8c4.5,6.5 6.8,22.1 6.8,46.8c0,18 -1.8,31.3 -5.4,39.8c-3.6,8.6 -10.5,15.5 -20.9,21c-10.4,5.5 -24.3,8.2 -41.7,8.2c-17,0 -30.4,-2.6 -40.3,-7.8c-9.9,-5.3 -17,-12.2 -21.3,-20.8c-4.3,-8.7 -6.4,-23 -6.4,-43.1c0,-13.5 1.1,-25.2 3.2,-35.1c2.1,-9.9 8.8,-17.8 20,-23.8c-7.1,-3.3 -12.4,-8.5 -15.9,-15.7c-3.6,-7.2 -5.3,-16.4 -5.3,-27.5zM331.4,224.5v16.9c0,6.7 0.8,11.3 2.3,13.9c1.5,2.6 4,3.9 7.6,3.9c3.7,0 6.3,-1.3 7.6,-3.8c1.3,-2.5 2,-7.7 2,-15.6v-15.3c0,-7.5 -0.6,-12.5 -2,-14.9c-1.3,-2.4 -3.9,-3.6 -7.8,-3.6c-3.7,0 -6.3,1.3 -7.6,3.9c-1.3,2.6 -2,7.5 -2,14.6zM330.4,346c0,9.7 1,15.9 2.8,18.6c1.8,2.7 4.7,4.1 8.7,4.1c4.1,0 6.8,-1.4 8.2,-4.2c1.4,-2.8 2.1,-9.1 2.1,-18.9v-28.5c0,-8.5 -0.9,-14.2 -2.7,-17c-1.8,-2.8 -4.6,-4.2 -8.5,-4.2c-3.7,0 -6.5,1.4 -8.1,4.1c-1.7,2.7 -2.5,8.4 -2.5,17.1z" />
		</g>
	</g>
</svg>