<svg xmlns="http://www.w3.org/2000/svg" viewBox="0 0 334 334" width="100" height="100">
	<style>
		tspan { white-space:pre }
		.shp0 { fill: #ce244c } 
		.shp1 { fill: #b21b4a } 
		.shp2 { fill: #edf2f4;stroke: #87072f;stroke-width: 4 } 
	</style>
	<g id="Layer">
		<path id="SVGID_1_" class="shp0" d="M167.8,331.7v0c-90.5,0 -163.8,-73.3 -163.8,-163.8v0c0,-90.5 73.3,-163.8 163.8,-163.8v0c90.5,0 163.8,73.3 163.8,163.8v0c-0.1,90.5 -73.4,163.8 -163.8,163.8z" />
		<path id="Layer" class="shp1" d="M252.4,112.4l-140.5,140.5l77.4,77.4c73,-9.6 130.9,-67.3 140.8,-140.2z" />
	</g>
	<path id="Layer" class="shp2" d="M206.4,165.4l45.9,-45.9c2,-2 2,-5.1 0,-7.1l-31.9,-31.9c-2,-2 -5.1,-2 -7.1,0l-45.9,45.9l-45.9,-45.9c-2,-2 -5.1,-2 -7.1,0l-31.9,31.9c-2,2 -2,5.1 0,7.1l45.9,45.9l-45.9,45.9c-2,2 -2,5.1 0,7.1l31.9,31.9c2,2 5.1,2 7.1,0l45.9,-45.9l45.9,45.9c2,2 5.1,2 7.1,0l31.9,-31.9c2,-2 2,-5.1 0,-7.1z" />
</svg>