<svg xmlns="http://www.w3.org/2000/svg" viewBox="0 0 394 394" width="32" height="32">
	<defs>
		<linearGradient id="grd1" gradientUnits="userSpaceOnUse"  x1="309.317" y1="18.478" x2="117.821" y2="80.699">
			<stop offset="0" stop-color="#dc2430"  />
			<stop offset="0.18" stop-color="#d82535"  />
			<stop offset="0.385" stop-color="#cb2a42"  />
			<stop offset="0.602" stop-color="#b53059"  />
			<stop offset="0.826" stop-color="#973a79"  />
			<stop offset="1" stop-color="#7b4397"  />
		</linearGradient>
		<linearGradient id="grd2" gradientUnits="userSpaceOnUse"  x1="528.708" y1="41.462" x2="98.629" y2="299.879">
			<stop offset="0" stop-color="#dc2430"  />
			<stop offset="0.192" stop-color="#d82534"  />
			<stop offset="0.39" stop-color="#cc2941"  />
			<stop offset="0.592" stop-color="#b92f55"  />
			<stop offset="0.795" stop-color="#9e3872"  />
			<stop offset="0.999" stop-color="#7b4397"  />
		</linearGradient>
	</defs>
	<style>
		tspan { white-space:pre }
		.shp0 { fill: url(#grd1) } 
		.shp1 { fill: url(#grd2) } 
		.shp2 { fill: #ff69ab } 
	</style>
	<g id="Layer">
		<path id="Layer" class="shp0" d="M282.8,81.32c-37.29,36.85 -125.83,28.89 -142.4,1.96c-12.43,-20.17 58.77,-39.58 30.53,-38.49c-19.95,0.76 -117.98,-9.49 -41.87,-29.77c40.78,-10.9 102.28,-23.33 141.31,0.22c27.8,16.57 31.73,46.99 12.43,66.08z" />
		<path id="Layer" class="shp1" d="M300.91,70.64c63.68,-56.37 81.23,-55.06 35.98,73.38c-16.03,45.8 -13.52,62.91 10.47,106.09c60.73,108.16 27.26,88.21 -73.27,58.44c-38.71,-11.45 -47.98,-4.25 -75.56,24.97c-85.59,91.05 -107.29,67.06 -79.71,-28.57c16.36,-56.7 -7.85,-67.38 -57.57,-98.24c-70.22,-43.51 -54.52,-68.8 20.83,-64.33c122.12,7.41 169.33,-28.13 218.84,-71.75z" />
		<path id="Layer" class="shp2" d="M313.38,110.76c-62.37,43.18 -128.55,48.08 -204.99,49.18c-104.46,1.2 111.11,55.06 204.99,-49.18z" />
		<path id="Layer" class="shp2" d="M250.18,39.45c-28.68,-19.74 -59.21,-22.13 -94.1,-22.68c-48.19,-0.65 50.92,-25.41 94.1,22.68z" />
	</g>
</svg>