<?xml version="1.0" encoding="UTF-8"?>
<svg width="128px" height="130px" viewBox="0 0 128 130" version="1.1" xmlns="http://www.w3.org/2000/svg" xmlns:xlink="http://www.w3.org/1999/xlink">
    <!-- Generator: Sketch 48.1 (47250) - http://www.bohemiancoding.com/sketch -->
    <title>Fingers Crossed Icon</title>
    <desc>Created with Sketch.</desc>
    <defs>
        <linearGradient x1="0%" y1="0%" x2="100%" y2="100%" id="linearGradient-1">
            <stop stop-color="#7B4397" offset="0%"></stop>
            <stop stop-color="#B5238A" offset="61.7964764%"></stop>
            <stop stop-color="#DC2430" offset="100%"></stop>
        </linearGradient>
        <linearGradient x1="-300.449243%" y1="-210.756679%" x2="762.131331%" y2="382.161988%" id="linearGradient-2">
            <stop stop-color="#7B4397" offset="0%"></stop>
            <stop stop-color="#B5238A" offset="61.7964764%"></stop>
            <stop stop-color="#DC2430" offset="100%"></stop>
        </linearGradient>
        <linearGradient x1="-280.24691%" y1="-219.787322%" x2="637.852035%" y2="452.152233%" id="linearGradient-3">
            <stop stop-color="#7B4397" offset="0%"></stop>
            <stop stop-color="#B5238A" offset="61.7964764%"></stop>
            <stop stop-color="#DC2430" offset="100%"></stop>
        </linearGradient>
        <linearGradient x1="-276.380348%" y1="-222.816038%" x2="412.718248%" y2="316.558704%" id="linearGradient-4">
            <stop stop-color="#7B4397" offset="0%"></stop>
            <stop stop-color="#B5238A" offset="61.7964764%"></stop>
            <stop stop-color="#DC2430" offset="100%"></stop>
        </linearGradient>
        <linearGradient x1="-434.078205%" y1="-43.7812227%" x2="593.873712%" y2="359.903836%" id="linearGradient-5">
            <stop stop-color="#7B4397" offset="0%"></stop>
            <stop stop-color="#B5238A" offset="61.7964764%"></stop>
            <stop stop-color="#DC2430" offset="100%"></stop>
        </linearGradient>
    </defs>
    <g id="Transaction-Complete" stroke="none" stroke-width="1" fill="none" fill-rule="evenodd" transform="translate(-656.000000, -383.000000)">
        <g id="Fingers-Crossed-Icon" transform="translate(656.000000, 383.000000)">
            <ellipse id="Oval" fill="url(#linearGradient-1)" cx="64" cy="64.741905" rx="64" ry="64.741905"></ellipse>
            <g id="shutterstock_454901467" transform="translate(1.673203, 11.848192)">
                <path d="M45.2382118,89.2346562 L45.8644078,84.4980877 C35.8437647,69.9260813 32.5632,45.2472288 55.3487059,43.7990412 L67.0692392,40.2994239 L67.1289725,40.1186543 L78.0446118,47.5101488 C81.4147765,59.9702996 80.7584627,71.5552923 76.5831529,82.2958474 L76.7026196,89.2346562 L45.2382118,89.2346562" id="Fill-4" fill="#FFFFFF"></path>
                <path d="M38.2295843,57.4057585 C39.1541961,52.0656939 42.0472471,48.2339886 46.9980863,45.8806839 C49.3839059,48.8374848 50.6664157,53.634733 51.7398588,56.5610671 C53.0522353,60.0908973 55.6170039,67.9652902 50.8152471,70.0469328 C49.6225882,70.5900032 48.3696941,70.8311985 47.117051,70.4691516 C43.6279216,69.5340754 41.3610667,64.1335849 39.8697412,61.1468251 C39.4523608,60.2719207 38.706698,58.582284 38.2295843,57.4057585" id="Fill-5" fill="url(#linearGradient-2)"></path>
                <path d="M43.5084549,47.449723 C46.2225569,45.1870569 50.2784,44.1311291 55.3487059,43.7990412 C56.153851,44.8854358 56.8693961,46.0919202 57.4662275,47.2082738 C59.493898,50.7683169 61.3132549,55.2334772 61.4327216,59.3967625 C61.4625882,61.9915165 60.7764078,65.2194717 58.1222902,66.3358253 C55.6170039,67.3615402 53.0522353,65.7625421 51.3520941,64.0129873 C48.6083765,61.1468251 46.6996706,56.7720495 45.4768941,53.0611959 C44.9995294,51.6432212 44.4330667,50.3158852 44.0154353,48.8676976 C43.9260863,48.5356098 43.5980549,47.7813031 43.5084549,47.449723" id="Fill-6" fill="url(#linearGradient-3)"></path>
                <path d="M79.8637176,57.0739245 C80.2216157,59.6983836 80.2216157,61.0262274 80.191749,63.5905146 L76.6428863,82.11457 L76.6428863,82.1447829 C66.9500235,88.4201777 59.1957333,76.6236948 68.5904314,69.2621594 C64.1764392,71.2536712 54.6329098,70.5595364 57.6150588,63.3188525 C60.8958745,56.8025163 71.8112627,54.1473365 78.0147451,56.8324753 L79.8637176,57.0739245" id="Fill-7" fill="url(#linearGradient-4)"></path>
                <path d="M57.1379451,47.2384866 C65.9360627,65.6721573 53.0522353,72.5507943 47.564549,51.2207485 C46.8188863,48.2944144 44.134902,41.8379962 48.7870745,40.601045 C53.2010667,39.3945606 55.4975373,43.7990412 57.1379451,47.2384866" id="Fill-8" fill="#FFFFFF"></path>
                <path d="M40.9436863,61.206997 C43.7767529,66.8791495 45.8049255,71.3440559 49.9503686,69.3830109 C52.8434196,68.1460597 52.0977569,63.2888935 50.0695843,57.7977644 C48.6382431,53.9061412 45.7750588,42.3208947 39.5715765,46.3937952 C35.4261333,49.0786801 38.9752471,57.3151198 40.9436863,61.206997" id="Fill-9" fill="#FFFFFF"></path>
                <path d="M83.9198118,74.8439271 C85.2023216,72.7016048 86.425098,70.5293235 87.0512941,68.3270832 C90.7796078,55.7161217 80.5797647,56.3498307 72.3779765,57.284907 C67.994102,57.7678054 60.8062745,58.5520711 59.5237647,63.7715381 C58.9274353,66.2152276 60.8062745,68.3875089 66.5027765,67.9952492 C68.083451,67.8743976 69.6342588,67.9952492 71.1850667,68.5987453 C69.9025569,69.5340754 68.8291137,70.6803879 67.814902,71.7665286 C59.4642824,80.6968492 71.9902118,94.8161701 83.9198118,74.8439271" id="Fill-10" fill="#FFFFFF"></path>
                <path d="M54.1259294,45.6394885 L59.8221804,30.0420211 L66.5323922,11.8193329 C70.6780863,0.535707527 82.726902,3.61310608 78.4921098,15.8620206 L70.886902,36.7998066 L64.9815843,53.1216216 L54.1259294,45.6394885" id="Fill-11" fill="#FFFFFF"></path>
                <g id="Group-15" transform="translate(56.470588, 4.316127)">
                    <path d="M2.84461176,26.6005446 L3.26199216,25.454232 L10.0618039,7.50320595 C10.6583843,5.90420784 11.4040471,4.30520974 12.2390588,3.27949485 L18.3529412,22.225769 L14.4163137,32.4836796 L11.9705098,39.2117599 L6.81110588,41.6554494 L2.84461176,26.6005446" id="Fill-12" fill="url(#linearGradient-5)"></path>
                    <path d="M9.1673098,45.9997582 L5.14083137,29.8889256 L0.488658824,11.0028233 C-2.22569412,-0.0695658116 9.79350588,-5.04732969 12.6268235,7.50320595 L18.0547765,29.1351267 L22.2898196,45.9695453 L9.1673098,45.9997582" id="Fill-14" fill="#FFFFFF"></path>
                </g>
                <polygon id="Fill-16" fill="#FFFFFF" points="43.8962196 95.5704768 78.0147451 95.5704768 78.0147451 90.1397734 43.8962196 90.1397734"></polygon>
            </g>
        </g>
    </g>
</svg>