<svg xmlns="http://www.w3.org/2000/svg" xmlns:xlink="http://www.w3.org/1999/xlink" viewBox="0 0 1100.94 355.43"><defs><style>.cls-1{fill:#231f20;}.cls-2{fill:#929497;}.cls-3{fill:#f9a21e;}.cls-4{fill:url(#linear-gradient);}.cls-5{opacity:0.5;fill:url(#linear-gradient-2);}.cls-6{fill:url(#linear-gradient-3);}.cls-7{fill:url(#linear-gradient-4);}.cls-8{fill:#fdfdfd;}.cls-9{fill:#027f4e;}</style><linearGradient id="linear-gradient" x1="269.11" y1="116.12" x2="269.11" y2="70.54" gradientUnits="userSpaceOnUse"><stop offset="0" stop-color="#e37a26"/><stop offset="0.47" stop-color="#f9a21e"/></linearGradient><linearGradient id="linear-gradient-2" x1="268.96" y1="67.33" x2="268.96" y2="36.73" gradientUnits="userSpaceOnUse"><stop offset="0" stop-color="#fff"/><stop offset="1" stop-color="#f9a21e"/></linearGradient><linearGradient id="linear-gradient-3" x1="308.96" y1="36.2" x2="308.96" y2="36.27" gradientUnits="userSpaceOnUse"><stop offset="0" stop-color="#484848"/><stop offset="1"/></linearGradient><linearGradient id="linear-gradient-4" x1="269.15" y1="36.58" x2="269.15" y2="115.81" xlink:href="#linear-gradient-3"/></defs><title>Trustpilot_5star_Logo</title><g id="Logo_on_white" data-name="Logo on white"><path class="cls-1" d="M395.7,39.52a15.31,15.31,0,0,1-.13,2.11,4.72,4.72,0,0,1-.42,1.45,2.17,2.17,0,0,1-.7.8,1.78,1.78,0,0,1-.94.25H370.16v72a1.6,1.6,0,0,1-.26.9,1.7,1.7,0,0,1-.9.61,10.2,10.2,0,0,1-1.7.39,20.92,20.92,0,0,1-2.66.16A21.18,21.18,0,0,1,362,118a10.22,10.22,0,0,1-1.74-.39,1.7,1.7,0,0,1-.89-.61,1.59,1.59,0,0,1-.25-.9v-72H335.77a1.76,1.76,0,0,1-.93-.25,1.89,1.89,0,0,1-.67-.8,5.75,5.75,0,0,1-.42-1.45,12.62,12.62,0,0,1-.15-2.11,13.19,13.19,0,0,1,.15-2.15,6.29,6.29,0,0,1,.42-1.51,1.89,1.89,0,0,1,.67-.84,1.82,1.82,0,0,1,.93-.25h57.75a1.85,1.85,0,0,1,.94.25,2.16,2.16,0,0,1,.7.84,5.15,5.15,0,0,1,.42,1.51A16,16,0,0,1,395.7,39.52Z" transform="translate(-46.42 -34.76)"/><path class="cls-1" d="M466.54,116.12a1.78,1.78,0,0,1-.21.9,1.37,1.37,0,0,1-.82.63,7,7,0,0,1-1.79.4,29.84,29.84,0,0,1-3.08.13,23.94,23.94,0,0,1-2.73-.13,6.36,6.36,0,0,1-1.7-.42,2.19,2.19,0,0,1-1-.8,4.72,4.72,0,0,1-.62-1.29L447,96c-.9-2.22-1.84-4.27-2.79-6.13A20,20,0,0,0,440.74,85a14,14,0,0,0-4.68-3.14,16.75,16.75,0,0,0-6.48-1.13H422.2v35.35a1.41,1.41,0,0,1-.29.9,1.85,1.85,0,0,1-.9.61,9.27,9.27,0,0,1-1.66.39,21,21,0,0,1-2.67.16A20.76,20.76,0,0,1,414,118a10.24,10.24,0,0,1-1.71-.39,1.75,1.75,0,0,1-.9-.61,1.64,1.64,0,0,1-.25-.9V39.26a4.12,4.12,0,0,1,1.32-3.5,4.55,4.55,0,0,1,2.79-1h17.64c2.1,0,3.84.06,5.23.16s2.64.23,3.75.36a31.67,31.67,0,0,1,8.5,2.62,20.07,20.07,0,0,1,6.2,4.56,18.37,18.37,0,0,1,3.75,6.32,23.45,23.45,0,0,1,1.25,7.85,23.08,23.08,0,0,1-1.13,7.48A18,18,0,0,1,457.23,70a21.42,21.42,0,0,1-5.07,4.4,32.07,32.07,0,0,1-6.62,3.14,15.49,15.49,0,0,1,3.73,2.27,20.31,20.31,0,0,1,3.11,3.31,32.58,32.58,0,0,1,2.73,4.44c.84,1.65,1.7,3.54,2.56,5.64l7.44,18.28c.6,1.54,1,2.63,1.16,3.24A6.37,6.37,0,0,1,466.54,116.12ZM449.92,57.8a14.84,14.84,0,0,0-2.18-8.25c-1.46-2.24-3.89-3.86-7.31-4.84a21.36,21.36,0,0,0-3.63-.65c-1.35-.13-3.11-.19-5.29-.19H422.2v28H433a24.09,24.09,0,0,0,7.54-1.06,14.9,14.9,0,0,0,5.29-3,11.53,11.53,0,0,0,3.12-4.46A15.4,15.4,0,0,0,449.92,57.8Z" transform="translate(-46.42 -34.76)"/><path class="cls-1" d="M540.48,86.68A37.79,37.79,0,0,1,538.31,100a27,27,0,0,1-6.23,9.89,26.22,26.22,0,0,1-9.85,6.12A38.56,38.56,0,0,1,509,118.07a36.89,36.89,0,0,1-12.32-2,26.08,26.08,0,0,1-9.54-5.78,25.39,25.39,0,0,1-6.12-9.56,37.82,37.82,0,0,1-2.15-13.26V36.79a1.59,1.59,0,0,1,.25-.89,1.72,1.72,0,0,1,.88-.59,9.21,9.21,0,0,1,1.65-.38,17,17,0,0,1,2.65-.16,17.36,17.36,0,0,1,2.59.16,8.51,8.51,0,0,1,1.67.38,1.73,1.73,0,0,1,.86.59,1.6,1.6,0,0,1,.25.89V86.17a31.89,31.89,0,0,0,1.38,9.91,18.79,18.79,0,0,0,4,7,16.54,16.54,0,0,0,6.32,4.24,23,23,0,0,0,8.31,1.42,23.39,23.39,0,0,0,8.42-1.4,15.88,15.88,0,0,0,6.26-4.16,18.68,18.68,0,0,0,3.9-6.9,30.14,30.14,0,0,0,1.37-9.59v-50a1.59,1.59,0,0,1,.25-.89,1.7,1.7,0,0,1,.88-.59,9.31,9.31,0,0,1,1.67-.38,17.38,17.38,0,0,1,2.63-.16,16.61,16.61,0,0,1,2.55.16,8.32,8.32,0,0,1,1.64.38,1.9,1.9,0,0,1,.89.59,1.47,1.47,0,0,1,.27.89Z" transform="translate(-46.42 -34.76)"/><path class="cls-1" d="M602.73,94.22a23.56,23.56,0,0,1-2.1,10.15,21.81,21.81,0,0,1-5.82,7.53,25.2,25.2,0,0,1-8.77,4.67,36.63,36.63,0,0,1-10.86,1.57,37.47,37.47,0,0,1-7.53-.7,39.92,39.92,0,0,1-6.2-1.68,30.22,30.22,0,0,1-4.57-2.06,11.78,11.78,0,0,1-2.55-1.82,4.47,4.47,0,0,1-1.07-1.91,11.22,11.22,0,0,1-.35-3.1,16.74,16.74,0,0,1,.13-2.28,5.28,5.28,0,0,1,.38-1.47,1.65,1.65,0,0,1,.62-.78,1.75,1.75,0,0,1,.88-.22,5.18,5.18,0,0,1,2.47,1.06,36.31,36.31,0,0,0,4.1,2.31,37.61,37.61,0,0,0,6,2.34,27.51,27.51,0,0,0,8.17,1.1,20.57,20.57,0,0,0,6.42-.94,15.4,15.4,0,0,0,5-2.66,11.73,11.73,0,0,0,3.22-4.23,13.92,13.92,0,0,0,1.12-5.69,10.75,10.75,0,0,0-1.55-5.89,15.81,15.81,0,0,0-4.14-4.29,36.28,36.28,0,0,0-5.86-3.38l-6.72-3.13a69.32,69.32,0,0,1-6.7-3.54,28.26,28.26,0,0,1-5.82-4.57,21.32,21.32,0,0,1-4.17-6.17A20.53,20.53,0,0,1,554.91,56a21.1,21.1,0,0,1,1.86-9,18.42,18.42,0,0,1,5.13-6.67,22.9,22.9,0,0,1,7.82-4.1,32.61,32.61,0,0,1,9.79-1.41,33,33,0,0,1,5.42.47,38.4,38.4,0,0,1,5.13,1.26,30,30,0,0,1,4.29,1.75,10.91,10.91,0,0,1,2.46,1.58,4.38,4.38,0,0,1,.78.93,3.17,3.17,0,0,1,.32.87,8.26,8.26,0,0,1,.19,1.29c0,.5.07,1.14.07,1.93a19.58,19.58,0,0,1-.1,2,7,7,0,0,1-.29,1.48,1.81,1.81,0,0,1-.53.87,1.24,1.24,0,0,1-.78.28,5,5,0,0,1-2.17-.88c-1-.58-2.17-1.23-3.6-2a32.91,32.91,0,0,0-5-2,22.21,22.21,0,0,0-6.55-.91,17.4,17.4,0,0,0-5.88.91A12.38,12.38,0,0,0,569.12,47a9.64,9.64,0,0,0-2.44,3.57,12,12,0,0,0-.81,4.39,10.58,10.58,0,0,0,1.57,5.82,15.89,15.89,0,0,0,4.16,4.32,37.24,37.24,0,0,0,5.92,3.44l6.76,3.17c2.3,1.06,4.54,2.23,6.76,3.5A28.87,28.87,0,0,1,597,79.74a20.66,20.66,0,0,1,4.18,6.14A20,20,0,0,1,602.73,94.22Z" transform="translate(-46.42 -34.76)"/><path class="cls-1" d="M671.28,39.51a15.11,15.11,0,0,1-.13,2.1,4.57,4.57,0,0,1-.42,1.45,2,2,0,0,1-.71.8,1.69,1.69,0,0,1-.93.25H645.78V116a1.52,1.52,0,0,1-.26.89,1.68,1.68,0,0,1-.89.62,9.73,9.73,0,0,1-1.7.38,21.06,21.06,0,0,1-5.28,0,9.54,9.54,0,0,1-1.73-.38,1.72,1.72,0,0,1-.9-.62,1.59,1.59,0,0,1-.26-.89V44.11H611.45a1.71,1.71,0,0,1-.93-.25,1.78,1.78,0,0,1-.67-.8,6.38,6.38,0,0,1-.42-1.45,12.34,12.34,0,0,1-.16-2.1,12.94,12.94,0,0,1,.16-2.14,6.92,6.92,0,0,1,.42-1.51,1.86,1.86,0,0,1,.67-.84,1.82,1.82,0,0,1,.93-.25H669.1A1.8,1.8,0,0,1,670,35a2.05,2.05,0,0,1,.71.84,5,5,0,0,1,.42,1.51A15.84,15.84,0,0,1,671.28,39.51Z" transform="translate(-46.42 -34.76)"/><path class="cls-2" d="M735.4,59.08a29.21,29.21,0,0,1-2.06,11.24,23.59,23.59,0,0,1-5.87,8.53,26.05,26.05,0,0,1-9.37,5.46,40.43,40.43,0,0,1-13.25,1.92h-9.43v29.9a1.49,1.49,0,0,1-.29.9,1.88,1.88,0,0,1-.9.61,9.1,9.1,0,0,1-1.68.39,22.35,22.35,0,0,1-5.31,0,9.79,9.79,0,0,1-1.71-.39,1.66,1.66,0,0,1-.9-.61,1.55,1.55,0,0,1-.26-.9V39.52a4.47,4.47,0,0,1,1.35-3.66,4.66,4.66,0,0,1,3-1.09h17.77c1.8,0,3.52.07,5.17.23a46.83,46.83,0,0,1,5.83,1,24.14,24.14,0,0,1,6.88,2.76,21.68,21.68,0,0,1,5.93,5,21.21,21.21,0,0,1,3.75,6.83A26.47,26.47,0,0,1,735.4,59.08Zm-11.62.9a17.11,17.11,0,0,0-1.9-8.46,13.11,13.11,0,0,0-4.68-5.08,15.76,15.76,0,0,0-5.77-2.12,40.19,40.19,0,0,0-5.81-.45h-10.2V77.17h9.94a23.11,23.11,0,0,0,8.3-1.28,15.55,15.55,0,0,0,5.55-3.55,15,15,0,0,0,3.41-5.45A20.2,20.2,0,0,0,723.78,60Z" transform="translate(-46.42 -34.76)"/><path class="cls-2" d="M761.51,116.06a1.54,1.54,0,0,1-.25.89,1.71,1.71,0,0,1-.9.6,9.38,9.38,0,0,1-1.69.39,18.42,18.42,0,0,1-2.64.15,18.66,18.66,0,0,1-2.61-.15,9.28,9.28,0,0,1-1.72-.39,1.74,1.74,0,0,1-.9-.6,1.6,1.6,0,0,1-.25-.89V36.81a1.49,1.49,0,0,1,.28-.9,1.87,1.87,0,0,1,1-.6,9.53,9.53,0,0,1,1.72-.39,17.82,17.82,0,0,1,2.52-.16,18.6,18.6,0,0,1,2.64.16,8.62,8.62,0,0,1,1.69.39,1.67,1.67,0,0,1,.9.6,1.55,1.55,0,0,1,.25.9Z" transform="translate(-46.42 -34.76)"/><path class="cls-2" d="M825,113.37a15.51,15.51,0,0,1-.12,2.14,5,5,0,0,1-.43,1.48,2,2,0,0,1-.7.89,1.67,1.67,0,0,1-1,.3H786a4.52,4.52,0,0,1-2.78-1,4.14,4.14,0,0,1-1.31-3.5V36.82a1.54,1.54,0,0,1,.25-.9,1.73,1.73,0,0,1,.89-.61,9.55,9.55,0,0,1,1.74-.39,21.47,21.47,0,0,1,5.29,0,9.26,9.26,0,0,1,1.7.39,1.68,1.68,0,0,1,.9.61,1.56,1.56,0,0,1,.26.9v71.79h29.76a1.67,1.67,0,0,1,1,.29,2.16,2.16,0,0,1,.7.83,4.27,4.27,0,0,1,.43,1.45A16.2,16.2,0,0,1,825,113.37Z" transform="translate(-46.42 -34.76)"/><path class="cls-2" d="M900.12,75.44a62.75,62.75,0,0,1-2.32,17.68,37,37,0,0,1-6.91,13.4A30.16,30.16,0,0,1,879.38,115a40.83,40.83,0,0,1-16.18,3,41.75,41.75,0,0,1-15.78-2.71,27.84,27.84,0,0,1-11-7.91A33.67,33.67,0,0,1,830,94.49a66.58,66.58,0,0,1-2.13-17.68,61.43,61.43,0,0,1,2.32-17.38,36.16,36.16,0,0,1,6.94-13.27,30.57,30.57,0,0,1,11.56-8.43,40.89,40.89,0,0,1,16.18-3,41.32,41.32,0,0,1,15.56,2.69,28.35,28.35,0,0,1,11,7.84A33.47,33.47,0,0,1,898,58,63.88,63.88,0,0,1,900.12,75.44Zm-11.37.75a63.67,63.67,0,0,0-1.22-12.78,29.61,29.61,0,0,0-4.06-10.24,19.61,19.61,0,0,0-7.58-6.78A25.63,25.63,0,0,0,864.16,44a24,24,0,0,0-11.73,2.62,22.07,22.07,0,0,0-7.7,7,29.11,29.11,0,0,0-4.24,10.21,57.11,57.11,0,0,0-1.28,12.28,67.55,67.55,0,0,0,1.19,13.13,29.41,29.41,0,0,0,4,10.32,19.12,19.12,0,0,0,7.52,6.75,25.85,25.85,0,0,0,11.83,2.41A24.44,24.44,0,0,0,875.59,106,21.33,21.33,0,0,0,883.32,99a30.13,30.13,0,0,0,4.18-10.33A59.83,59.83,0,0,0,888.76,76.19Z" transform="translate(-46.42 -34.76)"/><path class="cls-2" d="M964.56,39.52a14.26,14.26,0,0,1-.13,2.11,4.22,4.22,0,0,1-.42,1.45,2.06,2.06,0,0,1-.7.8,1.74,1.74,0,0,1-.93.25H939v72a1.51,1.51,0,0,1-.27.9,1.63,1.63,0,0,1-.89.61,10.11,10.11,0,0,1-1.71.39,20.7,20.7,0,0,1-2.66.16,21.07,21.07,0,0,1-2.62-.16,10,10,0,0,1-1.73-.39,1.67,1.67,0,0,1-.9-.61,1.58,1.58,0,0,1-.26-.9v-72H904.62a1.73,1.73,0,0,1-.92-.25,1.88,1.88,0,0,1-.68-.8,6.41,6.41,0,0,1-.41-1.45,11.88,11.88,0,0,1-.16-2.11,12.42,12.42,0,0,1,.16-2.15,7,7,0,0,1,.41-1.51,1.88,1.88,0,0,1,.68-.84,1.79,1.79,0,0,1,.92-.25h57.76a1.8,1.8,0,0,1,.93.25,2.05,2.05,0,0,1,.7.84,4.6,4.6,0,0,1,.42,1.51A14.9,14.9,0,0,1,964.56,39.52Z" transform="translate(-46.42 -34.76)"/><path class="cls-3" d="M229.29,36.2V71.46s26.62,12.71,40.17,35.43c0,0,6-50.18,39.55-70.69Z" transform="translate(-46.42 -34.76)"/><path class="cls-4" d="M229.21,100.51v15.61h35.87A56.42,56.42,0,0,0,229.21,100.51Zm45.5,15.58H309V70.54C289.6,75.79,274.71,116.09,274.71,116.09Z" transform="translate(-46.42 -34.76)"/><path class="cls-5" d="M229.75,36.73h78.43s-12.88,4.54-26.75,30.1c0,0-30.33,3.09-51.61-6.18Z" transform="translate(-46.42 -34.76)"/><path class="cls-6" d="M308.91,36.27l.1-.07" transform="translate(-46.42 -34.76)"/><path class="cls-7" d="M269.46,106.89c-13.55-22.72-40.17-35.43-40.17-35.43v29.07a56.46,56.46,0,0,1,35.79,15.59l9.63,0S289.6,75.79,309,70.54V36.27h-.1C275.43,56.82,269.46,106.89,269.46,106.89Z" transform="translate(-46.42 -34.76)"/><path class="cls-8" d="M553.39,152.27h-.75c.32-.75.54-.15.79.07Z" transform="translate(-46.42 -34.76)"/><path class="cls-8" d="M1077.72,152.28l.57-.21-.49.19Z" transform="translate(-46.42 -34.76)"/><rect class="cls-9" y="167.05" width="188.38" height="188.38" rx="30.48" ry="30.48"/><rect class="cls-9" x="228.14" y="167.05" width="188.38" height="188.38" rx="30.48" ry="30.48"/><rect class="cls-9" x="454.4" y="167.05" width="188.38" height="188.38" rx="30.48" ry="30.48"/><rect class="cls-9" x="684.42" y="167.05" width="188.38" height="188.38" rx="30.48" ry="30.48"/><rect class="cls-9" x="912.56" y="167.05" width="188.38" height="188.38" rx="30.48" ry="30.48"/><polygon class="cls-8" points="548.59 202.24 563.23 247.32 610.63 247.32 572.28 275.17 586.93 320.24 548.59 292.38 510.24 320.24 524.88 275.17 486.54 247.32 533.94 247.32 548.59 202.24"/><polygon class="cls-8" points="322.33 202.24 336.98 247.32 384.38 247.32 346.03 275.17 360.68 320.24 322.33 292.38 283.98 320.24 298.63 275.17 260.28 247.32 307.68 247.32 322.33 202.24"/><polygon class="cls-8" points="1006.02 202.24 1020.67 247.32 1068.07 247.32 1029.72 275.17 1044.37 320.24 1006.02 292.38 967.67 320.24 982.32 275.17 943.97 247.32 991.37 247.32 1006.02 202.24"/><polygon class="cls-8" points="779.76 202.24 794.41 247.32 841.81 247.32 803.46 275.17 818.11 320.24 779.76 292.38 741.42 320.24 756.06 275.17 717.72 247.32 765.12 247.32 779.76 202.24"/><polygon class="cls-8" points="94.19 202.24 108.84 247.32 156.24 247.32 117.89 275.17 132.53 320.24 94.19 292.38 55.84 320.24 70.49 275.17 32.14 247.32 79.54 247.32 94.19 202.24"/></g></svg>