<svg xmlns="http://www.w3.org/2000/svg" viewBox="0 0 326 326" width="100" height="100">
	<style>
		tspan { white-space:pre }
		.shp0 { fill: #f0c30f } 
		.shp1 { fill: #f29c12 } 
		.shp2 { fill: #35495d } 
		.shp3 { fill: #354a5d } 
	</style>
	<g id="Partial-Transaction-Error">
		<g id="Group">
			<g id="Layer">
				<path id="Layer" class="shp0" d="M11.5,285.6c-0.3,-2.8 -0.8,-5.6 -0.8,-8.4c-0.1,-4.4 1.3,-8.6 3.3,-12.5c39.3,-78.7 78.7,-157.3 118,-236c2.5,-5 4.8,-10.1 8.3,-14.6c9.2,-11.8 25.3,-15.2 38.1,-7.7c6.6,3.8 11.1,9.6 14.4,16.3c8.8,17.7 17.5,35.5 26.4,53.2c31.4,62.9 62.9,125.9 94.4,188.8c3,6 4.2,12.3 2.7,18.9c-0.2,0.7 -0.1,1.5 -0.2,2.3c-0.2,0.3 -0.6,0.6 -0.7,0.9c-1.8,5.7 -5.2,10.4 -9.6,14.4c-5.1,4.5 -11.1,7.3 -17.9,7.3c-82.6,0 -165.3,0 -247.9,0c-1.6,0 -3.3,-0.2 -4.9,-0.6c-9.5,-2.2 -16.2,-8.1 -20.8,-16.6c-1.2,-1.9 -1.9,-3.9 -2.8,-5.7zM171.2,216.6c0.1,-0.6 0.3,-1.1 0.3,-1.5c0.3,-3.9 0.5,-7.9 0.8,-11.8c0.6,-9 1.2,-18 1.9,-27c0.8,-11.2 1.6,-22.5 2.4,-33.7c0.7,-9.2 1.4,-18.3 2,-27.5c0.2,-3.1 0.4,-6.2 -0.2,-9.2c-1.4,-7.1 -8.5,-12.4 -16.6,-11.4c-7.9,1 -13.8,7.9 -13.3,16c0.6,9.2 1.3,18.4 2,27.7c0.6,9 1.3,18.1 1.9,27.1c0.8,11.1 1.6,22.1 2.4,33.2c0.4,5.6 0.8,11.2 1.2,16.8c0,0.5 0.6,1.4 0.9,1.4c4.7,0 9.5,-0.1 14.3,-0.1zM163.7,231.9c-8.4,0.2 -15.2,6.4 -15.3,15.2c-0.1,8.4 6.3,15.2 15.2,15.3c8.4,0.1 15.2,-6.3 15.3,-15.2c0.1,-8.4 -6.3,-15 -15.2,-15.3z" />
				<path id="Layer" class="shp1" d="M11.5,285.6c0.8,1.9 1.5,3.9 2.5,5.7c4.5,8.5 11.2,14.4 20.8,16.6c1.6,0.4 3.3,0.6 4.9,0.6c82.6,0 165.3,0 247.9,0c6.9,0 12.8,-2.8 17.9,-7.3c4.5,-3.9 7.8,-8.6 9.6,-14.4c0.1,-0.3 0.5,-0.6 0.7,-0.9c2.2,9.2 -0.2,17.4 -5.7,24.8c-4.6,6.2 -10.6,10.4 -18.2,12.2c-1.8,0.4 -3.8,0.7 -5.7,0.7c-81.8,0 -163.6,0.1 -245.4,0c-8.5,0 -15.6,-3.8 -21.3,-9.9c-6.7,-7.1 -10,-15.6 -8.7,-25.5c0.3,-0.9 0.5,-1.8 0.7,-2.6z" />
				<path id="Layer" class="shp2" d="M171.2,216.6c-4.8,0 -9.6,0 -14.3,-0.1c-0.3,0 -0.9,-0.9 -0.9,-1.4c-0.4,-5.6 -0.8,-11.2 -1.2,-16.8c-0.8,-11.1 -1.6,-22.1 -2.4,-33.2c-0.6,-9 -1.3,-18.1 -1.9,-27.1c-0.7,-9.2 -1.4,-18.4 -2,-27.7c-0.5,-8 5.4,-15 13.3,-16c8.1,-1 15.2,4.4 16.6,11.4c0.6,3 0.4,6.2 0.2,9.2c-0.6,9.2 -1.3,18.3 -2,27.5c-0.8,11.2 -1.6,22.5 -2.4,33.7c-0.6,9 -1.3,18 -1.9,27c-0.3,3.9 -0.5,7.9 -0.8,11.8c-0.1,0.6 -0.2,1.1 -0.3,1.7z" />
				<path id="Layer" class="shp3" d="M163.7,231.9c8.8,0.3 15.2,6.9 15.2,15.4c-0.1,8.8 -6.9,15.2 -15.3,15.2c-8.8,-0.1 -15.2,-6.9 -15.2,-15.3c0.1,-8.9 6.9,-15.1 15.3,-15.3z" />
			</g>
		</g>
	</g>
</svg>